<?xml version="1.0" encoding="UTF-8"?>
<svg id="Layer_1" data-name="Layer 1" xmlns="http://www.w3.org/2000/svg" viewBox="0 0 96 96">
  <defs>
    <style>
      .cls-1 {
        fill: #fff;
      }
    </style>
  </defs>
  <path class="cls-1" d="M74.7,44.66c-3.68,0-6.67,2.99-6.67,6.67v8.34c-.02,11.07-9.01,20.03-20.08,20.02-.32,0-.64,0-.97-.02-10.82-.7-19.19-9.78-19-20.63v-7.71c0-3.69-2.99-6.67-6.67-6.67s-6.67,2.99-6.67,6.67v7.56c0,8.5,3.12,16.7,8.78,23.04.8.9,1.24,2.06,1.23,3.27v7.85c0,.92.75,1.67,1.67,1.67s1.67-.75,1.67-1.67v-7.85c0-2.03-.73-3.98-2.08-5.49-5.12-5.73-7.94-13.14-7.93-20.81v-7.56c0-1.84,1.49-3.34,3.34-3.34s3.34,1.49,3.34,3.34v7.71c-.19,12.63,9.57,23.17,22.18,23.96,12.9.64,23.88-9.3,24.52-22.2.02-.38.03-.75.03-1.13v-8.34c0-1.84,1.49-3.34,3.34-3.34s3.34,1.49,3.34,3.34v8.34c0,7.49-2.8,14.71-7.86,20.23-1.39,1.52-2.16,3.52-2.16,5.58v7.57c0,.92.75,1.67,1.67,1.67s1.67-.75,1.67-1.67v-7.57c0-1.23.45-2.42,1.28-3.33,5.62-6.14,8.73-14.16,8.73-22.48v-8.34c0-3.68-2.99-6.67-6.67-6.67Z"/>
  <path class="cls-1" d="M48,44.62c-8.29,0-15.02,6.72-15.02,15.02,0,8.29,6.72,15.02,15.02,15.02,8.29,0,15.02-6.72,15.02-15.02h0c0-8.29-6.73-15.01-15.02-15.02ZM48,71.32c-6.45,0-11.68-5.23-11.68-11.68,0-6.45,5.23-11.68,11.68-11.68s11.68,5.23,11.68,11.68h0c0,6.45-5.23,11.67-11.68,11.68Z"/>
  <path class="cls-1" d="M48,41.33c11.06,0,20.02-8.97,20.02-20.02S59.06,1.28,48,1.28s-20.02,8.97-20.02,20.02c.01,11.05,8.97,20.01,20.02,20.02ZM48,4.61c9.22,0,16.69,7.47,16.69,16.69s-7.47,16.69-16.69,16.69-16.69-7.47-16.69-16.69c.01-9.21,7.48-16.68,16.69-16.69Z"/>
  <path class="cls-1" d="M22.97,19.63h-4.17c-.92,0-1.67.75-1.67,1.67s.75,1.67,1.67,1.67h4.17c.92,0,1.67-.75,1.67-1.67s-.75-1.67-1.67-1.67Z"/>
  <path class="cls-1" d="M26.41,30.24c-.35-.85-1.33-1.25-2.18-.9l-11.56,4.79c-.85.35-1.26,1.33-.91,2.18.35.85,1.33,1.26,2.18.91,0,0,0,0,0,0l11.56-4.79c.85-.35,1.25-1.33.9-2.18Z"/>
  <path class="cls-1" d="M26.55,42.76c.65.65,1.71.65,2.36,0h0s2.57-2.57,2.57-2.57c.65-.65.65-1.71,0-2.36s-1.71-.65-2.36,0l-2.57,2.57c-.67.63-.74,1.65-.11,2.32.02.03.05.05.11.04Z"/>
  <path class="cls-1" d="M64.53,37.83c-.65.65-.65,1.71,0,2.36,0,0,0,0,0,0l2.57,2.57c.65.65,1.71.65,2.36,0,.65-.65.65-1.71,0-2.36l-2.57-2.57c-.65-.65-1.71-.65-2.36,0h0Z"/>
  <path class="cls-1" d="M83.33,34.13l-11.56-4.79c-.85-.35-1.83.05-2.18.9-.35.85.05,1.83.9,2.18,0,0,0,0,0,0l11.56,4.79c.85.35,1.83-.05,2.18-.9.35-.85-.05-1.83-.9-2.18,0,0,0,0,0,0Z"/>
  <path class="cls-1" d="M73.03,19.63c-.92,0-1.67.75-1.67,1.67s.75,1.67,1.67,1.67h4.17c.92,0,1.67-.75,1.67-1.67s-.75-1.67-1.67-1.67h-4.17Z"/>
  <path class="cls-1" d="M71.13,13.39c.22,0,.44-.04.64-.13l11.56-4.79c.85-.35,1.26-1.33.91-2.18-.35-.85-1.33-1.26-2.18-.91,0,0,0,0,0,0l-11.56,4.79c-.85.35-1.26,1.33-.9,2.18.26.62.87,1.03,1.54,1.03Z"/>
  <path class="cls-1" d="M12.67,8.48l11.56,4.79c.85.35,1.83-.05,2.18-.9.35-.85-.05-1.83-.9-2.18,0,0,0,0,0,0l-11.56-4.79c-.85-.35-1.83.05-2.18.9-.35.85.05,1.83.9,2.18Z"/>
  <path class="cls-1" d="M44.04,28.04c.65.65,1.71.65,2.36,0h0s11.12-11.13,11.12-11.13c.65-.65.65-1.71,0-2.36-.65-.65-1.71-.65-2.36,0l-9.95,9.95-4.38-4.38c-.66-.65-1.71-.64-2.36.02-.64.65-.64,1.69,0,2.34l5.56,5.56Z"/>
</svg>