<?xml version="1.0" encoding="UTF-8"?>
<svg id="Layer_1" data-name="Layer 1" xmlns="http://www.w3.org/2000/svg" viewBox="0 0 96 96">
  <path d="M87.16,46.46c.09,1.06.14,2.14.15,3.22l.64-.81c.53-.66,1.49-.77,2.15-.25.66.53.77,1.49.25,2.15l-3.48,4.39c-.29.37-.73.58-1.2.58h-.01c-.47,0-.91-.22-1.2-.6l-3.43-4.43c-.52-.67-.39-1.63.28-2.15.67-.52,1.63-.39,2.15.28l.79,1.03c0-1.05-.05-2.1-.14-3.15-.07-.84.55-1.59,1.4-1.66.84-.07,1.59.55,1.66,1.4h0ZM20.92,17.9c.3,0,.61-.09.88-.28.8-.56,1.63-1.09,2.47-1.6l-.45,1.04c-.34.78.02,1.68.8,2.02.2.09.4.13.61.13.59,0,1.16-.35,1.41-.92l2.23-5.14c.19-.43.17-.93-.06-1.34-.22-.41-.63-.7-1.09-.78l-5.53-.93c-.83-.14-1.62.42-1.77,1.26-.14.83.42,1.62,1.26,1.77l1.16.2c-.95.56-1.89,1.16-2.8,1.8-.69.49-.86,1.44-.38,2.13.3.43.77.65,1.26.65h0ZM77.06,27.36c.3.42.77.65,1.25.65.3,0,.61-.09.88-.28.69-.49.86-1.44.37-2.13-1.41-2.01-3.01-3.92-4.76-5.66-.6-.6-1.57-.6-2.17,0-.6.6-.6,1.57,0,2.17,1.62,1.62,3.1,3.39,4.42,5.26h0ZM4.31,40.94c.13.04.27.05.4.05.68,0,1.3-.45,1.48-1.14.59-2.21,1.38-4.38,2.35-6.45.36-.77.03-1.68-.74-2.04-.77-.36-1.68-.03-2.04.74-1.04,2.24-1.89,4.58-2.53,6.96-.22.82.27,1.66,1.08,1.88ZM3.59,55.25c.84-.07,1.47-.81,1.4-1.66-.1-1.14-.15-2.29-.15-3.44s.05-2.3.15-3.44c.07-.84-.55-1.59-1.4-1.66-.84-.07-1.59.55-1.66,1.4-.1,1.23-.16,2.47-.16,3.7s.05,2.47.16,3.7c.07.8.74,1.4,1.52,1.4.04,0,.09,0,.13,0h0ZM61.35,14.18c2.07.97,4.07,2.12,5.94,3.44.27.19.57.28.88.28.48,0,.96-.23,1.26-.65.49-.69.32-1.65-.38-2.13-2.02-1.42-4.18-2.66-6.4-3.7-.77-.36-1.68-.03-2.04.74-.36.77-.03,1.68.74,2.04ZM82.9,39.85c.18.68.8,1.14,1.48,1.14.13,0,.26-.02.4-.05.82-.22,1.3-1.06,1.08-1.88-.64-2.38-1.49-4.72-2.53-6.95-.36-.77-1.27-1.1-2.04-.74-.77.36-1.1,1.27-.74,2.04.97,2.07,1.76,4.25,2.35,6.45h0ZM9.9,27.74c.27.19.58.28.88.28.48,0,.96-.23,1.25-.65,1.31-1.87,2.8-3.64,4.42-5.26.6-.6.6-1.57,0-2.17-.6-.6-1.57-.6-2.17,0-1.74,1.74-3.34,3.65-4.76,5.66-.49.69-.32,1.65.37,2.13h0ZM67.29,82.7c-1.88,1.31-3.88,2.47-5.94,3.44-.77.36-1.1,1.27-.74,2.04.26.56.81.88,1.39.88.22,0,.44-.05.65-.14,2.23-1.04,4.38-2.29,6.4-3.7.69-.49.86-1.44.38-2.13-.49-.69-1.44-.86-2.13-.38h0ZM54.8,88.52c-2.21.59-4.48.99-6.76,1.19-.84.07-1.47.82-1.39,1.66.07.8.74,1.4,1.52,1.4.04,0,.09,0,.13,0,2.46-.21,4.91-.64,7.29-1.28.82-.22,1.3-1.06,1.09-1.88-.22-.82-1.06-1.3-1.88-1.09ZM41.06,89.71c-1.14-.1-2.28-.25-3.41-.45l1.23-.48c.79-.31,1.18-1.19.88-1.98-.31-.79-1.19-1.18-1.98-.88l-5.23,2.02c-.44.17-.78.53-.91.98-.14.45-.06.94.21,1.33l3.21,4.59c.3.43.77.65,1.26.65.3,0,.61-.09.88-.28.69-.49.86-1.44.38-2.13l-.58-.83c1.26.23,2.53.39,3.8.51.05,0,.09,0,.13,0,.79,0,1.46-.6,1.52-1.4.07-.84-.55-1.59-1.39-1.66h0ZM8.54,66.92c-.97-2.07-1.76-4.25-2.35-6.45-.22-.82-1.06-1.3-1.88-1.08-.82.22-1.3,1.06-1.08,1.88.64,2.38,1.49,4.72,2.53,6.95.26.56.81.89,1.39.89.22,0,.44-.05.65-.14.77-.36,1.1-1.27.74-2.04h0ZM94.02,77.65c-.27.47-.78.77-1.33.77h-21.51c-.55,0-1.05-.29-1.33-.77s-.27-1.06,0-1.53l10.76-18.63c.27-.47.78-.77,1.33-.77s1.05.29,1.33.77l10.76,18.63c.27.47.27,1.06,0,1.53ZM90.04,75.35l-8.1-14.03-8.1,14.03h16.2ZM29.05,81.89c0,5.98-4.87,10.85-10.85,10.85s-10.85-4.87-10.85-10.85,4.87-10.85,10.85-10.85,10.85,4.87,10.85,10.85ZM25.99,81.89c0-4.29-3.49-7.78-7.78-7.78s-7.78,3.49-7.78,7.78,3.49,7.78,7.78,7.78,7.78-3.49,7.78-7.78ZM33.7,15.81V2.03c0-.85.69-1.53,1.53-1.53h18.63c.85,0,1.53.69,1.53,1.53v13.78c0,.85-.69,1.53-1.53,1.53h-18.63c-.85,0-1.53-.69-1.53-1.53h0ZM36.76,14.28h15.56V3.56h-15.56v10.71ZM64.47,65.59l-4.49,4.49c-.45.45-1.13.57-1.71.32l-3.09-1.37c-1.52.86-3.14,1.53-4.82,2l-1.21,3.15c-.23.59-.8.98-1.43.98h-6.35c-.63,0-1.2-.39-1.43-.98l-1.21-3.15c-1.68-.47-3.3-1.14-4.82-2l-3.09,1.37c-.58.26-1.26.13-1.71-.32l-4.49-4.49c-.45-.45-.57-1.13-.32-1.71l1.37-3.09c-.86-1.52-1.53-3.14-2-4.82l-3.15-1.21c-.59-.23-.98-.8-.98-1.43v-6.35c0-.63.39-1.2.98-1.43l3.15-1.21c.47-1.68,1.14-3.3,2-4.82l-1.37-3.09c-.26-.58-.13-1.26.32-1.71l4.49-4.49c.45-.45,1.13-.57,1.71-.32l3.09,1.37c1.52-.86,3.14-1.53,4.82-2l1.21-3.15c.23-.59.8-.98,1.43-.98h6.35c.63,0,1.2.39,1.43.98l1.21,3.15c1.68.47,3.3,1.14,4.82,2l3.09-1.37c.58-.26,1.26-.13,1.71.32l4.49,4.49c.45.45.57,1.13.32,1.71l-1.37,3.09c.86,1.52,1.53,3.14,2,4.82l3.15,1.21c.59.23.98.8.98,1.43v6.35c0,.63-.39,1.2-.98,1.43l-3.15,1.21c-.47,1.68-1.14,3.3-2,4.82l1.37,3.09c.26.58.13,1.26-.32,1.71h0ZM63.58,53.4l2.91-1.12v-4.25l-2.91-1.12c-.47-.18-.82-.58-.94-1.08-.46-1.92-1.21-3.74-2.25-5.42-.27-.43-.3-.96-.1-1.43l1.27-2.85-3-3-2.85,1.27c-.46.21-1,.17-1.43-.1-1.68-1.03-3.5-1.79-5.42-2.25-.49-.12-.89-.47-1.08-.94l-1.12-2.91h-4.25l-1.12,2.91c-.18.47-.58.82-1.08.94-1.91.46-3.74,1.21-5.42,2.25-.43.26-.96.3-1.43.1l-2.85-1.27-3,3,1.27,2.85c.21.46.17,1-.1,1.43-1.03,1.68-1.79,3.5-2.25,5.42-.12.49-.47.89-.94,1.08l-2.91,1.12v4.25l2.91,1.12c.47.18.82.58.94,1.08.46,1.92,1.21,3.74,2.25,5.42.27.43.3.96.1,1.43l-1.27,2.85,3,3,2.85-1.27c.46-.21,1-.17,1.43.1,1.68,1.03,3.5,1.79,5.42,2.25.49.12.89.47,1.08.94l1.12,2.91h4.25l1.12-2.91c.18-.47.58-.82,1.08-.94,1.91-.46,3.74-1.21,5.42-2.25.43-.26.96-.3,1.43-.1l2.85,1.27,3-3-1.27-2.85c-.21-.46-.17-1,.1-1.43,1.03-1.68,1.79-3.5,2.25-5.42.12-.49.47-.89.94-1.08h0ZM57.16,50.16c0,6.95-5.66,12.61-12.61,12.61s-12.61-5.66-12.61-12.61,5.66-12.61,12.61-12.61,12.61,5.66,12.61,12.61ZM54.09,50.16c0-5.26-4.28-9.55-9.55-9.55s-9.55,4.28-9.55,9.55,4.28,9.55,9.55,9.55,9.55-4.28,9.55-9.55Z" fill="#fff"/>
</svg>