<?xml version="1.0" encoding="UTF-8"?>
<svg id="Layer_1" data-name="Layer 1" xmlns="http://www.w3.org/2000/svg" viewBox="0 0 96 96">
  <defs>
    <style>
      .cls-1 {
        fill: #fff;
      }
    </style>
  </defs>
  <path class="cls-1" d="M75.01,76.18c-7.53,7.53-17.54,11.67-28.18,11.67H3.41c-.79,0-1.44-.64-1.44-1.44s.64-1.44,1.44-1.44h43.42c20.39,0,36.98-16.59,36.98-36.98,0-18.71-14.24-34.44-32.44-36.7l4.25,3.32c.63.49.74,1.39.25,2.02-.28.36-.71.55-1.13.55-.31,0-.62-.1-.88-.3l-7.91-6.17c-.35-.27-.55-.69-.55-1.13s.2-.86.55-1.13l7.91-6.17c.63-.49,1.53-.38,2.02.25.49.63.38,1.53-.25,2.02l-4.86,3.8c9.29.91,17.9,5.01,24.51,11.74,7.36,7.5,11.42,17.41,11.42,27.92,0,10.65-4.15,20.65-11.67,28.18ZM21.43,78.72c.27.22.59.33.92.33.41,0,.82-.18,1.11-.52.51-.61.42-1.52-.19-2.03-8.53-7.06-13.42-17.45-13.42-28.5,0-16.77,11.31-31.47,27.5-35.75.77-.2,1.23-.99,1.02-1.76-.2-.77-.99-1.23-1.76-1.02C19.16,14.08,6.97,29.92,6.97,48c0,11.92,5.27,23.11,14.46,30.72h0ZM93.48,85.28l-7.91-6.17c-.63-.49-1.53-.38-2.02.25-.49.63-.38,1.53.25,2.02l4.61,3.6h-15.8c-.79,0-1.44.64-1.44,1.44s.64,1.44,1.44,1.44h15.8l-4.61,3.6c-.63.49-.74,1.39-.25,2.02.28.36.71.55,1.13.55.31,0,.62-.1.88-.3l7.91-6.17c.35-.27.55-.69.55-1.13s-.2-.86-.55-1.13h0ZM32.63,48c0-7.83,6.37-14.2,14.2-14.2s14.2,6.37,14.2,14.2-6.37,14.2-14.2,14.2c-7.83,0-14.2-6.37-14.2-14.2ZM35.5,48c0,6.24,5.08,11.32,11.32,11.32s11.32-5.08,11.32-11.32-5.08-11.32-11.32-11.32c-6.24,0-11.32,5.08-11.32,11.32ZM34.38,28c2.2-1.37,4.58-2.36,7.09-2.94l1.4-3.64c.21-.56.75-.92,1.34-.92h5.21c.6,0,1.13.37,1.34.92l1.4,3.64c2.51.58,4.89,1.57,7.09,2.94l3.57-1.58c.54-.24,1.18-.12,1.6.3l3.68,3.68c.42.42.54,1.06.3,1.6l-1.58,3.57c1.37,2.2,2.36,4.58,2.94,7.09l3.64,1.4c.56.21.92.75.92,1.34v5.21c0,.6-.37,1.13-.92,1.34l-3.64,1.4c-.58,2.51-1.57,4.89-2.94,7.09l1.58,3.57c.24.54.12,1.18-.3,1.6l-3.68,3.68c-.42.42-1.06.54-1.6.3l-3.57-1.58c-2.2,1.37-4.58,2.36-7.09,2.94l-1.4,3.64c-.21.56-.75.92-1.34.92h-5.21c-.59,0-1.13-.37-1.34-.92l-1.4-3.64c-2.51-.58-4.89-1.57-7.09-2.94l-3.57,1.58c-.54.24-1.18.12-1.6-.3l-3.68-3.68c-.42-.42-.54-1.06-.3-1.6l1.58-3.57c-1.37-2.2-2.36-4.58-2.94-7.09l-3.64-1.4c-.56-.21-.92-.75-.92-1.34v-5.21c0-.6.37-1.13.92-1.34l3.64-1.4c.58-2.52,1.57-4.89,2.94-7.09l-1.58-3.57c-.24-.54-.12-1.18.3-1.6l3.68-3.68c.42-.42,1.06-.54,1.6-.3l3.57,1.58ZM33.93,30.94l-3.38-1.5-2.29,2.29,1.5,3.38c.2.45.16.98-.12,1.39-1.53,2.29-2.58,4.81-3.11,7.5-.1.49-.43.89-.89,1.07l-3.45,1.33v3.24l3.45,1.33c.46.18.8.58.89,1.07.53,2.69,1.58,5.22,3.11,7.5.28.41.32.93.12,1.39l-1.5,3.38,2.29,2.29,3.38-1.5c.45-.2.97-.16,1.39.12,2.29,1.53,4.81,2.58,7.5,3.11.49.1.89.43,1.07.89l1.33,3.45h3.24l1.33-3.44c.18-.46.58-.8,1.07-.89,2.69-.53,5.22-1.58,7.5-3.11.41-.28.93-.32,1.39-.12l3.38,1.5,2.29-2.29-1.5-3.38c-.2-.45-.16-.98.12-1.39,1.53-2.29,2.58-4.81,3.11-7.5.1-.49.43-.89.89-1.07l3.45-1.33v-3.24l-3.44-1.33c-.46-.18-.8-.58-.89-1.07-.53-2.69-1.58-5.22-3.11-7.5-.28-.41-.32-.93-.12-1.39l1.5-3.38-2.29-2.29-3.38,1.5c-.45.2-.98.16-1.39-.12-2.29-1.53-4.81-2.58-7.5-3.11-.49-.1-.89-.43-1.07-.89l-1.33-3.45h-3.24l-1.33,3.45c-.18.46-.58.8-1.07.89-2.69.53-5.21,1.57-7.5,3.11-.41.28-.93.32-1.39.12Z"/>
</svg>