<?xml version="1.0" encoding="UTF-8"?>
<svg id="Layer_1" data-name="Layer 1" xmlns="http://www.w3.org/2000/svg" viewBox="0 0 96 96">
  <defs>
    <style>
      .cls-1 {
        fill: #fff;
      }
    </style>
  </defs>
  <path class="cls-1" d="M52.48,76.62h-19.46v-11.19h18.6c13.92-1.26,24.6-13.2,24.33-27.2-.29-14.77-12.49-26.54-27.3-26.27-7.16.14-13.83,3.06-18.79,8.21-4.96,5.16-7.62,11.94-7.48,19.09l-3,.06c-.32-16.42,12.78-30.04,29.21-30.36,16.39-.35,30.04,12.78,30.36,29.21.3,15.59-11.62,28.88-27.13,30.25h-.13s-15.66,0-15.66,0v5.19h16.33c18.19-1.64,32.16-17.24,31.8-35.53-.18-9.35-3.99-18.06-10.73-24.54S57.79,3.6,48.48,3.78c-9.35.18-18.06,3.99-24.54,10.73-6.48,6.74-9.95,15.59-9.77,24.94l-3,.06c-.2-10.15,3.57-19.76,10.6-27.08C28.81,5.12,38.28.98,48.42.78c10.15-.22,19.76,3.57,27.08,10.61,7.31,7.04,11.45,16.5,11.65,26.64.39,19.88-14.81,36.83-34.6,38.58h-.07Z"/>
  <polygon class="cls-1" points="16.8 49.61 4.59 37.81 12.67 37.81 12.67 40.81 12.01 40.81 16.86 45.49 22.01 40.81 20.88 40.81 20.88 37.81 29.77 37.81 16.8 49.61"/>
  <polygon class="cls-1" points="73.44 85.28 33.01 85.28 33.01 73.62 73.44 73.62 73.44 76.62 36.01 76.62 36.01 82.28 73.44 82.28 73.44 85.28"/>
  <path class="cls-1" d="M83.52,91.93c-6.88,0-12.48-5.6-12.48-12.48s5.6-12.48,12.48-12.48,12.48,5.6,12.48,12.48-5.6,12.48-12.48,12.48ZM83.52,69.97c-5.23,0-9.48,4.25-9.48,9.48s4.25,9.48,9.48,9.48,9.48-4.25,9.48-9.48-4.25-9.48-9.48-9.48Z"/>
  <polygon class="cls-1" points="81.67 84.64 77.91 80.68 80.09 78.62 81.71 80.33 86.98 75 89.11 77.11 81.67 84.64"/>
  <path class="cls-1" d="M25.17,95.22H3.17C1.42,95.22,0,93.8,0,92.05v-35.68c0-1.75,1.42-3.17,3.17-3.17h22c1.75,0,3.17,1.42,3.17,3.17v35.68c0,1.75-1.42,3.17-3.17,3.17ZM3.17,56.2c-.1,0-.17.08-.17.17v35.68c0,.1.08.17.17.17h22c.1,0,.17-.08.17-.17v-35.68c0-.1-.08-.17-.17-.17H3.17Z"/>
  <rect class="cls-1" x="5.16" y="60.45" width="17.54" height="3"/>
  <rect class="cls-1" x="5.16" y="66.22" width="17.54" height="3"/>
  <rect class="cls-1" x="5.16" y="72" width="17.54" height="3"/>
  <rect class="cls-1" x="5.16" y="77.77" width="17.54" height="3"/>
  <rect class="cls-1" x="10.11" y="84.69" width="2.28" height="3"/>
  <rect class="cls-1" x="15.89" y="84.69" width="2.28" height="3"/>
  <rect class="cls-1" x="21.66" y="84.69" width="2.28" height="3"/>
  <path class="cls-1" d="M53.61,59.38h-8.9l-.58-7.89c-1.06-.44-2.06-1.02-2.98-1.73l-7.14,3.45-4.45-7.71,6.54-4.45c-.08-.58-.12-1.16-.12-1.73s.04-1.15.12-1.73l-6.54-4.45,4.45-7.71,7.14,3.45c.92-.71,1.92-1.29,2.98-1.73l.58-7.9h8.9l.58,7.9c1.06.44,2.06,1.02,2.98,1.73l7.14-3.45,4.45,7.71-6.54,4.45c.08.58.12,1.15.12,1.73s-.04,1.15-.12,1.73l6.54,4.45-4.45,7.71-7.14-3.45c-.92.71-1.92,1.29-2.98,1.73l-.58,7.89ZM47.5,56.38h3.33l.52-7.08.96-.31c1.35-.44,2.58-1.15,3.65-2.12l.75-.67,6.41,3.09,1.67-2.88-5.87-3.99.21-.98c.15-.7.22-1.42.22-2.12s-.08-1.41-.22-2.12l-.21-.98,5.87-3.99-1.67-2.88-6.41,3.09-.75-.67c-1.08-.97-2.3-1.68-3.65-2.12l-.96-.31-.52-7.08h-3.33l-.52,7.08-.96.31c-1.35.44-2.58,1.15-3.65,2.12l-.75.67-6.41-3.09-1.67,2.88,5.87,3.99-.21.98c-.15.7-.22,1.42-.22,2.12s.08,1.41.22,2.12l.21.98-5.87,3.99,1.67,2.88,6.41-3.09.75.67c1.08.97,2.3,1.68,3.65,2.12l.96.31.52,7.08Z"/>
  <path class="cls-1" d="M49.16,45.23c-3.26,0-5.92-2.66-5.92-5.92s2.66-5.92,5.92-5.92,5.92,2.66,5.92,5.92-2.66,5.92-5.92,5.92ZM49.16,36.39c-1.61,0-2.92,1.31-2.92,2.92s1.31,2.92,2.92,2.92,2.92-1.31,2.92-2.92-1.31-2.92-2.92-2.92Z"/>
</svg>