<?xml version="1.0" encoding="UTF-8"?>
<svg id="Layer_1" data-name="Layer 1" xmlns="http://www.w3.org/2000/svg" viewBox="0 0 96 96">
  <defs>
    <style>
      .cls-1, .cls-2 {
        stroke-linejoin: round;
      }

      .cls-1, .cls-2, .cls-3 {
        fill: none;
        stroke: #fff;
        stroke-width: 3px;
      }

      .cls-2, .cls-3 {
        stroke-linecap: round;
      }

      .cls-3 {
        stroke-miterlimit: 10;
      }
    </style>
  </defs>
  <path class="cls-3" d="M55.52,75.73h38.98c0,2.49-.98,4.74-2.56,6.37-1.57,1.63-3.75,2.64-6.17,2.64H10.23c-4.82,0-8.73-4.04-8.73-9.01h38.98"/>
  <polyline class="cls-3" points="55.52 75.73 55.52 77.94 40.48 77.94 40.48 75.73"/>
  <path class="cls-3" d="M55.52,75.72h31.46V26.33c0-2.37-1.86-4.29-4.15-4.29h-12.45"/>
  <path class="cls-3" d="M25.8,22.04h-12.62c-2.29,0-4.15,1.92-4.15,4.29v49.39h31.45"/>
  <path class="cls-3" d="M40.48,75.72H15.11V29.99c0-1.02.81-1.86,1.8-1.86h8.89"/>
  <path class="cls-3" d="M70.38,28.13h8.72c.99,0,1.79.84,1.79,1.86v45.73h-25.37"/>
  <g>
    <path class="cls-2" d="M34.68,20.45v-5.54c0-2.01,1.63-3.65,3.65-3.65h5.41c11.27,0,20.4,9.13,20.4,20.4v.76"/>
    <path class="cls-2" d="M64.14,32.43l6.73,13.65c.68,1.38.39,2.9-1,3.88-.67.47-5.98.08-5.74.18h0s0,7.35,0,7.35c0,2.31-1.88,4.19-4.19,4.19h-8.31c-1.62,0-2.93-1.31-2.93-2.93v-8.5"/>
    <circle class="cls-2" cx="34.68" cy="25.32" r="3.21"/>
    <circle class="cls-2" cx="48.4" cy="47.05" r="3.21"/>
    <circle class="cls-2" cx="34.68" cy="38.86" r="3.21"/>
    <line class="cls-1" x1="54.77" y1="34.82" x2="54.77" y2="31.11"/>
    <line class="cls-1" x1="34.69" y1="42.66" x2="34.69" y2="61.25"/>
  </g>
</svg>