<?xml version="1.0" encoding="UTF-8"?>
<svg id="Layer_1" data-name="Layer 1" xmlns="http://www.w3.org/2000/svg" viewBox="0 0 96 96">
  <defs>
    <style>
      .cls-1 {
        fill: #fff;
      }
    </style>
  </defs>
  <path class="cls-1" d="M15.76,77.88l-2.12-2.12,10.72-10.72c1.47-1.47,1.47-3.87,0-5.35-1.47-1.47-3.87-1.47-5.35,0l-10.72,10.72-2.12-2.12,10.72-10.72c2.64-2.64,6.94-2.64,9.59,0,2.64,2.64,2.64,6.95,0,9.59l-10.72,10.72Z"/>
  <path class="cls-1" d="M25.31,95.66h-10.01C6.86,95.66,0,88.8,0,80.36v-18.23C0,54.94,5.1,48.65,12.12,47.17l.62,2.94c-5.64,1.19-9.74,6.25-9.74,12.03v18.23c0,6.78,5.52,12.3,12.3,12.3h10.01c2.49,0,4.52-2.02,4.52-4.51v-16.9h3v16.9c0,4.14-3.37,7.51-7.52,7.51Z"/>
  <path class="cls-1" d="M15.76,77.88l-2.12-2.12,10.72-10.72c1.47-1.47,1.47-3.87,0-5.35-1.47-1.47-3.87-1.47-5.35,0l-10.72,10.72-2.12-2.12,10.72-10.72c2.64-2.64,6.94-2.64,9.59,0,2.64,2.64,2.64,6.95,0,9.59l-10.72,10.72Z"/>
  <path class="cls-1" d="M25.31,95.66h-10.01C6.86,95.66,0,88.8,0,80.36v-18.23C0,54.94,5.1,48.65,12.12,47.17l.62,2.94c-5.64,1.19-9.74,6.25-9.74,12.03v18.23c0,6.78,5.52,12.3,12.3,12.3h10.01c2.49,0,4.52-2.02,4.52-4.51v-16.9h3v16.9c0,4.14-3.37,7.51-7.52,7.51Z"/>
  <path class="cls-1" d="M80.24,77.88l-10.71-10.72c-.68-.68-1.2-1.47-1.54-2.36-.3-.75-.46-1.58-.46-2.44,0-1.82.71-3.52,2-4.8,2.08-2.09,5.25-2.59,7.87-1.24.63.32,1.22.74,1.72,1.26l10.71,10.71-2.12,2.12-10.72-10.72c-.28-.29-.59-.51-.95-.69-1.47-.75-3.23-.48-4.39.69-.72.71-1.11,1.66-1.11,2.67,0,.47.08.93.25,1.35.19.51.48.95.86,1.33l10.71,10.72-2.12,2.12Z"/>
  <path class="cls-1" d="M80.7,95.66h-10.02c-4.14,0-7.52-3.37-7.52-7.51v-16.9h3v16.9c0,2.49,2.03,4.51,4.52,4.51h10.02c6.78,0,12.3-5.52,12.3-12.3v-18.23c0-5.31-3.38-10-8.42-11.67l.94-2.85c6.27,2.07,10.48,7.91,10.48,14.52v18.23c0,8.44-6.86,15.3-15.3,15.3ZM68,64.82c-.31-.77-.46-1.6-.46-2.46,0-1.82.71-3.52,2-4.8,2.08-2.09,5.25-2.59,7.87-1.24l-1.37,2.67c-1.45-.75-3.21-.47-4.38.7-.72.71-1.11,1.66-1.11,2.67,0,.47.08.93.25,1.35l-2.79,1.11Z"/>
  <path class="cls-1" d="M80.24,77.88l-10.71-10.72c-.68-.68-1.2-1.47-1.54-2.36-.3-.75-.46-1.58-.46-2.44,0-1.82.71-3.52,2-4.8,2.08-2.09,5.25-2.59,7.87-1.24.63.32,1.22.74,1.72,1.26l10.71,10.71-2.12,2.12-10.72-10.72c-.28-.29-.59-.51-.95-.69-1.47-.75-3.23-.48-4.39.69-.72.71-1.11,1.66-1.11,2.67,0,.47.08.93.25,1.35.19.51.48.95.86,1.33l10.71,10.72-2.12,2.12Z"/>
  <path class="cls-1" d="M80.7,95.66h-10.02c-4.14,0-7.52-3.37-7.52-7.51v-16.9h3v16.9c0,2.49,2.03,4.51,4.52,4.51h10.02c6.78,0,12.3-5.52,12.3-12.3v-18.23c0-5.31-3.38-10-8.42-11.67l.94-2.85c6.27,2.07,10.48,7.91,10.48,14.52v18.23c0,8.44-6.86,15.3-15.3,15.3ZM68,64.82c-.31-.77-.46-1.6-.46-2.46,0-1.82.71-3.52,2-4.8,2.08-2.09,5.25-2.59,7.87-1.24l-1.37,2.67c-1.45-.75-3.21-.47-4.38.7-.72.71-1.11,1.66-1.11,2.67,0,.47.08.93.25,1.35l-2.79,1.11Z"/>
  <path class="cls-1" d="M86.51,65.87l-2.96-.49v-30.1c0-2.44-1.99-4.43-4.44-4.43H18.35c-2.44,0-4.42,1.99-4.42,4.43v28.88h-3v-28.88c0-4.1,3.33-7.43,7.42-7.43h60.76c4.1,0,7.43,3.33,7.43,7.43v30.05c0,.18,0,.36-.04.55Z"/>
  <rect class="cls-1" x="20.26" y="69.75" width="55.48" height="3"/>
  <rect class="cls-1" x="26.6" y="62.77" width="42.79" height="3"/>
  <polygon class="cls-1" points="78.21 57.66 75.21 57.66 75.21 37.98 20.87 37.98 20.87 57.62 17.87 57.62 17.87 34.98 78.21 34.98 78.21 57.66"/>
  <path class="cls-1" d="M47.93,60.23c-7.8,0-14.14-4.68-14.14-10.44s6.34-10.44,14.14-10.44,14.14,4.68,14.14,10.44-6.34,10.44-14.14,10.44ZM47.93,42.35c-6.14,0-11.14,3.34-11.14,7.44s5,7.44,11.14,7.44,11.14-3.34,11.14-7.44-5-7.44-11.14-7.44Z"/>
  <path class="cls-1" d="M47.93,55.64c-3.23,0-5.85-2.62-5.85-5.85s2.63-5.85,5.85-5.85,5.85,2.63,5.85,5.85-2.63,5.85-5.85,5.85ZM47.93,46.94c-1.57,0-2.85,1.28-2.85,2.85s1.28,2.85,2.85,2.85,2.85-1.28,2.85-2.85-1.28-2.85-2.85-2.85Z"/>
  <path class="cls-1" d="M27.9,80.85l-2.97-.39c.4-3.08-.78-6.09-3.17-8.06l1.91-2.31c3.19,2.63,4.78,6.65,4.24,10.76Z"/>
  <path class="cls-1" d="M68.17,80.85c-.54-4.11,1.04-8.13,4.24-10.76l1.91,2.31c-2.39,1.97-3.58,4.98-3.17,8.06l-2.97.39Z"/>
  <path class="cls-1" d="M70.01,20.17c-1.99-7.98-8.19-14.18-16.17-16.17-11.88-2.96-23.94,4.29-26.9,16.17l-2.91-.73C27.39,5.96,41.09-2.27,54.57,1.09c9.06,2.26,16.09,9.29,18.35,18.35l-2.91.73Z"/>
  <path class="cls-1" d="M61.12,22.21c-1.17-4.69-4.81-8.33-9.49-9.5-3.38-.84-6.88-.32-9.87,1.47-2.98,1.79-5.09,4.64-5.93,8.02l-2.91-.73c2.14-8.58,10.86-13.82,19.44-11.68,5.76,1.44,10.24,5.91,11.68,11.68l-2.91.73Z"/>
  <path class="cls-1" d="M55.33,26.02c-.61-2.44-2.51-4.34-4.95-4.95-1.76-.44-3.59-.17-5.14.77-1.56.93-2.65,2.42-3.09,4.18l-2.91-.72c.63-2.54,2.21-4.68,4.46-6.03,2.24-1.35,4.87-1.74,7.41-1.11,3.52.88,6.25,3.61,7.13,7.13l-2.91.73Z"/>
</svg>