<?xml version="1.0" encoding="UTF-8"?>
<svg id="Layer_1" data-name="Layer 1" xmlns="http://www.w3.org/2000/svg" viewBox="0 0 96 96">
  <defs>
    <style>
      .cls-1 {
        fill: #fff;
      }
    </style>
  </defs>
  <polygon class="cls-1" points="86.57 96 6.28 96 6.28 69.92 9.28 69.92 9.28 93 83.57 93 83.57 69.92 86.57 69.92 86.57 96"/>
  <rect class="cls-1" x="7.78" y="56.13" width="77.29" height="3"/>
  <path class="cls-1" d="M42.33,71.41H1.75l4.94-15.29h40.58l-4.94,15.29ZM5.87,68.41h34.28l3-9.29H8.87l-3,9.29Z"/>
  <path class="cls-1" d="M91.1,71.41h-43.02l-4.94-15.29h43.02l4.94,15.29ZM50.27,68.41h36.71l-3-9.29h-36.71l3,9.29Z"/>
  <rect class="cls-1" x="43.71" y="57.62" width="3" height="36.88"/>
  <path class="cls-1" d="M80.48,89.8h-30.68v-16.18h30.68v16.18ZM52.8,86.8h24.68v-10.18h-24.68v10.18Z"/>
  <rect class="cls-1" x="12.94" y="80.21" width="15.99" height="3"/>
  <rect class="cls-1" x="12.94" y="84.87" width="15.99" height="3"/>
  <path class="cls-1" d="M72.65,58.53l-4.21-1.88.12-1.09c.1-.92.15-1.77.15-2.58s-.05-1.66-.15-2.58l-.12-1.09,2.99-1.33-1.81-5.56-3.21.67-.54-.96c-.84-1.5-1.86-2.9-3.02-4.15l-.75-.81,1.63-2.85-4.73-3.44-2.2,2.43-1-.46c-1.56-.72-3.21-1.25-4.88-1.59l-1.08-.22-.35-3.26h-5.86l-.35,3.26-1.08.22c-1.67.34-3.32.87-4.88,1.59l-1,.46-2.2-2.44-4.73,3.43,1.64,2.86-.74.81c-1.15,1.25-2.17,2.65-3.01,4.15l-.54.96-3.23-.68-1.81,5.57,3,1.33-.12,1.09c-.1.92-.15,1.76-.15,2.58s.05,1.67.15,2.56l.12,1.09-4.23,1.9-.41-.91-1.47.49-.59-1.77,3.5-1.57c-.04-.62-.07-1.22-.07-1.8s.02-1.19.07-1.81l-3.49-1.55,3.47-10.7,3.74.79c.64-1.02,1.35-2,2.12-2.92l-1.9-3.31,9.1-6.6,2.55,2.83c1.12-.46,2.27-.83,3.44-1.12l.41-3.79h11.25l.41,3.79c1.17.29,2.32.66,3.44,1.12l2.54-2.82,9.1,6.6-1.89,3.3c.78.92,1.49,1.9,2.13,2.93l3.72-.78,3.47,10.69-3.48,1.55c.04.62.07,1.22.07,1.81s-.02,1.19-.07,1.82l3.46,1.55-.56,1.74-1.48-.47-.41.92Z"/>
  <path class="cls-1" d="M28.26,58.03c-.46-1.62-.69-3.33-.69-5.06,0-10.48,8.52-19.01,19-19.01s19.01,8.53,19.01,19.01c0,1.72-.23,3.41-.68,5.05l-2.89-.79c.38-1.38.57-2.81.57-4.25,0-8.83-7.18-16.01-16.01-16.01s-16,7.18-16,16.01c0,1.46.19,2.88.58,4.25l-2.89.81Z"/>
  <path class="cls-1" d="M53.75,58.55l-2.37-1.84c.84-1.08,1.28-2.37,1.28-3.73,0-3.36-2.73-6.09-6.09-6.09s-6.09,2.73-6.09,6.09c0,1.36.44,2.65,1.28,3.73l-2.37,1.84c-1.25-1.61-1.91-3.54-1.91-5.57,0-5.01,4.08-9.09,9.09-9.09s9.09,4.08,9.09,9.09c0,2.04-.66,3.96-1.91,5.57Z"/>
  <path class="cls-1" d="M13.49,25.74c-6.48,0-11.76-5.27-11.76-11.76S7.01,2.23,13.49,2.23s11.76,5.27,11.76,11.76-5.27,11.76-11.76,11.76ZM13.49,5.23c-4.83,0-8.76,3.93-8.76,8.76s3.93,8.76,8.76,8.76,8.76-3.93,8.76-8.76-3.93-8.76-8.76-8.76Z"/>
  <path class="cls-1" d="M13.49,19.15c-2.85,0-5.17-2.32-5.17-5.17s2.32-5.17,5.17-5.17,5.17,2.32,5.17,5.17-2.32,5.17-5.17,5.17ZM13.49,11.81c-1.2,0-2.17.97-2.17,2.17s.97,2.17,2.17,2.17,2.17-.97,2.17-2.17-.97-2.17-2.17-2.17Z"/>
  <path class="cls-1" d="M59.85,21.89c-6.04,0-10.94-4.91-10.94-10.94S53.81,0,59.85,0s10.94,4.91,10.94,10.94-4.91,10.94-10.94,10.94ZM59.85,3c-4.38,0-7.94,3.56-7.94,7.94s3.56,7.94,7.94,7.94,7.94-3.56,7.94-7.94-3.56-7.94-7.94-7.94Z"/>
  <path class="cls-1" d="M59.85,15.82c-2.69,0-4.88-2.19-4.88-4.88s2.19-4.88,4.88-4.88,4.88,2.19,4.88,4.88-2.19,4.88-4.88,4.88ZM59.85,9.07c-1.04,0-1.88.84-1.88,1.88s.84,1.88,1.88,1.88,1.88-.84,1.88-1.88-.84-1.88-1.88-1.88Z"/>
  <path class="cls-1" d="M86.38,37.34h-13.1c-.83,0-1.5-.67-1.5-1.5v-6.39c0-4.35,3.54-7.9,7.89-7.9h6.71c4.35,0,7.89,3.54,7.89,7.9s-3.54,7.89-7.89,7.89ZM74.77,34.34h11.6c2.7,0,4.89-2.2,4.89-4.89s-2.2-4.9-4.89-4.9h-6.71c-2.7,0-4.89,2.2-4.89,4.9v4.89Z"/>
  <path class="cls-1" d="M29.43,33.94c-.44,0-.87-.19-1.17-.56l-8.87-11.03c-.52-.65-.42-1.59.23-2.11.64-.52,1.59-.42,2.11.23l8.87,11.03c.52.65.42,1.59-.23,2.11-.28.22-.61.33-.94.33Z"/>
  <path class="cls-1" d="M23.74,15.48c-.77,0-1.43-.59-1.49-1.38-.07-.83.54-1.55,1.37-1.62l26.48-2.22c.81-.06,1.55.54,1.62,1.37.07.83-.54,1.55-1.37,1.62l-26.48,2.22s-.08,0-.13,0Z"/>
  <rect class="cls-1" x="78.03" y="28.22" width="3.32" height="3"/>
  <rect class="cls-1" x="84.22" y="28.22" width="3.32" height="3"/>
</svg>