<?xml version="1.0" encoding="UTF-8"?>
<svg id="Capa_1" data-name="Capa 1" xmlns="http://www.w3.org/2000/svg" viewBox="0 0 96 96">
  <defs>
    <style>
      .cls-1 {
        fill: #fff;
      }
    </style>
  </defs>
  <path class="cls-1" d="M94.98,67.45v20.37c-.04.11-.11.22-.12.34-.53,3.35-3.42,6.07-7.7,6.06-26.11-.02-52.23-.01-78.34-.01-.79,0-1.59-.05-2.36-.27-3.4-.97-5.42-3.65-5.43-7.27-.02-5.93,0-11.86-.01-17.8,0-2.17.7-4.01,2.29-5.49.41-.38.44-.61.01-1-1.62-1.5-2.31-3.37-2.31-5.57.03-5.93.02-11.86,0-17.8,0-2.1.71-3.89,2.24-5.32.48-.45.45-.7-.01-1.13-1.5-1.41-2.22-3.17-2.22-5.24,0-5.99,0-11.99,0-17.98,0-1.2.19-2.38.75-3.46C3.28,2.98,5.75,1.78,8.91,1.79c15.04,0,30.09,0,45.13,0,11.01,0,22.02,0,33.03,0,1.98,0,3.8.44,5.36,1.76,1.45,1.23,2.15,2.84,2.55,4.63v20.37c-.46,1.63-1.13,3.13-2.46,4.25-.29.24-.24.44.02.66,1.32,1.13,2,2.63,2.44,4.26v20.55c-.44,1.63-1.12,3.14-2.45,4.26-.26.22-.3.42-.02.66,1.33,1.12,2.01,2.62,2.46,4.25ZM48.02,34.68c-12.9,0-25.81,0-38.71,0-.43,0-.86,0-1.28.04-2.29.21-3.85,1.8-3.86,4.1-.03,6.12-.02,12.23,0,18.35,0,1.25.49,2.31,1.45,3.15.99.87,2.19.99,3.43.99,25.96,0,51.92,0,77.88,0,.37,0,.73,0,1.1-.05,2.25-.23,3.8-1.8,3.81-4.05.04-6.15.03-12.29,0-18.44,0-1.7-.86-2.97-2.4-3.71-.79-.38-1.66-.38-2.52-.38-12.97,0-25.93,0-38.9,0ZM47.96,91.07c12.93,0,25.87,0,38.8,0,.37,0,.74.01,1.1-.02,2.44-.22,3.97-1.84,3.98-4.29.02-6.02.01-12.05,0-18.07,0-1.58-.66-2.83-2.03-3.67-.88-.54-1.85-.56-2.83-.56-25.99,0-51.98,0-77.97,0-.28,0-.55,0-.83.01-2.37.13-4.01,1.76-4.02,4.14-.03,6.08-.02,12.17,0,18.26,0,1.32.5,2.44,1.54,3.29.96.79,2.09.93,3.28.93,13,0,25.99,0,38.99,0ZM48.01,31.54c12.9,0,25.81,0,38.71,0,.4,0,.8,0,1.19-.02,2.23-.14,3.89-1.72,3.91-3.95.05-6.21.05-12.41,0-18.62-.02-2.17-1.53-3.7-3.71-3.97-.39-.05-.79-.06-1.19-.06-25.96,0-51.92,0-77.88,0-.4,0-.8.01-1.19.06-2.2.28-3.68,1.84-3.7,4.07-.03,6.12-.03,12.23,0,18.35,0,1.98,1.23,3.52,3.04,4,.6.16,1.21.14,1.82.14,13,0,25.99,0,38.99,0Z"/>
  <path class="cls-1" d="M17.43,55.02c-3.85-.03-7-3.18-7.01-7.01-.01-3.85,3.22-7.06,7.09-7.03,3.86.03,7,3.17,7,7.01,0,3.87-3.21,7.06-7.08,7.03ZM17.43,51.88c2.16.02,3.93-1.7,3.95-3.85.03-2.14-1.72-3.91-3.87-3.93-2.16-.02-3.92,1.69-3.95,3.85-.03,2.13,1.72,3.91,3.87,3.93Z"/>
  <path class="cls-1" d="M73.08,47.2c-.8.01-1.53-.68-1.57-1.49-.04-.85.67-1.59,1.53-1.6.83,0,1.53.64,1.57,1.47.04.85-.68,1.61-1.53,1.62Z"/>
  <path class="cls-1" d="M69.95,48.79c.84.01,1.57.78,1.53,1.62-.04.82-.74,1.48-1.57,1.47-.87,0-1.56-.74-1.53-1.6.04-.81.76-1.5,1.56-1.49Z"/>
  <path class="cls-1" d="M76.21,48.79c.85.01,1.56.76,1.52,1.62-.04.83-.72,1.48-1.56,1.47-.86,0-1.58-.76-1.53-1.6.04-.8.77-1.5,1.57-1.49Z"/>
  <path class="cls-1" d="M68.35,45.61c.02.8-.66,1.53-1.47,1.58-.84.05-1.61-.65-1.63-1.51-.02-.83.63-1.52,1.46-1.56.87-.04,1.61.63,1.64,1.49Z"/>
  <path class="cls-1" d="M63.65,51.87c-.88,0-1.55-.71-1.52-1.59.03-.82.74-1.5,1.55-1.5.79,0,1.52.72,1.55,1.52.02.85-.7,1.57-1.57,1.56Z"/>
  <path class="cls-1" d="M79.35,44.12c.88.01,1.55.73,1.51,1.6-.04.82-.75,1.5-1.56,1.48-.8-.02-1.52-.74-1.53-1.53-.01-.85.72-1.56,1.58-1.55Z"/>
  <path class="cls-1" d="M60.56,47.2c-.81.02-1.53-.65-1.57-1.47-.04-.89.62-1.59,1.5-1.61.87-.02,1.6.69,1.59,1.54,0,.79-.73,1.52-1.52,1.54Z"/>
  <path class="cls-1" d="M83.98,50.44c-.05.88-.78,1.49-1.68,1.42-.82-.07-1.47-.82-1.4-1.62.06-.82.8-1.48,1.6-1.44.87.04,1.53.77,1.48,1.65Z"/>
  <path class="cls-1" d="M54.28,47.19c-.82,0-1.51-.67-1.54-1.49-.03-.89.64-1.58,1.52-1.58.87,0,1.58.71,1.55,1.57-.02.81-.73,1.51-1.54,1.51Z"/>
  <path class="cls-1" d="M57.42,48.79c.84.01,1.57.78,1.52,1.62-.04.83-.73,1.47-1.56,1.46-.88-.01-1.54-.7-1.51-1.59.03-.82.73-1.5,1.55-1.49Z"/>
  <path class="cls-1" d="M17.46,84.78c-3.86,0-7.11-3.27-7.04-7.08.07-3.86,3.22-6.97,7.06-6.97,3.88,0,7.08,3.23,7.03,7.08-.05,3.84-3.22,6.98-7.05,6.98ZM17.5,81.64c2.15-.02,3.9-1.78,3.89-3.92-.02-2.14-1.78-3.87-3.94-3.86-2.14,0-3.91,1.79-3.89,3.92.02,2.15,1.79,3.88,3.94,3.87Z"/>
  <path class="cls-1" d="M62.09,75.42c-.01.83-.81,1.57-1.63,1.53-.82-.04-1.48-.75-1.47-1.57.01-.87.73-1.55,1.6-1.51.81.03,1.51.76,1.49,1.56Z"/>
  <path class="cls-1" d="M73.08,73.86c.82,0,1.51.7,1.53,1.51.01.84-.73,1.6-1.57,1.58-.79-.01-1.52-.74-1.53-1.53-.02-.84.72-1.57,1.57-1.56Z"/>
  <path class="cls-1" d="M80.86,75.43c-.02.81-.72,1.52-1.53,1.52-.83,0-1.59-.77-1.57-1.59.02-.85.78-1.54,1.64-1.5.83.04,1.48.74,1.46,1.57Z"/>
  <path class="cls-1" d="M68.35,75.42c-.01.79-.75,1.52-1.53,1.54-.84.01-1.58-.74-1.56-1.58.01-.86.74-1.55,1.61-1.51.81.03,1.5.76,1.49,1.56Z"/>
  <path class="cls-1" d="M71.48,80.06c.02.82-.64,1.52-1.47,1.56-.88.04-1.61-.62-1.63-1.49-.02-.82.63-1.52,1.46-1.57.86-.05,1.61.64,1.63,1.49Z"/>
  <path class="cls-1" d="M77.73,80.13c-.02.87-.74,1.53-1.62,1.49-.83-.04-1.5-.75-1.47-1.56.02-.81.73-1.5,1.54-1.51.86,0,1.57.72,1.55,1.57Z"/>
  <path class="cls-1" d="M63.68,78.55c.81,0,1.52.7,1.54,1.51.02.85-.7,1.57-1.57,1.56-.88,0-1.56-.71-1.52-1.59.03-.83.72-1.49,1.55-1.48Z"/>
  <path class="cls-1" d="M54.29,76.96c-.82.01-1.52-.66-1.55-1.49-.03-.89.63-1.59,1.51-1.6.83-.01,1.52.64,1.56,1.47.04.84-.68,1.61-1.52,1.62Z"/>
  <path class="cls-1" d="M83.99,80.13c-.02.88-.72,1.53-1.61,1.49-.83-.04-1.5-.75-1.48-1.56.02-.81.73-1.5,1.54-1.5.87,0,1.56.7,1.55,1.57Z"/>
  <path class="cls-1" d="M57.36,81.62c-.85-.02-1.49-.67-1.49-1.52,0-.88.7-1.57,1.57-1.54.82.02,1.5.72,1.51,1.53,0,.86-.71,1.55-1.59,1.53Z"/>
  <path class="cls-1" d="M17.43,25.27c-3.84-.03-7-3.2-7.01-7.02,0-3.85,3.25-7.08,7.09-7.03,3.86.05,6.99,3.19,7,7.02,0,3.87-3.21,7.06-7.08,7.03ZM17.5,22.13c2.15-.01,3.9-1.78,3.88-3.92-.02-2.14-1.79-3.88-3.94-3.86-2.15.02-3.91,1.79-3.88,3.92.03,2.15,1.79,3.87,3.95,3.86Z"/>
  <path class="cls-1" d="M83.99,20.54c.02.88-.66,1.58-1.53,1.58-.82,0-1.53-.68-1.56-1.49-.03-.82.73-1.6,1.55-1.6.81,0,1.51.69,1.54,1.51Z"/>
  <path class="cls-1" d="M65.22,20.58c0,.8-.69,1.52-1.51,1.54-.87.03-1.59-.66-1.59-1.53,0-.85.74-1.59,1.58-1.56.79.02,1.51.76,1.52,1.55Z"/>
  <path class="cls-1" d="M71.48,20.58c0,.81-.68,1.52-1.5,1.55-.86.03-1.6-.67-1.61-1.52,0-.84.75-1.59,1.58-1.57.8.02,1.51.75,1.52,1.54Z"/>
  <path class="cls-1" d="M65.25,15.81c.05-.87.79-1.5,1.67-1.43.82.06,1.47.8,1.42,1.6-.06.86-.81,1.51-1.68,1.44-.83-.07-1.46-.78-1.41-1.61Z"/>
  <path class="cls-1" d="M74.6,15.93c-.02.86-.77,1.54-1.63,1.49-.83-.04-1.49-.75-1.47-1.57.02-.86.76-1.53,1.63-1.49.84.04,1.49.73,1.46,1.56Z"/>
  <path class="cls-1" d="M77.73,20.57c.01.86-.7,1.57-1.56,1.56-.81-.01-1.52-.71-1.53-1.51-.02-.83.75-1.6,1.58-1.58.8.01,1.51.73,1.52,1.53Z"/>
  <path class="cls-1" d="M57.41,19.03c.84,0,1.57.77,1.54,1.61-.03.83-.73,1.49-1.56,1.48-.88,0-1.55-.71-1.52-1.59.03-.82.73-1.51,1.54-1.5Z"/>
  <path class="cls-1" d="M80.86,15.93c-.02.83-.69,1.5-1.52,1.51-.85,0-1.59-.73-1.57-1.57.02-.86.75-1.53,1.63-1.49.85.04,1.48.71,1.46,1.55Z"/>
  <path class="cls-1" d="M52.74,15.9c0-.85.63-1.51,1.47-1.53.88-.03,1.59.65,1.59,1.52,0,.82-.66,1.52-1.49,1.55-.87.03-1.58-.65-1.58-1.53Z"/>
  <path class="cls-1" d="M59,15.81c.04-.87.77-1.5,1.66-1.43.82.06,1.48.8,1.42,1.6-.06.82-.77,1.47-1.59,1.45-.88-.02-1.54-.74-1.49-1.62Z"/>
</svg>