<?xml version="1.0" encoding="UTF-8"?>
<svg id="Capa_1" data-name="Capa 1" xmlns="http://www.w3.org/2000/svg" viewBox="0 0 96 96">
  <defs>
    <style>
      .cls-1 {
        fill: #fff;
      }
    </style>
  </defs>
  <path class="cls-1" d="M94.98,7.47v20.55c-.46,1.53-1.05,2.97-2.26,4.1-.94.89-2.07,1.43-3.37,1.86.25.17.39.29.55.37,2.36,1.26,4.24,2.96,5.09,5.6v44.22c-.46,1.13-.89,2.26-1.75,3.18-2.01,2.14-4.55,3.4-7.25,4.32-8.77,3-17.82,3.46-26.98,2.89-2.93-.18-5.79-.93-8.74-.93-13.79.01-27.59.01-41.38,0-4.84,0-7.84-3.02-7.84-7.84,0-5.84,0-11.68,0-17.52,0-2.13.7-3.95,2.25-5.42.41-.39.51-.62.03-1.06-1.57-1.44-2.28-3.27-2.28-5.4.01-5.96.01-11.93,0-17.89,0-2.13.71-3.95,2.26-5.41.42-.4.47-.63.01-1.06-1.54-1.42-2.27-3.21-2.27-5.31,0-5.99,0-11.99,0-17.98,0-1.21.2-2.38.77-3.46C3.29,2.44,5.71,1.23,8.85,1.23c17.83,0,35.66,0,53.49,0,8.29,0,16.58,0,24.86,0,1.96,0,3.73.48,5.26,1.78,1.4,1.18,2.05,2.76,2.51,4.45ZM48.1,4.36c-13.08,0-26.17,0-39.25,0-3.07,0-4.69,1.63-4.69,4.71,0,5.75,0,11.5,0,17.24,0,3.09,1.59,4.67,4.7,4.67,13.45,0,26.9,0,40.35,0,.4,0,.8.01,1.19-.06,2.61-.54,5.23-.93,7.88-1.16,5.35-.46,10.7-.51,16.01.26,4.27.61,8.52,1.22,12.85.97.03,0,.06,0,.09,0,3.02,0,4.62-1.62,4.62-4.66,0-5.69,0-11.37,0-17.06,0-3.33-1.55-4.9-4.87-4.9-12.96,0-25.92,0-38.89,0ZM65.56,32.59c-5.97.02-11.65.51-17.2,2.06-2.86.8-5.68,1.71-8.04,3.62-2.23,1.81-2.27,3.53-.08,5.37,1.84,1.54,4.03,2.4,6.27,3.12,6.05,1.95,12.29,2.61,18.62,2.61,6.38,0,12.69-.64,18.8-2.61,2.36-.76,4.66-1.68,6.55-3.36,1.79-1.59,1.77-3.22,0-4.82-1.88-1.7-4.19-2.61-6.54-3.37-6.05-1.97-12.29-2.56-18.38-2.62ZM41.28,90.33c-.12-.09-.2-.17-.3-.22-2-1.07-3.69-2.43-4.95-4.38-.36-.55-.53-.98-.53-1.56,0-6.45-.02-12.91.02-19.36,0-.78-.23-.96-.98-.96-8.56.02-17.13.01-25.69.02-3.07,0-4.68,1.63-4.68,4.71,0,5.66,0,11.32,0,16.97,0,3.41,1.52,4.93,4.91,4.93,10.4,0,20.8,0,31.19,0,.32,0,.66.11,1.02-.16ZM40.74,34.16c-.38-.03-.49-.05-.61-.05-10.52,0-21.04-.01-31.56,0-2.76,0-4.41,1.73-4.42,4.52,0,5.84,0,11.68,0,17.52,0,2.92,1.62,4.57,4.53,4.57,8.62,0,17.25,0,25.87.02.78,0,.96-.23.96-.98-.03-5.96.05-11.93-.05-17.89-.05-2.68,1.05-4.64,3.08-6.2.65-.5,1.34-.92,2.21-1.51ZM38.64,74.64c0,2.74.05,5.37-.02,7.99-.03,1.25.44,2.17,1.32,2.98,1.64,1.49,3.6,2.4,5.65,3.13,5.17,1.84,10.54,2.59,16,2.84,7.5.35,14.9-.23,22.12-2.42,2.29-.69,4.49-1.6,6.39-3.1,1.19-.95,1.85-2.1,1.79-3.7-.09-2.32-.02-4.65-.03-6.97,0-.22.12-.49-.16-.68-.96.64-1.94,1.26-3,1.75-5.63,2.63-11.66,3.53-17.76,4.05-4.98.42-9.95.28-14.91-.36-6.07-.77-11.98-2-17.37-5.49ZM91.83,60.52c-1.54,1.03-3.05,1.88-4.66,2.51-6.11,2.38-12.51,3.22-19,3.52-4.74.22-9.47-.06-14.17-.77-4.45-.67-8.81-1.69-12.86-3.77-.83-.42-1.61-.93-2.51-1.45,0,2.58.09,5.05-.03,7.51-.1,1.89.71,3.16,2.16,4.15,1.83,1.26,3.85,2.1,5.95,2.77,3.92,1.25,7.94,1.93,12.03,2.26,8.51.7,16.91.23,25.12-2.3,2.37-.73,4.66-1.68,6.57-3.33.71-.61,1.35-1.35,1.37-2.3.06-2.89.02-5.78.02-8.81ZM38.62,46.44c0,2.64.08,5.14-.03,7.63-.08,1.81.7,3.04,2.09,4.01,1.82,1.27,3.84,2.12,5.94,2.79,3.86,1.23,7.82,1.93,11.84,2.27,8.66.73,17.22.29,25.56-2.34,2.27-.71,4.48-1.64,6.33-3.21.74-.63,1.42-1.37,1.44-2.36.06-2.89.02-5.78.02-8.72-.15.04-.25.04-.31.09-3.89,2.67-8.34,3.86-12.89,4.71-7.32,1.37-14.7,1.57-22.09.7-6.24-.73-12.37-1.93-17.92-5.58Z"/>
  <path class="cls-1" d="M17.51,24.72c-3.84.03-7.1-3.2-7.09-7.04,0-3.8,3.17-6.98,7.01-7.04,3.8-.06,7.09,3.21,7.08,7.05,0,3.82-3.17,7-7,7.03ZM21.38,17.68c0-2.13-1.79-3.91-3.92-3.91-2.12,0-3.92,1.8-3.91,3.92,0,2.13,1.8,3.91,3.92,3.9,2.13,0,3.91-1.79,3.91-3.91Z"/>
  <path class="cls-1" d="M58.95,20.06c-.02.84-.79,1.57-1.63,1.52-.82-.05-1.47-.75-1.45-1.58.02-.87.75-1.56,1.61-1.52.81.04,1.49.77,1.48,1.58Z"/>
  <path class="cls-1" d="M74.6,15.33c0,.83-.66,1.51-1.49,1.53-.88.03-1.6-.66-1.6-1.52,0-.84.74-1.57,1.59-1.55.82.02,1.51.72,1.51,1.54Z"/>
  <path class="cls-1" d="M76.15,21.58c-.8-.02-1.52-.75-1.52-1.54,0-.84.75-1.58,1.59-1.56.85.02,1.55.78,1.5,1.63-.04.81-.77,1.49-1.57,1.47Z"/>
  <path class="cls-1" d="M63.7,21.58c-.81.02-1.53-.66-1.57-1.47-.04-.86.64-1.61,1.5-1.63.84-.02,1.6.72,1.6,1.56,0,.79-.73,1.52-1.52,1.54Z"/>
  <path class="cls-1" d="M83.99,20.04c0,.82-.68,1.52-1.5,1.54-.83.02-1.6-.73-1.6-1.56,0-.8.71-1.52,1.52-1.54.85-.02,1.58.69,1.58,1.55Z"/>
  <path class="cls-1" d="M66.66,16.85c-.83-.06-1.45-.77-1.41-1.61.05-.86.81-1.52,1.67-1.44.82.07,1.47.82,1.42,1.61-.06.87-.8,1.5-1.68,1.43Z"/>
  <path class="cls-1" d="M54.29,13.79c.86.02,1.55.76,1.51,1.62-.04.83-.72,1.47-1.57,1.45-.89-.01-1.53-.71-1.5-1.6.03-.83.73-1.49,1.55-1.47Z"/>
  <path class="cls-1" d="M62.09,15.31c.01.82-.67,1.52-1.49,1.55-.89.03-1.59-.63-1.6-1.51-.01-.84.63-1.52,1.47-1.56.84-.04,1.61.68,1.62,1.52Z"/>
  <path class="cls-1" d="M71.48,19.99c.03.83-.72,1.6-1.55,1.6-.8,0-1.52-.7-1.55-1.51-.03-.81.64-1.54,1.46-1.59.84-.05,1.61.65,1.64,1.5Z"/>
  <path class="cls-1" d="M79.33,13.79c.86,0,1.56.73,1.53,1.6-.03.84-.7,1.48-1.55,1.48-.86,0-1.58-.74-1.55-1.59.04-.8.76-1.49,1.56-1.49Z"/>
  <path class="cls-1" d="M17.58,70.17c3.93.1,7.06,3.34,6.92,7.17-.13,3.88-3.31,6.94-7.15,6.86-3.85-.08-7.03-3.32-6.94-7.08.09-3.91,3.32-7.05,7.16-6.95ZM17.49,81.08c2.15,0,3.9-1.78,3.89-3.91-.01-2.14-1.78-3.88-3.93-3.87-2.15,0-3.91,1.78-3.89,3.91.02,2.14,1.78,3.88,3.94,3.87Z"/>
  <path class="cls-1" d="M17.47,54.46c-3.87,0-7.11-3.25-7.05-7.07.06-3.84,3.23-6.99,7.05-6.99,3.85,0,7.08,3.24,7.04,7.08-.04,3.84-3.2,6.98-7.04,6.98ZM17.5,51.33c2.14-.01,3.9-1.8,3.88-3.93-.02-2.14-1.81-3.89-3.95-3.86-2.14.02-3.91,1.81-3.88,3.93.03,2.15,1.8,3.87,3.95,3.86Z"/>
</svg>