<?xml version="1.0" encoding="UTF-8"?>
<svg id="Layer_1" data-name="Layer 1" xmlns="http://www.w3.org/2000/svg" viewBox="0 0 96 96">
  <defs>
    <style>
      .cls-1 {
        fill: #fff;
      }
    </style>
  </defs>
  <polygon class="cls-1" points="85.16 75.02 82.7 73.3 85.22 74.93 85.16 75.02"/>
  <path class="cls-1" d="M47.87,96c-12.19,0-23.5-4.9-31.84-13.8l2.19-2.05c7.77,8.29,18.3,12.85,29.65,12.85s22.08-4.72,29.75-12.96l2.2,2.04c-8.23,8.84-19.87,13.91-31.94,13.91Z"/>
  <path class="cls-1" d="M89.08,66.74l-2.83-.99c1.5-4.28,2.26-8.79,2.26-13.4,0-19.15-13.58-35.87-32.28-39.77l.61-2.94c20.09,4.19,34.67,22.15,34.67,42.71,0,4.95-.82,9.79-2.43,14.39Z"/>
  <path class="cls-1" d="M6.69,66.85c-1.64-4.65-2.47-9.53-2.47-14.5,0-20.56,14.58-38.52,34.68-42.71l.3,1.46h1.5s0,1.21,0,1.21l-1.19.26C20.8,16.48,7.22,33.21,7.22,52.35c0,4.63.77,9.17,2.3,13.5l-2.83,1Z"/>
  <path class="cls-1" d="M47.87,20.42c-5.63,0-10.21-4.58-10.21-10.21S42.24,0,47.87,0s10.21,4.58,10.21,10.21-4.58,10.21-10.21,10.21ZM47.87,3c-3.98,0-7.21,3.24-7.21,7.21s3.24,7.21,7.21,7.21,7.21-3.24,7.21-7.21-3.24-7.21-7.21-7.21Z"/>
  <path class="cls-1" d="M84.03,84.37c-5.63,0-10.21-4.58-10.21-10.21s4.58-10.21,10.21-10.21,10.21,4.58,10.21,10.21-4.58,10.21-10.21,10.21ZM84.03,66.95c-3.98,0-7.21,3.24-7.21,7.21s3.24,7.21,7.21,7.21,7.21-3.24,7.21-7.21-3.24-7.21-7.21-7.21Z"/>
  <path class="cls-1" d="M11.97,84.37c-5.63,0-10.21-4.58-10.21-10.21s4.58-10.21,10.21-10.21,10.21,4.58,10.21,10.21-4.58,10.21-10.21,10.21ZM11.97,66.95c-3.98,0-7.21,3.24-7.21,7.21s3.24,7.21,7.21,7.21,7.21-3.24,7.21-7.21-3.24-7.21-7.21-7.21Z"/>
  <rect class="cls-1" x="10.03" y="54.49" width="24.27" height="3" transform="translate(-37.51 47.9) rotate(-60.68)"/>
  <rect class="cls-1" x="26.82" y="26.14" width="22.54" height="3" transform="translate(-4.66 47.31) rotate(-60.68)"/>
  <rect class="cls-1" x="82.51" y="74.07" width="3" height=".1" transform="translate(-25.51 50.53) rotate(-29.27)"/>
  <rect class="cls-1" x="56.24" y="16.33" width="3" height="22.66" transform="translate(-6.14 32) rotate(-29.48)"/>
  <rect class="cls-1" x="72.27" y="43.86" width="3" height="24.29" transform="translate(-18.01 43.55) rotate(-29.48)"/>
  <rect class="cls-1" x="20.67" y="72.66" width="23.42" height="3"/>
  <rect class="cls-1" x="53.24" y="72.66" width="22.09" height="3"/>
  <rect class="cls-1" x="83.93" y="72.66" width=".11" height="3"/>
  <path class="cls-1" d="M65.96,47.33c-2.12,0-4.19-1.11-5.3-3.09-1.64-2.92-.61-6.63,2.31-8.28,1.41-.79,3.05-1,4.62-.56,1.56.44,2.86,1.46,3.66,2.87.8,1.41,1,3.05.56,4.62-.44,1.56-1.46,2.86-2.87,3.66h0c-.94.53-1.96.78-2.97.78ZM65.95,38.18c-.52,0-1.04.13-1.5.4-1.48.83-2,2.71-1.17,4.19.83,1.48,2.71,2,4.19,1.17,1.48-.83,2-2.71,1.17-4.19-.4-.72-1.06-1.23-1.85-1.45-.28-.08-.55-.11-.83-.11Z"/>
  <path class="cls-1" d="M48.67,80.36c-.55,0-1.1-.08-1.64-.23-1.56-.44-2.86-1.46-3.66-2.87-1.64-2.92-.61-6.63,2.31-8.27,2.92-1.65,6.63-.61,8.28,2.31.8,1.41.99,3.05.56,4.62-.44,1.56-1.46,2.86-2.87,3.66h0c-.92.52-1.94.79-2.97.79ZM48.66,71.21c-.51,0-1.03.13-1.5.4-1.48.83-2,2.71-1.17,4.19.83,1.48,2.71,2,4.19,1.17h0c.72-.4,1.23-1.06,1.45-1.85.22-.79.12-1.62-.28-2.34-.56-1-1.61-1.57-2.69-1.57Z"/>
  <path class="cls-1" d="M30.1,47.38c-2.12,0-4.19-1.11-5.3-3.09-1.64-2.92-.61-6.63,2.31-8.28,1.41-.79,3.05-1,4.62-.56,1.56.44,2.86,1.46,3.66,2.87.8,1.41,1,3.05.56,4.62-.44,1.56-1.46,2.86-2.87,3.66h0c-.94.53-1.96.78-2.97.78ZM30.09,38.23c-.52,0-1.04.13-1.5.4-1.48.83-2,2.71-1.17,4.19.83,1.48,2.71,2,4.19,1.17,1.48-.83,2-2.71,1.17-4.19-.4-.72-1.06-1.23-1.85-1.45-.28-.08-.55-.11-.83-.11Z"/>
  <rect class="cls-1" x="34.67" y="39.77" width="26.71" height="3" transform="translate(-.16 .19) rotate(-.22)"/>
  <rect class="cls-1" x="43.48" y="56.39" width="28.16" height="3" transform="translate(-20.43 82.01) rotate(-62.35)"/>
  <rect class="cls-1" x="37.88" y="43.44" width="3" height="28.7" transform="translate(-23.29 26.75) rotate(-29.38)"/>
</svg>