<?xml version="1.0" encoding="UTF-8"?>
<svg id="Layer_1" xmlns="http://www.w3.org/2000/svg" version="1.1" viewBox="0 0 96 96">
  <!-- Generator: Adobe Illustrator 29.3.1, SVG Export Plug-In . SVG Version: 2.1.0 Build 151)  -->
  <defs>
    <style>
      .st0 {
        fill: #fff;
      }
    </style>
  </defs>
  <path class="st0" d="M53.9,47.3c0-.5-.3-1-.7-1.3-.9-.5-1.9-1.1-2.8-1.7-3.2-2.1-6.5-4.3-12.3-4.3-6.4,0-12.8,1.5-18.6,4.1-.5.2-.9.8-.9,1.3v1.9c0,.8.7,1.5,1.5,1.5h32.3c.8,0,1.5-.7,1.5-1.5ZM34.8,45.8h-11.9c3.8-1.5,7.8-2.4,11.9-2.8v2.8ZM37.7,45.8v-2.9c.1,0,.2,0,.4,0,3.3,0,6.6,1,9.3,2.9h-9.7Z"/>
  <path class="st0" d="M70.8,62.7h-10.7c.3-.5.6-1,.7-1.5,1.3,0,2.1,0,2.2,0h.8c3.7,0,6.3-1,7.6-2.8.8-1.3,1.1-2.9.7-4.4.3-2,.3-4,0-5.9-.6-3.4-4.8-5.3-13.8-6.1-2-.2-3.8-1.3-5.8-2.6-3.2-2-7.3-4.5-14.1-4.5-10.1,0-21.4,4.2-23.3,5h-2.6c-1,0-1.9.6-2.3,1.5-.6,1.8-.6,3.8,0,5.6-.2.2-.3.5-.5.8-1.2,2.8,0,8.9.5,10.4.3.8,1.1,1.5,1.9,1.7l4.3,1.2c0,0,1,0,2.6,0,.2.6.5,1.1.8,1.6h-9.2c-5.3,0-9.5,4.3-9.5,9.5,0,5,3.8,9.1,8.8,9.5v11.8c0,.8.7,1.5,1.5,1.5s1.5-.7,1.5-1.5v-3.2h55.8v3.2c0,.8.7,1.5,1.5,1.5s1.5-.7,1.5-1.5v-11.8c5.3-.4,9.2-5,8.8-10.2-.4-5-4.5-8.8-9.5-8.8ZM18.7,58.1c-.8,0-1.4,0-1.7,0l-4.2-1.2c-.6-2.3-.9-4.7-.7-7.1h1.6c.8,0,1.5-.7,1.5-1.5s-.7-1.5-1.5-1.5h-.5s0,0,0,0c-.5-1.3-.6-2.8-.4-4.2h2.5c.2,0,.4,0,.5-.1.1,0,12.2-4.9,22.5-4.9s9.4,2.2,12.5,4.1c2.3,1.4,4.4,2.7,7.1,3,9.7,1,11.1,2.9,11.2,3.7.3,1.6.3,3.2,0,4.7h-3.6c-.8,0-1.5.7-1.5,1.5s.7,1.5,1.5,1.5h3.6c0,.2-.1.3-.2.5-.7,1-2.5,1.6-5.2,1.6h-.8c0,0-.7,0-1.8,0-.4-3.6-3.7-6.2-7.3-5.8-3.1.3-5.5,2.7-5.8,5.8-5.2,0-11,0-16.3,0-.4-3.6-3.7-6.2-7.4-5.7-3,.4-5.3,2.7-5.7,5.7ZM58.3,59c0,2-1.6,3.7-3.7,3.7h0c-2,0-3.7-1.6-3.7-3.7,0-2,1.6-3.7,3.7-3.7,2,0,3.7,1.6,3.7,3.7ZM49.1,62.7h-18.4c.3-.5.6-1,.8-1.5,5.4,0,11.5,0,16.9,0,.2.5.4,1,.8,1.5ZM28.9,59c0,2-1.6,3.7-3.7,3.7h0c-2,0-3.7-1.6-3.7-3.7,0-2,1.6-3.7,3.7-3.7,2,0,3.7,1.6,3.7,3.7ZM68.6,87.4H12.8v-5.6h55.8v5.6ZM70.8,78.8H10.5c-3.7,0-6.6-3-6.6-6.6s3-6.6,6.6-6.6h60.2c3.7,0,6.6,3,6.6,6.6s-3,6.6-6.6,6.6Z"/>
  <path class="st0" d="M11.3,67.8h0c-2.4,0-4.4,2-4.4,4.4,0,2.4,2,4.4,4.4,4.4,2.4,0,4.4-2,4.4-4.4,0-2.4-2-4.4-4.4-4.4ZM11.3,73.7c-.8,0-1.5-.7-1.5-1.5,0-.8.7-1.5,1.5-1.5.8,0,1.5.7,1.5,1.5s-.7,1.5-1.5,1.5Z"/>
  <path class="st0" d="M23,67.8c-2.4,0-4.4,2-4.4,4.4,0,2.4,2,4.4,4.4,4.4,2.4,0,4.4-2,4.4-4.4s-2-4.4-4.4-4.4ZM23,73.7c-.8,0-1.5-.7-1.5-1.5,0-.8.7-1.5,1.5-1.5.8,0,1.5.7,1.5,1.5s-.7,1.5-1.5,1.5Z"/>
  <path class="st0" d="M34.8,67.8c-2.4,0-4.4,2-4.4,4.4,0,2.4,2,4.4,4.4,4.4,2.4,0,4.4-2,4.4-4.4s-2-4.4-4.4-4.4ZM34.8,73.7c-.8,0-1.5-.7-1.5-1.5,0-.8.7-1.5,1.5-1.5.8,0,1.5.7,1.5,1.5s-.7,1.5-1.5,1.5Z"/>
  <path class="st0" d="M46.5,67.8c-2.4,0-4.4,2-4.4,4.4,0,2.4,2,4.4,4.4,4.4,2.4,0,4.4-2,4.4-4.4s-2-4.4-4.4-4.4ZM46.5,73.7c-.8,0-1.5-.7-1.5-1.5,0-.8.7-1.5,1.5-1.5.8,0,1.5.7,1.5,1.5s-.7,1.5-1.5,1.5Z"/>
  <path class="st0" d="M58.3,67.8c-2.4,0-4.4,2-4.4,4.4,0,2.4,2,4.4,4.4,4.4,2.4,0,4.4-2,4.4-4.4s-2-4.4-4.4-4.4ZM58.3,73.7c-.8,0-1.5-.7-1.5-1.5,0-.8.7-1.5,1.5-1.5.8,0,1.5.7,1.5,1.5s-.7,1.5-1.5,1.5Z"/>
  <path class="st0" d="M70,67.8c-2.4,0-4.4,2-4.4,4.4,0,2.4,2,4.4,4.4,4.4,2.4,0,4.4-2,4.4-4.4s-2-4.4-4.4-4.4ZM70,73.7c-.8,0-1.5-.7-1.5-1.5,0-.8.7-1.5,1.5-1.5.8,0,1.5.7,1.5,1.5s-.7,1.5-1.5,1.5Z"/>
  <path class="st0" d="M93.5,47.3c.8,0,1.5-.7,1.5-1.5v-27.2c0-4.9-3.9-8.8-8.8-8.8h-25c-1.6,0-2.9,1.3-2.9,2.9v.7h-22.8c-1.6,0-2.9,1.3-2.9,2.9v2.9c0,1.6,1.3,2.9,2.9,2.9v4.4c0,.8.7,1.5,1.5,1.5h1.9v2.2c0,.8.7,1.5,1.5,1.5s1.5-.7,1.5-1.5v-2.2h2.5c.8,0,1.5-.7,1.5-1.5v-4.4h12.5v.7c0,1.6,1.3,2.9,2.9,2.9h19.1v19.8c0,.8.7,1.5,1.5,1.5h1.5v32.6c-1.8.6-2.9,2.3-2.9,4.1v9.5c0,.8.7,1.5,1.5,1.5h11.7c.8,0,1.5-.7,1.5-1.5v-9.5c0-1.9-1.2-3.5-2.9-4.1v-32.6h1.5ZM42.9,25.2h-4.4v-2.9h4.4v2.9ZM58.3,19.4h-22.8v-2.9h22.8v2.9ZM61.2,23v-10.3h25c3.2,0,5.9,2.6,5.9,5.9v4.4h-30.8ZM92.1,92.1h-8.8v-8.1c0-.8.7-1.5,1.5-1.5h5.9c.8,0,1.5.7,1.5,1.5v8.1ZM86.2,79.6v-32.3h2.9v32.3h-2.9ZM83.3,44.3v-18.4h8.8v18.4h-8.8Z"/>
  <path class="st0" d="M8.3,20.7c.5.6,1.4.7,2,.2l1.9-1.5,4.2,4.6c.5.6,1.4.7,2,.2l2.2-1.8,2,2.4c.5.6,1.5.7,2.1.1.6-.5.7-1.5.2-2.1l-2-2.3,1.8-1.5c.6-.5.7-1.4.2-2l-3.7-4.7,1.9-1.5c.6-.5.7-1.4.2-2.1,0,0,0,0,0,0l-5.8-7.1c-.5-.6-1.4-.7-2.1-.2-.6.5-.7,1.4-.2,2.1l4.8,5.9-10.4,8.3-6.1-7.3c-.5-.6-1.4-.7-2.1-.2-.6.5-.7,1.4-.2,2.1l7,8.4ZM18.9,14.1l2.8,3.6-4.1,3.4-3.1-3.5,4.4-3.5Z"/>
  <path class="st0" d="M83.3,16.4h-16.2c-.8,0-1.5.7-1.5,1.5s.7,1.5,1.5,1.5h16.2c.8,0,1.5-.7,1.5-1.5s-.7-1.5-1.5-1.5Z"/>
</svg>