<?xml version="1.0" encoding="UTF-8"?>
<svg id="Layer_1" data-name="Layer 1" xmlns="http://www.w3.org/2000/svg" viewBox="0 0 96 96">
  <defs>
    <style>
      .cls-1 {
        fill: #fff;
      }
    </style>
  </defs>
  <path class="cls-1" d="M91.91,95.64H4.09C1.83,95.64,0,93.81,0,91.56v-4.64c0-2.25,1.83-4.09,4.09-4.09h87.82c2.25,0,4.09,1.83,4.09,4.09v4.64c0,2.25-1.83,4.09-4.09,4.09ZM4.09,85.83c-.6,0-1.09.49-1.09,1.09v4.64c0,.6.49,1.09,1.09,1.09h87.82c.6,0,1.09-.49,1.09-1.09v-4.64c0-.6-.49-1.09-1.09-1.09H4.09Z"/>
  <path class="cls-1" d="M92.16,85.83H5.84v-7.33c0-2.25,1.83-4.09,4.09-4.09h78.15c2.25,0,4.09,1.83,4.09,4.09v7.33ZM8.84,82.83h80.33v-4.33c0-.6-.49-1.09-1.09-1.09H9.92c-.6,0-1.09.49-1.09,1.09v4.33Z"/>
  <path class="cls-1" d="M28.75,77.41H10.71v-14.5h18.04v14.5ZM13.71,74.41h12.04v-8.5h-12.04v8.5Z"/>
  <path class="cls-1" d="M85.61,77.41h-18.04v-14.5h18.04v14.5ZM70.57,74.41h12.04v-8.5h-12.04v8.5Z"/>
  <path class="cls-1" d="M28.75,33.38H10.71v-10.83h18.04v10.83ZM13.71,30.38h12.04v-4.83h-12.04v4.83Z"/>
  <path class="cls-1" d="M85.61,33.38h-18.04v-10.83h18.04v10.83ZM70.57,30.38h12.04v-4.83h-12.04v4.83Z"/>
  <rect class="cls-1" x="14.54" y="32.15" width="3" height="32.26"/>
  <rect class="cls-1" x="21.92" y="32.15" width="3" height="32.26"/>
  <rect class="cls-1" x="71.4" y="32.15" width="3" height="32.26"/>
  <rect class="cls-1" x="78.78" y="32.15" width="3" height="32.26"/>
  <path class="cls-1" d="M92.66,25.55H3.55v-8.77h89.1v8.77ZM6.55,22.55h83.1v-2.77H6.55v2.77Z"/>
  <path class="cls-1" d="M87.39,19.79H8.93v-8.65L48.1.3l39.28,10.84v8.65ZM11.93,16.79h72.45v-3.37L48.11,3.41,11.93,13.42v3.37Z"/>
  <rect class="cls-1" x="44.54" y="7.66" width="6.71" height="3"/>
  <rect class="cls-1" x="42.03" y="12.22" width="12.66" height="3"/>
  <path class="cls-1" d="M47.79,71.69h0c-.08,0-.16,0-.23-.02-.2-.03-.4-.1-.57-.21l-2.38-1.51c-8.65-5.48-13.82-14.88-13.82-25.14v-7.82c0-.62.38-1.17.96-1.4l15.49-6.04c.17-.07.36-.11.56-.11h.01c.19,0,.37.04.54.1l15.51,6.05c.58.22.96.78.96,1.4v7.82c0,10.26-5.17,19.66-13.82,25.14l-2.38,1.51s-.1.06-.15.08c-.2.1-.42.15-.65.15h0ZM33.78,38.02v6.79c0,9.22,4.65,17.67,12.43,22.6l1.58,1.01,1.58-1c7.78-4.93,12.43-13.38,12.43-22.6v-6.79l-14.01-5.46-14.01,5.46Z"/>
  <path class="cls-1" d="M46.35,60.15c-.38,0-.77-.15-1.06-.44l-7.65-7.65c-.28-.28-.44-.66-.44-1.06s.16-.78.44-1.06l3.99-3.97c.28-.28.66-.44,1.06-.44h0c.4,0,.78.16,1.06.44l2.61,2.64,6.08-5.91c.58-.57,1.51-.57,2.09,0l3.92,3.81c.29.28.45.66.46,1.06,0,.4-.16.79-.44,1.07l-11.07,11.07c-.29.29-.68.44-1.06.44ZM40.83,51l5.53,5.53,8.94-8.94-1.79-1.73-6.1,5.93c-.59.57-1.53.56-2.11-.02l-2.6-2.62-1.86,1.85Z"/>
</svg>