<?xml version="1.0" encoding="UTF-8"?>
<svg id="Layer_1" data-name="Layer 1" xmlns="http://www.w3.org/2000/svg" viewBox="0 0 96 96">
  <defs>
    <style>
      .cls-1 {
        fill: #fff;
      }
    </style>
  </defs>
  <path class="cls-1" d="M90.42,91.2h-4.13v-58.25c0-2.64-2.14-4.78-4.78-4.78h-8.95c-2.64,0-4.78,2.15-4.78,4.78v58.25h-10.41v-31.91c0-2.64-2.14-4.78-4.78-4.78h-8.95c-2.64,0-4.78,2.14-4.78,4.78v31.91h-10.41v-16.59c0-2.64-2.15-4.78-4.78-4.78h-8.95c-2.64,0-4.78,2.14-4.78,4.78v16.59h-4.34c-.94,0-1.7.76-1.7,1.7s.76,1.7,1.7,1.7h84.83c.94,0,1.7-.76,1.7-1.7s-.76-1.7-1.7-1.7ZM25.04,91.2h-11.71v-16.59c0-.76.62-1.38,1.38-1.38h8.95c.76,0,1.38.62,1.38,1.38v16.59ZM53.96,91.2h-11.71v-31.91c0-.76.62-1.38,1.38-1.38h8.95c.76,0,1.38.62,1.38,1.38v31.91ZM82.89,91.2h-11.71v-58.25c0-.76.62-1.38,1.38-1.38h8.95c.76,0,1.38.62,1.38,1.38v58.25Z"/>
  <g>
    <polygon class="cls-1" points="86.41 3.2 86.41 3.2 86.41 3.2 86.41 3.2"/>
    <path class="cls-1" d="M86.29,3.29s0-.04,0-.06v-.04c.02-.48-.16-.95-.5-1.29-.34-.34-.81-.51-1.29-.49h-.1s-11.04,0-11.04,0c-.94,0-1.7.76-1.7,1.7s.76,1.7,1.7,1.7h7.12l-.21.21-18.13,18.13-.09-.09-6.8-6.8c-.32-.32-.75-.5-1.2-.5s-.88.18-1.2.5L20.03,49.06c-.32.32-.5.75-.5,1.2s.18.88.5,1.2c.32.32.75.5,1.2.5s.88-.18,1.2-.5l31.61-31.61.09.09,6.8,6.8c.32.32.75.5,1.2.5s.88-.18,1.2-.5l19.55-19.55v6.47c0,.94.76,1.7,1.7,1.7s1.7-.76,1.7-1.7V3.29Z"/>
  </g>
  <path class="cls-1" d="M15.08,54.93c-.94,0-1.7.76-1.7,1.7s.76,1.7,1.7,1.7,1.7-.76,1.7-1.7-.76-1.7-1.7-1.7Z"/>
</svg>