<?xml version="1.0" encoding="UTF-8"?>
<svg id="Layer_1" data-name="Layer 1" xmlns="http://www.w3.org/2000/svg" viewBox="0 0 96 96">
  <path d="M88.66,21.27c-4.19-2.74-9.73-4.25-15.6-4.25s-11.41,1.51-15.6,4.25c-4.41,2.88-6.83,6.79-6.83,10.99v10.76c0,2.51.84,4.88,2.49,7.04-1.73.43-3.41,1.05-5,1.87-.94.48-1.86,1.02-2.75,1.6v-1.73c0-3.23-1.42-6.28-4.11-8.85.95-.21,1.83-.45,2.62-.71,2.9-.96,4.78-3.36,4.78-6.12v-6.54c-.02-.76-.7-18.69-16.33-26.72C25.48-.66,17.3-.19,13.73,3.94c-1.87,2.16-2.21,4.99-.97,7.83-3.76.07-6.95,1.31-8.78,3.43-1.19,1.38-1.78,3.04-1.7,4.81,0,.99-.03,9.74-.01,10.94.05,3.55,2.34,6.52,6.81,8.84-5.38,2.86-8.57,7.33-8.57,12.02v10.76c0,4.2,2.43,8.11,6.83,10.99,4.19,2.74,9.73,4.25,15.6,4.25,2.85,0,5.63-.36,8.26-1.06-.34,2.11-.37,3.45-.38,3.55v6.91c0,2.88,1.97,5.4,5.01,6.41,3.6,1.19,9.17,1.9,14.9,1.9,2.8,0,5.47-.16,7.95-.48,2.14-.28,7.65-1.15,12.54-3.3,5.72-2.51,8.65-5.89,8.72-10.04.02-1.15,0-8.83-.01-11.36v-.27c.08-1.86-.54-3.6-1.79-5.04-1.96-2.26-5.37-3.57-9.42-3.61.51-1.11.79-2.23.83-3.34,1.16.12,2.34.18,3.52.18,5.87,0,11.41-1.51,15.6-4.25,4.41-2.88,6.83-6.79,6.83-10.99v-10.76c0-4.2-2.43-8.11-6.83-10.99ZM5.53,26.62c1.08,1.08,2.38,2.05,3.88,2.88.52.29,1.08.29,1.56,0,.52-.31.86-.93.86-1.54,0-.56-.3-1.03-.82-1.32-1.93-1.08-4.98-3.63-5.44-6.25-.2-1.12.1-2.15.89-3.05,1.64-1.9,5.25-2.72,9.19-2.1.68.11,1.36-.22,1.69-.83.33-.6.25-1.35-.21-1.87-2.06-2.34-2.41-4.75-.93-6.46,2.55-2.94,9.25-3.09,14.64-.32,5.83,3,10.05,7.9,12.54,14.58,1.27,3.41,1.74,6.45,1.92,8.08-3.92,1.04-16.53,3.86-27.87.76-.58-.16-1.12-.03-1.52.37-.43.43-.62,1.11-.46,1.7.14.54.54.93,1.12,1.09,3.76,1.03,7.93,1.55,12.4,1.55,7.05,0,13.2-1.28,16.43-2.1v4.34c0,1.6-1.31,2.61-2.53,3.01-1.38.46-3.18.85-5.19,1.12-4.06-2.39-9.29-3.71-14.72-3.71-3.42,0-6.69.5-9.73,1.48-3.5-1.32-7.63-3.62-7.68-7.14,0-.48,0-2.26,0-4.28ZM36.75,60.05c-3.66,2.4-8.57,3.72-13.81,3.72s-10.15-1.32-13.81-3.72c-3.45-2.26-5.35-5.19-5.35-8.25s1.9-6,5.35-8.25c4.7-3.07,10.1-3.72,13.81-3.72,6.25,0,19.16,2.93,19.16,11.97,0,3.06-1.9,5.99-5.35,8.25ZM3.78,59.78c.99,1.1,2.18,2.11,3.56,3.01,4.19,2.74,9.73,4.25,15.6,4.25,4.46,0,8.73-.86,12.39-2.5-.83,1.51-1.56,3.12-2.18,4.79-.45,1.22-.85,2.49-1.18,3.77-2.77.94-5.88,1.43-9.03,1.43-5.24,0-10.15-1.32-13.81-3.72-3.45-2.26-5.35-5.19-5.35-8.25v-2.77ZM76.63,70.52c-.53,2.88-3.92,5.65-6.06,6.8-.79.43-1.09,1.42-.66,2.21.43.79,1.42,1.09,2.21.67,1.79-.96,3.32-2.09,4.55-3.37,0,2.55,0,4.33,0,4.8-.04,2.76-2.32,5.14-6.76,7.09-4.51,1.98-9.64,2.79-11.64,3.05-7.31.94-16.31.41-21.4-1.28-1.34-.44-2.76-1.54-2.76-3.3v-4.75c3.43.88,10,2.26,17.56,2.26,4.85,0,9.36-.58,13.41-1.71.87-.24,1.38-1.15,1.13-2.02-.12-.42-.39-.77-.77-.98s-.82-.27-1.24-.15c-12.19,3.42-25.79.35-29.99-.77,1.08-10.62,6.98-19.9,15.43-24.24,5.77-2.96,12.95-2.8,15.68.36,1.61,1.86,1.24,4.48-.99,7-.47.53-.55,1.21-.22,1.81.34.63,1.05.98,1.7.88,4.22-.67,8.1.22,9.86,2.26.87,1,1.19,2.13.97,3.36ZM56.97,49.46c-2.01-1.94-3.07-4.17-3.07-6.45v-2.77c.99,1.1,2.18,2.11,3.56,3.01,4.19,2.74,9.73,4.25,15.6,4.25s11.41-1.51,15.6-4.25c1.38-.9,2.57-1.91,3.56-3.01v2.77c0,3.06-1.9,6-5.35,8.25-3.66,2.4-8.57,3.72-13.81,3.72-1.42,0-2.84-.1-4.21-.29-.28-.58-.64-1.13-1.08-1.63-2.23-2.57-6.16-3.88-10.8-3.59ZM86.87,40.51c-3.66,2.4-8.57,3.72-13.81,3.72s-10.15-1.32-13.81-3.72c-3.45-2.26-5.35-5.19-5.35-8.25s1.9-6,5.35-8.25c3.66-2.4,8.57-3.72,13.81-3.72s10.15,1.32,13.81,3.72c3.45,2.26,5.35,5.19,5.35,8.25s-1.9,5.99-5.35,8.25Z" fill="#fff"/>
  <path d="M77.44,24.97c-1.62,0-3.17.47-4.37,1.33-1.21-.86-2.76-1.33-4.37-1.33-3.64,0-6.61,2.41-6.61,5.37,0,2.73,1.82,5.31,5.41,7.66,2.49,1.63,4.97,2.56,4.99,2.57.19.07.38.1.57.1s.4-.04.6-.11c1.06-.42,10.39-4.23,10.39-10.23,0-2.96-2.96-5.37-6.61-5.37ZM80.77,30.33c0,2.81-4.8,5.66-7.71,6.94-5.12-2.19-7.71-4.53-7.71-6.94,0-1.12,1.56-2.1,3.34-2.1,1.29,0,2.49.5,3.07,1.31.84.86,1.74.89,2.63-.03.56-.78,1.76-1.28,3.05-1.28,1.78,0,3.34.98,3.34,2.1Z" fill="#fff"/>
  <path d="M27.31,44.51c-1.62,0-3.16.47-4.37,1.33-1.21-.86-2.76-1.33-4.37-1.33-3.64,0-6.61,2.41-6.61,5.37,0,2.74,1.82,5.31,5.41,7.66,2.45,1.6,4.89,2.53,4.99,2.57.19.07.38.1.57.1s.4-.04.6-.11c1.06-.42,10.39-4.25,10.39-10.23,0-2.96-2.96-5.37-6.61-5.37ZM27.31,47.78c1.78,0,3.34.98,3.34,2.1,0,2.81-4.8,5.66-7.72,6.94-5.11-2.19-7.71-4.53-7.71-6.94,0-1.12,1.56-2.1,3.34-2.1,1.29,0,2.49.5,3.07,1.31.84.86,1.74.89,2.63-.03.56-.78,1.76-1.28,3.05-1.28Z" fill="#fff"/>
</svg>