<?xml version="1.0" encoding="UTF-8"?>
<svg id="Layer_1" data-name="Layer 1" xmlns="http://www.w3.org/2000/svg" viewBox="0 0 96 96">
  <path d="M64.79,76.16c-1.45-.49-3.01-.38-4.38.3l-.95.47h.02l-8.55,4.24c-.32-1.17-.98-2.21-1.88-2.94l-9.64-7.99c-1.63-1.35-3.45-2-5.58-2h-4.91v-1.47c0-.87-.68-1.54-1.54-1.54h-10.54c-.87,0-1.54.68-1.54,1.54v22.77c0,.86.68,1.54,1.54,1.54h10.54c.87,0,1.54-.68,1.54-1.54v-.54l10.59,5.21c1.76.86,3.61,1.3,5.49,1.3s3.8-.46,5.53-1.32l14.98-7.44c2.83-1.42,3.99-4.87,2.59-7.69-.68-1.37-1.86-2.4-3.31-2.89ZM40.87,91.42l-11.94-5.87v-14.26h4.91c1.39,0,2.54.41,3.61,1.29l9.64,7.99c.77.65,1.11,1.69.88,2.66-.08.38-.27.76-.54,1.08-.44.54-1.08.88-1.79.94-.72.07-1.41-.14-1.94-.59l-8.3-6.88c-.32-.26-.71-.38-1.12-.35-.41.04-.78.23-1.04.55-.26.31-.39.71-.35,1.12.04.41.23.78.55,1.04l8.3,6.88c1.02.85,2.31,1.32,3.64,1.32.27,0,.46,0,.6,0,.02,0,.05,0,.07,0h0c.12-.02.18-.03.22-.06,1.42-.22,2.67-.92,3.54-1.99.38-.45.71-1.01.95-1.63l11.05-5.49c.64-.32,1.36-.37,2.04-.14.67.23,1.21.7,1.53,1.34.32.64.37,1.36.14,2.03-.23.67-.7,1.22-1.34,1.54l-.14.07v.04l-14.84,7.37c-2.72,1.35-5.59,1.35-8.31,0ZM18.41,87.99v-19.7h7.46v19.7h-7.46Z" fill="#fff"/>
  <path d="M26.48,34.29v2.49h-2.49c-.87,0-1.54.68-1.54,1.54s.68,1.54,1.54,1.54h2.49v2.49c0,.87.68,1.54,1.54,1.54s1.54-.68,1.54-1.54v-2.49h2.49c.87,0,1.54-.68,1.54-1.54s-.68-1.54-1.54-1.54h-2.49v-2.49c0-.87-.68-1.54-1.54-1.54s-1.54.68-1.54,1.54Z" fill="#fff"/>
  <path d="M72.36,47.74v-3.7c0-6.22-5.06-11.27-11.27-11.27h-2.3c2.62-2.19,4.44-5.55,5.06-9.36,1.53-1.41,2.63-3.63,3.38-6.82v-.03c.69-4.01-.13-7.62-2.38-10.44-2.63-3.29-7.17-5.32-12.46-5.59-8.43-.42-14.12,4.54-16.04,9.63-1.81,4.78-.52,9.68,3.44,13.13.59,3.85,2.42,7.27,5.06,9.48h-2.9c-.82,0-1.61.09-2.36.26-1.93-4.17-5.94-7-10.52-7.39-3.42-.28-6.71.77-9.3,2.96-2.6,2.18-4.19,5.26-4.47,8.66-.28,3.41.77,6.71,2.96,9.3,2.18,2.59,5.25,4.19,8.65,4.49.36.04.74.04,1.1.04.93,0,1.81-.09,2.65-.28v14.39c0,.87.68,1.54,1.54,1.54h23.64c2.38,4.15,6.8,6.71,11.56,6.71,7.35,0,13.33-5.98,13.33-13.33,0-5.41-3.36-10.35-8.38-12.37ZM54.11,63.67h-12.04v-13.42c0-.87-.68-1.54-1.54-1.54s-1.54.68-1.54,1.54v13.38h-5.24v-13.95c3.94-1.99,6.6-5.92,6.95-10.29.1-1.13.04-2.28-.18-3.43.46-.08.93-.12,1.41-.12h3.25v.53c0,3.48,2.83,6.32,6.32,6.32s6.32-2.83,6.32-6.32v-.53h3.25c4.52,0,8.2,3.68,8.2,8.2v2.87c-.61-.08-1.23-.13-1.86-.13-7.35,0-13.33,5.98-13.33,13.33,0,1.86,0,2.93.04,3.54ZM58.22,10.15c-1.73,1.96-3.86,3.1-6.51,3.46-4.78-.65-8.09,0-10.13,1.98-.84.84-1.42,1.87-1.72,3.07-1.32-2.17-1.58-4.67-.76-7.13l.11-.3c1.44-3.81,5.77-7.66,12.2-7.66.2,0,.39-.02.58,0l.24.02c4.41.22,8.13,1.84,10.21,4.44,1.69,2.13,2.29,4.8,1.77,7.92-.17.67-.33,1.24-.5,1.74-.45-3.38-1.52-5.88-3.25-7.61-.3-.3-.7-.46-1.14-.46s-.85.2-1.11.53ZM43.75,17.78c1.29-1.27,3.89-1.64,7.78-1.09h.36c2.83-.35,5.3-1.43,7.35-3.22,1.19,1.97,1.72,4.92,1.64,9-.71,5.61-4.6,9.84-9.04,9.84-3.16,0-3.28-.22-3.48-.56-.11-.19-.26-.45-.64-.7-.05-.05-.09-.08-.17-.12-2.87-1.96-4.69-5.6-4.87-9.74l-.02-.41c.04-1.32.4-2.33,1.07-3ZM54.76,36.36c0,1.79-1.46,3.25-3.25,3.25s-3.23-1.46-3.23-3.25v-1.6c1.15.42,2.34.63,3.54.63s2.04-.15,2.93-.43v1.4ZM77.67,60.11c0,5.65-4.59,10.24-10.24,10.24s-10.24-4.59-10.24-10.24,4.59-10.24,10.24-10.24,10.24,4.59,10.24,10.24ZM28.85,28.69c5.31.45,9.27,5.14,8.82,10.46-.45,5.24-5.03,9.14-10.23,8.83l-.23-.03c-2.57-.22-4.9-1.42-6.56-3.39-1.66-1.96-2.45-4.47-2.24-7.05.22-2.56,1.42-4.9,3.39-6.58,1.75-1.47,3.96-2.27,6.22-2.27.24,0,.43,0,.59,0l.24.04Z" fill="#fff"/>
  <path d="M70.48,64.39c-.44.67-.62.95-1.81.95-1.51,0-2.2-1.29-2.52-2.48h4.02v-1.94h-4.29c0-.17,0-.35,0-.47,0-.1,0-.2,0-.31h5.14v-1.94h-4.92c.39-1.66,1.29-2.57,2.56-2.57.75,0,1.3.28,1.82.92l.16.2,1.65-1.44-.26-.43c-.59-.98-1.01-1.68-3.5-1.68-2.68,0-4.74,1.91-5.4,4.99l-1.43.11v1.81h1.21c0,.13,0,.25,0,.4,0,.16,0,.3,0,.44l-1.21.09v1.81h1.44c.65,3.06,2.66,4.88,5.42,4.88,1.64,0,2.99-.85,3.79-2.39l.1-.19-1.7-1.17-.27.41Z" fill="#fff"/>
</svg>