<?xml version="1.0" encoding="UTF-8"?>
<svg id="Layer_1" data-name="Layer 1" xmlns="http://www.w3.org/2000/svg" viewBox="0 0 96 96">
  <defs>
    <style>
      .cls-1 {
        fill: none;
        stroke: #fff;
        stroke-linejoin: round;
        stroke-width: 3px;
      }
    </style>
  </defs>
  <path class="cls-1" d="M6.78,51.92c-2.76,2.21-4.52,5.6-4.52,9.4,0,5.55,3.75,10.22,8.85,11.6"/>
  <path class="cls-1" d="M83.44,28.91c.41-1.04.65-2.16.65-3.35,0-4.99-4.05-9.04-9.04-9.04-.33,0-.9-.03-1.38-.03"/>
  <path class="cls-1" d="M89.91,51.99c2.82-2.42,4.59-6.01,4.59-10.03,0-6.56-4.79-12.02-11.06-13.05"/>
  <path class="cls-1" d="M89.91,51.99c2.81,2.24,4.59,5.7,4.59,9.56,0,5.64-3.81,10.39-9,11.79"/>
  <g>
    <path class="cls-1" d="M12.56,28.91c-.41-1.04-.65-2.16-.65-3.35,0-4.99,4.05-9.04,9.04-9.04.33,0,.9-.03,1.38-.03"/>
    <path class="cls-1" d="M6.09,51.99c-2.82-2.42-4.59-6.01-4.59-10.03,0-6.56,4.79-12.02,11.06-13.05"/>
    <path class="cls-1" d="M10.5,73.34c-.1.6-.14,1.21-.14,1.83,0,6.66,5.4,12.06,12.06,12.06,1.27,0,2.5-.2,3.65-.57"/>
    <path class="cls-1" d="M26.07,86.66c.69,4.02,4.18,7.08,8.39,7.08,4.7,0,8.51-3.81,8.51-8.52"/>
    <path class="cls-1" d="M22.33,16.49c-.4-1.12-.62-2.34-.62-3.6,0-5.88,4.76-10.63,10.64-10.63s10.63,4.75,10.63,10.63"/>
    <line class="cls-1" x1="42.98" y1="85.22" x2="42.98" y2="12.89"/>
    <path class="cls-1" d="M85.5,73.34c.1.6.14,1.21.14,1.83,0,6.66-5.4,12.06-12.06,12.06-1.27,0-2.5-.2-3.65-.57"/>
    <path class="cls-1" d="M69.93,86.66c-.69,4.02-4.18,7.08-8.39,7.08-4.7,0-8.51-3.81-8.51-8.52"/>
    <path class="cls-1" d="M73.67,16.49c.4-1.12.62-2.34.62-3.6,0-5.88-4.76-10.63-10.64-10.63s-10.63,4.75-10.63,10.63"/>
    <line class="cls-1" x1="53.02" y1="85.22" x2="53.02" y2="12.89"/>
    <path class="cls-1" d="M32.53,49.1c0-.57-.06-1.12-.17-1.65l4.22-2.87-2.08-3.61-4.6,2.22c-.82-.74-1.79-1.31-2.86-1.66l-.38-5.09h-4.17l-.38,5.09c-1.07.35-2.04.92-2.86,1.66l-4.6-2.22-2.08,3.61,4.22,2.87c-.11.53-.17,1.09-.17,1.65s.06,1.12.17,1.65l-4.22,2.87,2.08,3.61,4.6-2.22c.82.74,1.79,1.31,2.86,1.66l.38,5.09h4.17l.38-5.09c1.07-.35,2.04-.92,2.86-1.66l4.6,2.22,2.08-3.61-4.22-2.87c.11-.53.17-1.09.17-1.65Z"/>
    <circle class="cls-1" cx="24.57" cy="49.1" r="3.01"/>
  </g>
</svg>