<?xml version="1.0" encoding="UTF-8"?>
<svg id="Layer_1" data-name="Layer 1" xmlns="http://www.w3.org/2000/svg" viewBox="0 0 96 96">
  <defs>
    <style>
      .cls-1 {
        fill: #fff;
      }
    </style>
  </defs>
  <path class="cls-1" d="M48.81,96c-15.31,0-27.77-12.46-27.77-27.77v-25.01c0-15.31,12.46-27.77,27.77-27.77s27.77,12.46,27.77,27.77v25.01c0,15.31-12.46,27.77-27.77,27.77ZM48.81,18.45c-13.66,0-24.77,11.11-24.77,24.77v25.01c0,13.66,11.11,24.77,24.77,24.77s24.77-11.11,24.77-24.77v-25.01c0-13.66-11.11-24.77-24.77-24.77Z"/>
  <rect class="cls-1" x="4.59" y="32.66" width="19.06" height="3"/>
  <rect class="cls-1" x="4.59" y="54.44" width="17.95" height="3"/>
  <rect class="cls-1" x="4.59" y="76.22" width="19.19" height="3"/>
  <rect class="cls-1" x="73.2" y="76.22" width="19.06" height="3"/>
  <rect class="cls-1" x="74.3" y="54.44" width="17.95" height="3"/>
  <rect class="cls-1" x="73.06" y="32.66" width="19.19" height="3"/>
  <rect class="cls-1" x="29.55" y="-.25" width="3" height="21.01" transform="translate(-.49 18.89) rotate(-33.59)"/>
  <rect class="cls-1" x="55.31" y="8.75" width="21.01" height="3" transform="translate(20.85 59.39) rotate(-56.39)"/>
  <path class="cls-1" d="M60.24,50.14h-22.72c-3.9,0-7.08-3.17-7.08-7.08s3.17-7.08,7.08-7.08h22.72c3.9,0,7.08,3.17,7.08,7.08s-3.17,7.08-7.08,7.08ZM37.52,38.99c-2.25,0-4.08,1.83-4.08,4.08s1.83,4.08,4.08,4.08h22.72c2.25,0,4.08-1.83,4.08-4.08s-1.83-4.08-4.08-4.08h-22.72Z"/>
  <path class="cls-1" d="M60.24,70.96h-22.72c-3.9,0-7.08-3.17-7.08-7.08s3.17-7.08,7.08-7.08h22.72c3.9,0,7.08,3.17,7.08,7.08s-3.17,7.08-7.08,7.08ZM37.52,59.8c-2.25,0-4.08,1.83-4.08,4.08s1.83,4.08,4.08,4.08h22.72c2.25,0,4.08-1.83,4.08-4.08s-1.83-4.08-4.08-4.08h-22.72Z"/>
</svg>