<?xml version="1.0" encoding="UTF-8"?>
<svg id="Layer_1" data-name="Layer 1" xmlns="http://www.w3.org/2000/svg" viewBox="0 0 96 96">
  <path d="M80.25,76.32l11.55,11.55c.93.93.93,2.45,0,3.38l-.14.14c-.93.93-2.45.93-3.38,0l-9.55-9.55c-.58-.59-1.54-.59-2.12,0-.59.58-.59,1.54,0,2.12,0,0,3.43,3.43,9.55,9.55,2.11,2.11,5.52,2.11,7.63,0l.14-.14c2.11-2.11,2.11-5.52,0-7.63l-11.95-11.95c1.94-3.3,3.06-7.14,3.06-11.25,0-12.26-9.95-22.21-22.21-22.21s-22.21,9.95-22.21,22.21,9.95,22.21,22.21,22.21c7.06,0,13.36-3.3,17.43-8.45h0ZM62.82,43.34c10.6,0,19.21,8.61,19.21,19.21s-8.61,19.21-19.21,19.21-19.21-8.61-19.21-19.21,8.61-19.21,19.21-19.21h0ZM13.43,50c0-.93-.37-1.82-1.03-2.47-.66-.66-1.55-1.02-2.47-1.02H4c-.93,0-1.82.37-2.47,1.02-.66.66-1.02,1.55-1.02,2.47v27.55c0,.83.67,1.5,1.5,1.5h9.93c.83,0,1.5-.67,1.5-1.5v-27.55ZM30.6,45.02c0-1.93-1.57-3.5-3.5-3.5h-5.93c-1.93,0-3.5,1.57-3.5,3.5v32.54c0,.83.67,1.5,1.5,1.5h9.93c.83,0,1.5-.67,1.5-1.5v-32.54ZM42.28,76.06h-4.42v-38.01c0-.13.05-.26.15-.35.09-.09.22-.15.35-.15h5.92c.13,0,.26.05.35.15.09.09.15.22.15.35v5.59c0,.83.67,1.5,1.5,1.5s1.5-.67,1.5-1.5v-5.59c0-.93-.37-1.82-1.02-2.47-.66-.66-1.55-1.02-2.47-1.02h-5.92c-.93,0-1.82.37-2.47,1.02s-1.02,1.55-1.02,2.47v39.51c0,.83.67,1.5,1.5,1.5h5.92c.83,0,1.5-.67,1.5-1.5s-.67-1.5-1.5-1.5ZM54.52,53.92c2.15-2.07,5.08-3.34,8.29-3.34,6.61,0,11.98,5.37,11.98,11.98s-5.37,11.98-11.98,11.98-11.98-5.37-11.98-11.98c0-1.62.32-3.16.9-4.56.32-.77-.05-1.64-.81-1.96-.76-.32-1.64.05-1.96.81-.73,1.76-1.13,3.69-1.13,5.71,0,8.27,6.71,14.98,14.98,14.98s14.98-6.71,14.98-14.98-6.71-14.98-14.98-14.98c-4.02,0-7.68,1.59-10.37,4.18-.6.57-.62,1.52-.04,2.12s1.52.62,2.12.04h0ZM27.6,45.02v31.04h-6.93v-31.04c0-.28.22-.5.5-.5h5.93c.28,0,.5.22.5.5ZM10.43,50v26.05H3.5v-26.05c0-.13.05-.26.15-.35.09-.09.22-.15.35-.15h5.93c.13,0,.26.05.35.15s.15.22.15.35ZM55.03,38.81v-14.49c0-.13.05-.26.15-.35.09-.09.22-.15.35-.15h5.93c.13,0,.26.05.35.15.09.09.15.22.15.35v12.49c0,.83.67,1.5,1.5,1.5s1.5-.67,1.5-1.5v-12.49c0-.93-.37-1.82-1.02-2.47-.66-.66-1.55-1.03-2.47-1.03h-5.93c-.93,0-1.82.37-2.47,1.03-.66.66-1.02,1.55-1.02,2.47v14.49c0,.83.67,1.5,1.5,1.5s1.5-.67,1.5-1.5ZM49.37,10.31l-12.18,8.55c-1.21-1.1-2.81-1.77-4.58-1.77-3.74,0-6.78,3.03-6.81,6.76l-12.31,2.68c-1.09-2.32-3.44-3.93-6.17-3.93-3.76,0-6.81,3.05-6.81,6.81s3.05,6.81,6.81,6.81,6.78-3.02,6.81-6.76l12.31-2.68c1.09,2.32,3.44,3.93,6.17,3.93,3.76,0,6.81-3.05,6.81-6.81,0-.92-.18-1.79-.51-2.59l12.18-8.55c1.21,1.1,2.81,1.77,4.58,1.77,3.76,0,6.81-3.05,6.81-6.81s-3.05-6.81-6.81-6.81-6.81,3.05-6.81,6.81c0,.92.18,1.79.51,2.59h0ZM7.31,33.24c-2.1,0-3.81-1.71-3.81-3.81s1.71-3.81,3.81-3.81,3.81,1.71,3.81,3.81-1.71,3.81-3.81,3.81ZM35.72,21.71v.02c.44.62.7,1.37.7,2.18,0,2.1-1.71,3.81-3.81,3.81s-3.81-1.71-3.81-3.81,1.71-3.81,3.81-3.81c1.28,0,2.42.64,3.11,1.61ZM52.56,9.92v-.02c-.44-.62-.7-1.37-.7-2.18,0-2.1,1.71-3.81,3.81-3.81s3.81,1.71,3.81,3.81-1.71,3.81-3.81,3.81c-1.28,0-2.42-.64-3.11-1.61Z" fill="#fff" fill-rule="evenodd"/>
</svg>