<?xml version="1.0" encoding="UTF-8"?>
<svg id="Layer_1" data-name="Layer 1" xmlns="http://www.w3.org/2000/svg" viewBox="0 0 96 96">
  <defs>
    <style>
      .cls-1 {
        fill: #fff;
      }
    </style>
  </defs>
  <rect class="cls-1" x="31.19" y="80.64" width="2.4" height="3"/>
  <path class="cls-1" d="M33.37,63.78h-.29c-7.69,0-13.95-6.26-13.95-13.95v-7.06c0-1.69.88-3.19,2.35-4.01,1.47-.82,3.21-.79,4.65.09l3.95,2.42h9.84c4.08,0,7.39,3.32,7.39,7.39v1.17c0,7.69-6.26,13.95-13.95,13.95ZM22.14,42.77v7.06c0,6.04,4.91,10.95,10.95,10.95h.29c6.04,0,10.95-4.91,10.95-10.95v-1.17c0-2.42-1.97-4.39-4.39-4.39h-9.97l-.43.17-4.96-3.03c-.72-.44-1.37-.17-1.62-.03s-.82.55-.82,1.39h0Z"/>
  <path class="cls-1" d="M20.06,52.6c-6.84-2.83-10.1-10.71-7.27-17.55,1.39-3.36,4.09-6.01,7.46-7.35,5.58-7.74,16.38-9.68,24.32-4.28,3.91,2.66,6.55,6.68,7.43,11.33.88,4.65-.1,9.36-2.76,13.27-.7,1.03-1.51,1.98-2.39,2.83l-2.07-2.17c.73-.7,1.4-1.49,1.98-2.34,2.21-3.25,3.02-7.16,2.29-11.02-.73-3.86-2.93-7.2-6.17-9.41-6.7-4.56-15.87-2.82-20.43,3.88l-.28.41-.46.16c-2.78.99-5.03,3.12-6.16,5.84-2.2,5.31.33,11.43,5.65,13.63l-1.15,2.77Z"/>
  <path class="cls-1" d="M64.33,95.95H0v-4.6C0,79.29,8.63,69.16,20.51,67.26c1.23-.21,2.54-.31,3.89-.31h15.53c1.15,0,2.31.08,3.44.24,3.35.47,6.52,1.62,9.42,3.42l-1.58,2.55c-2.54-1.58-5.32-2.58-8.25-3-1-.14-2.02-.21-3.02-.21h-15.53c-1.18,0-2.32.09-3.4.27-10.43,1.67-18,10.55-18,21.12v1.6h58.33v-1.6c0-3.99-1.11-7.89-3.21-11.28l2.55-1.58c2.39,3.86,3.66,8.3,3.66,12.86v4.6Z"/>
  <rect class="cls-1" x="26.05" y="60.98" width="3" height="7.46"/>
  <rect class="cls-1" x="36.23" y="61.49" width="3" height="6.95"/>
  <rect class="cls-1" x="24.22" y="67.66" width="3" height="27.65" transform="translate(-26.67 13.98) rotate(-20.3)"/>
  <rect class="cls-1" x="24.65" y="80.06" width="27.49" height="3" transform="translate(-51.42 89.25) rotate(-69.69)"/>
  <rect class="cls-1" x="22.57" y="73.7" width="16.95" height="3" transform="translate(-47.69 54.69) rotate(-52.97)"/>
  <rect class="cls-1" x="31.68" y="66.8" width="3" height="16.29" transform="translate(-38.43 35.07) rotate(-37.01)"/>
  <rect class="cls-1" x="12.51" y="84.45" width="3" height="10"/>
  <rect class="cls-1" x="49.76" y="84.45" width="3" height="10"/>
  <path class="cls-1" d="M78.75,89.24c-1.33,0-2.62-.54-3.58-1.56l-6.46-6.9h-11.45c-3.73,0-6.77-3.04-6.77-6.77v-15.17c0-3.74,3.04-6.78,6.77-6.78h31.97c3.73,0,6.77,3.04,6.77,6.78v15.17c0,3.73-3.04,6.77-6.77,6.77h-5.56v3.54c0,2.03-1.22,3.83-3.11,4.57-.59.23-1.21.35-1.82.35ZM70.53,78.34l6.83,7.29c.82.88,1.82.58,2.1.47.28-.11,1.21-.57,1.21-1.78v-5.01c0-.29.07-.57.22-.82.27-.44.76-.71,1.28-.71h7.06c2.08,0,3.77-1.69,3.77-3.77v-15.17c0-2.08-1.69-3.78-3.77-3.78h-31.97c-2.08,0-3.77,1.69-3.77,3.78v15.17c0,2.08,1.69,3.77,3.77,3.77h12.1c.46,0,.88.21,1.17.56Z"/>
  <rect class="cls-1" x="59.56" y="59.48" width="27.27" height="3"/>
  <rect class="cls-1" x="59.56" y="65.65" width="27.27" height="3"/>
  <rect class="cls-1" x="59.56" y="71.57" width="19.41" height="3"/>
  <rect class="cls-1" x="84.43" y="71.57" width="2.4" height="3"/>
  <path class="cls-1" d="M65.28,48.37c-.63,0-1.27-.12-1.88-.36-1.96-.77-3.23-2.64-3.23-4.74v-3.81h-5.93c-1.63,0-3.16-.54-4.42-1.56l1.88-2.33c.72.58,1.6.89,2.54.89h7.43c.83,0,1.5.67,1.5,1.5v5.31c0,1.33,1.02,1.83,1.33,1.95.31.12,1.39.45,2.29-.52l7.18-7.66c.28-.36.71-.59,1.18-.59h12.75c2.23,0,4.05-1.82,4.05-4.05v-15.98c0-2.24-1.82-4.06-4.05-4.06h-8.94v-3h8.94c3.89,0,7.05,3.17,7.05,7.06v15.98c0,3.89-3.16,7.05-7.05,7.05h-12.09l-6.84,7.3c-.98,1.05-2.33,1.62-3.7,1.62Z"/>
  <path class="cls-1" d="M50.18,30.02h-3v-13.6c0-3.9,3.17-7.06,7.06-7.06h10.56v3h-10.56c-2.24,0-4.06,1.82-4.06,4.06v13.6Z"/>
  <path class="cls-1" d="M71.89,17.75c-4.88,0-8.85-3.97-8.85-8.85S67.01.05,71.89.05s8.85,3.97,8.85,8.85-3.97,8.85-8.85,8.85ZM71.89,3.05c-3.23,0-5.85,2.62-5.85,5.85s2.62,5.85,5.85,5.85,5.85-2.62,5.85-5.85-2.62-5.85-5.85-5.85Z"/>
  <path class="cls-1" d="M85.63,33.91h-28.76c-.83,0-1.5-.67-1.5-1.5v-1.78c0-8.76,7.12-15.88,15.88-15.88s15.88,7.12,15.88,15.88v1.78c0,.83-.67,1.5-1.5,1.5ZM58.37,30.91h25.76v-.28c0-7.1-5.78-12.88-12.88-12.88s-12.88,5.78-12.88,12.88v.28Z"/>
</svg>