<?xml version="1.0" encoding="UTF-8"?>
<svg id="Capa_1" data-name="Capa 1" xmlns="http://www.w3.org/2000/svg" viewBox="0 0 96 96">
  <defs>
    <style>
      .cls-1 {
        fill: #fff;
      }
    </style>
  </defs>
  <path class="cls-1" d="M94.98,79.75c-.35,1.23-.68,2.46-1.48,3.5-1.58,2.06-3.67,3.07-6.25,3.1-1.9.02-3.79,0-5.69,0-24.13,0-48.26,0-72.39,0-3.28,0-5.79-1.29-7.35-4.24-.63-1.19-.81-2.49-.81-3.82,0-15.02,0-30.03,0-45.05,0-4.73,3.19-7.92,7.94-7.98q1.44-.02,1.44-1.45c0-1.83.03-3.67-.02-5.5-.02-.71.22-.87.89-.86,2.54.04,5.08.04,7.61,0,.7-.01.95.17.93.91-.05,2.05,0,4.1-.03,6.15,0,.6.19.75.78.79.95.07,1.43-.19,1.8-1.15,1.76-4.59,3.63-9.13,5.43-13.71.24-.6.52-.82,1.18-.82,12.66.02,25.32.02,37.98,0,.71,0,.99.24,1.24.87,1.84,4.69,3.74,9.35,5.59,14.04.23.58.51.76,1.13.76,4.01-.03,8.01-.02,12.02-.01,3.27.01,5.77,1.35,7.3,4.33.37.71.44,1.51.74,2.24v47.89ZM48,83.24c12.87,0,25.75,0,38.62,0,3.53,0,5.23-1.7,5.23-5.23,0-14.8,0-29.6,0-44.4,0-3.48-1.7-5.18-5.17-5.19-4.56,0-9.11-.02-13.67.01-.74,0-1.11-.17-1.4-.91-1.83-4.69-3.73-9.36-5.58-14.04-.22-.55-.47-.72-1.05-.72-11.31.02-22.63.02-33.94,0-.58,0-.84.17-1.05.72-1.85,4.69-3.75,9.35-5.58,14.04-.29.74-.66.92-1.4.92-4.59-.03-9.17-.01-13.76-.02-.65,0-1.29.03-1.91.21-2.01.57-3.17,2.29-3.17,4.7,0,14.89,0,29.79,0,44.68,0,3.53,1.7,5.23,5.23,5.23,12.87,0,25.75,0,38.62,0ZM13.54,22.97q0,2.39,2.41,2.31s.06,0,.09,0c.47.06.65-.13.64-.61-.03-1.13-.03-2.25,0-3.38.01-.51-.16-.67-.67-.69-2.47-.09-2.47-.1-2.47,2.37Z"/>
  <path class="cls-1" d="M47.97,80.11c-15.78-.15-28.18-12.75-28.13-28.24.05-15.65,12.78-28.23,28.23-28.12,15.56.11,28.13,12.71,28.11,28.17-.02,15.5-12.75,28.22-28.21,28.18ZM48,76.98c13.75,0,24.98-11.21,25.05-25.03.07-13.72-11.19-25.01-25-25.06-13.79-.05-25.14,11.28-25.1,25.05.05,13.8,11.28,25.03,25.04,25.04Z"/>
  <path class="cls-1" d="M82.44,31.57c3.39-.01,6.24,2.81,6.28,6.22.03,3.41-2.9,6.34-6.3,6.3-3.43-.04-6.21-2.85-6.2-6.27,0-3.43,2.8-6.23,6.23-6.24ZM82.58,34.72c-1.71-.08-3.16,1.23-3.23,2.93-.08,1.77,1.21,3.2,2.97,3.29,1.71.09,3.2-1.29,3.26-3.03.06-1.67-1.3-3.12-3-3.19Z"/>
  <path class="cls-1" d="M47.99,70.72c-10.34-.02-18.77-8.47-18.76-18.81,0-10.36,8.44-18.78,18.78-18.77,10.35,0,18.78,8.46,18.76,18.79-.02,10.36-8.47,18.81-18.78,18.78ZM47.88,67.58c8.43.2,15.56-6.78,15.76-15.42.19-8.52-6.68-15.67-15.28-15.89-8.63-.22-15.75,6.64-15.98,15.37-.23,8.62,6.69,15.73,15.51,15.94Z"/>
</svg>