<?xml version="1.0" encoding="UTF-8"?>
<svg id="Layer_1" data-name="Layer 1" xmlns="http://www.w3.org/2000/svg" viewBox="0 0 96 96">
  <defs>
    <style>
      .cls-1 {
        fill: #fff;
      }
    </style>
  </defs>
  <path class="cls-1" d="M50.19,95.81c-2.09,0-4.19-.35-6.21-1.07l-24.24-8.63c-2.03-.72-4.24-.67-6.23.15L0,91.84v-25.39l18.23-6.34c5.37-1.87,11.19-2.44,16.82-1.66l26.14,3.62c3.43.47,5.87,3.55,5.56,7-.06.71-.24,1.38-.52,2.01l19-12.38c2.93-1.91,6.84-1.34,9.1,1.32,1.27,1.5,1.85,3.47,1.6,5.42-.25,1.95-1.33,3.7-2.94,4.82l-32.24,22.28c-3.14,2.17-6.84,3.29-10.56,3.29ZM16.82,82.6c1.32,0,2.65.23,3.92.68l24.24,8.63c4.7,1.67,9.96.98,14.06-1.86l32.24-22.28c.93-.64,1.53-1.62,1.67-2.74.15-1.12-.18-2.22-.91-3.08-1.29-1.51-3.51-1.84-5.18-.75l-24.93,16.25c-3.35,2.18-7.67,2.17-11.01-.02l-3.14-2.07-10.36.33-.1-3,23.07-.74c1.75-.06,3.19-1.41,3.35-3.16.17-1.85-1.14-3.5-2.98-3.76l-26.14-3.62c-5.17-.71-10.5-.19-15.42,1.52l-16.22,5.64v18.78l9.36-3.86c1.43-.59,2.94-.89,4.46-.89ZM53.04,75.19c2.26,1.25,5.04,1.18,7.23-.23l-7.23.23Z"/>
  <path class="cls-1" d="M50.53,37.37c-10.25,0-18.59-8.34-18.59-18.59S40.28.19,50.53.19s18.59,8.34,18.59,18.59-8.34,18.59-18.59,18.59ZM50.53,3.19c-8.6,0-15.59,6.99-15.59,15.59s6.99,15.59,15.59,15.59,15.59-6.99,15.59-15.59-6.99-15.59-15.59-15.59Z"/>
  <polygon class="cls-1" points="48.77 24.27 45.35 20.19 47.64 18.27 48.99 19.87 53.6 15.37 55.69 17.52 48.77 24.27"/>
  <path class="cls-1" d="M50.53,30.24c-6.32,0-11.46-5.14-11.46-11.46s5.14-11.46,11.46-11.46,11.46,5.14,11.46,11.46-5.14,11.46-11.46,11.46ZM50.53,10.32c-4.66,0-8.46,3.79-8.46,8.46s3.79,8.46,8.46,8.46,8.46-3.79,8.46-8.46-3.79-8.46-8.46-8.46Z"/>
  <polygon class="cls-1" points="58.08 57.78 49.41 36.88 52.18 35.73 58.86 51.83 62.01 47.71 67.08 48.4 60.41 32.32 63.18 31.17 71.85 52.08 63.33 50.92 58.08 57.78"/>
  <polygon class="cls-1" points="41.69 57.78 36.44 50.92 27.92 52.08 36.59 31.17 39.36 32.32 32.69 48.4 37.76 47.71 40.91 51.83 47.59 35.73 50.36 36.88 41.69 57.78"/>
</svg>