<?xml version="1.0" encoding="UTF-8"?>
<svg id="Capa_1" data-name="Capa 1" xmlns="http://www.w3.org/2000/svg" viewBox="0 0 96 96">
  <defs>
    <style>
      .cls-1 {
        fill: #fff;
      }
    </style>
  </defs>
  <path class="cls-1" d="M90.76,26.87h-26.38V9.7c0-2.01-1.63-3.66-3.65-3.66H5.24c-2.01,0-3.65,1.64-3.65,3.66v39.84c0,2.01,1.63,3.66,3.65,3.66h5.76v15.56l13.43-15.56h7.2v17.17c0,2.01,1.63,3.65,3.65,3.65h36.36l13.77,15.95v-15.95h5.37c2.01,0,3.65-1.63,3.65-3.65V30.52c0-2.02-1.63-3.66-3.65-3.66ZM31.62,30.52v19.94h-8.34s-9.55,10.91-9.55,10.91v-10.9l-8.5-.03c-.5,0-.91-.41-.91-.91V9.7c0-.5.4-.91.91-.91h55.5c.5,0,.91.41.91.91v17.17h-26.37c-2.01,0-3.65,1.63-3.65,3.66ZM91.67,70.36c0,.5-.4.91-.91.91h-8.28v2.74h.17v8.58l-9.72-11.26-.05-.06h-37.61c-.5,0-.91-.4-.91-.91V30.52c0-.5.4-.91.91-.91h55.5c.5,0,.91.41.91.91v39.84Z"/>
</svg>