<?xml version="1.0" encoding="UTF-8"?>
<svg id="Layer_1" data-name="Layer 1" xmlns="http://www.w3.org/2000/svg" viewBox="0 0 96 96">
  <defs>
    <style>
      .cls-1 {
        fill: #fff;
      }
    </style>
  </defs>
  <rect class="cls-1" x="71.53" y="-3.42" width="3" height="32.94" transform="translate(12.5 55.94) rotate(-45.45)"/>
  <g>
    <path class="cls-1" d="M84.77,96H11.23c-.83,0-1.5-.67-1.5-1.5V1.5C9.73.67,10.41,0,11.23,0h50.06c.83,0,1.5.67,1.5,1.5v21.61h21.97c.83,0,1.5.67,1.5,1.5v69.89c0,.83-.67,1.5-1.5,1.5ZM12.73,93h70.53V26.11h-21.97c-.83,0-1.5-.67-1.5-1.5V3H12.73v90Z"/>
    <rect class="cls-1" x="44.24" y="39.82" width="26.81" height="3"/>
    <rect class="cls-1" x="44.24" y="52.82" width="26.81" height="3"/>
    <rect class="cls-1" x="44.24" y="65.08" width="26.81" height="3"/>
    <rect class="cls-1" x="44.24" y="77.74" width="26.81" height="3"/>
    <polygon class="cls-1" points="26.13 49.02 17.87 40.92 19.97 38.78 25.91 44.6 34.74 34.04 37.04 35.97 26.13 49.02"/>
    <polygon class="cls-1" points="26.13 67.21 17.87 59.11 19.97 56.97 25.91 62.8 34.74 52.24 37.04 54.16 26.13 67.21"/>
    <polygon class="cls-1" points="26.13 84.74 17.87 76.63 19.97 74.49 25.91 80.32 34.74 69.76 37.04 71.68 26.13 84.74"/>
  </g>
</svg>