<?xml version="1.0" encoding="UTF-8"?>
<svg id="Capa_1" data-name="Capa 1" xmlns="http://www.w3.org/2000/svg" viewBox="0 0 96 96">
  <defs>
    <style>
      .cls-1 {
        fill: #fff;
      }
    </style>
  </defs>
  <path class="cls-1" d="M69.31,7.56c1.37.33,2.78.51,4.09,1.1,5.6,2.51,9.22,6.66,10.21,12.77.75,4.64-.76,8.68-4.07,12-13.32,13.35-26.65,26.68-40.01,40-2.57,2.56-5.7,3.32-9.15,2.18-3.42-1.13-5.42-3.62-5.96-7.17-.41-2.63.35-4.99,2.07-7.03.24-.28.5-.54.76-.8,8.8-8.8,17.59-17.59,26.39-26.39.19-.19.37-.38.58-.54.7-.53,1.51-.49,2.08.08.55.55.6,1.41.09,2.08-.17.23-.38.43-.59.63-8.78,8.78-17.55,17.56-26.33,26.33-1.77,1.77-2.46,3.81-1.69,6.25,1.15,3.65,5.79,5.11,8.82,2.78.42-.32.8-.68,1.17-1.05,13-13,25.92-26.08,39.04-38.96,5.75-5.65,4.52-13.66-1.19-18.22-3.36-2.68-7.12-3.63-11.3-2.25-1.65.55-3.05,1.52-4.27,2.75-14.13,14.13-28.28,28.25-42.39,42.41-5.73,5.74-6.67,14.02-2.49,20.92,3.57,5.89,11.13,9.01,17.83,7.41,3.35-.8,6.16-2.46,8.58-4.88,13.9-13.92,27.82-27.83,41.73-41.73.28-.28.56-.56.88-.78.58-.39,1.4-.29,1.89.19.51.49.62,1.27.24,1.88-.16.26-.38.5-.61.72-14.02,14.02-28,28.09-42.08,42.05-6.18,6.13-13.6,7.75-21.69,4.6-7.04-2.74-11.17-8.17-12.23-15.67-.93-6.56,1.1-12.27,5.78-16.96,14.08-14.11,28.19-28.2,42.28-42.3,2.38-2.38,5.18-3.91,8.57-4.28.11-.01.21-.08.31-.11.89,0,1.79,0,2.68,0Z"/>
</svg>