<?xml version="1.0" encoding="UTF-8"?>
<svg id="Layer_1" data-name="Layer 1" xmlns="http://www.w3.org/2000/svg" viewBox="0 0 96 96">
  <g id="Layer_11" data-name="Layer 11">
    <path d="M93.97,86.08h-.04c-.78-22.41-17.58-41-39.8-44.01v-3.49c0-3.38-2.74-6.13-6.13-6.13s-6.13,2.74-6.13,6.13v3.49C19.65,45.09,2.85,63.67,2.07,86.08h-.04c-.85,0-1.53.69-1.53,1.53v6.13c0,.85.69,1.53,1.53,1.53h91.94c.85,0,1.53-.69,1.53-1.53v-6.13c0-.85-.69-1.53-1.53-1.53ZM44.94,38.58c0-1.69,1.37-3.06,3.06-3.06s3.06,1.37,3.06,3.06v3.18c-1.01-.07-2.03-.11-3.06-.11s-2.05.05-3.06.11v-3.18ZM48,44.71c23.08.03,42.02,18.3,42.86,41.37H5.14c.85-23.07,19.78-41.34,42.86-41.37h0ZM92.44,92.21H3.56v-3.06h88.87v3.06Z" fill="#fff"/>
    <path d="M8.67,81.24l3.03.49c2.82-17.85,18.24-30.97,36.31-30.89v-3.06c-19.57-.08-36.28,14.13-39.33,33.47Z" fill="#fff"/>
    <path d="M42.32,29.84l2.17,2.17,3.96-3.96c3.49-3.49,3.49-9.14,0-12.63l-.26-.26c-2.29-2.29-2.29-6,0-8.3l3.96-3.96-2.17-2.17-3.96,3.96c-3.49,3.49-3.49,9.14,0,12.63l.26.26c2.29,2.29,2.29,6,0,8.3l-3.96,3.96Z" fill="#fff"/>
    <path d="M66.84,39.03l2.17,2.17,3.96-3.96c3.49-3.49,3.49-9.14,0-12.63l-.26-.26c-2.29-2.29-2.29-6,0-8.3l3.96-3.96-2.17-2.17-3.96,3.96c-3.49,3.49-3.49,9.14,0,12.63l.26.26c2.29,2.29,2.29,6,0,8.3l-3.96,3.96Z" fill="#fff"/>
    <path d="M19.34,39.03l2.17,2.17,3.96-3.96c3.49-3.49,3.49-9.14,0-12.63l-.26-.26c-2.29-2.29-2.29-6,0-8.3l3.96-3.96-2.17-2.17-3.96,3.96c-3.49,3.49-3.49,9.14,0,12.63l.26.26c2.29,2.29,2.29,6,0,8.3l-3.96,3.96Z" fill="#fff"/>
  </g>
</svg>