<?xml version="1.0" encoding="UTF-8"?>
<svg id="Layer_1" data-name="Layer 1" xmlns="http://www.w3.org/2000/svg" viewBox="0 0 96 96">
  <path d="M95.65,63.26c0-.43-.17-.83-.48-1.12-.3-.3-.7-.46-1.12-.46h-.01l-17.57.14c-.43,0-.83.17-1.12.47-.3.3-.46.71-.46,1.13l.04,5.64-8.93.07-.08-9.87c1.07.08,2.13-.31,2.89-1.07l4.37-4.44c.68-.69,1.05-1.61,1.05-2.58s-.39-1.88-1.08-2.57c-1.55-1.53-2.01-3.74-1.19-5.76s2.68-3.29,4.86-3.31c.97,0,1.89-.39,2.57-1.09s1.05-1.61,1.04-2.58l-.05-6.23c-.02-2-1.64-3.61-3.64-3.61-.02,0-.05,0-.07,0-2.16,0-4.02-1.24-4.87-3.23-.85-2.01-.43-4.23,1.1-5.78,1.41-1.43,1.39-3.74-.04-5.15l-4.44-4.37c-1.43-1.41-3.74-1.39-5.15.04-1.53,1.55-3.74,2.01-5.76,1.19-2.02-.82-3.29-2.68-3.31-4.86,0-.97-.39-1.88-1.09-2.56-.69-.68-1.59-1.05-2.55-1.05h-.03l-6.23.05c-2.01.02-3.63,1.66-3.61,3.67.02,2.18-1.22,4.06-3.23,4.91-2.01.85-4.23.43-5.78-1.1-.69-.68-1.59-1.05-2.55-1.05,0,0-.02,0-.03,0-.97,0-1.88.39-2.56,1.09l-4.37,4.44c-.68.69-1.05,1.61-1.05,2.58,0,.97.39,1.88,1.09,2.56,1.55,1.53,2.01,3.74,1.19,5.76-.82,2.02-2.68,3.29-4.86,3.31-2.01.02-3.63,1.66-3.61,3.67l.05,6.23c.02,2,1.65,3.61,3.64,3.61.02,0,.05,0,.07,0,2.16,0,4.02,1.24,4.87,3.23.85,2.01.43,4.23-1.1,5.78-1.41,1.43-1.39,3.74.04,5.15l4.44,4.37c.78.77,1.87,1.14,2.96,1.02l.08,9.87-8.93.07-.04-5.64c0-.43-.17-.83-.48-1.12-.3-.3-.71-.47-1.13-.46l-17.57.14c-.88,0-1.59.73-1.58,1.61l.11,14.46c0,.43.17.83.48,1.12.3.3.7.47,1.13.46l17.57-.14c.88,0,1.59-.73,1.58-1.61l-.04-5.64,10.52-.08c.88,0,1.59-.73,1.58-1.61l-.1-13.3c1.58-.99,3.59-1.05,5.28-.15,1.74.92,2.78,2.65,2.8,4.63,0,.97.39,1.89,1.09,2.57s1.6,1.05,2.58,1.04h1.55s.09,12.29.09,12.29l-7.22.06c-.88,0-1.59.73-1.58,1.61l.11,14.46c0,.43.17.83.48,1.12.3.3.7.46,1.12.46h.01l17.57-.14c.43,0,.83-.17,1.12-.48.3-.3.46-.71.46-1.13l-.11-14.46c0-.88-.72-1.58-1.6-1.58h-.01l-7.16.06-.1-12.3h1.49c2.01-.03,3.63-1.67,3.61-3.68-.02-1.99,1.01-3.74,2.75-4.68,1.7-.92,3.72-.87,5.31.12l.1,13.27c0,.43.17.83.48,1.12.3.3.71.45,1.13.46l10.52-.08.04,5.64c0,.88.72,1.58,1.59,1.58h.01l17.57-.14c.43,0,.83-.17,1.12-.47.3-.3.46-.71.46-1.13l-.11-14.46ZM92.56,76.15l-14.38.11-.09-11.27,14.38-.11.09,11.27ZM40.86,81.28l14.38-.11.09,11.27-14.38.11-.09-11.27ZM44.79,62.56c-.25,0-.45-.2-.45-.45-.03-3.5-2.06-6.48-5.3-7.8-1.07-.43-2.16-.64-3.24-.64-2.21,0-4.34.88-5.99,2.55-.08.09-.2.13-.32.13h0c-.12,0-.23-.05-.31-.13l-4.44-4.37c-.18-.17-.18-.46,0-.64,2.45-2.49,3.13-6.04,1.76-9.26-1.35-3.2-4.34-5.18-7.8-5.18-.02,0-.04,0-.07,0-.25,0-.45-.2-.45-.45l-.05-6.23c0-.12.04-.23.13-.32.08-.09.2-.13.32-.13,3.49-.03,6.48-2.06,7.79-5.3,1.31-3.24.58-6.78-1.91-9.23-.18-.17-.18-.46,0-.63l4.37-4.44c.08-.09.2-.13.32-.13.09-.01.23.05.32.13,2.49,2.45,6.04,3.13,9.26,1.76,3.22-1.36,5.21-4.38,5.18-7.87,0-.12.04-.23.13-.32.08-.09.2-.13.32-.13l6.23-.05h0c.12,0,.23.05.32.13.08.08.13.2.13.32.03,3.49,2.06,6.48,5.3,7.79,3.25,1.32,6.78.58,9.23-1.91.18-.18.46-.18.64,0l4.44,4.37c.09.08.13.2.13.32,0,.12-.04.23-.13.32-2.45,2.49-3.13,6.04-1.76,9.26,1.35,3.2,4.34,5.18,7.8,5.18.02,0,.05,0,.07,0,.25,0,.45.2.45.45l.05,6.23c0,.12-.04.23-.13.32s-.2.13-.32.13c-3.49.03-6.48,2.06-7.79,5.3-1.31,3.24-.58,6.78,1.9,9.23.18.17.18.46,0,.64l-4.37,4.44c-.08.09-.2.13-.32.13h0c-.12,0-.23-.05-.32-.13-2.49-2.45-6.03-3.13-9.26-1.76-3.22,1.36-5.21,4.38-5.18,7.87,0,.25-.2.45-.45.45l-6.23.05h0ZM17.91,76.72l-14.38.11-.09-11.27,14.38-.11.09,11.27Z" fill="#fff"/>
  <path d="M66.3,32.86c-.04-4.96-2.02-9.62-5.57-13.12-3.52-3.46-8.15-5.36-13.05-5.36-.05,0-.1,0-.15,0-4.96.04-9.62,2.01-13.12,5.57-3.5,3.55-5.4,8.24-5.36,13.2.08,10.22,8.42,18.48,18.62,18.48.05,0,.1,0,.15,0,4.96-.04,9.62-2.02,13.11-5.57,3.5-3.55,5.4-8.24,5.36-13.2ZM36.86,43.99c-2.94-2.9-4.58-6.76-4.61-10.87-.03-4.11,1.55-8,4.44-10.94s6.76-4.58,10.87-4.61c.04,0,.08,0,.12,0,4.06,0,7.9,1.58,10.82,4.44,2.94,2.9,4.58,6.76,4.61,10.87.03,4.11-1.55,7.99-4.45,10.94s-6.76,4.58-10.87,4.61c-4.12.04-8-1.55-10.94-4.44Z" fill="#fff"/>
  <path d="M44.06,35l-3.44-1.95,3.41-2c.76-.45,1.01-1.42.57-2.18-.45-.76-1.42-1.01-2.18-.57l-5.79,3.4c-.49.29-.79.82-.79,1.39,0,.57.31,1.09.81,1.38l5.84,3.31c.24.14.51.21.78.21.14,0,.29-.02.43-.06.41-.11.75-.38.96-.75.21-.37.26-.8.15-1.21s-.38-.75-.75-.96Z" fill="#fff"/>
  <path d="M59.52,32.91c0-.57-.31-1.1-.81-1.38l-5.84-3.31c-.37-.21-.8-.26-1.21-.15-.41.11-.75.38-.96.75-.43.77-.16,1.74.6,2.17l3.44,1.95-3.41,2c-.37.22-.63.56-.74.97-.11.41-.05.84.17,1.21s.56.63.97.74c.13.03.27.05.4.05.28,0,.56-.07.81-.22l5.79-3.4c.49-.29.79-.82.79-1.39Z" fill="#fff"/>
  <path d="M49.11,27.49c-.85-.22-1.72.29-1.94,1.14l-2.06,7.94c-.11.41-.05.84.17,1.21.22.37.56.63.97.74.13.03.27.05.4.05.28,0,.56-.07.81-.22.37-.22.63-.56.74-.97l2.06-7.94c.22-.85-.29-1.72-1.14-1.95Z" fill="#fff"/>
</svg>