<?xml version="1.0" encoding="UTF-8"?>
<svg id="Layer_1" data-name="Layer 1" xmlns="http://www.w3.org/2000/svg" viewBox="0 0 96 96">
  <path d="M85.84,38.62h-9.28v-3.63c0-.85-.69-1.54-1.54-1.54H12.97c-.85,0-1.54.69-1.54,1.54v16.32c.01,11.61,6.66,22.18,17.04,27.25H2.04c-.85,0-1.54.69-1.54,1.54,0,4.47,3.64,8.11,8.11,8.11h70.76c4.47,0,8.11-3.64,8.11-8.11,0-.85-.69-1.54-1.54-1.54h-26.43c4.91-2.41,9.06-6.07,12.07-10.65h14.25c5.32,0,9.66-4.34,9.66-9.66v-9.97c0-5.32-4.34-9.65-9.66-9.66ZM3.82,81.64h80.34c-.67,2.07-2.59,3.49-4.79,3.49H8.61c-2.2,0-4.12-1.42-4.79-3.49ZM85.84,64.82h-12.48c.46-.91.88-1.86,1.24-2.82h11.23c2.07,0,3.75-1.69,3.76-3.76v-9.97c0-2.07-1.69-3.75-3.76-3.76h-9.28v-2.82h9.28c3.62,0,6.58,2.96,6.58,6.58v9.97c0,3.62-2.96,6.58-6.58,6.58ZM86.51,58.25c0,.37-.3.67-.67.67h-10.26c.65-2.48.97-5.04.97-7.61v-3.7h9.28c.37,0,.67.3.67.67v9.97ZM46.22,78.56h-4.45c-15.01-.01-27.24-12.24-27.26-27.25v-14.78h58.97v14.78c-.02,15.01-12.24,27.24-27.25,27.25Z" fill="#fff"/>
  <path d="M30.76,28.06c0,.85.69,1.54,1.54,1.54s1.54-.69,1.54-1.55c-.03-.92.18-1.83.6-2.65.6-1.22.91-2.58.88-3.93.03-1.36-.27-2.72-.88-3.95-.42-.82-.63-1.73-.6-2.66-.03-.92.18-1.83.6-2.65.6-1.22.91-2.58.88-3.94,0-.85-.69-1.54-1.54-1.54s-1.54.69-1.54,1.55c.03.92-.18,1.83-.6,2.65-.6,1.22-.91,2.58-.88,3.93-.03,1.36.27,2.72.88,3.95.42.82.63,1.73.6,2.67.03.92-.18,1.83-.6,2.65-.6,1.22-.91,2.58-.88,3.94Z" fill="#fff"/>
  <path d="M41.71,28.06c0,.85.69,1.54,1.54,1.54s1.54-.69,1.54-1.55c-.03-.92.18-1.83.6-2.65.6-1.22.91-2.58.88-3.93.03-1.36-.27-2.72-.88-3.95-.42-.82-.63-1.73-.6-2.66-.03-.92.18-1.83.6-2.65.6-1.22.91-2.58.88-3.94,0-.85-.69-1.54-1.54-1.54s-1.54.69-1.54,1.55c.03.92-.18,1.83-.6,2.65-.6,1.22-.91,2.58-.88,3.93-.03,1.36.27,2.72.88,3.95.42.82.63,1.73.6,2.67.03.92-.18,1.83-.6,2.65-.6,1.22-.91,2.58-.88,3.94Z" fill="#fff"/>
  <path d="M52.66,28.06c0,.85.69,1.54,1.54,1.54s1.54-.69,1.54-1.55c-.03-.92.18-1.83.6-2.65.6-1.22.91-2.58.88-3.93.03-1.36-.27-2.72-.88-3.95-.42-.82-.63-1.73-.6-2.66-.03-.92.18-1.84.6-2.65.6-1.22.91-2.58.88-3.94,0-.85-.69-1.54-1.54-1.54s-1.54.69-1.54,1.55c.03.92-.18,1.83-.6,2.65-.61,1.22-.91,2.59-.88,3.93-.03,1.36.27,2.72.88,3.95.42.82.63,1.74.6,2.67.03.92-.18,1.83-.6,2.65-.6,1.22-.91,2.58-.88,3.94Z" fill="#fff"/>
</svg>