<?xml version="1.0" encoding="UTF-8"?>
<svg id="Layer_1" xmlns="http://www.w3.org/2000/svg" version="1.1" viewBox="0 0 96 96">
  <!-- Generator: Adobe Illustrator 29.3.1, SVG Export Plug-In . SVG Version: 2.1.0 Build 151)  -->
  <defs>
    <style>
      .st0 {
        fill: #fff;
      }
    </style>
  </defs>
  <path class="st0" d="M48.3,60.3c-6.7,0-12.2-5.5-12.2-12.3s5.5-12.3,12.2-12.3,12.2,5.5,12.2,12.3-5.5,12.3-12.2,12.3h0ZM48.3,38.6c-5.1,0-9.3,4.2-9.3,9.4s4.2,9.4,9.3,9.4,9.3-4.2,9.3-9.4-4.2-9.4-9.3-9.4h0Z"/>
  <path class="st0" d="M52,78.7h-7.3c-.8,0-1.5-.6-1.5-1.5v-5.3c-2.9-.6-5.7-1.8-8.1-3.4l-3.7,3.7c-.6.6-1.5.6-2.1,0l-5.2-5.2c-.6-.6-.6-1.5,0-2l3.7-3.7c-1.6-2.5-2.8-5.3-3.4-8.2h-5.2c-.8,0-1.5-.6-1.5-1.5v-7.4c0-.8.7-1.5,1.5-1.5h5.2c.6-2.9,1.8-5.7,3.4-8.2l-3.7-3.7c-.6-.6-.6-1.5,0-2l5.2-5.2c.5-.5,1.5-.5,2.1,0l3.7,3.7c2.5-1.6,5.3-2.8,8.1-3.4v-5.3c0-.8.7-1.5,1.5-1.5h7.3c.8,0,1.5.6,1.5,1.5v5.3c2.9.6,5.7,1.8,8.1,3.4l3.7-3.7c.5-.5,1.5-.5,2.1,0l5.2,5.2c.6.6.6,1.5,0,2l-3.7,3.7c1.6,2.5,2.8,5.3,3.4,8.2h5.2c.8,0,1.5.6,1.5,1.5v7.4c0,.8-.7,1.5-1.5,1.5h-5.2c-.6,2.9-1.8,5.7-3.4,8.2l3.7,3.7c.6.6.6,1.5,0,2l-5.2,5.2c-.5.5-1.5.5-2.1,0l-3.7-3.7c-2.5,1.6-5.3,2.8-8.1,3.4v5.3c0,.8-.7,1.5-1.5,1.5ZM46.1,75.8h4.4v-5c0-.7.5-1.3,1.2-1.4,3.3-.5,6.4-1.8,9.1-3.8.6-.4,1.4-.4,1.9.2l3.5,3.5,3.1-3.2-3.5-3.6c-.5-.5-.6-1.3-.1-1.9,2-2.7,3.3-5.9,3.8-9.2.1-.7.7-1.2,1.4-1.2h5v-4.5h-5c-.7,0-1.3-.5-1.4-1.2-.5-3.3-1.8-6.5-3.8-9.2-.4-.6-.4-1.4.1-1.9l3.5-3.6-3.1-3.2-3.5,3.5c-.5.5-1.3.6-1.9.2-2.7-2-5.9-3.3-9.1-3.8-.7-.1-1.2-.7-1.2-1.4v-5h-4.4v5c0,.7-.5,1.3-1.2,1.4-3.3.5-6.4,1.8-9.1,3.8-.6.4-1.4.4-1.9-.2l-3.5-3.5-3.1,3.2,3.5,3.6c.5.5.6,1.3.1,1.9-2,2.7-3.3,5.9-3.8,9.2-.1.7-.7,1.2-1.4,1.2h-5v4.5h5c.7,0,1.3.5,1.4,1.2.5,3.3,1.8,6.5,3.8,9.2.4.6.4,1.4-.1,1.9l-3.5,3.6,3.1,3.2,3.5-3.5c.5-.5,1.3-.6,1.9-.2,2.7,2,5.9,3.3,9.1,3.8.7.1,1.2.7,1.2,1.4v5Z"/>
  <path class="st0" d="M87.5,18.4c0-1.9-2.9-1.9-2.9,0v2C75.9,9.9,61.9,3,48.5,3S21.8,9.3,13.3,20.3c-1.1,1.5,1.2,3.3,2.3,1.8C23.6,11.8,35.6,5.9,48.5,5.9s26.7,6.9,34.7,17.5h-4c-1.9,0-1.9,2.9,0,2.9h6.8c.8,0,1.5-.7,1.5-1.5v-6.4Z"/>
  <path class="st0" d="M93,47.6c0-5.5-1-10.9-2.9-16-.7-1.7-3.4-.7-2.7,1,1.8,4.8,2.8,9.8,2.8,15,0,16.2-11.1,31.8-26.9,38.5l1.1-1.7c1-1.6-1.4-3.1-2.4-1.6l-3.5,5.4c-.5.7-.2,1.8.6,2.1l5.8,2.6c1.7.8,2.9-1.9,1.2-2.6l-2.5-1.1c17.3-6.9,29.5-23.8,29.5-41.5h0Z"/>
  <path class="st0" d="M50.2,89.3c-.6,0-1.1,0-1.7,0-11.4,0-23.2-4.3-32.7-16-8.2-10-8.8-23.2-8.8-25.3,0-4.4,3.3-13.8,3.3-13.8l1.3,2.9c.8,1.7,3.4.5,2.7-1.2l-2.7-6.1c-.3-.7-1.3-1.1-2-.7l-5.7,2.9c-1.7.8-.4,3.4,1.3,2.6l2.3-1.2c-1.7,4.5-3.4,9.8-3.4,14.3,0,24.6,20,44.6,44.5,44.6s1.2,0,1.8,0c1.9,0,1.8-3-.1-2.9-.6,0,.8,0,0,0h0Z"/>
</svg>