<?xml version="1.0" encoding="UTF-8"?>
<svg id="Layer_1" data-name="Layer 1" xmlns="http://www.w3.org/2000/svg" viewBox="0 0 96 96">
  <path d="M70.71,95.45c2.19,0,4.21-1,5.53-2.75l.04-.05.04.05c1.32,1.75,3.34,2.75,5.53,2.75,3.82,0,6.93-3.11,6.93-6.93v-27.66h.79c3.25,0,5.89-2.64,5.89-5.89v-20.34c0-2.14-.85-4.17-2.4-5.72-1.55-1.55-3.58-2.4-5.72-2.4h-22.27c-2.14,0-4.17.85-5.72,2.4-1.55,1.55-2.4,3.58-2.4,5.72v20.93c0,2.95,2.49,5.44,5.44,5.44h1.39v27.51c0,3.82,3.11,6.93,6.93,6.93ZM62.4,58.14c-1.52,0-2.57-1.06-2.57-2.57v-20.93c0-2.99,2.25-5.25,5.25-5.25h22.27c2.99,0,5.25,2.25,5.25,5.25v20.34c0,1.66-1.35,3.02-3.02,3.02h-.79v-18.9c0-.86-.58-1.43-1.43-1.43s-1.43.58-1.43,1.43v49.43c0,2.24-1.82,4.06-4.06,4.06s-4.06-1.82-4.06-4.06v-29.84c0-.86-.58-1.43-1.43-1.43-.02,0-.05,0-.07,0-.03,0-.05,0-.07,0-.86,0-1.43.58-1.43,1.43v29.84c0,2.24-1.82,4.06-4.06,4.06s-4.06-1.82-4.06-4.06v-49.43c0-.86-.58-1.43-1.43-1.43s-1.43.58-1.43,1.43v19.05h-1.39Z" fill="#fff"/>
  <path d="M82.52,2.77c-1.84-1.34-4.03-2.04-6.29-2.04-.55,0-1.1.04-1.65.12-2.65.35-5.02,1.75-6.67,3.95-1.76,2.33-2.49,5.24-2.04,8.17.72,5.05,5.23,8.86,10.49,8.86.2,0,.44-.03.69-.07.3-.04.62-.08.94-.08,2.62-.34,4.98-1.76,6.65-3.98,1.75-2.33,2.5-5.29,2.06-8.13-.43-2.74-1.91-5.15-4.17-6.8ZM77.4,18.96c-.39.05-.77.08-1.15.08-3.89,0-7.28-2.73-7.82-6.5-.6-4.35,2.28-8.37,6.43-8.96,4.35-.6,8.37,2.28,8.96,6.43.59,4.26-2.36,8.36-6.42,8.96Z" fill="#fff"/>
  <path d="M45.48,59.18h-12.32c-2.21,0-3.81,1.6-3.81,3.81v3.32h-4.35c-3.38,0-6.04,2.65-6.04,6.04v17.07c0,3.38,2.65,6.04,6.04,6.04h28.65c3.38,0,6.04-2.65,6.04-6.04v-17.07c0-3.38-2.65-6.04-6.04-6.04h-4.35v-3.32c0-2.21-1.6-3.81-3.81-3.81ZM32.22,62.99c0-.47.47-.94.94-.94h12.32c.47,0,.94.47.94.94v3.32h-14.2v-3.32ZM56.81,89.41c0,1.66-1.51,3.17-3.17,3.17h-28.65c-1.66,0-3.17-1.51-3.17-3.17v-11.33h6.48v1.24c0,.86.58,1.43,1.43,1.43h4.9c.86,0,1.43-.58,1.43-1.43v-1.24h6.48v1.24c0,.86.58,1.43,1.43,1.43h4.9c.86,0,1.43-.58,1.43-1.43v-1.24h6.48v11.33ZM31.18,77.89v-2.47h2.03v2.47h-2.03ZM45.43,77.89v-2.47h2.03v2.47h-2.03ZM53.64,69.18c1.66,0,3.17,1.51,3.17,3.17v2.87h-6.48v-1.24c0-.86-.58-1.43-1.43-1.43h-4.9c-.86,0-1.43.58-1.43,1.43v1.24h-6.48v-1.24c0-.86-.58-1.43-1.43-1.43h-4.9c-.86,0-1.43.58-1.43,1.43v1.24h-6.48v-2.87c0-1.66,1.51-3.17,3.17-3.17h28.65Z" fill="#fff"/>
  <path d="M11.19.55H1.98c-.86,0-1.43.58-1.43,1.43v9.2c0,.86.58,1.43,1.43,1.43h9.2c.86,0,1.43-.58,1.43-1.43V1.98c0-.86-.58-1.43-1.43-1.43ZM9.75,9.75H3.42V3.42h6.33v6.33Z" fill="#fff"/>
  <path d="M11.19,16.73H1.98c-.86,0-1.43.58-1.43,1.43v9.2c0,.86.58,1.43,1.43,1.43h9.2c.86,0,1.43-.58,1.43-1.43v-9.2c0-.86-.58-1.43-1.43-1.43ZM9.75,25.93H3.42v-6.33h6.33v6.33Z" fill="#fff"/>
  <path d="M11.19,32.91H1.98c-.86,0-1.43.58-1.43,1.43v9.2c0,.86.58,1.43,1.43,1.43h9.2c.86,0,1.43-.58,1.43-1.43v-9.2c0-.86-.58-1.43-1.43-1.43ZM9.75,42.11H3.42v-6.33h6.33v6.33Z" fill="#fff"/>
  <path d="M11.19,49.09H1.98c-.86,0-1.43.58-1.43,1.43v9.2c0,.86.58,1.43,1.43,1.43h9.2c.86,0,1.43-.58,1.43-1.43v-9.2c0-.86-.58-1.43-1.43-1.43ZM9.75,58.29H3.42v-6.33h6.33v6.33Z" fill="#fff"/>
  <path d="M36.12,1.59h-19.15c-.86,0-1.43.58-1.43,1.43s.58,1.43,1.43,1.43h19.15c.86,0,1.43-.58,1.43-1.43s-.58-1.43-1.43-1.43Z" fill="#fff"/>
  <path d="M50.97,8.57H16.98c-.86,0-1.43.58-1.43,1.43s.58,1.43,1.43,1.43h33.99c.86,0,1.43-.58,1.43-1.43s-.58-1.43-1.43-1.43Z" fill="#fff"/>
  <path d="M36.12,17.77h-19.15c-.86,0-1.43.58-1.43,1.43s.58,1.43,1.43,1.43h19.15c.86,0,1.43-.58,1.43-1.43s-.58-1.43-1.43-1.43Z" fill="#fff"/>
  <path d="M50.97,24.75H16.98c-.86,0-1.43.58-1.43,1.43s.58,1.43,1.43,1.43h33.99c.86,0,1.43-.58,1.43-1.43s-.58-1.43-1.43-1.43Z" fill="#fff"/>
  <path d="M36.12,33.95h-19.15c-.86,0-1.43.58-1.43,1.43s.58,1.43,1.43,1.43h19.15c.86,0,1.43-.58,1.43-1.43s-.58-1.43-1.43-1.43Z" fill="#fff"/>
  <path d="M50.97,40.93H16.98c-.86,0-1.43.58-1.43,1.43s.58,1.43,1.43,1.43h33.99c.86,0,1.43-.58,1.43-1.43s-.58-1.43-1.43-1.43Z" fill="#fff"/>
  <path d="M36.12,50.13h-19.15c-.86,0-1.43.58-1.43,1.43s.58,1.43,1.43,1.43h19.15c.86,0,1.43-.58,1.43-1.43s-.58-1.43-1.43-1.43Z" fill="#fff"/>
  <path d="M24.7,57.1h-7.72c-.86,0-1.43.58-1.43,1.43s.58,1.43,1.43,1.43h7.72c.86,0,1.43-.58,1.43-1.43s-.58-1.43-1.43-1.43Z" fill="#fff"/>
</svg>