<?xml version="1.0" encoding="UTF-8"?>
<svg id="Layer_1" data-name="Layer 1" xmlns="http://www.w3.org/2000/svg" viewBox="0 0 96 96">
  <defs>
    <style>
      .cls-1 {
        fill: #fff;
      }
    </style>
  </defs>
  <path class="cls-1" d="M73.43,31.32c-.46-.55-11.51-13.38-25.43-13.38s-24.97,12.84-25.43,13.39c-.49.58-.49,1.42,0,2h0c.46.55,11.51,13.39,25.43,13.39s24.97-12.84,25.43-13.39c.49-.58.49-1.42,0-2ZM48,21.03c10.4,0,19.47,8.52,22.14,11.28-2.66,2.76-11.73,11.28-22.14,11.28s-19.47-8.52-22.14-11.28c2.67-2.76,11.74-11.28,22.14-11.28Z"/>
  <path class="cls-1" d="M48,41c4.79,0,8.68-3.9,8.68-8.68s-3.89-8.68-8.68-8.68-8.68,3.9-8.68,8.68,3.9,8.68,8.68,8.68ZM48,26.74c3.08,0,5.58,2.5,5.58,5.58s-2.5,5.58-5.58,5.58-5.58-2.5-5.58-5.58,2.5-5.58,5.58-5.58Z"/>
  <path class="cls-1" d="M13.77,23.89c.86,0,1.55-.7,1.55-1.55v-7.01h7.01c.85,0,1.55-.7,1.55-1.55s-.7-1.55-1.55-1.55h-8.56c-.85,0-1.55.7-1.55,1.55v8.56c0,.86.7,1.55,1.55,1.55Z"/>
  <path class="cls-1" d="M82.23,12.23h-8.56c-.86,0-1.55.7-1.55,1.55s.7,1.55,1.55,1.55h7.01v7.01c0,.86.7,1.55,1.55,1.55s1.55-.7,1.55-1.55v-8.56c0-.86-.7-1.55-1.55-1.55Z"/>
  <path class="cls-1" d="M22.33,49.31h-7.01v-7.01c0-.86-.7-1.55-1.55-1.55s-1.55.7-1.55,1.55v8.56c0,.86.7,1.55,1.55,1.55h8.56c.85,0,1.55-.7,1.55-1.55s-.7-1.55-1.55-1.55Z"/>
  <path class="cls-1" d="M82.23,40.75c-.86,0-1.55.7-1.55,1.55v7.01h-7.01c-.86,0-1.55.7-1.55,1.55s.7,1.55,1.55,1.55h8.56c.86,0,1.55-.7,1.55-1.55v-8.56c0-.86-.7-1.55-1.55-1.55Z"/>
  <path class="cls-1" d="M86.51,3.67H9.49c-3.21,0-5.83,2.62-5.83,5.83v57.05c0,3.21,2.62,5.83,5.83,5.83h26.97v9.73h-15.56c-2.43,0-4.4,1.98-4.4,4.4v4.28c0,.86.7,1.55,1.55,1.55h59.9c.86,0,1.55-.7,1.55-1.55v-4.28c0-2.43-1.98-4.4-4.4-4.4h-15.56v-9.73h26.97c3.21,0,5.83-2.62,5.83-5.83V9.5c0-3.21-2.62-5.83-5.83-5.83ZM39.57,82.11v-9.73h16.86v9.73h-16.86ZM20.9,85.21h54.2c.72,0,1.3.58,1.3,1.3v2.73H19.6v-2.73c0-.72.58-1.3,1.3-1.3ZM6.77,57.87V9.5c0-1.5,1.22-2.73,2.73-2.73h77.02c1.5,0,2.73,1.22,2.73,2.73v48.37H6.77ZM89.23,66.55c0,1.5-1.22,2.73-2.73,2.73H9.49c-1.5,0-2.73-1.22-2.73-2.73v-5.58h82.47v5.58Z"/>
</svg>