<?xml version="1.0" encoding="UTF-8"?>
<svg id="Layer_2" data-name="Layer 2" xmlns="http://www.w3.org/2000/svg" viewBox="0 0 96 96">
  <defs>
    <style>
      .cls-1 {
        fill: none;
        stroke: #fff;
        stroke-miterlimit: 10;
        stroke-width: 3px;
      }
    </style>
  </defs>
  <line class="cls-1" x1="32.25" y1="80.61" x2="32.25" y2="71.72"/>
  <path class="cls-1" d="M32.25,50.39V8.17c0-3.67,2.99-6.67,6.66-6.67h47.07c3.67,0,6.67,3,6.67,6.67v75.9c0,3.67-3,6.67-6.67,6.67h-5.67"/>
  <line class="cls-1" x1="32.25" y1="66.89" x2="32.25" y2="66.3"/>
  <rect class="cls-1" x="20.1" y="86.97" width="60.21" height="7.53"/>
  <path class="cls-1" d="M29.05,86.97v-.4c0-4.36,4.14-7.89,9.26-7.89h22.75c5.11,0,9.26,3.53,9.26,7.89v.4"/>
  <path class="cls-1" d="M3.49,66.04h26.14v6.42H3.49c-1.77,0-3.21-1.44-3.21-3.21H.28c0-1.77,1.44-3.21,3.21-3.21Z" transform="translate(-43.19 28.76) rotate(-42.96)"/>
  <rect class="cls-1" x="24.39" y="45.87" width="10.84" height="19.69" transform="translate(-29.98 35.26) rotate(-42.96)"/>
  <rect class="cls-1" x="12.2" y="43.86" width="18.58" height="5.2" rx="2.6" ry="2.6" transform="translate(-25.9 27.11) rotate(-42.96)"/>
  <rect class="cls-1" x="29" y="62.22" width="18.58" height="5.2" rx="2.6" ry="2.6" transform="translate(-33.91 43.48) rotate(-42.96)"/>
  <polyline class="cls-1" points="54.42 33.52 60 39.23 72.18 26.13"/>
  <path class="cls-1" d="M77.33,39.66c1.82-4.4,2.74-10.28,2.74-17.64l-18.46-10.07-18.47,10.07c0,15.3,4.31,23.22,9.37,28.26,3.97,3.95,8.02,5.02,9.09,5.26.76-.17,10.59-3.43,15.72-15.87Z"/>
  <line class="cls-1" x1="76.95" y1="65.11" x2="46.25" y2="65.11"/>
  <line class="cls-1" x1="76.95" y1="71.72" x2="46.25" y2="71.72"/>
</svg>