<?xml version="1.0" encoding="UTF-8"?>
<svg id="Layer_1" data-name="Layer 1" xmlns="http://www.w3.org/2000/svg" viewBox="0 0 96 96">
  <path d="M47.21,25.83c-12.22,0-22.17,9.94-22.17,22.17s9.94,22.17,22.17,22.17,22.17-9.94,22.17-22.17-9.94-22.17-22.17-22.17ZM47.21,67c-10.48,0-19-8.52-19-19s8.52-19,19-19,19,8.52,19,19-8.52,19-19,19ZM85.48,49.58c.65,1.84,2.41,3.17,4.48,3.17,2.62,0,4.75-2.13,4.75-4.75s-2.13-4.75-4.75-4.75c-2.06,0-3.82,1.32-4.48,3.17h-9.82c-.12-2.19-.49-4.31-1.08-6.33h2.7c.6,0,1.15-.34,1.42-.88l2.73-5.46h4.04c.65,1.84,2.41,3.17,4.48,3.17,2.62,0,4.75-2.13,4.75-4.75s-2.13-4.75-4.75-4.75c-2.06,0-3.82,1.32-4.48,3.17h-5.02c-.6,0-1.15.34-1.42.88l-2.73,5.46h-2.85c-1.36-3.21-3.3-6.12-5.67-8.61v-9.41l5.46-2.73c.54-.27.88-.82.88-1.42v-5.02c1.84-.65,3.17-2.41,3.17-4.48,0-2.62-2.13-4.75-4.75-4.75s-4.75,2.13-4.75,4.75c0,2.06,1.32,3.82,3.17,4.48v4.04l-5.46,2.73c-.54.27-.88.82-.88,1.42v7.54c-1.93-1.49-4.06-2.75-6.33-3.71v-12.02c1.84-.65,3.17-2.41,3.17-4.48,0-2.62-2.13-4.75-4.75-4.75s-4.75,2.13-4.75,4.75c0,2.06,1.32,3.82,3.17,4.48v10.89c-2.03-.59-4.15-.95-6.33-1.08V2.08c0-.87-.71-1.58-1.58-1.58h-9.5c-.87,0-1.58.71-1.58,1.58v9.56c-2.16.66-4.25,1.5-6.25,2.53l-6.88-6.88c-.62-.62-1.62-.62-2.24,0l-14.25,14.25c-.62.62-.62,1.62,0,2.24l6.88,6.88c-1.03,2-1.88,4.09-2.53,6.25H2.88c-.87,0-1.58.71-1.58,1.58v19c0,.87.71,1.58,1.58,1.58h7.98c.66,2.15,1.5,4.25,2.53,6.25l-6.88,6.88c-.62.62-.62,1.62,0,2.24l14.25,14.25c.62.62,1.62.62,2.24,0l6.88-6.88c2,1.03,4.09,1.88,6.25,2.53v9.56c0,.87.71,1.58,1.58,1.58h9.5c.87,0,1.58-.71,1.58-1.58v-17.46c2.19-.12,4.31-.49,6.33-1.08v10.89c-1.84.65-3.17,2.41-3.17,4.48,0,2.62,2.13,4.75,4.75,4.75s4.75-2.13,4.75-4.75c0-2.06-1.32-3.82-3.17-4.48v-12.02c2.28-.96,4.4-2.22,6.33-3.71v7.54c0,.6.34,1.15.88,1.42l5.46,2.73v4.04c-1.84.65-3.17,2.41-3.17,4.48,0,2.62,2.13,4.75,4.75,4.75s4.75-2.13,4.75-4.75c0-2.06-1.32-3.82-3.17-4.48v-5.02c0-.6-.34-1.15-.88-1.42l-5.46-2.73v-9.41c2.38-2.48,4.31-5.4,5.67-8.61h2.85l2.73,5.46c.27.54.82.88,1.42.88h5.02c.65,1.84,2.41,3.17,4.48,3.17,2.62,0,4.75-2.13,4.75-4.75s-2.13-4.75-4.75-4.75c-2.06,0-3.82,1.32-4.48,3.17h-4.04l-2.73-5.46c-.27-.54-.82-.88-1.42-.88h-2.7c.59-2.03.95-4.15,1.08-6.33h9.82ZM89.96,30.58c.87,0,1.58.71,1.58,1.58s-.71,1.58-1.58,1.58-1.58-.71-1.58-1.58.71-1.58,1.58-1.58ZM72.54,3.67c.87,0,1.58.71,1.58,1.58s-.71,1.58-1.58,1.58-1.58-.71-1.58-1.58.71-1.58,1.58-1.58ZM56.71,3.67c.87,0,1.58.71,1.58,1.58s-.71,1.58-1.58,1.58-1.58-.71-1.58-1.58.71-1.58,1.58-1.58ZM56.71,92.33c-.87,0-1.58-.71-1.58-1.58s.71-1.58,1.58-1.58,1.58.71,1.58,1.58-.71,1.58-1.58,1.58ZM72.54,92.33c-.87,0-1.58-.71-1.58-1.58s.71-1.58,1.58-1.58,1.58.71,1.58,1.58-.71,1.58-1.58,1.58ZM89.96,62.25c.87,0,1.58.71,1.58,1.58s-.71,1.58-1.58,1.58-1.58-.71-1.58-1.58.71-1.58,1.58-1.58ZM89.96,46.42c.87,0,1.58.71,1.58,1.58s-.71,1.58-1.58,1.58-1.58-.71-1.58-1.58.71-1.58,1.58-1.58ZM21.88,48c0-13.97,11.36-25.33,25.33-25.33s25.33,11.36,25.33,25.33-11.36,25.33-25.33,25.33-25.33-11.36-25.33-25.33ZM39.29,92.33v-9.17c0-.72-.48-1.34-1.17-1.53-2.71-.73-5.32-1.79-7.77-3.15-.62-.34-1.39-.23-1.89.27l-6.59,6.59-12.01-12.01,6.59-6.59c.5-.5.61-1.27.27-1.89-1.36-2.45-2.42-5.06-3.15-7.77-.19-.69-.81-1.17-1.53-1.17h-7.59v-15.83h7.59c.72,0,1.34-.48,1.53-1.17.73-2.71,1.79-5.32,3.15-7.77.34-.62.23-1.39-.27-1.89l-6.59-6.59,12.01-12.01,6.59,6.59c.5.5,1.27.61,1.89.27,2.45-1.36,5.06-2.41,7.77-3.15.69-.19,1.17-.81,1.17-1.53V3.67h6.33v15.88c-14.98.82-26.92,13.27-26.92,28.46s11.94,27.63,26.92,28.46v15.88h-6.33ZM55.13,40.08v15.83c0,.87-.71,1.58-1.58,1.58s-1.58-.71-1.58-1.58v-15.83c0-.87.71-1.58,1.58-1.58s1.58.71,1.58,1.58ZM43.97,39.63c-.2-.67-.82-1.13-1.52-1.13s-1.32.46-1.52,1.13l-4.75,15.83c-.25.84.22,1.72,1.06,1.97.84.25,1.72-.22,1.97-1.06l1.09-3.62h4.29l1.09,3.62c.21.69.83,1.13,1.52,1.13.15,0,.3-.02.46-.07.84-.25,1.31-1.13,1.06-1.97l-4.75-15.83ZM41.26,49.58l1.2-3.99,1.2,3.99h-2.39Z" fill="#fff"/>
</svg>