<?xml version="1.0" encoding="UTF-8"?>
<svg id="Layer_1" data-name="Layer 1" xmlns="http://www.w3.org/2000/svg" viewBox="0 0 96 96">
  <defs>
    <style>
      .cls-1 {
        fill: #fff;
      }
    </style>
  </defs>
  <path class="cls-1" d="M79.17,57.66c-.58,0-.99-.01-1.11-.02h-20.26s0-3,0-3h20.31c1.06.03,3.99.04,5.41-.36,6.03-1.68,10.08-7.63,9.42-13.83-.4-3.77-2.3-7.05-5.34-9.23-3-2.16-6.8-2.94-10.4-2.14l-1.94.43.12-1.98c.46-7.81-3.3-15.33-9.82-19.64-10.11-6.67-23.75-3.88-30.42,6.22l-.94,1.42-1.29-1.11c-3.29-2.83-7.88-3.7-11.97-2.27-6.34,2.22-9.7,9.18-7.48,15.52l.53,1.52-1.56.42c-4.37,1.17-7.8,4.61-8.97,8.97-1.34,4.99.45,10.24,4.56,13.37,1.79,1.36,4.09,2.11,6.48,2.11h12.98v3h-12.98c-3.05,0-6-.97-8.3-2.73-5.08-3.88-7.29-10.37-5.64-16.54,1.31-4.9,4.94-8.85,9.63-10.62-.82-3.4-.45-6.94,1.09-10.13,1.76-3.65,4.84-6.4,8.67-7.74,4.58-1.6,9.66-.89,13.62,1.82,3.66-4.85,8.89-8.16,14.9-9.39,6.53-1.33,13.19-.05,18.75,3.62,6.9,4.55,11.08,12.27,11.2,20.47,3.85-.38,7.76.64,10.94,2.93,3.69,2.65,6.09,6.79,6.58,11.35.81,7.64-4.17,14.96-11.59,17.04-1.49.42-3.78.49-5.15.49Z"/>
  <path class="cls-1" d="M25.88,40.85c-3.74,0-6.79-3.04-6.79-6.79s3.04-6.79,6.79-6.79,6.79,3.04,6.79,6.79-3.04,6.79-6.79,6.79ZM25.88,30.28c-2.09,0-3.79,1.7-3.79,3.79s1.7,3.79,3.79,3.79,3.79-1.7,3.79-3.79-1.7-3.79-3.79-3.79Z"/>
  <path class="cls-1" d="M66.1,41.53c-3.74,0-6.79-3.04-6.79-6.79s3.04-6.79,6.79-6.79,6.79,3.04,6.79,6.79-3.04,6.79-6.79,6.79ZM66.1,30.96c-2.09,0-3.79,1.7-3.79,3.79s1.7,3.79,3.79,3.79,3.79-1.7,3.79-3.79-1.7-3.79-3.79-3.79Z"/>
  <path class="cls-1" d="M54.14,53.14c-3.74,0-6.79-3.04-6.79-6.79s3.04-6.79,6.79-6.79,6.79,3.04,6.79,6.79-3.04,6.79-6.79,6.79ZM54.14,42.57c-2.09,0-3.79,1.7-3.79,3.79s1.7,3.79,3.79,3.79,3.79-1.7,3.79-3.79-1.7-3.79-3.79-3.79Z"/>
  <path class="cls-1" d="M8.01,73.23c-3.74,0-6.79-3.04-6.79-6.79s3.04-6.79,6.79-6.79,6.79,3.04,6.79,6.79-3.04,6.79-6.79,6.79ZM8.01,62.65c-2.09,0-3.79,1.7-3.79,3.79s1.7,3.79,3.79,3.79,3.79-1.7,3.79-3.79-1.7-3.79-3.79-3.79Z"/>
  <path class="cls-1" d="M56.06,94.75c-3.74,0-6.79-3.04-6.79-6.79s3.04-6.79,6.79-6.79,6.79,3.04,6.79,6.79-3.04,6.79-6.79,6.79ZM56.06,84.17c-2.09,0-3.79,1.7-3.79,3.79s1.7,3.79,3.79,3.79,3.79-1.7,3.79-3.79-1.7-3.79-3.79-3.79Z"/>
  <polygon class="cls-1" points="38.86 69.15 25.88 69.15 25.88 66.15 35.86 66.15 35.86 48.56 27.66 39.49 29.88 37.48 38.86 47.4 38.86 69.15"/>
  <polygon class="cls-1" points="46.19 80.65 6.51 80.65 6.51 72.28 9.51 72.28 9.51 77.65 43.19 77.65 43.19 33.24 60.82 33.24 60.82 36.24 46.19 36.24 46.19 80.65"/>
  <polygon class="cls-1" points="91.16 69.15 52.64 69.15 52.64 51.64 55.64 51.64 55.64 66.15 91.16 66.15 91.16 69.15"/>
  <polygon class="cls-1" points="89.77 89.46 75.33 89.46 68.93 77.49 53.69 77.49 53.69 74.49 70.72 74.49 77.13 86.46 89.77 86.46 89.77 89.46"/>
  <rect class="cls-1" x="61.35" y="86.46" width="6.62" height="3"/>
  <rect class="cls-1" x="8.98" y="86.46" width="41.8" height="3"/>
</svg>