<?xml version="1.0" encoding="UTF-8"?>
<svg id="Layer_1" data-name="Layer 1" xmlns="http://www.w3.org/2000/svg" viewBox="0 0 96 96">
  <defs>
    <style>
      .cls-1 {
        fill: #fff;
      }

      .cls-2 {
        fill: none;
        stroke: #fff;
        stroke-miterlimit: 10;
        stroke-width: 3px;
      }
    </style>
  </defs>
  <rect class="cls-2" x="1.53" y="1.5" width="93" height="93" rx="16.12" ry="16.12"/>
  <line class="cls-2" x1="1.53" y1="14.72" x2="94.53" y2="14.72"/>
  <line class="cls-2" x1="81.82" y1="8.28" x2="69.82" y2="8.28"/>
  <line class="cls-2" x1="32.7" y1="8.28" x2="29.93" y2="8.28"/>
  <line class="cls-2" x1="24.25" y1="8.28" x2="21.03" y2="8.28"/>
  <line class="cls-2" x1="16.42" y1="8.28" x2="13.26" y2="8.28"/>
  <rect class="cls-2" x="10.1" y="55.96" width="34.65" height="24.25"/>
  <rect class="cls-2" x="51.41" y="55.96" width="34.65" height="24.25"/>
  <g>
    <path class="cls-1" d="M37.14,36.73v3.38c-1.94,1.03-3.97,1.54-6.09,1.54-2.75,0-4.94-.76-6.57-2.28s-2.45-3.39-2.45-5.62.86-4.11,2.58-5.67,3.97-2.33,6.74-2.33c2.21,0,4.08.45,5.61,1.36v3.45c-1.88-1.06-3.66-1.59-5.33-1.59s-3,.44-4.04,1.33-1.57,2.01-1.57,3.38.52,2.51,1.55,3.4,2.35,1.34,3.97,1.34c.8,0,1.57-.11,2.31-.32s1.84-.67,3.31-1.39Z"/>
    <path class="cls-1" d="M40.21,25.96h6.92c1.5,0,2.72.43,3.66,1.3s1.41,1.92,1.41,3.15c0,1.71-.89,2.97-2.66,3.79.78.35,1.52,1.31,2.22,2.86.7,1.55,1.38,3.02,2.03,4.39h-4.24c-.25-.51-.69-1.48-1.32-2.92-.63-1.43-1.17-2.35-1.61-2.76s-.93-.61-1.44-.61h-1.11v6.29h-3.86v-15.49ZM44.07,28.8v3.53h2.04c.65,0,1.17-.15,1.55-.46s.57-.75.57-1.31c0-1.17-.74-1.75-2.21-1.75h-1.95Z"/>
    <path class="cls-1" d="M63.92,31.71l4.98-5.75h3.36v15.49h-3.86v-9.67l-4.19,4.86h-.58l-4.18-4.86v9.67h-3.86v-15.49h3.35l4.98,5.75Z"/>
  </g>
</svg>