<?xml version="1.0" encoding="UTF-8"?>
<svg id="Layer_1" data-name="Layer 1" xmlns="http://www.w3.org/2000/svg" viewBox="0 0 96 96">
  <defs>
    <style>
      .cls-1 {
        fill: none;
        stroke: #fff;
        stroke-linecap: round;
        stroke-linejoin: round;
        stroke-width: 3px;
      }
    </style>
  </defs>
  <polygon class="cls-1" points="75.7 71.33 46.83 81.05 17.95 71.33 46.83 61.61 75.7 71.33"/>
  <polyline class="cls-1" points="17.95 71.33 17.95 84.74 46.83 94.46 75.7 84.74 75.7 71.33"/>
  <line class="cls-1" x1="46.83" y1="81.05" x2="46.83" y2="94.69"/>
  <polygon class="cls-1" points="35.02 1.83 53.55 1.83 59.07 7.09 59.07 32.45 35.02 32.45 35.02 1.83"/>
  <line class="cls-1" x1="40.29" y1="9.32" x2="52.75" y2="9.32"/>
  <line class="cls-1" x1="40.62" y1="18.13" x2="53.07" y2="18.13"/>
  <line class="cls-1" x1="40.62" y1="26.42" x2="53.07" y2="26.42"/>
  <polygon class="cls-1" points="70.45 1.83 88.98 1.83 94.5 7.09 94.5 32.45 70.45 32.45 70.45 1.83"/>
  <line class="cls-1" x1="75.73" y1="9.32" x2="88.18" y2="9.32"/>
  <line class="cls-1" x1="76.05" y1="18.13" x2="88.5" y2="18.13"/>
  <line class="cls-1" x1="76.05" y1="26.42" x2="88.5" y2="26.42"/>
  <polygon class="cls-1" points="1.5 1.83 20.03 1.83 25.55 7.09 25.55 32.45 1.5 32.45 1.5 1.83"/>
  <line class="cls-1" x1="6.78" y1="9.32" x2="19.23" y2="9.32"/>
  <line class="cls-1" x1="7.1" y1="18.13" x2="19.55" y2="18.13"/>
  <line class="cls-1" x1="7.1" y1="26.42" x2="19.55" y2="26.42"/>
  <line class="cls-1" x1="46.52" y1="32.72" x2="46.52" y2="50.81"/>
  <line class="cls-1" x1="13.89" y1="32.72" x2="27.36" y2="57.34"/>
  <line class="cls-1" x1="82.76" y1="32.72" x2="69.29" y2="57.34"/>
  <polyline class="cls-1" points="29.57 50.31 28.74 59.61 20.23 56.54"/>
  <polyline class="cls-1" points="66.33 52.52 68.28 59.54 75.52 56.86"/>
  <polyline class="cls-1" points="41.49 45.7 46.57 52.16 51.41 45.39"/>
</svg>