<?xml version="1.0" encoding="UTF-8"?>
<svg id="Layer_1" data-name="Layer 1" xmlns="http://www.w3.org/2000/svg" viewBox="0 0 96 96">
  <defs>
    <style>
      .cls-1 {
        fill: #fff;
      }
    </style>
  </defs>
  <path class="cls-1" d="M55.12,88.55c-13.07,0-25.45-6.33-33.13-16.93l2.43-1.76c7.11,9.82,18.59,15.69,30.7,15.69,20.89,0,37.88-16.99,37.88-37.88S76.01,9.78,55.12,9.78c-16.25,0-30.67,10.33-35.88,25.71l-2.84-.96C22.02,17.93,37.58,6.78,55.12,6.78c22.54,0,40.88,18.34,40.88,40.88s-18.34,40.88-40.88,40.88Z"/>
  <polygon class="cls-1" points="67 58.76 54.06 48.38 54.06 21.34 57.06 21.34 57.06 46.94 68.88 56.42 67 58.76"/>
  <rect class="cls-1" x="10.52" y="27.96" width="9.57" height="3"/>
  <rect class="cls-1" x="1.5" y="45.22" width="31.7" height="3"/>
  <rect class="cls-1" x="24.94" y="61.78" width="16.16" height="3"/>
  <rect class="cls-1" x="9.43" y="61.78" width="5.88" height="3"/>
</svg>