<?xml version="1.0" encoding="UTF-8"?>
<svg id="Layer_1" data-name="Layer 1" xmlns="http://www.w3.org/2000/svg" viewBox="0 0 96 96">
  <defs>
    <style>
      .cls-1 {
        fill: #fff;
      }
    </style>
  </defs>
  <polygon class="cls-1" points="61.3 37.38 52.93 29.41 61.28 21.07 63.4 23.19 57.23 29.36 63.37 35.2 61.3 37.38"/>
  <polygon class="cls-1" points="80.49 37.35 78.36 35.23 84.53 29.06 78.39 23.22 80.46 21.04 88.83 29.01 80.49 37.35"/>
  <rect class="cls-1" x="62.66" y="27.94" width="16.32" height="3" transform="translate(16.67 83.76) rotate(-67.66)"/>
  <path class="cls-1" d="M87.68,74.64h-45.41v-3h45.41c2.93,0,5.32-2.05,5.32-4.57V14.27c0-2.52-2.39-4.57-5.32-4.57h-1.34v-3h1.34c4.59,0,8.32,3.4,8.32,7.57v52.8c0,4.18-3.73,7.57-8.32,7.57Z"/>
  <path class="cls-1" d="M3,41.07H0V14.27C0,10.09,3.73,6.7,8.32,6.7h1.34v3h-1.34c-2.93,0-5.32,2.05-5.32,4.57v26.8Z"/>
  <rect class="cls-1" x="9.32" y="6.7" width="77.02" height="3"/>
  <rect class="cls-1" x="47.83" y="63.8" width="46.67" height="3"/>
  <path class="cls-1" d="M53.97,82.49h-14.67v-10.85h14.67v10.85ZM42.31,79.49h8.67v-4.85h-8.67v4.85Z"/>
  <path class="cls-1" d="M77.12,89.3H16.01v-2.62c0-3.97,3.23-7.19,7.19-7.19h46.73c3.97,0,7.19,3.23,7.19,7.19v2.62ZM19.02,86.3h55.08c-.19-2.13-1.99-3.81-4.18-3.81H23.2c-2.18,0-3.98,1.68-4.18,3.81Z"/>
  <path class="cls-1" d="M53.73,74.64H8.32C3.73,74.64,0,71.24,0,67.07V14.27C0,10.09,3.73,6.7,8.32,6.7h1.34v3h-1.34c-2.93,0-5.32,2.05-5.32,4.57v52.8c0,2.52,2.39,4.57,5.32,4.57h45.41v3Z"/>
  <path class="cls-1" d="M96,41.07h-3V14.27c0-2.52-2.39-4.57-5.32-4.57h-1.34v-3h1.34c4.59,0,8.32,3.4,8.32,7.57v26.8Z"/>
  <rect class="cls-1" x="9.66" y="6.7" width="77.02" height="3"/>
  <rect class="cls-1" x="1.5" y="63.8" width="46.67" height="3"/>
  <rect class="cls-1" x="46.33" y="8.2" width="3" height="57.1"/>
  <path class="cls-1" d="M41.82,34.48h-14.72v-14.72h14.72v14.72ZM30.09,31.48h8.72v-8.72h-8.72v8.72Z"/>
  <path class="cls-1" d="M22.58,34.48H7.86v-14.72h14.72v14.72ZM10.86,31.48h8.72v-8.72h-8.72v8.72Z"/>
  <path class="cls-1" d="M41.82,55.93H7.82v-13.32h34v13.32ZM10.82,52.93h28v-7.32H10.82v7.32Z"/>
  <rect class="cls-1" x="53.8" y="41.36" width="34.6" height="3"/>
  <rect class="cls-1" x="53.8" y="48.78" width="34.6" height="3"/>
</svg>