<?xml version="1.0" encoding="UTF-8"?>
<svg id="Layer_1" data-name="Layer 1" xmlns="http://www.w3.org/2000/svg" viewBox="0 0 96 96">
  <defs>
    <style>
      .cls-1 {
        fill: #fff;
      }
    </style>
  </defs>
  <g>
    <path class="cls-1" d="M72.62,87.89h-1.43v-3h1.43c2.82,0,5.5-1.22,7.36-3.35,1.85-2.13,2.69-4.95,2.31-7.74l-1.3-9.51c-.75-5.48-4.44-10.08-9.62-12l-8.08-3.01c-4.01,2.12-9.53,3.33-15.28,3.33s-11.26-1.21-15.28-3.33l-8.09,3.01c-5.18,1.92-8.87,6.52-9.63,12l-1.3,9.51c-.39,2.79.46,5.61,2.31,7.74,1.85,2.13,4.54,3.35,7.36,3.35h.35v3h-.35c-3.69,0-7.2-1.59-9.62-4.38-2.42-2.78-3.52-6.47-3.02-10.12l1.3-9.51c.91-6.58,5.33-12.1,11.55-14.41l9.39-3.49.61.35c3.61,2.08,8.87,3.28,14.41,3.28s10.8-1.19,14.41-3.28l.61-.35,9.38,3.5c6.22,2.31,10.65,7.83,11.55,14.4l1.3,9.51c.5,3.65-.6,7.34-3.02,10.12-2.42,2.78-5.93,4.38-9.62,4.38Z"/>
    <path class="cls-1" d="M33.51,48.99l-1.33-2.69,3.75-1.85c.63-.31,1.04-.96,1.04-1.66v-2.79h3v2.79c0,1.83-1.07,3.54-2.71,4.35l-3.75,1.85Z"/>
    <path class="cls-1" d="M62.37,48.99l-3.75-1.85c-1.67-.82-2.7-2.49-2.7-4.35v-3.21h3v3.21c0,.71.39,1.34,1.03,1.65l3.75,1.85-1.33,2.69Z"/>
    <path class="cls-1" d="M72.69,88.5h-3v-27.16c0-.23-.19-.42-.42-.42H25.61c-.21.02-.38.2-.38.42v27.16h-3v-27.16c0-1.78,1.36-3.26,3.12-3.4.13-.02.24-.02.29-.02h43.63c1.88,0,3.42,1.53,3.42,3.42v27.16Z"/>
    <path class="cls-1" d="M74.54,96H20.68c-3.86,0-7-3.14-7-7v-2h67.85v2c0,3.86-3.14,7-7,7ZM16.81,90c.44,1.72,2.01,3,3.87,3h53.85c1.86,0,3.43-1.28,3.87-3H16.81Z"/>
    <polygon class="cls-1" points="38.52 83.6 31.31 76.74 38.49 69.56 40.61 71.68 35.61 76.69 40.58 81.42 38.52 83.6"/>
    <polygon class="cls-1" points="54.96 83.57 52.84 81.45 57.84 76.45 52.86 71.71 54.93 69.54 62.14 76.39 54.96 83.57"/>
    <rect class="cls-1" x="39.82" y="75.26" width="13.7" height="3" transform="translate(-42.07 90.75) rotate(-67.66)"/>
    <path class="cls-1" d="M47.96,44.41h-.72c-3.45,0-6.77-1.03-9.61-2.98-4.62-3.18-7.37-8.41-7.37-14.01V6.57l2.76,11.05c7.07,2.4,15.19-.01,19.14-5.79l1.7-2.48.96,2.85c.94,2.8,3.87,4.69,7.12,4.74v-.09h1.5l.1,1.5h1.39v9.07c0,5.29-2.41,10.19-6.6,13.44-3,2.32-6.58,3.54-10.37,3.54ZM33.25,20.82v6.6c0,4.61,2.27,8.92,6.07,11.54,2.34,1.6,5.07,2.45,7.91,2.45h.72c3.12,0,6.07-1.01,8.54-2.91,3.45-2.68,5.44-6.71,5.44-11.07v-7.48c-3.59-.05-6.93-1.78-8.82-4.51-4.78,5.18-12.67,7.33-19.86,5.4Z"/>
  </g>
  <polygon class="cls-1" points="48.59 73.6 48.58 73.6 48.58 70.6 48.59 73.6"/>
  <polygon class="cls-1" points="54.39 72.59 54.38 72.59 54.38 69.59 54.39 72.59"/>
  <path class="cls-1" d="M27.7,50.12h-3v-26.88C24.7,10.43,35.13,0,47.95,0s23.24,10.43,23.24,23.24v26.84h-3v-26.84c0-11.16-9.08-20.24-20.24-20.24s-20.25,9.08-20.25,20.24v26.88Z"/>
</svg>