<?xml version="1.0" encoding="UTF-8"?>
<svg id="Layer_1" data-name="Layer 1" xmlns="http://www.w3.org/2000/svg" viewBox="0 0 96 96">
  <defs>
    <style>
      .cls-1 {
        fill: #fff;
      }
    </style>
  </defs>
  <g>
    <path class="cls-1" d="M56.41,67.1h-16.68c-2.07,0-3.76-1.69-3.76-3.76v-15.39c0-.96-.46-1.86-1.24-2.42-6.09-4.36-9.67-11.43-9.56-18.92.18-12.65,10.2-22.51,22.83-22.51h.13c6.32.03,12.4,2.73,16.68,7.39,3.89,4.22,6.03,9.7,6.03,15.45,0,6.09-2.37,11.82-6.67,16.13-.86.86-1.8,1.66-2.78,2.38-.76.55-1.21,1.44-1.21,2.39v15.49c0,2.07-1.69,3.76-3.76,3.76ZM48,7.12c-10.97,0-19.67,8.57-19.83,19.55-.09,6.5,3.01,12.65,8.31,16.43,1.56,1.12,2.5,2.93,2.5,4.86v15.39c0,.42.34.76.76.76h16.68c.42,0,.76-.34.76-.76v-15.49c0-1.91.92-3.71,2.45-4.82.86-.62,1.67-1.31,2.42-2.06,3.74-3.75,5.8-8.73,5.8-14.01,0-4.99-1.86-9.76-5.24-13.42-3.72-4.05-9-6.39-14.49-6.42h-.11Z"/>
    <path class="cls-1" d="M51.62,73.49h-6.82c-3.45,0-6.26-2.81-6.26-6.26v-3.13h19.35v3.13c0,3.45-2.81,6.26-6.26,6.26ZM41.53,67.11v.13c0,1.8,1.46,3.26,3.26,3.26h6.82c1.8,0,3.26-1.46,3.26-3.26v-.13h-13.35Z"/>
    <rect class="cls-1" x="34.31" y="58.41" width="26.78" height="3"/>
    <rect class="cls-1" x="37.47" y="53.21" width="21.2" height="3"/>
    <rect class="cls-1" x="46.2" y="47.56" width="3" height="7.15"/>
    <path class="cls-1" d="M51.81,43.17h-7.63l-.47-6.35c-.74-.32-1.45-.73-2.1-1.22l-5.74,2.77-3.82-6.61,5.27-3.58c-.05-.41-.07-.82-.07-1.22s.02-.81.07-1.22l-5.27-3.58,3.82-6.61,5.74,2.77c.66-.49,1.36-.9,2.1-1.22l.47-6.35h7.63l.47,6.35c.74.32,1.45.73,2.1,1.22l5.74-2.77,3.82,6.61-5.27,3.58c.05.41.07.81.07,1.22s-.02.81-.07,1.22l5.27,3.58-3.82,6.61-5.74-2.77c-.66.49-1.36.9-2.1,1.22l-.47,6.35ZM46.97,40.17h2.06l.41-5.53.96-.31c1.02-.33,1.96-.88,2.78-1.61l.75-.67,5,2.41,1.03-1.78-4.58-3.12.21-.98c.11-.54.17-1.08.17-1.61s-.06-1.08-.17-1.61l-.21-.98,4.58-3.12-1.03-1.78-5,2.42-.75-.67c-.82-.74-1.75-1.28-2.78-1.61l-.96-.31-.41-5.53h-2.06l-.41,5.53-.96.31c-1.02.33-1.96.88-2.78,1.61l-.75.67-5-2.42-1.03,1.78,4.58,3.12-.21.98c-.11.54-.17,1.08-.17,1.61s.06,1.08.17,1.61l.21.98-4.58,3.12,1.03,1.78,5-2.41.75.67c.82.74,1.76,1.28,2.78,1.61l.96.31.41,5.53Z"/>
    <path class="cls-1" d="M48,32.83c-3.24,0-5.88-2.64-5.88-5.88s2.64-5.88,5.88-5.88,5.88,2.64,5.88,5.88-2.64,5.88-5.88,5.88ZM48,24.08c-1.59,0-2.88,1.29-2.88,2.88s1.29,2.88,2.88,2.88,2.88-1.29,2.88-2.88-1.29-2.88-2.88-2.88Z"/>
  </g>
  <path class="cls-1" d="M85.78,91.88H10.23C4.59,91.88,0,87.16,0,81.37v-1.5h40.48v3H3.14c.67,3.43,3.59,6.01,7.09,6.01h75.54c1.92,0,3.73-.77,5.09-2.18,1.03-1.06,1.71-2.39,1.99-3.83h-37.34v-3h40.48v1.5c0,2.8-1.06,5.43-2.98,7.42-1.92,2-4.5,3.1-7.24,3.1Z"/>
  <polygon class="cls-1" points="57.02 85.09 38.98 85.09 38.98 81.37 41.98 81.37 41.98 82.09 54.02 82.09 54.02 81.37 57.02 81.37 57.02 85.09"/>
  <path class="cls-1" d="M88.47,82.87h-32.96v-3h29.96V31.98c0-1.54-1.19-2.79-2.65-2.79h-13.51v-3h13.51c3.12,0,5.65,2.6,5.65,5.79v50.89Z"/>
  <path class="cls-1" d="M40.48,82.87H7.52V31.98c0-3.19,2.54-5.79,5.66-5.79h13.49v3h-13.49c-1.47,0-2.66,1.25-2.66,2.79v47.89h29.96v3Z"/>
  <path class="cls-1" d="M40.48,82.87H13.61v-47.23c0-1.85,1.48-3.36,3.29-3.36h10.87v3h-10.87c-.15,0-.29.17-.29.36v44.23h23.87v3Z"/>
  <path class="cls-1" d="M82.39,82.87h-26.88v-3h23.88v-44.23c0-.2-.14-.36-.3-.36h-10.88v-3h10.88c1.82,0,3.3,1.51,3.3,3.36v47.23Z"/>
</svg>