<?xml version="1.0" encoding="UTF-8"?>
<svg id="Layer_1" data-name="Layer 1" xmlns="http://www.w3.org/2000/svg" viewBox="0 0 96 96">
  <defs>
    <style>
      .cls-1 {
        fill: #fff;
      }
    </style>
  </defs>
  <rect class="cls-1" x="60.97" y="37.26" width="20.45" height="3"/>
  <rect class="cls-1" x="60.81" y="48.96" width="20.61" height="3"/>
  <rect class="cls-1" x="47.94" y="60.23" width="20.06" height="3"/>
  <rect class="cls-1" x="77.32" y="60.23" width="4.1" height="3"/>
  <path class="cls-1" d="M84.66,85.63c-.4,0-.8-.16-1.09-.47l-11.99-12.68h-19.97c-.05,0-.11,0-.16,0h-7.43c-5.78,0-10.49-4.83-10.49-10.78v-4.53h3v4.53c0,4.29,3.36,7.78,7.49,7.78h7.59c.05,0,.11,0,.16,0h20.45c.41,0,.81.17,1.09.47l9.84,10.41v-9.39c0-.83.67-1.5,1.5-1.5h.85c4.13,0,7.49-3.49,7.49-7.78v-26.72c0-4.3-3.37-7.79-7.5-7.79h-24.53v-3h24.53c5.79,0,10.5,4.84,10.5,10.79v26.72c0,5.72-4.36,10.41-9.84,10.76v11.68c0,.61-.38,1.17-.95,1.39-.18.07-.37.11-.55.11Z"/>
  <path class="cls-1" d="M11.34,71.82c-.19,0-.38-.03-.55-.11-.57-.23-.95-.78-.95-1.39v-11.68C4.36,58.29,0,53.6,0,47.88v-26.72C0,15.21,4.71,10.37,10.5,10.37h41.47c5.78,0,10.49,4.84,10.49,10.79v26.73c0,5.94-4.7,10.78-10.49,10.78h-7.43c-.05,0-.11,0-.16,0h-19.97l-11.99,12.68c-.29.31-.69.47-1.09.47ZM10.5,13.37c-4.14,0-7.5,3.5-7.5,7.79v26.72c0,4.29,3.36,7.78,7.49,7.78h.85c.83,0,1.5.67,1.5,1.5v9.39l9.84-10.41c.28-.3.68-.47,1.09-.47h20.46c.05,0,.11,0,.16,0h7.59c4.13,0,7.49-3.49,7.49-7.78v-26.73c0-4.29-3.36-7.79-7.49-7.79H10.5Z"/>
</svg>