<?xml version="1.0" encoding="UTF-8"?>
<svg id="Capa_1" data-name="Capa 1" xmlns="http://www.w3.org/2000/svg" viewBox="0 0 96 96">
  <defs>
    <style>
      .cls-1 {
        fill: #fff;
      }
    </style>
  </defs>
  <path class="cls-1" d="M61.81,4.97c.85.48,1.09,1.23,1.09,2.17-.02,8.46-.01,16.93-.01,25.39,0,.17,0,.34,0,.5-.07,1.01-.67,1.66-1.54,1.66-.89,0-1.55-.69-1.56-1.73-.02-3.36,0-6.73,0-10.09,0-4.65,0-9.31.01-13.96,0-.59-.11-.83-.77-.83-13.23.02-26.46.01-39.69.02-.16,0-.33.02-.58.04.35.34.75.37,1.1.48,7.46,2.38,14.93,4.75,22.4,7.12,1.66.53,1.88.83,1.88,2.59,0,19.2,0,38.4-.02,57.6,0,.84.19,1.07,1.05,1.06,4.57-.05,9.14-.04,13.71,0,.73,0,.94-.16.93-.92-.03-7.82-.02-15.64-.02-23.46,0-1.49.53-2.24,1.57-2.22,1.03.01,1.54.75,1.54,2.25,0,8.41,0,16.82,0,25.23,0,1.8-.48,2.26-2.31,2.26-5.19,0-10.37.02-15.56-.02-.77,0-.92.22-.91.94.04,2.63.02,5.27.02,7.9,0,1.81-.86,2.43-2.59,1.88-11.06-3.52-22.13-7.04-33.19-10.55-1.55-.49-1.83-.87-1.83-2.47,0-23.52,0-47.03,0-70.55,0-.99.18-1.82,1.15-2.29h54.15ZM40.96,53.02c0-11.18,0-22.37.02-33.55,0-.64-.18-.9-.81-1.09-9.9-3.12-19.79-6.27-29.67-9.44-.75-.24-.85-.1-.85.63.02,22.34.02,44.68,0,67.02,0,.64.17.9.8,1.09,9.87,3.11,19.73,6.26,29.6,9.4q.91.29.92-.67c0-11.13,0-22.25,0-33.38Z"/>
  <path class="cls-1" d="M83.89,44.12c-.33,0-.66,0-.99,0-10.56,0-21.13,0-31.69,0-.42,0-.84.02-1.25-.11-.7-.21-1.08-.69-1.11-1.4-.03-.76.34-1.27,1.06-1.53.38-.14.77-.11,1.16-.11,10.62,0,21.24,0,31.86,0,.33,0,.65,0,1.15,0-.31-.34-.5-.56-.7-.77-4.89-4.9-9.79-9.79-14.68-14.68-.14-.14-.28-.27-.42-.42-.81-.85-.89-1.78-.2-2.45.68-.66,1.61-.58,2.45.26,6.09,6.08,12.17,12.16,18.25,18.25.96.97.96,1.79,0,2.76-6.08,6.09-12.16,12.17-18.25,18.25-.83.83-1.78.92-2.45.26-.7-.68-.61-1.63.27-2.51,4.97-4.98,9.94-9.95,14.92-14.92.23-.23.53-.41.79-.61-.06-.09-.11-.18-.17-.27Z"/>
</svg>