<?xml version="1.0" encoding="UTF-8"?>
<svg id="Capa_1" data-name="Capa 1" xmlns="http://www.w3.org/2000/svg" viewBox="0 0 96 96">
  <defs>
    <style>
      .cls-1 {
        fill: #fff;
      }
    </style>
  </defs>
  <path class="cls-1" d="M93.8,38.62c-.11-.06-.22-.1-.33-.15l-8.71-3.83c-11.91-5.25-23.83-10.5-35.73-15.75-.35-.15-.68-.23-.99-.23s-.66.08-1.03.24c-8.01,3.55-16.02,7.08-24.04,10.61,0,0-16.85,7.42-20.67,9.1-.62.27-.86.56-.86,1.03s.25.8.88,1.05l.14.06c1.34.58,2.66,1.18,4,1.77,3.67,1.63,7.48,3.31,11.24,4.91,1.15.49,1.56,1.14,1.53,2.39-.06,1.98-.05,3.99-.04,5.94,0,.68,0,1.36.01,2.04v.35c0,.88,0,1.75,0,2.62,0,1.93-.01,3.94.02,5.9.06,3.41,1.95,5.95,5.2,6.96,7.89,2.48,15.86,3.73,23.69,3.73s15.26-1.17,22.8-3.49c4.15-1.27,5.93-3.67,5.93-7.99v-3.03c0-4.51.01-9.03-.01-13.55,0-.86.32-1.35,1.11-1.68,1.48-.62,2.98-1.29,4.43-1.93.58-.26,1.18-.52,1.77-.79.46-.2.72-.31.94-.31.58,0,.58.55.58,1.25v2.2c0,1.66-.01,3.31.01,4.97,0,.68-.15,1.18-.97,1.55-1.8.81-2.74,2.24-2.79,4.27-.03,1.14-.02,2.29,0,3.28.01.93.32,1.24,1.25,1.24,1.15,0,2.29.01,3.44.01s2.3,0,3.44-.01c.91,0,1.22-.33,1.24-1.27v-.09c.01-1.04.03-2.13,0-3.19-.07-2-.99-3.42-2.73-4.23-.76-.35-.9-.83-.9-1.49v-.34c.03-2.68.05-5.45-.01-8.18-.02-1.03.46-1.44,1.18-1.74,1.41-.58,2.83-1.22,4.21-1.84l.83-.37c.53-.24.76-.54.76-1s-.23-.74-.78-1ZM74.5,66c0,3.07-1.19,4.69-4.16,5.61-9.88,3.04-19.94,4.05-30.23,2.98-5.13-.54-10.11-1.65-15.02-3.18-2.25-.7-3.56-2.49-3.59-4.95-.03-2.64,0-5.29,0-7.94v-7.94c0-1.06,0-1.06.99-.63,8.12,3.57,16.23,7.14,24.33,10.74.85.38,1.56.36,2.39,0,8.07-3.58,16.16-7.14,24.25-10.7q1.05-.46,1.05.72v15.31ZM88.87,58.42s0,.06.01.1c.35,2.45.28,2.52-2.36,2.52h-.29q-2.11,0-2.01-2.22c.07-1.5,1.15-2.46,2.61-2.32,1,.1,1.84.89,2.03,1.92ZM85.14,41.9c-12.13,5.34-24.26,10.68-36.38,16.02-.51.23-.93.26-1.45.03-13.48-5.95-26.97-11.89-40.46-17.83-.29-.13-.58-.27-1.08-.51,2.74-1.21,5.26-2.33,7.8-3.45,11.16-4.91,22.31-9.81,33.46-14.75.72-.31,1.28-.3,1.99.01,13.36,5.9,26.73,11.79,40.1,17.68.31.14.67.19.97.59-1.68.74-3.3,1.47-4.95,2.2Z"/>
  <path class="cls-1" d="M93.8,38.62c-.11-.06-.22-.1-.33-.15l-8.71-3.83c-11.91-5.25-23.83-10.5-35.73-15.75-.35-.15-.68-.23-.99-.23s-.66.08-1.03.24c-8.01,3.55-16.02,7.08-24.04,10.61,0,0-16.85,7.42-20.67,9.1-.62.27-.86.56-.86,1.03s.25.8.88,1.05l.14.06c1.34.58,2.66,1.18,4,1.77,3.67,1.63,7.48,3.31,11.24,4.91,1.15.49,1.56,1.14,1.53,2.39-.06,1.98-.05,3.99-.04,5.94,0,.68,0,1.36.01,2.04v.35c0,.88,0,1.75,0,2.62,0,1.93-.01,3.94.02,5.9.06,3.41,1.95,5.95,5.2,6.96,7.89,2.48,15.86,3.73,23.69,3.73s15.26-1.17,22.8-3.49c4.15-1.27,5.93-3.67,5.93-7.99v-3.03c0-4.51.01-9.03-.01-13.55,0-.86.32-1.35,1.11-1.68,1.48-.62,2.98-1.29,4.43-1.93.58-.26,1.18-.52,1.77-.79.46-.2.72-.31.94-.31.58,0,.58.55.58,1.25v2.2c0,1.66-.01,3.31.01,4.97,0,.68-.15,1.18-.97,1.55-1.8.81-2.74,2.24-2.79,4.27-.03,1.14-.02,2.29,0,3.28.01.93.32,1.24,1.25,1.24,1.15,0,2.29.01,3.44.01s2.3,0,3.44-.01c.91,0,1.22-.33,1.24-1.27v-.09c.01-1.04.03-2.13,0-3.19-.07-2-.99-3.42-2.73-4.23-.76-.35-.9-.83-.9-1.49v-.34c.03-2.68.05-5.45-.01-8.18-.02-1.03.46-1.44,1.18-1.74,1.41-.58,2.83-1.22,4.21-1.84l.83-.37c.53-.24.76-.54.76-1s-.23-.74-.78-1ZM74.5,66c0,3.07-1.19,4.69-4.16,5.61-9.88,3.04-19.94,4.05-30.23,2.98-5.13-.54-10.11-1.65-15.02-3.18-2.25-.7-3.56-2.49-3.59-4.95-.03-2.64,0-5.29,0-7.94v-7.94c0-1.06,0-1.06.99-.63,8.12,3.57,16.23,7.14,24.33,10.74.85.38,1.56.36,2.39,0,8.07-3.58,16.16-7.14,24.25-10.7q1.05-.46,1.05.72v15.31ZM88.87,58.42s0,.06.01.1c.35,2.45.28,2.52-2.36,2.52h-.29q-2.11,0-2.01-2.22c.07-1.5,1.15-2.46,2.61-2.32,1,.1,1.84.89,2.03,1.92ZM85.14,41.9c-12.13,5.34-24.26,10.68-36.38,16.02-.51.23-.93.26-1.45.03-13.48-5.95-26.97-11.89-40.46-17.83-.29-.13-.58-.27-1.08-.51,2.74-1.21,5.26-2.33,7.8-3.45,11.16-4.91,22.31-9.81,33.46-14.75.72-.31,1.28-.3,1.99.01,13.36,5.9,26.73,11.79,40.1,17.68.31.14.67.19.97.59-1.68.74-3.3,1.47-4.95,2.2Z"/>
</svg>