<?xml version="1.0" encoding="UTF-8"?>
<svg id="Capa_1" data-name="Capa 1" xmlns="http://www.w3.org/2000/svg" viewBox="0 0 96 96">
  <defs>
    <style>
      .cls-1 {
        fill: #fff;
      }
    </style>
  </defs>
  <path class="cls-1" d="M82.7,67.62v-6.04c0-4.16-3.38-7.54-7.54-7.54h-12.7c1.4-2.58,2.52-5.29,3.36-8.1l5.73-4.59c2.41-1.92,2.8-5.43.88-7.83-1.02-1.28-2.55-2.04-4.18-2.09l3.36-9.24c2.95-8.1-1.23-17.06-9.34-20.01-1.71-.62-3.52-.94-5.33-.94h-12.81c-9.58,0-18.98,2.69-27.1,7.77-.71.44-.93,1.37-.49,2.08.19.3.47.53.81.64l3.64,1.21c2.03.68,3.13,2.87,2.45,4.9-.02.07-.05.14-.08.21-.73,1.83-.65,3.88.23,5.64l3.89,7.77c-3.06.24-5.35,2.93-5.11,5.99.12,1.53.87,2.95,2.08,3.91l5.73,4.59c.84,2.81,1.96,5.52,3.36,8.1h-12.7c-4.16,0-7.54,3.38-7.54,7.54v6.04c-7.3,3.05-12.06,10.18-12.07,18.1v7.54c0,.83.68,1.51,1.51,1.51h90.52c.83,0,1.51-.68,1.51-1.51v-7.54c-.01-7.91-4.77-15.05-12.07-18.1h0ZM60.07,31.4h-9.05c-.83,0-1.51.68-1.51,1.51v1.51h-3.02v-1.51c0-.83-.68-1.51-1.51-1.51h-13.58v-2.21l9.42-6.28c2.03-1.35,4.41-2.08,6.85-2.07,3.49,0,6.87-1.19,9.59-3.37l2.47-1.97,2.59,3.88c1.49,2.23,2.28,4.85,2.28,7.53v4.48h-4.53ZM58.56,34.42v4.53c0,.83-.68,1.51-1.51,1.51h-3.02c-.83,0-1.51-.68-1.51-1.51v-4.53h6.04ZM43.47,34.42v4.53c0,.83-.68,1.51-1.51,1.51h-3.02c-.83,0-1.51-.68-1.51-1.51v-4.53h6.04ZM70.63,36.99c0,.78-.35,1.52-.96,2l-2.74,2.19c.4-2.23.62-4.49.66-6.76h.48c1.42,0,2.56,1.15,2.56,2.56h0ZM26.16,19.16c1.41-3.53-.31-7.54-3.84-8.96-.12-.05-.25-.1-.38-.14l-.46-.15c6.97-3.72,14.75-5.67,22.65-5.67h12.81c6.96,0,12.6,5.64,12.6,12.6,0,1.47-.26,2.92-.76,4.3l-1.31,3.61c-.33-2.52-1.23-4.93-2.64-7.04l-3.5-5.25c-.23-.35-.61-.59-1.02-.65-.42-.06-.84.05-1.17.31l-3.75,3.01c-2.19,1.75-4.91,2.7-7.71,2.7-3.03,0-6,.9-8.52,2.58l-10.09,6.73c-.09.06-.18.14-.26.22l-2.51-5.02c-.49-.99-.54-2.14-.13-3.17h-.01ZM26.33,38.99c-1.11-.88-1.29-2.5-.41-3.6.49-.61,1.23-.97,2.01-.97h.47c.04,2.27.26,4.53.66,6.76l-2.73-2.19ZM31.43,34.42h2.99v4.53c0,2.5,2.03,4.53,4.53,4.53h3.02c2.5,0,4.53-2.03,4.53-4.53v-1.51h3.02v1.51c0,2.5,2.03,4.53,4.53,4.53h3.02c2.5,0,4.53-2.03,4.53-4.53v-4.53h2.99c-.12,6.92-2.05,13.68-5.6,19.61h-21.95c-3.55-5.93-5.48-12.7-5.6-19.61h0ZM20.84,57.05h54.31c2.5,0,4.53,2.03,4.53,4.53v30.17H16.32v-30.17c0-2.5,2.03-4.53,4.53-4.53h-.01ZM4.25,85.72c0-6.23,3.5-11.94,9.05-14.77v20.81H4.25v-6.03h0ZM91.75,91.75h-9.05v-20.81c5.55,2.84,9.04,8.54,9.05,14.77v6.03h0Z"/>
  <path class="cls-1" d="M48,87.23c3.33,0,6.03-2.7,6.03-6.03s-2.7-6.03-6.03-6.03-6.03,2.7-6.03,6.03,2.7,6.03,6.03,6.03ZM48,78.17c1.67,0,3.02,1.35,3.02,3.02s-1.35,3.02-3.02,3.02-3.02-1.35-3.02-3.02,1.35-3.02,3.02-3.02Z"/>
  <path class="cls-1" d="M37.88,73.21l2.13-2.13-4.97-4.97,4.97-4.97-2.13-2.13-6.03,6.03c-.59.59-.59,1.54,0,2.13l6.03,6.03h0Z"/>
  <path class="cls-1" d="M58.12,73.21l6.03-6.03c.59-.59.59-1.54,0-2.13l-6.03-6.03-2.13,2.13,4.97,4.97-4.97,4.97,2.13,2.13h0Z"/>
  <rect class="cls-1" x="40.47" y="64.6" width="15.09" height="3.02" transform="translate(-33.68 64.84) rotate(-53.12)"/>
</svg>