<?xml version="1.0" encoding="UTF-8"?>
<svg id="Capa_1" data-name="Capa 1" xmlns="http://www.w3.org/2000/svg" viewBox="0 0 96 96">
  <defs>
    <style>
      .cls-1 {
        fill: #fff;
      }
    </style>
  </defs>
  <path class="cls-1" d="M90.31,93.06H5.69c-.68,0-1.35-.14-1.99-.41-1.88-.8-3.1-2.64-3.1-4.69v-45.53c0-2.81,2.28-5.1,5.09-5.1h.29v2.5h-.29c-1.43,0-2.59,1.17-2.59,2.6v45.53c0,1.04.62,1.98,1.57,2.38.34.14.67.21,1.02.21h84.62c.41,0,.79-.09,1.15-.27.88-.44,1.44-1.35,1.44-2.32v-45.53c0-1.43-1.16-2.6-2.59-2.6h-.29v-2.5h.29c2.81,0,5.09,2.29,5.09,5.1v45.53c0,1.94-1.08,3.69-2.81,4.55-.7.36-1.47.54-2.28.54ZM32.38,68.26l-1.65-1.87,3.43-3.03-23.49-19.31,1.59-1.93,25.76,21.17-5.63,4.97Z"/>
  <path class="cls-1" d="M48,72.87c-1.42,0-2.84-.48-4-1.43L5.19,39.55l1.59-1.93,38.81,31.89c1.4,1.15,3.43,1.15,4.84,0l38.8-31.89,1.59,1.93-38.81,31.89c-1.16.95-2.58,1.43-4.01,1.43Z"/>
  <rect class="cls-1" x="87.13" y="29.16" width="2.5" height="13.2" transform="translate(4.65 81.36) rotate(-50.6)"/>
  <path class="cls-1" d="M70.93,23.03L50.68,6.4c-1.55-1.28-3.81-1.28-5.37,0l-20.24,16.64-1.59-1.93L43.73,4.46c2.48-2.03,6.07-2.03,8.54,0l20.24,16.64-1.59,1.93Z"/>
  <rect class="cls-1" x="1.2" y="35.03" width="11.57" height="2.5" transform="translate(-21.45 12.69) rotate(-39.42)"/>
  <polygon class="cls-1" points="91.25 92.38 59.14 64.22 60.79 62.34 92.85 90.46 92.08 91.45 91.25 92.38"/>
  <rect class="cls-1" x="-1.15" y="76.16" width="42.56" height="2.5" transform="translate(-46.2 32.72) rotate(-41.45)"/>
  <path class="cls-1" d="M32.38,68.26l-1.65-1.87,3.43-3.03-23.95-19.68v-19.94c0-1.61,1.31-2.92,2.93-2.92h68.47c1.62,0,2.93,1.31,2.93,2.92v20.38h-2.5v-20.38c0-.23-.19-.42-.43-.42H13.14c-.24,0-.43.19-.43.42v18.75l25.3,20.8-5.63,4.97Z"/>
</svg>