<?xml version="1.0" encoding="UTF-8"?>
<svg id="Layer_1" data-name="Layer 1" xmlns="http://www.w3.org/2000/svg" viewBox="0 0 96 96">
  <defs>
    <style>
      .cls-1 {
        fill: none;
        stroke: #fff;
        stroke-linejoin: round;
        stroke-width: 3px;
      }
    </style>
  </defs>
  <path class="cls-1" d="M56.78,90.23v-18.86l14.23-17.17c1.51-1.82,1.4-4.5-.26-6.19h0c-1.89-1.92-5.02-1.83-6.78.21l-9.27,10.67c-3.7,4.25-10.29,4.31-14.05.12l-9.02-10.03c-1.66-1.84-4.47-2.05-6.38-.47l-.03.02c-2,1.65-2.25,4.62-.55,6.58l13.59,15.72v20.05h18.53v-.65Z"/>
  <circle class="cls-1" cx="47.8" cy="46.64" r="8.5"/>
  <path class="cls-1" d="M33.33,65.14h0c-.05.61-.27,1.19-.68,1.69l-9.33,11.26v12.8h-12.16v-13.15l-8.91-10.31c-1.11-1.29-.95-3.24.36-4.33h.02c1.25-1.04,3.1-.91,4.19.3l5.91,6.58c2.47,2.74,6.8,2.71,9.22-.08l6.08-7c.61-.69,1.45-1.04,2.29-1.04.06,0,.13,0,.19,0"/>
  <circle class="cls-1" cx="17.42" cy="61.86" r="5.58"/>
  <path class="cls-1" d="M62.67,65.14h0c.05.61.27,1.19.68,1.69l9.33,11.26v12.8h12.16v-13.15l8.91-10.31c1.11-1.29.95-3.24-.36-4.33h-.02c-1.25-1.04-3.1-.91-4.19.3l-5.91,6.58c-2.47,2.74-6.8,2.71-9.22-.08l-6.08-7c-.61-.69-1.45-1.04-2.29-1.04-.06,0-.13,0-.19,0"/>
  <circle class="cls-1" cx="78.58" cy="61.86" r="5.58"/>
  <circle class="cls-1" cx="10" cy="42.65" r="3.43"/>
  <circle class="cls-1" cx="76.82" cy="25.64" r="3.32"/>
  <line class="cls-1" x1="24.12" y1="15.34" x2="24.12" y2="27"/>
  <line class="cls-1" x1="18.13" y1="21.17" x2="30.11" y2="21.17"/>
  <line class="cls-1" x1="80.79" y1="5.11" x2="80.79" y2="16.77"/>
  <line class="cls-1" x1="74.81" y1="10.94" x2="86.78" y2="10.94"/>
  <circle class="cls-1" cx="47.8" cy="9.17" r="3.32"/>
  <line class="cls-1" x1="49.19" y1="25" x2="58.56" y2="25"/>
  <line class="cls-1" x1="81.67" y1="39.21" x2="81.67" y2="47.67"/>
  <line class="cls-1" x1="10" y1="7.35" x2="10" y2="16.06"/>
</svg>