<?xml version="1.0" encoding="UTF-8"?>
<svg id="Layer_1" data-name="Layer 1" xmlns="http://www.w3.org/2000/svg" viewBox="0 0 96 96">
  <path d="M11.58,64.92h5.3c-1.4,3.89-.1,8.23,3.2,10.72-5.16,2.28-8.5,7.39-8.51,13.03v3.17c0,1.75,1.42,3.17,3.17,3.17h66.5c1.75,0,3.17-1.42,3.17-3.17v-3.17c.02-5.65-3.33-10.77-8.51-13.03,3.3-2.49,4.6-6.83,3.2-10.72h5.3c3.5,0,6.33-2.84,6.33-6.33V9.5c0-3.5-2.84-6.33-6.33-6.33h-6.33v-1.58c0-.87-.71-1.58-1.58-1.58s-1.58.71-1.58,1.58v1.58h-11.08v-1.58c0-.87-.71-1.58-1.58-1.58s-1.58.71-1.58,1.58v1.58h-11.08v-1.58c0-.87-.71-1.58-1.58-1.58s-1.58.71-1.58,1.58v1.58h-11.08v-1.58c0-.87-.71-1.58-1.58-1.58s-1.58.71-1.58,1.58v1.58h-11.08v-1.58c0-.87-.71-1.58-1.58-1.58s-1.58.71-1.58,1.58v1.58h-6.33c-3.5,0-6.33,2.84-6.33,6.33v49.08c0,3.5,2.84,6.33,6.33,6.33ZM19.5,68.08c0-3.5,2.84-6.33,6.33-6.33s6.33,2.84,6.33,6.33-2.84,6.33-6.33,6.33-6.33-2.84-6.33-6.33ZM64.43,75.63c-1.09.48-2.11,1.1-3.05,1.83-1.33-3.64-4.09-6.59-7.63-8.16,1.47-1.12,2.58-2.64,3.2-4.38h4.28c-1.4,3.89-.1,8.23,3.2,10.72ZM36.92,91.83v-9.5c0-6.12,4.96-11.08,11.08-11.08s11.08,4.96,11.08,11.08v9.5h-22.17ZM48,68.08c-3.5,0-6.33-2.84-6.33-6.33s2.84-6.33,6.33-6.33,6.33,2.84,6.33,6.33-2.84,6.33-6.33,6.33ZM42.26,69.3c-3.54,1.57-6.3,4.52-7.63,8.16-.94-.73-1.96-1.35-3.05-1.83,3.3-2.49,4.6-6.83,3.2-10.72h4.28c.62,1.74,1.73,3.26,3.2,4.38ZM14.75,91.83v-3.17c0-6.12,4.95-11.09,11.07-11.09,2.94,0,5.77,1.17,7.85,3.25.05.05.09.11.14.16-.04.44-.07.9-.07,1.35v9.5H14.75ZM78,80.82c2.08,2.08,3.25,4.9,3.25,7.85v3.17h-19v-9.5c0-.45-.03-.89-.07-1.33,4.23-4.42,11.24-4.57,15.65-.34.06.05.11.11.17.16h0ZM70.17,74.42c-3.5,0-6.33-2.84-6.33-6.33s2.84-6.33,6.33-6.33,6.33,2.84,6.33,6.33-2.84,6.33-6.33,6.33ZM84.42,61.75h-7.19c-3.47-3.9-9.45-4.25-13.35-.77-.27.24-.53.5-.77.77h-5.61c0-5.25-4.25-9.5-9.5-9.5s-9.5,4.25-9.5,9.5h-5.61c-3.47-3.9-9.45-4.25-13.35-.77-.27.24-.53.5-.77.77h-7.19c-1.75,0-3.17-1.42-3.17-3.17V15.83h79.17v42.75c0,1.75-1.42,3.17-3.17,3.17ZM11.58,6.33h6.33v1.58c0,.87.71,1.58,1.58,1.58s1.58-.71,1.58-1.58v-1.58h11.08v1.58c0,.87.71,1.58,1.58,1.58s1.58-.71,1.58-1.58v-1.58h11.08v1.58c0,.87.71,1.58,1.58,1.58s1.58-.71,1.58-1.58v-1.58h11.08v1.58c0,.87.71,1.58,1.58,1.58s1.58-.71,1.58-1.58v-1.58h11.08v1.58c0,.87.71,1.58,1.58,1.58s1.58-.71,1.58-1.58v-1.58h6.33c1.75,0,3.17,1.42,3.17,3.17v3.17H8.42v-3.17c0-1.75,1.42-3.17,3.17-3.17Z" fill="#fff"/>
  <path d="M59.46,28.31l-5.29-1.39-3.38-4.88c-1.08-1.54-3.2-1.92-4.74-.84-.33.23-.61.51-.84.84l-3.39,4.88-5.29,1.39c-1.24.32-2.23,1.25-2.62,2.47-.39,1.2-.13,2.51.69,3.47l3.37,4.02-.26,5.77c-.05,1.1.45,2.15,1.34,2.81.91.67,2.09.85,3.16.46l5.79-2.07,5.8,2.07c1.06.38,2.25.21,3.16-.46.89-.65,1.39-1.71,1.34-2.81l-.27-5.77,3.36-4.02c.81-.96,1.07-2.27.69-3.47-.39-1.22-1.37-2.15-2.61-2.47ZM58.96,32.21l-3.76,4.5c-.26.3-.39.69-.37,1.09l.24,6.49c-.06.04-.14.05-.21.03l-6.33-2.27c-.34-.12-.72-.12-1.07,0l-6.33,2.27c-.09.03-.17,0-.27-.14l.3-6.38c.02-.4-.11-.79-.37-1.09l-3.76-4.5c-.12-.13-.15-.31-.1-.47.06-.19.21-.33.4-.37l5.86-1.54c.37-.1.68-.32.9-.63l3.71-5.36c.06-.1.19-.14.29-.08.03.02.06.05.08.08h0l3.71,5.36c.21.31.53.54.9.63l5.86,1.54c.19.04.34.18.4.37.06.16.03.35-.09.48h0Z" fill="#fff"/>
</svg>