<?xml version="1.0" encoding="UTF-8"?>
<svg id="Layer_1" data-name="Layer 1" xmlns="http://www.w3.org/2000/svg" viewBox="0 0 96 96">
  <path d="M93.57,62.15c0-.46.22-1.07.43-1.66.38-1.09.78-2.21.49-3.46-.3-1.27-1.16-2.08-2-2.88-.43-.41-.87-.83-1.04-1.16-.17-.35-.23-.96-.28-1.55-.1-1.12-.21-2.28-1-3.27-.79-.98-1.9-1.34-2.97-1.68-.56-.18-1.13-.36-1.43-.6-.3-.24-.6-.76-.9-1.27-.57-.97-1.16-1.98-2.31-2.54-1.15-.56-2.31-.42-3.42-.28-.6.08-1.23.15-1.63.06-.39-.09-.91-.43-1.42-.76-.99-.64-2.02-1.3-3.35-1.3s-2.36.66-3.35,1.3c-.51.33-1.03.67-1.42.76-.4.09-1.02.02-1.63-.06-1.12-.14-2.27-.28-3.42.28-1.15.56-1.74,1.57-2.31,2.55-.24.42-.49.84-.74,1.11-1.13-.53-2.31-.97-3.5-1.32-1.25-.36-2.54-.62-3.84-.78l-3.15-3.01-.22-.2-.02.02c-.55-.35-1.3-.3-1.8.14l-.47.42-.55-1.08c.5-.37.97-.77,1.41-1.21,1.52-1.52,2.62-3.4,3.18-5.46.95-.33,1.94-1.18,2.81-2.41.78-1.11,1.44-2.44,1.81-3.67.47-1.57.5-2.97.09-4.06-.33-.85-.87-1.49-1.62-1.89.45-.75.66-1.48.6-2.11.2-6.87-.65-11.88-2.5-14.87-2.06-3.31-5.21-4.39-9.39-3.21-8.39-1.36-14.41-.23-17.88,3.36-3.31,3.42-4.26,8.99-2.84,16.59-1.04.36-1.78,1.08-2.18,2.14-.42,1.09-.39,2.5.09,4.06.37,1.23,1.03,2.57,1.81,3.67.86,1.21,1.84,2.05,2.78,2.4.56,2.06,1.66,3.94,3.19,5.47.44.44.91.84,1.41,1.21l-.54,1.05-.44-.39c-.52-.46-1.28-.49-1.84-.12l-.02-.02-3.32,3.16c-5.77.68-11.13,3.43-15.1,7.77-4.13,4.51-6.4,10.33-6.4,16.39v9.58c0,.83.68,1.51,1.51,1.51h26.81l6.89,7.74.09.1c.1.09.21.17.34.24l.11.05c.14.06.29.1.49.11h.1s.11,0,.11,0c.15-.01.31-.05.45-.11l.12-.06c.12-.06.23-.14.34-.24l6.97-7.83h11.05l-5.26,9.22c-.21.33-.28.73-.2,1.12.08.39.31.73.65.95.34.22.74.29,1.13.21l5.41-1.15,1.76,5.21c.11.36.36.67.69.85.23.13.48.2.74.2.13,0,.27-.02.4-.05.39-.11.71-.36.91-.71l6.52-11.43c.94.6,1.92,1.19,3.17,1.19s2.21-.57,3.17-1.19l6.52,11.43c.41.72,1.33.97,2.05.57.33-.19.58-.49.69-.85l1.76-5.22,5.41,1.15c.39.08.79,0,1.13-.21s.57-.56.65-.95c.08-.39,0-.78-.2-1.11l-6.02-10.55c.78-.28,1.63-.66,2.25-1.44.79-.99.9-2.14,1-3.27.05-.59.11-1.2.28-1.55.17-.34.61-.76,1.05-1.17.83-.79,1.7-1.6,1.99-2.87.29-1.25-.1-2.37-.49-3.46-.21-.59-.43-1.2-.43-1.66ZM25.56,45.27l1.57-1.5,8.34,7.41-4.42,4.07-5.49-9.98ZM4.43,75.87v-8.07c0-5.32,1.99-10.42,5.6-14.37,3.39-3.7,7.95-6.09,12.87-6.76l6.44,11.71c.4.73,1.31.99,2.04.6.12-.07.23-.15.32-.24l1.56-1.44.46.72-4.28,17.86H4.43ZM24.03,23.72v5.26c-.54-.8-1-1.76-1.27-2.65-.28-.91-.33-1.67-.16-2.12.12-.31.49-.47,1.11-.47h.02s.07,0,.1,0h.06s.09-.01.14-.02ZM51.47,23.73c.06,0,.12,0,.18.01.67,0,1.02.15,1.15.47.17.45.12,1.21-.16,2.12-.27.91-.75,1.88-1.3,2.69v-5.22s.09-.04.13-.07ZM49.54,5.86c1.55,2.49,2.24,6.94,2.06,13.22,0,.1,0,.21,0,.31.02.13-.12.41-.45.78-.14-1.12-.35-2.24-.63-3.34-.44-1.76-1.07-3.54-1.86-5.28-.04-.12-.1-.23-.17-.33-.23-.33-.58-.55-.97-.62-.09-.02-.17-.02-.26-.02-.31,0-.61.09-.86.27-2.64,1.86-5.33,3.02-8,3.45-2.64.43-5.37.15-8.1-.8-.03-.01-.07-.02-.1-.03-.38-.11-.79-.07-1.15.12-.35.19-.61.51-.73.89-.34,1.11-.95,2.22-1.82,3.29-.49.6-1.08,1.2-1.74,1.79-1.01-6.09-.27-10.48,2.21-13.03,2.79-2.88,8.03-3.7,15.58-2.43.23.04.46.02.69-.05,2.92-.9,4.98-.3,6.3,1.82ZM27.05,21.54c.67-.61,1.27-1.24,1.79-1.88.76-.93,1.38-1.91,1.83-2.9,2.75.77,5.51.94,8.2.5,2.6-.42,5.19-1.41,7.71-2.94.41,1.06.75,2.15,1.02,3.23.4,1.59.64,3.21.73,4.8h.25s-.25.02-.25.02v7.66c0,2.48-.97,4.81-2.74,6.58-1.77,1.77-4.1,2.74-6.58,2.74h-2.65c-2.48,0-4.81-.97-6.58-2.74s-2.74-4.1-2.74-6.58v-8.49ZM31.68,41.42c1.49.62,3.06.93,4.69.93h2.65c1.62,0,3.2-.31,4.69-.93l.85,1.66-6.83,6.07-6.87-6.1.83-1.63ZM36.39,59.77h2.71l4.17,17.38-5.52,6.21-5.52-6.21,4.17-17.38ZM39,56.76h-2.52l-.97-1.53,2.2-2.03,2.24,2.06-.95,1.49ZM90.56,62.15c0,.96.31,1.83.61,2.67.24.68.48,1.37.39,1.77-.09.39-.62.89-1.13,1.37-.62.59-1.26,1.19-1.67,2.03-.41.84-.5,1.73-.58,2.6-.06.64-.13,1.37-.35,1.66s-.92.51-1.55.71c-.37.12-.75.24-1.1.38l-.07.03c-.49.2-.88.43-1.23.7-.72.58-1.17,1.35-1.61,2.09-.33.56-.7,1.2-1.04,1.37-.33.16-1.07.07-1.74-.01-.86-.11-1.75-.22-2.67,0-.9.21-1.64.69-2.37,1.16-.62.4-1.27.82-1.73.82s-1.1-.42-1.72-.82c-.72-.47-1.47-.95-2.37-1.16-.39-.09-.77-.12-1.14-.12-.52,0-1.03.06-1.54.13-.66.08-1.4.17-1.74.01-.33-.16-.71-.8-1.04-1.38-.36-.61-.73-1.25-1.25-1.76-.05-.06-.11-.11-.17-.17-.06-.05-.12-.1-.18-.15-.34-.28-.73-.5-1.22-.7l-.07-.03c-.37-.15-.75-.27-1.13-.39-.61-.2-1.3-.42-1.53-.7-.23-.28-.3-1.01-.35-1.66-.08-.86-.16-1.75-.58-2.6-.41-.84-1.05-1.44-1.68-2.04-.51-.48-1.03-.98-1.12-1.37-.09-.39.15-1.09.39-1.77.3-.84.6-1.7.6-2.66s-.31-1.82-.6-2.66c-.24-.68-.49-1.38-.39-1.77.09-.39.62-.89,1.13-1.37.62-.59,1.26-1.19,1.67-2.03.41-.85.5-1.74.58-2.6.06-.64.13-1.37.35-1.65.23-.29.92-.51,1.54-.7.82-.26,1.68-.54,2.4-1.12.72-.58,1.17-1.34,1.61-2.09.33-.56.7-1.2,1.04-1.37.33-.16,1.08-.07,1.74.01.86.11,1.75.22,2.67,0,.9-.21,1.64-.69,2.38-1.16.62-.4,1.26-.81,1.71-.81s1.1.41,1.73.82c.72.47,1.47.95,2.37,1.16.92.22,1.81.11,2.68,0,.66-.08,1.41-.18,1.74-.01.33.16.7.8,1.04,1.37.44.74.89,1.51,1.61,2.09.73.58,1.58.85,2.4,1.12.61.2,1.31.42,1.53.7.23.29.3,1.01.36,1.66.08.86.16,1.75.58,2.59.41.84,1.05,1.44,1.67,2.03.51.48,1.04.98,1.13,1.37.09.39-.15,1.09-.39,1.77-.3.84-.6,1.7-.6,2.66ZM79.13,82.49c1.12.14,2.28.28,3.42-.28,1.15-.56,1.74-1.57,2.31-2.54.13-.23.27-.46.4-.67l4.41,7.74-3.44-.73-.19-.04h0c-.69-.04-1.32.37-1.54,1.03l-1.13,3.33-4.49-7.88c.08.01.17.02.25.03ZM55.78,86.75l4.41-7.74c.14.21.27.44.41.67.57.97,1.16,1.98,2.31,2.54s2.3.42,3.42.28c.08-.01.17-.02.25-.03l-4.49,7.88-1.13-3.33c-.21-.62-.79-1.03-1.42-1.03h-.01v-.03l-3.74.79ZM44.37,55.25l-1.21-1.11c-.11-.17-.26-.31-.43-.42-.02-.02-.05-.03-.07-.04l-2.71-2.49,8.34-7.41,1.57,1.5-5.49,9.98ZM42.2,57.34l1.51,1.4c.1.09.21.18.33.24.73.4,1.64.13,2.04-.59l6.44-11.7c1.01.14,2.02.35,3,.64.18.05.35.1.52.16-.29.2-.53.44-.74.7-.79.99-.9,2.15-1,3.27-.05.59-.11,1.2-.28,1.55-.17.34-.61.76-1.05,1.17-.83.79-1.69,1.6-1.99,2.87-.29,1.25.1,2.37.49,3.46.21.59.43,1.2.43,1.66s-.22,1.07-.43,1.66c-.38,1.09-.78,2.21-.49,3.46.3,1.27,1.16,2.08,1.99,2.87.43.41.88.83,1.04,1.17.17.35.23.96.28,1.55.1,1.03.19,2.09.82,3.02h-9.07l-4.28-17.86.43-.68ZM37.81,86.88h0s0,0,0,0ZM38.66,86.48h0s0,0,0,0Z" fill="#fff"/>
  <path d="M72.73,48.08c-3.76,0-7.29,1.46-9.95,4.12s-4.12,6.19-4.12,9.95,1.46,7.29,4.12,9.95,6.19,4.12,9.95,4.12,7.29-1.46,9.95-4.12c2.66-2.66,4.12-6.19,4.12-9.95s-1.46-7.29-4.12-9.95c-2.66-2.66-6.19-4.12-9.95-4.12ZM83.79,62.15c0,2.95-1.15,5.73-3.24,7.82-2.09,2.09-4.86,3.24-7.82,3.24s-5.73-1.15-7.82-3.24c-2.09-2.09-3.24-4.86-3.24-7.82s1.15-5.73,3.24-7.82,4.86-3.24,7.82-3.24,5.73,1.15,7.82,3.24c2.09,2.09,3.24,4.86,3.24,7.82Z" fill="#fff"/>
  <path d="M75.6,58.86l-1.48-3.63c-.15-.38-.45-.67-.82-.82-.37-.15-.78-.15-1.15,0-.37.16-.66.45-.81.82l-1.48,3.63-3.91.29c-.41.03-.78.22-1.04.53-.26.31-.38.7-.35,1.1.03.4.22.76.53,1.02l3,2.54-.94,3.82c-.09.39-.03.8.18,1.14.21.34.54.58.93.67.12.03.23.04.35.04.28,0,.55-.08.79-.22l3.34-2.07,3.3,2.05c.35.23.78.3,1.18.2.39-.09.72-.33.93-.68.21-.34.27-.75.18-1.14l-.94-3.82,2.95-2.5c.34-.26.54-.66.57-1.08.06-.83-.57-1.55-1.39-1.61l-3.92-.29ZM74.26,64.2l.27,1.09-1.01-.62c-.49-.3-1.12-.3-1.6.01l-.98.61.28-1.15c.11-.47,0-.95-.3-1.31l.02-.02-1.1-.93,1.17-.09c.62-.04,1.14-.46,1.32-1.03l.41-1,.45,1.09c.18.44.55.76,1,.88v.03s1.46.11,1.46.11l-.9.76c-.46.39-.64,1-.47,1.57Z" fill="#fff"/>
</svg>