<?xml version="1.0" encoding="UTF-8"?>
<svg id="Layer_1" data-name="Layer 1" xmlns="http://www.w3.org/2000/svg" viewBox="0 0 96 96">
  <path d="M91.47,40.34c-3.17-6.29-8-11.52-13.96-15.13l2-6.08,1.7.56c.9.29,1.87.22,2.71-.21.85-.43,1.48-1.16,1.78-2.06l1.63-4.95c.61-1.87-.41-3.88-2.27-4.49l-6.65-2.19c-.79-.26-1.65.17-1.91.96-.26.79.17,1.65.96,1.91l6.65,2.19c.28.09.43.4.34.68l-1.63,4.95c-.06.18-.19.27-.27.31-.08.04-.23.09-.41.03l-19.48-6.42c-.18-.06-.27-.19-.3-.27-.04-.08-.09-.23-.03-.41l1.63-4.95c.06-.18.19-.27.27-.31.08-.04.23-.09.41-.03l6.91,2.28c.38.13.79.1,1.15-.09.36-.18.63-.49.75-.88.13-.38.1-.79-.09-1.15s-.49-.63-.88-.75l-6.91-2.28c-.9-.3-1.87-.22-2.71.21-.85.43-1.48,1.16-1.78,2.06l-1.63,4.95c-.3.9-.22,1.87.2,2.72.43.85,1.16,1.48,2.06,1.78l1.7.56-2,6.08c-2.81-.26-5.66-.19-8.48.2-.4.06-.75.26-1,.59-.24.32-.35.72-.29,1.12.06.4.26.76.59,1,.32.24.72.34,1.12.29,5.22-.72,10.42-.25,15.46,1.41,8.73,2.88,15.81,8.98,19.95,17.18,4.14,8.2,4.83,17.52,1.96,26.25-5.93,18.01-25.41,27.84-43.42,21.91-8.72-2.87-15.81-8.97-19.94-17.17-4.14-8.2-4.83-17.53-1.96-26.25,3.4-10.32,11.59-18.51,21.93-21.92.79-.26,1.22-1.12.96-1.91-.26-.79-1.12-1.22-1.91-.96-2.34.77-4.62,1.78-6.78,3.01h-11.09c-.83,0-1.51.68-1.51,1.51s.68,1.51,1.51,1.51h6.56c-1.15.89-2.24,1.85-3.25,2.83-3.85,3.78-6.89,8.47-8.8,13.57h-9.62c-.83,0-1.51.68-1.51,1.51s.68,1.51,1.51,1.51h8.63c-1.52,5.41-1.81,10.92-.87,16.4H6.5c-.83,0-1.51.68-1.51,1.51s.68,1.51,1.51,1.51h15.33c.67,2.58,1.62,5.11,2.84,7.51,1.65,3.27,3.75,6.26,6.24,8.9h-12.19c-.83,0-1.51.68-1.51,1.51s.68,1.51,1.51,1.51h15.41c3.61,3,7.73,5.28,12.24,6.76,3.79,1.25,7.72,1.88,11.67,1.88,16.21,0,30.5-10.33,35.57-25.71,3.13-9.49,2.37-19.63-2.13-28.55ZM76.65,18.19l-1.82,5.54c-1.62-.81-3.32-1.51-5.05-2.08-1.73-.57-3.51-1.02-5.3-1.33l1.83-5.54,10.34,3.41Z" fill="#fff"/>
  <path d="M2.01,27.68h17.26c.83,0,1.51-.68,1.51-1.51s-.68-1.51-1.51-1.51H2.01c-.83,0-1.51.68-1.51,1.51s.68,1.51,1.51,1.51Z" fill="#fff"/>
  <path d="M7.56,34.38c-.83,0-1.51.68-1.51,1.51s.68,1.51,1.51,1.51h13.05c.83,0,1.51-.68,1.51-1.51s-.68-1.51-1.51-1.51H7.56Z" fill="#fff"/>
  <path d="M11.78,56.82c.4,0,.78-.16,1.07-.44.29-.29.44-.67.44-1.07,0-.83-.68-1.51-1.51-1.51H2.01c-.83,0-1.51.68-1.51,1.51s.68,1.51,1.51,1.51h9.76Z" fill="#fff"/>
  <path d="M18.83,74.74c0-.83-.68-1.51-1.51-1.51h-6.8c-.83,0-1.51.68-1.51,1.51s.68,1.51,1.51,1.51h6.8c.83,0,1.51-.68,1.51-1.51Z" fill="#fff"/>
  <path d="M30.06,47.97c-2.46,7.47-1.86,15.46,1.7,22.5,3.55,7.04,9.62,12.27,17.09,14.73,3.01.99,6.13,1.5,9.26,1.5,4.62,0,9.07-1.07,13.25-3.17,7.03-3.55,12.26-9.62,14.73-17.1l.02-.07c5.04-15.42-3.4-32.09-18.81-37.17-2.84-.95-5.81-1.45-8.83-1.49-3.01-.04-6,.38-8.9,1.25-1.64.5-3.25,1.14-4.79,1.92-7.03,3.55-12.26,9.62-14.73,17.11ZM48.34,37.82c.36-.18.63-.49.75-.88.13-.38.1-.79-.09-1.15l-1.46-2.89c3.35-1.46,6.88-2.19,10.49-2.19,2.3,0,4.61.31,6.86.91l-6.39,19.4c-1.1-.08-2.19.14-3.19.64-.31.16-.61.34-.9.56l-9.18-8.37c-.62-.56-1.57-.52-2.13.1-.56.62-.52,1.57.1,2.13l9.31,8.49c-.1.22-.19.43-.26.65-.51,1.55-.39,3.22.35,4.68.74,1.46,2,2.55,3.56,3.06.36.12.74.2,1.14.25l.46,3.94c.1.82.84,1.43,1.68,1.32.83-.1,1.42-.85,1.33-1.68l-.46-3.95c.18-.07.36-.15.54-.24.99-.5,1.82-1.25,2.41-2.18l19.46,6.41c-2.2,5.64-6.13,10.21-11.36,13.24l-1.49-2.95c-.18-.36-.49-.63-.88-.75-.38-.13-.79-.1-1.15.09-.74.37-1.04,1.29-.67,2.03l1.49,2.96c-5.55,2.43-11.57,2.88-17.42,1.31l1.04-3.16c.13-.38.1-.79-.09-1.15s-.49-.63-.88-.76c-.38-.13-.79-.1-1.15.09-.36.18-.63.49-.75.88l-1.04,3.16c-5.55-2.18-10.23-6.23-13.22-11.41l2.94-1.49c.36-.18.63-.49.75-.88.13-.38.1-.79-.09-1.15s-.49-.63-.88-.75c-.38-.13-.79-.1-1.15.09l-2.94,1.48c-2.38-5.48-2.83-11.65-1.28-17.4l3.11,1.02c.15.05.31.08.47.08.65,0,1.23-.42,1.43-1.04.13-.38.1-.79-.09-1.15-.18-.36-.49-.63-.88-.76l-3.1-1.02c2.22-5.62,6.15-10.17,11.39-13.18l1.46,2.89c.26.51.78.83,1.35.83.23,0,.47-.06.68-.16ZM63.56,54.38c-.5-.99-1.25-1.82-2.18-2.41l6.39-19.4c6.03,2.37,10.96,6.87,13.9,12.69,2.94,5.82,3.64,12.46,1.98,18.72l-19.45-6.41c.08-1.1-.14-2.19-.64-3.19ZM61.04,58.1v.04c-.28.78-.82,1.41-1.56,1.78-.74.37-1.59.44-2.37.18-1.63-.53-2.52-2.3-1.98-3.93.42-1.28,1.61-2.13,2.96-2.13.31,0,.62.05.92.14v.02h.07c.78.26,1.41.81,1.78,1.55.37.74.44,1.58.18,2.36Z" fill="#fff"/>
</svg>