<?xml version="1.0" encoding="UTF-8"?>
<svg id="Layer_1" data-name="Layer 1" xmlns="http://www.w3.org/2000/svg" viewBox="0 0 96 96">
  <path d="M93.9,46.4h-7.82c-.83-19.76-16.71-35.62-36.47-36.44V2.1c0-.89-.72-1.6-1.6-1.6s-1.6.72-1.6,1.6v7.86c-19.76.82-35.63,16.68-36.47,36.44H2.1c-.89,0-1.6.72-1.6,1.6s.72,1.6,1.6,1.6h7.83c.8,19.79,16.69,35.68,36.47,36.5v7.79c0,.89.72,1.6,1.6,1.6s1.6-.72,1.6-1.6v-7.79c19.77-.84,35.65-16.73,36.47-36.5h7.82c.89,0,1.6-.72,1.6-1.6s-.72-1.6-1.6-1.6ZM82.87,46.4h-16.28c-.77-9.03-7.96-16.23-16.98-17.01V13.14c17.99.83,32.42,15.27,33.26,33.26ZM59.18,49.61h4.19c-.77,7.24-6.52,12.99-13.76,13.75v-4.17c0-.89-.72-1.6-1.6-1.6s-1.6.72-1.6,1.6v4.17c-7.27-.73-13.05-6.5-13.82-13.75h4.23c.89,0,1.6-.72,1.6-1.6s-.72-1.6-1.6-1.6h-4.24c.73-7.3,6.53-13.1,13.83-13.84v4.25c0,.89.72,1.6,1.6,1.6s1.6-.72,1.6-1.6v-4.2c7.25.77,13.01,6.53,13.76,13.79h-4.19c-.89,0-1.6.72-1.6,1.6s.72,1.6,1.6,1.6ZM46.4,13.17v16.21c-9.06.75-16.28,7.97-17.05,17.02H13.14c.83-17.98,15.27-32.41,33.26-33.23ZM13.14,49.61h16.22c.77,9.05,7.99,16.26,17.05,17.02v16.28c-18.01-.81-32.46-15.28-33.26-33.29ZM49.61,82.9v-16.28c9.02-.79,16.2-7.99,16.98-17.01h16.28c-.8,18.01-15.25,32.48-33.26,33.29Z" fill="#fff"/>
</svg>