<?xml version="1.0" encoding="UTF-8"?>
<svg id="Layer_1" data-name="Layer 1" xmlns="http://www.w3.org/2000/svg" viewBox="0 0 96 96">
  <path d="M94.2,80.72h-2.21c.51-.89.78-1.9.78-2.92v-26.82c0-3.32-2.7-6.02-6.02-6.02h-34.27c-.8,0-1.58.16-2.27.45h-.03c-1.29-.3-2.49-.45-3.66-.45h-5.15v-1.06c3.04-2.17,5.13-5.52,5.76-9.25h.14c3.32,0,6.02-2.7,6.02-6.02v-6.71c0-11.13-9.05-20.18-20.18-20.18S12.92,10.79,12.92,21.92v6.71c0,3.32,2.7,6.02,6.02,6.02h.12c.64,3.71,2.74,7.07,5.78,9.25v1.06h-5.15c-9.05,0-16.44,7.38-16.46,16.46v14.9c0,1.56.52,3.12,1.46,4.41H1.8c-.87,0-1.55.68-1.55,1.55v10.43c0,.87.68,1.55,1.55,1.55h92.39c.87,0,1.55-.68,1.55-1.55v-10.43c0-.87-.68-1.55-1.55-1.55ZM18.88,25.71v5.83c-1.58-.03-2.85-1.33-2.85-2.92s1.27-2.88,2.85-2.92ZM38.25,47.25c0,2.84-2.31,5.15-5.15,5.15s-5.15-2.31-5.15-5.15v-1.67c3.31,1.29,7.01,1.29,10.3,0v1.67ZM33.85,55.48c3.94-.36,7.06-3.46,7.47-7.41h5.2c.18,0,.33,0,.52.04.05,0,.1,0,.17,0-.48.86-.75,1.85-.77,2.88v22.29h-8.44c-2.17-1.92-4.97-2.98-7.89-2.98h-14.9c-.87,0-1.55.68-1.55,1.55s.68,1.55,1.55,1.55h13.35v7.32H10.75c-2.43,0-4.41-1.98-4.41-4.41v-14.9c0-7.36,5.99-13.35,13.35-13.35h5.18c.22,2.17,1.26,4.13,2.95,5.54,1.7,1.41,3.84,2.08,6.04,1.88ZM21.99,25.71h.94c6.28,0,12.29-2.36,16.92-6.65l4.37,5.64v7.66c0,6.13-4.99,11.11-11.11,11.11s-11.11-4.99-11.11-11.11v-6.66ZM18.92,22.6c-1.01,0-2.01.27-2.9.78v-1.46c0-9.4,7.66-17.05,17.07-17.07,9.4,0,17.06,7.66,17.07,17.07v1.46c-.89-.51-1.9-.78-2.92-.78h-.73l-5.29-6.85c-.23-.32-.59-.53-1.03-.6-.41-.04-.81.06-1.13.3-.07.04-.13.11-.21.19-4.09,4.41-9.9,6.94-15.93,6.96h-4ZM50.17,28.63c0,1.59-1.27,2.88-2.85,2.92v-5.83c1.58.03,2.85,1.33,2.85,2.92ZM31.67,73.54c3.66.65,6.53,3.53,7.19,7.18h-7.19v-7.18ZM46.45,76.38v4.34h-4.43c-.23-1.58-.73-3.04-1.48-4.34h5.9ZM49.55,80.72v-29.74c0-1.61,1.31-2.92,2.92-2.92h34.27c1.61,0,2.92,1.31,2.92,2.92v26.82c0,1.61-1.31,2.92-2.92,2.92h-37.19ZM92.64,83.83v7.32H3.36v-7.32h89.28Z" fill="#fff"/>
  <path d="M69.61,56.88c-4.14,0-7.51,3.37-7.51,7.51s3.37,7.51,7.51,7.51,7.51-3.37,7.51-7.51-3.37-7.51-7.51-7.51ZM74.01,64.39c0,2.43-1.98,4.41-4.41,4.41s-4.41-1.98-4.41-4.41,1.98-4.41,4.41-4.41,4.41,1.98,4.41,4.41Z" fill="#fff"/>
</svg>