<?xml version="1.0" encoding="UTF-8"?>
<svg id="Layer_1" data-name="Layer 1" xmlns="http://www.w3.org/2000/svg" viewBox="0 0 96 96">
  <defs>
    <style>
      .cls-1 {
        fill: #fff;
      }
    </style>
  </defs>
  <polygon class="cls-1" points="2.34 94.28 .22 92.15 40.47 52.16 56.73 69.5 93.34 32.01 95.49 34.11 56.68 73.84 40.39 56.47 2.34 94.28"/>
  <polygon class="cls-1" points="52.75 48.32 48.8 19.49 34.84 19.49 29.5 45.77 24.27 19.49 11.17 19.49 8.05 36.37 5.1 35.83 8.68 16.49 26.73 16.49 29.53 30.56 32.39 16.49 51.42 16.49 53 28.01 54.86 16.49 74.31 16.49 77.41 34.01 74.46 34.53 71.79 19.49 57.42 19.49 52.75 48.32"/>
  <path class="cls-1" d="M17.78,13.96c-3.85,0-6.98-3.13-6.98-6.98S13.93,0,17.78,0s6.98,3.13,6.98,6.98-3.13,6.98-6.98,6.98ZM17.78,2.99c-2.2,0-3.98,1.79-3.98,3.98s1.79,3.98,3.98,3.98,3.98-1.79,3.98-3.98-1.79-3.98-3.98-3.98Z"/>
  <path class="cls-1" d="M41.05,13.96c-3.85,0-6.98-3.13-6.98-6.98S37.2,0,41.05,0s6.98,3.13,6.98,6.98-3.13,6.98-6.98,6.98ZM41.05,2.99c-2.2,0-3.98,1.79-3.98,3.98s1.79,3.98,3.98,3.98,3.98-1.79,3.98-3.98-1.79-3.98-3.98-3.98Z"/>
  <path class="cls-1" d="M64.19,13.96c-3.85,0-6.98-3.13-6.98-6.98S60.34,0,64.19,0s6.98,3.13,6.98,6.98-3.13,6.98-6.98,6.98ZM64.19,2.99c-2.2,0-3.98,1.79-3.98,3.98s1.79,3.98,3.98,3.98,3.98-1.79,3.98-3.98-1.79-3.98-3.98-3.98Z"/>
  <polygon class="cls-1" points="17.99 58.21 3.99 58.21 11.69 37.89 11.69 25.31 14.69 25.31 14.69 38.44 8.33 55.21 17.99 55.21 17.99 58.21"/>
  <polygon class="cls-1" points="31.59 58.21 17.59 58.21 17.59 55.21 27.25 55.21 20.89 38.44 20.89 25.31 23.89 25.31 23.89 37.89 31.59 58.21"/>
  <rect class="cls-1" x="12.25" y="56.71" width="3" height="15.98"/>
  <rect class="cls-1" x="20.53" y="56.71" width="3" height="7.24"/>
  <rect class="cls-1" x="35.71" y="25.31" width="3" height="21.49"/>
  <rect class="cls-1" x="44.41" y="25.31" width="3" height="24.33"/>
  <rect class="cls-1" x="58.89" y="25.31" width="3" height="31.4"/>
  <rect class="cls-1" x="67.6" y="25.31" width="3" height="21.49"/>
  <polygon class="cls-1" points="96.07 44.4 93.07 44.4 93.07 34.08 82.74 34.08 82.74 31.08 96.07 31.08 96.07 44.4"/>
</svg>