<?xml version="1.0" encoding="UTF-8"?>
<svg id="Layer_1" data-name="Layer 1" xmlns="http://www.w3.org/2000/svg" viewBox="0 0 96 96">
  <defs>
    <style>
      .cls-1 {
        fill: #fff;
      }
    </style>
  </defs>
  <path class="cls-1" d="M2.58,89.59l-2.17-2.07,38.06-39.78c.29-.3.71-.49,1.11-.46.42,0,.81.19,1.09.5l14.99,16.64,37.76-38.98,2.15,2.09-38.88,40.13c-.29.3-.71.45-1.1.46-.42,0-.81-.19-1.09-.5l-14.98-16.63L2.58,89.59Z"/>
  <path class="cls-1" d="M95.79,41.44h-3v-13.47h-13v-3h14.5c.83,0,1.5.67,1.5,1.5v14.97Z"/>
  <path class="cls-1" d="M16.88,18.74c-3.44,0-6.24-2.87-6.24-6.4s2.8-6.39,6.24-6.39,6.24,2.87,6.24,6.39-2.8,6.4-6.24,6.4ZM16.88,8.95c-1.79,0-3.24,1.52-3.24,3.39s1.45,3.4,3.24,3.4,3.24-1.52,3.24-3.4-1.45-3.39-3.24-3.39Z"/>
  <path class="cls-1" d="M40.54,18.74c-3.44,0-6.24-2.87-6.24-6.4s2.8-6.39,6.24-6.39,6.24,2.87,6.24,6.39-2.8,6.4-6.24,6.4ZM40.54,8.95c-1.79,0-3.24,1.52-3.24,3.39s1.45,3.4,3.24,3.4,3.24-1.52,3.24-3.4-1.45-3.39-3.24-3.39Z"/>
  <path class="cls-1" d="M63.66,18.74c-3.44,0-6.24-2.87-6.24-6.4s2.8-6.39,6.24-6.39,6.24,2.87,6.24,6.39-2.8,6.4-6.24,6.4ZM63.66,8.95c-1.79,0-3.24,1.52-3.24,3.39s1.45,3.4,3.24,3.4,3.24-1.52,3.24-3.4-1.45-3.39-3.24-3.39Z"/>
  <path class="cls-1" d="M25.27,53.49H7.66c-.48,0-.93-.23-1.21-.61-.28-.38-.36-.88-.22-1.34l4.42-14.01v-8.76h3v8.99c0,.15-.02.3-.07.45l-3.87,12.28h13.54l-3.81-12.44c-.04-.14-.07-.29-.07-.44v-8.84h3v8.62l4.34,14.16c.14.46.05.95-.23,1.33-.28.38-.73.61-1.21.61Z"/>
  <path class="cls-1" d="M52.06,45.69c-.73,0-1.36-.53-1.48-1.25l-3.07-18.54c-4.47-1.48-9.31-1.52-13.79-.12l-3.61,18.28c-.14.7-.75,1.21-1.46,1.21h0c-.71,0-1.32-.5-1.47-1.19l-3.82-18.18c-4.38-1.51-9.17-1.62-13.61-.33l-3.12,17.21-2.95-.54,3.29-18.1c.1-.54.49-.99,1.01-1.16,5.53-1.83,11.52-1.73,16.92.27l.29.11c.48.18.84.59.95,1.1l2.47,11.78,2.35-11.91c.1-.52.47-.95.97-1.12,5.57-1.98,11.7-1.95,17.25.08l.19.07c.51.19.88.63.97,1.17l1.61,9.7,1.37-9.86c.08-.56.46-1.02.99-1.21l2.07-.73c4.73-1.67,9.8-1.89,14.66-.67l1.61.41c.57.14,1.01.61,1.11,1.19l2.95,16.77-2.96.52-2.78-15.81-.67-.17c-4.28-1.08-8.76-.88-12.93.59l-1.2.42-2.6,18.71c-.1.73-.72,1.28-1.47,1.29h-.02Z"/>
  <rect class="cls-1" x="34.74" y="28.7" width="3" height="16.86"/>
  <rect class="cls-1" x="42.98" y="28.77" width="3" height="16.78"/>
  <rect class="cls-1" x="11.12" y="51.99" width="3" height="16.52"/>
  <rect class="cls-1" x="19.3" y="51.99" width="3" height="9.37"/>
  <rect class="cls-1" x="58.32" y="28.7" width="3" height="26.96"/>
  <rect class="cls-1" x="66.5" y="28.92" width="3" height="19.46"/>
</svg>