<?xml version="1.0" encoding="UTF-8"?>
<svg id="Layer_1" data-name="Layer 1" xmlns="http://www.w3.org/2000/svg" viewBox="0 0 96 96">
  <path d="M95.5,27.63c0-1.84-.74-3.63-2.04-4.93l-5.46-5.46,4.19-4.19c2.38-2.39,2.38-6.27.02-8.63-1.03-1.31-2.51-2.13-4.17-2.32s-3.29.27-4.59,1.31c-.17.13-.33.28-.49.43l-4.19,4.19-5.47-5.47c-1.32-1.32-3.07-2.04-4.93-2.04s-3.61.73-4.93,2.04l-4.86,4.86c-4.34-3.89-9.6-2.3-12.69.87-3.13,3.22-4.58,8.62-.36,12.89l10.04,10.04-24.37,24.37-10.04-10.04c-4.26-4.21-9.66-2.77-12.87.35-3.18,3.09-4.78,8.35-.89,12.71l-4.86,4.86c-1.32,1.32-2.04,3.07-2.04,4.93,0,1.85.71,3.59,2.01,4.9l5.49,5.49-4.2,4.2c-2.95,3-1.92,6.74.29,8.94,2.2,2.2,5.93,3.23,8.94.28l4.19-4.19,5.47,5.47c1.36,1.36,3.14,2.04,4.93,2.04s3.57-.68,4.93-2.04l4.86-4.86c4.34,3.9,9.6,2.3,12.69-.87,3.13-3.22,4.58-8.62.36-12.9l-10.04-10.04,24.37-24.37,10.04,10.04c3.57,3.47,9.3,3.39,12.78-.18.24-.25.47-.51.66-.76,3.33-3.34,3.46-8.62.33-12.12l4.86-4.86c1.3-1.3,2.05-3.09,2.04-4.93ZM11.4,48.26c.97-.97,2.25-1.45,3.52-1.45s2.55.48,3.52,1.45l29.3,29.3c1.94,1.94,1.94,5.1,0,7.04l-.03.03c-1.7,2.45-5.07,3.06-7.52,1.37-.56-.39-1.03-.87-1.44-1.47l-28.29-28.29c-1.98-2.1-1.89-5.42.21-7.4.21-.2.44-.39.73-.58ZM34.66,85.9l-4.83,4.83c-1.24,1.18-3.17,1.18-4.4,0l-20.15-20.15c-1.2-1.21-1.2-3.19,0-4.4l4.83-4.83,24.56,24.56ZM6.54,85.69l4.19-4.19,3.77,3.77-4.19,4.19h0c-.73.75-1.55.73-2.11.58-1.03-.27-1.97-1.22-2.24-2.24-.15-.56-.17-1.37.58-2.11ZM62.07,37.7l-24.37,24.37-3.77-3.77,24.37-24.37,3.77,3.77ZM85.69,6.54c.74-.75,1.55-.73,2.11-.58,1.03.27,1.97,1.21,2.24,2.24.15.56.17,1.37-.58,2.11l-4.19,4.19-3.77-3.77,4.19-4.19h0ZM90.73,29.83l-4.83,4.83-24.56-24.56,4.83-4.83c1.23-1.18,3.17-1.18,4.4,0l20.15,20.15c1.2,1.21,1.2,3.19,0,4.4ZM48.29,11.37c1.06-1.42,2.68-2.29,4.42-2.37,1.8.09,3.45.98,4.54,2.47l28.29,28.29c1.94,1.94,1.94,5.1,0,7.04l-.03.04c-1.6,2.4-4.86,3.05-7.26,1.45-.24-.16-.48-.35-.69-.55l-29.3-29.3c-1.94-1.94-1.94-5.1.02-7.07Z" fill="#fff"/>
</svg>