<?xml version="1.0" encoding="UTF-8"?>
<svg id="Layer_1" data-name="Layer 1" xmlns="http://www.w3.org/2000/svg" viewBox="0 0 96 96">
  <path id="Shape" d="M88,12.3c-5-5.31-11.9-8.41-19.19-8.62s-14.36,2.48-19.65,7.49l-1.2,1.14C37.55,1.27,20.17.76,9.13,11.17-1.91,21.58-2.42,38.96,7.98,50l2.71,2.87c-1.14,2.65-.78,5.7.96,8,1.73,2.3,4.57,3.5,7.43,3.13-.48,2.52.27,5.12,2.03,6.98,1.76,1.87,4.31,2.77,6.85,2.43-.48,2.52.27,5.12,2.03,6.98s4.31,2.77,6.85,2.43c-.63,3.42,1.01,6.86,4.06,8.52s6.83,1.18,9.36-1.21c9.04-8.53,8.75-8.11,9.61-9.54,2.64,1.3,5.79,1.04,8.18-.67,2.4-1.71,3.66-4.61,3.28-7.53,2.52.47,5.11-.29,6.97-2.05s2.77-4.3,2.44-6.85c3.44.63,6.89-1.03,8.54-4.12,1.65-3.08,1.12-6.88-1.32-9.39,10.03-10.56,10.04-27.12.03-37.69h0ZM14.53,59.41c-1.85-1.97-1.76-5.06.2-6.91l8.23-7.77c1.97-1.82,5.03-1.71,6.87.24s1.77,5.02-.16,6.88l-8.23,7.77c-1.96,1.85-5.06,1.76-6.91-.2ZM23.42,68.82c-1.85-1.96-1.76-5.06.2-6.91l8.23-7.77c1.96-1.85,5.06-1.76,6.91.2s1.76,5.06-.2,6.91l-8.23,7.78c-1.97,1.85-5.06,1.75-6.91-.21h0ZM32.3,78.24c-1.85-1.97-1.76-5.06.2-6.91l8.23-7.77c1.98-1.73,4.97-1.6,6.78.32s1.78,4.91-.07,6.78l-8.23,7.77c-1.96,1.85-5.06,1.77-6.91-.2h0ZM48.09,87.85c-1.27,1.2-3.08,1.63-4.76,1.13s-2.95-1.86-3.36-3.56c-.4-1.7.13-3.48,1.4-4.68l8.23-7.78c1.97-1.82,5.03-1.71,6.87.24s1.77,5.02-.16,6.88l-8.23,7.77ZM85.55,59.16c-.94.89-2.2,1.37-3.5,1.34s-2.52-.59-3.41-1.54l-21.1-22.36c-.6-.64-1.6-.67-2.24-.06-.64.6-.67,1.6-.06,2.24l21.11,22.36c1.2,1.27,1.63,3.08,1.13,4.76-.5,1.67-1.86,2.95-3.55,3.36-1.7.4-3.48-.13-4.68-1.4l-21.1-22.36c-.39-.41-.97-.58-1.52-.45s-.99.54-1.15,1.09c-.16.54-.02,1.13.37,1.54l21.1,22.35c1.67,1.76,1.78,4.48.28,6.39s-4.18,2.41-6.28,1.19c.33-2.26-.33-4.56-1.8-6.3s-3.63-2.78-5.91-2.84c-1.74-.05-1.11.61-1.06-1.13.06-2.14-.73-4.21-2.19-5.76-1.47-1.55-3.49-2.46-5.63-2.52-1.74-.06-1.12.63-1.06-1.13.06-2.14-.73-4.21-2.19-5.76-1.47-1.55-3.49-2.46-5.63-2.52-1.75-.05-1.12.65-1.06-1.13.09-3.25-1.79-6.24-4.76-7.57-2.97-1.33-6.45-.75-8.82,1.48-11.32,10.69-7.42,7-8.26,7.8l-2.25-2.38C1.08,38.06,1.54,22.68,11.3,13.47s25.15-8.75,34.36,1.01l-12.97,12.25c-1.23,1.18-1.95,2.79-2.02,4.49-.16,6.5,9.51,10.6,15.43,5l11.82-11.15c.31-.29.71-.44,1.13-.43s.82.19,1.11.5c3.11,3.29,22.61,23.96,25.59,27.12.89.94,1.37,2.2,1.33,3.5s-.59,2.52-1.53,3.41h0ZM85.82,47.72l-23.36-24.75c-.86-.92-2.06-1.45-3.32-1.49-1.26-.04-2.48.43-3.4,1.29l-11.82,11.16c-1.26,1.18-2.93,1.82-4.66,1.77-1.73-.05-3.36-.79-4.54-2.05-.59-.63-.91-1.47-.89-2.34.03-.87.4-1.68,1.03-2.28l16.47-15.55c9.54-9.03,24.52-8.85,33.84.4,9.32,9.25,9.6,24.24.64,33.84h0Z" fill="#fff"/>
</svg>