<?xml version="1.0" encoding="UTF-8"?>
<svg id="Layer_1" data-name="Layer 1" xmlns="http://www.w3.org/2000/svg" viewBox="0 0 96 96">
  <path d="M68.12,14.21c-.89,0-1.61.72-1.61,1.61,0,.43.17.83.47,1.14.3.3.71.47,1.14.47,4.39,0,8.55,1.65,11.43,4.53,6.27,6.27,6.79,12.25,1.8,20.67-.45.76-.2,1.75.56,2.21.25.15.53.23.82.23.57,0,1.1-.3,1.39-.79,5.74-9.68,5.04-17.26-2.29-24.59-3.48-3.48-8.47-5.47-13.71-5.48Z" fill="#fff"/>
  <path d="M48,21c-13.06,0-23.68,10.62-23.68,23.68s10.62,23.68,23.68,23.68,23.68-10.62,23.68-23.68-10.62-23.68-23.68-23.68ZM68.46,44.67c0,11.28-9.18,20.46-20.46,20.46s-20.46-9.18-20.46-20.46,9.18-20.46,20.46-20.46,20.46,9.18,20.46,20.46Z" fill="#fff"/>
  <path d="M54.06,38.62v-7.38c0-.89-.72-1.61-1.61-1.61h-8.9c-.89,0-1.61.72-1.61,1.61v7.38h-7.38c-.89,0-1.61.72-1.61,1.61v8.9c0,.89.72,1.61,1.61,1.61h7.38v7.38c0,.89.72,1.61,1.61,1.61h8.9c.89,0,1.61-.72,1.61-1.61v-7.38h7.38c.89,0,1.61-.72,1.61-1.61v-8.9c0-.89-.72-1.61-1.61-1.61h-7.38ZM43.55,47.51h-7.38v-5.68h7.38c.89,0,1.61-.72,1.61-1.61v-7.38h5.68v7.38c0,.89.72,1.61,1.61,1.61h7.38v5.68h-7.38c-.89,0-1.61.72-1.61,1.61v7.38h-5.68v-7.38c0-.89-.72-1.61-1.61-1.61Z" fill="#fff"/>
  <path d="M87.25,14.26c-4.91-4.91-11.88-7.72-19.14-7.72h0c-7.71,0-15.03,3.33-20.1,9.15-5.07-5.82-12.39-9.15-20.12-9.15-7.25,0-14.22,2.81-19.12,7.72C2.89,20.12.08,26.59.4,33.5c.36,7.75,4.57,16.04,12.88,25.33,7.04,7.87,15.82,15.17,23.57,21.61,3.71,3.09,7.22,6,10.07,8.6.3.27.68.42,1.09.42s.79-.15,1.08-.42c2.84-2.6,6.34-5.51,10.07-8.6,7.75-6.44,16.53-13.74,23.57-21.61,8.31-9.29,12.53-17.58,12.88-25.33.32-6.9-2.49-13.38-8.35-19.23ZM92.39,33.35c-.32,6.98-4.27,14.61-12.07,23.33-6.88,7.69-15.56,14.91-23.24,21.29-3.29,2.74-6.41,5.33-9.08,7.71-2.68-2.39-5.8-4.98-9.1-7.72-7.66-6.37-16.35-13.59-23.22-21.28-7.8-8.72-11.74-16.35-12.07-23.33-.28-6.05,2.15-11.54,7.41-16.81,4.31-4.31,10.45-6.78,16.87-6.78,7.38,0,14.41,3.54,18.81,9.46.3.41.79.65,1.29.65s.99-.24,1.29-.65c4.4-5.92,11.43-9.46,18.83-9.46h0c6.4,0,12.54,2.47,16.85,6.78,5.27,5.27,7.69,10.77,7.41,16.81Z" fill="#fff"/>
</svg>