<?xml version="1.0" encoding="UTF-8"?>
<svg id="Capa_1" data-name="Capa 1" xmlns="http://www.w3.org/2000/svg" viewBox="0 0 96 96">
  <defs>
    <style>
      .cls-1 {
        fill: #fff;
      }
    </style>
  </defs>
  <path class="cls-1" d="M57.91,1.02c1.29,1.04,1.36,1.68.32,3.06-.75,1-1.5,2-2.28,3.04.33.26.67.15.98.15,5.66,0,11.32,0,16.97,0,3.55,0,5.42,1.88,5.42,5.44,0,25.6,0,51.19,0,76.79,0,3.63-1.85,5.47-5.48,5.47-17.31,0-34.62,0-51.93,0-2.61,0-4.42-1.23-5.04-3.42-.18-.62-.21-1.26-.21-1.91,0-25.69,0-51.38,0-77.07,0-3.42,1.92-5.31,5.37-5.31,5.84,0,11.68,0,17.52,0h1.19c-.62-1.24-1.18-2.36-1.74-3.5-.67-1.35-.51-1.92.73-2.76h.92c.6.39.98.96,1.29,1.6.66,1.37,1.37,2.72,2.03,4.1.2.41.45.57.91.56,2.14-.02,4.27-.03,6.41,0,.49,0,.77-.18,1.05-.56,1.12-1.53,2.27-3.03,3.39-4.55.35-.47.75-.87,1.26-1.16h.92ZM19.8,51.07c0,12.81,0,25.63,0,38.44,0,1.87.47,2.34,2.33,2.34,17.25,0,34.5,0,51.74,0,1.85,0,2.32-.48,2.32-2.35,0-25.57,0-51.13,0-76.7,0-1.93-.46-2.4-2.37-2.4-8.87,0-17.74,0-26.61,0-.4,0-1-.23-1.17.16-.18.39.28.83.49,1.22.3.56.83.23,1.24.22,2.89-.08,5.42,1.76,6.23,4.58.77,2.66-.44,5.65-2.85,7.03-2.53,1.45-5.59,1.06-7.6-.96-2.05-2.06-2.56-5.32-.8-7.63,1.06-1.38.91-2.36.08-3.57-.05-.08-.1-.16-.13-.24-.19-.66-.62-.83-1.3-.83-6.3.03-12.6.02-18.9.02-2.38,0-2.73.34-2.73,2.68,0,12.66,0,25.32,0,37.98ZM45.4,16.58c-.81,1.59-.6,2.97.51,3.97,1.06.95,2.53,1.09,3.72.34,1.2-.75,1.75-2.16,1.36-3.48-.39-1.32-1.45-2.16-2.72-2.14.34.7.69,1.37,1.01,2.06.46.99.21,1.89-.61,2.29-.84.41-1.66.08-2.18-.89-.36-.66-.69-1.34-1.1-2.15Z"/>
  <path class="cls-1" d="M63.65,43.32c0,4.86-.01,9.72.02,14.58,0,.79-.13,1.1-1.03,1.09-9.75-.04-19.51-.03-29.26,0-.78,0-1.04-.15-1.04-.99.03-9.81.03-19.63,0-29.44,0-.68.13-.94.89-.94,9.84.03,19.69.03,29.53,0,.76,0,.9.25.89.93-.03,4.92-.01,9.84-.01,14.77ZM60.51,43.35c0-3.88-.02-7.77.02-11.65,0-.78-.22-.95-.97-.95-7.7.03-15.41.03-23.11,0-.87,0-.98.3-.97,1.05.02,7.25.01,14.49.01,21.74,0,2.4,0,2.39,2.43,2.33.55-.01.71-.18.75-.73.22-2.8,1.46-5.09,3.72-6.75.67-.49.62-.72.07-1.25-2.28-2.23-2.9-5.54-1.64-8.45,1.24-2.86,4.2-4.81,7.23-4.77,3.11.05,6.01,2.01,7.18,4.85,1.22,2.98.6,6.14-1.74,8.43-.58.57-.41.78.14,1.18,1.88,1.37,3.01,3.24,3.57,5.49.16.64-.14,1.57.39,1.87.53.31,1.37.05,2.06.13.78.09.89-.28.89-.95-.03-3.85-.01-7.7-.01-11.56ZM48.03,46.41c2.58-.02,4.67-2.11,4.66-4.68,0-2.56-2.11-4.67-4.67-4.69-2.57-.02-4.75,2.17-4.7,4.74.04,2.58,2.14,4.64,4.71,4.62ZM48.01,55.84c1.83,0,3.66-.02,5.49.01.63.01.77-.19.71-.79-.33-3.05-3.08-5.48-6.22-5.47-3.16,0-5.89,2.46-6.2,5.5-.07.64.15.78.73.77,1.83-.03,3.66-.01,5.49-.01Z"/>
  <path class="cls-1" d="M47.96,84c-4.86,0-9.72,0-14.58,0-.21,0-.43,0-.64,0-1.24-.02-1.97-.61-1.96-1.57.01-.95.76-1.56,2-1.56,10.15,0,20.29,0,30.44,0,1.51,0,2.36,1.01,1.86,2.17-.34.8-1.02.97-1.8.96-4.06,0-8.13,0-12.19,0-1.04,0-2.08,0-3.12,0Z"/>
  <path class="cls-1" d="M48.04,73.06c4.95,0,9.9,0,14.85,0,1.56,0,2.34.53,2.32,1.58-.01,1.04-.79,1.56-2.36,1.56-9.9,0-19.8,0-29.7,0-.42,0-.86-.01-1.27-.12-.74-.2-1.11-.78-1.08-1.51.03-.72.43-1.28,1.2-1.42.39-.07.79-.08,1.19-.08,4.95,0,9.9,0,14.85,0Z"/>
  <path class="cls-1" d="M48.04,65.24c4.95,0,9.9,0,14.85,0,.34,0,.68-.02,1.01.04.8.14,1.26.66,1.3,1.44.04.73-.33,1.31-1.07,1.52-.34.1-.72.12-1.08.12-10.02,0-20.04,0-30.07,0-.33,0-.68,0-1-.09-.79-.2-1.17-.76-1.18-1.54,0-.75.6-1.37,1.38-1.47.3-.04.61-.03.92-.03,4.98,0,9.96,0,14.94,0Z"/>
</svg>