<?xml version="1.0" encoding="UTF-8"?>
<svg id="Layer_1" data-name="Layer 1" xmlns="http://www.w3.org/2000/svg" viewBox="0 0 96 96">
  <path d="M37.37,87.43l1.64,4.09c.97,2.42,3.27,3.98,5.88,3.98h6.23c2.61,0,4.91-1.56,5.88-3.98l1.64-4.09c2.07-.51,3.62-2.37,3.62-4.6v-14.46c1.73-.51,3.08-1.96,3.35-3.78.56-3.83,2.39-7.62,4.91-10.16,6.58-6.65,9.87-15.82,9.03-25.16-1.33-14.91-13.07-26.93-27.92-28.57-9.16-1.02-17.92,1.78-24.72,7.87-6.71,6.01-10.55,14.61-10.55,23.59s3.37,16.57,9.48,22.58c2.38,2.34,4.05,5.85,4.58,9.65.27,1.94,1.61,3.44,3.35,3.97v14.47c0,2.23,1.55,4.09,3.62,4.6h0ZM40.08,39.96c-2.12-.35-3.58-1.45-4.01-3.08-.29-1.1.01-2.25.69-2.63.23-.13.46-.18.67-.18.36,0,.67.14.86.25.86.5,1.79,1.87,1.79,4.18v1.46h0ZM52.75,65.42h-9.5v-22.34c.75-.17,1.37-.45,1.94-.7.85-.38,1.59-.71,2.81-.71s1.96.33,2.81.71c.57.25,1.19.53,1.94.7v22.34ZM59.08,68.59v3.17h-22.17v-3.17h22.17ZM36.92,74.92h22.17v3.17h-22.17v-3.17ZM51.12,92.33h-6.23c-1.3,0-2.46-.78-2.94-1.99l-1.11-2.76h14.32l-1.11,2.76c-.48,1.21-1.64,1.99-2.94,1.99h0ZM57.5,84.42h-19c-.87,0-1.58-.71-1.58-1.58v-1.58h22.17v1.58c0,.87-.71,1.58-1.58,1.58ZM28.04,52.49c-5.5-5.41-8.54-12.63-8.54-20.32,0-8.09,3.46-15.83,9.5-21.23,5.3-4.74,11.93-7.27,18.97-7.27,1.09,0,2.19.06,3.3.18,13.36,1.48,23.92,12.29,25.11,25.7.76,8.41-2.21,16.67-8.13,22.65-3.02,3.04-5.12,7.39-5.79,11.93-.11.73-.77,1.28-1.55,1.28h-5v-22.26c4.25-.51,6.44-3.07,7.07-5.47.67-2.54-.23-5.09-2.19-6.2-1.44-.82-3.19-.78-4.69.09-2.1,1.23-3.36,3.81-3.36,6.91v1.26c-.21-.08-.42-.18-.66-.28-.98-.44-2.21-.98-4.09-.98s-3.11.54-4.09.98c-.23.1-.45.2-.66.28v-1.26c0-3.1-1.26-5.69-3.36-6.91-1.49-.88-3.25-.91-4.69-.1-1.96,1.11-2.86,3.66-2.19,6.2.63,2.41,2.82,4.96,7.07,5.47v22.26h-4.97c-.79,0-1.46-.61-1.58-1.46-.63-4.53-2.59-8.61-5.5-11.46ZM55.92,39.96v-1.46c0-2.31.92-3.67,1.79-4.18.19-.11.5-.25.86-.25.21,0,.44.05.67.18.67.38.98,1.54.69,2.63-.43,1.63-1.88,2.72-4.01,3.08h0Z" fill="#fff"/>
</svg>