<?xml version="1.0" encoding="UTF-8"?>
<svg id="Layer_1" data-name="Layer 1" xmlns="http://www.w3.org/2000/svg" viewBox="0 0 96 96">
  <defs>
    <style>
      .cls-1 {
        fill: #fff;
      }
    </style>
  </defs>
  <path class="cls-1" d="M50.24,96.57h-4.1c-4.87,0-8.84-3.96-8.84-8.84v-1.5h21.78v1.5c0,4.87-3.96,8.84-8.84,8.84ZM40.5,89.23c.66,2.49,2.94,4.34,5.64,4.34h4.1c2.7,0,4.98-1.84,5.64-4.34h-15.39Z"/>
  <rect class="cls-1" x="33.39" y="79.69" width="30.76" height="3"/>
  <rect class="cls-1" x="36.17" y="73.71" width="24.35" height="3"/>
  <rect class="cls-1" x="47.28" y="67" width="3" height="8.21"/>
  <path class="cls-1" d="M52.6,61.74h-8.35l-.53-7.23c-.93-.39-1.8-.9-2.6-1.51l-6.54,3.15-4.17-7.23,5.99-4.08c-.06-.5-.1-1.01-.1-1.51s.03-1,.1-1.51l-5.99-4.08,4.17-7.23,6.53,3.15c.81-.61,1.68-1.12,2.6-1.51l.53-7.23h8.35l.53,7.23c.93.39,1.8.9,2.6,1.51l6.53-3.15,4.18,7.23-5.99,4.08c.06.5.1,1.01.1,1.51s-.03,1.01-.09,1.51l5.99,4.08-4.18,7.23-6.53-3.15c-.81.62-1.68,1.12-2.6,1.51l-.53,7.23ZM47.04,58.74h2.78l.47-6.41.96-.31c1.21-.39,2.31-1.03,3.28-1.9l.75-.67,5.8,2.8,1.39-2.41-5.31-3.62.21-.99c.13-.63.2-1.26.2-1.9s-.07-1.27-.2-1.9l-.21-.99,5.31-3.62-1.39-2.41-5.8,2.8-.75-.67c-.97-.87-2.07-1.51-3.28-1.9l-.96-.31-.47-6.41h-2.78l-.47,6.41-.96.31c-1.21.39-2.31,1.03-3.27,1.9l-.75.67-5.8-2.8-1.39,2.41,5.31,3.62-.21.98c-.13.63-.2,1.27-.2,1.9s.07,1.27.2,1.9l.21.98-5.31,3.62,1.39,2.41,5.8-2.8.75.67c.96.87,2.07,1.51,3.27,1.9l.96.31.47,6.41Z"/>
  <path class="cls-1" d="M48.43,49.87c-3.6,0-6.53-2.93-6.53-6.53s2.93-6.53,6.53-6.53,6.53,2.93,6.53,6.53-2.93,6.53-6.53,6.53ZM48.43,39.81c-1.95,0-3.53,1.58-3.53,3.53s1.58,3.53,3.53,3.53,3.53-1.58,3.53-3.53-1.58-3.53-3.53-3.53Z"/>
  <polygon class="cls-1" points="23.4 36.5 23.4 36.49 26.4 36.49 23.4 36.5"/>
  <path class="cls-1" d="M57.93,89.23h-19.16c-2.26,0-4.1-1.84-4.1-4.1v-18.19c.01-.32.03-.92-.07-1.1-.01.02-.13-.03-.4-.03h-6.26c-2.56,0-4.65-2.28-4.65-5.09v-4.6c-1.54-.03-2.89-.1-3.79-.78-1.5-1.19-1.95-3.19-1.17-5l4.24-9.81c.14-1.41.42-2.83.82-4.25h0s.06-.21.06-.21c1.11-3.83,3.13-7.4,5.83-10.33,2.25-2.45,4.91-4.41,7.89-5.84l.32-.15c3.38-1.58,7-2.39,10.79-2.42h.15c14.39,0,25.79,11.23,25.99,25.64.12,8.52-3.94,16.57-10.88,21.54-.96.68-1.53,1.79-1.53,2.95v17.67c0,2.26-1.83,4.1-4.09,4.1ZM24.21,53.11c1.15,0,2.08.97,2.08,2.16v5.44c0,1.13.75,2.09,1.65,2.09h6.26c1.08,0,1.94.32,2.56.94.97.99.94,2.35.92,3.26v.33s0,17.79,0,17.79c0,.61.49,1.1,1.1,1.1h19.16c.6,0,1.09-.49,1.09-1.1v-17.67c0-2.13,1.04-4.15,2.78-5.39,6.14-4.4,9.74-11.52,9.63-19.05-.18-12.74-10.27-22.68-22.99-22.68h-.13c-3.45.02-6.75.79-9.81,2.27l-.32.15c-2.51,1.25-4.76,2.94-6.68,5.02-2.35,2.55-4.11,5.64-5.1,8.96l-.05.19c-.4,1.38-.67,2.77-.8,4.14l-.05.54-.19.19-4.21,9.74c-.24.55-.14,1.13.25,1.44.33.17,1.83.15,2.4.15h.47ZM24.05,40.94h-.01s.01,0,.01,0Z"/>
  <rect class="cls-1" x="46.85" y=".93" width="3" height="11.47"/>
  <rect class="cls-1" x="69.42" y="13.78" width="11.47" height="3" transform="translate(11.21 57.62) rotate(-45)"/>
  <rect class="cls-1" x="82.2" y="41.18" width="11.47" height="3"/>
  <rect class="cls-1" x="19.34" y="9.55" width="3" height="11.47" transform="translate(-4.7 19.21) rotate(-45)"/>
  <rect class="cls-1" x="2.33" y="41.18" width="11.47" height="3"/>
</svg>