<?xml version="1.0" encoding="UTF-8"?>
<svg id="Layer_1" xmlns="http://www.w3.org/2000/svg" version="1.1" viewBox="0 0 96 96">
  <!-- Generator: Adobe Illustrator 29.3.1, SVG Export Plug-In . SVG Version: 2.1.0 Build 151)  -->
  <defs>
    <style>
      .st0 {
        fill: #fff;
      }
    </style>
  </defs>
  <path class="st0" d="M48.2,1.3c-17.3-.1-31.4,13.8-31.5,31,0,8.8,3.7,17.2,10.1,23.2,2.3,2.1,3.6,5.1,3.5,8.2v3.9c0,1.8,1.3,3.3,3,3.6v9.4c0,.5,0,.9.1,1.4.6,3.5,3.2,6.3,6.5,7.1.8,3,3.4,5.3,6.6,5.5h2.6c3,0,5.6-2.2,6.7-5.6,3.3-.8,6-3.6,6.6-7.1,0-.5.1-.9.1-1.4v-9.4c1.7-.3,3-1.8,3-3.6v-2.2c0-4,1.6-7.8,4.4-10.6,5.9-5.8,9.2-13.7,9.3-22,.1-17.3-13.8-31.4-31-31.5ZM36.7,80.1v-2.3h22.4v2.3h-22.4ZM59.2,74.4h-22.4v-3.1h22.4v3.1ZM49.2,91.3h-2.6c-1.1,0-2.1-.8-2.8-1.9h8.3c-.7,1-1.7,1.8-3,1.9ZM53.8,86.1h-11.7c-2,0-3.7-1-4.7-2.6h21c-1,1.6-2.7,2.6-4.6,2.6ZM67.6,52.4c-3.4,3.5-5.4,8.2-5.4,13.1v2.2c0,.2-.1.3-.3.3h-27.9c-.2,0-.3-.2-.3-.3v-3.9c0-4-1.7-7.9-4.6-10.7-5.8-5.4-9-12.9-9-20.8,0-15.4,12.5-28,27.9-28,7.4,0,14.5,3,19.7,8.3,11,11,10.9,28.8,0,39.8Z"/>
</svg>