<?xml version="1.0" encoding="utf-8"?>
<!-- Generator: Adobe Illustrator 27.9.6, SVG Export Plug-In . SVG Version: 9.03 Build 54986)  -->
<svg version="1.1" id="Layer_1" xmlns="http://www.w3.org/2000/svg" xmlns:xlink="http://www.w3.org/1999/xlink" x="0px" y="0px"
	 viewBox="0 0 96 96" style="enable-background:new 0 0 96 96;" xml:space="preserve">
<style type="text/css">
	.st0{fill-rule:evenodd;clip-rule:evenodd;fill:#FFFFFF;}
</style>
<path class="st0" d="M78.2,27.4c-2-5-5.6-9.3-10.2-12.2C66.4,8.1,60.1,3,52.8,3l0,0c-4.2,0-8.2,1.7-11.1,4.7c-1.9,2-3.3,4.4-4.1,7
	c-7.7,4.9-12.3,13.5-12.4,22.6V46l-9,14.8c-0.4,0.6-0.2,1.3,0.4,1.7c0.2,0.1,0.4,0.2,0.6,0.2h7.6v7.9c0,2.8,2.3,5.1,5.1,5.1h7.3
	c1.4,0,2.6,1.2,2.6,2.6v13.6c0,0.7,0.5,1.2,1.2,1.2l0,0h30.9c0.7,0,1.2-0.6,1.2-1.2V63.3c-0.1-4.6,1.2-9.2,3.6-13.2
	C80.5,43.2,81.1,34.9,78.2,27.4L78.2,27.4z M43.4,9.4c2.5-2.5,5.8-4,9.3-4l0,0c6.4,0,11.9,4.6,13,10.9c0.7,3.7-0.1,8.5-1.6,10.8
	c-1.2,1.4-2.2,3-3,4.6c-0.4,0.8-0.7,1.6-1,2.4h-6.2v-5.9c3.4-0.7,5.6-4,4.9-7.3s-4-5.6-7.3-4.9c-3.4,0.7-5.6,4-4.9,7.3
	c0.5,2.5,2.4,4.4,4.9,4.9v5.9h-6.2C44.7,32.6,44,31,43,29.5c-0.3-0.5-0.7-0.9-1-1.4c-1.9-2.1-2.8-6.4-2.5-10.3
	C39.8,14.7,41.2,11.7,43.4,9.4L43.4,9.4z M45.6,42.5h14.3V45l-1.7,1.7H47.3L45.6,45V42.5L45.6,42.5z M61.8,40.1H43.6
	c-0.9,0-1.6-0.7-1.6-1.6v-0.4l1.4-1.4H62l1.4,1.4v0.4C63.4,39.3,62.6,40,61.8,40.1L61.8,40.1z M52.7,26c-2.1,0-3.8-1.7-3.8-3.8
	s1.7-3.8,3.8-3.8s3.8,1.7,3.8,3.8S54.8,26,52.7,26L52.7,26z M74.6,48.9c-2.6,4.3-4,9.3-3.9,14.4v27.2H42.2V78.2
	c0-2.8-2.3-5.1-5.1-5.1h-7.3c-1.4,0-2.6-1.2-2.6-2.6v-9.1c0-0.7-0.5-1.2-1.2-1.2h-6.6L27.5,47c0.1-0.2,0.2-0.4,0.2-0.6v-9
	c0-7.5,3.4-14.6,9.3-19.2v0.1c0,0.4,0,0.7,0,1.1c0.1,4.5,1.1,7.9,3.1,10.4c1.1,1.3,2,2.9,2.6,4.5c-0.2,0.1-0.4,0.2-0.6,0.3L40,36.7
	c-0.2,0.2-0.4,0.5-0.4,0.9v0.9c0,2,1.5,3.7,3.5,4v3.1c0,0.3,0.1,0.6,0.4,0.9L46,49c0.2,0.2,0.5,0.4,0.9,0.4h11.8
	c0.3,0,0.6-0.1,0.9-0.4l2.5-2.5c0.2-0.2,0.4-0.5,0.4-0.9v-3.1c2-0.3,3.5-2,3.5-4v-0.9c0-0.3-0.1-0.6-0.4-0.9l-2.1-2.1
	c-0.2-0.2-0.4-0.3-0.6-0.3c0.7-1.7,1.6-3.3,2.7-4.7c2-2.6,3-6,3-10.8c0-0.1,0-0.2,0-0.3c3.3,2.5,5.9,5.9,7.5,9.9
	C78.5,35.1,78,42.6,74.6,48.9L74.6,48.9z"/>
</svg>
