<?xml version="1.0" encoding="UTF-8"?>
<svg id="Capa_1" data-name="Capa 1" xmlns="http://www.w3.org/2000/svg" viewBox="0 0 96 96">
  <path d="M32.73,81.47c-.82-.11-1.58.46-1.7,1.29l-1.52,11.03c-.06.43.07.86.36,1.19s.7.52,1.13.52c.75,0,1.39-.56,1.49-1.3l1.52-11.03c.11-.82-.46-1.58-1.28-1.7Z" fill="#fff"/>
  <path d="M65.7,82.76c-.11-.82-.88-1.4-1.7-1.28-.82.11-1.4.87-1.28,1.7l1.52,11.03c.1.74.74,1.3,1.49,1.3.43,0,.84-.19,1.13-.52.29-.33.42-.76.36-1.19l-1.52-11.03h0Z" fill="#fff"/>
  <path d="M94.42,53.13l-5.09-11.68c-1.83-4.2-6.53-6.4-10.93-5.13l-2.93.85c-1.58.46-2.89,1.59-3.59,3.12-.71,1.53-.72,3.26-.04,4.76l.76,1.68c.51,1.14,1.45,2.01,2.64,2.46,1.02.39,2.12.41,3.12.08l2.11,5.03c-2.48-.45-4.9.46-6.6,2.5-2.97-2.2-7.49-2.89-10.48-.37-1.47-.76-3.15-1.4-5.21-1.98,2.06-1.81,3.58-4.11,4.45-6.72,2.39-.35,4.22-2.44,4.22-4.91,0-1.72-.88-3.3-2.32-4.2,1.45-7.4-2.5-16.44-12.99-19.69-5.2-1.61-9.21-.55-11.38,2.97-.53-.35-1.23-.42-1.91-.16-1.69.66-4.59,4.04-6.04,7.84-1.07,2.8-1.35,5.89-.84,9.17-1.38.91-2.22,2.43-2.22,4.06,0,2.47,1.83,4.56,4.22,4.91.87,2.61,2.39,4.91,4.45,6.72-2.05.58-3.73,1.22-5.21,1.98-2.99-2.52-7.51-1.83-10.48.37-1.69-2.04-4.12-2.94-6.6-2.5l2.11-5.03c1.01.33,2.1.3,3.12-.08,1.19-.45,2.13-1.32,2.64-2.46l.76-1.68c.68-1.5.66-3.23-.04-4.76-.71-1.53-2.01-2.67-3.59-3.12l-2.93-.85c-4.4-1.27-9.1.93-10.93,5.13l-5.09,11.68c-2.21,5.07-.97,10.94,3.1,14.6,5.37,4.83,12.6,6.21,17.92,6.49l-2.59,19.58c-.11.8.46,1.55,1.25,1.68.4.06.81-.04,1.13-.28.33-.25.54-.6.59-1.01l3.17-24.02c1.21-9.17,9.78-12.36,14.96-13.45v3.78c0,3.79,3.09,6.88,6.88,6.88s6.88-3.09,6.88-6.88v-3.78c5.18,1.09,13.75,4.28,14.96,13.45l3.17,24.02c.05.4.27.76.59,1.01.26.2.58.3.9.3.08,0,.15,0,.23-.02.8-.13,1.36-.88,1.25-1.68l-2.59-19.58c5.31-.28,12.55-1.66,17.92-6.49,4.07-3.66,5.31-9.52,3.1-14.6h.02ZM89.31,65.49c-4.79,4.31-11.42,5.51-16.3,5.74l-.19-1.45c-.6-4.55-3-8.72-6.63-11.56,2.32-1.05,5.15.08,6.9,1.9.34.35.84.51,1.33.43.49-.08.91-.4,1.12-.84.54-1.17,1.4-1.95,2.49-2.25,1.34-.38,2.96-.04,4.43.94.56.37,1.26.33,1.78-.11.52-.43.7-1.11.44-1.73l-4.15-9.9c-.41-.76-1.12-1.04-1.99-.74l-.93.43c-.4.18-.87.19-1.3.03s-.78-.48-.96-.88l-.76-1.68c-.32-.71-.31-1.53.02-2.26.34-.73.96-1.27,1.71-1.49l2.93-.85c2.95-.85,6.1.62,7.33,3.44l5.09,11.68c1.69,3.88.75,8.37-2.35,11.16h-.01ZM61.77,36.81l-3.41-3.73v-.66c0-2.75-2.24-4.99-4.99-4.99-.83,0-1.5.67-1.5,1.5s.68,1.5,1.5,1.5c1.09,0,1.98.89,1.98,1.98v.72c-1.83,2.26-4.57,3.55-7.56,3.55h-.04c-3.06,0-5.86-1.38-7.66-3.72-.33-.5-.88-.8-1.43-.8h0c-.48,0-.9.23-1.19.66l-3.22,4.8c-.3-2.51-.04-4.85.77-6.97.76-1.99,1.97-3.73,2.94-4.85.03.77.25,1.54,1.19,1.84,1.53.48,2.23-1.21,2.56-2.02l.05-.13c1.7-4.05,4.27-5.12,8.89-3.7,6.28,1.94,11.92,7.66,11.12,15.01h0ZM34.7,40.89c.56.07,1.12-.18,1.43-.66l2.75-4.1c2.34,2.28,5.54,3.57,8.91,3.57h.1c3.43-.03,6.68-1.39,9-3.77l4.07,4.45c.27.3.64.47,1.04.49,1.03.05,1.84.9,1.84,1.94s-.86,1.95-1.93,1.95c-.52,0-1.6,0-1.88,1.11-1.39,5.54-6.34,9.41-12.03,9.41s-10.64-3.87-12.03-9.41c-.17-.67-.77-1.14-1.46-1.14-1.14,0-2.35-.5-2.35-1.92,0-.66.34-1.1.63-1.35.43-.38,1.04-.6,1.63-.6.1,0,.19,0,.28.02h0ZM51.87,57.8v2.7c0,2.13-1.74,3.87-3.87,3.87s-3.87-1.74-3.87-3.87v-2.7c2.52.65,5.22.65,7.74,0ZM15.07,38.97c.56,0,1.13.08,1.7.24l2.93.85c.75.22,1.37.76,1.71,1.49.34.73.34,1.55.02,2.26l-.76,1.68c-.2.44-.49.72-.88.85-.6.2-1.45.05-2.36-.44-.82-.28-1.53,0-1.96.81l-4.13,9.85c-.26.62-.09,1.29.44,1.73.52.43,1.22.48,1.78.11,1.48-.98,3.1-1.32,4.45-.94,1.08.31,1.93,1.08,2.47,2.24.21.45.62.77,1.12.85.49.08.99-.08,1.33-.43,1.75-1.82,4.58-2.95,6.9-1.9-3.63,2.83-6.03,7-6.63,11.56l-.19,1.45c-4.88-.23-11.51-1.43-16.3-5.74-3.1-2.79-4.05-7.27-2.35-11.16l5.09-11.68c.99-2.28,3.25-3.68,5.63-3.68h0Z" fill="#fff"/>
  <path d="M48.2,12.39c.83,0,1.5-.67,1.5-1.5V2c0-.83-.67-1.5-1.5-1.5s-1.5.67-1.5,1.5v8.89c0,.83.67,1.5,1.5,1.5Z" fill="#fff"/>
  <path d="M30.15,16.13c.27.46.77.75,1.3.75s1.02-.28,1.29-.76c.27-.47.28-1.04,0-1.5l-4.44-7.69c-.2-.35-.53-.6-.91-.7-.39-.1-.79-.05-1.14.15-.72.41-.97,1.34-.55,2.06l4.44,7.69h.01Z" fill="#fff"/>
  <path d="M10.75,24.5l7.69,4.44c.23.13.49.2.75.2.68,0,1.26-.45,1.44-1.12s-.1-1.35-.68-1.69l-7.69-4.44c-.35-.2-.75-.26-1.14-.15-.39.1-.71.35-.91.7-.41.72-.17,1.64.55,2.06h-.01Z" fill="#fff"/>
  <path d="M77.21,29.14c.26,0,.52-.07.75-.2l7.69-4.44c.35-.2.6-.52.7-.91s.05-.79-.15-1.14c-.2-.35-.52-.6-.91-.7-.39-.1-.79-.05-1.14.15l-7.69,4.44c-.59.34-.86,1.02-.68,1.69s.76,1.12,1.44,1.12h0Z" fill="#fff"/>
  <path d="M64.95,16.88c.54,0,1.04-.29,1.3-.75l4.44-7.69c.41-.72.17-1.64-.55-2.05-.35-.2-.75-.25-1.14-.15s-.71.35-.91.7l-4.44,7.69c-.27.47-.27,1.03,0,1.5s.76.76,1.29.76h.01Z" fill="#fff"/>
</svg>