<?xml version="1.0" encoding="UTF-8"?>
<svg id="Layer_1" data-name="Layer 1" xmlns="http://www.w3.org/2000/svg" viewBox="0 0 96 96">
  <defs>
    <style>
      .cls-1 {
        fill: #fff;
      }
    </style>
  </defs>
  <path class="cls-1" d="M63.97,96H28.03l-.07-17.58v-.09c.49-4.33-1.44-8.55-5.04-11.01-12.03-8.03-13.2-21.44-12.88-32.21C9.83,15.66,24.3.2,42.99,0,66.98,0,78.73,9.67,81.12,31.36c.06.68.09,1.33.11,1.97.06,2.26.55,4.34,1.44,6.19.29.6.61,1.17.96,1.69.88,1.3,4.74,8.42,6.84,12.87.73,1.55.6,3.33-.34,4.76-.95,1.43-2.56,2.23-4.26,2.18l-2.16-.08c-.31-.01-.66.11-.9.34-.24.23-.38.55-.38.88v3.72c0,7.78-6.33,14.11-14.11,14.11h-4.19c-.09,0-.16.07-.16.16v15.83ZM31.02,93h29.95v-12.83c0-1.74,1.42-3.16,3.16-3.16h4.19c6.13,0,11.11-4.99,11.11-11.11v-3.72c0-1.16.46-2.24,1.3-3.05.84-.8,1.94-1.22,3.1-1.18l2.16.08c.67.03,1.27-.28,1.64-.84.37-.56.42-1.22.13-1.83-2.1-4.45-5.86-11.36-6.61-12.46-.43-.64-.83-1.33-1.18-2.07-1.07-2.24-1.66-4.73-1.73-7.41-.02-.58-.05-1.17-.1-1.76-2.21-20.08-12.71-28.66-35.13-28.66-17.27.19-30.16,14.01-29.96,32.14-.3,10.07.74,22.47,11.56,29.7,4.5,3.08,6.93,8.34,6.36,13.74l.06,14.42Z"/>
  <path class="cls-1" d="M57.86,48.48l-12.58-9.14-12.58,9.14,4.81-14.79-12.58-9.14h15.55l4.81-14.79,4.81,14.79h15.55l-12.58,9.14,4.81,14.79ZM45.27,35.62l6.88,5-2.63-8.08,6.88-5h-8.5l-2.63-8.08-2.63,8.08h-8.5l6.88,5-2.63,8.08,6.88-5Z"/>
</svg>