<?xml version="1.0" encoding="UTF-8"?>
<svg id="Capa_1" data-name="Capa 1" xmlns="http://www.w3.org/2000/svg" viewBox="0 0 96 96">
  <path d="M63.13,37.82c-.94.84-1.95,1.59-3.01,2.27,6.06,1.36,11.75,4.23,16.31,8.32,6.77,6.07,10.5,14.21,10.5,22.92v16.75c0,2.19-1.79,3.98-4,3.98h-6.29v-8.81c0-.81-.66-1.47-1.47-1.47s-1.47.66-1.47,1.47v8.81h-29.5c-.02-.28-.04-.55-.06-.81-.11-1.47-.19-2.62-.17-3.69,2.68,1.61,6.61,3.03,9.75,2.38,1.86-.38,3.26-1.46,4.05-3.1.73-1.5.66-3.19-.18-4.75-1.05-1.95-3.21-3.45-5.36-3.73-3.69-.48-7.89.97-9.91,4.09-1.32-1.39-1.99-2.77-1.51-4.88.36-1.61,1.76-2.21,4-3.06,1.13-.43,2.3-.87,3.29-1.57,3.27-2.31,3.47-5.91,3.27-9.18l1.47,2.44c.28.46.76.71,1.26.71.26,0,.52-.07.76-.21.69-.42.92-1.32.5-2.02l-4.32-7.16c-.27-.44-.74-.71-1.26-.71s-.99.27-1.26.71l-4.32,7.16c-.42.69-.2,1.6.5,2.02.69.42,1.6.19,2.02-.5l1.68-2.79c.25,3.41.1,5.66-1.99,7.13-.69.48-1.63.84-2.64,1.22-2.27.86-5.09,1.93-5.82,5.16-.94,4.18,1.3,6.76,3.26,8.53v.02c-.28,1.94-.15,3.64.02,5.99,0,.19.03.4.04.6h-18.96v-8.81c0-.81-.66-1.47-1.47-1.47s-1.47.66-1.47,1.47v8.81h-6.29c-2.2,0-3.99-1.78-3.99-3.98v-16.75c0-8.72,3.73-16.86,10.5-22.92,4.56-4.09,10.26-6.96,16.31-8.32-1.07-.67-2.08-1.43-3.01-2.27-14.95,4.33-26.73,17.19-26.73,33.51v16.75c0,3.81,3.1,6.91,6.93,6.91h69.85c3.83,0,6.93-3.1,6.93-6.91v-16.75c0-16.32-11.78-29.18-26.73-33.51h-.01ZM51.85,81.27c1.22.16,2.55,1.09,3.16,2.22.39.73.44,1.43.12,2.08-.4.83-1.04,1.3-2,1.5-2.52.52-6.4-1.06-8.56-2.62,1.23-2.36,4.45-3.55,7.28-3.18Z" fill="#fff"/>
  <path d="M48,40.66c10.95,0,19.83-8.88,19.83-19.83S58.95,1,48,1s-19.83,8.88-19.83,19.83,8.88,19.83,19.83,19.83ZM48,3.94c9.31,0,16.89,7.58,16.89,16.89s-7.58,16.89-16.89,16.89-16.89-7.58-16.89-16.89S38.69,3.94,48,3.94Z" fill="#fff"/>
</svg>