<?xml version="1.0" encoding="UTF-8"?>
<svg id="Layer_1" data-name="Layer 1" xmlns="http://www.w3.org/2000/svg" viewBox="0 0 96 96">
  <path d="M45.18,19.18l7.26,3.7v3.89c0,2.5,1.89,4.8,4.48,4.8h34.1c2.57,0,4.48-2.29,4.48-4.8V5.3c0-2.5-1.91-4.8-4.48-4.8h-34.1c-2.59,0-4.48,2.29-4.48,4.8v4.56c-2.42,1.24-4.84,2.46-7.26,3.7-2.23,1.14-2.23,4.48,0,5.62ZM46.53,16.21c2.69-1.37,5.36-2.76,8.06-4.14.53-.25.82-.78.82-1.3v-5.47c0-.86.57-1.83,1.51-1.83h34.1c.95,0,1.51.97,1.52,1.83v21.48c0,.86-.57,1.83-1.51,1.83h-34.1c-.95,0-1.51-.97-1.51-1.83v-4.8c0-.63-.4-1.16-.95-1.37l-7.93-4.08c-.11-.04-.15-.23,0-.32Z" fill="#fff"/>
  <path d="M63.17,24.1h13.21c1.96,0,1.96-2.97,0-2.97h-13.21c-1.96,0-1.96,2.97,0,2.97Z" fill="#fff"/>
  <path d="M63.17,10.95h22.26c1.94,0,1.94-2.97,0-2.97h-22.26c-1.96,0-1.96,2.97,0,2.97Z" fill="#fff"/>
  <path d="M63.17,17.52h22.26c1.94,0,1.94-2.97,0-2.97h-22.26c-1.96,0-1.96,2.97,0,2.97Z" fill="#fff"/>
  <path d="M12.18,61.19v-9.93c0-.82-.65-1.49-1.47-1.49s-1.49.67-1.49,1.49v9.93c0,.82.67,1.49,1.49,1.49s1.47-.67,1.47-1.49Z" fill="#fff"/>
  <path d="M89.99,75.45l-11.13-4.19-.59-6.12c2.71-2.4,4.02-5.28,4.02-8.92v-7.7c0-7.13-5.03-11.74-12.05-11.74s-12.08,4.61-12.08,11.74v7.7c0,3.64,1.32,6.52,4.04,8.92l-.55,5.76-11.17,4.54c-3.45,1.51-5.51,4.86-5.51,8.6v9.95c0,.82.65,1.49,1.47,1.49s1.49-.67,1.49-1.49v-9.95c0-2.57,1.33-4.82,3.68-5.87l11.93-4.86c4.5-1.33,8.98-1.03,13.42.38l11.86,4.48c2.38,1.05,3.7,3.3,3.7,5.87v9.95c0,.82.65,1.49,1.47,1.49s1.49-.67,1.49-1.49v-9.95c0-3.74-2.06-7.09-5.51-8.6ZM64.7,69.98l.25-2.69c.04-.38.36-.67.74-.67h9.07c.4,0,.71.29.74.67l.29,3.01c-3.66-.88-7.38-1.05-11.09-.32ZM76.69,62.62c-.59.57-1.26,1.07-1.81,1.07h-9.32c-.44,0-.95-.32-1.43-.76-2.02-1.79-3.01-4-3.01-6.71v-7.7c0-5.51,3.7-8.77,9.11-8.77s9.09,3.26,9.09,8.77v7.7c0,2.57-.84,4.63-2.63,6.39Z" fill="#fff"/>
  <path d="M34.66,58.58c-.82,0-1.49.65-1.49,1.47,0,.82.67,1.49,1.49,1.49s1.47-.67,1.47-1.49-.65-1.47-1.47-1.47Z" fill="#fff"/>
  <path d="M48.4,69.22l3.16-17.99c.42-2.36-1.24-4.44-3.68-4.44h-2.26s0-.08,0-.13v-4.1c0-1.7-.46-3.3-1.33-4.67-.86-1.35-2.1-2.42-3.66-3.11l-7.22-3.13-2.55-2.23-.48-3.58.15-.13c2.27-2.02,3.39-4.8,3.39-7.83v-6.82c0-6.44-4.52-10.58-10.85-10.58s-10.88,4.14-10.88,10.58v6.82c0,3.03,1.11,5.81,3.39,7.83l.15.13-.48,3.58-2.55,2.23-7.22,3.13c-1.56.69-2.8,1.77-3.64,3.11-.88,1.37-1.35,2.97-1.35,4.67v18.62c0,.82.67,1.49,1.49,1.49s1.47-.67,1.47-1.49v-18.62c0-1.16.32-2.21.86-3.07s1.35-1.56,2.33-2l5.93-2.57,2.46,7.76c.25.78,1.07,1.2,1.85.97.04-.02.44-.21.44-.21l4.23-3.11v6.33c0,.11.01.22.04.32-1.68.51-3.07,2-3.38,3.74l-2.46,14.09h0s-7.76,0-7.76,0c-.95,0-1.66.9-1.43,1.85l1.01,4.14c.42,1.68,2.06,2.61,3.7,2.61h32.16c2.36,0,4.54-1.89,4.94-4.21ZM15.12,70.47h-3.83c-.21,0-.57.08-.82-.36l-.57-2.31h5.34l-.17.92c-.08.57-.08,1.18.04,1.75ZM33.55,34.94l5.91,2.57c.99.44,1.79,1.14,2.33,2,.57.86.86,1.91.86,3.07v4.1s0,.08,0,.13h-18.12s0-.08,0-.13v-6.33l4.25,3.09c.13.11.27.17.42.23.78.23,1.62-.19,1.85-.97l2.48-7.76ZM30.92,33.4l-2.04,6.44-3.62-2.65,4.35-4.92,1.3,1.14ZM23.07,3.47c4.69,0,7.89,2.82,7.89,7.61v.63c-6.82,1.56-8.69-3.85-8.69-3.85-.5-1.41-2.25-1.37-2.78-.11-1.09,2.69-3.11,2.61-4.27,2.31.44-4.31,3.62-6.61,7.85-6.61ZM15.18,17.9v-4.8c1.64.32,3.89.21,5.66-1.87,1.58,2.06,4.67,4.54,10.12,3.51v3.16c0,2.19-.76,4.14-2.4,5.62-.19.19-.4.38-.61.57-.08.06-.17.13-.23.21-.69.61-1.41,1.2-2.27,1.54-1.22.48-3.53.48-4.78,0-.86-.34-1.58-.93-2.27-1.54-.06-.08-.13-.15-.21-.21-.21-.19-.42-.38-.63-.57-1.64-1.47-2.38-3.43-2.38-5.62ZM17.24,39.84l-2.04-6.44,1.3-1.14,4.37,4.92-3.64,2.65ZM18.19,29.72l.23-1.7c.36.21.74.4,1.18.57h0c1.94.78,4.99.78,6.94,0,.42-.17.8-.36,1.16-.57l.23,1.7-4.86,5.49-4.88-5.49ZM43.46,70.47h-24.47c-.74,0-1.09-.53-.99-1.24,1.05-6,2.1-11.99,3.16-17.99.15-.78.93-1.47,1.7-1.47h25.01c.57,0,.86.4.76.97l-3.16,17.99c-.17.93-1.07,1.75-2.02,1.75Z" fill="#fff"/>
</svg>