<?xml version="1.0" encoding="UTF-8"?>
<svg id="Capa_1" data-name="Capa 1" xmlns="http://www.w3.org/2000/svg" viewBox="0 0 96 96">
  <path d="M62.49,34.98l-2.35.69c-.34.1-.64.31-.86.63-.18.28-.27.59-.25.91l.1,2.41c.02.41.19.79.5,1.07.3.28.69.42,1.1.4.57-.02,1.06-.36,1.3-.83,3.58,3.32,5.74,7.81,6.11,12.74.06.79.73,1.42,1.53,1.42h.12c.41-.04.78-.22,1.05-.53.27-.31.4-.71.37-1.11-.44-5.86-3.07-11.18-7.41-15.05.53-.36.8-1.04.61-1.7-.24-.81-1.09-1.28-1.9-1.04h-.02Z" fill="#fff"/>
  <path d="M67.65,20.15c9.03,5.89,15.22,15.25,17.09,25.81l-1.27-.77c-.35-.21-.76-.27-1.16-.18-.4.1-.73.35-.94.7-.21.35-.27.76-.17,1.16s.35.73.7.94l4,2.41c.24.15.52.23.8.23h.31l.03-.03c.28-.06.54-.21.75-.41l3.35-3.35c.6-.6.6-1.57,0-2.17-.29-.29-.67-.45-1.08-.45h0c-.41,0-.79.16-1.08.45l-1.17,1.17c-.89-5.15-2.77-10.19-5.46-14.63-3.25-5.37-7.75-10.02-13.01-13.44-.71-.46-1.66-.26-2.12.45-.46.71-.26,1.66.45,2.12h-.02Z" fill="#fff"/>
  <path d="M40.36,71.97c-.76-.37-1.68-.04-2.05.72-.18.37-.2.78-.06,1.17s.41.7.78.87c5.3,2.55,11.21,2.93,16.74,1.11.02.24.09.47.22.68.21.35.55.6.95.69.12.03.24.04.36.04.71,0,1.32-.48,1.49-1.17l.58-2.38c.09-.34.05-.7-.12-1.07-.15-.29-.38-.52-.66-.66l-2.14-1.12c-.75-.39-1.68-.1-2.07.65-.19.36-.23.78-.11,1.17.04.13.1.26.18.38-4.67,1.44-9.64,1.06-14.09-1.08Z" fill="#fff"/>
  <path d="M85.68,68.43c1.88-1.62,2.98-3.97,2.98-6.48,0-4.71-3.83-8.54-8.54-8.54s-8.54,3.83-8.54,8.54c0,2.5,1.1,4.86,2.98,6.48-6.12,2.3-10.32,8.28-10.32,14.87,0,.85.69,1.53,1.53,1.53h28.69c.85,0,1.53-.69,1.53-1.53,0-6.59-4.2-12.57-10.32-14.87h0ZM92.84,81.77h-25.44c.76-6.37,6.25-11.28,12.72-11.28s11.96,4.91,12.72,11.28ZM80.12,56.48c3.02,0,5.47,2.46,5.47,5.47s-2.46,5.47-5.47,5.47-5.47-2.46-5.47-5.47,2.46-5.47,5.47-5.47Z" fill="#fff"/>
  <path d="M33.65,31.67h28.69c.85,0,1.53-.69,1.53-1.53,0-6.59-4.2-12.57-10.32-14.87,1.88-1.62,2.98-3.97,2.98-6.48,0-4.71-3.83-8.54-8.54-8.54s-8.54,3.83-8.54,8.54c0,2.5,1.1,4.86,2.98,6.48-6.12,2.3-10.32,8.28-10.32,14.87,0,.85.69,1.53,1.53,1.53h.01ZM48,17.33c6.47,0,11.96,4.91,12.72,11.28h-25.44c.76-6.37,6.25-11.28,12.72-11.28ZM42.53,8.79c0-3.02,2.46-5.47,5.47-5.47s5.47,2.46,5.47,5.47-2.46,5.47-5.47,5.47-5.47-2.46-5.47-5.47Z" fill="#fff"/>
  <path d="M31.76,83.3c0-6.59-4.2-12.57-10.32-14.87,1.88-1.62,2.98-3.97,2.98-6.48,0-4.71-3.83-8.54-8.54-8.54s-8.54,3.83-8.54,8.54c0,2.5,1.1,4.86,2.98,6.48-6.12,2.3-10.32,8.28-10.32,14.87,0,.85.69,1.53,1.53,1.53h28.69c.85,0,1.53-.69,1.53-1.53h0ZM28.6,81.77H3.16c.76-6.37,6.25-11.28,12.72-11.28s11.96,4.91,12.72,11.28ZM15.88,56.48c3.02,0,5.47,2.46,5.47,5.47s-2.46,5.47-5.47,5.47-5.47-2.46-5.47-5.47,2.46-5.47,5.47-5.47Z" fill="#fff"/>
  <path d="M65.19,87.44c-.39-.13-.8-.1-1.17.09-9.62,4.88-20.82,5.55-30.9,1.89l1.3-.72c.36-.2.62-.52.73-.92s.07-.81-.13-1.17-.52-.62-.92-.73c-.39-.11-.81-.07-1.17.13l-4.09,2.26c-.28.15-.5.38-.68.75-.13.32-.16.67-.07,1l1.22,4.58c.18.67.79,1.14,1.48,1.14.13,0,.27-.02.4-.05.4-.11.73-.36.93-.71s.26-.77.15-1.16l-.43-1.6c4.9,1.8,10.21,2.7,15.4,2.58,6.27-.13,12.55-1.7,18.14-4.54.37-.19.64-.5.76-.89.13-.39.09-.8-.09-1.17-.19-.37-.5-.64-.89-.76h.03Z" fill="#fff"/>
  <path d="M26.81,54.01c.25.24.58.39.93.42h.13c.3,0,.58-.08.83-.24l2.04-1.29c.35-.22.59-.56.68-.96.09-.4.02-.81-.2-1.16-.22-.35-.56-.59-.96-.68-.14-.03-.28-.04-.42-.04,1.09-4.76,3.9-8.88,7.98-11.66.7-.48.88-1.43.4-2.13s-1.43-.88-2.13-.4c-4.86,3.32-8.15,8.24-9.33,13.94-.58-.28-1.3-.17-1.77.32-.58.61-.56,1.58.05,2.17l1.77,1.69v.02Z" fill="#fff"/>
  <path d="M5.87,52.14h.08c.81,0,1.49-.63,1.53-1.45.58-10.77,5.6-20.8,13.81-27.71l-.03,1.49c-.02.84.66,1.54,1.5,1.56.85.02,1.55-.66,1.56-1.5l.09-4.67c0-.33-.09-.65-.28-.93-.21-.29-.51-.5-.86-.59l-4.57-1.23c-.82-.22-1.66.27-1.88,1.08-.11.4-.05.81.15,1.16.2.35.53.61.93.71l1.6.43c-4.01,3.35-7.44,7.5-9.94,12.05-3.02,5.5-4.8,11.72-5.14,17.98-.04.84.6,1.57,1.45,1.61h0ZM5.9,51.64h0Z" fill="#fff"/>
</svg>