<?xml version="1.0" encoding="UTF-8"?>
<svg id="Layer_1" xmlns="http://www.w3.org/2000/svg" version="1.1" viewBox="0 0 96 96">
  <!-- Generator: Adobe Illustrator 29.3.1, SVG Export Plug-In . SVG Version: 2.1.0 Build 151)  -->
  <defs>
    <style>
      .st0 {
        fill: #fff;
      }
    </style>
  </defs>
  <path class="st0" d="M88.2,51.8c3.7-4.9,5.8-10.9,5.8-17.1,0-15.5-12.6-28.2-28.2-28.2s-27.9,12.4-28.1,27.7c-2.4-.7-4.9-1-7.4-1-15.6,0-28.5,12.9-28.2,28.2-.1,3,.8,7,1.5,9.2s2.5,5.6,4.3,7.9l-5.6,8.8c-.3.5-.3,1.2,0,1.6.3.4.8.6,1.2.6.1,0,.2,0,.3,0,.1,0,13.6-3,13.6-3,3.9,2,8.3,3.1,12.8,3.1,15.4,0,27.9-12.4,28.1-27.7,6.7,1.8,14,1.1,20.2-2l13.6,3c.1,0,.2,0,.3,0,.5,0,.9-.2,1.2-.6.3-.5.4-1.1,0-1.6l-5.6-8.8ZM29.3,86.5c-2.6-.1-4.9-.5-7.2-1.3-1.3-.4-2.6-1-3.8-1.6-.2-.1-.5-.2-.7-.2s-.2,0-.3,0l-10.7,2.4,4.2-6.7c.3-.5.3-1.2-.1-1.7-3.7-4.5-5.8-10.2-5.8-16,0-13.9,11.3-25.2,25.2-25.2s25.2,11.3,25.2,25.2-10.8,24.7-24.2,25.2c-.3,0-1.9,0-1.9,0ZM78.6,56.8c-.3,0-.7,0-1,.1-5.9,3.1-13,3.8-19.4,1.8-1-10.7-8-19.7-17.6-23.5,0-.2,0-.4,0-.5,0-13.9,11.3-25.2,25.2-25.2h0c13.9,0,25.2,11.5,25.2,25.2.1,2-.7,6.7-1.6,8.9s-2.4,5-4.2,7.2c-.4.5-.5,1.2-.1,1.7l4.2,6.7-10.7-2.4Z"/>
  <path class="st0" d="M30.2,70.2c-1.2,0-2.2,1-2.2,2.2s1,2.2,2.2,2.2,2.2-1,2.2-2.2-1-2.2-2.2-2.2Z"/>
  <path class="st0" d="M30.2,46.5c-4.1,0-7.4,3.3-7.4,7.4h3c0-2.4,2-4.4,4.4-4.4s4.4,2,4.4,4.4-2,4.4-4.4,4.4c-.5,0-.8.2-1,.4-.3.3-.4.6-.4,1v7.4h3v-6.1c3.4-.7,5.9-3.7,5.9-7.3s-3.3-7.4-7.4-7.4Z"/>
  <rect class="st0" x="53.9" y="24.3" width="23.7" height="3"/>
  <rect class="st0" x="53.9" y="33.2" width="23.7" height="3"/>
  <rect class="st0" x="59.8" y="42.1" width="17.8" height="3"/>
</svg>