<?xml version="1.0" encoding="UTF-8"?>
<svg id="Layer_1" data-name="Layer 1" xmlns="http://www.w3.org/2000/svg" viewBox="0 0 96 96">
  <defs>
    <style>
      .cls-1, .cls-2 {
        fill: none;
        stroke: #fff;
        stroke-linejoin: round;
        stroke-width: 3px;
      }

      .cls-2 {
        fill-rule: evenodd;
      }
    </style>
  </defs>
  <line class="cls-1" x1="65.69" y1="27.51" x2="26.4" y2="27.51"/>
  <line class="cls-1" x1="57.39" y1="36.02" x2="26.4" y2="36.02"/>
  <line class="cls-1" x1="50.62" y1="19.81" x2="26.4" y2="19.81"/>
  <line class="cls-1" x1="46.05" y1="78.04" x2="45.75" y2="78.04"/>
  <polyline class="cls-2" points="40.01 78.04 17.48 78.04 17.48 1.71 58.53 1.71 74.91 18.08 74.91 46.72"/>
  <polyline class="cls-2" points="74.91 18.09 58.53 18.09 58.53 1.7"/>
  <g>
    <path class="cls-1" d="M84.52,54.97c-4.57-6.54-12.15-10.82-20.73-10.82-13.96,0-25.28,11.32-25.28,25.28s11.32,25.28,25.28,25.28c5.68,0,10.92-1.87,15.14-5.03,1.89-1.42,3.58-3.1,5.01-4.99,3.22-4.24,5.12-9.52,5.12-15.26,0-5.38-1.68-10.36-4.54-14.46Z"/>
    <path class="cls-1" d="M81.27,59.24c-3.49-5.94-9.95-9.93-17.34-9.93-10.05,0-18.38,7.38-19.87,17.01-.16,1.01-.24,2.04-.24,3.1,0,11.11,9,20.11,20.11,20.11s20.11-9,20.11-20.11c0-3.72-1.01-7.2-2.77-10.18Z"/>
    <polygon class="cls-1" points="55.83 80.97 60.3 66.56 72.02 57.06 67.52 71.45 55.83 80.97"/>
    <line class="cls-1" x1="60.3" y1="66.56" x2="67.27" y2="71.28"/>
    <line class="cls-1" x1="63.93" y1="49.31" x2="63.93" y2="54.88"/>
    <line class="cls-1" x1="63.93" y1="82.79" x2="63.93" y2="88.35"/>
    <line class="cls-1" x1="83.45" y1="68.83" x2="77.88" y2="68.83"/>
    <line class="cls-1" x1="49.98" y1="68.83" x2="44.41" y2="68.83"/>
  </g>
</svg>