<?xml version="1.0" encoding="UTF-8"?>
<svg id="Layer_1" data-name="Layer 1" xmlns="http://www.w3.org/2000/svg" viewBox="0 0 96 96">
  <defs>
    <style>
      .cls-1 {
        fill: #fff;
      }
    </style>
  </defs>
  <path class="cls-1" d="M41.8,77.59l-.65-.2c-11.45-3.5-20.13-12.49-23.23-24.03l-.18-.68,18.5-26.33c5.63-8.01,13.29-14.43,22.15-18.58l.77-.36c6.25-2.92,12.9-4.65,19.78-5.14l16.29-1.16-1.91,18.96c-.53,5.27-1.8,10.44-3.79,15.36-4.47,11.09-12.56,20.64-22.76,26.88l-24.97,15.27ZM21.01,53.25c2.92,10.01,10.47,17.81,20.38,21.07l23.81-14.56c9.66-5.91,17.31-14.94,21.54-25.45,1.88-4.65,3.08-9.54,3.59-14.54l1.55-15.41-12.73.91c-6.51.46-12.81,2.1-18.72,4.86l-.77.36c-8.39,3.92-15.64,10-20.97,17.58l-17.69,25.17Z"/>
  <path class="cls-1" d="M89.69,29.87c-19.2-7.86-23.74-22.87-23.93-23.5l2.88-.84c.04.14,4.39,14.28,22.18,21.56l-1.14,2.78Z"/>
  <path class="cls-1" d="M61.65,45.08c-5.75,0-10.42-4.67-10.42-10.42s4.67-10.42,10.42-10.42,10.42,4.67,10.42,10.42-4.67,10.42-10.42,10.42ZM61.65,27.23c-4.09,0-7.42,3.33-7.42,7.42s3.33,7.42,7.42,7.42,7.42-3.33,7.42-7.42-3.33-7.42-7.42-7.42Z"/>
  <path class="cls-1" d="M18.6,54.9L.14,43.63l15.54-10.28c3.62-2.39,8-3.54,12.32-3.23l6.18.44-.21,2.99-6.18-.44c-3.67-.26-7.38.71-10.45,2.74l-11.61,7.68,14.43,8.82-1.56,2.56Z"/>
  <path class="cls-1" d="M52.33,95.96l-12.5-19.34,2.52-1.63,10.15,15.7,8.2-11.1c2.4-3.25,3.55-7.25,3.24-11.28l-.51-6.5,2.99-.23.51,6.5c.37,4.75-.98,9.47-3.81,13.3l-10.78,14.58Z"/>
  <rect class="cls-1" x=".26" y="69.61" width="18.02" height="3" transform="translate(-47.77 27.65) rotate(-45.26)"/>
  <rect class="cls-1" x="1.77" y="84.87" width="18.02" height="3" transform="translate(-58.17 33.23) rotate(-45.26)"/>
  <rect class="cls-1" x="16.66" y="85.85" width="18.01" height="3" transform="translate(-54.45 44.1) rotate(-45.26)"/>
</svg>