<?xml version="1.0" encoding="UTF-8"?>
<svg id="Capa_1" data-name="Capa 1" xmlns="http://www.w3.org/2000/svg" viewBox="0 0 96 96">
  <path d="M94.85,79.91V21.71c0-.92-.75-1.67-1.67-1.67h-6.34v-2.26c.03-.78-.46-1.46-1.2-1.68-4.23-1.11-8.59-1.67-12.97-1.67h-.12c-7.09,0-17.09,1.57-24.45,9.07l-.11.11-.11-.11c-7.24-7.49-17.29-9.06-24.45-9.06-4.41,0-8.83.55-13.1,1.67-.74.21-1.23.9-1.2,1.67v2.25H2.82c-.92,0-1.67.75-1.67,1.67v58.2c0,.92.75,1.67,1.67,1.67.29,0,.57-.08.82-.22,1.95-1.03,19.56-9.81,43.95-3.66h.4c.15.01.29.01.42,0,24.83-6.3,42.8,3,43.93,3.67h0c.52.29,1.16.29,1.67,0,.51-.3.83-.85.84-1.44h0ZM38.02,72.64c-11.28-1.36-22.8.19-33.32,4.49l-.21.08V23.39h4.65v45.85c0,.45.16.87.48,1.19.31.32.73.5,1.18.5.09,0,.18,0,.27-.02,3.76-.57,7.6-.88,11.41-.91,5.31-.09,10.56.7,15.61,2.36l-.06.29h0ZM46.09,72.46c-4.04-2.64-11.41-5.79-23.6-5.79-3.3,0-6.62.22-9.89.64l-.17.02V19.1l.12-.03c3.55-.79,7.2-1.2,10.84-1.21,6.8,0,16.28,1.56,22.85,8.98l.04.04v.06l.06,45.66-.23-.15h-.02ZM49.66,72.59V26.89l.04-.04c6.64-7.42,16.09-8.98,22.85-8.98,3.64.01,7.29.42,10.84,1.21l.12.03v48.23l-.17-.02c-3.25-.42-6.56-.64-9.84-.65-12.09,0-19.51,3.15-23.6,5.79l-.23.15v-.02ZM91.56,23.54l-.07,53.68-.21-.08c-10.54-4.31-22.09-5.87-33.4-4.49l-.06-.29c5.07-1.66,10.34-2.46,15.68-2.36,3.83.02,7.69.32,11.48.89.44.07.88-.04,1.24-.31s.59-.65.66-1.1c.01-.09.02-.18.02-.27V23.39h4.66v.15Z" fill="#fff"/>
</svg>