<?xml version="1.0" encoding="UTF-8"?>
<svg id="Layer_1" data-name="Layer 1" xmlns="http://www.w3.org/2000/svg" viewBox="0 0 96 96">
  <defs>
    <style>
      .cls-1 {
        fill: #fff;
      }
    </style>
  </defs>
  <path class="cls-1" d="M63.12,95.55c-.33,0-.66-.11-.93-.32-.36-.28-.57-.72-.57-1.18v-46.36c0-.64.4-1.2,1-1.42.6-.21,1.27-.02,1.67.48,2.05,2.56,3.88,4.55,4.96,5.68,3.14-3.2,12.52-13.43,15.78-24.62.15-.52.57-.92,1.1-1.04l6.9-1.62c.44-.11.92,0,1.27.28s.57.72.57,1.18v60.33c0,.7-.48,1.3-1.16,1.46l-30.25,7.11c-.11.03-.23.04-.34.04ZM64.62,51.82v40.34l27.25-6.41V28.5l-4.22.99c-4.4,13.91-16.85,25.66-17.39,26.16-.58.55-1.49.54-2.07-.02-.08-.08-1.51-1.48-3.57-3.82Z"/>
  <path class="cls-1" d="M2.63,95.55c-.33,0-.66-.11-.93-.32-.36-.28-.57-.72-.57-1.18v-60.33c0-.7.48-1.3,1.16-1.46l30.25-7.11c.45-.11.92,0,1.28.28s.57.72.57,1.18v60.33c0,.7-.48,1.3-1.16,1.46l-30.25,7.11c-.11.03-.23.04-.34.04ZM4.13,34.9v57.25l27.25-6.41V28.5l-27.25,6.41Z"/>
  <path class="cls-1" d="M63.12,95.55c-.11,0-.23-.01-.34-.04l-30.25-7.11c-.68-.16-1.16-.76-1.16-1.46V26.6c0-.46.21-.89.57-1.18s.82-.39,1.28-.28l20.12,4.73-.69,2.92-18.28-4.3v57.25l27.25,6.41v-43.87h3v45.76c0,.46-.21.89-.57,1.18-.27.21-.6.32-.93.32Z"/>
  <path class="cls-1" d="M61.95,48.63c-4.62-5.76-8.04-11.37-10.16-16.68-1.65-4.11-2.48-8-2.48-11.58C49.31,9.39,58.25.45,69.24.45s19.93,8.94,19.93,19.93c0,2.62-.42,5.4-1.25,8.27l-2.88-.84c.75-2.59,1.14-5.09,1.14-7.43,0-9.33-7.59-16.93-16.93-16.93s-16.93,7.59-16.93,16.93c0,3.19.76,6.71,2.27,10.46,2.51,6.27,6.67,12.11,9.72,15.92l-2.34,1.88Z"/>
  <path class="cls-1" d="M69.24,31.79c-6.14,0-11.14-5-11.14-11.14s5-11.14,11.14-11.14,11.14,5,11.14,11.14-5,11.14-11.14,11.14ZM69.24,12.5c-4.49,0-8.14,3.65-8.14,8.14s3.65,8.14,8.14,8.14,8.14-3.65,8.14-8.14-3.65-8.14-8.14-8.14Z"/>
</svg>