<?xml version="1.0" encoding="UTF-8"?>
<svg id="Layer_1" data-name="Layer 1" xmlns="http://www.w3.org/2000/svg" viewBox="0 0 96 96">
  <path d="M81.64,41.99h-13.72c-.83-10.35-9.58-18.44-19.98-18.44s-19.13,8.09-19.96,18.44h-13.62c-3.35,0-6.07,2.72-6.07,6.07v41.5c0,3.35,2.72,6.07,6.07,6.07h67.27c3.35,0,6.07-2.72,6.07-6.07v-41.5c0-3.35-2.72-6.07-6.07-6.07ZM47.94,60.43c-9.28,0-16.82-7.55-16.82-16.82s7.55-16.84,16.82-16.84,16.84,7.56,16.84,16.84-7.56,16.82-16.84,16.82ZM47.94,63.65c5.08,0,9.93-1.92,13.68-5.42h22.68v11.07H11.61v-11.07h22.67c3.74,3.49,8.59,5.42,13.66,5.42ZM11.51,55.01v-6.96c0-1.57,1.28-2.85,2.85-2.85h13.62c.28,3.52,1.49,6.91,3.51,9.81H11.51ZM11.51,72.52h72.97v17.04c0,1.57-1.28,2.85-2.85,2.85H14.36c-1.57,0-2.85-1.28-2.85-2.85v-17.04ZM64.41,55.01c2.02-2.9,3.23-6.28,3.51-9.81h13.71c1.57,0,2.85,1.28,2.85,2.85v6.96h-20.08Z" fill="#fff"/>
  <path d="M17.84,85.26h11.06c.89,0,1.61-.72,1.61-1.61s-.72-1.61-1.61-1.61h-11.06c-.89,0-1.61.72-1.61,1.61s.72,1.61,1.61,1.61Z" fill="#fff"/>
  <path d="M57,40.02l-5.26-.76-2.35-4.76c-.25-.51-.81-.83-1.44-.83-.64,0-1.19.32-1.44.83l-2.35,4.76-5.26.76c-.61.09-1.11.51-1.3,1.1-.19.59-.04,1.22.41,1.65l3.8,3.71-.9,5.24c-.1.61.14,1.21.64,1.57.28.21.61.31.95.31.25,0,.51-.06.75-.19l4.7-2.47,4.7,2.47c.55.29,1.2.24,1.7-.12.5-.36.74-.96.64-1.57l-.9-5.24,3.8-3.71c.44-.43.6-1.06.41-1.65-.19-.59-.69-1.01-1.3-1.09ZM50.78,46.19l.49,2.86-2.56-1.35c-.23-.12-.49-.19-.75-.19s-.51.06-.75.19l-2.56,1.35.49-2.86c.09-.52-.08-1.05-.46-1.42l-2.07-2.02,2.87-.42c.52-.08.98-.41,1.21-.88l1.28-2.6,1.28,2.6c.24.48.69.8,1.21.88l2.87.42-2.07,2.02c-.38.37-.55.9-.46,1.42Z" fill="#fff"/>
  <path d="M48.16,16.39c.89,0,1.61-.72,1.61-1.61V1.98c0-.89-.72-1.61-1.61-1.61s-1.61.72-1.61,1.61v12.79c0,.89.72,1.61,1.61,1.61Z" fill="#fff"/>
  <path d="M66.73,21.11c.24.13.5.2.77.2.15,0,.3-.02.45-.06.41-.12.75-.39.96-.77l6.16-11.21c.21-.38.26-.81.14-1.22-.12-.41-.39-.75-.77-.96-.38-.21-.81-.26-1.22-.14-.41.12-.76.39-.96.77l-6.16,11.21c-.21.38-.26.81-.14,1.22.12.41.39.75.77.96Z" fill="#fff"/>
  <path d="M27.11,20.75c.29.53.84.82,1.41.82.27,0,.54-.07.79-.21.77-.44,1.05-1.42.62-2.19l-6.26-11.15c-.43-.77-1.42-1.05-2.19-.62h0c-.77.44-1.05,1.42-.61,2.19l6.26,11.15Z" fill="#fff"/>
</svg>