<?xml version="1.0" encoding="UTF-8"?>
<svg id="Layer_1" data-name="Layer 1" xmlns="http://www.w3.org/2000/svg" viewBox="0 0 96 96">
  <defs>
    <style>
      .cls-1 {
        fill: none;
        stroke: #fff;
        stroke-miterlimit: 10;
        stroke-width: 3px;
      }
    </style>
  </defs>
  <path class="cls-1" d="M72.8,48.97c0-.93-.06-1.85-.16-2.76l3.25-1.45-2.66-8.19-3.48.73c-.91-1.62-2-3.12-3.25-4.47l1.78-3.09-6.97-5.06-2.39,2.64c-1.66-.76-3.42-1.34-5.25-1.71l-.38-3.54h-8.62l-.38,3.54c-1.84.37-3.59.95-5.25,1.71l-2.39-2.65-6.97,5.06,1.78,3.09c-1.25,1.35-2.33,2.85-3.24,4.46l-3.5-.74-2.66,8.19,3.26,1.46c-.1.91-.16,1.83-.16,2.76s.06,1.85.16,2.75l-3.26,1.46,2.66,8.19,3.49-.74c.91,1.61,2,3.11,3.24,4.46l-1.78,3.1,6.97,5.06,2.39-2.65c1.66.76,3.41,1.34,5.25,1.71l.38,3.54h8.62l.38-3.54c1.84-.37,3.6-.95,5.25-1.71l2.39,2.64,6.97-5.06-1.78-3.09c1.25-1.35,2.34-2.85,3.25-4.47l3.48.73,2.66-8.19-3.25-1.45c.11-.91.17-1.83.17-2.77Z"/>
  <circle class="cls-1" cx="48.97" cy="48.97" r="13.14"/>
  <path class="cls-1" d="M11.86,75.73c-5.9-7.68-9.41-17.29-9.41-27.73C2.45,22.84,22.84,2.45,48,2.45c.49,0,.99,0,1.48.02"/>
  <path class="cls-1" d="M81.88,17.55c7.25,8.07,11.67,18.74,11.67,30.45,0,25.15-20.39,45.55-45.55,45.55-1.82,0-3.62-.11-5.39-.32"/>
  <path class="cls-1" d="M44.29,72.4s-.04-.06-.05-.08"/>
  <polyline class="cls-1" points="90.61 16.8 80.46 16.8 80.46 27.1"/>
  <polyline class="cls-1" points="2.95 75.98 13.1 76.2 13.32 65.9"/>
</svg>