<?xml version="1.0" encoding="UTF-8"?>
<svg id="Layer_1" data-name="Layer 1" xmlns="http://www.w3.org/2000/svg" viewBox="0 0 96 96">
  <defs>
    <style>
      .cls-1 {
        fill: #fff;
      }
    </style>
  </defs>
  <path class="cls-1" d="M83.38,40.91h8.59c.9,0,1.63-.73,1.63-1.63s-.73-1.63-1.63-1.63h-8.59c-.9,0-1.63.73-1.63,1.63s.73,1.63,1.63,1.63Z"/>
  <path class="cls-1" d="M87.63,22.56c-.22-.38-.57-.65-.99-.76-.14-.04-.28-.06-.42-.06-.28,0-.56.07-.81.22l-7.05,4.07c-.78.45-1.05,1.45-.6,2.23.29.5.83.82,1.42.82.28,0,.57-.08.81-.22l7.05-4.07c.78-.45,1.05-1.45.6-2.23Z"/>
  <path class="cls-1" d="M68.19,62.24h.04s.03.04.03.04c1.39,1.59,3.4,2.5,5.52,2.5,1.28,0,2.54-.34,3.64-.98,1.69-.97,2.9-2.55,3.4-4.44.51-1.89.25-3.86-.73-5.55l-7.55-13.07.1-.06c1.75-1.1,3.01-2.81,3.55-4.82.57-2.12.28-4.33-.82-6.23-2.21-3.83-7.02-5.22-10.93-3.16l-.11.06-.06-.1-7.49-12.97c-.97-1.69-2.55-2.89-4.44-3.4-1.89-.51-3.86-.25-5.55.72-1.69.97-2.89,2.55-3.4,4.44-.38,1.42-.33,2.89.14,4.25l.02.04-.02.04c-3.55,8.94-11.13,18.16-21.34,25.95l-.07.05-.07-.05c-.15-.1-.31-.18-.48-.22-.42-.11-.86-.05-1.24.16l-9.55,5.52c-3.19,1.84-5.47,4.82-6.42,8.4-.96,3.57-.47,7.3,1.37,10.48,2.46,4.26,7.05,6.91,11.99,6.91,2.41,0,4.79-.64,6.89-1.85l.64-.37.07.09,10.54,13.75c.71.92,1.69,1.46,2.85,1.57,1.15.09,2.23-.26,3.08-1.03l2.9-2.63c1.57-1.42,1.78-3.76.5-5.44l-10-13.15.15-.06c11.76-4.86,23.43-6.78,32.87-5.39ZM66.1,29.3c2.33-1.14,5.17-.28,6.46,1.97.66,1.14.84,2.48.49,3.75-.31,1.16-1.03,2.16-2.02,2.83l-.11.07-.07-.12-4.88-8.45.12-.06ZM48.44,13.61c.92-.53,2.03-.68,3.07-.4,1.05.28,1.92.95,2.46,1.88l23.3,40.36c.54.94.68,2.03.4,3.07-.28,1.04-.95,1.92-1.88,2.46-.64.37-1.33.54-2.02.54-1.4,0-2.76-.73-3.51-2.02l-23.3-40.36c-1.12-1.93-.45-4.41,1.48-5.53ZM22.97,72.08c-1.6.92-3.42,1.41-5.25,1.41h0c-3.77,0-7.28-2.02-9.16-5.28-1.4-2.43-1.77-5.27-1.04-8,.73-2.73,2.47-5.01,4.9-6.41l8.14-4.7,10.55,18.28-8.14,4.7ZM42.58,82.82c.25.33.21.78-.1,1.05l-2.9,2.63c-.16.14-.31.2-.5.2-.03,0-.06,0-.09,0-.24-.02-.4-.11-.55-.3l-10.34-13.5,4.82-2.78.07.09,9.6,12.62ZM33.53,64.84l-.1.04-9.55-16.54.09-.07c9.86-7.48,17.28-16.08,21.46-24.87l.1-.21.12.21,20.39,35.31-.24-.02c-9.7-.78-20.85,1.35-32.27,6.15Z"/>
  <path class="cls-1" d="M76.14,9.04c-.25-.15-.53-.22-.81-.22-.14,0-.28.02-.42.06-.42.11-.77.38-.99.76l-4.3,7.44c-.22.38-.28.82-.16,1.24.11.42.38.77.76.99.25.14.53.22.81.22.58,0,1.12-.31,1.42-.82l4.3-7.44c.22-.38.28-.82.16-1.24-.11-.42-.38-.77-.76-.99Z"/>
</svg>