<?xml version="1.0" encoding="UTF-8"?>
<svg id="Layer_1" data-name="Layer 1" xmlns="http://www.w3.org/2000/svg" viewBox="0 0 96 96">
  <path d="M46.13,52.47V12.25c0-.85-.69-1.53-1.53-1.53-11.32,0-21.97,4.41-29.98,12.42S2.2,41.78,2.2,53.11s4.41,21.97,12.42,29.98c8.01,8.01,18.65,12.42,29.98,12.42s21.97-4.41,29.98-12.42c.6-.6.6-1.57,0-2.17l-28.44-28.44ZM44.59,92.44c-21.69,0-39.33-17.64-39.33-39.33S22.09,14.62,43.06,13.81v39.3c0,.41.16.8.45,1.08l27.79,27.79c-7.29,6.75-16.71,10.46-26.7,10.46h0ZM92.27,48.17h-40.86c-.62,0-1.18.37-1.42.95s-.11,1.23.33,1.67l28.89,28.89c.3.3.69.45,1.08.45s.78-.15,1.08-.45c8.01-8.01,12.42-18.65,12.42-29.98,0-.85-.69-1.53-1.53-1.53h0ZM80.28,76.41l-25.17-25.17h35.6c-.36,9.42-4.02,18.26-10.43,25.17h0ZM51.4,44.42h40.86c.85,0,1.53-.69,1.53-1.53,0-11.32-4.41-21.97-12.42-29.98C73.37,4.91,62.73.5,51.4.5c-.85,0-1.53.69-1.53,1.53v40.86c0,.85.69,1.53,1.53,1.53h0ZM52.94,3.59c20.47.79,36.98,17.3,37.77,37.77h-37.77V3.59Z" fill="#fff"/>
</svg>