<?xml version="1.0" encoding="UTF-8"?>
<svg id="Layer_1" xmlns="http://www.w3.org/2000/svg" version="1.1" viewBox="0 0 96 96">
  <!-- Generator: Adobe Illustrator 29.3.1, SVG Export Plug-In . SVG Version: 2.1.0 Build 151)  -->
  <defs>
    <style>
      .st0 {
        fill: #fff;
      }
    </style>
  </defs>
  <path class="st0" d="M41.7,30.1h0c5.5,0,10.7,2.7,13.9,7.2.4.6,1.2.7,1.8.3.6-.4.7-1.2.3-1.8-3.7-5.2-9.6-8.3-16-8.3-10.8,0-19.5,8.7-19.5,19.5s0,1.7.2,2.5c0,.6.6,1.1,1.3,1.1s.1,0,.2,0c.7,0,1.2-.7,1.1-1.4,0-.7-.1-1.5-.1-2.2,0-9.3,7.6-16.9,16.9-16.9Z"/>
  <path class="st0" d="M84.5,39.8h-26.8c-2.3,0-4.3,1-5.7,2.6-1.4-3.4-4.7-5.8-8.6-5.8s-9.3,4.2-9.3,9.3,1.1,5.1,2.9,6.8h-12.1c-.4,0-.8.2-1.1.6s-.3.8-.1,1.2c3,7.3,10.1,12.1,18,12.1h7.9v11h-1c-2.1,0-3.9,1.7-3.9,3.9v1.7h-6.6v-9h4.1s0,0,0,0c1.4,0,2.9-.2,4.3-.4.7-.1,1.2-.8,1-1.5-.1-.7-.8-1.2-1.5-1-1.3.2-2.6.4-3.9.4h-.5c-13.5,0-24.5-11-24.5-24.5s11-24.5,24.5-24.5,18.4,5.7,22.4,14.5c.3.6,1.1.9,1.7.6.6-.3.9-1.1.6-1.7-4.4-9.7-14-16-24.7-16h-14s0,0,0,0c-7.1.1-13.8,3-18.8,8.1C3.8,33.2,1,39.9,1,47.1s2.8,13.9,7.8,19c2.5,2.5,5.4,4.5,8.5,5.9v11.2h-4.3c-.7,0-1.3.6-1.3,1.3v5.9c0,.7.6,1.3,1.3,1.3h71.4c.7,0,1.3-.6,1.3-1.3v-5.9c0-.7-.6-1.3-1.3-1.3h-14.6v-1.7c0-2.1-1.7-3.9-3.9-3.9h-1v-11h19.4c.7,0,1.3-.6,1.3-1.3v-24.1c0-.7-.6-1.3-1.3-1.3ZM52,52.7h-2.2c.4-.4.8-.9,1.2-1.4.3.5.6,1,1,1.4ZM36.6,45.9c0-3.7,3-6.7,6.7-6.7s6.7,3,6.7,6.7,0,.2,0,.3c0,.3,0,.5,0,.8-.5,3.2-3.3,5.6-6.7,5.6s-6.7-3-6.7-6.8ZM3.6,47.1c0-13.3,10.8-24.3,24.1-24.5h2.5c-9.2,4.3-15.5,13.7-15.5,24.5s6.4,20.1,15.5,24.5h-2.6c-13.2-.2-24-11.2-24-24.5ZM35.5,74.1v9h-15.7v-10.2c2.5.8,5,1.2,7.7,1.2,0,0,0,0,0,0h8ZM83.2,85.6v3.3H14.3v-3.3h68.9ZM66,80.1c.7,0,1.3.6,1.3,1.3v1.7h-20v-1.7c0-.7.6-1.3,1.3-1.3h17.5ZM52.1,77.6v-11h10.4v11h-10.4ZM63.8,64h-22.1c-6.2,0-11.8-3.4-14.8-8.7h56.3v8.7h-19.4ZM83.2,52.7h-25.5c-2.8,0-5.1-2.3-5.1-5.1s0-.1,0-.2c0-.3,0-.5,0-.8.4-2.4,2.5-4.2,5.1-4.2h25.5v10.3Z"/>
  <path class="st0" d="M91.7,4.4h0s-28.7,0-28.7,0c-1.8,0-3.3,1.5-3.3,3.3v15.9c0,1.8,1.5,3.3,3.3,3.3h10.4v9.7c0,.7.6,1.3,1.3,1.3s1.3-.6,1.3-1.3v-9.7h2.8v9.7c0,.7.6,1.3,1.3,1.3s1.3-.6,1.3-1.3v-9.7h10.4c1.8,0,3.3-1.5,3.3-3.3V7.7c0-1.8-1.5-3.3-3.3-3.3ZM91.7,24.3h-28.7c-.4,0-.7-.3-.7-.7V7.7c0-.4.3-.7.7-.7h28.7c.4,0,.7.3.7.7v15.9h0c0,.4-.3.7-.7.7Z"/>
  <path class="st0" d="M86.3,15h-4.5c-.5,0-1,.3-1.2.8l-.7,1.7-3-7.7c-.2-.5-.7-.8-1.2-.8-.5,0-1,.3-1.2.8l-2.3,5.2h-3.7c-.7,0-1.3.6-1.3,1.3s.6,1.3,1.3,1.3h4.6c.5,0,1-.3,1.2-.8l1.4-3.1,3,7.8c.2.5.7.8,1.2.8,0,0,0,0,0,0,.5,0,1-.3,1.2-.8l1.6-4h3.7c.7,0,1.3-.6,1.3-1.3s-.6-1.3-1.3-1.3Z"/>
</svg>