<?xml version="1.0" encoding="UTF-8"?>
<svg id="Capa_1" data-name="Capa 1" xmlns="http://www.w3.org/2000/svg" viewBox="0 0 96 96">
  <defs>
    <style>
      .cls-1 {
        fill: #fff;
      }
    </style>
  </defs>
  <path class="cls-1" d="M47.95,79.6c-12.54,0-25.08,0-37.61,0C3.88,79.59,0,75.68,0,69.19c0-14.18,0-28.37,0-42.55,0-6.26,3.94-10.23,10.18-10.23,25.19,0,50.38,0,75.57,0,6.35,0,10.26,3.95,10.26,10.32,0,14.18,0,28.37,0,42.55,0,6.38-3.91,10.32-10.26,10.32-12.59.01-25.19,0-37.78,0ZM48.08,19.36c-12.42,0-24.83,0-37.25,0-1.07,0-2.15-.08-3.2.26-1.69.55-1.73.62-.5,1.85,9.66,9.66,19.3,19.34,28.98,28.98,7.06,7.03,16.82,6.96,23.9-.12,5.25-5.25,10.5-10.5,15.75-15.75,4.37-4.37,8.74-8.74,13.11-13.11,1.22-1.22,1.19-1.3-.51-1.85-.94-.31-1.9-.26-2.86-.26-12.47,0-24.94,0-37.42,0ZM48.02,76.63c12.48,0,24.95,0,37.43,0,.96,0,1.92.05,2.87-.25,1.78-.56,1.81-.62.48-1.94-7.22-7.22-14.43-14.43-21.65-21.65-2.71-2.71-2.68-2.68-5.44,0-5.62,5.46-12.22,7.05-19.73,4.81-3.77-1.13-6.69-3.54-9.25-6.4-.92-1.03-1.45-.94-2.35.02-2.29,2.44-4.7,4.76-7.07,7.12-5.37,5.37-10.75,10.74-16.12,16.11-1.29,1.29-1.25,1.38.53,1.93,1,.31,2.02.24,3.04.24,12.42,0,24.84,0,37.26,0ZM4.02,22.45c-.86,1.19-1.06,2.29-1.06,3.44,0,14.74,0,29.47,0,44.21,0,1.17.16,2.32,1,3.28.23-.16.38-.24.5-.36,8.06-8.05,16.1-16.12,24.19-24.14.84-.83.53-1.22-.12-1.87-3.87-3.83-7.71-7.68-11.55-11.53-4.28-4.29-8.54-8.59-12.95-13.03ZM92.13,22.68c-.47.03-.69.4-.96.67-7.9,7.89-15.77,15.81-23.71,23.66-.97.96-.58,1.39.16,2.12,7.39,7.36,14.75,14.75,22.14,22.1.74.74,1.59,2.29,2.31,1.93,1.07-.52.98-2.16.98-3.41,0-14.51,0-29.02,0-43.53,0-1.26-.11-2.49-.92-3.54Z"/>
</svg>