<?xml version="1.0" encoding="UTF-8"?>
<svg id="Layer_2" data-name="Layer 2" xmlns="http://www.w3.org/2000/svg" viewBox="0 0 96 96">
  <defs>
    <style>
      .cls-1 {
        fill: none;
        stroke: #fff;
        stroke-miterlimit: 10;
        stroke-width: 3px;
      }
    </style>
  </defs>
  <path class="cls-1" d="M65.48,48.61c0-.74-.05-1.47-.13-2.2l2.59-1.16-2.12-6.53-2.77.59c-.73-1.29-1.59-2.48-2.59-3.56l1.42-2.46-5.55-4.04-1.9,2.1c-1.32-.61-2.72-1.07-4.19-1.36l-.3-2.82h-6.87l-.3,2.82c-1.46.29-2.86.75-4.18,1.36l-1.91-2.11-5.55,4.04,1.42,2.47c-.99,1.08-1.86,2.27-2.58,3.55l-2.79-.59-2.12,6.53,2.6,1.16c-.08.72-.13,1.46-.13,2.2s.05,1.47.13,2.19l-2.6,1.16,2.12,6.53,2.78-.59c.72,1.29,1.59,2.48,2.58,3.56l-1.42,2.47,5.55,4.04,1.9-2.11c1.32.61,2.72,1.07,4.18,1.36l.3,2.82h6.87l.3-2.82c1.46-.29,2.87-.75,4.19-1.36l1.9,2.11,5.55-4.04-1.41-2.46c1-1.08,1.86-2.27,2.59-3.56l2.78.59,2.12-6.53-2.59-1.16c.08-.72.13-1.46.13-2.21Z"/>
  <circle class="cls-1" cx="46.49" cy="48.61" r="10.47"/>
  <path class="cls-1" d="M54.6,9.61h19.62c6.69,0,12.16,5.47,12.16,12.16v12.65"/>
  <path class="cls-1" d="M9.61,62.8v11.42c0,6.69,5.47,12.16,12.16,12.16h16.6"/>
  <path class="cls-1" d="M9.61,40.5v-18.73c0-6.69,5.47-12.16,12.16-12.16h9.51"/>
  <path class="cls-1" d="M86.39,56.72v17.51c0,6.69-5.47,12.16-12.16,12.16h-12.53"/>
  <circle class="cls-1" cx="46.49" cy="9.61" r="8.11"/>
  <circle class="cls-1" cx="46.49" cy="86.39" r="8.11"/>
  <circle class="cls-1" cx="86.39" cy="48.61" r="8.11"/>
  <circle class="cls-1" cx="9.61" cy="48.61" r="8.11"/>
  <polyline class="cls-1" points="26.5 4.77 31.34 9.61 26.5 14.45"/>
  <polyline class="cls-1" points="66.53 91.23 61.69 86.39 66.53 81.55"/>
  <polyline class="cls-1" points="4.77 67.64 9.61 62.8 14.45 67.64"/>
  <polyline class="cls-1" points="91.23 29.58 86.39 34.42 81.55 29.58"/>
  <line class="cls-1" x1="43.9" y1="12.2" x2="49.08" y2="7.01"/>
  <line class="cls-1" x1="43.9" y1="83.8" x2="49.08" y2="88.98"/>
  <line class="cls-1" x1="9.61" y1="45.06" x2="9.61" y2="52.39"/>
  <line class="cls-1" x1="90.06" y1="48.73" x2="82.72" y2="48.73"/>
</svg>