<?xml version="1.0" encoding="UTF-8"?>
<svg id="Layer_1" data-name="Layer 1" xmlns="http://www.w3.org/2000/svg" viewBox="0 0 96 96">
  <defs>
    <style>
      .cls-1 {
        stroke-linejoin: round;
      }

      .cls-1, .cls-2 {
        fill: none;
        stroke: #fff;
        stroke-width: 3px;
      }

      .cls-2 {
        stroke-miterlimit: 10;
      }
    </style>
  </defs>
  <rect class="cls-2" x="16.58" y="3.69" width="30.8" height="41.85" rx="14.17" ry="14.17"/>
  <path class="cls-1" d="M16.58,20.63c6.41-.44,15.58-1.95,20.98-5.59,2.3,1.72,6.36,4.35,9.82,5.15"/>
  <path class="cls-1" d="M25.41,44.14v6.54c0,.25,0,.49.04.74.17,1.53.87,2.9,1.89,3.94,1.2,1.19,2.85,1.93,4.68,1.93,3.39,0,6.19-2.56,6.56-5.85.04-.25.05-.5.05-.76v-6.58"/>
  <path class="cls-1" d="M48.03,85.44H1.86v-15.52c0-6.43,4.14-12.13,10.25-14.14l13.34-4.36c.17,1.53.87,2.9,1.9,3.94,1.2,1.19,2.85,1.93,4.67,1.93,3.4,0,6.19-2.55,6.57-5.85l7.52,2.49"/>
  <line class="cls-1" x1="15.08" y1="85.74" x2="15.08" y2="66.21"/>
  <path class="cls-2" d="M88.13,66.84l6.01-2.58-2.22-6.23-6.28,1.81c-.79-1.25-1.74-2.39-2.81-3.38l2.95-5.84-5.7-3.34-3.65,5.42c-1.38-.44-2.83-.71-4.32-.79l-1.5-6.37-6.52,1.11.69,6.5c-1.38.56-2.66,1.3-3.82,2.17l-5.24-3.91-4.28,5.04,4.71,4.54c-.68,1.29-1.2,2.68-1.53,4.12l-6.53.37-.04,6.61,6.53.45c.32,1.47.82,2.86,1.47,4.14l-4.76,4.48,4.22,5.09,5.29-3.85c1.16.9,2.44,1.64,3.79,2.22l-.77,6.5,6.5,1.19,1.58-6.35c.73-.03,1.46-.1,2.19-.22.73-.12,1.45-.3,2.14-.51l3.59,5.47,5.75-3.27-2.87-5.88c1.09-.99,2.05-2.12,2.85-3.35l6.26,1.89,2.3-6.2-5.97-2.65c.19-1.43.21-2.9.02-4.4Z"/>
  <circle class="cls-2" cx="71.09" cy="68.93" r="6.45"/>
</svg>