<?xml version="1.0" encoding="UTF-8"?>
<svg id="Layer_1" data-name="Layer 1" xmlns="http://www.w3.org/2000/svg" viewBox="0 0 96 96">
  <defs>
    <style>
      .cls-1 {
        fill-rule: evenodd;
      }

      .cls-1, .cls-2, .cls-3 {
        fill: none;
        stroke: #fff;
        stroke-miterlimit: 10;
        stroke-width: 3px;
      }

      .cls-3 {
        stroke-linecap: round;
      }
    </style>
  </defs>
  <path class="cls-1" d="M21.64,23.85V4.37c0-1.58,1.28-2.87,2.87-2.87h46.98c1.58,0,2.87,1.28,2.87,2.87v87.26c0,1.58-1.28,2.87-2.87,2.87H24.51c-1.58,0-2.87-1.28-2.87-2.87V23.85Z"/>
  <line class="cls-2" x1="74.15" y1="7.73" x2="61.32" y2="7.73"/>
  <line class="cls-3" x1="35" y1="7.73" x2="21.64" y2="7.73"/>
  <path class="cls-3" d="M61.32,7.73l-2.13,3.97c-.69,1.31-2.06,2.13-3.55,2.13h-14.96c-1.48,0-2.85-.82-3.56-2.13l-2.12-3.97"/>
  <line class="cls-2" x1="21.64" y1="89.4" x2="74.36" y2="89.4"/>
  <line class="cls-2" x1="55.58" y1="7.44" x2="47.45" y2="7.44"/>
  <line class="cls-2" x1="43.49" y1="7.44" x2="41.03" y2="7.44"/>
  <rect class="cls-2" x="26.65" y="67.24" width="42.45" height="15.82" rx="1.97" ry="1.97"/>
  <rect class="cls-2" x="26.65" y="45.55" width="42.45" height="15.82" rx="1.97" ry="1.97"/>
  <rect class="cls-2" x="26.65" y="24.04" width="42.45" height="15.82" rx="1.97" ry="1.97"/>
  <line class="cls-2" x1="31" y1="29.83" x2="48.16" y2="29.83"/>
  <line class="cls-2" x1="31" y1="72.94" x2="48.16" y2="72.94"/>
  <line class="cls-2" x1="31" y1="51.34" x2="48.16" y2="51.34"/>
</svg>