<?xml version="1.0" encoding="UTF-8"?>
<svg id="Layer_1" data-name="Layer 1" xmlns="http://www.w3.org/2000/svg" viewBox="0 0 96 96">
  <defs>
    <style>
      .cls-1 {
        fill: #fff;
      }
    </style>
  </defs>
  <rect class="cls-1" x="1.5" y="92.92" width="93" height="3"/>
  <path class="cls-1" d="M43.39,93.88h-3v-22.22c-4.37-2.85-6.11-8.89-3.87-13.94,1.02-2.3,2.77-4.14,4.93-5.19l.6-.29.62.24c2.6,1.03,4.59,3.27,5.6,6.3,1.69,5.06-.48,10.65-4.88,12.97v22.12ZM42.16,55.56c-1.25.77-2.27,1.95-2.9,3.38-1.64,3.7-.42,8.1,2.71,10.17,3.14-1.65,4.67-5.7,3.44-9.38-.65-1.95-1.77-3.38-3.25-4.18Z"/>
  <path class="cls-1" d="M37.03,86.27c-3.29,0-6.51-1.6-8.45-4.55-1.3-1.98-1.87-4.37-1.59-6.72l.07-.61.47-.38c2.15-1.75,4.96-2.4,7.91-1.83,5.3,1.02,8.78,6.16,7.76,11.46l-.12.62-.53.35c-1.7,1.12-3.62,1.65-5.53,1.65ZM29.93,75.98c-.04,1.45.36,2.88,1.16,4.1,2.03,3.08,6.07,4.07,9.26,2.36.33-3.44-2.01-6.64-5.47-7.31-1.86-.36-3.56-.07-4.95.85Z"/>
  <path class="cls-1" d="M46.85,86.27c-1.9,0-3.82-.54-5.53-1.65l-.53-.35-.12-.62c-1.02-5.3,2.46-10.44,7.76-11.46,2.95-.57,5.76.08,7.91,1.83l.47.38.07.6c.28,2.35-.29,4.74-1.59,6.72-1.94,2.95-5.16,4.55-8.45,4.55ZM43.53,82.44c3.2,1.71,7.24.72,9.26-2.36.8-1.22,1.2-2.65,1.16-4.1-1.39-.91-3.09-1.21-4.95-.85-3.46.67-5.8,3.87-5.47,7.31Z"/>
  <path class="cls-1" d="M78.26,93.88h-3v-59.18c-5.52-3.35-7.74-10.65-4.93-16.75,1.26-2.73,3.42-4.92,6.06-6.17l.58-.27.6.23c3.18,1.22,5.63,3.88,6.88,7.49,2.12,6.12-.64,12.87-6.19,15.58v59.07ZM77.1,14.8c-1.75.98-3.17,2.53-4.04,4.41-2.18,4.73-.48,10.38,3.79,12.95,4.28-2.02,6.41-7.23,4.77-11.95-.89-2.56-2.45-4.42-4.53-5.41Z"/>
  <path class="cls-1" d="M70.61,52.75c-.84,0-1.69-.09-2.54-.26-3.24-.67-6.03-2.56-7.84-5.33-1.6-2.43-2.29-5.36-1.95-8.25l.07-.6.47-.38c2.63-2.14,6.08-2.94,9.7-2.24,6.5,1.25,10.77,7.55,9.52,14.05l-.12.62-.53.35c-2.05,1.34-4.39,2.04-6.78,2.04ZM61.21,39.88c-.1,1.98.43,3.96,1.53,5.63,1.38,2.1,3.49,3.53,5.94,4.04,2.25.46,4.53.1,6.51-1.01.56-4.64-2.58-9.01-7.24-9.91-2.55-.49-4.87-.06-6.75,1.25Z"/>
  <path class="cls-1" d="M83.05,52.74c-2.33,0-4.69-.66-6.78-2.03l-.53-.35-.12-.62c-1.25-6.5,3.02-12.8,9.52-14.05,3.62-.7,7.06.1,9.7,2.24l.47.38.07.6c.34,2.88-.35,5.81-1.95,8.25-2.38,3.62-6.34,5.58-10.37,5.58ZM78.47,48.54c4.26,2.4,9.73,1.12,12.45-3.03,1.1-1.67,1.63-3.65,1.53-5.63-1.88-1.31-4.2-1.74-6.75-1.25-4.66.9-7.79,5.26-7.24,9.91Z"/>
  <path class="cls-1" d="M70.61,73.88c-.84,0-1.69-.09-2.54-.26-3.24-.67-6.03-2.56-7.84-5.33-1.6-2.43-2.29-5.36-1.95-8.25l.07-.6.47-.38c2.63-2.14,6.08-2.93,9.7-2.24,6.5,1.25,10.77,7.55,9.52,14.05l-.12.62-.53.35c-2.04,1.34-4.39,2.04-6.78,2.04ZM61.21,61.02c-.1,1.98.43,3.96,1.53,5.63,1.38,2.1,3.49,3.53,5.94,4.04,2.25.47,4.53.11,6.51-1.01.56-4.64-2.58-9.01-7.24-9.91-2.54-.49-4.87-.06-6.75,1.25Z"/>
  <path class="cls-1" d="M83.05,73.88c-2.33,0-4.69-.66-6.78-2.03l-.53-.35-.12-.62c-1.25-6.5,3.02-12.8,9.52-14.05,3.62-.7,7.06.1,9.69,2.24l.47.38.07.6c.34,2.89-.35,5.82-1.95,8.25-2.38,3.62-6.34,5.58-10.37,5.58ZM78.47,69.67c4.26,2.4,9.73,1.12,12.45-3.03,1.1-1.67,1.63-3.65,1.53-5.63-1.88-1.31-4.2-1.74-6.75-1.25-4.66.9-7.79,5.26-7.24,9.91Z"/>
  <path class="cls-1" d="M7.36,95.66c-4.12-2.79-10.56-10.05-5.5-17.55,4.37-6.47,11.3-5.23,14.35-3.66,1.41.12,5.09.79,7.49,4.26,1.55,2.24,1.96,5.08,1.16,7.98-.13.52-.48,1.11-1.5,1.36-1.76.43-5.44.09-7.84-2.62-2.82-3.18-2.72-6.59-1.99-8.81-2.11-.63-6.26-1.13-9.17,3.17-4.65,6.89,4.31,13.13,4.7,13.39l-1.69,2.48ZM21.95,85.98s0,.03-.01.05v-.05ZM16.4,77.49c-.42,1.22-.76,3.55,1.36,5.95,1.34,1.51,3.35,1.8,4.38,1.76.34-1.79.04-3.43-.9-4.78-1.49-2.15-3.7-2.76-4.84-2.93Z"/>
  <path class="cls-1" d="M21.52,31.73c-5.85,0-10.6-4.76-10.6-10.6s4.76-10.6,10.6-10.6,10.6,4.76,10.6,10.6-4.76,10.6-10.6,10.6ZM21.52,13.52c-4.19,0-7.6,3.41-7.6,7.6s3.41,7.6,7.6,7.6,7.6-3.41,7.6-7.6-3.41-7.6-7.6-7.6Z"/>
  <path class="cls-1" d="M30.32,42.37l-1.32-.5c-2.03-.77-4.68-1.2-7.47-1.2s-5.43.43-7.48,1.2l-1.32.5-.58-1.28c-.9-1.99-2.48-4.17-4.44-6.14-1.98-1.98-4.16-3.55-6.14-4.44l-1.3-.58.51-1.33c.78-2.05,1.21-4.7,1.21-7.48s-.43-5.45-1.2-7.46l-.5-1.31,1.28-.59c2-.92,4.19-2.5,6.15-4.45,1.97-1.97,3.55-4.16,4.44-6.14l.58-1.29,1.32.5c2.05.78,4.71,1.2,7.48,1.2s5.44-.43,7.47-1.2l1.32-.5.58,1.29c.91,2.01,2.49,4.19,4.44,6.15,1.96,1.95,4.14,3.53,6.14,4.45l1.28.59-.5,1.31c-.77,2.02-1.2,4.67-1.2,7.46s.43,5.43,1.21,7.48l.51,1.33-1.3.58c-1.98.89-4.17,2.46-6.14,4.44-1.96,1.94-3.53,4.12-4.44,6.14l-.58,1.29ZM4.01,28.38c1.95,1.06,3.98,2.61,5.81,4.45,1.83,1.83,3.38,3.85,4.45,5.81,4.29-1.26,10.25-1.25,14.5,0,1.08-1.97,2.62-3.99,4.45-5.81,1.84-1.84,3.86-3.38,5.81-4.45-.63-2.14-.97-4.66-.97-7.25s.34-5.13.96-7.25c-1.96-1.08-3.98-2.62-5.8-4.44-1.83-1.83-3.37-3.86-4.45-5.82-4.25,1.25-10.2,1.25-14.49,0-1.06,1.95-2.61,3.98-4.45,5.82-1.83,1.82-3.85,3.36-5.8,4.44.62,2.12.96,4.64.96,7.25s-.34,5.11-.97,7.25Z"/>
</svg>