<?xml version="1.0" encoding="UTF-8"?>
<svg id="Capa_1" data-name="Capa 1" xmlns="http://www.w3.org/2000/svg" viewBox="0 0 96 96">
  <path d="M81.96,61.31l.07.07c1.48,1.5,3.45,2.33,5.54,2.33,4.3,0,7.79-3.5,7.79-7.79s-3.5-7.79-7.79-7.79-7.79,3.49-7.79,7.79c0,.96.19,1.91.56,2.85l.04.09-.09.06-9.42,6.12-.07-.09c-1.86-2.39-4.29-4.32-7.03-5.58l-.1-.05.04-.11,7.77-21.53.11.03c1.65.44,3.3.67,4.91.67,10.41,0,18.87-8.47,18.87-18.87S86.9.63,76.5.63c-7.28,0-13.98,4.28-17.08,10.91l-.05.1-.11-.04-5.18-1.91.02-.1c.06-.38.12-.76.12-1.17,0-4.3-3.49-7.79-7.79-7.79s-7.79,3.49-7.79,7.79,3.49,7.79,7.79,7.79c2.69,0,5.16-1.38,6.6-3.7l.05-.09,5.28,1.95-.03.11c-.46,1.67-.7,3.36-.7,5.02,0,1.99.32,3.98.96,5.9l.04.11-.11.04-17.52,7.42-.05-.1c-3.29-6.22-9.68-10.08-16.69-10.08-2.25,0-4.49.42-6.65,1.23l-.11.04-4.47-9.4.08-.06c1.98-1.5,3.11-3.75,3.11-6.19,0-4.3-3.49-7.79-7.79-7.79S.63,4.13.63,8.42s3.49,7.79,7.79,7.79c.58,0,1.19-.08,1.87-.25l.1-.02,4.47,9.39-.1.06c-5.79,3.39-9.38,9.63-9.38,16.29,0,6.29,3.13,12.15,8.37,15.67l.1.06-3,5.4-.1-.03c-.86-.27-1.6-.39-2.33-.39-4.3,0-7.79,3.49-7.79,7.79s3.49,7.79,7.79,7.79,7.79-3.5,7.79-7.79c0-2.24-1-4.38-2.74-5.88l-.08-.07,3.01-5.41.1.05c2.47,1.12,5.07,1.68,7.74,1.68,4.17,0,8.13-1.36,11.47-3.92l.09-.07,6.39,7.02-.08.08c-3.27,3.52-5.08,8.08-5.08,12.84,0,.86.07,1.75.23,2.82l.02.11-.11.03-7.43,1.76-.04-.09c-1.28-2.74-4.04-4.51-7.04-4.51-4.3,0-7.79,3.49-7.79,7.79s3.49,7.79,7.79,7.79,7.79-3.5,7.79-7.79c0-.04,0-.08-.01-.11,0-.05-.01-.09-.01-.14v-.1s.1-.02.1-.02l7.43-1.76.04.11c2.56,7.77,9.76,12.99,17.92,12.99,10.41,0,18.87-8.47,18.87-18.87,0-3.11-.78-6.19-2.25-8.92l-.05-.1.1-.06,9.38-6.1ZM87.58,51.04c2.69,0,4.88,2.19,4.88,4.87s-2.19,4.88-4.88,4.88-4.87-2.19-4.87-4.88,2.19-4.87,4.87-4.87ZM46.42,13.3c-2.69,0-4.87-2.19-4.87-4.87s2.19-4.87,4.87-4.87,4.87,2.19,4.87,4.87-2.19,4.87-4.87,4.87ZM8.42,13.3c-2.69,0-4.87-2.19-4.87-4.87s2.19-4.87,4.87-4.87,4.87,2.19,4.87,4.87-2.19,4.87-4.87,4.87ZM8.42,75.04c-2.69,0-4.87-2.19-4.87-4.88s2.19-4.87,4.87-4.87,4.87,2.19,4.87,4.87-2.19,4.88-4.87,4.88ZM22.67,89.29c-2.69,0-4.87-2.19-4.87-4.87s2.19-4.87,4.87-4.87,4.87,2.19,4.87,4.87-2.19,4.87-4.87,4.87ZM85.89,32.37c-2.76,2.02-6.01,3.09-9.4,3.09s-6.64-1.07-9.4-3.09l-.06-.05v-.08c.75-3.79,4.05-6.54,7.88-6.54h3.17c3.83,0,7.13,2.75,7.86,6.53v.08s-.05.05-.05.05ZM71.62,17.92c0-2.69,2.19-4.87,4.88-4.87s4.87,2.19,4.87,4.87-2.19,4.87-4.87,4.87-4.88-2.19-4.88-4.87ZM76.5,3.55c8.8,0,15.96,7.16,15.96,15.96,0,3.82-1.39,7.53-3.91,10.43l-.14.16-.07-.2c-1.09-2.88-3.37-5.19-6.23-6.33l-.17-.07.13-.13c1.44-1.47,2.23-3.4,2.23-5.44,0-4.3-3.49-7.79-7.79-7.79s-7.79,3.49-7.79,7.79c0,2.04.79,3.98,2.23,5.44l.13.13-.17.07c-2.87,1.15-5.14,3.45-6.23,6.33l-.07.2-.14-.16c-2.52-2.91-3.91-6.61-3.91-10.43,0-8.8,7.16-15.96,15.96-15.96ZM33.62,54.55c-2.75,2.01-5.99,3.07-9.37,3.07s-6.66-1.08-9.42-3.11l-.06-.05.02-.08c.74-3.77,4.04-6.51,7.86-6.51h3.17c3.84,0,7.15,2.76,7.87,6.56v.08s-.05.05-.05.05ZM19.35,40.08c0-2.69,2.19-4.87,4.87-4.87s4.87,2.19,4.87,4.87-2.19,4.87-4.87,4.87-4.87-2.19-4.87-4.87ZM36.14,52.29l-.07-.2c-1.09-2.89-3.36-5.21-6.24-6.36l-.17-.07.13-.13c1.44-1.47,2.23-3.4,2.23-5.44,0-4.3-3.49-7.79-7.79-7.79s-7.79,3.49-7.79,7.79c0,2.04.79,3.98,2.23,5.44l.13.13-.17.07c-2.86,1.14-5.13,3.44-6.23,6.31l-.07.2-.14-.16c-2.51-2.9-3.89-6.6-3.89-10.41,0-8.8,7.16-15.96,15.96-15.96s15.96,7.16,15.96,15.96c0,3.83-1.4,7.55-3.93,10.46l-.14.16ZM37.97,54.59l.08-.08c3.27-3.52,5.08-8.08,5.08-12.84,0-1.99-.32-3.98-.96-5.9l-.04-.11,17.62-7.47.05.1c1.93,3.65,5.06,6.61,8.83,8.34l.1.05-.04.11-7.77,21.53-.11-.03c-1.65-.45-3.3-.67-4.91-.67-4.17,0-8.13,1.36-11.47,3.92l-.09.07-6.39-7.03ZM65.28,89.38c-2.75,2.01-5.99,3.07-9.37,3.07s-6.66-1.08-9.42-3.11l-.06-.05.02-.08c.74-3.77,4.04-6.51,7.86-6.51h3.17c3.84,0,7.15,2.76,7.87,6.56v.08s-.05.05-.05.05ZM51.01,74.91c0-2.69,2.19-4.88,4.87-4.88s4.87,2.19,4.87,4.88-2.19,4.87-4.87,4.87-4.87-2.19-4.87-4.87ZM67.94,86.96l-.14.16-.07-.2c-1.09-2.89-3.37-5.21-6.24-6.36l-.17-.07.13-.13c1.44-1.47,2.23-3.4,2.23-5.44,0-4.3-3.5-7.79-7.79-7.79s-7.79,3.5-7.79,7.79c0,2.04.79,3.97,2.23,5.44l.13.13-.17.07c-2.86,1.14-5.13,3.44-6.23,6.31l-.07.2-.14-.16c-2.51-2.9-3.89-6.6-3.89-10.41,0-8.8,7.16-15.96,15.96-15.96s15.96,7.16,15.96,15.96c0,3.83-1.4,7.55-3.93,10.46Z" fill="#fff"/>
</svg>