<?xml version="1.0" encoding="UTF-8"?>
<svg id="Capa_1" data-name="Capa 1" xmlns="http://www.w3.org/2000/svg" viewBox="0 0 96 96">
  <defs>
    <style>
      .cls-1 {
        fill: #fff;
      }
    </style>
  </defs>
  <path class="cls-1" d="M1.8,6.5c27.28,0,54.55,0,81.83,0,1.36,0,1.16-.19,1.17,1.21.01,1.08.02,2.17,0,3.25-.02,1.12-.67,1.82-1.6,1.79-.89-.03-1.47-.7-1.52-1.78,0-.15-.02-.3,0-.45.1-.71-.18-.91-.9-.91-24.99.02-49.98.02-74.97,0-.73,0-.9.22-.9.92.02,24.99.02,49.98,0,74.97,0,.73.22.9.92.9,24.99-.02,49.98-.02,74.97,0,.85,0,.89-.36.89-1.02-.01-16.03-.01-32.06,0-48.09,0-.42,0-.84.05-1.26.1-.8.63-1.24,1.39-1.3.76-.06,1.34.31,1.57,1.07.09.31.11.65.12.98,0,17.29,0,34.58.03,51.87,0,.87-.38.86-1.02.86-27.16-.01-54.31,0-81.47,0-.18,0-.36,0-.54,0V6.5Z"/>
  <path class="cls-1" d="M44.08,64.42c-.55,0-.97-.3-1.33-.66-7.04-7.04-14.08-14.07-21.11-21.12-.86-.86-.91-1.78-.19-2.46.72-.68,1.58-.57,2.52.37,6.45,6.44,12.9,12.87,19.32,19.34.6.61.9.7,1.57.03,15.33-15.38,30.68-30.72,46.04-46.07.3-.3.59-.61.95-.83.67-.41,1.35-.31,1.89.25.51.53.62,1.17.22,1.82-.19.3-.44.57-.7.82-15.86,15.86-31.72,31.72-47.59,47.59-.45.45-.88.92-1.59.92Z"/>
</svg>