<?xml version="1.0" encoding="UTF-8"?>
<svg id="Layer_1" data-name="Layer 1" xmlns="http://www.w3.org/2000/svg" viewBox="0 0 96 96">
  <path d="M88.73,1H7.27C3.81,1,1,3.81,1,7.27v84.6c0,1.73,1.41,3.13,3.13,3.13h4.7c.13,0,.25-.04.37-.08v.03s30.15-7.54,30.15-7.54c1.4-.35,2.38-1.6,2.38-3.04V20.91c0-1.33-.84-2.52-2.1-2.96l-21.58-7.55h59.89l-21.58,7.55c-1.25.44-2.1,1.63-2.1,2.96v63.46c0,1.44.98,2.69,2.38,3.04l30.15,7.54v-.03c.13.03.25.08.38.08h4.7c1.73,0,3.13-1.41,3.13-3.13V7.27c0-3.46-2.81-6.27-6.27-6.27ZM38.6,20.91v63.47l-28.2,7.05V11.04l28.2,9.87ZM85.6,91.43l-28.2-7.05V20.91l28.2-9.87v80.39ZM91.87,91.87h-3.13V10.4c0-1.34-.85-2.48-2.04-2.93l-.04-.12-.16.06c-.28-.08-.58-.14-.89-.14H10.4c-.31,0-.6.06-.89.14l-.16-.06-.04.12c-1.19.44-2.04,1.58-2.04,2.93v81.47h-3.13V7.27c0-1.73,1.41-3.13,3.13-3.13h81.47c1.73,0,3.13,1.41,3.13,3.13v84.6Z" fill="#fff"/>
  <path d="M30.77,54.27c2.59,0,4.7-2.46,4.7-5.48s-2.11-5.48-4.7-5.48-4.7,2.46-4.7,5.48,2.11,5.48,4.7,5.48ZM30.77,46.43c.83,0,1.57,1.1,1.57,2.35s-.73,2.35-1.57,2.35-1.57-1.1-1.57-2.35.73-2.35,1.57-2.35Z" fill="#fff"/>
  <path d="M65.23,54.27c2.59,0,4.7-2.46,4.7-5.48s-2.11-5.48-4.7-5.48-4.7,2.46-4.7,5.48,2.11,5.48,4.7,5.48ZM65.23,46.43c.83,0,1.57,1.1,1.57,2.35s-.73,2.35-1.57,2.35-1.57-1.1-1.57-2.35.73-2.35,1.57-2.35Z" fill="#fff"/>
</svg>