<?xml version="1.0" encoding="UTF-8"?>
<svg id="Layer_1" xmlns="http://www.w3.org/2000/svg" version="1.1" viewBox="0 0 96 96">
  <!-- Generator: Adobe Illustrator 29.3.1, SVG Export Plug-In . SVG Version: 2.1.0 Build 151)  -->
  <defs>
    <style>
      .st0 {
        fill: #fff;
      }
    </style>
  </defs>
  <path class="st0" d="M48,2.4C22.8,2.4,2.4,22.8,2.4,48s20.5,45.6,45.6,45.6,45.6-20.5,45.6-45.6S73.2,2.4,48,2.4ZM54.4,6c13.5,2,25.2,10.5,31.5,22.7l.3.5h-45.4l13.4-23.3h.3ZM57.1,32.3l9.1,15.7v.2c-.1,0-9.1,15.5-9.1,15.5h-18.1l-9.1-15.7,9.1-15.7h18.1ZM14.8,21.5c8.1-10.2,20.2-16,33.2-16s1,0,1.5,0c.2,0,.5,0,.7,0h.6s-.3.6-.3.6l-22.4,38.8-13.4-23.3.2-.2ZM8.4,63.5c-2-5-3-10.2-3-15.5,0-8.2,2.4-16.2,6.9-23.1l.3-.5,22.7,39.3H8.5v-.2ZM41.6,90c-13.5-2-25.2-10.5-31.5-22.7l-.3-.5h45.4l-13.4,23.3h-.3ZM81.2,74.5c-8.1,10.2-20.2,16-33.2,16s-1,0-1.5,0c-.2,0-.5,0-.7,0h-.6s22.7-39.4,22.7-39.4l13.4,23.3-.2.2ZM83.3,71.6l-.3-.5-22.4-38.8h26.9v.2c2.1,5,3,10.2,3,15.5,0,8.2-2.4,16.2-6.9,23.1l-.3.5Z"/>
</svg>