<?xml version="1.0" encoding="UTF-8"?>
<svg id="Capa_1" data-name="Capa 1" xmlns="http://www.w3.org/2000/svg" viewBox="0 0 96 96">
  <defs>
    <style>
      .cls-1 {
        fill: #fff;
      }
    </style>
  </defs>
  <path class="cls-1" d="M91.25,20.3c-.34,1.39-.57,2.8-1.15,4.12-.8,1.8-1.94,3.35-3.33,4.74-18.56,18.56-37.12,37.11-55.67,55.68-.54.54-1.15.85-1.88,1.03-7.33,1.73-14.66,3.48-21.99,5.23-.16.04-.31.11-.47.17h-.84c-1.16-.7-1.33-1.1-1.02-2.43,1.76-7.41,3.52-14.82,5.28-22.23.15-.65.46-1.18.94-1.66C29.71,46.36,48.29,27.76,66.9,9.17c5.3-5.3,12.93-5.92,18.8-1.52,2.99,2.24,4.74,5.29,5.37,8.97.04.21-.03.46.18.63v3.04ZM16.31,64.38c1.31-.15,2.58-.34,3.87-.43.67-.04,1.13-.32,1.59-.78,11.26-11.28,22.54-22.55,33.81-33.82.26-.26.52-.52.82-.72.62-.41,1.44-.32,1.93.21.51.56.63,1.2.21,1.86-.21.33-.5.61-.77.89-11.29,11.29-22.58,22.58-33.88,33.87-.4.4-.64.81-.7,1.38-.21,2.04-.44,4.09-.68,6.13-.05.45.04.6.52.54,2.07-.25,4.14-.49,6.21-.7.54-.06.92-.3,1.3-.68,11.28-11.3,22.58-22.59,33.87-33.88.28-.28.56-.56.89-.77.65-.42,1.43-.31,1.92.25.5.57.57,1.22.16,1.86-.19.3-.46.57-.72.82-11.29,11.29-22.58,22.58-33.87,33.88-.24.24-.6.42-.64.76-.2,1.53-.35,3.07-.54,4.78.29-.27.44-.39.58-.53,14.08-14.08,28.15-28.16,42.25-42.23.5-.5.34-.72-.06-1.11-4.79-4.77-9.58-9.54-14.33-14.34-.53-.54-.77-.42-1.24.05-13.97,13.99-27.95,27.97-41.93,41.95-.21.21-.51.36-.57.76ZM11.44,86.87c5.51-1.31,10.83-2.59,16.16-3.84.53-.12.56-.45.6-.85.18-1.73.32-3.47.58-5.2.12-.79,0-1.03-.84-.92-2.2.29-4.42.49-6.62.75-1.56.19-2.32-.59-2.14-2.16.27-2.29.5-4.58.77-6.87.06-.52-.05-.68-.62-.6-1.73.24-3.46.45-5.2.57-.77.05-1.11.3-1.28,1.07-.8,3.53-1.66,7.05-2.5,10.58-.2.85-.39,1.7-.59,2.55-.19.82-.39,1.63-.61,2.57,1.96-1.56,2.59-1.74,3.33-1,.27.27.42.6.45.98.08,1.05-.85,1.51-1.49,2.38ZM70.73,10.05c5.07,5.07,10.15,10.14,15.22,15.22,3.21-3.73,2.76-10.33-1.01-14.14-3.78-3.82-10.43-4.31-14.21-1.07ZM83.76,27.68c-.19-.2-.35-.39-.53-.56-4.41-4.42-8.83-8.83-13.25-13.24-.54-.54-1.06-1.45-1.64-1.49-.67-.05-1.11.99-1.72,1.47-.49.39-.47.66-.01,1.11,3.44,3.4,6.85,6.83,10.27,10.25,1.41,1.41,2.84,2.81,4.23,4.24.36.38.59.4.93,0,.42-.49.91-.92,1.36-1.38.12-.12.22-.25.35-.4ZM79.32,32.12c-.19-.21-.35-.4-.53-.58-4.39-4.4-8.79-8.79-13.18-13.18-.55-.55-1.1-1.48-1.71-1.52-.7-.05-1.15,1.02-1.78,1.52-.46.36-.35.61.02.97,1.91,1.87,3.78,3.77,5.67,5.66,2.96,2.96,5.93,5.92,8.88,8.9.36.36.57.41.91,0,.42-.49.91-.92,1.36-1.38.11-.12.21-.24.35-.4Z"/>
</svg>