<?xml version="1.0" encoding="UTF-8"?>
<svg id="Layer_1" data-name="Layer 1" xmlns="http://www.w3.org/2000/svg" viewBox="0 0 96 96">
  <defs>
    <style>
      .cls-1 {
        fill: #fff;
      }
    </style>
  </defs>
  <rect class="cls-1" x="74.62" y="9.43" width="3" height="18.01" transform="translate(8.91 58.64) rotate(-44.5)"/>
  <rect class="cls-1" x="70.1" y="14.17" width="3" height="18.01" transform="translate(4.56 57.37) rotate(-44.96)"/>
  <path class="cls-1" d="M3.55,96c-.38,0-.75-.14-1.04-.42-.45-.43-.58-1.08-.35-1.65l9.42-22.71c.04-.3.18-.58.4-.81L78.14,1.11C78.81.4,79.72,0,80.7,0c.98-.01,1.89.37,2.58,1.08l9.62,9.79c1.39,1.41,1.41,3.73.04,5.17L26.97,85.11c-.15.24-.36.44-.63.56l-22.17,10.19c-.2.09-.41.14-.63.14ZM14.43,72.18l-8.03,19.36,18.33-8.43L90.76,13.96c.26-.27.26-.73,0-.99l-9.62-9.79c-.15-.15-.3-.2-.42-.18-.11,0-.27.03-.42.19L14.43,72.18Z"/>
  <rect class="cls-1" x="10.01" y="81.76" width="3" height="8.92" transform="translate(-57.14 32.79) rotate(-44.5)"/>
  <path class="cls-1" d="M24.2,84.45c-.05-.39-1.23-9.54-11.6-11.7l.61-2.94c12.55,2.61,13.96,14.19,13.97,14.31l-2.98.33,1.49-.16-1.49.17Z"/>
</svg>