<?xml version="1.0" encoding="UTF-8"?>
<svg id="Layer_1" data-name="Layer 1" xmlns="http://www.w3.org/2000/svg" viewBox="0 0 96 96">
  <defs>
    <style>
      .cls-1 {
        fill: #fff;
      }
    </style>
  </defs>
  <path class="cls-1" d="M28.25,55.38h-.61c-10.36,0-18.79-8.43-18.79-18.79v-11.42c0-9.05,7.36-16.41,16.41-16.41h5.38c9.05,0,16.41,7.36,16.41,16.41v11.42c0,10.36-8.43,18.79-18.79,18.79ZM25.26,11.77c-7.4,0-13.41,6.02-13.41,13.41v11.42c0,8.71,7.08,15.79,15.79,15.79h.61c8.71,0,15.79-7.08,15.79-15.79v-11.42c0-7.39-6.02-13.41-13.41-13.41h-5.38Z"/>
  <path class="cls-1" d="M19.07,10.93c-.2-5,3.71-9.24,8.71-9.44,5.04-.17,9.24,3.71,9.44,8.71l-3,.12c-.13-3.27-2.83-5.84-6.08-5.84-.08,0-.17,0-.25,0-3.35.13-5.97,2.97-5.83,6.32l-3,.12Z"/>
  <path class="cls-1" d="M11.05,28.48l-.5-2.96,20.99-3.55c1.13-.19,2.27-.16,3.39.09l10.94,2.48-.66,2.93-10.94-2.48c-.74-.17-1.48-.19-2.23-.06l-20.99,3.55Z"/>
  <path class="cls-1" d="M27.92,48.38c-3.25,0-6.01-1.52-6.66-3.78l2.88-.83c.23.82,2.14,1.82,4.59,1.57,1.69-.18,2.83-.92,3.04-1.53l2.83.99c-.66,1.88-2.78,3.23-5.56,3.53-.38.04-.76.06-1.13.06Z"/>
  <path class="cls-1" d="M55.84,96H.41l1.05-18.08c.66-6.41,3.94-11.77,8.56-14.04l7.21-3.56.74.56c2.55,1.94,6.25,3.06,10.16,3.06s7.61-1.11,10.15-3.06l.74-.57,7.21,3.56c1.4.68,2.7,1.67,3.85,2.92,2.58,2.78,4.26,6.71,4.71,11.05l1.04,18.15ZM3.59,93h49.07l-.86-14.9c-.38-3.64-1.78-6.95-3.92-9.26-.9-.98-1.9-1.74-2.96-2.26l-5.58-2.75c-2.99,1.99-7.02,3.12-11.21,3.12s-8.21-1.13-11.21-3.12l-5.57,2.75c-3.71,1.82-6.35,6.26-6.9,11.59l-.86,14.83Z"/>
  <path class="cls-1" d="M17.88,63.34l-1.64-2.51,2.74-1.79c.33-.22.69-.83.69-1.65v-5.66h3v5.66c0,1.74-.79,3.34-2.05,4.16l-2.74,1.79Z"/>
  <path class="cls-1" d="M38.29,63.34l-2.74-1.79c-1.26-.82-2.04-2.42-2.04-4.16v-5.16h3v5.16c0,.83.35,1.44.68,1.65l2.74,1.79-1.64,2.51Z"/>
  <rect class="cls-1" x="39.79" y="79.38" width="3" height="15.64"/>
  <rect class="cls-1" x="12.35" y="79.38" width="3" height="15.64"/>
  <path class="cls-1" d="M70.44,58.1h-.56c-9.54,0-17.3-7.76-17.3-17.3v-7.55c0-9.54,7.76-17.3,17.3-17.3h.56c9.54,0,17.3,7.76,17.3,17.3v7.55c0,9.54-7.76,17.3-17.3,17.3ZM69.87,18.95c-7.89,0-14.3,6.42-14.3,14.3v7.55c0,7.89,6.42,14.3,14.3,14.3h.56c7.89,0,14.3-6.42,14.3-14.3v-7.55c0-7.89-6.42-14.3-14.3-14.3h-.56Z"/>
  <path class="cls-1" d="M61.01,36.55c-2.51,0-5.04-.42-7.45-1.29l1.02-2.82c7.38,2.67,16.09.43,20.26-5.2l1.66-2.25.95,2.63c1.08,2.98,4.76,4.86,8.59,4.36l.38,2.98c-4.33.55-8.47-1.15-10.67-4.2-3.66,3.71-9.14,5.79-14.75,5.79Z"/>
  <path class="cls-1" d="M95.59,96h-41.54v-3h38.36l-.78-13.64c-.5-4.75-2.89-8.77-6.22-10.4l-5.01-2.48c-2.75,1.81-6.43,2.83-10.24,2.83s-7.49-1.02-10.24-2.83l-5.02,2.48c-.98.48-1.88,1.16-2.68,2.03l-2.21-2.03c1.05-1.15,2.25-2.05,3.56-2.69l6.65-3.28.74.57c2.29,1.76,5.64,2.76,9.19,2.76s6.89-1.01,9.2-2.76l.74-.57,6.65,3.29c4.25,2.08,7.27,7.01,7.89,12.85l.96,16.88Z"/>
  <path class="cls-1" d="M60.88,66l-1.64-2.51,2.5-1.63c.27-.18.57-.69.57-1.4v-5.17h3v5.17c0,1.63-.74,3.13-1.93,3.91l-2.5,1.63Z"/>
  <path class="cls-1" d="M79.35,66l-2.5-1.63c-1.19-.77-1.92-2.27-1.92-3.91v-4.71h3v4.71c0,.71.29,1.22.56,1.4l2.5,1.63-1.64,2.51Z"/>
  <rect class="cls-1" x="79.62" y="80.52" width="3" height="14.45"/>
  <rect class="cls-1" x="59.96" y="80.52" width="3" height="14.45"/>
</svg>