<?xml version="1.0" encoding="UTF-8"?>
<svg id="Layer_1" data-name="Layer 1" xmlns="http://www.w3.org/2000/svg" viewBox="0 0 96 96">
  <defs>
    <style>
      .cls-1 {
        fill: #fff;
      }
    </style>
  </defs>
  <rect class="cls-1" x="1.88" y="91.01" width="92.24" height="3"/>
  <rect class="cls-1" x="60.25" y="57.57" width="3" height="35.42"/>
  <rect class="cls-1" x="60.25" y="51.45" width="3" height="41.54"/>
  <rect class="cls-1" x="88.79" y="22.54" width="3" height="69.85"/>
  <rect class="cls-1" x="74.64" y="40.74" width="3" height="50.76"/>
  <path class="cls-1" d="M44.38,51.44l-1.22-2.74C76.8,33.75,85.84,4.43,85.93,4.13l2.88.85c-.37,1.25-9.47,30.93-44.43,46.46Z"/>
  <polygon class="cls-1" points="92.35 17.02 87.33 4.97 75.28 9.99 74.13 7.22 88.94 1.05 95.12 15.86 92.35 17.02"/>
  <path class="cls-1" d="M28.21,52.28c-8.07,0-14.64-6.57-14.64-14.64v-9.43c0-8.07,6.57-14.64,14.64-14.64s14.64,6.57,14.64,14.64v9.43c0,8.07-6.57,14.64-14.64,14.64ZM28.21,16.57c-6.42,0-11.64,5.22-11.64,11.64v9.43c0,6.42,5.22,11.64,11.64,11.64s11.64-5.22,11.64-11.64v-9.43c0-6.42-5.22-11.64-11.64-11.64Z"/>
  <path class="cls-1" d="M20.76,33.92c-2.12,0-4.25-.42-6.29-1.31l1.2-2.75c5.84,2.54,12.75.38,16.07-5.05l1.75-2.86.96,3.21c.86,2.86,3.72,4.67,6.66,4.21l.46,2.96c-3.48.54-6.91-1.05-8.82-3.85-3.04,3.49-7.46,5.43-11.99,5.43Z"/>
  <path class="cls-1" d="M28.25,62.3c-1.9,0-3.69-.74-5.05-2.09-1.15-1.16-1.88-2.67-2.05-4.26-.03-.25-.04-.52-.04-.79v-5.58h3v5.58c0,.15,0,.3.02.45.1.93.52,1.81,1.19,2.48.78.77,1.82,1.21,2.92,1.21,2.1,0,3.87-1.57,4.11-3.66.03-.2.03-.34.03-.48v-5.61h3v5.61c0,.24,0,.55-.06.89-.4,3.53-3.45,6.25-7.08,6.25Z"/>
  <path class="cls-1" d="M55.2,86.32H1.02v-14.74c0-6.15,3.93-11.57,9.78-13.49l13.14-4.29.2,1.84c.1.92.52,1.79,1.19,2.47.78.77,1.82,1.21,2.92,1.21,2.1,0,3.87-1.57,4.11-3.66l.21-1.83,12.9,4.27c5.82,1.92,9.73,7.34,9.73,13.48v14.77ZM4.02,83.32h48.18v-11.77c0-4.84-3.08-9.11-7.68-10.63l-9.62-3.18c-1.04,2.69-3.65,4.56-6.66,4.56-1.9,0-3.69-.74-5.05-2.08-.71-.72-1.27-1.58-1.62-2.5l-9.85,3.22c-4.61,1.51-7.71,5.79-7.71,10.64v11.74Z"/>
  <rect class="cls-1" x="12.29" y="68.41" width="3" height="16.67"/>
  <rect class="cls-1" x="40.98" y="68.59" width="3" height="16.49"/>
</svg>