<?xml version="1.0" encoding="UTF-8"?>
<svg id="Layer_1" xmlns="http://www.w3.org/2000/svg" version="1.1" viewBox="0 0 96 96">
  <!-- Generator: Adobe Illustrator 29.3.1, SVG Export Plug-In . SVG Version: 2.1.0 Build 151)  -->
  <defs>
    <style>
      .st0 {
        fill: #fff;
      }
    </style>
  </defs>
  <path class="st0" d="M42,54.6h-8.8v-8.8c0-.7-.6-1.3-1.3-1.3h-8.2c-.7,0-1.3.6-1.3,1.3v8.8h-8.8c-.7,0-1.3.6-1.3,1.3v8.2c0,.7.6,1.3,1.3,1.3h8.8v8.8c0,.7.6,1.3,1.3,1.3h8.2c.7,0,1.3-.6,1.3-1.3v-8.8h8.8c.7,0,1.3-.6,1.3-1.3v-8.2c0-.7-.6-1.3-1.3-1.3ZM40.7,62.8h-8.8c-.7,0-1.3.6-1.3,1.3v8.8h-5.6v-8.8c0-.7-.6-1.3-1.3-1.3h-8.8v-5.6h8.8c.7,0,1.3-.6,1.3-1.3v-8.8h5.6v8.8c0,.7.6,1.3,1.3,1.3h8.8v5.6h0ZM85.2,75.3h-23.3l4-6.9c2.7-4.7,1.1-10.7-3.6-13.5,0,0,0,0,0,0-2.4-1.4-5.2-1.6-7.8-.9v-17.3c0-.4-.2-.8-.5-1l-10.3-8.2v-11.7c2.3-.2,4.2-2.1,4.2-4.5v-5.9c0-2.5-2-4.5-4.5-4.5H12.1c-2.5,0-4.5,2-4.5,4.5v5.9c0,2.4,1.8,4.3,4.2,4.5v11.7L1.5,35.7c-.3.2-.5.6-.5,1v46.2c0,6.4,5.2,11.6,11.6,11.6h30.3c1.3,0,2.6-.2,3.8-.6,2.4-.3,4.7-1.5,6.3-3.5,1.8,2.8,4.9,4.6,8.3,4.6h23.9c5.4,0,9.8-4.4,9.8-9.8s-4.4-9.8-9.8-9.8h0ZM57.3,56.2c1.2,0,2.5.3,3.6,1,3.5,2,4.7,6.5,2.7,9.9l-5.3,9.2-12.6-7.3,5.3-9.2c1.3-2.3,3.8-3.6,6.3-3.6h0ZM48.8,58.5l-11.9,20.6H3.6v-38.2h48.4v14.3c-1.2.8-2.3,1.9-3.1,3.3ZM41.1,19.7H14.4v-3.7h26.7v3.7ZM10.2,11.5v-5.9c0-1,.9-1.9,1.9-1.9h31.3c1,0,1.9.8,1.9,1.9v5.9c0,1-.9,1.9-1.9,1.9H12.1c-1,0-1.9-.9-1.9-1.9ZM13.9,29.2c.3-.2.5-.6.5-1v-6h26.7v6c0,.4.2.8.5,1l10.3,8.2v.9H3.6v-.9l10.3-8.2ZM3.6,82.9v-1.2h32.3c-.9,3.8.4,7.8,3.6,10.2H12.6c-5,0-9-4.1-9-9ZM41.8,90.4c-3.5-2-4.7-6.5-2.7-9.9l5.3-9.2,12.6,7.3-5.3,9.2c-2,3.5-6.5,4.7-9.9,2.7ZM54.6,87.9l5.8-10.1h11.5v14.6h-10.6c-2.9,0-5.6-1.8-6.7-4.5h0ZM85.2,92.4h-10.6v-14.6h10.6c4,0,7.3,3.3,7.3,7.3s-3.3,7.3-7.3,7.3ZM14.4,10.8h-2.6v-4.7h2.6v4.7ZM20.2,10.8h-2.6v-4.7h2.6v4.7ZM26.1,10.8h-2.6v-4.7h2.6v4.7ZM32,10.8h-2.6v-4.7h2.6v4.7ZM37.8,10.8h-2.6v-4.7h2.6v4.7ZM43.7,10.8h-2.6v-4.7h2.6v4.7Z"/>
</svg>