<?xml version="1.0" encoding="UTF-8"?>
<svg id="Layer_1" data-name="Layer 1" xmlns="http://www.w3.org/2000/svg" viewBox="0 0 96 96">
  <path d="M50.38,10c-16.61,0-30.08,13.47-30.08,30.08s13.47,30.08,30.08,30.08,30.08-13.47,30.08-30.08c-.02-16.61-13.48-30.06-30.08-30.08ZM50.38,67c-14.87,0-26.92-12.05-26.92-26.92s12.05-26.92,26.92-26.92,26.92,12.05,26.92,26.92c-.02,14.86-12.06,26.9-26.92,26.92Z" fill="#fff"/>
  <path d="M50.38.5c-21.77.02-39.45,17.61-39.58,39.38l-4.7,18.82c-.21.85.3,1.71,1.15,1.92.13.03.25.05.38.05h9.5v14.25c0,.87.71,1.58,1.58,1.58h20.58v17.42c0,.87.71,1.58,1.58,1.58h47.5c.87,0,1.58-.71,1.58-1.58h0v-53.84c-.03-21.85-17.74-39.55-39.58-39.57ZM86.79,92.33h-44.33v-17.42c0-.87-.71-1.58-1.58-1.58h-20.58v-14.25c0-.87-.71-1.58-1.58-1.58h-9.06l4.26-17.04c.03-.13.05-.25.05-.38C13.96,19.96,30.26,3.66,50.38,3.66s36.42,16.3,36.42,36.42v52.26Z" fill="#fff"/>
  <path d="M55.13,16.33h-9.5c-.87,0-1.58.71-1.58,1.58h0v9.5c0,.87.71,1.58,1.58,1.58h9.5c.87,0,1.58-.71,1.58-1.58h0v-9.5c0-.87-.71-1.58-1.58-1.58ZM53.54,25.83h-6.33v-6.33h6.33v6.33Z" fill="#fff"/>
  <polygon points="40.41 38.04 38.17 35.8 34.54 39.43 30.91 35.8 28.67 38.04 32.3 41.67 28.67 45.3 30.91 47.54 34.54 43.91 38.17 47.54 40.41 45.3 36.78 41.67 40.41 38.04" fill="#fff"/>
  <polygon points="73.66 34.87 71.42 32.63 67.79 36.26 64.16 32.63 61.92 34.87 65.55 38.5 61.92 42.13 64.16 44.37 67.79 40.74 71.42 44.37 73.66 42.13 70.03 38.5 73.66 34.87" fill="#fff"/>
  <path d="M51.1,51.62l.39-1.56c1-4.05.99-8.29-.03-12.33l2.72,2.04,1.9-2.53-6.33-4.75c-.7-.53-1.69-.38-2.22.31-.06.08-.11.16-.15.24l-3.17,6.33,2.83,1.42,1.27-2.55c.96,3.62,1,7.42.1,11.05l-.49,1.96c-3.45.49-5.84,3.69-5.35,7.13.49,3.45,3.69,5.84,7.13,5.35,3.45-.49,5.84-3.69,5.35-7.13-.32-2.26-1.84-4.16-3.96-4.98ZM48.79,60.67c-1.75,0-3.17-1.42-3.17-3.17s1.42-3.17,3.17-3.17,3.17,1.42,3.17,3.17c0,1.75-1.42,3.16-3.17,3.17Z" fill="#fff"/>
</svg>