<?xml version="1.0" encoding="UTF-8"?>
<svg id="Layer_1" data-name="Layer 1" xmlns="http://www.w3.org/2000/svg" viewBox="0 0 96 96">
  <path d="M73.04,82.15c-.94.51-1.9,1.04-2.87,1.58-8.2,4.55-17.49,9.7-26.42,8.9l-31.63-2.82s-.08,0-.12,0H3.29v-15.65h8.71c.33,0,.65-.12.9-.33.02-.02,2.52-2.11,6.31-4.08.68-.35.95-1.2.59-1.88-.36-.68-1.2-.95-1.88-.59-3.2,1.66-5.52,3.39-6.42,4.1H1.89c-.77,0-1.39.62-1.39,1.39v18.44c0,.77.62,1.39,1.39,1.39h10.04l31.57,2.82c.71.06,1.42.09,2.14.09,9.05,0,17.96-4.94,25.89-9.33.96-.53,1.91-1.06,2.85-1.57.68-.37.93-1.22.56-1.89-.37-.68-1.21-.93-1.89-.56h0Z" fill="#fff"/>
  <path d="M94.42,66.7c-1.48-1.97-4.07-2.64-6.29-1.71-.06-.89-.36-1.76-.89-2.5-1.39-1.95-4.04-2.58-6.17-1.46l-3.32,1.75c-.04-.78-.27-1.55-.68-2.22-1.32-2.19-4.12-2.95-6.36-1.73l-2.48,1.34c-.04-.96-.37-1.9-.95-2.7-1.45-1.98-4.08-2.59-6.26-1.45l-17.89,9.38c-2.01-.77-8.43-2.86-15.92-1.47-1.29.24-2.62.59-3.96,1.04-.73.24-1.12,1.03-.88,1.76.24.73,1.03,1.12,1.76.88,1.21-.41,2.42-.72,3.59-.94,8-1.49,14.85,1.5,14.91,1.53.18.08.37.12.57.12h18.63c1.32,0,2.4,1.08,2.4,2.41,0,1.21-.9,2.24-2.1,2.39l-23.61,2.99c-.7.09-1.22.68-1.22,1.39,0,.7.53,1.3,1.23,1.38l10.03,1.21c9.71,1.17,19.37-.72,27.92-5.48l12.53-6.96c1.1-.57,2.44-.27,3.19.72.94,1.18.53,3.08-.81,3.77l-13.44,7.33c-1.61.84-.23,3.34,1.33,2.45l13.44-7.33c1.36-.74,2.33-2.04,2.66-3.56.33-1.52-.02-3.1-.96-4.34h0ZM62.32,58.49c.94-.49,2.08-.23,2.71.63.78,1,.42,2.59-.7,3.16l-6.03,3.27h-9.44l13.45-7.06ZM63.59,65.86l8.45-4.58c.93-.51,2.1-.19,2.65.72.6.94.22,2.31-.78,2.8l-7.33,3.86c-.57-1.3-1.65-2.32-2.99-2.81h0ZM75.12,72.18c-7.67,4.26-16.28,6.08-24.98,5.28l12.34-1.56c2.29-.29,4.08-2.06,4.46-4.27l15.43-8.13c.89-.47,2.01-.21,2.6.62.71.94.38,2.42-.67,2.97l-9.18,5.11Z" fill="#fff"/>
  <path d="M32.97,38.39c1.57,0,3.09-.34,4.5-1.01.7-.33.99-1.16.66-1.86-.33-.7-1.16-.99-1.86-.66-1.04.49-2.15.74-3.3.74-4.25,0-7.71-3.46-7.71-7.71s3.46-7.71,7.71-7.71,7.71,3.46,7.71,7.71c0,1.3-.33,2.59-.95,3.72-.37.67-.13,1.52.55,1.89.67.37,1.52.13,1.89-.55.85-1.54,1.3-3.29,1.3-5.06,0-5.79-4.71-10.49-10.49-10.49s-10.49,4.71-10.49,10.49,4.71,10.5,10.49,10.5Z" fill="#fff"/>
  <path d="M11.2,32.04l2.89.43c.47,1.96,1.24,3.81,2.29,5.53l-1.74,2.35c-.82,1.11-.71,2.63.27,3.6l1.99,1.99c.98.98,2.49,1.09,3.6.27l2.35-1.74c1.72,1.05,3.57,1.82,5.53,2.29l.43,2.89c.21,1.37,1.36,2.36,2.74,2.36h2.81c1.38,0,2.53-.99,2.74-2.36l.43-2.89c1.96-.47,3.81-1.24,5.53-2.29l2.35,1.74c1.11.82,2.63.71,3.6-.27l1.99-1.99c.98-.98,1.09-2.49.27-3.6l-1.74-2.35c1.05-1.72,1.82-3.57,2.29-5.53l2.89-.43c1.37-.21,2.36-1.36,2.36-2.74h0s8.27-.01,8.27-.01v17.77c0,1.79,1.46,3.25,3.25,3.25h5.96c.64,2.84,3.18,4.97,6.21,4.97,3.51,0,6.37-2.86,6.37-6.37s-2.86-6.37-6.37-6.37c-3.03,0-5.57,2.13-6.21,4.97h-5.96c-.26,0-.46-.21-.46-.46v-17.77h6.42c.64,2.84,3.18,4.97,6.21,4.97,3.51,0,6.37-2.86,6.37-6.37s-2.86-6.37-6.37-6.37c-3.03,0-5.57,2.13-6.21,4.97h-6.42V8.72c0-.26.21-.46.46-.46h5.96c.64,2.84,3.18,4.97,6.21,4.97,3.51,0,6.37-2.86,6.37-6.37s-2.86-6.37-6.37-6.37c-3.03,0-5.57,2.13-6.21,4.97h-5.96c-1.79,0-3.25,1.46-3.25,3.25v17.77h-8.27c0-1.39-.99-2.55-2.36-2.75l-2.89-.43c-.47-1.96-1.24-3.81-2.29-5.53l1.74-2.35c.82-1.11.71-2.63-.27-3.6l-1.99-1.99c-.98-.98-2.49-1.09-3.6-.27l-2.35,1.74c-1.72-1.05-3.58-1.82-5.53-2.29l-.43-2.89c-.21-1.37-1.36-2.36-2.74-2.36h-2.81c-1.38,0-2.53.99-2.74,2.36l-.43,2.89c-1.96.47-3.81,1.24-5.53,2.29l-2.35-1.74c-1.11-.82-2.63-.71-3.6.27l-1.99,1.99c-.98.98-1.09,2.49-.27,3.6l1.74,2.35c-1.05,1.72-1.82,3.58-2.29,5.53l-2.89.43c-1.37.21-2.36,1.36-2.36,2.74v2.81c0,1.38.99,2.53,2.36,2.74h0ZM80.79,45.34c1.97,0,3.58,1.61,3.58,3.58s-1.61,3.58-3.58,3.58-3.58-1.61-3.58-3.58,1.61-3.58,3.58-3.58h0ZM80.79,24.31c1.97,0,3.58,1.61,3.58,3.58s-1.61,3.58-3.58,3.58-3.58-1.61-3.58-3.58,1.61-3.58,3.58-3.58ZM80.79,3.29c1.97,0,3.58,1.61,3.58,3.58s-1.61,3.58-3.58,3.58-3.58-1.61-3.58-3.58,1.61-3.58,3.58-3.58ZM11.63,26.5l3.83-.58c.59-.09,1.05-.54,1.16-1.12.42-2.27,1.3-4.38,2.61-6.29.33-.49.32-1.14-.03-1.62l-2.3-3.11,1.97-1.97,3.11,2.3c.48.35,1.13.36,1.62.03,1.91-1.3,4.03-2.18,6.29-2.61.58-.11,1.03-.58,1.12-1.16l.58-3.83h2.78l.58,3.83c.09.59.54,1.05,1.12,1.16,2.27.42,4.38,1.3,6.29,2.61.49.34,1.14.32,1.62-.03l3.11-2.3,1.97,1.97-2.3,3.11c-.35.48-.36,1.13-.03,1.62,1.3,1.91,2.18,4.02,2.61,6.29.11.58.58,1.03,1.16,1.12l3.83.58v2.78l-3.83.58c-.59.09-1.05.54-1.16,1.12-.43,2.27-1.3,4.38-2.61,6.29-.33.49-.32,1.14.03,1.62l2.3,3.11-1.97,1.97-3.11-2.3c-.48-.35-1.13-.36-1.62-.03-1.91,1.3-4.02,2.18-6.29,2.61-.58.11-1.03.58-1.12,1.16l-.58,3.83h-2.78l-.58-3.83c-.09-.59-.54-1.05-1.12-1.16-2.27-.43-4.38-1.3-6.29-2.61-.49-.33-1.14-.32-1.62.03l-3.11,2.3-1.97-1.97,2.3-3.11c.35-.48.36-1.13.03-1.62-1.3-1.91-2.18-4.02-2.61-6.29-.11-.58-.58-1.03-1.16-1.12l-3.83-.58v-2.78Z" fill="#fff"/>
</svg>