<?xml version="1.0" encoding="UTF-8"?>
<svg id="Layer_1" data-name="Layer 1" xmlns="http://www.w3.org/2000/svg" viewBox="0 0 96 96">
  <path d="M64.86,32.96c0-.85-.69-1.53-1.53-1.53h-1.94c-.23-.72-.52-1.42-.87-2.09l1.37-1.37c.6-.6.6-1.57,0-2.17h0s-3.94-3.94-3.94-3.94c-.6-.6-1.57-.6-2.17,0h0s-1.37,1.37-1.37,1.37c-.67-.35-1.37-.64-2.09-.87v-1.94c0-.85-.69-1.53-1.53-1.53h-5.57c-.85,0-1.53.69-1.53,1.53v1.94c-.72.23-1.42.52-2.09.87l-1.37-1.37c-.6-.6-1.57-.6-2.17,0h0s-3.94,3.94-3.94,3.94c-.6.6-.6,1.57,0,2.17h0s1.37,1.37,1.37,1.37c-.35.67-.64,1.37-.87,2.09h-1.94c-.85,0-1.53.69-1.53,1.53v5.57c0,.85.69,1.53,1.53,1.53h1.94c.23.72.52,1.42.87,2.09l-1.37,1.37c-.6.6-.6,1.57,0,2.17h0s3.94,3.94,3.94,3.94c.6.6,1.57.6,2.17,0h0s1.37-1.37,1.37-1.37c.67.35,1.37.64,2.09.87v1.94c0,.85.69,1.53,1.53,1.53h5.57c.85,0,1.53-.69,1.53-1.53v-1.94c.72-.23,1.42-.52,2.09-.87l1.37,1.37c.6.6,1.57.6,2.17,0h0s3.94-3.94,3.94-3.94c.6-.6.6-1.57,0-2.17h0s-1.37-1.37-1.37-1.37c.35-.67.64-1.37.87-2.09h1.94c.85,0,1.53-.69,1.53-1.53v-5.57ZM61.79,37h-.53c-1.28,0-2.4.85-2.78,2.07-.19.59-.43,1.17-.72,1.72-.61,1.13-.41,2.52.49,3.43l.38.38-1.77,1.77-.38-.38c-.91-.9-2.3-1.1-3.43-.49-.55.29-1.13.53-1.72.72-1.22.37-2.06,1.5-2.07,2.78v.53h-2.51v-.53c0-1.28-.85-2.4-2.07-2.78-.59-.19-1.17-.43-1.72-.72-1.13-.61-2.52-.4-3.43.49l-.38.38-1.77-1.77.38-.38c.9-.91,1.1-2.3.49-3.43-.29-.55-.53-1.13-.72-1.72-.37-1.22-1.5-2.06-2.78-2.07h-.53v-2.51h.53c1.28,0,2.4-.85,2.78-2.07.19-.59.43-1.17.72-1.72.61-1.13.41-2.52-.49-3.43l-.38-.38,1.77-1.77.38.38c.91.9,2.3,1.1,3.43.49.55-.29,1.13-.53,1.72-.72,1.22-.37,2.06-1.5,2.07-2.78v-.53h2.51v.53c0,1.28.85,2.4,2.07,2.78.59.19,1.17.43,1.72.72,1.13.61,2.52.41,3.43-.49l.38-.38,1.77,1.77-.38.38c-.9.91-1.1,2.3-.49,3.43.29.55.53,1.13.72,1.72.37,1.22,1.5,2.06,2.78,2.07h.53v2.51Z" fill="#fff"/>
  <path d="M48,26.55c-5.08,0-9.19,4.12-9.19,9.19s4.12,9.19,9.19,9.19,9.19-4.12,9.19-9.19c0-5.08-4.12-9.19-9.19-9.19ZM48,41.87c-3.38,0-6.13-2.74-6.13-6.13s2.74-6.13,6.13-6.13,6.13,2.74,6.13,6.13c0,3.38-2.75,6.13-6.13,6.13Z" fill="#fff"/>
  <path d="M3.56,95.5h88.87c.85,0,1.53-.69,1.53-1.53,0-.21-.04-.41-.12-.6l-9.19-21.45c-.24-.56-.8-.93-1.41-.93h-18.39v3.06h17.38l7.88,18.39H5.89l7.88-18.39h17.38v-3.06H12.76c-.61,0-1.17.37-1.41.93l-9.19,21.45c-.33.78.03,1.68.8,2.01.19.08.4.12.6.12h0Z" fill="#fff"/>
  <path d="M43.4,57.19h3.06v9.19h-3.06v-9.19Z" fill="#fff"/>
  <path d="M43.4,69.45h3.06v3.06h-3.06v-3.06Z" fill="#fff"/>
  <path d="M43.4,75.58h3.06v7.66h-3.06v-7.66Z" fill="#fff"/>
  <path d="M49.53,57.19h3.06v10.73h-3.06v-10.73Z" fill="#fff"/>
  <path d="M49.53,70.98h3.06v12.26h-3.06v-12.26Z" fill="#fff"/>
  <path d="M55.66,60.26h3.06v13.79h-3.06v-13.79Z" fill="#fff"/>
  <path d="M37.27,77.11h3.06v3.06h-3.06v-3.06Z" fill="#fff"/>
  <path d="M37.27,58.73h3.06v15.32h-3.06v-15.32Z" fill="#fff"/>
  <path d="M55.66,77.11h3.06v3.06h-3.06v-3.06Z" fill="#fff"/>
  <path d="M72.52,5.1c-.85,0-1.53.69-1.53,1.53v9.19c0,.85.69,1.53,1.53,1.53h4.6v3.06h-3.06c-.85,0-1.53.69-1.53,1.53v7.66c0,.85.69,1.53,1.53,1.53h7.66c.85,0,1.53-.69,1.53-1.53v-3.06h7.66c.85,0,1.53-.69,1.53-1.53v-12.26c0-.85-.69-1.53-1.53-1.53h-7.66v-4.6c0-.85-.69-1.53-1.53-1.53h-9.19ZM74.05,14.29v-6.13h6.13v3.06h-1.53c-.85,0-1.53.69-1.53,1.53v1.53h-3.06ZM80.18,28.08h-4.6v-4.6h1.53v1.53c0,.85.69,1.53,1.53,1.53h1.53v1.53ZM89.37,14.29v9.19h-9.19v-9.19h9.19Z" fill="#fff"/>
  <path d="M52.6,12.76c.85,0,1.53-.69,1.53-1.53V2.03c0-.85-.69-1.53-1.53-1.53h-9.19c-.85,0-1.53.69-1.53,1.53v9.19c0,.85.69,1.53,1.53,1.53h9.19ZM44.94,3.56h6.13v6.13h-6.13V3.56Z" fill="#fff"/>
  <path d="M5.1,46.47h9.19c.85,0,1.53-.69,1.53-1.53v-4.6h7.66c.85,0,1.53-.69,1.53-1.53v-12.26c0-.85-.69-1.53-1.53-1.53h-12.26c-.85,0-1.53.69-1.53,1.53v7.66h-4.6c-.85,0-1.53.69-1.53,1.53v9.19c0,.85.69,1.53,1.53,1.53ZM12.76,28.08h9.19v9.19h-9.19v-9.19ZM6.63,37.27h3.06v1.53c0,.85.69,1.53,1.53,1.53h1.53v3.06h-6.13v-6.13Z" fill="#fff"/>
  <path d="M14.29,20.42h7.66c.85,0,1.53-.69,1.53-1.53v-7.66c0-.85-.69-1.53-1.53-1.53h-7.66c-.85,0-1.53.69-1.53,1.53v7.66c0,.85.69,1.53,1.53,1.53ZM15.82,12.76h4.6v4.6h-4.6v-4.6Z" fill="#fff"/>
  <path d="M70.98,46.47c-.85,0-1.53.69-1.53,1.53v6.13c0,.85.69,1.53,1.53,1.53h6.13c.85,0,1.53-.69,1.53-1.53v-6.13c0-.85-.69-1.53-1.53-1.53h-6.13ZM75.58,52.6h-3.06v-3.06h3.06v3.06Z" fill="#fff"/>
  <path d="M16.88,78.65h11.2v-3.06h-12.26c-.64,0-1.21.4-1.43.99l-4.6,12.26c-.3.79.1,1.68.9,1.97.17.06.35.1.54.1h73.55c.85,0,1.53-.69,1.53-1.53,0-.18-.03-.37-.1-.54l-4.6-12.26c-.22-.6-.8-.99-1.43-.99h-12.26v3.06h11.2l3.45,9.19H13.44l3.45-9.19Z" fill="#fff"/>
</svg>