<?xml version="1.0" encoding="UTF-8"?>
<svg id="Layer_1" data-name="Layer 1" xmlns="http://www.w3.org/2000/svg" viewBox="0 0 96 96">
  <defs>
    <style>
      .cls-1 {
        stroke-linejoin: round;
      }

      .cls-1, .cls-2 {
        fill: none;
        stroke: #fff;
        stroke-width: 3px;
      }

      .cls-2 {
        stroke-miterlimit: 10;
      }
    </style>
  </defs>
  <rect class="cls-2" x="16.56" y="2.6" width="30.8" height="41.85" rx="14.17" ry="14.17"/>
  <path class="cls-1" d="M16.56,21.55c7.78,3.39,16.73.43,21.04-6.61,1.28,4.26,5.49,6.83,9.76,6.17"/>
  <path class="cls-1" d="M25.4,43.06v6.54c0,.25,0,.49.04.74.17,1.53.87,2.9,1.89,3.94,1.2,1.19,2.85,1.93,4.68,1.93,3.39,0,6.19-2.56,6.56-5.85.04-.25.05-.5.05-.76v-6.58"/>
  <path class="cls-1" d="M48.02,84.36H1.85v-15.52c0-6.43,4.14-12.13,10.25-14.14l13.34-4.36c.17,1.53.87,2.9,1.9,3.94,1.2,1.19,2.85,1.93,4.67,1.93,3.4,0,6.19-2.55,6.57-5.85l7.52,2.49"/>
  <line class="cls-1" x1="15.06" y1="84.66" x2="15.06" y2="65.12"/>
  <polygon class="cls-1" points="94.15 59.63 72.44 71.73 50.74 59.63 72.44 47.54 94.15 59.63"/>
  <polyline class="cls-1" points="59.33 64.42 50.74 69.2 61.59 75.26 72.44 81.3 83.29 75.26 83.3 75.26 94.15 69.2 85.57 64.42"/>
  <polyline class="cls-1" points="83.29 75.26 83.3 75.26 94.15 81.3 72.44 93.4 50.74 81.3 61.59 75.26"/>
</svg>