<?xml version="1.0" encoding="UTF-8"?>
<svg id="Layer_1" data-name="Layer 1" xmlns="http://www.w3.org/2000/svg" viewBox="0 0 96 96">
  <defs>
    <style>
      .cls-1 {
        stroke-linejoin: round;
      }

      .cls-1, .cls-2 {
        fill: none;
        stroke: #fff;
        stroke-width: 3px;
      }

      .cls-2 {
        stroke-miterlimit: 10;
      }
    </style>
  </defs>
  <path class="cls-2" d="M25.03,86.39h-.33c-6.46,0-11.44-6.03-10.55-12.79l1.23-9.51c.78-6.01,4.63-11.09,10.02-13.2l8.26-3.25c3.5,2.13,8.63,3.48,14.34,3.48s10.85-1.35,14.34-3.48l8.25,3.25c5.39,2.11,9.24,7.19,10.02,13.2l1.23,9.51c.88,6.76-4.09,12.79-10.55,12.79h-1.36"/>
  <path class="cls-2" d="M38.98,40.01v2.79c0,1.28-.69,2.44-1.77,3l-3.55,1.85"/>
  <path class="cls-2" d="M56.91,39.58v3.21c0,1.28.68,2.44,1.77,3l3.55,1.85"/>
  <path class="cls-2" d="M25.03,88.5v-27.16c0-1.02.76-1.86,1.71-1.91.03-.01.07-.01.1-.01h41.29c1,0,1.82.85,1.82,1.92v27.16"/>
  <path class="cls-2" d="M78.31,88.5v.5c0,3.03-2.33,5.5-5.2,5.5H22.15c-2.87,0-5.2-2.46-5.2-5.5v-.5h61.37Z"/>
  <path class="cls-1" d="M62.61,18.35v9.07c0,4.99-2.23,9.42-5.7,12.26-2.47,2.02-5.58,3.23-8.95,3.23h-.68c-3.07,0-5.93-1-8.29-2.71-3.84-2.79-6.36-7.48-6.36-12.77v-8.67h0c7.57,3.12,16.28.4,20.48-6.07,1.24,3.91,5.35,6.28,9.5,5.67h0Z"/>
  <path class="cls-2" d="M68.53,50.08v-26.84c0-12.01-9.21-21.74-20.58-21.74s-20.59,9.74-20.59,21.74v26.88"/>
  <polygon class="cls-1" points="56.98 69.04 47.61 74.26 38.23 69.04 47.61 63.82 56.98 69.04"/>
  <polyline class="cls-1" points="41.94 71.58 38.23 73.65 42.92 76.26 47.6 78.87 52.29 76.26 52.3 76.26 56.98 73.65 53.27 71.58"/>
  <polyline class="cls-1" points="52.29 75.79 52.83 76.06 56.98 78.4 47.6 83.62 38.23 78.4 42.92 75.79"/>
</svg>