<?xml version="1.0" encoding="UTF-8"?>
<svg id="Layer_1" data-name="Layer 1" xmlns="http://www.w3.org/2000/svg" viewBox="0 0 96 96">
  <defs>
    <style>
      .cls-1 {
        fill: #fff;
      }
    </style>
  </defs>
  <rect class="cls-1" x="12.53" y="34.57" width="5.39" height="3"/>
  <path class="cls-1" d="M39.62,79.92C17.77,79.92,0,62.15,0,40.3S17.77.67,39.62.67c12.93,0,25.08,6.34,32.5,16.96h0c4.65,6.66,7.11,14.5,7.11,22.66,0,8.72-2.78,16.99-8.03,23.92-2.22,2.94-4.86,5.57-7.84,7.81-6.9,5.16-15.11,7.89-23.74,7.89ZM39.62,3.67C19.43,3.67,3,20.1,3,40.3s16.43,36.62,36.62,36.62c7.98,0,15.56-2.52,21.94-7.29,2.76-2.07,5.2-4.5,7.25-7.22,4.86-6.4,7.42-14.05,7.42-22.11,0-7.55-2.27-14.79-6.57-20.94h0c-6.86-9.82-18.09-15.68-30.04-15.68ZM54.7,42.03c-1.76,0-3.45-.73-4.65-1.99l2.18-2.06c.65.68,1.52,1.06,2.47,1.06,1.88,0,3.41-1.53,3.41-3.41,0-.98-.42-1.91-1.16-2.55l1.96-2.27c1.39,1.21,2.19,2.96,2.19,4.82,0,3.54-2.88,6.41-6.41,6.41ZM27.54,40.59l-2.18-2.06c.58-.62.9-1.43.9-2.3,0-1.89-1.54-3.42-3.42-3.42s-3.35,1.45-3.4,3.31l-3-.09c.1-3.49,2.91-6.22,6.4-6.22s6.42,2.88,6.42,6.42c0,1.63-.61,3.18-1.72,4.36Z"/>
  <path class="cls-1" d="M39.62,69.21c-15.94,0-28.91-12.97-28.91-28.91,0-1.51.12-3.01.34-4.46,2.15-13.94,14.44-24.46,28.57-24.46,10.21,0,19.76,5.47,24.92,14.27h0c2.61,4.42,3.99,9.48,3.99,14.64,0,15.94-12.97,28.91-28.91,28.91ZM39.62,14.38c-12.67,0-23.68,9.42-25.61,21.92-.2,1.3-.31,2.64-.31,3.99,0,14.29,11.62,25.91,25.91,25.91s25.91-11.62,25.91-25.91c0-4.63-1.24-9.16-3.57-13.12h0c-4.63-7.89-13.19-12.8-22.34-12.8ZM54.7,42.03c-1.76,0-3.45-.73-4.65-1.99l2.18-2.06c.65.68,1.52,1.06,2.47,1.06,1.88,0,3.41-1.53,3.41-3.41,0-.98-.42-1.91-1.16-2.55l1.96-2.27c1.39,1.21,2.19,2.96,2.19,4.82,0,3.54-2.88,6.41-6.41,6.41ZM27.54,40.59l-2.18-2.06c.58-.62.9-1.43.9-2.3,0-1.89-1.54-3.42-3.42-3.42s-3.35,1.45-3.4,3.31l-3-.09c.1-3.49,2.91-6.22,6.4-6.22s6.42,2.88,6.42,6.42c0,1.63-.61,3.18-1.72,4.36Z"/>
  <path class="cls-1" d="M87.69,95.33c-1.83,0-3.54-.71-4.83-2.01l-21.46-21.43,2.12-2.12,21.47,21.43c1.45,1.45,3.96,1.45,5.41,0,.73-.73,1.13-1.69,1.13-2.71s-.4-1.98-1.12-2.7l-21.45-21.42,2.12-2.12,21.45,21.42c1.29,1.29,2.01,3,2.01,4.83s-.71,3.54-2.01,4.83c-1.28,1.29-3,2-4.82,2Z"/>
  <rect class="cls-1" x="67.01" y="71.66" width="10.65" height="3" transform="translate(-30.55 72.58) rotate(-45)"/>
  <rect class="cls-1" x="83.61" y="8.73" width="10.89" height="3"/>
  <rect class="cls-1" x="40.34" y="42.1" width="12.76" height="3" transform="translate(-17.1 47.04) rotate(-46.11)"/>
  <rect class="cls-1" x="69.91" y="14.66" width="6.45" height="3" transform="translate(10.78 57.66) rotate(-46.11)"/>
  <rect class="cls-1" x="56.77" y="27.68" width="7.67" height="3" transform="translate(-2.46 52.56) rotate(-46.06)"/>
  <rect class="cls-1" x="29.35" y="37.69" width="3" height="12.26" transform="translate(-22.1 35.58) rotate(-46.01)"/>
  <path class="cls-1" d="M22.83,42.64c-3.54,0-6.41-2.88-6.41-6.41,0-.14,0-.3.04-.45l2.94.58s.02-.1.02-.15c0,1.9,1.53,3.43,3.41,3.43.95,0,1.87-.4,2.51-1.1l2.21,2.03c-1.21,1.32-2.93,2.07-4.72,2.07Z"/>
  <path class="cls-1" d="M38.71,57.98c-3.54,0-6.42-2.88-6.42-6.42s2.88-6.42,6.42-6.42,6.42,2.88,6.42,6.42-2.88,6.42-6.42,6.42ZM38.71,48.15c-1.88,0-3.42,1.53-3.42,3.42s1.53,3.42,3.42,3.42,3.42-1.53,3.42-3.42-1.53-3.42-3.42-3.42Z"/>
  <path class="cls-1" d="M50.06,40.05c-1.15-1.19-1.78-2.76-1.78-4.43,0-3.54,2.88-6.42,6.42-6.42,1.57,0,3.08.58,4.24,1.62l-2.01,2.23c-.61-.55-1.41-.86-2.24-.86-1.89,0-3.42,1.54-3.42,3.42,0,.89.33,1.72.94,2.34l-2.16,2.08Z"/>
  <path class="cls-1" d="M78.7,16.65c-3.54,0-6.42-2.88-6.42-6.42s2.88-6.42,6.42-6.42,6.42,2.88,6.42,6.42-2.88,6.42-6.42,6.42ZM78.7,6.81c-1.88,0-3.42,1.53-3.42,3.42s1.53,3.42,3.42,3.42,3.42-1.53,3.42-3.42-1.53-3.42-3.42-3.42Z"/>
</svg>