<?xml version="1.0" encoding="UTF-8"?>
<svg id="Layer_1" data-name="Layer 1" xmlns="http://www.w3.org/2000/svg" viewBox="0 0 96 96">
  <path d="M83.24,67.93v-6.14c0-4.23-3.43-7.66-7.66-7.66h-12.9c1.42-2.62,2.56-5.37,3.41-8.22l5.82-4.66c2.44-1.95,2.84-5.51.89-7.95-1.03-1.3-2.59-2.07-4.24-2.13l3.41-9.39c2.99-8.23-1.25-17.33-9.48-20.32-1.74-.63-3.57-.95-5.42-.95h-13.01c-9.73,0-19.27,2.73-27.53,7.89-.72.45-.94,1.39-.5,2.11.19.31.48.54.82.65l3.69,1.23c2.06.69,3.18,2.92,2.49,4.98-.02.07-.05.14-.08.22-.74,1.86-.66,3.94.24,5.73l3.95,7.89c-3.11.25-5.43,2.97-5.19,6.08.12,1.56.89,3,2.11,3.97l5.82,4.66c.85,2.85,1.99,5.61,3.41,8.22h-12.9c-4.23,0-7.66,3.43-7.66,7.66v6.14c-7.41,3.1-12.25,10.34-12.26,18.38v7.66c0,.85.69,1.53,1.53,1.53h91.94c.85,0,1.53-.69,1.53-1.53v-7.66c-.01-8.04-4.84-15.28-12.26-18.38ZM60.26,31.15h-9.19c-.85,0-1.53.69-1.53,1.53v1.53h-3.06v-1.53c0-.85-.69-1.53-1.53-1.53h-13.79v-2.24l9.56-6.38c2.06-1.37,4.48-2.11,6.95-2.11,3.54,0,6.98-1.21,9.74-3.42l2.5-2,2.63,3.94c1.51,2.26,2.32,4.93,2.32,7.65v4.55h-4.6ZM58.73,34.21v4.6c0,.85-.69,1.53-1.53,1.53h-3.06c-.85,0-1.53-.69-1.53-1.53v-4.6h6.13ZM43.4,34.21v4.6c0,.85-.69,1.53-1.53,1.53h-3.06c-.85,0-1.53-.69-1.53-1.53v-4.6h6.13ZM70.98,36.81c0,.79-.36,1.54-.98,2.03l-2.78,2.22c.4-2.27.63-4.56.67-6.86h.48c1.44,0,2.6,1.17,2.6,2.6h0ZM25.82,18.71c1.44-3.59-.31-7.66-3.9-9.1-.13-.05-.25-.1-.38-.14l-.47-.15c7.08-3.78,14.98-5.76,23-5.75h13.01c7.07,0,12.79,5.73,12.79,12.8,0,1.49-.26,2.97-.77,4.36l-1.33,3.66c-.33-2.56-1.25-5.01-2.68-7.15l-3.55-5.33c-.24-.36-.62-.6-1.04-.66-.42-.06-.86.05-1.19.32l-3.81,3.05c-2.22,1.77-4.98,2.74-7.83,2.75-3.08,0-6.09.91-8.65,2.62l-10.25,6.83c-.09.06-.18.14-.26.22l-2.55-5.1c-.5-1-.55-2.18-.13-3.22ZM26,38.85c-1.13-.9-1.31-2.53-.42-3.66.49-.62,1.25-.98,2.04-.98h.48c.04,2.3.26,4.6.67,6.86l-2.77-2.22ZM31.17,34.21h3.04v4.6c0,2.54,2.06,4.6,4.6,4.6h3.06c2.54,0,4.6-2.06,4.6-4.6v-1.53h3.06v1.53c0,2.54,2.06,4.6,4.6,4.6h3.06c2.54,0,4.6-2.06,4.6-4.6v-4.6h3.04c-.12,7.02-2.08,13.89-5.69,19.92h-22.29c-3.61-6.03-5.57-12.9-5.69-19.92ZM20.42,57.19h55.16c2.54,0,4.6,2.06,4.6,4.6v30.65H15.82v-30.65c0-2.54,2.06-4.6,4.6-4.6ZM3.56,86.31c0-6.33,3.56-12.12,9.19-15.01v21.13H3.56v-6.13ZM92.44,92.44h-9.19v-21.13c5.64,2.88,9.18,8.68,9.19,15.01v6.13Z" fill="#fff"/>
  <path d="M48,87.84c3.38,0,6.13-2.74,6.13-6.13s-2.74-6.13-6.13-6.13-6.13,2.74-6.13,6.13,2.74,6.13,6.13,6.13ZM48,78.65c1.69,0,3.06,1.37,3.06,3.06s-1.37,3.06-3.06,3.06-3.06-1.37-3.06-3.06,1.37-3.06,3.06-3.06Z" fill="#fff"/>
  <path d="M37.72,73.6l2.17-2.17-5.05-5.05,5.05-5.05-2.17-2.17-6.13,6.13c-.6.6-.6,1.57,0,2.17l6.13,6.13Z" fill="#fff"/>
  <path d="M58.28,73.6l6.13-6.13c.6-.6.6-1.57,0-2.17l-6.13-6.13-2.17,2.17,5.05,5.05-5.05,5.05,2.17,2.17Z" fill="#fff"/>
  <rect x="40.34" y="64.85" width="15.32" height="3.06" transform="translate(-33.91 64.94) rotate(-53.12)" fill="#fff"/>
</svg>