<?xml version="1.0" encoding="UTF-8"?>
<svg id="Layer_1" data-name="Layer 1" xmlns="http://www.w3.org/2000/svg" viewBox="0 0 96 96">
  <defs>
    <style>
      .cls-1, .cls-2 {
        fill: none;
        stroke: #fff;
        stroke-linejoin: round;
        stroke-width: 3px;
      }

      .cls-2 {
        fill-rule: evenodd;
      }
    </style>
  </defs>
  <g>
    <line class="cls-1" x1="59.4" y1="27.77" x2="19.53" y2="27.77"/>
    <line class="cls-1" x1="50.97" y1="36.41" x2="19.53" y2="36.41"/>
    <line class="cls-1" x1="44.11" y1="19.95" x2="19.53" y2="19.95"/>
    <polyline class="cls-2" points="38.41 79.04 10.48 79.04 10.48 1.59 52.13 1.59 68.75 18.2 68.75 47.27"/>
    <polyline class="cls-2" points="68.75 18.21 52.13 18.21 52.13 1.58"/>
  </g>
  <path class="cls-1" d="M83.06,72.94c0-.74-.05-1.48-.13-2.2l2.59-1.16-2.13-6.54-2.78.59c-.73-1.29-1.6-2.49-2.59-3.57l1.42-2.46-5.56-4.04-1.9,2.11c-1.32-.61-2.73-1.07-4.19-1.36l-.3-2.83h-6.88l-.3,2.83c-1.47.29-2.87.76-4.19,1.36l-1.91-2.11-5.56,4.04,1.42,2.47c-.99,1.08-1.86,2.27-2.59,3.56l-2.79-.59-2.13,6.54,2.6,1.16c-.08.72-.13,1.46-.13,2.21s.05,1.47.13,2.19l-2.61,1.16,2.13,6.54,2.79-.59c.72,1.29,1.59,2.48,2.59,3.56l-1.42,2.47,5.56,4.04,1.91-2.11c1.32.61,2.72,1.07,4.19,1.37l.3,2.83h6.88l.3-2.82c1.47-.29,2.87-.75,4.19-1.36l1.91,2.11,5.56-4.04-1.42-2.46c1-1.08,1.87-2.28,2.6-3.57l2.78.59,2.13-6.54-2.59-1.16c.08-.73.13-1.46.13-2.21Z"/>
  <circle class="cls-1" cx="64.04" cy="72.94" r="10.49"/>
</svg>