<?xml version="1.0" encoding="UTF-8"?>
<svg id="Layer_1" data-name="Layer 1" xmlns="http://www.w3.org/2000/svg" viewBox="0 0 96 96">
  <defs>
    <style>
      .cls-1 {
        fill: #fff;
      }
    </style>
  </defs>
  <polygon class="cls-1" points="75.77 97.28 63.93 79.63 66.43 77.96 75.65 91.72 78.9 86.44 84.94 85.48 75.71 71.73 78.21 70.06 90.05 87.72 80.73 89.19 75.77 97.28"/>
  <path class="cls-1" d="M60.26,81.74c-12.69,0-23.01-10.32-23.01-23.01s10.32-23.01,23.01-23.01c7.51,0,14.57,3.68,18.87,9.85,2.7,3.87,4.13,8.42,4.13,13.16,0,5.06-1.61,9.87-4.66,13.89-1.29,1.7-2.82,3.23-4.55,4.54-4.01,3-8.77,4.58-13.79,4.58ZM60.26,38.72c-11.03,0-20.01,8.98-20.01,20.01s8.98,20.01,20.01,20.01c4.36,0,8.5-1.38,11.99-3.98,1.51-1.13,2.84-2.46,3.96-3.95,2.65-3.5,4.06-7.68,4.06-12.08,0-4.12-1.24-8.08-3.59-11.44h0c-3.75-5.36-9.88-8.57-16.41-8.57Z"/>
  <path class="cls-1" d="M60.26,75.7c-9.36,0-16.97-7.61-16.97-16.97,0-.88.07-1.76.2-2.62,1.26-8.18,8.47-14.35,16.76-14.35,5.99,0,11.59,3.21,14.63,8.38,1.53,2.59,2.34,5.56,2.34,8.59,0,9.36-7.61,16.97-16.97,16.97ZM60.26,44.77c-6.83,0-12.76,5.08-13.8,11.81-.11.7-.17,1.43-.17,2.15,0,7.7,6.26,13.97,13.97,13.97s13.97-6.26,13.97-13.97c0-2.49-.67-4.94-1.92-7.07h0c-2.5-4.26-7.11-6.9-12.04-6.9Z"/>
  <path class="cls-1" d="M38.79,61.21H13.89c-3.79,0-6.88-3.09-6.88-6.88V6.88C7.01,3.09,10.1,0,13.89,0h49.73c3.79,0,6.88,3.09,6.88,6.88v32.2h-3V6.88c0-2.14-1.74-3.88-3.88-3.88H13.89c-2.14,0-3.88,1.74-3.88,3.88v47.44c0,2.14,1.74,3.88,3.88,3.88h24.9v3Z"/>
  <polygon class="cls-1" points="59.44 66.3 51.67 58.78 53.76 56.63 59.28 61.97 67.88 52.33 70.12 54.33 59.44 66.3"/>
  <rect class="cls-1" x="48.13" y="21.2" width="11.22" height="3"/>
  <rect class="cls-1" x="28.29" y="21.2" width="14.54" height="3"/>
  <rect class="cls-1" x="38.76" y="29.81" width="20.6" height="3"/>
  <rect class="cls-1" x="38.89" y="39.59" width="9.24" height="3"/>
  <rect class="cls-1" x="28.29" y="49.37" width="11.22" height="3"/>
  <rect class="cls-1" x="28.29" y="29.81" width="7.11" height="3"/>
  <rect class="cls-1" x="16.12" y="21.2" width="2.89" height="3"/>
  <rect class="cls-1" x="16.12" y="29.81" width="2.89" height="3"/>
  <rect class="cls-1" x="16.12" y="39.59" width="2.89" height="3"/>
  <rect class="cls-1" x="16.12" y="49.37" width="2.89" height="3"/>
  <rect class="cls-1" x="9.24" y="13.48" width="59.76" height="3"/>
  <polygon class="cls-1" points="44.08 97.28 39.12 89.19 29.8 87.72 41.64 70.06 44.13 71.73 34.91 85.48 40.95 86.44 44.19 91.72 53.42 77.96 55.91 79.63 44.08 97.28"/>
</svg>