<?xml version="1.0" encoding="UTF-8"?>
<svg id="Layer_1" data-name="Layer 1" xmlns="http://www.w3.org/2000/svg" viewBox="0 0 96 96">
  <defs>
    <style>
      .cls-1 {
        fill: none;
        stroke: #fff;
        stroke-linejoin: round;
        stroke-width: 3px;
      }
    </style>
  </defs>
  <g>
    <path class="cls-1" d="M37.39,74.18l23.07-.74c2.51-.08,4.57-2.02,4.8-4.52h0c.24-2.65-1.64-5.01-4.27-5.38l-26.14-3.62c-5.42-.75-10.95-.21-16.12,1.59l-17.23,5.99v22.08l11.43-4.72c2.33-.96,4.93-1.03,7.31-.18l24.24,8.63c5.17,1.84,10.9,1.08,15.42-2.04l32.24-22.28c2.66-1.84,3.15-5.57,1.06-8.03h0c-1.78-2.09-4.84-2.54-7.14-1.04l-24.93,16.25c-2.85,1.86-6.52,1.85-9.36-.02l-2.46-1.62"/>
    <path class="cls-1" d="M83.98,61.29l-.71-.91c-1.72-2.23-4.85-2.82-7.27-1.37l-11.46,6.87"/>
  </g>
  <path class="cls-1" d="M75.33,28.51c0-.93-.06-1.85-.16-2.76l3.25-1.45-2.66-8.19-3.48.73c-.91-1.62-2-3.12-3.25-4.47l1.78-3.09-6.97-5.06-2.39,2.64c-1.66-.76-3.42-1.34-5.25-1.71l-.38-3.54h-8.62l-.38,3.54c-1.84.37-3.59.95-5.25,1.71l-2.39-2.65-6.97,5.06,1.78,3.09c-1.25,1.35-2.33,2.85-3.24,4.46l-3.5-.74-2.66,8.19,3.26,1.46c-.1.91-.16,1.83-.16,2.76s.06,1.85.16,2.75l-3.26,1.46,2.66,8.19,3.49-.74c.91,1.61,2,3.11,3.24,4.46l-1.78,3.1,6.97,5.06,2.39-2.65c1.66.76,3.41,1.34,5.25,1.71l.38,3.54h8.62l.38-3.54c1.84-.37,3.6-.95,5.25-1.71l2.39,2.64,6.97-5.06-1.78-3.09c1.25-1.35,2.34-2.85,3.25-4.47l3.48.73,2.66-8.19-3.25-1.45c.11-.91.17-1.83.17-2.77Z"/>
  <circle class="cls-1" cx="51.5" cy="28.51" r="13.14"/>
</svg>