<?xml version="1.0" encoding="UTF-8"?>
<svg id="Layer_1" xmlns="http://www.w3.org/2000/svg" version="1.1" viewBox="0 0 96 96">
  <!-- Generator: Adobe Illustrator 29.3.1, SVG Export Plug-In . SVG Version: 2.1.0 Build 151)  -->
  <defs>
    <style>
      .st0 {
        fill: #fff;
      }
    </style>
  </defs>
  <path class="st0" d="M71.7,47.3c-1.2-1.9-3.1-3.3-5.3-3.7v-26.2c0-4.2-3.4-7.7-7.7-7.7h-12.7c-.5-.9-1.5-1.5-2.6-1.5h-2.1c-1.7-4.8-6.9-7.3-11.7-5.6-2.6.9-4.7,3-5.6,5.6h-2.1c-1.1,0-2.1.6-2.6,1.5h-9.6c-4.2,0-7.7,3.4-7.7,7.7v64.4c0,4.2,3.4,7.7,7.7,7.7h26.9c0,0,0,.3.2.4,1.4,2.6,4.1,4.2,7.1,4.2h42c2.9,0,5.6-1.6,7.1-4.2s1.4-5.8-.2-8.4l-21-34.2h0ZM63.3,17.3v26.2c-1.1.2-2.1.7-3.1,1.3v-26c0-1.7-1.4-3.1-3.1-3.1h-10.7v-3.1h12.3c2.5,0,4.6,2.1,4.6,4.6h0ZM21.9,11.2h3.2c.7,0,1.4-.5,1.5-1.2.7-3.3,3.9-5.5,7.2-4.8,2.4.5,4.3,2.4,4.8,4.8,0,.7.8,1.2,1.5,1.2h3.2v6.1h-21.5v-6.1h.1ZM43.4,20.4c1.1,0,2.1-.6,2.6-1.5h11.2v29.7l-19.5,31.6H11.2V18.9h8.1c.5.9,1.5,1.5,2.6,1.5h21.5ZM9.7,86.3c-2.5,0-4.6-2.1-4.6-4.6V17.3c0-2.5,2.1-4.6,4.6-4.6h9.2v3.1h-7.7c-1.7,0-3.1,1.4-3.1,3.1v61.3c0,1.7,1.4,3.1,3.1,3.1h24.9c-.3,1-.4,2-.4,3.1H9.7ZM90.2,88.3c-.9,1.6-2.6,2.6-4.4,2.6h-42c-1.8,0-3.5-1-4.4-2.6-.9-1.7-.9-3.7,0-5.3l21-34.2c1.4-2.4,4.5-3.1,6.8-1.7.7.4,1.3,1,1.7,1.7l21,34.2c1,1.6,1.1,3.6,0,5.3h.1Z"/>
  <path class="st0" d="M64.9,52.6c-2.5,0-4.6,2.1-4.6,4.6v13.8c0,2.5,2.1,4.6,4.6,4.6s4.6-2.1,4.6-4.6v-13.8c0-2.5-2.1-4.6-4.6-4.6ZM66.4,71c0,.8-.7,1.5-1.5,1.5s-1.5-.7-1.5-1.5v-13.8c0-.8.7-1.5,1.5-1.5s1.5.7,1.5,1.5v13.8Z"/>
  <path class="st0" d="M64.9,78.7c-2.5,0-4.6,2.1-4.6,4.6s2.1,4.6,4.6,4.6,4.6-2.1,4.6-4.6-2.1-4.6-4.6-4.6ZM64.9,84.8c-.8,0-1.5-.7-1.5-1.5s.7-1.5,1.5-1.5,1.5.7,1.5,1.5-.7,1.5-1.5,1.5Z"/>
  <path class="st0" d="M32.7,31.1h19.9c.8,0,1.5-.7,1.5-1.5s-.7-1.5-1.5-1.5h-19.9c-.8,0-1.5.7-1.5,1.5s.7,1.5,1.5,1.5Z"/>
  <path class="st0" d="M32.7,37.3h9.2c.8,0,1.5-.7,1.5-1.5s-.7-1.5-1.5-1.5h-9.2c-.8,0-1.5.7-1.5,1.5s.7,1.5,1.5,1.5Z"/>
  <path class="st0" d="M32.7,48h19.9c.8,0,1.5-.7,1.5-1.5s-.7-1.5-1.5-1.5h-19.9c-.8,0-1.5.7-1.5,1.5s.7,1.5,1.5,1.5Z"/>
  <path class="st0" d="M32.7,54.1h9.2c.8,0,1.5-.7,1.5-1.5s-.7-1.5-1.5-1.5h-9.2c-.8,0-1.5.7-1.5,1.5s.7,1.5,1.5,1.5Z"/>
  <path class="st0" d="M32.7,64.9h10.7c.8,0,1.5-.7,1.5-1.5s-.7-1.5-1.5-1.5h-10.7c-.8,0-1.5.7-1.5,1.5s.7,1.5,1.5,1.5Z"/>
  <path class="st0" d="M32.7,71h6.1c.8,0,1.5-.7,1.5-1.5s-.7-1.5-1.5-1.5h-6.1c-.8,0-1.5.7-1.5,1.5s.7,1.5,1.5,1.5Z"/>
  <path class="st0" d="M16.2,34.7c-.6.6-.6,1.6,0,2.2l3.1,3.1c.3.3.7.4,1.1.4h.2c.5,0,.9-.4,1.1-.8l6.1-12.3c.4-.8,0-1.7-.7-2.1s-1.7,0-2.1.7h0l-5.2,10.4-1.6-1.6c-.6-.6-1.6-.6-2.2,0h.2Z"/>
  <path class="st0" d="M27.2,42c-.8-.4-1.7,0-2.1.7h0l-5.2,10.4-1.6-1.6c-.6-.6-1.6-.6-2.2,0s-.6,1.5,0,2.1l3.1,3.1c.3.3.7.4,1.1.4h.2c.5,0,.9-.4,1.1-.8l6.1-12.3c.4-.8,0-1.7-.7-2.1h.2Z"/>
  <path class="st0" d="M27.2,58.9c-.8-.4-1.7,0-2.1.7h0l-5.2,10.4-1.6-1.6c-.6-.6-1.6-.6-2.2,0s-.6,1.5,0,2.1l3.1,3.1c.3.3.7.5,1.1.5h.2c.5,0,.9-.4,1.1-.8l6.1-12.3c.4-.8,0-1.7-.7-2.1h.2Z"/>
</svg>