<?xml version="1.0" encoding="UTF-8"?>
<svg id="Layer_1" data-name="Layer 1" xmlns="http://www.w3.org/2000/svg" viewBox="0 0 96 96">
  <defs>
    <style>
      .cls-1 {
        fill: #fff;
      }

      .cls-2 {
        fill: none;
        stroke: #fff;
        stroke-linejoin: round;
        stroke-width: 3px;
      }
    </style>
  </defs>
  <path class="cls-2" d="M18.21,60.09h-.32c-9.05,0-16.38-7.34-16.38-16.38,0-8.35,6.25-15.25,14.34-16.26-.02-.23-.02-.46-.02-.7,0-12.57,10.19-22.76,22.77-22.76,8.55,0,15.99,4.71,19.87,11.68,2.58-2.75,6.24-4.46,10.31-4.46,7.8,0,14.12,6.32,14.12,14.12,0,4.28-1.89,8.11-4.9,10.7,1.29-.46,2.68-.7,4.12-.7,6.84,0,12.39,5.55,12.39,12.39s-5.37,12.21-12.06,12.39h-.32"/>
  <polyline class="cls-2" points="69.47 60.09 82.11 60.09 82.44 60.09"/>
  <line class="cls-2" x1="24.98" y1="60.09" x2="18.21" y2="60.09"/>
  <rect class="cls-2" x="24.98" y="41.84" width="44.5" height="31.21"/>
  <polyline class="cls-2" points="69.47 67.12 81.86 67.12 81.86 76.79"/>
  <polyline class="cls-2" points="13.89 76.79 13.89 67.12 24.98 67.12"/>
  <circle class="cls-2" cx="13.89" cy="82.08" r="5.29"/>
  <circle class="cls-2" cx="81.73" cy="82.08" r="5.29"/>
  <line class="cls-2" x1="37.23" y1="73.57" x2="37.23" y2="80.15"/>
  <line class="cls-2" x1="58.12" y1="73.57" x2="58.12" y2="80.15"/>
  <circle class="cls-2" cx="58.12" cy="86.72" r="5.29"/>
  <circle class="cls-2" cx="37.1" cy="86.72" r="5.29"/>
  <path class="cls-1" d="M35.69,57.74l-.89-.54c-.56-.34-.96-.68-1.2-1.01-.24-.33-.36-.71-.36-1.14,0-.65.22-1.17.67-1.58.45-.4,1.03-.61,1.75-.61s1.32.19,1.89.58v1.34c-.59-.57-1.23-.85-1.91-.85-.38,0-.7.09-.95.27-.25.18-.37.41-.37.68,0,.25.09.48.27.69s.47.44.88.68l.9.53c1,.6,1.5,1.36,1.5,2.29,0,.66-.22,1.2-.66,1.61-.44.41-1.02.62-1.72.62-.81,0-1.55-.25-2.22-.75v-1.49c.64.81,1.37,1.21,2.21,1.21.37,0,.68-.1.92-.31.25-.21.37-.46.37-.77,0-.5-.36-.98-1.08-1.42Z"/>
  <path class="cls-1" d="M42.6,52.91h.83l3.69,8.27h-1.2l-1.1-2.44h-3.51l-1.03,2.44h-1.21l3.53-8.27ZM44.33,57.7l-1.33-2.98-1.23,2.98h2.56Z"/>
  <path class="cls-1" d="M51.44,52.91h.83l3.69,8.27h-1.2l-1.1-2.44h-3.51l-1.03,2.44h-1.21l3.53-8.27ZM53.17,57.7l-1.33-2.98-1.23,2.98h2.56Z"/>
  <path class="cls-1" d="M59.7,57.74l-.89-.54c-.56-.34-.96-.68-1.2-1.01-.24-.33-.36-.71-.36-1.14,0-.65.22-1.17.67-1.58.45-.4,1.03-.61,1.75-.61s1.32.19,1.89.58v1.34c-.59-.57-1.23-.85-1.91-.85-.38,0-.7.09-.95.27-.25.18-.37.41-.37.68,0,.25.09.48.27.69s.47.44.88.68l.9.53c1,.6,1.5,1.36,1.5,2.29,0,.66-.22,1.2-.66,1.61-.44.41-1.02.62-1.72.62-.81,0-1.55-.25-2.22-.75v-1.49c.64.81,1.37,1.21,2.21,1.21.37,0,.68-.1.92-.31.25-.21.37-.46.37-.77,0-.5-.36-.98-1.08-1.42Z"/>
</svg>