<?xml version="1.0" encoding="UTF-8"?>
<svg id="Layer_1" data-name="Layer 1" xmlns="http://www.w3.org/2000/svg" viewBox="0 0 96 96">
  <path d="M90.3,11.97c-.02-6.06-4.94-10.95-10.99-10.94-4.84.01-9.1,3.2-10.48,7.84l-19.34,3.86-10.26-10.28c-.96-1.01-2.33-1.54-3.73-1.44-1.35.08-2.59.75-3.41,1.83-8.45,11.09-7.9,28.92,1.13,42.95-4.1,3.35-5.21,9.15-2.65,13.78l-13.18,19.77h-5.43c-3.46,0-6.27,2.81-6.27,6.27v4.7c0,2.6,2.1,4.7,4.7,4.7h56.4c2.6,0,4.7-2.1,4.7-4.7v-4.7c0-3.46-2.81-6.27-6.27-6.27h-6.96l-10.55-17.14c.64-.61,1.21-1.3,1.69-2.05,6.18,3.27,13.06,5.01,20.05,5.07,6.8.17,13.46-1.89,18.98-5.86,1.08-.81,1.76-2.05,1.85-3.4.1-1.39-.42-2.76-1.41-3.74l-10.33-10.35,3.87-19.38c4.67-1.37,7.87-5.65,7.88-10.51ZM68.38,12.15c.04,2.3.81,4.53,2.19,6.37l-7.66,7.66-10.77-10.79,16.24-3.24ZM65.23,82.47c1.73,0,3.13,1.4,3.13,3.13v4.7c0,.87-.7,1.57-1.57,1.57H10.4c-.87,0-1.57-.7-1.57-1.57v-4.7c0-1.73,1.4-3.13,3.13-3.13h53.27ZM54.59,79.33H21.16l11.44-17.15c3.36,3.24,8.42,3.98,12.57,1.83l9.43,15.32ZM40.17,62.1c-4.33,0-7.83-3.51-7.83-7.83s3.51-7.83,7.83-7.83,7.83,3.51,7.83,7.83-3.51,7.83-7.83,7.83h0ZM86.68,54.42c.34.34.52.82.49,1.3-.03.44-.25.85-.61,1.12-8.95,6.86-23.52,6.98-35.86.44,1.67-5.82-1.69-11.89-7.51-13.56-2.41-.69-4.99-.54-7.3.44-8.38-12.96-9-29.34-1.3-39.44.26-.35.67-.57,1.11-.59.48-.02.95.16,1.29.51l49.69,49.78ZM75.89,39.19l-10.77-10.8,7.66-7.65c1.84,1.38,4.07,2.15,6.37,2.19l-3.26,16.26ZM71.5,11.97c0-4.33,3.51-7.83,7.83-7.83s7.83,3.51,7.83,7.83-3.51,7.83-7.83,7.83-7.83-3.51-7.83-7.83Z" fill="#fff"/>
</svg>