<?xml version="1.0" encoding="UTF-8"?>
<svg id="Layer_1" data-name="Layer 1" xmlns="http://www.w3.org/2000/svg" viewBox="0 0 96 96">
  <defs>
    <style>
      .cls-1 {
        stroke-linejoin: round;
      }

      .cls-1, .cls-2 {
        fill: none;
        stroke: #fff;
        stroke-width: 3px;
      }

      .cls-2 {
        stroke-miterlimit: 10;
      }
    </style>
  </defs>
  <rect class="cls-2" x="15.98" y="5.32" width="30.3" height="41.18" rx="14.17" ry="14.17"/>
  <path class="cls-1" d="M15.98,22c6.31-.43,15.33-1.92,20.64-5.5,2.27,1.69,6.26,4.28,9.66,5.07"/>
  <path class="cls-1" d="M24.68,45.13v6.44c0,.24,0,.49.04.73.17,1.5.85,2.85,1.86,3.87,1.18,1.17,2.81,1.9,4.6,1.9,3.34,0,6.09-2.51,6.46-5.76.04-.24.05-.5.05-.75v-6.48"/>
  <line class="cls-1" x1="14.5" y1="86.06" x2="14.5" y2="66.84"/>
  <line class="cls-2" x1="54.05" y1="86.01" x2="93.78" y2="86.01"/>
  <path class="cls-2" d="M59.33,73.05c0-7.14,5.79-12.93,12.93-12.93s12.93,5.79,12.93,12.93-5.79,12.93-12.93,12.93"/>
  <polyline class="cls-2" points="55.13 68.57 58.78 74.19 64.4 70.55"/>
  <path class="cls-2" d="M78.78,61.84c-4.31-1.66-6.46-6.5-4.8-10.81,1.66-4.31,6.5-6.46,10.81-4.8,2.3.88,3.98,2.67,4.8,4.79"/>
  <polyline class="cls-2" points="84.17 51.22 90.69 52.77 92.23 46.25"/>
  <polyline class="cls-2" points="89.94 90.68 94.5 85.77 89.59 81.21"/>
  <path class="cls-1" d="M47.04,66.84v18.93h-.11s-45.43,0-45.43,0v-15.27c0-6.33,4.07-11.94,10.09-13.91l13.13-4.29c.17,1.51.86,2.85,1.87,3.88,1.18,1.17,2.8,1.9,4.59,1.9,3.35,0,6.09-2.51,6.46-5.76l7.4,2.45,7.1,2.48c2.27.79,4.14,2.45,5.2,4.62h0"/>
  <line class="cls-1" x1="45.06" y1="85.76" x2="50.16" y2="85.76"/>
</svg>