<?xml version="1.0" encoding="UTF-8"?>
<svg id="Layer_1" data-name="Layer 1" xmlns="http://www.w3.org/2000/svg" viewBox="0 0 96 96">
  <path d="M89.25,1H6.75c-.83,0-1.5.67-1.5,1.5v24c0,.83.67,1.5,1.5,1.5h82.5c.83,0,1.5-.67,1.5-1.5V2.5c0-.83-.67-1.5-1.5-1.5ZM8.25,4h55.5v21H8.25V4ZM87.75,25h-21V4h21v21Z" fill="#fff"/>
  <path d="M30.75,75h26.25c.83,0,1.5-.67,1.5-1.5s-.67-1.5-1.5-1.5h-26.25c-.83,0-1.5.67-1.5,1.5s.67,1.5,1.5,1.5Z" fill="#fff"/>
  <path d="M83.25,64H30.75c-.83,0-1.5.67-1.5,1.5s.67,1.5,1.5,1.5h52.5c.83,0,1.5-.67,1.5-1.5s-.67-1.5-1.5-1.5Z" fill="#fff"/>
  <path d="M30.75,51h26.25c.83,0,1.5-.67,1.5-1.5s-.67-1.5-1.5-1.5h-26.25c-.83,0-1.5.67-1.5,1.5s.67,1.5,1.5,1.5Z" fill="#fff"/>
  <path d="M30.75,43h52.5c.83,0,1.5-.67,1.5-1.5s-.67-1.5-1.5-1.5H30.75c-.83,0-1.5.67-1.5,1.5s.67,1.5,1.5,1.5Z" fill="#fff"/>
  <path d="M89.25,32H6.75c-.83,0-1.5.67-1.5,1.5v24c0,.83.67,1.5,1.5,1.5h82.5c.83,0,1.5-.67,1.5-1.5v-24c0-.83-.67-1.5-1.5-1.5ZM87.75,56H8.25v-21h79.5v21Z" fill="#fff"/>
  <path d="M71.54,17.46c1.16,1.16,2.7,1.79,4.33,1.79,1.12,0,2.2-.3,3.14-.86l3.17,3.17c.29.29.68.44,1.06.44s.77-.15,1.06-.44c.59-.59.59-1.54,0-2.12l-3.17-3.17c.56-.94.86-2.02.86-3.14,0-1.64-.64-3.18-1.79-4.33-1.16-1.16-2.7-1.79-4.33-1.79s-3.18.64-4.33,1.79c-2.39,2.39-2.39,6.28,0,8.67h0ZM73.67,10.92c.59-.59,1.38-.92,2.21-.92s1.62.33,2.21.92c.59.59.92,1.38.92,2.21s-.33,1.62-.92,2.21-1.38.92-2.21.92-1.62-.33-2.21-.92c-1.22-1.22-1.22-3.2,0-4.42Z" fill="#fff"/>
  <path d="M24.75,62h-12c-.83,0-1.5.67-1.5,1.5v12c0,.83.67,1.5,1.5,1.5h12c.83,0,1.5-.67,1.5-1.5v-12c0-.83-.67-1.5-1.5-1.5ZM23.25,74h-9v-9h9v9Z" fill="#fff"/>
  <path d="M57,90h-26.25c-.83,0-1.5.67-1.5,1.5s.67,1.5,1.5,1.5h26.25c.83,0,1.5-.67,1.5-1.5s-.67-1.5-1.5-1.5Z" fill="#fff"/>
  <path d="M83.25,82H30.75c-.83,0-1.5.67-1.5,1.5s.67,1.5,1.5,1.5h52.5c.83,0,1.5-.67,1.5-1.5s-.67-1.5-1.5-1.5Z" fill="#fff"/>
  <path d="M24.75,80h-12c-.83,0-1.5.67-1.5,1.5v12c0,.83.67,1.5,1.5,1.5h12c.83,0,1.5-.67,1.5-1.5v-12c0-.83-.67-1.5-1.5-1.5ZM23.25,92h-9v-9h9v9Z" fill="#fff"/>
  <path d="M12.75,53h12c.83,0,1.5-.67,1.5-1.5v-12c0-.83-.67-1.5-1.5-1.5h-12c-.83,0-1.5.67-1.5,1.5v12c0,.83.67,1.5,1.5,1.5ZM14.25,41h9v9h-9v-9Z" fill="#fff"/>
</svg>