<?xml version="1.0" encoding="UTF-8"?>
<svg id="Capa_1" data-name="Capa 1" xmlns="http://www.w3.org/2000/svg" viewBox="0 0 96 96">
  <defs>
    <style>
      .cls-1 {
        fill: #fff;
      }
    </style>
  </defs>
  <path class="cls-1" d="M43.15,6.54c1.67.3,3.37.38,5.02.8,11.42,2.91,19.48,9.75,23.61,20.82,3.87,10.39,2.41,20.31-3.55,29.6-1,1.57-2.19,3.01-3.52,4.33-.44.44-.37.68.04,1.09,7.41,7.67,14.8,15.36,22.19,23.04.26.27.53.55.73.86.41.62.3,1.43-.21,1.93-.53.52-1.29.6-1.93.16-.31-.21-.58-.49-.84-.76-7.39-7.68-14.79-15.37-22.16-23.07-.47-.49-.74-.56-1.3-.11-4.21,3.36-8.99,5.53-14.28,6.5-5.57,1.02-11.05.68-16.44-1.16-5.84-1.99-10.77-5.33-14.71-10.05-4.54-5.43-7.14-11.71-7.63-18.79-.51-7.44,1.3-14.3,5.43-20.5,3.85-5.77,9.04-9.93,15.52-12.46,2.96-1.16,6.01-1.89,9.18-2.11.16-.01.31-.08.46-.12h4.37ZM70.7,39.42c-.04-16.28-13.09-29.71-29.72-29.73-16.51-.02-29.72,13.3-29.74,29.69-.02,16.41,13.2,29.77,29.75,29.77,16.42,0,29.72-13.39,29.71-29.74Z"/>
</svg>