<?xml version="1.0" encoding="UTF-8"?>
<svg id="Layer_1" data-name="Layer 1" xmlns="http://www.w3.org/2000/svg" viewBox="0 0 96 96">
  <path d="M80.75,38.48h-11.73c-.82,0-1.49.67-1.49,1.49s.67,1.49,1.49,1.49h11.73c.82,0,1.49-.67,1.49-1.49s-.67-1.49-1.49-1.49Z" fill="#fff"/>
  <path d="M80.75,32.26h-11.73c-.82,0-1.49.67-1.49,1.49s.67,1.49,1.49,1.49h11.73c.82,0,1.49-.67,1.49-1.49s-.67-1.49-1.49-1.49Z" fill="#fff"/>
  <path d="M2.69,56.37c0,.82.67,1.49,1.49,1.49h4.9c.44,1.61,1.29,3.09,2.48,4.28,1.82,1.82,4.23,2.82,6.8,2.82s4.98-1,6.8-2.82c1.19-1.19,2.04-2.66,2.48-4.28h5.82v-.02c.72-.1,1.27-.71,1.28-1.45.03-2.47.02-8.21,0-11.65v-1.25c-.01-2.12-.02-3.29.55-3.85.52-.52,1.59-.62,3.52-.62h5.2v7.56c-1.05.48-2,1.13-2.82,1.95-1.82,1.82-2.82,4.23-2.82,6.8,0,2.57,1,4.98,2.82,6.8,1.82,1.82,4.23,2.82,6.8,2.82s4.98-1,6.8-2.82c1.53-1.53,2.51-3.55,2.75-5.7h10.53c.25,2.14,1.22,4.16,2.75,5.7,1.82,1.82,4.23,2.82,6.8,2.82s4.98-1,6.8-2.82c1.53-1.53,2.51-3.55,2.75-5.7h2.43c1.27,0,2.48-.5,3.38-1.41s1.41-2.11,1.41-3.38-.5-2.48-1.41-3.38c-.67-.66-1.49-1.11-2.4-1.3V13.94c.91-.19,1.74-.64,2.4-1.3.91-.91,1.41-2.11,1.41-3.38s-.5-2.48-1.41-3.38c-.91-.91-2.11-1.41-3.38-1.41h-44.63c-1.27,0-2.48.5-3.38,1.41-.91.9-1.41,2.11-1.41,3.38s.5,2.48,1.41,3.38c.66.66,1.49,1.11,2.4,1.3v14.64c-4.59.02-10.46.02-15.67-.09l-.52-2.53c.48-.37.93-.79,1.35-1.24,1.85-2.01,2.86-4.58,2.86-7.23,0-.25-.02-.63-.04-1.09v-.12c-.07-1.16-.17-2.92.08-4.46.02-.06.03-.12.03-.17.01-.07.03-.15.04-.22.33-1.6.3-3.15-.07-4.36-.19-.62-.47-1.14-.82-1.56-.43-.51-.98-.85-1.59-.97-.43-.09-.87-.07-1.31.07-2.84.88-3.74.65-4.71.4-.63-.16-1.28-.33-2.21-.33-.42,0-.86.03-1.29.08-2.53.31-4.86,1.49-6.55,3.33-1.87,2.03-2.86,4.72-2.86,7.77,0,.59.04,1.2.11,1.81.39,3.28,1.59,5.85,3.55,7.64.28.26.59.5.91.73l-.72,2.47c-3.75.16-6.66.61-8.72,2.3-2.24,1.83-3.19,4.81-3.19,9.96,0,2.78,0,3.35,0,3.97v.35c0,3.94-.02,8.84,0,11.19,0,.04,0,.07,0,.11ZM69.75,49.84c-.76,1.09-1.29,2.33-1.54,3.62h-10.77c-.26-1.3-.79-2.54-1.54-3.62h13.86ZM46.99,39.01h8.32c2.25,0,4-1.15,4.8-3.15.26-.65.4-1.37.39-2.1,0-.73-.14-1.45-.4-2.1-.81-2-2.55-3.15-4.79-3.15h-.02c-1.62,0-3.3.01-5.02.02l-3.29.02v-14.52h40.64v32.82h-5.44c-2.79-1.5-6.33-1.5-9.11,0h-20.53c-1.69-.91-3.66-1.29-5.57-1.09v-6.75ZM45.62,31.53c1.4,0,2.79-.01,4.15-.02h.51c1.73-.01,3.42-.02,5.01-.03h0c.97,0,1.71.47,2.05,1.29.13.31.19.65.19.99s-.06.69-.19.99c-.33.81-1.07,1.28-2.05,1.28h-16.49c-3.32,0-5.07.17-6.02,1.13-1.03,1.03-1.02,2.91-1.01,6.32v1.25c.01,3.73.02,7.57,0,10.14h-3.83c-.06-1.37-.41-2.67-1.02-3.88.07-.24.09-.49.04-.74l-1.69-10.1,1.21-.76c.69-.44.9-1.35.47-2.05l-1.84-2.75,2.66-3.17c5.51.12,11.99.12,17.58.1.09,0,.19,0,.25,0ZM48,48.69c1.77,0,3.44.69,4.7,1.94,1.25,1.26,1.94,2.92,1.94,4.7s-.69,3.44-1.94,4.7c-1.25,1.26-2.92,1.95-4.7,1.95s-3.44-.69-4.7-1.95c-1.25-1.25-1.95-2.92-1.95-4.7s.69-3.44,1.95-4.7c.74-.74,1.65-1.3,2.64-1.62.66-.21,1.35-.32,2.05-.32ZM84.28,55.33c0,1.77-.69,3.44-1.95,4.7-1.26,1.26-2.92,1.95-4.7,1.95s-3.44-.69-4.7-1.95c-1.25-1.25-1.94-2.92-1.94-4.7s.69-3.44,1.94-4.7c1.26-1.25,2.92-1.94,4.7-1.94s3.44.69,4.7,1.94c1.26,1.25,1.95,2.92,1.95,4.7ZM89.63,49.84c.48,0,.93.19,1.28.53.34.34.53.8.53,1.28s-.19.93-.53,1.28c-.34.34-.8.53-1.28.53h-2.55c-.26-1.3-.79-2.54-1.54-3.62h4.1ZM90.91,10.53c-.34.34-.8.53-1.28.53h-44.63c-.48,0-.93-.19-1.28-.53s-.53-.8-.53-1.28.19-.93.53-1.28.8-.53,1.28-.53h44.63c.48,0,.94.19,1.28.53.34.34.53.8.53,1.28s-.19.93-.53,1.28ZM21.44,7.64c.61,0,1.06.11,1.49.23,1.29.33,2.63.67,6.11-.38.06.09.13.23.2.44.23.76.23,1.78,0,2.9-.02.1-.04.19-.06.29-.17.42-1.12.69-2.61.71-1.59.03-3.66-.26-5.66-.79-.69-.18-1.33-.39-1.86-.6-.76-.3-1.62.08-1.92.84-.04.11-.07.22-.09.34-.18,1.21-.64,2.12-1.37,2.72-.5.4-1.15.7-1.94.87.12-2.03.83-3.8,2.05-5.14,1.21-1.32,2.89-2.17,4.71-2.39.31-.04.62-.06.94-.06ZM17.55,16.64c.92-.75,1.6-1.72,2.03-2.89.19.05.38.11.58.16,2.25.6,4.6.92,6.49.89.86-.02,1.64-.11,2.31-.28,0,.67.04,1.28.07,1.82v.08c.03.4.04.74.04,1.06,0,1.91-.74,3.77-2.07,5.22-.47.51-1,.96-1.56,1.32-.03.02-.05.03-.08.05-1.01.63-2.1.97-3.14.99-1.65.04-3.19-.31-4.43-.97l-.09.18h0l.03-.21c-.49-.27-.93-.58-1.32-.94-1.25-1.14-2.07-2.79-2.46-4.91,1.44-.26,2.65-.78,3.6-1.56ZM18.01,27.39c1.31.44,2.74.65,4.24.63.95-.01,1.92-.2,2.86-.55l.42,2.05-2.94,3.5h-2.34l-2.88-3.43.64-2.2ZM20.69,35.99h1.79l1.15,1.71-.7.44c-.54.3-.84.92-.74,1.54l1.26,7.49c-1.07-.67-2.27-1.12-3.52-1.33l1.03-6.16c.1-.59-.16-1.18-.67-1.5l-.76-.48,1.15-1.71ZM17.63,24.22h0s0,0,0,0h0ZM13.66,50.64c1.25-1.25,2.92-1.94,4.7-1.94s3.44.69,4.7,1.94c1.26,1.26,1.95,2.93,1.95,4.71,0,1.77-.7,3.43-1.95,4.68-1.25,1.26-2.92,1.95-4.7,1.95s-3.44-.69-4.7-1.95c-2.59-2.59-2.59-6.8,0-9.39ZM16.23,37.32c-.45.68-.27,1.6.44,2.08l1.21.76-.95,5.65c-1.85.27-3.54,1.06-4.94,2.3v-8.45c0-.82-.67-1.49-1.49-1.49s-1.49.67-1.49,1.49v13.34c-.14.61-.23,1.23-.26,1.86h-3.1c-.01-2.57,0-6.42,0-10.15v-2.61c.01-.55.01-.89.01-1.37,0-4.17.63-6.46,2.1-7.67,1.45-1.19,3.97-1.52,7.29-1.64l2.84,3.38-1.67,2.5Z" fill="#fff"/>
  <path d="M91.6,69.43c-2.51-2.51-5.84-3.9-9.37-3.9h-9.18c-2.33,0-4.62.62-6.64,1.79-1.37.8-2.58,1.82-3.59,3.05-.27-.33-.56-.65-.86-.95-2.51-2.51-5.84-3.9-9.37-3.9h-9.18c-3.53,0-6.86,1.38-9.38,3.9-.3.3-.58.61-.86.95-1.01-1.22-2.22-2.25-3.59-3.05-2.01-1.17-4.31-1.8-6.64-1.8h-9.18c-3.53,0-6.86,1.38-9.37,3.9-2.51,2.51-3.9,5.84-3.9,9.37v8.91c0,1.02.4,1.98,1.12,2.7.72.73,1.68,1.13,2.7,1.13h87.35c1.02,0,1.98-.4,2.71-1.12.72-.72,1.12-1.69,1.12-2.7v-8.91c0-3.53-1.38-6.86-3.9-9.37ZM30.24,88.56h-1.07v-9.45c0-.82-.67-1.49-1.49-1.49s-1.49.67-1.49,1.49v9.45h-15.67v-9.45c0-.82-.67-1.49-1.49-1.49s-1.49.67-1.49,1.49v9.45h-3.22c-.22,0-.44-.09-.6-.25s-.25-.38-.25-.6v-8.91c0-2.74,1.07-5.32,3.03-7.27,1.95-1.95,4.53-3.03,7.27-3.03h9.18c1.81,0,3.59.48,5.15,1.39,1.33.78,2.5,1.86,3.37,3.14-.88,1.81-1.33,3.75-1.33,5.77v8.91c0,.29.03.57.1.85ZM57.32,77.61c-.82,0-1.49.67-1.49,1.49v9.45s-15.67,0-15.67,0v-9.45c0-.82-.67-1.49-1.49-1.49s-1.49.67-1.49,1.49v9.45h-3.22c-.22,0-.44-.09-.6-.25s-.25-.38-.25-.6v-8.91c0-2.74,1.07-5.32,3.03-7.27,1.95-1.95,4.53-3.03,7.27-3.03h9.18c2.74,0,5.32,1.07,7.27,3.03s3.03,4.53,3.03,7.27v8.91c0,.22-.09.44-.25.6-.16.16-.38.25-.6.25h-3.23v-9.45c0-.82-.67-1.49-1.49-1.49ZM86.96,77.61c-.82,0-1.49.67-1.49,1.49v9.45h-15.67v-9.45c0-.82-.67-1.49-1.49-1.49s-1.49.67-1.49,1.49v9.45h-1.06c.06-.28.1-.57.1-.85v-8.91c0-2.02-.45-3.96-1.33-5.77.88-1.28,2.04-2.37,3.37-3.14,1.56-.91,3.34-1.39,5.15-1.39h9.18c2.74,0,5.32,1.07,7.27,3.03,1.95,1.95,3.03,4.53,3.03,7.27v8.91c0,.22-.09.44-.25.6-.16.16-.38.25-.6.25h-3.22v-9.45c0-.82-.67-1.49-1.49-1.49Z" fill="#fff"/>
  <path d="M80.75,26.04h-16.36c-.82,0-1.49.67-1.49,1.49s.67,1.49,1.49,1.49h16.36c.82,0,1.49-.67,1.49-1.49s-.67-1.49-1.49-1.49Z" fill="#fff"/>
  <path d="M82.24,21.32c0-.82-.67-1.49-1.49-1.49h-25.93c-.82,0-1.49.67-1.49,1.49s.67,1.49,1.49,1.49h25.93c.82,0,1.49-.67,1.49-1.49Z" fill="#fff"/>
</svg>