<?xml version="1.0" encoding="UTF-8"?>
<svg id="Layer_1" data-name="Layer 1" xmlns="http://www.w3.org/2000/svg" viewBox="0 0 96 96">
  <g id="setting-management-setting-gear-hand">
    <path d="M95.33,45.25l-6.33-12.67c-.26-.54-.81-.88-1.41-.87h-1.2l-1.58-1.58h2.79c.87,0,1.58-.71,1.58-1.58v-6.33c0-.87-.71-1.58-1.58-1.58h-2.79l1.98-1.96c.62-.62.62-1.63,0-2.25l-4.48-4.48c-.62-.62-1.63-.62-2.25,0l-1.96,1.98v-2.79c0-.87-.71-1.58-1.58-1.58h-6.33c-.87,0-1.58.71-1.58,1.58v2.79l-1.96-1.98c-.62-.62-1.63-.62-2.25,0l-4.48,4.48c-.62.62-.62,1.63,0,2.25l1.98,1.96h-2.79c-.87,0-1.58.71-1.58,1.58v6.33c0,.87.71,1.58,1.58,1.58h2.79l-1.58,1.58h-9.12v-3.28c0-1.33.56-2.61,1.55-3.5,5.88-5.23,6.42-14.23,1.19-20.12-1.46-1.64-3.27-2.92-5.3-3.74-.81-.33-1.73.05-2.07.86-.08.19-.12.4-.12.61v10.89l-3.17,2.12-3.17-2.12V2.54c0-.87-.7-1.59-1.58-1.59-.21,0-.42.04-.61.12-7.3,2.95-10.81,11.26-7.86,18.56.82,2.03,2.1,3.85,3.74,5.3.99.89,1.56,2.17,1.55,3.5v3.28h-1.58c-.6,0-1.15.33-1.41.87l-6.33,12.67c-.39.78-.08,1.73.7,2.13.22.11.46.17.71.17h4.75v19.35l-3.17.79v-2.72c0-.87-.71-1.58-1.58-1.58h-12.67c-.87,0-1.58.71-1.58,1.58v1.58H2.08c-.87,0-1.58.71-1.58,1.58v22.17c0,.87.71,1.58,1.58,1.58h11.08v1.58c0,.87.71,1.58,1.58,1.58h12.67c.87,0,1.58-.71,1.58-1.58v-2.19l2.04,1.01c1.54.77,3.24,1.17,4.96,1.17h23.7c1.95,0,3.86-.51,5.54-1.49l26.6-15.36c3.02-1.74,4.06-5.61,2.32-8.64-1.04-1.81-2.91-2.98-4.99-3.14v-17.29h4.75c.87,0,1.58-.71,1.58-1.59,0-.25-.06-.49-.17-.71ZM13.17,88.71H3.67v-19h9.5v19ZM25.83,91.88h-9.5v-25.33h9.5v25.33ZM60.67,26.96v-3.17h3.72c.7,0,1.31-.46,1.52-1.12.07-.22.16-.44.27-.65.32-.61.2-1.36-.29-1.85l-2.64-2.63,2.25-2.25,2.63,2.64c.49.49,1.24.6,1.85.29.21-.11.42-.2.65-.27.67-.21,1.12-.82,1.12-1.52v-3.72h3.17v3.72c0,.7.46,1.31,1.12,1.52.22.07.44.16.65.27.61.32,1.36.2,1.85-.29l2.63-2.64,2.25,2.25-2.64,2.63c-.49.49-.6,1.24-.29,1.85.11.21.2.42.27.65.21.67.82,1.12,1.52,1.12h3.72v3.17h-3.72c-.7,0-1.31.46-1.52,1.12-.07.22-.16.44-.27.65-.32.61-.2,1.36.29,1.85l1.14,1.12h-17.16l1.14-1.12c.49-.49.6-1.24.29-1.85-.11-.21-.2-.42-.27-.65-.21-.67-.82-1.12-1.52-1.12h-3.72ZM62.25,40.01l3.34,6.67c.26.54.81.88,1.41.87h19v17.86c-.16.08-.33.16-.49.24l-15.44,8.91c-.84-1.26-2.11-2.18-3.58-2.58l-4.24-1.12v-30.84ZM32.17,14.29c0-3.63,1.77-7.03,4.75-9.1v9.1c0,.53.27,1.02.71,1.31l4.75,3.17c.52.36,1.22.36,1.74,0l4.75-3.17c.44-.29.71-.78.71-1.31V5.19c5.02,3.5,6.26,10.4,2.77,15.43-.5.71-1.07,1.36-1.72,1.94-1.68,1.49-2.64,3.63-2.63,5.87v3.28h-3.17v-4.75c0-.87-.71-1.58-1.58-1.58s-1.58.71-1.58,1.58v4.75h-3.17v-3.28c.01-2.24-.94-4.38-2.61-5.87-2.37-2.09-3.72-5.1-3.72-8.27ZM29.98,44.38l4.75-9.5h23.37l-4.75,9.5h-23.37ZM59.09,40.01v29.99l-16.21-4.34c-1.82-.49-3.73-.51-5.56-.05l-1.98.49v-18.56h19c.6,0,1.15-.33,1.41-.87l3.34-6.67ZM91.4,69.55c.88,1.51.37,3.44-1.14,4.32l-26.6,15.36c-1.2.7-2.57,1.06-3.96,1.06h-23.7c-1.23,0-2.45-.28-3.55-.84l-3.45-1.73v-16.78l9.07-2.26c1.31-.33,2.67-.32,3.97.03l23.62,6.33c1.69.44,2.7,2.16,2.26,3.84-.21.83-.76,1.53-1.5,1.95-.72.43-1.58.54-2.39.32l-18.89-5.07c-.85-.23-1.72.28-1.95,1.12s.28,1.72,1.12,1.95l18.89,5.05c.54.14,1.09.22,1.65.22,1.11,0,2.2-.29,3.15-.86,1.46-.83,2.53-2.22,2.96-3.85.18-.7.23-1.42.17-2.14l15.94-9.2c1.51-.84,3.42-.33,4.31,1.16ZM67.99,44.38l-4.75-9.5h23.37l4.75,9.5h-23.37Z" fill="#fff"/>
    <path d="M79.67,25.38c0-3.5-2.84-6.33-6.33-6.33s-6.33,2.84-6.33,6.33,2.84,6.33,6.33,6.33,6.33-2.84,6.33-6.33ZM73.34,28.54c-1.75,0-3.17-1.42-3.17-3.17s1.42-3.17,3.17-3.17,3.17,1.42,3.17,3.17-1.42,3.17-3.17,3.17Z" fill="#fff"/>
  </g>
</svg>