<?xml version="1.0" encoding="UTF-8"?>
<svg id="Layer_1" data-name="Layer 1" xmlns="http://www.w3.org/2000/svg" viewBox="0 0 96 96">
  <defs>
    <style>
      .cls-1 {
        fill: #fff;
      }
    </style>
  </defs>
  <path class="cls-1" d="M44.42,93.36C19.98,93.36.1,73.48.1,49.05S19.98,4.73,44.42,4.73v3C21.64,7.73,3.1,26.27,3.1,49.05s18.54,41.31,41.32,41.31v3Z"/>
  <path class="cls-1" d="M45.92,93.36h-1.5c-14.54,0-26.36-19.88-26.36-44.31S29.89,4.73,44.42,4.73h1.5v88.63ZM42.92,7.81c-12.19,1.37-21.86,19.34-21.86,41.24s9.68,39.86,21.86,41.23V7.81Z"/>
  <path class="cls-1" d="M44.32,31.56c-8.07-.53-15.29-1.78-21.45-3.71-4.53-1.42-8.51-3.21-11.82-5.33l1.62-2.53c3.09,1.97,6.82,3.66,11.1,5,5.94,1.86,12.92,3.07,20.75,3.58l-.2,2.99Z"/>
  <path class="cls-1" d="M11.44,76.49l-1.73-2.45c3.39-2.4,7.56-4.42,12.39-6,6.3-2.08,13.78-3.41,22.22-3.97l.2,2.99c-8.19.54-15.42,1.83-21.48,3.83-4.55,1.48-8.45,3.37-11.59,5.59Z"/>
  <rect class="cls-1" x="1.6" y="45.04" width="42.82" height="3"/>
  <path class="cls-1" d="M49.77,93.36v-3c6.6,0,12.9-1.51,18.73-4.48l1.36,2.67c-6.26,3.19-13.02,4.8-20.09,4.8Z"/>
  <polygon class="cls-1" points="69.7 94.92 66.81 94.08 68.84 87.11 61.87 85.08 62.71 82.2 72.56 85.07 69.7 94.92"/>
  <g>
    <path class="cls-1" d="M77.64,78.75h-4.04c-3.64,0-6.6-2.96-6.6-6.6v-1.96h17.24v1.96c0,3.64-2.96,6.6-6.6,6.6ZM70.15,73.19c.45,1.48,1.82,2.56,3.45,2.56h4.04c1.63,0,3-1.08,3.45-2.56h-10.94Z"/>
    <rect class="cls-1" x="66.5" y="60.69" width="18.47" height="3"/>
    <path class="cls-1" d="M78.85,52.79h-7.01l-.42-5.6c-.59-.26-1.14-.59-1.67-.97l-5.06,2.44-3.5-6.07,4.64-3.16c-.03-.32-.05-.65-.05-.97s.02-.64.05-.97l-4.64-3.16,3.5-6.07,5.06,2.44c.53-.38,1.08-.71,1.67-.97l.42-5.6h7.01l.42,5.6c.59.26,1.14.59,1.67.97l5.06-2.44,3.5,6.07-4.64,3.16c.03.32.05.65.05.97s-.02.64-.05.97l4.64,3.16-3.5,6.07-5.06-2.44c-.52.38-1.08.7-1.67.97l-.42,5.6ZM74.62,49.79h1.44l.35-4.77.96-.31c.87-.28,1.66-.74,2.35-1.37l.75-.67,4.31,2.08.72-1.24-3.95-2.69.21-.98c.1-.45.14-.91.14-1.36s-.05-.91-.14-1.37l-.21-.98,3.95-2.69-.72-1.24-4.32,2.08-.75-.67c-.69-.62-1.48-1.08-2.35-1.37l-.96-.31-.35-4.77h-1.44l-.35,4.77-.96.31c-.87.28-1.66.74-2.35,1.37l-.75.67-4.32-2.08-.72,1.24,3.95,2.69-.21.98c-.1.45-.14.91-.14,1.37s.05.91.14,1.36l.21.98-3.95,2.69.72,1.24,4.31-2.08.75.67c.69.62,1.49,1.08,2.35,1.37l.96.31.35,4.77Z"/>
    <path class="cls-1" d="M75.34,42.87c-2.43,0-4.4-1.97-4.4-4.4s1.97-4.4,4.4-4.4,4.4,1.97,4.4,4.4-1.97,4.4-4.4,4.4ZM75.34,37.07c-.77,0-1.4.63-1.4,1.4s.63,1.4,1.4,1.4,1.4-.63,1.4-1.4-.63-1.4-1.4-1.4Z"/>
    <polygon class="cls-1" points="56.45 32.82 56.45 32.82 59.45 32.82 56.45 32.82"/>
    <path class="cls-1" d="M83.01,73.19h-14.53c-1.91,0-3.47-1.56-3.47-3.47v-13.8c0-.14.01-.33,0-.49h-4.75c-2.14,0-3.89-1.89-3.89-4.22v-3.13c-1.09-.02-2.04-.14-2.73-.66-1.27-1.01-1.66-2.7-1-4.23l3.2-7.39c.11-1.05.32-2.12.62-3.18h0s.06-.21.06-.21c.86-2.96,2.42-5.71,4.5-7.98,1.74-1.89,3.79-3.41,6.09-4.51l.32-.15c2.59-1.2,5.37-1.82,8.26-1.83h.12c11.12,0,19.92,8.68,20.08,19.8.1,6.58-3.04,12.8-8.41,16.64-.63.45-1.01,1.18-1.01,1.95v13.41c0,1.91-1.55,3.47-3.46,3.47ZM57.43,45.06c1.07,0,1.94.9,1.94,2v4.13c0,.66.41,1.22.89,1.22h4.75c.92,0,1.66.28,2.2.82.84.86.81,2.03.8,2.73v.24s0,13.49,0,13.49c0,.26.21.47.47.47h14.53c.26,0,.46-.21.46-.47v-13.41c0-1.73.85-3.37,2.26-4.38,4.56-3.27,7.23-8.56,7.15-14.15-.13-9.47-7.62-16.85-17.08-16.85h-.1c-2.56.02-5.01.58-7.29,1.68l-.31.15c-1.84.93-3.48,2.17-4.88,3.7-1.74,1.88-3.04,4.17-3.78,6.62l-.05.17c-.3,1.02-.5,2.06-.59,3.07l-.05.54-.19.19-3.17,7.32c-.1.23-.09.47.03.61.35.1,1.25.09,1.65.09h.36ZM57.31,36.19h-.01s.01,0,.01,0Z"/>
  </g>
  <path class="cls-1" d="M68.59,13.72c-5.62-3.35-11.81-5.27-18.39-5.71l.2-2.99c7.06.47,13.7,2.53,19.73,6.13l-1.54,2.58Z"/>
  <polygon class="cls-1" points="54.28 14.64 48.2 6.37 56.47 .29 58.24 2.71 52.39 7.01 56.69 12.86 54.28 14.64"/>
</svg>