<?xml version="1.0" encoding="UTF-8"?>
<svg id="Layer_1" data-name="Layer 1" xmlns="http://www.w3.org/2000/svg" viewBox="0 0 96 96">
  <path d="M93.92,13.17h-36.42v-6.33h14.53c.87,2.47,3.59,3.77,6.06,2.89,2.47-.87,3.77-3.59,2.89-6.06-.87-2.47-3.59-3.77-6.06-2.89-1.35.48-2.42,1.54-2.89,2.89h-16.12c-.87,0-1.58.71-1.58,1.58v7.92h-12.67v-7.92c0-.87-.71-1.58-1.58-1.58h-16.12c-.87-2.47-3.59-3.77-6.06-2.89-2.47.87-3.77,3.59-2.89,6.06.87,2.47,3.59,3.77,6.06,2.89,1.35-.48,2.42-1.54,2.89-2.89h14.53v6.33H2.08c-.87,0-1.58.71-1.58,1.58v60.17c0,.87.71,1.58,1.58,1.58h34.83v9.5h-15.83c-.87,0-1.58.71-1.58,1.58v6.33c0,.87.71,1.58,1.58,1.58h53.83c.87,0,1.58-.71,1.58-1.58v-6.33c0-.87-.71-1.58-1.58-1.58h-15.83v-9.5h34.83c.87,0,1.58-.71,1.58-1.58V14.75c0-.87-.71-1.58-1.58-1.58ZM76.5,3.67c.87,0,1.58.71,1.58,1.58s-.71,1.58-1.58,1.58-1.58-.71-1.58-1.58.71-1.58,1.58-1.58ZM19.5,6.83c-.87,0-1.58-.71-1.58-1.58s.71-1.58,1.58-1.58,1.58.71,1.58,1.58-.71,1.58-1.58,1.58ZM54.33,16.33v15.45l-1.39,1.38-.19-.08v-2.5c0-.87-.71-1.58-1.58-1.58h-6.33c-.87,0-1.58.71-1.58,1.58v2.5l-.19.08-1.39-1.38v-15.45h12.67ZM56.36,40.32c.31.57.56,1.18.74,1.8.21.69.86,1.16,1.58,1.12h1.98v3.17h-2.04c-.72-.03-1.37.43-1.58,1.12-.18.63-.43,1.23-.74,1.8-.29.62-.16,1.35.33,1.82l1.44,1.44-2.15,2.3-1.58-1.44c-.5-.5-1.27-.61-1.88-.27-.57.31-1.18.56-1.8.74-.69.21-1.16.86-1.12,1.58v1.98h-3.1v-2.04c.03-.72-.43-1.37-1.12-1.58-.63-.18-1.23-.43-1.8-.74-.62-.34-1.39-.23-1.88.27l-1.44,1.44-2.23-2.09,1.44-1.44c.5-.5.61-1.27.27-1.88-.31-.57-.56-1.18-.74-1.8-.21-.69-.86-1.16-1.58-1.12h-1.98v-3.25h2.04c.72.03,1.37-.43,1.58-1.12.18-.63.43-1.23.74-1.8.29-.62.16-1.35-.33-1.82l-1.44-1.44,2.23-2.23,1.44,1.44c.5.5,1.27.61,1.88.27.57-.31,1.18-.56,1.8-.74.69-.21,1.16-.86,1.12-1.58v-2.04h3.17v2.04c-.03.72.43,1.37,1.12,1.58.63.18,1.23.43,1.8.74.62.29,1.35.16,1.82-.33l1.44-1.44,2.23,2.23-1.44,1.44c-.48.51-.56,1.28-.21,1.88ZM38.5,16.33v15.61l-3.94,3.93c-.62.62-.62,1.62,0,2.24,0,0,0,0,0,0l1.77,1.77c-.02.07-.05.13-.08.19h-2.5c-.87,0-1.58.71-1.58,1.58v1.58h-16.12c-.87-2.47-3.59-3.77-6.06-2.89-2.47.87-3.77,3.59-2.89,6.06s3.59,3.77,6.06,2.89c1.35-.48,2.42-1.54,2.89-2.89h16.12v1.58c0,.87.71,1.58,1.58,1.58h2.5c.03.06.06.12.08.19l-1.77,1.77c-.3.3-.46.7-.46,1.12,0,.42.17.82.46,1.12l4.48,4.48c.62.62,1.62.62,2.24,0,0,0,0,0,0,0l1.77-1.77.19.08v2.5c0,.87.71,1.58,1.58,1.58h6.33c.87,0,1.58-.71,1.58-1.58v-2.5l.19-.08,1.77,1.77c.62.62,1.62.62,2.24,0,0,0,0,0,0,0l4.48-4.48c.29-.3.45-.7.46-1.12,0-.42-.16-.83-.46-1.12l-1.77-1.77c.02-.07.05-.13.08-.19h2.5c.87,0,1.58-.71,1.58-1.58v-1.58h16.12c.87,2.47,3.59,3.77,6.06,2.89,2.47-.87,3.77-3.59,2.89-6.06-.87-2.47-3.59-3.77-6.06-2.89-1.35.48-2.42,1.54-2.89,2.89h-16.12v-1.58c0-.87-.71-1.58-1.58-1.58h-2.5c-.03-.06-.06-.12-.08-.19l1.77-1.77c.62-.62.62-1.62,0-2.24,0,0,0,0,0,0l-3.94-3.93v-15.61h34.83v50.67H3.67V16.33h34.83ZM13.17,44.83c0,.87-.71,1.58-1.58,1.58s-1.58-.71-1.58-1.58.71-1.58,1.58-1.58,1.58.71,1.58,1.58ZM82.83,44.83c0-.87.71-1.58,1.58-1.58s1.58.71,1.58,1.58-.71,1.58-1.58,1.58-1.58-.71-1.58-1.58ZM73.33,92.33H22.67v-3.17h50.67v3.17ZM55.92,86h-15.83v-9.5h15.83v9.5ZM3.67,73.33v-3.17h88.67v3.17H3.67Z" fill="#fff"/>
  <path d="M48,38.5c-3.5,0-6.33,2.84-6.33,6.33s2.84,6.33,6.33,6.33,6.33-2.84,6.33-6.33-2.84-6.33-6.33-6.33ZM48,48c-1.75,0-3.17-1.42-3.17-3.17s1.42-3.17,3.17-3.17,3.17,1.42,3.17,3.17-1.42,3.17-3.17,3.17Z" fill="#fff"/>
  <path d="M8.42,22.67h7.92v12.67c0,.87.71,1.58,1.58,1.58h9.5c.87,0,1.58-.71,1.58-1.58s-.71-1.58-1.58-1.58h-7.92v-12.67c0-.87-.71-1.58-1.58-1.58h-9.5c-.87,0-1.58.71-1.58,1.58s.71,1.58,1.58,1.58Z" fill="#fff"/>
  <path d="M87.58,19.5h-9.5c-.87,0-1.58.71-1.58,1.58v12.67h-7.92c-.87,0-1.58.71-1.58,1.58s.71,1.58,1.58,1.58h9.5c.87,0,1.58-.71,1.58-1.58v-12.67h7.92c.87,0,1.58-.71,1.58-1.58s-.71-1.58-1.58-1.58Z" fill="#fff"/>
</svg>