<?xml version="1.0" encoding="UTF-8"?>
<svg id="Layer_1" data-name="Layer 1" xmlns="http://www.w3.org/2000/svg" viewBox="0 0 96 96">
  <defs>
    <style>
      .cls-1 {
        fill: #fff;
      }
    </style>
  </defs>
  <path class="cls-1" d="M85.78,80.85H10.23C4.59,80.85,0,76.13,0,70.33v-1.5h40.48v3H3.14c.67,3.43,3.59,6.01,7.09,6.01h75.54c1.92,0,3.73-.77,5.09-2.18,1.03-1.06,1.71-2.39,1.99-3.83h-37.34v-3h40.48v1.5c0,2.8-1.06,5.43-2.98,7.42-1.92,2-4.5,3.1-7.24,3.1Z"/>
  <polygon class="cls-1" points="57.02 74.05 38.98 74.05 38.98 70.33 41.98 70.33 41.98 71.05 54.02 71.05 54.02 70.33 57.02 70.33 57.02 74.05"/>
  <path class="cls-1" d="M88.48,71.84h-32.96v-3h29.96V20.94c0-1.54-1.19-2.79-2.65-2.79H13.18c-1.46,0-2.65,1.25-2.65,2.79v47.89h29.95v3H7.53V20.94c0-3.19,2.54-5.79,5.65-5.79h69.64c3.12,0,5.65,2.6,5.65,5.79v50.89Z"/>
  <path class="cls-1" d="M82.39,71.84h-26.88v-3h23.88V24.6c0-.19-.14-.35-.3-.35H16.91c-.16,0-.3.16-.3.35v44.24h23.87v3H13.61V24.6c0-1.85,1.48-3.35,3.3-3.35h62.19c1.82,0,3.3,1.5,3.3,3.35v47.24Z"/>
  <g>
    <path class="cls-1" d="M70.32,65.03H24.48V28.05h45.84v36.98ZM27.48,62.03h39.84v-30.98H27.48v30.98Z"/>
    <rect class="cls-1" x="25.98" y="37.76" width="42.84" height="3"/>
    <polygon class="cls-1" points="33.26 59.37 31.1 57.29 36.97 51.23 31.1 45.17 33.26 43.08 41.15 51.23 33.26 59.37"/>
    <rect class="cls-1" x="46.6" y="56.83" width="10.62" height="3"/>
  </g>
</svg>