<?xml version="1.0" encoding="UTF-8"?>
<svg id="Layer_1" data-name="Layer 1" xmlns="http://www.w3.org/2000/svg" viewBox="0 0 96 96">
  <path d="M95.5,11.91c0-1.27-.49-2.46-1.39-3.36l-6.69-6.69c-1.79-1.79-4.9-1.79-6.69,0l-3.11,3.11-1.4,1.4-3.14,3.14c-.62.62-.62,1.62,0,2.23.31.31.71.46,1.12.46s.81-.15,1.11-.46l2.02-2.02,8.92,8.95-6.76,6.76-4.76,1.5c-.45-.58-.91-1.14-1.38-1.67l6.49-6.5c.62-.62.62-1.62,0-2.23-.62-.62-1.62-.62-2.23,0l-6.47,6.47c-.66-.6-1.35-1.18-2.1-1.76l1.9-5.95c.23-.74-.1-1.54-.79-1.89l-7.29-3.73c-.69-.36-1.53-.15-1.99.47l-3.73,5.04c-2.55-.73-5.21-1.15-7.94-1.26l-1.96-5.92c-.24-.74-.98-1.19-1.75-1.06l-8.08,1.29c-.76.12-1.32.77-1.33,1.54l-.05,6.25c-2.53.93-4.94,2.15-7.19,3.65l-5.07-3.62c-.63-.45-1.48-.38-2.03.16l-5.78,5.75c-.55.55-.62,1.41-.17,2.04l3.65,5.1c-1.54,2.31-2.77,4.72-3.68,7.19l-6.25.05c-.77,0-1.42.57-1.54,1.33l-1.29,8.05c-.12.76.33,1.5,1.06,1.75l5.93,1.98c.11,2.71.53,5.37,1.26,7.94l-5.04,3.73c-.62.46-.82,1.3-.46,1.99l1.36,2.64c.4.77,1.35,1.08,2.13.68.77-.4,1.08-1.35.68-2.13l-.75-1.45,4.86-3.59c.55-.4.77-1.11.57-1.75-.95-2.96-1.44-6.06-1.47-9.23,0-.67-.44-1.27-1.08-1.48l-5.71-1.91.87-5.41,6.03-.05c.68,0,1.28-.45,1.49-1.09.94-2.89,2.38-5.7,4.27-8.36.39-.55.39-1.29,0-1.83l-3.51-4.91,3.88-3.86,4.89,3.49c.55.39,1.28.39,1.83,0,2.57-1.83,5.38-3.26,8.36-4.24.64-.21,1.08-.81,1.08-1.49l.05-6.03,5.44-.87,1.89,5.7c.21.64.81,1.08,1.48,1.08,3.2.03,6.3.53,9.22,1.47.65.21,1.35-.02,1.76-.56l3.59-4.86,4.91,2.5-1.83,5.73c-.21.64.02,1.35.57,1.75,1.37,1.01,2.55,2.01,3.59,3.02,1.05,1.09,2.04,2.26,3.02,3.59.4.55,1.1.78,1.75.57l5-1.57c.12.03.25.05.37.05.17,0,.34-.03.5-.08l2.41,4.71-4.86,3.59c-.55.4-.77,1.11-.57,1.75.95,2.96,1.44,6.07,1.47,9.23,0,.67.44,1.27,1.08,1.48l5.71,1.91-.87,5.41-6.03.05c-.68,0-1.27.44-1.48,1.08-.98,2.97-2.41,5.79-4.24,8.36-.39.55-.39,1.29,0,1.83l3.49,4.88-3.86,3.88-4.91-3.51c-.55-.39-1.29-.39-1.84,0-2.65,1.89-5.46,3.33-8.35,4.27-.64.21-1.08.81-1.09,1.49l-.05,6.02-5.41.87-1.91-5.71c-.21-.64-.81-1.07-1.48-1.08-3.16-.03-6.27-.52-9.23-1.47-.64-.21-1.35.02-1.75.57l-3.59,4.86-1.66-.86c-.77-.4-1.72-.1-2.13.68-.4.77-.1,1.73.68,2.13l2.85,1.47c.69.36,1.53.16,1.99-.46l3.73-5.04c2.57.73,5.23,1.15,7.94,1.26l1.99,5.93c.22.65.83,1.08,1.5,1.08h0c.08,0,.17,0,.25-.02l8.05-1.29c.76-.12,1.32-.77,1.33-1.54l.05-6.25c2.48-.91,4.89-2.15,7.19-3.68l5.1,3.65c.63.45,1.49.38,2.04-.17l5.75-5.78c.54-.55.61-1.41.16-2.03l-3.62-5.07c1.5-2.25,2.72-4.66,3.65-7.19l6.25-.05c.77,0,1.42-.57,1.54-1.33l1.29-8.05c.12-.76-.33-1.5-1.06-1.75l-5.93-1.98c-.11-2.71-.53-5.37-1.26-7.94l5.04-3.73c.62-.46.82-1.3.47-1.99l-3.4-6.66,9.14-9.14s.04-.04.06-.07l2-2c.89-.89,1.39-2.08,1.39-3.36ZM79.57,7.49l3.4-3.4c.3-.3.69-.46,1.11-.46s.81.16,1.11.46l6.69,6.7c.3.3.46.7.46,1.12s-.16.83-.46,1.12l-2.03,2.03s-.02.02-.03.03l-1.34,1.34-8.92-8.94Z" fill="#fff"/>
  <path d="M19.57,89.61c.06-.02.12-.05.18-.08.01,0,.02-.01.03-.02.06-.03.11-.07.16-.1.01,0,.03-.02.04-.03.05-.04.1-.08.15-.13l47.17-47.17c.6,1.93.91,3.96.91,6.04,0,5.44-2.12,10.55-5.96,14.39-4.58,4.58-10.91,6.67-17.32,5.74-.88-.15-1.66.47-1.79,1.34-.12.86.47,1.66,1.34,1.79,1.11.16,2.23.24,3.34.24,6.2,0,12.25-2.46,16.67-6.87,4.44-4.44,6.88-10.34,6.88-16.62s-2.44-12.18-6.88-16.62c-4.44-4.44-10.34-6.88-16.62-6.88s-12.18,2.44-16.62,6.88c-5.13,5.13-7.58,12.22-6.71,19.44.1.87.9,1.49,1.76,1.38.87-.1,1.48-.89,1.38-1.76-.75-6.26,1.36-12.39,5.81-16.84,3.84-3.84,8.95-5.96,14.39-5.96,2.08,0,4.11.31,6.04.91L6.76,75.83c-.17.16-.3.36-.39.59h0s0,.03,0,.03L.58,93.4c-.19.57-.05,1.2.38,1.63.3.3.71.46,1.12.46h0c.17,0,.34-.03.51-.08l16.94-5.78s.03-.01.04-.02ZM4.61,91.38l3.36-9.84c.2.16.43.28.69.33l4.39.88c.06.1.13.2.21.29l.86,4.3c.05.26.16.5.33.69l-9.84,3.36ZM16.33,82.27l43.44-43.44c.62-.62.62-1.62,0-2.23-.62-.62-1.62-.62-2.23,0L14.36,79.79l-4.18-.84-.52-1.55L57.09,29.97c1.89.96,3.63,2.22,5.17,3.76,1.54,1.54,2.8,3.28,3.76,5.17l-47.43,47.43-1.55-.52-.71-3.53Z" fill="#fff"/>
  <path d="M21.03,91.9c-.87,0-1.58.87-1.58,1.74s.71,1.58,1.58,1.58,1.58-.71,1.58-1.58v-.32c0-.87-.71-1.42-1.58-1.42Z" fill="#fff"/>
  <path d="M27.34,91.9c-.87,0-1.58.87-1.58,1.74s.71,1.58,1.58,1.58,1.58-.71,1.58-1.58v-.32c0-.87-.71-1.42-1.58-1.42Z" fill="#fff"/>
  <path d="M33.66,91.9c-.87,0-1.58.87-1.58,1.74s.71,1.58,1.58,1.58,1.58-.71,1.58-1.58v-.32c0-.87-.71-1.42-1.58-1.42Z" fill="#fff"/>
</svg>