<?xml version="1.0" encoding="UTF-8"?>
<svg id="Capa_1" data-name="Capa 1" xmlns="http://www.w3.org/2000/svg" viewBox="0 0 96 96">
  <defs>
    <style>
      .cls-1 {
        fill: #fff;
      }
    </style>
  </defs>
  <path class="cls-1" d="M94.98,50.2c-.33,1.98-.47,3.99-.89,5.97-1.33,6.24-3.99,11.84-8.01,16.79-4.35,5.35-9.77,9.27-16.15,11.87-.49.2-.99.38-1.51.2-.63-.21-1.01-.69-1.05-1.37-.04-.71.3-1.23.94-1.54,1.32-.63,2.69-1.17,3.98-1.87,10.76-5.88,17.25-14.9,19.13-27,2.43-15.65-5.44-30.85-19.46-38.16-.78-.41-1.61-.74-2.4-1.15-.97-.5-1.32-1.36-.93-2.18.39-.82,1.29-1.09,2.29-.63,12.69,5.87,20.52,15.59,23.36,29.32.33,1.59.36,3.21.7,4.79v4.95Z"/>
  <path class="cls-1" d="M48,48.59c0,10.18,0,20.36,0,30.54,0,2.51-1.05,4.24-3.08,5.04-1.81.72-3.49.44-4.93-.87-6.67-6.11-13.34-12.23-19.98-18.37-.58-.54-1.16-.75-1.95-.75-4.92.03-9.84.02-14.77.02-1.81,0-2.27-.46-2.27-2.28,0-9.42,0-18.83,0-28.25,0-1.91.46-2.35,2.4-2.35,4.98,0,9.97-.01,14.95.01.62,0,1.09-.17,1.56-.57,6.66-5.66,13.34-11.3,20.02-16.95,2.33-1.97,5.43-1.57,7.19.92.7.99.86,2.13.86,3.31,0,10.18,0,20.36,0,30.54ZM44.87,48.58c0-10.15,0-20.31,0-30.46,0-.92-.06-1.79-1.03-2.26-1.02-.5-1.66.14-2.35.72-6.51,5.52-13.02,11.03-19.54,16.53-.41.35-.6.69-.59,1.23.03,2.02.02,4.04,0,6.05,0,1.15-.65,1.88-1.58,1.88-.93,0-1.53-.73-1.54-1.9-.01-1.71-.03-3.43.01-5.14.02-.66-.2-.82-.83-.81-4.16.03-8.32.03-12.48,0-.63,0-.83.16-.83.81.02,8.35.02,16.7,0,25.05,0,.58.14.79.76.79,4.19-.03,8.38-.03,12.57,0,.65,0,.83-.2.81-.83-.04-1.77-.01-3.55-.01-5.32,0-.71.31-1.26.97-1.53.61-.24,1.21-.14,1.69.35.38.4.47.91.47,1.44,0,2.02.01,4.04-.01,6.05,0,.5.14.85.51,1.19,1.82,1.64,3.61,3.3,5.41,4.96,4.84,4.45,9.69,8.89,14.52,13.35.59.54,1.17.88,1.97.52.77-.34,1.05-.97,1.08-1.76,0-.24,0-.49,0-.73,0-10.06,0-20.12,0-30.18Z"/>
  <path class="cls-1" d="M82.49,47.43c0,13.22-8.26,24.89-20.37,29.11-1.06.37-1.88.08-2.23-.77-.37-.89.03-1.74,1.12-2.14,3.78-1.39,7.19-3.39,10.03-6.25,6.42-6.46,9.29-14.26,7.99-23.28-1.53-10.62-7.56-17.89-17.48-21.95-.28-.12-.57-.21-.85-.35-.83-.42-1.18-1.19-.89-1.96.3-.8,1.14-1.2,2.03-.91,1.57.51,3.09,1.16,4.53,1.97,8.67,4.85,13.89,12.19,15.71,21.94.17.9.23,1.82.31,2.73.06.73.08,1.47.1,1.86Z"/>
  <path class="cls-1" d="M68.38,46.43c.03,10.38-5.85,18.51-14.52,21.39-1.44.48-2.26.24-2.61-.76-.35-.99.18-1.71,1.6-2.2,4.91-1.68,8.49-4.86,10.72-9.53,4.53-9.52-.41-21.17-10.39-24.56-.32-.11-.64-.2-.95-.33-.91-.41-1.27-1.17-.96-1.99.32-.83,1.09-1.2,2.02-.93,1.62.47,3.18,1.11,4.61,2,6.76,4.19,10.2,10.29,10.49,16.9Z"/>
</svg>