<?xml version="1.0" encoding="UTF-8"?>
<svg id="Capa_1" data-name="Capa 1" xmlns="http://www.w3.org/2000/svg" viewBox="0 0 96 96">
  <defs>
    <style>
      .cls-1 {
        fill: #fff;
      }
    </style>
  </defs>
  <path class="cls-1" d="M1.03,40.09c.43-1.53,1.14-2.88,2.54-3.76,3.12-1.96,7.12-.44,8.15,3.14.18.62.36.73.98.53,15.68-4.96,31.38-9.9,47.07-14.83.63-.2.78-.51.75-1.11-.08-1.94.26-3.76,1.6-5.29,1.58-1.79,4.23-2.53,6.6-1.77,2.31.74,4.04,2.87,4.24,5.25.04.49.08.98.08,1.46,0,16.21,0,32.41.01,48.62,0,2.3-.63,4.29-2.54,5.7-1.89,1.4-4,1.66-6.15.75-2.12-.89-3.41-2.53-3.73-4.84-.1-.72-.13-1.46-.12-2.19,0-.51-.14-.75-.65-.91-5.62-1.75-11.24-3.52-16.86-5.31-.59-.19-.71-.1-.71.53.02,3.82-3.33,6.26-7.05,5.09-5.3-1.68-10.57-3.41-15.86-5.13-1.13-.37-2.3-.63-3.29-1.34-2.34-1.67-2.96-4.86-1.33-7.22.43-.62.29-.78-.35-.93-.59-.14-1.19-.31-1.74-.55-.61-.26-.8-.09-.98.53-1.03,3.58-5.03,5.1-8.15,3.14-1.4-.88-2.11-2.23-2.54-3.76v-15.78ZM60.52,47.96c0-6.27,0-12.54.01-18.8,0-.7-.05-.97-.88-.71-15.63,4.95-31.26,9.87-46.9,14.77-.62.19-.78.48-.77,1.1.04,2.45.04,4.89,0,7.34-.01.64.19.89.79,1.08,15.61,4.89,31.21,9.8,46.81,14.74.84.26.95.08.94-.71-.03-6.27-.01-12.54-.01-18.8ZM69.93,47.98c0-8.04,0-16.09,0-24.13,0-.46,0-.92-.06-1.37-.21-1.66-1.72-2.83-3.38-2.64-1.82.2-2.83,1.53-2.83,3.74,0,16.27,0,32.54,0,48.81,0,.43.02.86.1,1.28.27,1.42,1.45,2.41,2.9,2.49,1.37.07,2.66-.81,3.1-2.13.19-.56.17-1.15.17-1.73,0-8.1,0-16.21,0-24.31ZM19.37,58.21c-1.65-.03-2.68,1.39-2.21,2.82.31.97,1.11,1.32,1.97,1.6,5.51,1.79,11.03,3.57,16.54,5.35.38.12.76.24,1.15.29.98.15,1.96-.48,2.3-1.42.32-.88-.04-2-.85-2.5-.39-.24-.82-.4-1.25-.54-5.48-1.78-10.97-3.56-16.45-5.33-.44-.14-.87-.29-1.19-.27ZM8.87,48.01c0-2.23.01-4.46,0-6.69-.01-1.63-.96-2.7-2.35-2.71-1.4,0-2.35,1.08-2.36,2.69,0,4.43,0,8.87,0,13.3,0,1.64.91,2.73,2.3,2.75,1.43.03,2.4-1.06,2.41-2.74.01-2.2,0-4.4,0-6.6Z"/>
  <path class="cls-1" d="M80.21,46.42c.21,0,.43-.02.64,0,.98.1,1.6.71,1.59,1.56,0,.85-.62,1.47-1.6,1.54-.54.04-1.1.03-1.64-.03-.85-.1-1.42-.75-1.42-1.52,0-.77.57-1.39,1.43-1.52.33-.05.67-.04,1-.07,0,.01,0,.02,0,.03Z"/>
  <path class="cls-1" d="M86.36,49.55c-1.56,0-2.33-.53-2.31-1.59.01-1.05.78-1.56,2.35-1.56,1.55,0,2.34.54,2.32,1.59-.01,1.05-.78,1.56-2.35,1.56Z"/>
  <path class="cls-1" d="M92.58,49.57c-.32-.03-.62-.04-.92-.08-.85-.13-1.28-.66-1.33-1.49-.04-.78.48-1.38,1.29-1.52.66-.12,1.34-.11,2,0,.85.13,1.28.67,1.34,1.49.05.74-.51,1.38-1.3,1.52-.36.06-.73.07-1.08.1Z"/>
  <path class="cls-1" d="M79.58,31.29c-.85,0-1.29-.28-1.59-.79-.3-.52-.3-1.06.04-1.56.42-.61.94-1.13,1.54-1.56.66-.47,1.33-.38,1.93.15.57.51.68,1.36.18,1.99-.62.77-1.22,1.62-2.09,1.76Z"/>
  <path class="cls-1" d="M79.35,64.66c.97.02,2.6,1.64,2.62,2.62.01.61-.27,1.06-.78,1.36-.52.31-1.06.31-1.56-.03-.63-.43-1.17-.98-1.61-1.61-.34-.5-.34-1.04-.03-1.56.3-.51.75-.79,1.36-.78Z"/>
  <path class="cls-1" d="M84.9,22.67c1.16.03,1.89,1.32,1.28,2.32-.42.68-.99,1.25-1.67,1.66-1,.6-2.3-.17-2.31-1.32,0-.96,1.75-2.69,2.7-2.66Z"/>
  <path class="cls-1" d="M92.66,33.13c.76.08,1.28.42,1.5,1.1.23.69.02,1.3-.57,1.69-.69.47-1.5.71-2.32.8-.69.08-1.24-.31-1.5-.98-.26-.68-.1-1.3.46-1.73.72-.54,1.61-.7,2.42-.89Z"/>
  <path class="cls-1" d="M88.3,36.66c-.1,1.36-1.18,1.52-2.12,1.86-.81.29-1.57.32-2.15-.43-.57-.74-.33-1.83.54-2.26.59-.29,1.24-.52,1.89-.66.99-.2,1.85.56,1.84,1.49Z"/>
  <path class="cls-1" d="M84.89,73.29c-.95.02-2.7-1.72-2.69-2.67.01-1.16,1.31-1.92,2.31-1.31.68.41,1.26.98,1.67,1.67.61,1.01-.13,2.29-1.29,2.32Z"/>
  <path class="cls-1" d="M79.42,40.69c-.84-.02-1.36-.39-1.57-1.12-.2-.7.02-1.3.62-1.67.7-.43,1.49-.7,2.33-.76.73-.05,1.24.36,1.47,1.02.23.7.06,1.36-.59,1.76-.71.44-1.51.65-2.24.77Z"/>
  <path class="cls-1" d="M79.55,55.29c.66.12,1.36.32,2.01.68.71.39.94,1.06.71,1.8-.23.76-.81,1.14-1.61,1.05-.73-.09-1.43-.33-2.07-.68-.69-.39-.97-1.01-.72-1.78.25-.76.81-1.11,1.69-1.06Z"/>
  <path class="cls-1" d="M94.25,61.2c-.03,1.01-.84,1.75-1.73,1.59-.72-.12-1.43-.33-2.07-.71-.69-.41-.93-1.04-.69-1.81.23-.73.98-1.18,1.73-1.01.62.14,1.23.35,1.82.6.62.26.91.78.93,1.34Z"/>
  <path class="cls-1" d="M88.3,59.23c.03.98-.83,1.76-1.81,1.57-.65-.13-1.29-.37-1.9-.65-.79-.36-.99-1.05-.78-1.84.18-.71.93-1.13,1.73-1.01.67.1,1.3.34,1.9.62.55.26.8.73.86,1.32Z"/>
  <path class="cls-1" d="M90.82,19.95c0,.83-1.68,2.53-2.66,2.49-.59-.02-1.06-.3-1.33-.83-.26-.52-.27-1.07.08-1.56.43-.6.95-1.12,1.55-1.55.49-.35,1.03-.36,1.56-.07.53.29.79.74.81,1.51Z"/>
  <path class="cls-1" d="M90.83,76.14c.01,1.18-1.24,1.96-2.26,1.36-.71-.42-1.32-1.02-1.73-1.73-.58-1.02.23-2.29,1.38-2.26.95.02,2.6,1.69,2.61,2.64Z"/>
</svg>