<?xml version="1.0" encoding="UTF-8"?>
<svg id="Layer_1" data-name="Layer 1" xmlns="http://www.w3.org/2000/svg" viewBox="0 0 96 96">
  <defs>
    <style>
      .cls-1 {
        fill: #fff;
      }
    </style>
  </defs>
  <g>
    <rect class="cls-1" x="74.33" y="10.37" width="3" height="17.73" transform="translate(8.9 59.74) rotate(-45.42)"/>
    <rect class="cls-1" x="69.7" y="15.07" width="3" height="17.73" transform="translate(3.87 57.24) rotate(-44.9)"/>
    <path class="cls-1" d="M3.25,94.43c-.39,0-.77-.15-1.05-.43-.44-.43-.57-1.09-.33-1.66l9.44-22.06c.05-.28.18-.54.39-.76l.09-.1,19.59-19.88c.58-.59,1.53-.6,2.12-.02s.6,1.53.02,2.12l-19.41,19.7-7.98,18.65,18.33-8.17,19.47-19.75c.58-.59,1.53-.6,2.12-.02.59.58.6,1.53.02,2.12l-19.42,19.7c-.15.23-.36.42-.62.53l-22.17,9.88c-.2.09-.4.13-.61.13Z"/>
    <path class="cls-1" d="M63.02,46.37c-.38,0-.76-.14-1.05-.43-.59-.58-.6-1.53-.02-2.12l28.54-28.96c.23-.24.23-.63-.01-.87l-9.62-9.48c-.24-.23-.63-.23-.87,0l-28.45,28.87c-.58.59-1.53.6-2.12.02s-.6-1.53-.02-2.12L77.86,2.4c1.4-1.42,3.7-1.43,5.11-.03l9.62,9.48c1.41,1.4,1.43,3.69.04,5.1l-28.55,28.97c-.29.3-.68.45-1.07.45Z"/>
    <rect class="cls-1" x="9.71" y="80.52" width="3" height="8.78" transform="translate(-57.13 33.29) rotate(-45.41)"/>
    <path class="cls-1" d="M23.91,83.2c-.04-.37-1.21-9.08-11.35-11.25-.12-.03-.17-.04-.22-.05l.56-2.95c.13.02.24.05.37.08,12.22,2.61,13.62,13.71,13.63,13.82l-2.98.34Z"/>
  </g>
  <path class="cls-1" d="M32.47,52.73L-.12,20.14,20.14-.12l32.44,32.44-20.11,20.41ZM4.12,20.14l28.34,28.34,15.9-16.14L20.14,4.12,4.12,20.14Z"/>
  <path class="cls-1" d="M75.86,96.13l-32.97-32.98,20.12-20.41,33.11,33.11-20.26,20.27ZM47.12,63.13l28.74,28.75,16.02-16.03-28.85-28.85-15.91,16.13Z"/>
  <rect class="cls-1" x="9.3" y="22.92" width="12.76" height="3" transform="translate(-12.67 18.24) rotate(-45)"/>
  <rect class="cls-1" x="15.47" y="30.32" width="9.57" height="3" transform="translate(-16.56 23.64) rotate(-45)"/>
  <rect class="cls-1" x="22.02" y="35.64" width="12.76" height="3" transform="translate(-17.94 30.96) rotate(-45)"/>
  <rect class="cls-1" x="28.19" y="43.04" width="9.57" height="3" transform="translate(-21.83 36.36) rotate(-45)"/>
  <rect class="cls-1" x="46.49" y="60.12" width="12.76" height="3" transform="translate(-28.08 55.44) rotate(-45)"/>
  <rect class="cls-1" x="52.66" y="67.51" width="9.57" height="3" transform="translate(-31.97 60.84) rotate(-45)"/>
</svg>