<?xml version="1.0" encoding="UTF-8"?>
<svg id="Layer_1" data-name="Layer 1" xmlns="http://www.w3.org/2000/svg" viewBox="0 0 96 96">
  <defs>
    <style>
      .cls-1 {
        fill: #fff;
      }
    </style>
  </defs>
  <path class="cls-1" d="M40.36,79.92C18.51,79.92.74,62.15.74,40.3S18.51.67,40.36.67c12.93,0,25.08,6.34,32.5,16.96h0c4.65,6.66,7.11,14.5,7.11,22.66,0,8.72-2.78,16.99-8.03,23.92-2.22,2.94-4.86,5.57-7.84,7.81-6.9,5.16-15.11,7.89-23.74,7.89ZM40.36,3.67C20.17,3.67,3.74,20.1,3.74,40.3s16.43,36.62,36.62,36.62c7.98,0,15.56-2.52,21.94-7.29,2.76-2.07,5.2-4.5,7.25-7.22,4.86-6.4,7.42-14.05,7.42-22.11,0-7.55-2.27-14.79-6.57-20.94h0c-6.86-9.82-18.09-15.68-30.04-15.68Z"/>
  <path class="cls-1" d="M40.36,69.21c-15.94,0-28.91-12.97-28.91-28.91,0-1.51.12-3.01.34-4.46,2.15-13.94,14.44-24.46,28.57-24.46,10.21,0,19.76,5.47,24.92,14.27h0c2.61,4.42,3.99,9.48,3.99,14.64,0,15.94-12.97,28.91-28.91,28.91ZM40.36,14.38c-12.67,0-23.68,9.42-25.61,21.92-.2,1.3-.31,2.64-.31,3.99,0,14.29,11.62,25.91,25.91,25.91s25.91-11.62,25.91-25.91c0-4.63-1.24-9.16-3.57-13.12h0c-4.63-7.89-13.19-12.8-22.34-12.8Z"/>
  <path class="cls-1" d="M88.43,95.33c-1.83,0-3.54-.71-4.83-2.01l-21.46-21.43,2.12-2.12,21.47,21.43c1.45,1.45,3.96,1.45,5.41,0,.73-.73,1.13-1.69,1.13-2.71s-.4-1.98-1.12-2.7l-21.45-21.42,2.12-2.12,21.45,21.42c1.29,1.29,2.01,3,2.01,4.83s-.71,3.54-2.01,4.83c-1.28,1.29-3,2-4.82,2Z"/>
  <rect class="cls-1" x="67.74" y="71.66" width="10.65" height="3" transform="translate(-30.33 73.1) rotate(-45)"/>
  <path class="cls-1" d="M61.27,58.31H18.74c-.83,0-1.5-.67-1.5-1.5s.67-1.5,1.5-1.5h42.53c.83,0,1.5.67,1.5,1.5s-.67,1.5-1.5,1.5Z"/>
  <rect class="cls-1" x="52.99" y="27.17" width="3" height="29.64"/>
  <rect class="cls-1" x="45.08" y="33.2" width="3" height="23.61"/>
  <rect class="cls-1" x="37.17" y="32.53" width="3" height="24.61"/>
  <rect class="cls-1" x="29.26" y="39.06" width="3" height="17.92"/>
  <rect class="cls-1" x="21.34" y="45.43" width="3" height="11.55"/>
</svg>