<?xml version="1.0" encoding="UTF-8"?>
<svg id="Layer_1" data-name="Layer 1" xmlns="http://www.w3.org/2000/svg" viewBox="0 0 96 96">
  <defs>
    <style>
      .cls-1 {
        fill: #fff;
      }
    </style>
  </defs>
  <path class="cls-1" d="M12.72,41h-6.4c-1.66,0-3.01,1.35-3.01,3v35.31c0,1.66,1.35,3.01,3.01,3.01h6.4c1.66,0,3-1.35,3-3.01v-35.31c0-1.66-1.35-3-3-3ZM12.93,79.32c0,.12-.1.21-.21.21h-6.4c-.12,0-.21-.1-.21-.21v-35.31c0-.12.1-.21.21-.21h6.4c.12,0,.21.1.21.21v35.31h0Z"/>
  <path class="cls-1" d="M31.96,51.66h-6.4c-1.66,0-3.01,1.35-3.01,3.01v24.65c0,1.66,1.35,3.01,3.01,3.01h6.4c1.66,0,3.01-1.35,3.01-3.01v-24.65c0-1.66-1.35-3.01-3.01-3.01ZM32.17,79.32c0,.12-.1.21-.21.21h-6.4c-.12,0-.21-.1-.21-.21v-24.65c0-.12.1-.21.21-.21h6.4c.12,0,.21.1.21.21v24.65Z"/>
  <path class="cls-1" d="M51.2,41h-6.4c-1.66,0-3.01,1.35-3.01,3v35.31c0,1.66,1.35,3.01,3.01,3.01h6.4c1.66,0,3.01-1.35,3.01-3.01v-35.31c0-1.66-1.35-3-3.01-3ZM51.41,79.32c0,.12-.1.21-.21.21h-6.4c-.12,0-.21-.1-.21-.21v-35.31c0-.12.1-.21.21-.21h6.4c.12,0,.21.1.21.21v35.31Z"/>
  <path class="cls-1" d="M70.44,46.95h-6.4c-1.66,0-3.01,1.35-3.01,3v29.36c0,1.66,1.35,3.01,3.01,3.01h6.4c1.66,0,3.01-1.35,3.01-3.01v-29.36c0-1.66-1.35-3-3.01-3ZM70.65,79.32c0,.12-.1.21-.21.21h-6.4c-.12,0-.21-.1-.21-.21v-29.36c0-.12.1-.21.21-.21h6.4c.12,0,.21.1.21.21v29.36Z"/>
  <path class="cls-1" d="M89.68,30.71h-6.4c-1.66,0-3,1.35-3,3v45.6c0,1.66,1.35,3.01,3,3.01h6.4c1.66,0,3.01-1.35,3.01-3.01v-45.6c0-1.66-1.35-3-3.01-3ZM89.89,79.32c0,.12-.1.21-.21.21h-6.4c-.12,0-.21-.1-.21-.21v-45.6c0-.12.1-.21.21-.21h6.4c.12,0,.21.1.21.21v45.6Z"/>
  <path class="cls-1" d="M27.93,45.07c.49.36,1.16.36,1.65,0l18.59-13.65,18.5,8.22c.57.25,1.24.1,1.64-.39l16.77-20.3v4.22c0,.77.62,1.4,1.4,1.4s1.4-.62,1.4-1.4v-8.1c0-.75-.69-1.48-1.55-1.39,0,0,0,0,0,0l-8.05.94c-.77.09-1.31.78-1.23,1.55.09.77.78,1.33,1.55,1.23l4.6-.53-16.35,19.8-18.27-8.12c-.46-.2-.99-.15-1.39.15l-18.41,13.52-18.41-13.52c-.62-.46-1.5-.32-1.95.3-.46.62-.32,1.5.3,1.95l19.24,14.13Z"/>
</svg>