<?xml version="1.0" encoding="UTF-8"?>
<svg id="Capa_1" data-name="Capa 1" xmlns="http://www.w3.org/2000/svg" viewBox="0 0 96 96">
  <path d="M85.06,12.96s-.02-.03-.03-.05c-.22-.49-.53-.93-.91-1.32l-9.13-9.13c-.38-.38-.83-.69-1.32-.91-.01,0-.03-.02-.05-.02l-.03-.02c-.58-.25-1.19-.38-1.83-.38H16.67c-3.39,0-6.14,2.75-6.14,6.14v81.47c0,3.39,2.75,6.14,6.14,6.14h62.67c3.39,0,6.14-2.75,6.14-6.14V14.83c0-.63-.13-1.25-.39-1.83,0-.02-.01-.03-.02-.04h-.01ZM74.51,6.05l6.04,6.04h-2.79c-1.8,0-3.26-1.46-3.26-3.26v-2.79h.01ZM82.59,88.73c0,1.8-1.46,3.26-3.26,3.26H16.67c-1.8,0-3.26-1.46-3.26-3.26V7.27c0-1.8,1.46-3.26,3.26-3.26h54.96v4.83c0,3.39,2.75,6.14,6.14,6.14h4.82v73.76h0Z" fill="#fff"/>
  <path d="M38.48,23.53l4.28-4.28c.54-.56.53-1.47-.02-2.02-.55-.55-1.46-.56-2.02-.02l-3.09,3.09-.09-.12c-.85-1.14-2.21-1.83-3.64-1.83h-9.4c-2.52,0-4.58,2.05-4.58,4.58v9.4c0,2.52,2.05,4.57,4.58,4.57h9.4c2.52,0,4.58-2.05,4.58-4.57,0,0,0-8.8,0-8.8ZM35.59,32.33c0,.93-.76,1.69-1.69,1.69h-9.4c-.93,0-1.69-.76-1.69-1.69v-9.4c0-.93.76-1.69,1.69-1.69h9.4c.7,0,1.34.45,1.57,1.11l.03.07-4.73,4.73-2.11-2.11c-.56-.54-1.47-.53-2.02.02s-.56,1.46-.02,2.02l3.13,3.13c.56.56,1.48.56,2.04,0l3.81-3.81v5.92h-.01Z" fill="#fff"/>
  <path d="M38.48,44.87c0-2.52-2.05-4.57-4.58-4.57h-9.4c-2.52,0-4.58,2.05-4.58,4.57v9.4c0,2.52,2.05,4.58,4.58,4.58h9.4c2.52,0,4.58-2.05,4.58-4.58,0,0,0-9.4,0-9.4ZM35.59,54.27c0,.93-.76,1.69-1.69,1.69h-9.4c-.93,0-1.69-.76-1.69-1.69v-9.4c0-.93.76-1.69,1.69-1.69h9.4c.93,0,1.69.76,1.69,1.69,0,0,0,9.4,0,9.4Z" fill="#fff"/>
  <path d="M38.48,66.8c0-2.52-2.05-4.58-4.58-4.58h-9.4c-2.52,0-4.58,2.05-4.58,4.58v9.4c0,2.52,2.05,4.57,4.58,4.57h9.4c2.52,0,4.58-2.05,4.58-4.57,0,0,0-9.4,0-9.4ZM35.59,76.2c0,.93-.76,1.69-1.69,1.69h-9.4c-.93,0-1.69-.76-1.69-1.69v-9.4c0-.93.76-1.69,1.69-1.69h9.4c.93,0,1.69.76,1.69,1.69v9.4Z" fill="#fff"/>
  <path d="M74.63,21.49h-26.63c-.79,0-1.44.65-1.44,1.44s.65,1.44,1.44,1.44h26.63c.79,0,1.44-.65,1.44-1.44s-.65-1.44-1.44-1.44Z" fill="#fff"/>
  <path d="M63.67,29.33h-15.67c-.79,0-1.44.65-1.44,1.44s.65,1.44,1.44,1.44h15.67c.79,0,1.44-.65,1.44-1.44s-.65-1.44-1.44-1.44Z" fill="#fff"/>
  <path d="M74.63,43.43h-26.63c-.79,0-1.44.65-1.44,1.44s.65,1.44,1.44,1.44h26.63c.79,0,1.44-.65,1.44-1.44s-.65-1.44-1.44-1.44Z" fill="#fff"/>
  <path d="M63.67,51.26h-15.67c-.79,0-1.44.65-1.44,1.44s.65,1.44,1.44,1.44h15.67c.79,0,1.44-.65,1.44-1.44s-.65-1.44-1.44-1.44Z" fill="#fff"/>
  <path d="M74.63,65.36h-26.63c-.79,0-1.44.65-1.44,1.44s.65,1.44,1.44,1.44h26.63c.79,0,1.44-.65,1.44-1.44s-.65-1.44-1.44-1.44Z" fill="#fff"/>
  <path d="M63.67,73.19h-15.67c-.79,0-1.44.65-1.44,1.44s.65,1.44,1.44,1.44h15.67c.79,0,1.44-.65,1.44-1.44s-.65-1.44-1.44-1.44Z" fill="#fff"/>
</svg>