<?xml version="1.0" encoding="UTF-8"?>
<svg id="Layer_1" data-name="Layer 1" xmlns="http://www.w3.org/2000/svg" viewBox="0 0 96 96">
  <path d="M84.32,44.52c-3.23-1.62-9.29-1.63-9.55-1.63-.77,0-1.39.62-1.39,1.39s.62,1.39,1.39,1.39c1.56,0,6.1.24,8.31,1.34.2.1.41.15.62.15.51,0,1-.28,1.25-.77.34-.69.07-1.52-.62-1.87Z" fill="#fff"/>
  <path d="M91.25,64.34l-5.75-1.64c-.25-.07-.42-.3-.42-.56v-1.92c.47-.32.91-.69,1.33-1.09,2.02-1.96,3.13-4.59,3.13-7.41v-2.65l.56-1.11c.61-1.22.93-2.59.93-3.95v-7.17c0-.77-.62-1.39-1.39-1.39h-13.39c-4.87,0-8.83,3.96-8.83,8.83v.08c0,1.13.27,2.27.78,3.28l.71,1.43v2.27c0,3.6,1.78,6.83,4.46,8.78v2.01c0,.31,0,.44-1.15.77l-2.8.8-8.11-2.95c.03-.38-.1-.77-.38-1.07l-2.59-2.72v-4.57c.27-.23.54-.46.81-.7,3.27-3.07,5.15-7.39,5.15-11.87v-3.65c.99-2.15,1.49-4.42,1.49-6.76v-14.88c0-.77-.62-1.39-1.39-1.39h-20.83c-7.33,0-13.29,5.96-13.29,13.29v2.98c0,2.34.5,4.62,1.49,6.76v3.14c0,5.2,2.31,9.89,5.95,12.98v4.68l-2.59,2.72c-.28.29-.41.68-.38,1.07l-8.56,3.11c-.62.23-1.2.53-1.72.9l-1.34-.67c4-1.74,5.27-4.19,5.33-4.31.2-.39.2-.85,0-1.24-1-2.01-1.12-5.68-1.22-8.64-.03-.98-.06-1.91-.12-2.74-.47-6.67-5.55-11.71-11.8-11.71s-11.33,5.03-11.8,11.71c-.06.83-.09,1.76-.12,2.74-.1,2.95-.22,6.63-1.22,8.64-.2.39-.2.85,0,1.24.06.12,1.33,2.57,5.34,4.31l-3.73,1.87c-2,1-3.24,3.01-3.24,5.24v10.28c0,.77.62,1.39,1.39,1.39s1.39-.62,1.39-1.39v-10.28c0-1.17.65-2.22,1.7-2.75l4.65-2.33,1.62,1.54c1.13,1.07,2.58,1.61,4.03,1.61s2.9-.54,4.03-1.61l1.62-1.54,1.52.76c-.71,1.14-1.12,2.48-1.12,3.89v10.71c0,.77.62,1.39,1.39,1.39s1.39-.62,1.39-1.39v-10.71c0-1.91,1.21-3.63,3-4.29l9.03-3.28,3.76,5.64c.48.72,1.25,1.18,2.11,1.27.1,0,.19.01.29.01.76,0,1.49-.3,2.03-.84l2.29-2.29v14.5c0,.77.62,1.39,1.39,1.39s1.39-.62,1.39-1.39v-14.5l2.29,2.29c.54.54,1.27.84,2.03.84.1,0,.19,0,.29-.01.86-.09,1.63-.55,2.11-1.27l3.76-5.64,9.03,3.28c1.8.65,3,2.38,3,4.29v10.71c0,.77.62,1.39,1.39,1.39s1.39-.62,1.39-1.39v-10.71c0-1.93-.77-3.75-2.06-5.09l.34-.1c.35-.1.82-.23,1.29-.47l3.55,3.55v12.81c0,.77.62,1.39,1.39,1.39s1.39-.62,1.39-1.39v-12.81l3.53-3.53c.19.1.38.18.59.24l5.75,1.64c1.31.37,2.23,1.59,2.23,2.95v11.51c0,.77.62,1.39,1.39,1.39s1.39-.62,1.39-1.39v-11.51c0-2.6-1.75-4.92-4.25-5.63ZM9.43,61.88c-2.6-.94-3.91-2.19-4.47-2.87.38-.99.63-2.13.79-3.33.77,1.84,2.05,3.41,3.67,4.53v1.67ZM17.4,65.64c-1.19,1.13-3.05,1.13-4.23,0l-1.29-1.23c.22-.41.34-.87.34-1.36v-1.48c.97.3,2,.47,3.07.47s2.1-.16,3.07-.47v1.48c0,.49.12.95.34,1.36l-1.29,1.23ZM15.28,59.26c-4.16,0-7.54-3.38-7.54-7.54,0-.77-.62-1.39-1.39-1.39-.08,0-.15,0-.23.02,0-.12,0-.24.01-.36.03-.96.06-1.86.12-2.64.18-2.5,1.18-4.8,2.81-6.49,1.65-1.7,3.86-2.63,6.21-2.63s4.56.94,6.21,2.63c1.64,1.68,2.64,3.99,2.81,6.49.05.78.08,1.68.12,2.64,0,.08,0,.17,0,.25-1.51-2.33-3.85-4.05-6.87-5.02-2.79-.9-5.19-.84-5.29-.84-.36.01-.71.16-.96.43l-2.51,2.6c-.53.55-.52,1.43.04,1.97s1.43.52,1.97-.04l2.09-2.17c1.8.09,7.59.76,9.84,5.72-.57,3.65-3.71,6.37-7.44,6.37ZM21.14,61.88v-1.66c1.62-1.11,2.91-2.68,3.67-4.54.17,1.2.41,2.33.79,3.32-.55.68-1.87,1.94-4.47,2.87ZM34.53,39.31v-3.45c0-.21-.05-.42-.14-.61-.9-1.85-1.35-3.82-1.35-5.85v-2.98c0-5.8,4.72-10.51,10.51-10.51h19.44v13.49c0,2.03-.45,3.99-1.35,5.85-.09.19-.14.4-.14.61v3.96c0,3.77-1.51,7.26-4.27,9.84-.34.32-.7.62-1.07.9,0,0-.02.01-.02.02-2.58,1.96-5.73,2.91-9.03,2.69-7.06-.46-12.59-6.59-12.59-13.97ZM42.37,67.31s-.03.03-.08.03c-.05,0-.06-.03-.07-.04l-4.33-6.49,1.39-1.46,6.57,4.49-3.48,3.48ZM48.02,61.94l-7.54-5.15v-2.6c1.95,1.05,4.13,1.71,6.46,1.86.37.02.73.04,1.09.04,2.66,0,5.22-.64,7.52-1.84v2.54l-7.54,5.15ZM53.82,67.29s-.03.04-.07.04c-.05,0-.07-.02-.08-.03l-3.48-3.48,6.57-4.49,1.39,1.46-4.33,6.49ZM79.23,66.12l-3.16-3.16c.06-.25.09-.52.09-.83v-.59c.88.29,1.8.46,2.76.49.11,0,.21,0,.32,0,1.06,0,2.09-.16,3.07-.46v.56c0,.28.03.55.1.81l-3.17,3.17ZM84.48,57.13c-1.47,1.43-3.42,2.19-5.48,2.12-4.03-.12-7.3-3.67-7.3-7.91v-2.6c0-.22-.05-.43-.15-.62l-.86-1.72c-.31-.63-.48-1.34-.48-2.04v-.08c0-3.34,2.71-6.05,6.05-6.05h12v5.78c0,.93-.22,1.87-.64,2.7l-.7,1.4c-.1.19-.15.41-.15.62v2.98c0,2.06-.81,3.98-2.29,5.41Z" fill="#fff"/>
  <path d="M88.16,71.16c-.77,0-1.39.62-1.39,1.39v8.93c0,.77.62,1.39,1.39,1.39s1.39-.62,1.39-1.39v-8.93c0-.77-.62-1.39-1.39-1.39Z" fill="#fff"/>
  <path d="M7.84,73c-.77,0-1.39.62-1.39,1.39v7.09c0,.77.62,1.39,1.39,1.39s1.39-.62,1.39-1.39v-7.09c0-.77-.62-1.39-1.39-1.39Z" fill="#fff"/>
  <path d="M59.42,29.9c-5.26-5.26-16.28-4.26-20.77-3.58-1.41.21-2.44,1.41-2.44,2.85v3.21c0,.77.62,1.39,1.39,1.39s1.39-.62,1.39-1.39v-3.21s.03-.09.07-.09c1.79-.27,5.35-.69,9.04-.44,4.34.29,7.48,1.38,9.34,3.24.54.54,1.42.54,1.97,0,.54-.54.54-1.42,0-1.97Z" fill="#fff"/>
  <path d="M31.65,74.13c-.77,0-1.39.62-1.39,1.39v5.95c0,.77.62,1.39,1.39,1.39s1.39-.62,1.39-1.39v-5.95c0-.77-.62-1.39-1.39-1.39Z" fill="#fff"/>
  <path d="M64.38,74.13c-.77,0-1.39.62-1.39,1.39v5.95c0,.77.62,1.39,1.39,1.39s1.39-.62,1.39-1.39v-5.95c0-.77-.62-1.39-1.39-1.39Z" fill="#fff"/>
</svg>