<?xml version="1.0" encoding="UTF-8"?>
<svg id="Layer_1" data-name="Layer 1" xmlns="http://www.w3.org/2000/svg" viewBox="0 0 96 96">
  <defs>
    <style>
      .cls-1 {
        fill: #fff;
      }
    </style>
  </defs>
  <path class="cls-1" d="M54.62,77.37h-11.31l-.41-3.81c-1.18-.29-2.34-.67-3.48-1.14l-2.57,2.85-9.15-6.65,1.92-3.33c-.79-.93-1.5-1.92-2.15-2.96l-3.76.79-3.5-10.76,3.51-1.57c-.05-.62-.07-1.22-.07-1.82s.02-1.21.07-1.83l-3.51-1.57,3.5-10.76,3.76.79c.65-1.04,1.37-2.03,2.15-2.96l-1.92-3.33,9.15-6.65,2.57,2.85c1.14-.46,2.3-.84,3.48-1.13l.41-3.81h11.31l.41,3.81c1.18.29,2.35.67,3.48,1.13l2.57-2.84,9.15,6.65-1.91,3.32c.79.93,1.51,1.92,2.15,2.96l3.75-.79,3.5,10.76-3.5,1.56c.05.62.07,1.23.07,1.83s-.02,1.21-.07,1.84l3.5,1.56-3.5,10.76-3.75-.79c-.65,1.04-1.37,2.03-2.16,2.96l1.91,3.32-9.15,6.65-2.57-2.85c-1.14.46-2.3.84-3.49,1.13l-.41,3.81ZM46.01,74.37h5.92l.35-3.29,1.08-.22c1.68-.33,3.34-.87,4.92-1.6l1-.46,2.22,2.46,4.79-3.48-1.65-2.87.75-.81c1.17-1.27,2.19-2.67,3.05-4.19l.54-.96,3.24.68,1.83-5.63-3.02-1.35.13-1.09c.11-.91.16-1.75.16-2.6s-.05-1.69-.15-2.58l-.13-1.09,3.02-1.35-1.83-5.63-3.24.68-.54-.96c-.85-1.51-1.88-2.92-3.05-4.19l-.75-.81,1.65-2.87-4.79-3.48-2.22,2.46-1-.46c-1.58-.73-3.24-1.27-4.92-1.6l-1.08-.21-.35-3.3h-5.92l-.35,3.3-1.08.22c-1.68.34-3.34.87-4.92,1.6l-1,.46-2.23-2.47-4.79,3.48,1.66,2.88-.75.81c-1.17,1.27-2.19,2.67-3.04,4.18l-.54.96-3.25-.69-1.83,5.63,3.04,1.36-.13,1.09c-.1.89-.16,1.76-.16,2.59s.05,1.68.15,2.58l.12,1.09-3.04,1.36,1.83,5.63,3.25-.68.54.96c.85,1.51,1.87,2.92,3.04,4.18l.75.81-1.66,2.88,4.79,3.48,2.22-2.46,1,.46c1.58.73,3.24,1.27,4.92,1.6l1.08.22.35,3.3Z"/>
  <path class="cls-1" d="M48.97,63.61c-8.07,0-14.64-6.57-14.64-14.64s6.57-14.64,14.64-14.64,14.64,6.57,14.64,14.64-6.57,14.64-14.64,14.64ZM48.97,37.33c-6.42,0-11.64,5.22-11.64,11.64s5.22,11.64,11.64,11.64,11.64-5.22,11.64-11.64-5.22-11.64-11.64-11.64Z"/>
  <path class="cls-1" d="M10.67,76.64C4.31,68.37.95,58.46.95,48,.95,22.06,22.06.95,48,.95c.47,0,.94,0,1.41.02l.04,3c-.55-.01-1-.02-1.45-.02C23.71,3.95,3.95,23.71,3.95,48c0,9.79,3.15,19.07,9.1,26.82l-2.38,1.83Z"/>
  <path class="cls-1" d="M48,95.05c-1.84,0-3.72-.11-5.57-.33l.35-2.98c1.73.21,3.49.31,5.21.31,24.29,0,44.05-19.76,44.05-44.05,0-10.89-4.01-21.35-11.29-29.45l2.23-2c7.77,8.65,12.05,19.82,12.05,31.45,0,25.94-21.11,47.05-47.05,47.05Z"/>
  <polygon class="cls-1" points="43.06 73.26 42.89 72.96 44.24 72.32 45.52 71.54 44.75 72.08 45.59 71.68 44.75 72.08 43.06 73.26"/>
  <path class="cls-1" d="M77.39,20.49c-4.24,0-7.7-3.45-7.7-7.7s3.45-7.7,7.7-7.7,7.7,3.45,7.7,7.7-3.45,7.7-7.7,7.7ZM77.39,8.1c-2.59,0-4.7,2.11-4.7,4.7s2.11,4.7,4.7,4.7,4.7-2.11,4.7-4.7-2.11-4.7-4.7-4.7Z"/>
  <path class="cls-1" d="M15.86,88.77c-4.24,0-7.7-3.45-7.7-7.7s3.45-7.7,7.7-7.7,7.7,3.45,7.7,7.7-3.45,7.7-7.7,7.7ZM15.86,76.38c-2.59,0-4.7,2.11-4.7,4.7s2.11,4.7,4.7,4.7,4.7-2.11,4.7-4.7-2.11-4.7-4.7-4.7Z"/>
</svg>