<?xml version="1.0" encoding="UTF-8"?>
<svg id="Layer_1" data-name="Layer 1" xmlns="http://www.w3.org/2000/svg" viewBox="0 0 96 96">
  <defs>
    <style>
      .cls-1 {
        fill: #fff;
      }
    </style>
  </defs>
  <path class="cls-1" d="M88.11,64.47l-1.5-2.6c4.63-2.67,7.12-8,6.2-13.27-1.22-6.93-7.85-11.59-14.79-10.37l-2.65.46,1-2.5c1.95-4.9.61-10.55-3.33-14.06-2.51-2.24-5.74-3.36-9.11-3.17-3.36.19-6.44,1.69-8.68,4.2l-2.13,2.39-.47-3.17c-.41-2.71-1.41-5.25-2.99-7.53-5.65-8.18-16.89-10.23-25.07-4.58-3.96,2.74-6.62,6.85-7.49,11.59-.87,4.74.17,9.52,2.9,13.48l2.4,3.47-4.05-1.17c-4.55-1.32-9.46.17-12.52,3.78-4.27,5.06-3.63,12.65,1.43,16.92l-1.94,2.29c-6.32-5.34-7.12-14.82-1.78-21.15,3.08-3.65,7.69-5.57,12.33-5.3-1.92-3.98-2.53-8.44-1.72-12.87,1.01-5.52,4.11-10.32,8.73-13.52,9.54-6.59,22.66-4.19,29.24,5.35,1.31,1.9,2.28,3.95,2.91,6.11,2.48-1.96,5.5-3.11,8.72-3.29,4.15-.24,8.16,1.15,11.27,3.92,4.28,3.81,6.08,9.67,4.83,15.14,7.64-.17,14.53,5.26,15.9,13.04,1.14,6.51-1.93,13.09-7.65,16.39Z"/>
  <path class="cls-1" d="M35.08,34.2v3.13h-3.13v-3.13h3.13M38.08,31.2h-9.13v9.13h9.13v-9.13h0Z"/>
  <rect class="cls-1" x="42.79" y="31.2" width="3" height="9.43"/>
  <path class="cls-1" d="M56.11,34.2v3.13h-3.13v-3.13h3.13M59.11,31.2h-9.13v9.13h9.13v-9.13h0Z"/>
  <rect class="cls-1" x="63.82" y="31.2" width="3" height="9.43"/>
  <path class="cls-1" d="M22.81,53.57v3.13h-3.13v-3.13h3.13M25.81,50.57h-9.13v9.13h9.13v-9.13h0Z"/>
  <rect class="cls-1" x="30.52" y="50.56" width="3" height="9.43"/>
  <path class="cls-1" d="M43.84,53.57v3.13h-3.13v-3.13h3.13M46.84,50.57h-9.13v9.13h9.13v-9.13h0Z"/>
  <rect class="cls-1" x="51.55" y="50.56" width="3" height="9.43"/>
  <path class="cls-1" d="M59.91,87.81v3.13h-3.13v-3.13h3.13M62.91,84.81h-9.13v9.13h9.13v-9.13h0Z"/>
  <rect class="cls-1" x="67.62" y="84.81" width="3" height="9.43"/>
  <path class="cls-1" d="M80.94,87.81v3.13h-3.13v-3.13h3.13M83.94,84.81h-9.13v9.13h9.13v-9.13h0Z"/>
  <rect class="cls-1" x="88.65" y="84.81" width="3" height="9.43"/>
  <path class="cls-1" d="M65.12,53.57v3.13h-3.13v-3.13h3.13M68.12,50.57h-9.13v9.13h9.13v-9.13h0Z"/>
  <rect class="cls-1" x="72.83" y="50.56" width="3" height="9.43"/>
  <path class="cls-1" d="M14.13,71.05v3.13h-3.13v-3.13h3.13M17.13,68.05h-9.13v9.13h9.13v-9.13h0Z"/>
  <rect class="cls-1" x="21.84" y="68.05" width="3" height="9.43"/>
  <path class="cls-1" d="M35.16,71.05v3.13h-3.13v-3.13h3.13M38.16,68.05h-9.13v9.13h9.13v-9.13h0Z"/>
  <rect class="cls-1" x="42.87" y="68.05" width="3" height="9.43"/>
  <path class="cls-1" d="M56.44,71.05v3.13h-3.13v-3.13h3.13M59.44,68.05h-9.13v9.13h9.13v-9.13h0Z"/>
  <rect class="cls-1" x="64.15" y="68.05" width="3" height="9.43"/>
</svg>