<?xml version="1.0" encoding="UTF-8"?>
<svg id="Capa_1" data-name="Capa 1" xmlns="http://www.w3.org/2000/svg" viewBox="0 0 96 96">
  <defs>
    <style>
      .cls-1 {
        fill: #fff;
      }
    </style>
  </defs>
  <path class="cls-1" d="M1.04,45.25c.24-1.78.4-3.57.73-5.33C4.41,25.84,11.89,15.07,24.08,7.63,32.01,2.79,40.72.63,49.99,1.08c13.29.65,24.42,6,33.27,15.94,6.66,7.48,10.56,16.29,11.47,26.25,1.35,14.84-3.3,27.66-13.85,38.21-7.04,7.03-15.59,11.25-25.4,12.89-1.56.26-3.14.4-4.71.6h-5.51c-.24-.05-.47-.13-.71-.15-7.35-.52-14.22-2.62-20.5-6.46-12.17-7.46-19.66-18.21-22.29-32.28-.33-1.76-.49-3.55-.73-5.33,0-1.84,0-3.67,0-5.51ZM91.87,48.02c.02-24.13-19.65-43.83-43.81-43.87-24.12-.04-43.83,19.62-43.89,43.78-.06,24.14,19.68,43.92,43.85,43.91,24.14,0,43.83-19.68,43.85-43.83Z"/>
  <path class="cls-1" d="M46.45,33.58c0-2.29,0-4.59,0-6.88,0-.33.01-.67.06-1,.12-.85.66-1.29,1.49-1.35.75-.05,1.38.51,1.52,1.3.06.36.07.73.07,1.09,0,4.71.01,9.42,0,14.13,0,.64.17.95.8,1.2,2.69,1.06,4.23,3.79,3.83,6.62-.39,2.76-2.65,4.98-5.42,5.32-2.8.34-5.48-1.21-6.51-3.87-.25-.65-.6-.78-1.22-.77-3.15.02-6.3.01-9.45,0-.4,0-.8,0-1.18-.09-.75-.17-1.14-.69-1.15-1.45-.01-.76.37-1.29,1.11-1.48.38-.1.79-.11,1.18-.11,3.18,0,6.36-.02,9.54,0,.58,0,.91-.1,1.15-.73.63-1.69,1.85-2.87,3.53-3.5.54-.2.68-.48.67-1-.02-2.48,0-4.95,0-7.43ZM44.9,47.81c0,1.7,1.37,3.1,3.07,3.13,1.73.03,3.17-1.38,3.17-3.12,0-1.7-1.37-3.1-3.07-3.12-1.74-.02-3.17,1.37-3.17,3.11Z"/>
  <path class="cls-1" d="M26.32,71.09c-.02.94-1.7,2.6-2.64,2.61-1.17.01-1.96-1.25-1.36-2.26.42-.72,1.01-1.32,1.73-1.73,1.01-.58,2.3.22,2.27,1.38Z"/>
  <path class="cls-1" d="M49.61,81.53c-.03.3-.03.61-.08.91-.12.84-.63,1.3-1.47,1.35-.82.04-1.44-.48-1.55-1.36-.07-.57-.08-1.16-.03-1.73.08-.96.66-1.51,1.5-1.53.88-.02,1.48.55,1.59,1.54.03.27,0,.55,0,.82.01,0,.03,0,.04,0Z"/>
  <path class="cls-1" d="M14.44,46.21c.3.03.64.04.96.1.81.16,1.3.75,1.26,1.54-.05.85-.51,1.35-1.35,1.47-.64.09-1.28.09-1.92,0-.85-.12-1.3-.63-1.35-1.47-.05-.82.48-1.41,1.36-1.56.33-.05.67-.06,1.04-.09Z"/>
  <path class="cls-1" d="M81.67,49.38c-1.58,0-2.31-.5-2.3-1.58,0-1.07.75-1.56,2.32-1.56,1.56,0,2.31.52,2.3,1.59,0,1.06-.74,1.56-2.33,1.56Z"/>
  <path class="cls-1" d="M71.3,69.51c.9.07,2.49,1.6,2.59,2.44.08.63-.14,1.15-.67,1.5-.53.35-1.1.39-1.63.03-.64-.43-1.18-.97-1.61-1.61-.36-.53-.34-1.09,0-1.63.32-.52.81-.7,1.32-.73Z"/>
  <path class="cls-1" d="M46.42,14.04c.03-.31.04-.65.11-.98.16-.8.67-1.21,1.47-1.24.79-.03,1.37.47,1.52,1.29.12.66.11,1.34,0,2-.13.84-.65,1.29-1.49,1.32-.79.03-1.37-.47-1.52-1.29-.06-.36-.06-.73-.1-1.12Z"/>
  <path class="cls-1" d="M26.32,24.52c.03,1.11-1.19,1.94-2.18,1.43-.79-.41-1.43-1.07-1.86-1.85-.54-.99.26-2.19,1.4-2.18.94,0,2.62,1.65,2.65,2.6Z"/>
  <path class="cls-1" d="M72.36,21.92c1.18,0,1.95,1.25,1.35,2.26-.42.71-1.02,1.32-1.74,1.73-1.01.58-2.3-.24-2.26-1.39.03-.95,1.7-2.59,2.65-2.6Z"/>
</svg>