<?xml version="1.0" encoding="UTF-8"?>
<svg id="Layer_1" data-name="Layer 1" xmlns="http://www.w3.org/2000/svg" viewBox="0 0 96 96">
  <g>
    <path d="M67.85,59.29s-.01,0-.02,0c-.01,0-.03,0-.04,0h.05Z" fill="#fff"/>
    <path d="M67.85,59.41h-.06v-.25h.06v.25Z" fill="#fff"/>
  </g>
  <path d="M55.97,19.88c-.83,0-1.5.68-1.5,1.5v26.63c0,.46.2.88.55,1.18l11.89,9.63c.26.22.59.34.93.34.47,0,.91-.2,1.21-.56.25-.31.37-.71.32-1.11s-.24-.76-.56-1.01l-11.33-9.18v-25.92c0-.83-.68-1.5-1.51-1.5Z" fill="#fff"/>
  <path d="M39.6,62.68h-18.18c-.83,0-1.51.67-1.51,1.5s.68,1.51,1.51,1.51h18.18c.83,0,1.51-.68,1.51-1.51s-.68-1.5-1.51-1.5Z" fill="#fff"/>
  <path d="M55.97,75.53c-.83,0-1.5.67-1.5,1.5v.33c0,.83.68,1.51,1.5,1.51s1.51-.68,1.51-1.51v-.33c0-.83-.68-1.5-1.51-1.5Z" fill="#fff"/>
  <path d="M86.33,46.51h-.33c-.83,0-1.51.68-1.51,1.51s.68,1.5,1.51,1.5h.33c.83,0,1.51-.68,1.51-1.5s-.68-1.51-1.51-1.51Z" fill="#fff"/>
  <path d="M18.17,54.78c.82-.11,1.4-.87,1.29-1.69-.21-1.55-.33-3.16-.34-4.77v-.13s13.1,0,13.1,0c.83,0,1.51-.68,1.51-1.5s-.68-1.51-1.51-1.51H1.62c-.83,0-1.51.68-1.51,1.51s.68,1.5,1.51,1.5h14.48v.12c0,1.74.12,3.48.36,5.19.1.74.74,1.29,1.48,1.29h0l.19-.02.05.12h0l-.02-.12Z" fill="#fff"/>
  <path d="M55.83,87.9h.14c7.44,0,14.72-2.08,21.04-6,6.32-3.93,11.41-9.53,14.71-16.2,4.73-9.55,5.45-20.37,2.04-30.46-3.41-10.1-10.55-18.26-20.1-22.98-9.09-4.5-19.44-5.37-29.15-2.46-9.66,2.9-17.79,9.27-22.89,17.93l-.07.12-.11-.08c-.25-.18-.55-.27-.86-.27h-10.87c-.83,0-1.51.68-1.51,1.51s.68,1.5,1.51,1.5h10.42l-.03.15c-.02.09-.03.17-.04.26v.05s-1.97,4.1-1.97,4.1c-.09.2-.14.41-.14.62,0,.84.66,1.52,1.5,1.53h0c.57,0,1.11-.33,1.36-.85l2.26-4.74c.08-.16.12-.34.14-.52v-.05c6.37-12.28,18.91-19.91,32.74-19.91h.01c20.33,0,36.87,16.53,36.87,36.86,0,20.33-16.53,36.88-36.86,36.88h-.17c-9.91,0-19.51-4.09-26.36-11.24-.27-.24-.62-.35-.97-.35-.33,0-.65.1-.93.32-.32.25-.52.6-.57,1-.05.4.06.79.31,1.11,7.42,7.74,17.82,12.18,28.56,12.18Z" fill="#fff"/>
  <path d="M12.22,62.68h-2.97c-.83,0-1.51.67-1.51,1.5s.68,1.51,1.51,1.51h2.97c.83,0,1.51-.68,1.51-1.51s-.68-1.5-1.51-1.5Z" fill="#fff"/>
</svg>