<?xml version="1.0" encoding="UTF-8"?>
<svg id="Layer_1" data-name="Layer 1" xmlns="http://www.w3.org/2000/svg" viewBox="0 0 96 96">
  <defs>
    <style>
      .cls-1 {
        fill: #fff;
      }
    </style>
  </defs>
  <path class="cls-1" d="M52.74,75.98c-7.62-.03-17.24-1.17-19.25-4.26l2.51-1.64c.62.96,6.35,2.85,16.75,2.9v3Z"/>
  <path class="cls-1" d="M52.74,65.96c-3.25-.02-19.5-.38-19.5-5.67s16.24-5.67,19.5-5.68l.02,3c-9.66.05-15.2,1.69-16.37,2.68,1.18.99,6.72,2.62,16.37,2.68l-.02,3Z"/>
  <path class="cls-1" d="M52.74,65.96c-3.25-.02-19.5-.38-19.5-5.67s16.24-5.67,19.5-5.68l.02,3c-9.66.05-15.2,1.69-16.37,2.68,1.18.99,6.72,2.62,16.37,2.68l-.02,3Z"/>
  <path class="cls-1" d="M52.74,85.99c-.28,0-.56,0-.84-.01h-.09c-2.72-.04-16.26-.48-18.28-4.52-.18-.32-.29-.73-.29-1.15h3c0-.09-.02-.18-.06-.25.58.94,5.89,2.76,15.66,2.93h.12c.3,0,.54,0,.78,0v3Z"/>
  <path class="cls-1" d="M52.74,96c-7.62-.03-17.23-1.16-19.25-4.25l2.51-1.64c.63.96,6.35,2.85,16.75,2.89v3Z"/>
  <rect class="cls-1" x="33.24" y="60.28" width="3" height="30.65"/>
  <path class="cls-1" d="M51.03,75.99v-3c.28,0,.54,0,.8,0,1.34-.02,2.67-.07,4.12-.16,1.74-.12,3.45-.31,5.07-.56,1.06-.17,2.08-.37,3.01-.59l.71,2.91c-1.02.25-2.12.47-3.27.65-1.71.26-3.5.46-5.33.58-1.5.09-2.88.14-4.22.16-.29,0-.58,0-.89,0Z"/>
  <path class="cls-1" d="M51.03,65.96l-.02-3c9.65-.05,15.19-1.69,16.37-2.68-1.17-.99-6.71-2.63-16.37-2.68l.02-3c3.25.02,19.5.38,19.5,5.68s-16.24,5.66-19.5,5.67Z"/>
  <path class="cls-1" d="M51.03,65.96l-.02-3c9.65-.05,15.19-1.69,16.37-2.68-1.17-.99-6.71-2.63-16.37-2.68l.02-3c3.25.02,19.5.38,19.5,5.68s-16.24,5.66-19.5,5.67Z"/>
  <path class="cls-1" d="M51.04,85.99l-.02-3c4.77-.03,9.2-.47,12.47-1.23l.68,2.92c-3.49.82-8.15,1.28-13.14,1.31Z"/>
  <path class="cls-1" d="M51.03,96v-3c10.39-.04,16.12-1.93,16.74-2.89l2.51,1.64c-2.02,3.08-11.63,4.22-19.25,4.25Z"/>
  <rect class="cls-1" x="67.53" y="60.28" width="3" height="6.61"/>
  <path class="cls-1" d="M78.88,96c-9.39,0-17.03-7.64-17.03-17.03s7.64-17.03,17.03-17.03,17.03,7.64,17.03,17.03-7.64,17.03-17.03,17.03ZM78.88,64.93c-7.74,0-14.03,6.29-14.03,14.03s6.29,14.03,14.03,14.03,14.03-6.29,14.03-14.03-6.29-14.03-14.03-14.03Z"/>
  <rect class="cls-1" x="77.38" y="68.57" width="3" height="19.33"/>
  <path class="cls-1" d="M80.62,84.35h-5.99v-3h5.99c.29,0,1.74-.05,1.74-1.08,0-.8-1.09-.92-1.74-.92h-4.17c-2.24,0-4.06-1.73-4.06-3.87s1.82-3.87,4.06-3.87h5.62v3h-5.62c-.57,0-1.06.4-1.06.87s.48.87,1.06.87h4.17c2.83,0,4.74,1.58,4.74,3.92s-1.95,4.08-4.74,4.08Z"/>
  <path class="cls-1" d="M34.61,75.16C15.25,73.58.09,57.1.09,37.65.09,16.89,16.98,0,37.75,0s37.65,16.89,37.65,37.65c0,7.84-2.38,15.35-6.89,21.72l-2.45-1.73c4.15-5.86,6.34-12.77,6.34-19.99,0-19.11-15.54-34.65-34.65-34.65S3.09,18.54,3.09,37.65c0,17.9,13.96,33.06,31.77,34.52l-.24,2.99Z"/>
  <rect class="cls-1" x="36.97" y="25.84" width="23.2" height="3" transform="translate(-5.15 42.2) rotate(-44.84)"/>
  <rect class="cls-1" x="24.5" y="25.97" width="3" height="16.09" transform="translate(-15.45 44.77) rotate(-67.15)"/>
  <path class="cls-1" d="M37.35,44.01c-3.11,0-5.64-2.53-5.64-5.63s2.53-5.63,5.64-5.63,5.63,2.53,5.63,5.63-2.53,5.63-5.63,5.63ZM37.35,35.74c-1.45,0-2.64,1.18-2.64,2.63s1.18,2.63,2.64,2.63,2.63-1.18,2.63-2.63-1.18-2.63-2.63-2.63Z"/>
</svg>