<?xml version="1.0" encoding="UTF-8"?>
<svg id="Capa_1" data-name="Capa 1" xmlns="http://www.w3.org/2000/svg" viewBox="0 0 96 96">
  <defs>
    <style>
      .cls-1 {
        fill: #fff;
      }
    </style>
  </defs>
  <path class="cls-1" d="M53.94,5.7c.21.26.54.23.81.35,1.7.82,2.57,2.18,2.64,4.05.03.82.04,1.65,0,2.48-.03.52.18.72.65.85,2.58.71,5.04,1.75,7.37,3.05.42.23.66.19.98-.16.52-.57,1.07-1.11,1.63-1.64,1.89-1.82,4.5-1.91,6.37-.1,2.4,2.31,4.75,4.67,7.06,7.07,1.79,1.87,1.73,4.33-.05,6.22-.69.74-1.83,1.39-1.98,2.23-.14.78.77,1.74,1.2,2.63.78,1.64,1.45,3.33,1.91,5.09.16.62.45.83,1.08.78.74-.06,1.49-.03,2.23,0,2.63.08,4.43,1.9,4.45,4.53.02,3.25.02,6.5,0,9.75-.02,2.63-1.83,4.45-4.46,4.52-.85.02-1.71.02-2.56,0-.36,0-.53.12-.63.47-.76,2.68-1.82,5.24-3.19,7.67-.2.35-.08.54.16.77.6.57,1.18,1.15,1.75,1.75,1.84,1.93,1.89,4.43.03,6.35-2.28,2.35-4.6,4.67-6.95,6.95-1.91,1.85-4.51,1.79-6.43-.06-.57-.56-1.15-1.11-1.69-1.7-.27-.3-.5-.31-.84-.12-2.39,1.33-4.89,2.39-7.52,3.12-.41.12-.58.3-.56.74.03.82.03,1.65,0,2.48-.07,2.64-1.89,4.45-4.52,4.47-3.25.02-6.5.02-9.75,0-2.67-.02-4.48-1.84-4.54-4.53-.02-.8-.02-1.6,0-2.4.02-.42-.11-.63-.54-.75-2.63-.74-5.14-1.78-7.52-3.12-.4-.22-.62-.14-.91.16-.54.58-1.11,1.15-1.69,1.7-1.89,1.81-4.49,1.85-6.37.03-2.35-2.28-4.67-4.6-6.95-6.95-1.89-1.94-1.83-4.44.06-6.4.55-.57,1.11-1.15,1.7-1.69.29-.27.34-.48.13-.84-1.35-2.41-2.4-4.94-3.14-7.6-.12-.42-.34-.49-.71-.48-.77.02-1.54.01-2.31,0-2.27-.02-3.71-1.06-4.49-3.2-.03-.09-.11-.17-.17-.26,0-3.97,0-7.93,0-11.9.06-.09.13-.16.17-.26.77-2.14,2.22-3.17,4.48-3.2.77,0,1.54-.03,2.31,0,.45.02.62-.16.73-.56.73-2.63,1.79-5.14,3.11-7.52.19-.35.17-.57-.12-.84-.6-.56-1.19-1.15-1.76-1.75-1.84-1.92-1.88-4.44-.02-6.35,2.28-2.35,4.6-4.66,6.95-6.94,1.9-1.85,4.5-1.8,6.43.06.57.55,1.15,1.11,1.69,1.7.27.29.5.31.84.12,2.39-1.33,4.89-2.38,7.52-3.11.4-.11.58-.29.56-.73-.04-.85-.04-1.71,0-2.56.07-1.87.94-3.23,2.64-4.05.27-.13.6-.1.81-.35h11.9ZM8.84,47.96c0,1.57,0,3.14,0,4.71,0,1.16.43,1.59,1.6,1.59,1.54,0,3.08.02,4.63,0,.47,0,.66.13.76.61.88,3.95,2.4,7.65,4.6,11.06.24.38.2.6-.11.9-1.13,1.09-2.23,2.21-3.33,3.33-.8.81-.8,1.4,0,2.2,2.21,2.23,4.43,4.45,6.66,6.66.81.8,1.39.8,2.2,0,1.12-1.1,2.23-2.21,3.33-3.33.3-.31.52-.36.9-.12,3.41,2.19,7.11,3.71,11.06,4.6.48.11.62.29.61.76-.03,1.54-.02,3.08,0,4.63,0,1.17.43,1.6,1.59,1.6,3.11,0,6.22,0,9.33,0,1.2,0,1.61-.43,1.62-1.66,0-1.51.01-3.03,0-4.54,0-.45.09-.67.59-.78,3.95-.88,7.65-2.39,11.06-4.59.42-.27.65-.18.96.15,1.05,1.09,2.13,2.15,3.21,3.22.91.9,1.45.9,2.38-.02,2.15-2.14,4.29-4.28,6.43-6.43.96-.96.96-1.49.02-2.44-1.07-1.08-2.13-2.15-3.21-3.21-.3-.29-.4-.5-.14-.9,2.21-3.43,3.74-7.16,4.62-11.14.1-.46.31-.56.73-.55,1.54.02,3.08.01,4.63,0,1.19,0,1.62-.42,1.62-1.57,0-3.14,0-6.28,0-9.42,0-1.11-.44-1.54-1.56-1.55-1.54-.01-3.08-.02-4.63,0-.51.01-.7-.14-.81-.65-.88-3.93-2.38-7.6-4.57-10.98-.26-.4-.23-.64.12-.97,1.11-1.07,2.19-2.17,3.28-3.26.83-.84.84-1.42,0-2.26-2.19-2.21-4.39-4.41-6.6-6.6-.84-.83-1.42-.83-2.26,0-1.1,1.08-2.2,2.16-3.27,3.28-.33.34-.56.38-.97.12-3.39-2.18-7.06-3.69-10.98-4.57-.51-.11-.67-.3-.66-.81.03-1.51.02-3.03,0-4.54,0-1.22-.42-1.64-1.63-1.65-3.08,0-6.17,0-9.25,0-1.26,0-1.65.41-1.66,1.71,0,1.49-.02,2.97,0,4.46,0,.48-.09.71-.63.83-3.93.87-7.6,2.38-10.99,4.56-.45.29-.69.19-1.03-.15-1.03-1.07-2.09-2.11-3.15-3.16-.95-.94-1.47-.94-2.44.02-2.15,2.14-4.29,4.28-6.43,6.43-.92.93-.93,1.47-.02,2.38,1.07,1.08,2.13,2.16,3.22,3.21.32.31.43.54.15.96-2.2,3.41-3.71,7.11-4.59,11.06-.11.5-.32.6-.78.59-1.54-.02-3.08-.02-4.63,0-1.16,0-1.58.44-1.58,1.61,0,1.54,0,3.08,0,4.63Z"/>
  <path class="cls-1" d="M47.97,26.05c12-.04,21.87,9.8,21.96,21.9.09,11.98-9.95,22.03-21.96,21.98-12.06-.04-21.92-9.92-21.92-21.94,0-12.02,9.86-21.9,21.92-21.94ZM48.03,29.19c-10.28-.06-18.81,8.45-18.85,18.79-.03,10.27,8.34,18.69,18.73,18.82,10.24.13,18.79-8.36,18.89-18.75.1-10.26-8.4-18.8-18.77-18.87Z"/>
  <path class="cls-1" d="M48.36,63.65c-8.43.16-15.78-6.37-16.01-15.29-.22-8.43,6.36-15.78,15.28-16.01,8.43-.22,15.78,6.36,16.01,15.28.22,8.43-6.36,15.73-15.28,16.03ZM60.53,47.98c-.01-6.86-5.64-12.5-12.51-12.52-6.88-.02-12.58,5.67-12.57,12.55.01,6.86,5.64,12.5,12.51,12.52,6.88.02,12.58-5.67,12.57-12.55Z"/>
</svg>