<?xml version="1.0" encoding="UTF-8"?>
<svg id="Capa_1" data-name="Capa 1" xmlns="http://www.w3.org/2000/svg" viewBox="0 0 96 96">
  <path d="M64.44,1.68l-7.39,12.46-.21-.12c-2.7-1.46-5.74-2.19-8.81-2.1-.3-.02-.6-.03-.9-.03-4.13,0-8.1,1.64-11.02,4.57-4.32,4.64-4.78,11.79-4.41,16.98.45,6.27,5.58,21.31,15.65,21.31h0c10.8,0,16.47-14.11,16.98-21.31l.04-.59h18.45c1.33,0,2.42-1.09,2.42-2.42,0-.43-.12-.86-.34-1.23L68.6,1.68c-.68-1.15-2.17-1.53-3.31-.85-.35.21-.64.5-.85.85ZM61.44,33.23c-.39,5.47-5,18.6-14.08,18.6-7.54,0-12.36-13.04-12.75-18.61-.33-4.61.04-10.92,3.64-14.79h0c2.6-2.54,6.16-3.85,9.78-3.61,2.51-.08,5.04.51,7.29,1.71l.23.12-7.43,12.54c-.33.56-.42,1.21-.26,1.83s.56,1.15,1.11,1.48c.37.22.8.34,1.23.34h11.26l-.02.38h0ZM66.52,3.89l15.44,26.04h-30.88s15.44-26.04,15.44-26.04Z" fill="#fff"/>
  <path d="M7.46,91.45v2.6c0,.8.65,1.46,1.46,1.46h78.17c.39,0,.75-.15,1.03-.43s.43-.64.43-1.03v-2.6c-.02-17.69-14.43-32.1-32.12-32.12h-16.84c-17.69.02-32.1,14.43-32.12,32.12h0ZM39.58,62.24h16.84c16.09.02,29.19,13.12,29.21,29.21v1.14H10.37v-1.14c.02-16.09,13.12-29.19,29.21-29.21Z" fill="#fff"/>
  <path d="M66.52,22.34h0c.8,0,1.46-.65,1.46-1.46v-9.88c0-.8-.65-1.46-1.46-1.46s-1.46.65-1.46,1.46v9.87c0,.8.65,1.46,1.46,1.46v.25h0v-.25h0Z" fill="#fff"/>
  <circle cx="66.52" cy="25.58" r="1.46" fill="#fff"/>
</svg>