<?xml version="1.0" encoding="UTF-8"?>
<svg id="Layer_1" data-name="Layer 1" xmlns="http://www.w3.org/2000/svg" viewBox="0 0 96 96">
  <defs>
    <style>
      .cls-1 {
        stroke-linecap: round;
        stroke-linejoin: round;
      }

      .cls-1, .cls-2 {
        fill: none;
        stroke: #fff;
        stroke-width: 3px;
      }

      .cls-2 {
        stroke-miterlimit: 10;
      }
    </style>
  </defs>
  <rect class="cls-2" x="1.5" y="1.5" width="93" height="93" rx="16.12" ry="16.12"/>
  <line class="cls-2" x1="1.5" y1="14.72" x2="94.5" y2="14.72"/>
  <line class="cls-2" x1="78.79" y1="8.28" x2="66.79" y2="8.28"/>
  <line class="cls-2" x1="29.67" y1="8.28" x2="26.9" y2="8.28"/>
  <line class="cls-2" x1="21.22" y1="8.28" x2="17.99" y2="8.28"/>
  <line class="cls-2" x1="13.39" y1="8.28" x2="10.23" y2="8.28"/>
  <rect class="cls-2" x="9.93" y="23.67" width="74.57" height="35.22"/>
  <circle class="cls-2" cx="16.74" cy="76.81" r="6.14"/>
  <circle class="cls-2" cx="60.44" cy="76.81" r="6.14"/>
  <line class="cls-2" x1="71.11" y1="72.78" x2="87.01" y2="72.78"/>
  <line class="cls-2" x1="71.37" y1="79.98" x2="83.04" y2="79.98"/>
  <line class="cls-2" x1="27.4" y1="72.78" x2="43.31" y2="72.78"/>
  <line class="cls-2" x1="27.67" y1="79.98" x2="39.33" y2="79.98"/>
  <polyline class="cls-1" points="10.16 58.21 32.43 35.78 51.18 58.72"/>
  <polyline class="cls-1" points="68.93 57.88 53.87 40.63 44.65 49"/>
  <circle class="cls-1" cx="72.28" cy="34.6" r="4.35"/>
</svg>