<?xml version="1.0" encoding="UTF-8"?>
<svg id="Layer_1" data-name="Layer 1" xmlns="http://www.w3.org/2000/svg" viewBox="0 0 96 96">
  <g id="Working_Hour" data-name="Working Hour">
    <path d="M55.68,61.87c-.6,0-1.16-.32-1.47-.84l-6.96-11.91c-.48-.82-.73-1.76-.73-2.71v-17.97c0-.94.76-1.7,1.7-1.7s1.7.76,1.7,1.7v17.97c0,.35.09.69.27.99l6.96,11.92c.47.81.2,1.85-.61,2.32-.26.15-.55.23-.85.23h0Z" fill="#fff"/>
    <path d="M76.67,63.63c5.78-10.05,5.78-22.42,0-32.47-.02-.05-.03-.11-.05-.16-.04-.06-.09-.11-.14-.16-2.84-4.83-6.87-8.86-11.7-11.7-.08-.11-.19-.18-.32-.2-10.05-5.78-22.42-5.78-32.46,0-.13.02-.25.09-.32.2-4.83,2.84-8.86,6.87-11.7,11.7-.05.05-.1.1-.14.16-.02.05-.04.1-.05.16-5.79,10.05-5.79,22.42,0,32.47.01.05.03.11.05.16.06.09.13.18.2.26,2.84,4.79,6.84,8.78,11.64,11.6.05.05.1.1.16.14.07.04.15.07.22.09,10.02,5.73,22.32,5.73,32.34,0,.08-.03.15-.06.22-.09.06-.04.11-.09.16-.14,4.79-2.82,8.8-6.81,11.64-11.6.08-.08.15-.17.2-.26.02-.05.04-.11.05-.16h0ZM64.35,71.94l-1.87-3.23c-.47-.81-1.51-1.09-2.32-.62s-1.09,1.51-.62,2.32h0l1.86,3.22c-3.58,1.8-7.49,2.85-11.48,3.07v-3.72c0-.94-.76-1.7-1.7-1.7s-1.7.76-1.7,1.7v3.72c-4-.22-7.91-1.27-11.48-3.07l1.86-3.22c.47-.81.19-1.85-.62-2.32-.81-.47-1.85-.19-2.32.62,0,0,0,0,0,0l-1.87,3.23c-3.34-2.21-6.2-5.07-8.41-8.41l3.23-1.87c.81-.47,1.09-1.51.62-2.32s-1.51-1.09-2.32-.62l-3.22,1.86c-1.8-3.58-2.85-7.49-3.07-11.48h3.72c.94,0,1.7-.76,1.7-1.7s-.76-1.7-1.7-1.7h-3.72c.22-4,1.27-7.91,3.07-11.48l3.22,1.86c.81.47,1.85.19,2.32-.62.47-.81.19-1.85-.62-2.32l-3.23-1.87c2.21-3.34,5.07-6.2,8.41-8.41l1.87,3.23c.47.81,1.51,1.09,2.32.62s1.09-1.51.62-2.32c0,0,0,0,0,0l-1.86-3.22c3.58-1.8,7.49-2.85,11.48-3.07v3.72c0,.94.76,1.7,1.7,1.7.94,0,1.7-.76,1.7-1.7v-3.72c4,.22,7.91,1.27,11.48,3.07l-1.86,3.22c-.47.81-.19,1.85.62,2.32s1.85.19,2.32-.62l1.87-3.23c3.34,2.21,6.2,5.07,8.41,8.41l-3.23,1.87c-.81.47-1.09,1.51-.62,2.32.47.81,1.51,1.09,2.32.62l3.22-1.86c1.8,3.58,2.85,7.49,3.07,11.48h-3.72c-.94,0-1.7.76-1.7,1.7,0,.94.76,1.7,1.7,1.7h3.72c-.22,4-1.27,7.91-3.07,11.48l-3.22-1.86c-.81-.47-1.85-.19-2.32.63-.47.81-.19,1.85.62,2.32l3.23,1.87c-2.21,3.34-5.07,6.2-8.41,8.41h0Z" fill="#fff"/>
    <path d="M91.92,75.49l-6.4,1.66c16.09-20.72,12.35-50.56-8.37-66.65C56.42-5.6,26.58-1.86,10.49,18.86-5.61,39.58-1.86,69.42,18.86,85.52c8.16,6.34,18.16,9.84,28.49,9.98h.02c.94,0,1.7-.75,1.71-1.69,0-.94-.75-1.7-1.69-1.71-24.4-.31-43.93-20.35-43.61-44.75C4.09,22.95,24.13,3.42,48.53,3.73c24.4.31,43.93,20.35,43.61,44.75-.12,9.63-3.39,18.95-9.3,26.55l.52-6.67c.07-.94-.63-1.75-1.56-1.83s-1.75.63-1.83,1.56l-.82,10.53c-.11,1.48,1,2.77,2.48,2.88.29.02.59,0,.87-.08l10.26-2.65c.91-.23,1.45-1.16,1.22-2.07s-1.16-1.45-2.07-1.22h0Z" fill="#fff"/>
  </g>
</svg>