<?xml version="1.0" encoding="UTF-8"?>
<svg id="Layer_1" data-name="Layer 1" xmlns="http://www.w3.org/2000/svg" viewBox="0 0 96 96">
  <path d="M47.98,35.34c9.61,0,17.42-7.81,17.42-17.42S57.59.51,47.98.51s-17.42,7.81-17.42,17.42,7.81,17.42,17.42,17.42ZM47.98,3.67c7.85,0,14.25,6.4,14.25,14.25s-6.4,14.25-14.25,14.25-14.25-6.4-14.25-14.25,6.4-14.25,14.25-14.25Z" fill="#fff"/>
  <path d="M44.49,24.59c.3.3.7.46,1.12.46h.06c.44-.02.85-.22,1.14-.55l9.5-11.08c.57-.66.49-1.66-.17-2.23s-1.66-.49-2.23.17l-8.39,9.78-3.55-3.55c-.62-.62-1.61-.62-2.23,0s-.62,1.61,0,2.23l4.75,4.75v.02Z" fill="#fff"/>
  <path d="M94.1,58.91c-.89-.92-2.09-1.41-3.37-1.41h-8.87l10.62-10.7c3.97-4.05,3.97-10.67,0-14.72-1.93-1.98-4.51-3.07-7.25-3.07s-5.26,1.06-7.17,2.99c-1.93-1.93-4.46-2.99-7.17-2.99s-5.32,1.09-7.25,3.07c-3.97,4.05-3.97,10.67,0,14.72l10.62,10.7h-19.98c-1.44-1.92-3.72-3.17-6.29-3.17s-4.84,1.25-6.29,3.17h-3.21v-17.42c0-2.61-2.14-4.75-4.75-4.75h-4.75v-3.17c0-1.74-1.42-3.17-3.17-3.17h-9.5c-1.74,0-3.17,1.42-3.17,3.17v3.17h-4.75c-2.61,0-4.75,2.14-4.75,4.75v17.7c-1.84.65-3.17,2.39-3.17,4.46,0,2.61,2.14,4.75,4.75,4.75h36.44l-5.94,19h-2.01c-2.61,0-4.75,2.14-4.75,4.75s2.14,4.75,4.75,4.75h28.5c2.61,0,4.75-2.14,4.75-4.75s-2.14-4.75-4.75-4.75h-2.01l-5.94-19h36.44c2.61,0,4.75-2.14,4.75-4.75,0-1.28-.51-2.49-1.38-3.34h-.02ZM65.91,34.28c1.33-1.36,3.1-2.12,4.99-2.12s3.66.74,4.99,2.12c.32.32.6.68.87,1.08.59.89,2.06.89,2.64,0,.27-.4.55-.76.87-1.08,1.33-1.36,3.1-2.12,4.99-2.12s3.66.74,4.99,2.12c2.77,2.83,2.77,7.46,0,10.29l-12.17,12.27-12.16-12.25c-2.77-2.83-2.77-7.46,0-10.29v-.02ZM47.98,57.49c2.61,0,4.75,2.14,4.75,4.75s-2.14,4.75-4.75,4.75-4.75-2.14-4.75-4.75,2.14-4.75,4.75-4.75ZM6.82,45.58l13.66,5.46c.19.08.4.11.59.11s.4-.03.59-.11l13.66-5.46v11.91H6.82v-11.91ZM16.32,32.15h9.5v3.17h-9.5v-3.17ZM6.82,40.07c0-.87.71-1.58,1.58-1.58h25.33c.87,0,1.58.71,1.58,1.58v2.09l-14.25,5.7-14.25-5.7v-2.09ZM3.66,62.24c0-.87.71-1.58,1.58-1.58h34.99c-.11.51-.16,1.04-.16,1.58s.06,1.08.16,1.58H5.24c-.87,0-1.58-.71-1.58-1.58ZM63.82,90.73c0,.87-.71,1.58-1.58,1.58h-28.5c-.87,0-1.58-.71-1.58-1.58s.71-1.58,1.58-1.58h28.5c.87,0,1.58.71,1.58,1.58ZM39.06,85.98l5.24-16.78c1.11.59,2.34.95,3.69.95s2.58-.36,3.69-.95l5.24,16.78h-17.86ZM90.73,63.82h-34.99c.11-.51.16-1.04.16-1.58s-.06-1.08-.16-1.58h34.99c.43,0,.81.16,1.12.49.28.28.46.68.46,1.09,0,.87-.71,1.58-1.58,1.58Z" fill="#fff"/>
</svg>