<?xml version="1.0" encoding="UTF-8"?>
<svg id="Layer_1" data-name="Layer 1" xmlns="http://www.w3.org/2000/svg" viewBox="0 0 96 96">
  <defs>
    <style>
      .cls-1 {
        fill: #fff;
      }
    </style>
  </defs>
  <polygon class="cls-1" points="19.51 46.65 6.09 38.55 3.61 30.72 6.47 29.82 8.61 36.57 16.42 41.28 16.36 37.93 13.37 35.38 13.37 29.27 26.38 26.55 32.94 21.64 36.87 14.78 42.17 12.15 42.65 10.91 34.76 9.05 29.35 6.45 30.65 3.74 35.91 6.27 46.69 8.77 44.55 14.32 39.02 17.06 35.23 23.67 27.65 29.35 16.37 31.71 16.37 34 19.34 36.53 19.51 46.65"/>
  <path class="cls-1" d="M35.41,87l-6.88-1.41-5.19-10.73.68-14.03-6.24-1.41-4.53-7.42v-5.36l10.64-10.11,3.21,7.44,9.2-.32,5.43,8.2h7.35l-1.64,10.5-5.72,5.7-.46,5.7-6.1,4.03.25,9.23ZM30.58,82.95l1.73.35-.19-7.11,6.27-4.14.43-5.34,5.81-5.79.95-6.07h-5.46l-5.39-8.14-9.57.34-2.32-5.37-6.59,6.26v3.23l3.43,5.61,7.46,1.68-.77,15.78,4.21,8.71Z"/>
  <polygon class="cls-1" points="56.9 18.59 50.75 16.61 54.87 7.46 59.35 7.46 59.35 10.46 56.81 10.46 54.87 14.79 56.98 15.47 58.96 14.93 59.74 17.83 56.9 18.59"/>
  <polygon class="cls-1" points="85.21 75.55 78.97 70.68 79.91 63.47 73.01 50.76 72.9 44.65 70.02 42.09 64.62 43.55 51.42 37 50.05 26.38 56.47 20.49 59.35 20.49 59.35 23.49 57.63 23.49 53.23 27.54 54.19 35.02 64.94 40.35 70.8 38.77 75.88 43.29 75.99 49.98 83.01 62.89 82.17 69.37 87.05 73.19 85.21 75.55"/>
  <path class="cls-1" d="M48,96C21.53,96,0,74.47,0,48S21.53,0,48,0C51.99,0,55.93.49,59.72,1.45l-.74,2.91c-3.54-.9-7.24-1.35-10.98-1.35C23.19,3,3,23.19,3,48s20.19,45,45,45,45-20.19,45-45c0-3.28-.36-6.56-1.06-9.74l2.93-.65c.75,3.39,1.14,6.88,1.14,10.39,0,26.47-21.53,48-48,48Z"/>
  <rect class="cls-1" x="78.63" y="3.48" width="3" height="28.75"/>
  <rect class="cls-1" x="65.75" y="16.35" width="28.75" height="3"/>
</svg>