<?xml version="1.0" encoding="UTF-8"?>
<svg id="Layer_1" data-name="Layer 1" xmlns="http://www.w3.org/2000/svg" viewBox="0 0 96 96">
  <defs>
    <style>
      .cls-1 {
        fill: #fff;
      }
    </style>
  </defs>
  <polygon class="cls-1" points="19.5 46.65 6.09 38.55 3.61 30.73 6.47 29.82 8.61 36.57 16.42 41.28 16.36 37.93 13.37 35.38 13.37 29.28 26.38 26.56 32.93 21.64 36.87 14.78 42.17 12.15 42.65 10.92 34.76 9.05 29.35 6.45 30.65 3.75 35.91 6.27 46.69 8.77 44.55 14.32 39.02 17.06 35.23 23.67 27.65 29.36 16.37 31.71 16.37 34 19.34 36.53 19.5 46.65"/>
  <path class="cls-1" d="M35.41,87l-6.88-1.41-5.19-10.73.68-14.03-6.24-1.41-4.53-7.42v-5.36l10.64-10.11,3.21,7.44,9.2-.32,5.43,8.2h7.35l-1.64,10.5-5.72,5.7-.46,5.7-6.1,4.03.25,9.23ZM30.58,82.95l1.73.35-.19-7.11,6.27-4.14.43-5.34,5.81-5.79.95-6.07h-5.46l-5.39-8.14-9.57.34-2.32-5.37-6.59,6.26v3.23l3.43,5.61,7.46,1.68-.77,15.78,4.21,8.71Z"/>
  <polygon class="cls-1" points="76.28 20.37 66.31 18.46 63.37 16.86 56.9 18.59 50.76 16.61 54.86 7.46 61.31 7.46 66.94 4.44 68.36 7.08 62.06 10.46 56.81 10.46 54.86 14.78 56.98 15.46 63.76 13.65 67.33 15.6 75.59 17.18 79.7 14.25 81.44 16.7 76.28 20.37"/>
  <polygon class="cls-1" points="85.2 75.55 78.97 70.68 79.9 63.47 73 50.77 72.9 44.65 70.02 42.09 64.62 43.55 51.42 37 50.05 26.38 56.47 20.49 65.14 20.49 69.89 24.79 77.8 26.29 86.58 23.12 87.6 25.94 78.05 29.4 68.5 27.58 63.98 23.49 57.63 23.49 53.23 27.54 54.19 35.03 64.94 40.36 70.8 38.77 75.88 43.28 75.99 49.98 83 62.89 82.17 69.37 87.05 73.19 85.2 75.55"/>
  <path class="cls-1" d="M48,96C21.53,96,0,74.47,0,48S21.53,0,48,0s48,21.53,48,48-21.53,48-48,48ZM48,3C23.19,3,3,23.19,3,48s20.19,45,45,45,45-20.19,45-45S72.81,3,48,3Z"/>
</svg>