<?xml version="1.0" encoding="UTF-8"?>
<svg id="Layer_1" data-name="Layer 1" xmlns="http://www.w3.org/2000/svg" viewBox="0 0 96 96">
  <g id="Layer_9_copy" data-name="Layer 9 copy">
    <path d="M20.81,91.07c.8,2.63,3.22,4.42,5.96,4.43.61,0,1.21-.09,1.79-.26l40.52-12.2,7.29-.95c3.41-.44,5.81-3.56,5.37-6.96,0,0,0,0,0-.01l-3.85-29.35,12.11-18.57,2.99-4.51,1.43-2.24c2.09-3.2,1.19-7.5-2.01-9.59-3.2-2.09-7.5-1.19-9.59,2.01h0l-1.47,2.26-2.95,4.5-3.3,5.05-2.46-18.77c-.45-3.41-3.57-5.8-6.97-5.36,0,0,0,0,0,0L22.63,6.21c-3.25.42-5.61,3.3-5.39,6.57l-12.37,3.72c-3.29.99-5.15,4.45-4.16,7.74l20.11,66.83ZM83.09,18.08l3.23,2.11,3.22,2.11-1.27,1.94-6.45-4.21,1.27-1.94ZM85.4,14.53c1.17-1.78,3.56-2.29,5.34-1.12,1.78,1.17,2.29,3.56,1.12,5.34l-.63.97-6.41-4.22.58-.97ZM80.14,22.59l3.23,2.11,3.22,2.11-19.69,30.15-3.23-2.11-3.22-2.11,19.69-30.15ZM56.62,63.82l.61-1.96c1.03.27,1.94.86,2.6,1.7l-1.55,1.35c-.42.38-1.06.35-1.44-.07-.25-.27-.33-.66-.21-1.02h0ZM62.14,61.54c-1.03-1.27-2.43-2.19-4.01-2.62l1.02-3.34,5.61,3.67-2.63,2.29ZM20.94,10.45c.51-.66,1.27-1.1,2.1-1.21l43.03-5.65c.14-.01.28-.01.42,0,1.56.03,2.86,1.2,3.07,2.74l2.99,22.28-7.83,11.98-15.4,2.05c-.85.05-1.49.78-1.44,1.63.05.85.78,1.49,1.63,1.44h.2l12.79-1.75-5.45,8.36s0,.07,0,.1c-.04.06-.07.13-.09.2h0l-.95,3.07-21.8,2.94c-.85.06-1.49.79-1.43,1.64.06.85.79,1.49,1.64,1.43h.19l20.32-2.66-1.21,3.91c-.54,1.74.14,3.63,1.67,4.63.66.44,1.44.67,2.24.67.99,0,1.94-.37,2.68-1.02l8.06-6.97.08-.09c.06-.06.12-.12.16-.19l6.67-10.23,3.41,25.77c.11.83-.11,1.67-.62,2.33-.49.66-1.23,1.09-2.05,1.2l-43.08,5.66c-1.73.22-3.3-.99-3.53-2.72,0,0,0,0,0,0L20.31,12.78c-.11-.83.12-1.67.62-2.33h0ZM5.76,19.42l11.86-3.57,8.73,66.53c.41,3.08,3.03,5.39,6.14,5.41.27,0,.55-.02.82-.06l16.85-2.21-22.5,6.77c-1.66.5-3.4-.44-3.91-2.1L3.64,23.36c-.5-1.67.44-3.43,2.12-3.94,0,0,0,0,0,0ZM36.69,17.79c-.11-.84.48-1.61,1.32-1.72l24.54-3.23c.85-.11,1.62.49,1.73,1.33s-.49,1.62-1.33,1.73l-24.54,3.22h-.19c-.77,0-1.42-.58-1.52-1.34ZM29.26,32.78c-.11-.84.49-1.61,1.33-1.72,0,0,.01,0,.02,0l33.75-4.48c.85-.11,1.62.49,1.73,1.33s-.49,1.62-1.33,1.73h0l-33.78,4.46h-.19c-.77,0-1.42-.57-1.52-1.33ZM40.73,45.3c.12.84-.46,1.62-1.3,1.74,0,0-.01,0-.02,0l-6.62.87h-.19c-.85.06-1.58-.58-1.64-1.43-.06-.85.58-1.58,1.43-1.64l6.62-.87c.84-.11,1.61.49,1.72,1.33,0,0,0,0,0,0ZM34.7,74.14c-.11-.84.48-1.61,1.32-1.72l11.77-1.54c.85-.11,1.63.48,1.74,1.33.11.85-.48,1.63-1.33,1.74l-11.79,1.51h-.19c-.76,0-1.41-.56-1.51-1.32h0Z" fill="#fff"/>
  </g>
</svg>