<?xml version="1.0" encoding="UTF-8"?>
<svg id="Capa_1" data-name="Capa 1" xmlns="http://www.w3.org/2000/svg" viewBox="0 0 96 96">
  <defs>
    <style>
      .cls-1 {
        fill: #fff;
      }
    </style>
  </defs>
  <path class="cls-1" d="M50.39,7.27c1.53.28,3.1.34,4.63.62,9.38,1.71,17.24,6.13,23.55,13.27,5.75,6.51,9.1,14.13,9.93,22.76,1.02,10.65-1.7,20.34-8.24,28.84-6.06,7.87-13.98,12.98-23.71,15.01-12.17,2.54-23.33.05-33.24-7.46-7.97-6.03-12.97-14.05-15.13-23.82-.38-1.73-.65-3.49-.76-5.26-.02-.28-.09-.56-.14-.84v-4.77c.21-.56.13-1.14.19-1.72.98-8.76,4.32-16.49,10.23-23.05,6.27-6.96,14.04-11.28,23.28-12.96,1.54-.28,3.1-.34,4.63-.62h4.77ZM48.02,10.42c-20.72-.02-37.57,16.81-37.59,37.56-.02,20.72,16.81,37.57,37.56,37.59,20.72.02,37.57-16.81,37.59-37.56.02-20.72-16.81-37.57-37.56-37.59Z"/>
  <path class="cls-1" d="M63.64,34.09c.02.47-.41.89-.82,1.3-4.01,4.01-8.01,8.03-12.04,12.02-.48.47-.46.7,0,1.17,4.03,3.99,8.03,8.01,12.04,12.02.37.37.76.74.8,1.32.05.65-.19,1.14-.73,1.48-.55.33-1.11.32-1.64-.04-.26-.18-.49-.41-.71-.63-3.98-3.97-7.96-7.93-11.91-11.92-.47-.47-.71-.55-1.22-.03-3.95,4-7.93,7.96-11.91,11.93-.24.24-.49.49-.78.68-.59.39-1.4.29-1.9-.2-.5-.49-.61-1.3-.22-1.89.19-.28.43-.53.67-.78,3.99-3.99,7.97-7.99,11.98-11.97.45-.44.43-.67,0-1.11-4.01-3.97-7.99-7.97-11.98-11.97-1.03-1.03-1.18-1.95-.44-2.67.73-.72,1.63-.56,2.67.48,3.95,3.95,7.92,7.9,11.85,11.87.49.49.74.57,1.28.03,3.97-4.02,7.97-7.99,11.96-11.98.39-.39.78-.79,1.4-.82.91-.04,1.65.65,1.64,1.72Z"/>
</svg>