<?xml version="1.0" encoding="UTF-8"?>
<svg id="Layer_1" data-name="Layer 1" xmlns="http://www.w3.org/2000/svg" viewBox="0 0 96 96">
  <defs>
    <style>
      .cls-1 {
        stroke-miterlimit: 10;
      }

      .cls-1, .cls-2 {
        fill: none;
        stroke: #033778;
        stroke-width: 3px;
      }

      .cls-2 {
        stroke-linejoin: round;
      }
    </style>
  </defs>
  <rect class="cls-1" x="37.63" y="1.5" width="19.73" height="26.81" rx="9.86" ry="9.86"/>
  <path class="cls-2" d="M43.29,27.41v4.19c0,.16,0,.32.03.47.11.98.56,1.86,1.21,2.52.77.76,1.83,1.24,3,1.24,2.17,0,3.96-1.64,4.2-3.75.03-.16.03-.32.03-.49v-4.22"/>
  <line class="cls-2" x1="37.97" y1="54.06" x2="37.97" y2="41.54"/>
  <path class="cls-2" d="M51.7,32.07l8.54,2.79c3.91,1.29,6.57,4.94,6.57,9.06v9.94h-19.32.03s-19.32,0-19.32,0v-9.94c0-4.12,2.65-7.77,6.57-9.06l8.54-2.79c.11.98.56,1.86,1.22,2.52.77.76,1.83,1.24,2.99,1.24,2.18,0,3.96-1.63,4.21-3.75"/>
  <line class="cls-2" x1="57.05" y1="54.06" x2="57.05" y2="41.54"/>
  <rect class="cls-1" x="9.49" y="54.99" width="14.83" height="20.15" rx="7.41" ry="7.41"/>
  <path class="cls-2" d="M13.75,74.47v3.15c0,.12,0,.24.02.36.08.74.42,1.4.91,1.9.58.57,1.37.93,2.25.93,1.63,0,2.98-1.23,3.16-2.82.02-.12.02-.24.02-.37v-3.17"/>
  <line class="cls-2" x1="9.75" y1="94.5" x2="9.75" y2="85.09"/>
  <path class="cls-2" d="M20.07,77.97l6.42,2.1c2.94.97,4.94,3.71,4.94,6.81v7.47h-14.52.02s-14.52,0-14.52,0v-7.47c0-3.1,1.99-5.84,4.94-6.81l6.42-2.1c.08.74.42,1.4.92,1.9.58.57,1.37.93,2.25.93,1.64,0,2.98-1.23,3.16-2.82"/>
  <line class="cls-2" x1="24.09" y1="94.5" x2="24.09" y2="85.09"/>
  <rect class="cls-1" x="71.66" y="54.99" width="14.83" height="20.15" rx="7.41" ry="7.41"/>
  <path class="cls-2" d="M75.91,74.47v3.15c0,.12,0,.24.02.36.08.74.42,1.4.91,1.9.58.57,1.37.93,2.25.93,1.63,0,2.98-1.23,3.16-2.82.02-.12.02-.24.02-.37v-3.17"/>
  <line class="cls-2" x1="71.91" y1="94.5" x2="71.91" y2="85.09"/>
  <path class="cls-2" d="M82.24,77.97l6.42,2.1c2.94.97,4.94,3.71,4.94,6.81v7.47h-14.52.02s-14.52,0-14.52,0v-7.47c0-3.1,1.99-5.84,4.94-6.81l6.42-2.1c.08.74.42,1.4.92,1.9.58.57,1.37.93,2.25.93,1.64,0,2.98-1.23,3.16-2.82"/>
  <line class="cls-2" x1="86.25" y1="94.5" x2="86.25" y2="85.09"/>
  <line class="cls-1" x1="43.29" y1="60.95" x2="31.43" y2="73.96"/>
  <line class="cls-1" x1="52.71" y1="60.95" x2="64.57" y2="73.96"/>
</svg>