<?xml version="1.0" encoding="UTF-8"?>
<svg id="Layer_1" data-name="Layer 1" xmlns="http://www.w3.org/2000/svg" viewBox="0 0 96 96">
  <path d="M12.03,70.01c.72-.57,1.44-1.13,2.16-1.68l.35-.27c-6.24-5.06-11.44-10.53-11.44-20.06,0-11.24,7.23-16.84,14.88-22.77C25.89,19.1,34.06,12.76,34.06,0h-3.1c0,11.24-7.23,16.84-14.88,22.77C8.18,28.9,0,35.24,0,48c0,10.57,5.61,16.72,12.03,22.01Z" fill="#033778"/>
  <path d="M22.03,73.99c-.72.57-1.44,1.13-2.16,1.68l-.35.27c6.24,5.06,11.44,10.53,11.44,20.06h3.1c0-10.57-5.61-16.72-12.03-22.01Z" fill="#033778"/>
  <path d="M12.03,22.01c.72-.57,1.44-1.13,2.16-1.68l.35-.27c-2.87-2.2-5.42-4.78-7.58-7.67h16.23c.84-.96,1.59-2,2.24-3.1H5.12C3.74,6.39,3.05,3.21,3.1,0H0c0,10.57,5.61,16.72,12.03,22.01Z" fill="#033778"/>
  <path d="M60.39,30.97H27.35c-1.65-1.79-3.43-3.45-5.32-4.98-.72.57-1.44,1.13-2.16,1.68l-.35.27c1.35,1.08,2.61,2.22,3.82,3.39-1.02.53-1.66,1.58-1.67,2.73v1.55h-10.79c-.84.96-1.59,2-2.24,3.1h13.04v7.74H6.26c-.04.5-.06,1.02-.06,1.55s.02,1.05.06,1.55h15.43v7.74h-13.06c.66,1.1,1.41,2.13,2.25,3.1h10.81v1.55c0,1.16.65,2.21,1.68,2.74-2.31,2.16-4.74,4.2-7.28,6.1-7.91,6.13-16.08,12.47-16.08,25.22h3.1c-.04-3.21.65-6.39,2.03-9.29h20.33c-.66-1.1-1.41-2.13-2.25-3.1H6.95c2.82-4.01,6.86-7.15,11.03-10.39,3.34-2.46,6.45-5.2,9.31-8.19h33.09c1.71,0,3.1-1.39,3.1-3.1v-27.87c0-1.71-1.39-3.1-3.1-3.1ZM24.77,61.94v-27.87h35.61v27.87H24.77Z" fill="#033778"/>
  <path d="M37.16,38.71h-3.1c-.7,0-1.32.47-1.5,1.15l-4.59,17.43h3.2l1.63-6.19h5.6l1.63,6.19h3.2l-4.59-17.43c-.18-.68-.79-1.15-1.5-1.15ZM33.63,48l1.63-6.19h.71l1.63,6.19h-3.97Z" fill="#033778"/>
  <polygon points="46.45 41.81 50.32 41.81 50.32 54.19 46.45 54.19 46.45 57.29 57.29 57.29 57.29 54.19 53.42 54.19 53.42 41.81 57.29 41.81 57.29 38.71 46.45 38.71 46.45 41.81" fill="#033778"/>
  <path d="M49.55,26.32v-11.86c2.87-.86,4.5-3.87,3.64-6.74s-3.87-4.5-6.74-3.64c-2.87.86-4.5,3.87-3.64,6.74.52,1.75,1.89,3.12,3.64,3.64v11.86h3.1ZM45.68,9.29c0-1.28,1.04-2.32,2.32-2.32s2.32,1.04,2.32,2.32-1.04,2.32-2.32,2.32-2.32-1.04-2.32-2.32Z" fill="#033778"/>
  <path d="M79.22,20.13h-6.45c-.41,0-.8.16-1.09.45l-6.19,6.19,2.19,2.19,5.74-5.74h5.8c.86,2.87,3.87,4.5,6.74,3.64,2.87-.86,4.5-3.87,3.64-6.74-.86-2.87-3.87-4.5-6.74-3.64-1.75.52-3.12,1.89-3.64,3.64h0ZM86.71,21.68c0,1.28-1.04,2.32-2.32,2.32s-2.32-1.04-2.32-2.32,1.04-2.32,2.32-2.32,2.32,1.04,2.32,2.32Z" fill="#033778"/>
  <path d="M49.55,81.54v-11.86h-3.1v11.86c-2.87.86-4.5,3.87-3.64,6.74.86,2.87,3.87,4.5,6.74,3.64,2.87-.86,4.5-3.87,3.64-6.74-.52-1.75-1.89-3.12-3.64-3.64h0ZM48,89.03c-1.28,0-2.32-1.04-2.32-2.32s1.04-2.32,2.32-2.32,2.32,1.04,2.32,2.32-1.04,2.32-2.32,2.32Z" fill="#033778"/>
  <path d="M84.38,68.9c-2.39,0-4.49,1.58-5.17,3.87h-5.8l-5.74-5.74-2.19,2.19,6.19,6.19c.29.29.68.45,1.09.45h6.45c.86,2.86,3.88,4.48,6.74,3.62,2.86-.86,4.48-3.88,3.62-6.74-.69-2.29-2.8-3.85-5.19-3.85ZM84.38,76.64c-1.28,0-2.32-1.04-2.32-2.32s1.04-2.32,2.32-2.32,2.32,1.04,2.32,2.32-1.04,2.32-2.32,2.32Z" fill="#033778"/>
  <path d="M90.58,42.58c-2.39,0-4.49,1.58-5.17,3.87h-17.28v3.1h17.28c.86,2.86,3.88,4.48,6.74,3.62,2.86-.86,4.48-3.88,3.62-6.74-.69-2.29-2.8-3.85-5.19-3.85ZM90.58,50.32c-1.28,0-2.32-1.04-2.32-2.32s1.04-2.32,2.32-2.32,2.32,1.04,2.32,2.32-1.04,2.32-2.32,2.32Z" fill="#033778"/>
</svg>