<?xml version="1.0" encoding="UTF-8"?>
<svg id="Layer_1" data-name="Layer 1" xmlns="http://www.w3.org/2000/svg" viewBox="0 0 96 96">
  <defs>
    <style>
      .cls-1, .cls-2 {
        stroke: #033778;
      }

      .cls-1, .cls-2, .cls-3, .cls-4 {
        fill: none;
        stroke-width: 3px;
      }

      .cls-1, .cls-3 {
        stroke-miterlimit: 10;
      }

      .cls-2, .cls-4 {
        stroke-linejoin: round;
      }

      .cls-3, .cls-4 {
        stroke: #223c75;
      }

      .cls-4 {
        stroke-linecap: round;
      }
    </style>
  </defs>
  <rect class="cls-1" x="17.92" y="1.78" width="30.8" height="41.85" rx="14.17" ry="14.17"/>
  <path class="cls-2" d="M17.92,18.72c6.41-.44,15.58-1.95,20.98-5.59,2.3,1.72,6.36,4.35,9.82,5.15"/>
  <path class="cls-2" d="M26.76,42.23v6.54c0,.25,0,.49.04.74.17,1.53.87,2.9,1.89,3.94,1.2,1.19,2.85,1.93,4.68,1.93,3.39,0,6.19-2.56,6.56-5.85.04-.25.05-.5.05-.76v-6.58"/>
  <path class="cls-2" d="M49.37,83.53H3.2v-15.52c0-6.43,4.14-12.13,10.25-14.14l13.34-4.36c.17,1.53.87,2.9,1.9,3.94,1.2,1.19,2.85,1.93,4.67,1.93,3.4,0,6.19-2.55,6.57-5.85l7.52,2.49"/>
  <line class="cls-2" x1="16.42" y1="83.83" x2="16.42" y2="64.3"/>
  <rect class="cls-3" x="57.75" y="14.41" width="33.04" height="22.05" rx="5.8" ry="5.8"/>
  <rect class="cls-3" x="57.75" y="43.46" width="33.04" height="22.05" rx="5.8" ry="5.8"/>
  <rect class="cls-3" x="57.75" y="72.51" width="33.04" height="22.05" rx="5.8" ry="5.8"/>
  <line class="cls-3" x1="74.27" y1="35.2" x2="74.27" y2="42.19"/>
  <line class="cls-3" x1="74.27" y1="65.51" x2="74.27" y2="71.59"/>
  <circle class="cls-3" cx="74.27" cy="54.76" r="6.36"/>
  <line class="cls-3" x1="74.27" y1="48.79" x2="74.27" y2="60.23"/>
  <line class="cls-3" x1="64.93" y1="54.76" x2="83.6" y2="54.76"/>
  <line class="cls-3" x1="64.55" y1="83.81" x2="67.57" y2="83.81"/>
  <line class="cls-3" x1="64.55" y1="83.81" x2="67.57" y2="83.81"/>
  <line class="cls-3" x1="72.55" y1="83.81" x2="75.57" y2="83.81"/>
  <line class="cls-3" x1="80.63" y1="83.81" x2="83.64" y2="83.81"/>
  <polyline class="cls-4" points="80.43 14.41 80.43 9.79 67.37 9.79 67.37 14.41"/>
  <polyline class="cls-3" points="57.99 21.68 73.98 24.45 90.39 20.85"/>
  <polyline class="cls-3" points="70.63 23.36 70.63 28.89 77.25 28.89 77.25 23.89"/>
</svg>