<?xml version="1.0" encoding="UTF-8"?>
<svg id="Layer_1" data-name="Layer 1" xmlns="http://www.w3.org/2000/svg" viewBox="0 0 96 96">
  <defs>
    <style>
      .cls-1 {
        fill: #033778;
      }
    </style>
  </defs>
  <path class="cls-1" d="M56.55,13.87c-1.79-3.09-4.98-4.94-8.55-4.94s-6.77,1.85-8.55,4.94L5.74,72.26c-1.78,3.09-1.78,6.78,0,9.87,1.78,3.09,4.98,4.94,8.55,4.94h67.43c3.57,0,6.76-1.84,8.55-4.94,1.78-3.09,1.78-6.78,0-9.87L56.55,13.87ZM86.65,80.05c-1.03,1.79-2.88,2.85-4.94,2.85H14.29c-2.06,0-3.91-1.07-4.94-2.85-1.03-1.79-1.03-3.92,0-5.7L43.06,15.95c1.03-1.79,2.88-2.85,4.94-2.85s3.91,1.07,4.94,2.85l33.71,58.4c1.03,1.79,1.03,3.92,0,5.7Z"/>
  <rect class="cls-1" x="45.92" y="34.72" width="4.17" height="24.84"/>
  <circle class="cls-1" cx="48" cy="68.67" r="2.95"/>
</svg>