<?xml version="1.0" encoding="UTF-8"?>
<svg id="Layer_1" data-name="Layer 1" xmlns="http://www.w3.org/2000/svg" viewBox="0 0 96 96">
  <path d="M59.19,80.94h-2.3v-7.66h2.3v-3.06h-7.66v3.06h2.3v7.66h-2.3v3.06h7.66v-3.06Z" fill="#033778"/>
  <path d="M39.96,84.01l.67-3.06h4.01l.67,3.06h3.14l-2.8-12.6c-.15-.7-.78-1.2-1.5-1.2h-3.06c-.72,0-1.33.51-1.5,1.2l-2.8,12.6h3.17ZM42.35,73.28h.61l1.03,4.6h-2.65l1.03-4.6h-.02Z" fill="#033778"/>
  <path d="M48,95.5c10.14,0,18.39-8.24,18.39-18.39s-8.24-18.39-18.39-18.39-18.39,8.24-18.39,18.39,8.24,18.39,18.39,18.39ZM48,61.79c8.44,0,15.32,6.88,15.32,15.32s-6.88,15.32-15.32,15.32-15.32-6.88-15.32-15.32,6.88-15.32,15.32-15.32Z" fill="#033778"/>
  <path d="M69.45,75.58h26.05v3.06h-26.05v-3.06Z" fill="#033778"/>
  <path d="M.5,75.58h26.05v3.06H.5v-3.06Z" fill="#033778"/>
  <path d="M17.35,72.52v-33.71c0-.84-.69-1.53-1.53-1.53H6.63c-.84,0-1.53.69-1.53,1.53v33.71h3.06v-32.18h6.13v32.18h3.06Z" fill="#033778"/>
  <path d="M41.87,55.66v-30.65c0-.84-.69-1.53-1.53-1.53h-9.19c-.84,0-1.53.69-1.53,1.53v35.24h3.06V26.55h6.13v29.11h3.06Z" fill="#033778"/>
  <path d="M64.85,32.68h-9.19c-.84,0-1.53.69-1.53,1.53v22.98h3.06v-21.45h6.13v24.52h3.06v-26.05c0-.84-.69-1.53-1.53-1.53Z" fill="#033778"/>
  <path d="M90.9,72.52V17.35c0-.84-.69-1.53-1.53-1.53h-9.19c-.84,0-1.53.69-1.53,1.53v55.16h3.06V18.89h6.13v53.63h3.06Z" fill="#033778"/>
  <path d="M60.26,17.35c-1.41,0-2.65.64-3.49,1.65l-16.43-6.16v-.08c0-2.53-2.07-4.6-4.6-4.6s-4.6,2.07-4.6,4.6c0,.28.03.52.08.78l-16.99,9.56c-.81-.7-1.85-1.15-3-1.15-2.53,0-4.6,2.07-4.6,4.6s2.07,4.6,4.6,4.6,4.6-2.07,4.6-4.6c0-.28-.03-.52-.08-.78l16.99-9.56c.81.7,1.85,1.15,3,1.15,1.41,0,2.65-.64,3.49-1.65l16.43,6.16v.08c0,2.53,2.07,4.6,4.6,4.6s4.6-2.07,4.6-4.6c0-.41-.08-.8-.17-1.18l17.39-11.97c.77.55,1.69.89,2.7.89,2.53,0,4.6-2.07,4.6-4.6s-2.07-4.6-4.6-4.6-4.6,2.07-4.6,4.6c0,.41.08.8.17,1.18l-17.39,11.97c-.77-.55-1.69-.89-2.7-.89ZM11.23,28.08c-.84,0-1.53-.69-1.53-1.53s.69-1.53,1.53-1.53,1.53.69,1.53,1.53-.69,1.53-1.53,1.53ZM35.74,14.29c-.84,0-1.53-.69-1.53-1.53s.69-1.53,1.53-1.53,1.53.69,1.53,1.53-.69,1.53-1.53,1.53ZM60.26,23.48c-.84,0-1.53-.69-1.53-1.53s.69-1.53,1.53-1.53,1.53.69,1.53,1.53-.69,1.53-1.53,1.53ZM84.77,3.56c.84,0,1.53.69,1.53,1.53s-.69,1.53-1.53,1.53-1.53-.69-1.53-1.53.69-1.53,1.53-1.53Z" fill="#033778"/>
</svg>