<?xml version="1.0" encoding="UTF-8"?>
<svg id="Layer_1" data-name="Layer 1" xmlns="http://www.w3.org/2000/svg" viewBox="0 0 96 96">
  <defs>
    <style>
      .cls-1 {
        fill: #033778;
      }
    </style>
  </defs>
  <path class="cls-1" d="M14.83,68.54H5.35c-2.62,0-4.74,2.12-4.74,4.74v20.54c0,.87.71,1.58,1.58,1.58h15.8c.87,0,1.58-.71,1.58-1.58v-20.54c0-2.62-2.12-4.74-4.74-4.74ZM16.41,92.24H3.77v-18.96c0-.87.71-1.58,1.58-1.58h9.48c.87,0,1.58.71,1.58,1.58v18.96h0Z"/>
  <path class="cls-1" d="M40.1,46.43h-9.48c-2.62,0-4.74,2.12-4.74,4.74v42.65c0,.87.71,1.58,1.58,1.58h15.8c.87,0,1.58-.71,1.58-1.58v-42.65c0-2.62-2.12-4.74-4.74-4.74ZM41.68,92.24h-12.64v-41.07c0-.87.71-1.58,1.58-1.58h9.48c.87,0,1.58.71,1.58,1.58v41.07h0Z"/>
  <path class="cls-1" d="M65.38,55.91h-9.48c-2.62,0-4.74,2.12-4.74,4.74v33.17c0,.87.71,1.58,1.58,1.58h15.8c.87,0,1.58-.71,1.58-1.58v-33.17c0-2.62-2.12-4.74-4.74-4.74ZM66.96,92.24h-12.64v-31.59c0-.87.71-1.58,1.58-1.58h9.48c.87,0,1.58.71,1.58,1.58v31.59h0Z"/>
  <path class="cls-1" d="M90.65,43.27h-9.48c-2.62,0-4.74,2.12-4.74,4.74v45.81c0,.87.71,1.58,1.58,1.58h15.8c.87,0,1.58-.71,1.58-1.58v-45.81c0-2.62-2.12-4.74-4.74-4.74ZM92.23,92.24h-12.64v-44.23c0-.87.71-1.58,1.58-1.58h9.48c.87,0,1.58.71,1.58,1.58v44.23h0Z"/>
  <path class="cls-1" d="M78.84,19.54c2.89,3.26,7.64,4.12,11.49,2.09,3.86-2.03,5.83-6.43,4.78-10.66-1.05-4.23-4.84-7.2-9.2-7.2-3.16,0-6.12,1.57-7.88,4.2-1.76,2.63-2.09,5.96-.88,8.89l-9.44,5.9c-1.7-1.93-4.11-3.08-6.67-3.18s-5.06.83-6.92,2.61l-10.34-7.75c2.19-4.23.9-9.42-3.01-12.14-3.91-2.71-9.23-2.11-12.42,1.42-3.2,3.52-3.29,8.88-.21,12.5l-13.24,15.74c-4.25-2.5-9.7-1.33-12.54,2.7s-2.13,9.55,1.64,12.73c3.77,3.17,9.34,2.93,12.82-.57,3.48-3.49,3.7-9.07.51-12.82l13.24-15.74c3.64,2.16,8.27,1.63,11.33-1.29l10.34,7.75c-2.01,3.9-1.09,8.67,2.24,11.53s8.18,3.07,11.73.5c3.55-2.57,4.88-7.24,3.21-11.3l9.44-5.9ZM85.91,6.93c3.49,0,6.32,2.83,6.32,6.32,0,3.49-2.83,6.31-6.32,6.32-3.49,0-6.32-2.83-6.32-6.32s2.83-6.32,6.32-6.32ZM10.09,46.43c-3.49,0-6.32-2.83-6.32-6.32s2.83-6.32,6.32-6.32,6.32,2.83,6.32,6.32c0,3.49-2.83,6.31-6.32,6.32ZM35.36,16.41c-3.49,0-6.32-2.83-6.32-6.32s2.83-6.32,6.32-6.32,6.32,2.83,6.32,6.32c0,3.49-2.83,6.31-6.32,6.32ZM60.64,35.37c-3.49,0-6.32-2.83-6.32-6.32s2.83-6.32,6.32-6.32,6.32,2.83,6.32,6.32c0,3.49-2.83,6.31-6.32,6.32Z"/>
</svg>