<?xml version="1.0" encoding="UTF-8"?>
<svg id="Layer_1" data-name="Layer 1" xmlns="http://www.w3.org/2000/svg" viewBox="0 0 96 96">
  <defs>
    <style>
      .cls-1 {
        fill: #033778;
      }
    </style>
  </defs>
  <path class="cls-1" d="M93.82,76.86l-11.86-11.86V25.89c0-.8-.65-1.45-1.45-1.45h-.94c.93-2.41,0-5.22-2.31-6.55l-1.35-.78c-2.55-1.47-5.82-.6-7.3,1.96l-3.1,5.37h-24.11l-5.95-5.95c-.41-.41-1.03-.54-1.57-.31-.54.22-.89.75-.89,1.34v4.93h-7.13v-13.81c0-.52-.27-.99-.72-1.25-2.36-1.37-5.06-2.09-7.8-2.09-8.59,0-15.58,6.99-15.58,15.58v50.23c0,8.59,6.99,15.58,15.58,15.58h63.17c.8,0,1.45-.65,1.45-1.45v-7.92h10.84c.58,0,1.11-.35,1.34-.89s.1-1.16-.31-1.57h0ZM65.65,48.69l12.33-21.36h1.09v34.78l-13.42-13.42ZM55.28,58.75l-3.76,2.17v-4.35l3.76,2.17ZM48.82,53.36c-.13.22-.19.47-.19.72v9.35c0,.52.28.99.72,1.25.22.13.47.19.72.19s.5-.06.72-.19l8.1-4.68c.22-.13.4-.31.53-.53l.25-.43,8.73,8.73h-23.88v-23.88l6.18,6.18-1.89,3.27ZM57.65,56.78l-1.55-.89,20.25-35.07c.75.77.93,1.96.37,2.93l-19.07,33.03ZM71.12,20.52c.56-.97,1.69-1.41,2.72-1.15l-20.25,35.07-1.55-.89,19.07-33.03ZM63.85,27.34l-7.16,12.4-12.4-12.4h19.55ZM4.65,22.88c0-7,5.69-12.69,12.69-12.69,1.96,0,3.89.45,5.63,1.31v47.08c-1.79-.69-3.7-1.05-5.63-1.05-5.23,0-9.86,2.59-12.69,6.55V22.88ZM79.07,85.81H17.34c-7,0-12.69-5.69-12.69-12.69s5.69-12.69,12.69-12.69c2.23,0,4.43.59,6.35,1.7.45.26,1,.26,1.45,0,.45-.26.72-.74.72-1.25V27.34h7.13v50.55c0,.8.65,1.45,1.45,1.45h44.64v6.48ZM35.88,76.44v-4.74h1.91c.8,0,1.45-.65,1.45-1.45s-.65-1.45-1.45-1.45h-1.91v-3.53h1.91c.8,0,1.45-.65,1.45-1.45s-.65-1.45-1.45-1.45h-1.91v-3.53h1.91c.8,0,1.45-.65,1.45-1.45s-.65-1.45-1.45-1.45h-1.91v-3.53h1.91c.8,0,1.45-.65,1.45-1.45s-.65-1.45-1.45-1.45h-1.91v-3.53h1.91c.8,0,1.45-.65,1.45-1.45s-.65-1.45-1.45-1.45h-1.91v-3.53h1.91c.8,0,1.45-.65,1.45-1.45s-.65-1.45-1.45-1.45h-1.91v-3.53h1.91c.8,0,1.45-.65,1.45-1.45s-.65-1.45-1.45-1.45h-1.91v-7.26l19.32,19.32-2.99,5.17-8.1-8.1c-.41-.41-1.03-.54-1.57-.31-.54.22-.89.75-.89,1.34v28.81c0,.8.65,1.45,1.45,1.45h28.81c.58,0,1.11-.35,1.34-.89s.1-1.16-.31-1.57l-11.75-11.75,2.99-5.17,25.15,25.15h-53.43Z"/>
</svg>