<?xml version="1.0" encoding="UTF-8"?>
<svg id="Layer_1" data-name="Layer 1" xmlns="http://www.w3.org/2000/svg" viewBox="0 0 96 96">
  <defs>
    <style>
      .cls-1 {
        fill: #033778;
      }
    </style>
  </defs>
  <path class="cls-1" d="M53.98,43.54c.82,0,1.49-.67,1.49-1.49v-13.19c0-.82-.67-1.49-1.49-1.49s-1.49.67-1.49,1.49v13.19c0,.82.67,1.49,1.49,1.49Z"/>
  <path class="cls-1" d="M32.94,63.36c-2.97,0-5.38,2.41-5.38,5.38,0,2.64,1.92,4.88,4.51,5.31-.32,5.71-2.41,10.57-4.43,15.26l-.03.06c-.41.96-.82,1.9-1.21,2.85-.31.76.05,1.64.82,1.95.18.07.37.11.57.11.61,0,1.15-.36,1.38-.93.39-.95.8-1.91,1.21-2.87,2.19-5.08,4.44-10.33,4.69-16.81,1.98-.85,3.25-2.77,3.25-4.94,0-2.97-2.41-5.38-5.38-5.38ZM35.33,68.74c0,1.32-1.07,2.39-2.39,2.39s-2.39-1.07-2.39-2.39,1.07-2.39,2.39-2.39,2.39,1.07,2.39,2.39Z"/>
  <path class="cls-1" d="M62.5,74.39c2.97,0,5.38-2.41,5.38-5.38s-2.41-5.38-5.38-5.38-5.38,2.41-5.38,5.38c0,.11,0,.22.01.33-9.3,3.99-14.57,11.14-17.06,23.14-.17.81.35,1.6,1.16,1.77.1.02.2.03.3.03.7,0,1.32-.5,1.46-1.19,2.25-10.87,6.93-17.33,15.14-20.93,1.01,1.4,2.63,2.23,4.36,2.23ZM60.1,69.01c0-1.32,1.07-2.39,2.39-2.39s2.39,1.07,2.39,2.39-1.07,2.39-2.39,2.39-2.39-1.07-2.39-2.39Z"/>
  <path class="cls-1" d="M85.19,52.73s-.05-.06-.08-.09c-1.98-2.15-3.57-4.36-4.72-6.56-.98-1.88-1.33-3.74-1.12-5.84.12-1.17.18-2.36.18-3.53C79.44,17.42,63.75,1.72,44.46,1.72S9.49,17.42,9.49,36.7c0,8.27,2.94,16.3,8.29,22.6,1.4,1.66,2.17,3.43,2.41,5.59.86,7.85-1.27,17.27-6.17,27.23-.18.36-.2.76-.07,1.14.13.38.4.68.75.86.21.1.43.15.66.15.57,0,1.09-.32,1.34-.83,5.15-10.47,7.38-20.46,6.46-28.87-.3-2.78-1.29-5.06-3.1-7.2-4.89-5.76-7.58-13.1-7.58-20.67,0-17.64,14.35-31.99,31.99-31.99s31.99,14.35,31.99,31.99c0,1.07-.05,2.16-.16,3.23-.27,2.71.19,5.1,1.45,7.52,1.26,2.43,2.99,4.84,5.12,7.15.51.66.72,1.22.63,1.63-.13.54-.84,1.16-2.02,1.74-3,1.56-2.58,4.6-1.77,7.37,0,0,0,0,0,.01-.25.43-1.74,1.43-3.25,1.55-.65.05-1.21.54-1.34,1.18-.14.64.17,1.31.75,1.62,2.2,1.2,3.07,2.3,3.1,2.72,0,.09-.11.24-.32.4-1.68,1.25-2.37,3.48-2.4,7.7.02.46-.11.64-.24.75-.29.26-1.64,1.04-6.57.19-4.88-1.11-8.84-.68-11.78,1.27-2.85,1.89-4.71,5.18-5.53,9.79-.07.39.02.79.25,1.12.23.33.57.55.96.62.81.15,1.59-.4,1.73-1.21.67-3.77,2.1-6.4,4.24-7.82,2.24-1.48,5.44-1.76,9.54-.83,4.64.8,7.54.53,9.13-.88.5-.44,1.33-1.43,1.25-3.05.03-3.87.67-4.85,1.22-5.26,1.35-1.04,1.55-2.21,1.49-3.02-.09-1.12-.76-2.23-1.99-3.3,1.04-.55,1.85-1.27,2.31-2.03.48-.79.58-1.65.28-2.41-.92-3.2-.26-3.54.26-3.81,2.04-1,3.25-2.25,3.59-3.74.31-1.34-.1-2.75-1.22-4.17Z"/>
  <path class="cls-1" d="M42.59,58.86v-4.94h4.11v4.94c0,.82.67,1.49,1.49,1.49s1.49-.67,1.49-1.49v-4.94h4.11v4.94c0,.82.67,1.49,1.49,1.49s1.49-.67,1.49-1.49v-4.94h3.83c.82,0,1.49-.67,1.49-1.49v-3.83h4.94c.82,0,1.49-.67,1.49-1.49s-.67-1.49-1.49-1.49h-4.94v-4.11h4.94c.82,0,1.49-.67,1.49-1.49s-.67-1.49-1.49-1.49h-4.94v-4.11h4.94c.82,0,1.49-.67,1.49-1.49s-.67-1.49-1.49-1.49h-4.94v-4.11h4.94c.82,0,1.49-.67,1.49-1.49s-.67-1.49-1.49-1.49h-4.94v-3.83c0-.82-.67-1.49-1.49-1.49h-3.83v-4.94c0-.82-.67-1.49-1.49-1.49s-1.49.67-1.49,1.49v4.94h-4.11v-4.94c0-.82-.67-1.49-1.49-1.49s-1.49.67-1.49,1.49v4.94h-4.11v-4.94c0-.82-.67-1.49-1.49-1.49s-1.49.67-1.49,1.49v4.94h-4.11v-4.94c0-.82-.67-1.49-1.49-1.49s-1.49.67-1.49,1.49v4.94h-3.83c-.82,0-1.49.67-1.49,1.49v3.83h-4.95c-.82,0-1.49.67-1.49,1.49s.67,1.49,1.49,1.49h4.95v4.11h-4.95c-.82,0-1.49.67-1.49,1.49s.67,1.49,1.49,1.49h4.95v4.11h-4.95c-.82,0-1.49.67-1.49,1.49s.67,1.49,1.49,1.49h4.95v4.11h-4.95c-.82,0-1.49.67-1.49,1.49s.67,1.49,1.49,1.49h4.95v3.83c0,.82.67,1.49,1.49,1.49h3.83v4.95c0,.82.67,1.49,1.49,1.49s1.49-.67,1.49-1.49v-4.95h4.11v4.95c0,.82.67,1.49,1.49,1.49s1.49-.67,1.49-1.49ZM59.13,21.96v28.97h-28.97v-28.97h28.97Z"/>
  <path class="cls-1" d="M34.7,43.41c.19.09.4.13.6.13.18,0,.36-.03.54-.1.37-.14.67-.43.83-.79l1.18-2.68h6.54l1.18,2.68c.32.73,1.23,1.09,1.97.77.37-.16.65-.45.79-.83.14-.37.13-.78-.03-1.14l-1.4-3.18c-.04-.27-.15-.52-.32-.73l-4.09-9.28c-.24-.54-.78-.89-1.37-.89s-1.13.35-1.37.89l-5.81,13.19c-.16.36-.17.77-.03,1.14.14.37.43.67.79.83ZM39.17,36.98l1.95-4.43,1.95,4.43h-3.9Z"/>
</svg>