<?xml version="1.0" encoding="UTF-8"?>
<svg id="Layer_1" xmlns="http://www.w3.org/2000/svg" version="1.1" viewBox="0 0 96 96">
  <!-- Generator: Adobe Illustrator 29.3.1, SVG Export Plug-In . SVG Version: 2.1.0 Build 151)  -->
  <defs>
    <style>
      .st0 {
        fill: #033778;
      }
    </style>
  </defs>
  <path class="st0" d="M2.2,10.4l6.1,10.7c.2.4.6.6,1,.7l5.7,1.4,19.6,19.6,2.2-2.2-19.9-19.9c-.2-.2-.4-.3-.7-.4l-5.5-1.4-5.2-9.1,4.5-4.5,9.1,5.2,1.4,5.5c0,.3.2.5.4.7l19.9,19.9,2.2-2.2L23.3,15l-1.4-5.7c-.1-.4-.4-.8-.7-1L10.4,2.2c-.6-.3-1.4-.2-1.8.2l-6.1,6.1c-.5.5-.6,1.2-.3,1.8Z"/>
  <path class="st0" d="M65.9,32.2l-33.7,33.7-2.2-2.2L63.8,30l2.2,2.2Z"/>
  <path class="st0" d="M26.3,67.1c-.3-.5-.8-.7-1.3-.7h-9.2c-.5,0-1,.3-1.3.7l-4.6,7.7c-.3.5-.3,1.1,0,1.6l4.6,7.7c.3.5.8.7,1.3.7h9.2c.5,0,1-.3,1.3-.7l4.6-7.7c.3-.5.3-1.1,0-1.6l-4.6-7.7ZM24.1,81.7h-7.5l-3.7-6.1,3.7-6.1h7.5l3.7,6.1-3.7,6.1Z"/>
  <path class="st0" d="M75.6,38.8c10.1,0,18.4-8.1,18.4-18.3,0-1.5-.2-3.1-.6-4.6-.2-.8-1-1.3-1.9-1.1-.3,0-.5.2-.7.4l-9.5,9.5-7.6-2.5-2.5-7.6,9.5-9.5c.6-.6.6-1.6,0-2.2-.2-.2-.4-.3-.7-.4-9.8-2.5-19.8,3.5-22.3,13.3-.4,1.5-.6,3-.6,4.6,0,1.2.1,2.4.4,3.6L24,57.6c-1.2-.2-2.4-.4-3.6-.4-10.2,0-18.4,8.2-18.4,18.4s8.2,18.4,18.4,18.4,18.4-8.2,18.4-18.4c0-1.2-.1-2.4-.4-3.6l8-8,3.5,3.5c.6.6,1.6.6,2.2,0l.8-.8c.7-.7,1.8-.7,2.4,0,.7.7.7,1.8,0,2.4h0s-.8.8-.8.8c-.6.6-.6,1.6,0,2.2l18.3,18.3c4.8,4.9,12.6,4.9,17.5,0,4.9-4.8,4.9-12.6,0-17.5,0,0,0,0,0,0l-18.3-18.3c-.6-.6-1.6-.6-2.2,0l-.8.8c-.7.7-1.8.7-2.4,0-.7-.7-.7-1.8,0-2.4,0,0,0,0,0,0l.8-.8c.6-.6.6-1.6,0-2.2l-3.5-3.5,8-8c1.2.2,2.4.4,3.6.4ZM81.6,90.9c-1.1,0-2.2-.2-3.3-.6l12-12c1.8,4.8-.6,10.2-5.4,12-1,.4-2.2.6-3.3.6ZM64.2,51.1c-1.7,2-1.4,5,.6,6.7,1.8,1.5,4.4,1.5,6.1,0l17.2,17.2c.2.2.4.4.5.6l-13.1,13.1c-.2-.2-.4-.3-.6-.5l-17.2-17.2c1.7-2,1.4-5-.6-6.7-1.8-1.5-4.4-1.5-6.2,0l-2.5-2.5,13.2-13.2,2.5,2.4ZM70.4,35.6l-34.8,34.8c-.4.4-.5.9-.4,1.5,2.1,8.3-2.9,16.7-11.1,18.8-8.3,2.1-16.7-2.9-18.8-11.1-2.1-8.3,2.9-16.7,11.1-18.8,2.5-.6,5.1-.6,7.6,0,.5.1,1.1,0,1.5-.4L60.3,25.6c.4-.4.5-.9.4-1.5-2.1-8.2,2.8-16.5,11-18.6,1.5-.4,3.1-.5,4.7-.4l-8.1,8.1c-.4.4-.6,1-.4,1.6l3.1,9.2c.2.5.5.8,1,1l9.2,3.1c.5.2,1.2,0,1.6-.4l8.1-8.1c0,.3,0,.6,0,.9,0,8.4-6.7,15.3-15.2,15.3-1.3,0-2.6-.2-3.9-.5-.5-.1-1.1,0-1.5.4h0Z"/>
  <path class="st0" d="M81.3,79.1l-2.2,2.2-15.3-15.3,2.2-2.2,15.3,15.3Z"/>
</svg>