<?xml version="1.0" encoding="UTF-8"?>
<svg id="Outline_cut" xmlns="http://www.w3.org/2000/svg" version="1.1" viewBox="0 0 96 96">
  <!-- Generator: Adobe Illustrator 29.3.1, SVG Export Plug-In . SVG Version: 2.1.0 Build 151)  -->
  <defs>
    <style>
      .st0 {
        fill: #033778;
      }
    </style>
  </defs>
  <path class="st0" d="M84.2,39.8c.8,0,1.5-.7,1.5-1.5v-4.4h7.4c.8,0,1.5-.7,1.5-1.5v-6c0-.5-.2-.9-.6-1.2L62,3.4c-.2-.2-.5-.3-.8-.3h-26.4c-.3,0-.6,0-.8.3L2.1,25.3c-.4.3-.6.7-.6,1.2v6c0,.8.7,1.5,1.5,1.5h7.4v4.4c0,.8.7,1.5,1.5,1.5h1.5v27.7h-1.5c-.8,0-1.5.7-1.5,1.5v4.4h-1.2c-.8,0-1.5.7-1.5,1.5v5.7H3c-.8,0-1.5.7-1.5,1.5v9.4c0,.8.7,1.5,1.5,1.5h90.1c.8,0,1.5-.7,1.5-1.5v-9.4c0-.8-.7-1.5-1.5-1.5h-4.8v-5.7c0-.8-.7-1.5-1.5-1.5h-1.2v-4.4c0-.8-.7-1.5-1.5-1.5h-1.5v-27.7h1.5ZM82.7,36.9h-18.3v-3h18.3v3ZM63,67.5c-.8,0-1.5.7-1.5,1.5v4.4h-1.5v-4.4c0-.8-.7-1.5-1.5-1.5h-1.5v-27.7h1.5c.8,0,1.5-.7,1.5-1.5v-4.4h1.5v4.4c0,.8.7,1.5,1.5,1.5h1.5v27.7h-1.5ZM85.4,76.3v4.2H10.6v-4.2h74.7ZM33,67.5h-1.5v-27.7h1.5c.8,0,1.5-.7,1.5-1.5v-4.4h1.5v4.4c0,.8.7,1.5,1.5,1.5h1.5v27.7h-1.5c-.8,0-1.5.7-1.5,1.5v4.4h-1.5v-4.4c0-.8-.7-1.5-1.5-1.5ZM57.1,33.9v3h-18.3v-3h18.3ZM57.1,73.3h-18.3v-3h18.3v3h0ZM41.8,67.5v-27.7h12.4v27.7h-12.4ZM4.4,27.2L35.2,6.1h25.5l30.8,21.2v3.8H4.4v-3.8ZM13.3,33.9h18.3v3H13.3v-3ZM16.2,39.8h12.4v27.7h-12.4v-27.7ZM13.3,70.4h18.3v3H13.3v-3ZM91.6,89.9H4.4v-6.5h87.2v6.5ZM82.7,73.3h-18.3v-3h18.3v3ZM79.8,67.5h-12.4v-27.7h12.4v27.7Z"/>
</svg>