<?xml version="1.0" encoding="UTF-8"?>
<svg id="Layer_1" data-name="Layer 1" xmlns="http://www.w3.org/2000/svg" viewBox="0 0 96 96">
  <path d="M93.31,91.38H2.69c-1,0-1.81.81-1.81,1.81s.81,1.81,1.81,1.81h90.63c1,0,1.81-.81,1.81-1.81s-.81-1.81-1.81-1.81Z" fill="#033778"/>
  <path d="M38.49,40.1c-1,0-1.81.81-1.81,1.81v42.73c0,1,.81,1.81,1.81,1.81h17.01c1,0,1.81-.81,1.81-1.81v-42.73c0-1-.81-1.81-1.81-1.81h-17.01ZM40.3,82.83v-39.1h13.39v39.1h-13.39Z" fill="#033778"/>
  <path d="M68.7,86.46h17.01c1,0,1.81-.81,1.81-1.81V16.28c0-1-.81-1.81-1.81-1.81h-17.01c-1,0-1.81.81-1.81,1.81v68.37c0,1,.81,1.81,1.81,1.81ZM70.51,82.83V18.09h13.39v64.74h-13.39Z" fill="#033778"/>
  <path d="M8.28,86.46h17.01c1,0,1.81-.81,1.81-1.81v-23.5c0-1-.81-1.81-1.81-1.81H8.28c-1,0-1.81.81-1.81,1.81v23.5c0,1,.81,1.81,1.81,1.81ZM10.09,82.83v-19.88h13.39v19.88h-13.39Z" fill="#033778"/>
  <path d="M15.89,40.58c.45,0,.89-.17,1.22-.47L52.59,7.73l-.81,3.74c-.1.47-.02.96.25,1.36.26.41.67.69,1.14.79.12.03.25.04.39.04.85,0,1.59-.6,1.77-1.43l2.02-9.3c.12-.54-.01-1.09-.36-1.52s-.86-.68-1.41-.68h-9.04c-1,0-1.81.81-1.81,1.81s.81,1.81,1.81,1.81h4.37L14.67,37.43c-.36.33-.57.77-.59,1.26-.02.48.15.95.47,1.3.34.38.83.59,1.34.59Z" fill="#033778"/>
</svg>