<?xml version="1.0" encoding="UTF-8"?>
<svg id="Capa_1" data-name="Capa 1" xmlns="http://www.w3.org/2000/svg" viewBox="0 0 96 96">
  <defs>
    <style>
      .cls-1 {
        fill: #033778;
      }
    </style>
  </defs>
  <path class="cls-1" d="M49.09,66.69c-.6-.6-1.58-.6-2.18,0,0,0,0,0,0,0l-12.65,12.66h-15.53c-2.34,0-4.24-1.9-4.24-4.24v-23.5c0-2.34,1.9-4.24,4.24-4.24h16.62c.85,6.99,7.2,11.98,14.2,11.13,5.83-.71,10.42-5.3,11.13-11.13h16.64c4.04,0,7.32-3.28,7.32-7.32v-23.48c0-4.04-3.28-7.32-7.32-7.32h-18.49V1.54c0-.85-.69-1.54-1.54-1.54h-18.54c-.85,0-1.54.69-1.54,1.54v18.54c0,.85.69,1.54,1.54,1.54h18.53c.85,0,1.54-.69,1.54-1.54v-7.73h18.49c2.34,0,4.24,1.9,4.24,4.24v23.48c0,2.34-1.9,4.24-4.24,4.24h-16.64c-.85-6.99-7.2-11.98-14.2-11.13-5.83.71-10.42,5.3-11.13,11.13h-16.61c-4.04,0-7.32,3.28-7.32,7.32v23.5c0,4.04,3.28,7.32,7.32,7.32h15.54l12.65,12.65c.6.6,1.58.6,2.18,0h0s13.1-13.11,13.1-13.11c.6-.6.6-1.58,0-2.18l-13.1-13.11ZM55.73,18.54h-15.45V3.08h15.45v15.46ZM48,36.17c5.34,0,9.68,4.33,9.68,9.68s-4.33,9.68-9.68,9.68-9.68-4.33-9.68-9.68c0-5.34,4.34-9.67,9.68-9.68ZM48,91.82l-10.93-10.92,10.93-10.93,10.93,10.93-10.93,10.92ZM95.77,80.9c0,.42-.17.83-.48,1.12l-4.18,3.96c-.6.6-1.58.6-2.18,0-.6-.6-.6-1.58,0-2.18.02-.02.04-.04.06-.06l1.38-1.3h-17.16c-.85,0-1.54-.69-1.54-1.54s.69-1.54,1.54-1.54h17.16l-1.38-1.3c-.63-.57-.69-1.54-.12-2.18.57-.63,1.54-.69,2.18-.12.02.02.04.04.06.06l4.18,3.96c.31.29.48.7.48,1.12ZM18.93,12.35H1.77c-.85,0-1.54-.69-1.54-1.54s.69-1.54,1.54-1.54h17.15l-1.38-1.3c-.62-.59-.64-1.56-.06-2.18.59-.62,1.56-.64,2.18-.06l4.18,3.96c.62.59.64,1.56.06,2.18-.02.02-.04.04-.06.06l-4.18,3.96c-.6.6-1.58.6-2.18,0-.6-.6-.6-1.58,0-2.18.02-.02.04-.04.06-.06l1.38-1.3Z"/>
</svg>