<?xml version="1.0" encoding="UTF-8"?>
<svg id="Capa_1" data-name="Capa 1" xmlns="http://www.w3.org/2000/svg" viewBox="0 0 96 96">
  <defs>
    <style>
      .cls-1 {
        fill: #033778;
      }
    </style>
  </defs>
  <path class="cls-1" d="M94.08,48.06c0,7.18-.02,14.37.02,21.55,0,1.14-.39,1.83-1.41,2.34-14.5,7.22-28.98,14.47-43.46,21.73-.85.42-1.57.43-2.43,0-14.54-7.29-29.09-14.57-43.65-21.83-.89-.44-1.24-1.06-1.24-2.04.01-14.53.02-29.06,0-43.59,0-1.02.37-1.64,1.29-2.1,14.53-7.24,29.04-14.5,43.55-21.78.89-.45,1.64-.44,2.52,0,14.44,7.24,28.89,14.47,43.36,21.68,1.06.53,1.49,1.21,1.48,2.4-.04,7.22-.02,14.43-.02,21.65ZM49.7,89.82c.24-.11.48-.2.71-.31,13.25-6.62,26.49-13.25,39.74-19.85.61-.3.76-.67.76-1.3-.02-12.98-.01-25.95-.02-38.93,0-.31.1-.65-.12-1-.3.14-.6.26-.89.41-13.12,6.56-26.24,13.13-39.37,19.67-.69.34-.95.69-.94,1.48.03,12.94.02,25.88.03,38.83,0,.32-.09.65.11,1.01ZM33.82,42.69c-.22.41-.12.78-.12,1.13,0,4.4-.01,8.8,0,13.2,0,.85-.13,1.59-1.01,1.96-.9.37-1.51-.11-2.09-.71-.62-.64-1.26-1.27-1.89-1.9-1.2-1.19-2.21-2.83-3.65-3.43-1.44-.6-3.31-.17-5-.19-.03,0-.07,0-.1,0-1.63,0-2.15-.51-2.15-2.12,0-5.03-.01-10.06.02-15.09,0-.66-.19-.99-.79-1.28-3.71-1.82-7.39-3.68-11.09-5.52-.25-.12-.47-.37-.85-.22,0,.19,0,.39,0,.58,0,13.11,0,26.21-.02,39.32,0,.69.26.97.83,1.25,13.19,6.57,26.36,13.17,39.54,19.75.28.14.54.39.93.31.01-.16.03-.33.03-.49,0-13.17,0-26.34.02-39.51,0-.59-.2-.88-.71-1.13-3.05-1.5-6.09-3.03-9.14-4.55-.91-.45-1.82-.9-2.75-1.35ZM88.9,25.76c-.45-.24-.71-.39-.97-.52-3.93-1.97-7.87-3.92-11.79-5.91-.64-.32-1.11-.3-1.73.03-8.69,4.64-17.39,9.25-26.09,13.88-4.2,2.23-8.39,4.46-12.6,6.69.21.36.56.43.84.57,3.54,1.78,7.1,3.53,10.63,5.34.6.31,1.06.27,1.64-.02,11.52-5.78,23.05-11.54,34.58-17.3,1.77-.88,3.53-1.77,5.48-2.75ZM58.9,10.72c-3.34-1.67-6.68-3.32-9.99-5.02-.67-.35-1.17-.3-1.82.02-12.96,6.5-25.93,12.97-38.89,19.46-.31.15-.69.22-.89.57.24.32.61.41.92.56,3.39,1.71,6.8,3.37,10.18,5.12.74.38,1.27.34,1.99-.04,12.56-6.7,25.14-13.37,37.71-20.06.28-.15.63-.21.81-.61ZM71.6,17.11c-.28-.16-.55-.32-.84-.46-2.42-1.21-4.86-2.4-7.26-3.65-.66-.35-1.15-.34-1.82.01-10.17,5.43-20.36,10.84-30.55,16.25-2.7,1.43-5.4,2.87-8.12,4.31.25.36.59.44.88.58,2.48,1.25,4.97,2.46,7.43,3.74.58.3,1,.25,1.54-.04,12.66-6.74,25.32-13.47,37.98-20.21.25-.13.57-.2.75-.54ZM20.98,36.27c0,4.37,0,8.59,0,12.81,0,.5.27.51.63.5,1.22,0,2.45.03,3.67-.01.79-.03,1.4.23,1.93.8,1,1.08,2.04,2.13,3.09,3.22.14-.22.2-.27.2-.32,0-3.9,0-7.81.03-11.71,0-.44-.2-.64-.56-.82-1.07-.52-2.13-1.06-3.19-1.59-1.88-.94-3.77-1.88-5.79-2.89Z"/>
</svg>