<?xml version="1.0" encoding="UTF-8"?>
<svg id="Layer_1" data-name="Layer 1" xmlns="http://www.w3.org/2000/svg" viewBox="0 0 96 96">
  <defs>
    <style>
      .cls-1 {
        fill: #033778;
      }
    </style>
  </defs>
  <g>
    <path class="cls-1" d="M22.13,95.92H0v-9.55c0-4.57,2.93-8.54,7.3-9.88l.88,2.87c-3.1.95-5.18,3.77-5.18,7.01v6.55h16.13v-6.55c0-3.24-2.08-6.06-5.18-7.01l.88-2.87c4.37,1.34,7.3,5.31,7.3,9.88v9.55Z"/>
    <path class="cls-1" d="M11.07,80.11c-5.44,0-9.86-4.42-9.86-9.86s4.42-9.86,9.86-9.86,9.86,4.42,9.86,9.86-4.42,9.86-9.86,9.86ZM11.07,63.38c-3.78,0-6.86,3.08-6.86,6.86s3.08,6.86,6.86,6.86,6.86-3.08,6.86-6.86-3.08-6.86-6.86-6.86Z"/>
  </g>
  <g>
    <path class="cls-1" d="M59.07,95.92h-22.13v-9.55c0-4.57,2.93-8.54,7.3-9.88l.88,2.87c-3.1.95-5.18,3.77-5.18,7.01v6.55h16.13v-6.55c0-3.24-2.08-6.06-5.18-7.01l.88-2.87c4.37,1.34,7.3,5.31,7.3,9.88v9.55Z"/>
    <path class="cls-1" d="M48,80.11c-5.44,0-9.86-4.42-9.86-9.86s4.42-9.86,9.86-9.86,9.86,4.42,9.86,9.86-4.42,9.86-9.86,9.86ZM48,63.38c-3.78,0-6.86,3.08-6.86,6.86s3.08,6.86,6.86,6.86,6.86-3.08,6.86-6.86-3.08-6.86-6.86-6.86Z"/>
  </g>
  <g>
    <path class="cls-1" d="M96,95.92h-22.13v-9.55c0-4.57,2.93-8.54,7.3-9.88l.88,2.87c-3.1.95-5.18,3.77-5.18,7.01v6.55h16.13v-6.55c0-3.24-2.08-6.06-5.18-7.01l.88-2.87c4.37,1.34,7.3,5.31,7.3,9.88v9.55Z"/>
    <path class="cls-1" d="M84.94,80.11c-5.44,0-9.86-4.42-9.86-9.86s4.42-9.86,9.86-9.86,9.86,4.42,9.86,9.86-4.42,9.86-9.86,9.86ZM84.94,63.38c-3.78,0-6.86,3.08-6.86,6.86s3.08,6.86,6.86,6.86,6.86-3.08,6.86-6.86-3.08-6.86-6.86-6.86Z"/>
  </g>
  <rect class="cls-1" x="18.97" y="67.83" width="21.01" height="3"/>
  <rect class="cls-1" x="56.35" y="68.21" width="20.65" height="3"/>
  <g>
    <path class="cls-1" d="M54.62,51.2h-13.38c-1.83,0-3.31-1.49-3.31-3.31v-12.34c0-.67-.33-1.31-.87-1.7-4.97-3.55-7.88-9.32-7.79-15.42C29.4,8.12,37.56.08,47.86.08h.11c5.15.03,10.11,2.22,13.6,6.02,3.17,3.44,4.92,7.91,4.92,12.6,0,4.96-1.93,9.63-5.44,13.15-.7.7-1.46,1.36-2.27,1.94-.53.38-.85,1.01-.85,1.68v12.43c0,1.83-1.49,3.31-3.31,3.31ZM47.87,3.08c-8.64,0-15.49,6.74-15.61,15.39-.07,5.12,2.37,9.96,6.54,12.94,1.33.95,2.13,2.5,2.13,4.14v12.34c0,.17.14.31.31.31h13.38c.17,0,.31-.14.31-.31v-12.43c0-1.63.78-3.16,2.09-4.11.68-.49,1.32-1.04,1.9-1.63,2.94-2.95,4.56-6.87,4.56-11.03,0-3.93-1.46-7.68-4.12-10.56-2.93-3.19-7.09-5.03-11.41-5.05h-.09Z"/>
    <path class="cls-1" d="M49.93,56.33h-3.79c-3.4,0-6.16-2.77-6.16-6.16v-1.96h16.11v1.96c0,3.4-2.77,6.16-6.16,6.16ZM43.15,51.2c.43,1.24,1.61,2.12,2.99,2.12h3.79c1.38,0,2.56-.89,2.99-2.12h-9.76Z"/>
    <rect class="cls-1" x="39.42" y="39.46" width="17.01" height="3"/>
    <path class="cls-1" d="M28.55,36.3c-4.43-5.23-6.55-11.86-5.96-18.69.46-5.32,2.52-10.27,5.96-14.32l2.29,1.94c-3.04,3.57-4.86,7.94-5.26,12.64-.52,6.02,1.35,11.88,5.26,16.49l-2.29,1.94Z"/>
    <path class="cls-1" d="M67.62,36.1l-2.31-1.92c2.95-3.54,4.72-7.85,5.11-12.46.54-6.32-1.62-12.61-5.95-17.26l2.2-2.04c4.9,5.27,7.36,12.4,6.74,19.56-.45,5.22-2.45,10.11-5.8,14.12Z"/>
    <path class="cls-1" d="M51.21,32h-6.67l-.38-5.2c-.5-.23-.98-.51-1.44-.83l-4.7,2.27-3.34-5.78,4.31-2.93c-.03-.28-.04-.56-.04-.83s.01-.55.04-.83l-4.31-2.93,3.34-5.78,4.7,2.27c.45-.32.93-.6,1.44-.83l.38-5.2h6.67l.38,5.2c.5.23.98.51,1.44.83l4.7-2.27,3.34,5.78-4.31,2.93c.03.28.04.56.04.83s-.01.55-.04.83l4.31,2.93-3.34,5.78-4.7-2.27c-.45.32-.93.6-1.44.83l-.38,5.2ZM47.32,29h1.1l.32-4.36.96-.31c.78-.25,1.5-.67,2.12-1.23l.75-.67,3.94,1.9.55-.95-3.61-2.46.21-.98c.09-.41.13-.82.13-1.23s-.04-.82-.13-1.23l-.21-.98,3.61-2.46-.55-.95-3.94,1.91-.75-.67c-.63-.56-1.34-.98-2.12-1.23l-.96-.31-.32-4.36h-1.1l-.32,4.36-.96.31c-.78.25-1.5.67-2.12,1.23l-.75.67-3.95-1.91-.55.95,3.61,2.46-.21.98c-.09.41-.13.83-.13,1.23s.04.82.13,1.23l.21.98-3.61,2.46.55.95,3.95-1.9.75.67c.63.56,1.34.98,2.12,1.23l.96.31.32,4.36Z"/>
    <path class="cls-1" d="M47.87,22.79c-2.26,0-4.09-1.84-4.09-4.09s1.84-4.09,4.09-4.09,4.09,1.84,4.09,4.09-1.84,4.09-4.09,4.09ZM47.87,17.6c-.6,0-1.09.49-1.09,1.09s.49,1.09,1.09,1.09,1.09-.49,1.09-1.09-.49-1.09-1.09-1.09Z"/>
  </g>
</svg>