<?xml version="1.0" encoding="UTF-8"?>
<svg id="Layer_1" data-name="Layer 1" xmlns="http://www.w3.org/2000/svg" viewBox="0 0 96 96">
  <defs>
    <style>
      .cls-1 {
        stroke-miterlimit: 10;
      }

      .cls-1, .cls-2 {
        fill: none;
        stroke: #033778;
        stroke-width: 3px;
      }

      .cls-2 {
        stroke-linejoin: round;
      }
    </style>
  </defs>
  <rect class="cls-1" x="16.32" y="1.69" width="31.02" height="42.16" rx="14.17" ry="14.17"/>
  <path class="cls-2" d="M16.32,18.76c6.46-.44,15.69-1.96,21.13-5.63,2.32,1.73,6.41,4.39,9.89,5.19"/>
  <path class="cls-2" d="M25.23,42.44v6.59c0,.25,0,.5.04.75.17,1.54.87,2.92,1.91,3.97,1.21,1.2,2.87,1.95,4.71,1.95,3.42,0,6.23-2.57,6.61-5.89.04-.25.05-.51.05-.77v-6.63"/>
  <path class="cls-2" d="M41.97,84.05H1.5v-15.63c0-6.48,4.17-12.22,10.33-14.24l13.44-4.39c.17,1.54.88,2.92,1.91,3.97,1.21,1.2,2.87,1.94,4.7,1.94,3.42,0,6.24-2.57,6.62-5.89l7.58,2.51"/>
  <line class="cls-2" x1="14.81" y1="84.35" x2="14.81" y2="64.67"/>
  <g>
    <polyline class="cls-1" points="47 73.98 47 94.31 91.85 94.31 91.85 73.94"/>
    <rect class="cls-1" x="63.49" y="72.29" width="13.74" height="8.68"/>
    <rect class="cls-1" x="60.52" y="53.5" width="19.67" height="4.4" transform="translate(140.72 111.39) rotate(180)"/>
    <polyline class="cls-1" points="63.49 74.24 47 74.24 44.46 74.24 44.46 58.4 94.5 58.4 94.5 74.24 91.85 74.24 77.22 74.24"/>
  </g>
</svg>