<?xml version="1.0" encoding="UTF-8"?>
<svg id="Layer_1" data-name="Layer 1" xmlns="http://www.w3.org/2000/svg" viewBox="0 0 96 96">
  <path d="M72.33,88.15c-.06-.31-.22-.6-.44-.83l-16.18-16.18,8.31-8.31c8.83-8.82,8.84-23.18.02-32.01-2.38-2.39-5.32-4.24-8.51-5.36v-1.17c0-2.52-2.05-4.57-4.57-4.57h-1.36v-2.18c3.08-.74,5.23-3.46,5.23-6.64,0-3.32-4.69-8.83-5.63-9.9-.3-.32-.72-.5-1.16-.52-.46-.01-.86.15-1.18.45-.02.02-.04.04-.07.07-.94,1.07-5.63,6.57-5.63,9.9,0,3.18,2.15,5.89,5.23,6.64v2.18h-1.36c-2.52,0-4.57,2.05-4.57,4.57v1.17c-5.67,2-10.24,6.08-12.86,11.49-2.63,5.44-2.99,11.59-1,17.3,1.12,3.21,2.98,6.17,5.38,8.57l8.31,8.31-16.18,16.19c-.3.3-.47.71-.47,1.13,0,.43.17.83.47,1.14.23.22.51.37.82.44l3.47.7.7,3.47c.17.87,1.02,1.43,1.89,1.26.31-.06.6-.21.82-.44l8.66-8.65v7.52c0,.89.72,1.61,1.61,1.61h11.85c.89,0,1.61-.72,1.61-1.61v-7.52l8.66,8.66c.3.3.71.47,1.13.47h0c.43,0,.83-.17,1.14-.47.22-.22.37-.51.44-.82l.7-3.47,3.47-.7c.42-.08.78-.32,1.02-.68.24-.36.33-.78.24-1.2ZM44.37,10.92h0c0-1.29,1.93-4.18,3.63-6.33,1.69,2.14,3.63,5.04,3.63,6.33,0,.97-.38,1.88-1.06,2.56-.68.68-1.6,1.06-2.56,1.06h0c-.97,0-1.88-.38-2.56-1.06-.69-.68-1.06-1.6-1.06-2.56ZM58.84,36.49c-.98-1-2.09-1.86-3.31-2.55v-5.02c4.72,1.98,8.4,5.66,10.39,10.38,2.01,4.78,2.04,10.06.08,14.86-.98,2.41-2.41,4.56-4.25,6.4l-30.08,30.08-.32-1.58c-.13-.64-.62-1.13-1.26-1.26l-1.59-.32,30.08-30.08c5.84-5.69,5.95-15.07.26-20.91ZM55.53,55.91v-18.08c.27.22.54.44.78.68,4.57,4.58,4.57,12.04,0,16.62l-.78.78ZM28.54,46.86c-.01-5.18,1.99-10.05,5.65-13.72,1.81-1.81,3.92-3.23,6.28-4.22v5.02c-3.42,1.93-5.88,5.07-6.95,8.84-1.08,3.8-.61,7.79,1.31,11.24.69,1.25,1.56,2.38,2.58,3.38l8.31,8.31-3.16,3.16-8.31-8.31h0c-3.67-3.65-5.7-8.52-5.71-13.7ZM40.47,37.83v18.08l-.78-.78c-4.57-4.58-4.57-12.04,0-16.62.25-.24.51-.47.79-.68ZM52.32,59.12l-4.32,4.32-4.32-4.32V24.29c0-.75.61-1.36,1.36-1.36h5.92c.75,0,1.36.61,1.36,1.36v34.83ZM53.43,73.42l14.06,14.06-1.59.31h0c-.64.13-1.13.62-1.26,1.26l-.32,1.58-14.06-14.06,3.16-3.16ZM43.68,83.16l4.32-4.32,4.32,4.32v9.13h-8.64v-9.13Z" fill="#033778"/>
  <path d="M59.85,9.61c.27,0,.55-.07.8-.21l5.13-2.96c.37-.22.63-.57.74-.98.11-.41.05-.85-.17-1.22-.44-.75-1.42-1.02-2.18-.58l-5.13,2.96c-.37.21-.64.56-.75.97s-.05.85.16,1.22c.3.51.84.8,1.39.8Z" fill="#033778"/>
  <path d="M65.78,15.5l-5.13-2.96c-.37-.21-.81-.26-1.22-.15-.41.11-.76.38-.97.75-.42.74-.18,1.68.52,2.14l5.19,3c.25.14.52.22.8.22.14,0,.28-.02.42-.06.41-.11.76-.38.97-.75.44-.77.18-1.75-.59-2.19Z" fill="#033778"/>
  <path d="M30.16,6.39l5.19,3c.25.15.53.21.8.21.56,0,1.1-.29,1.39-.8.21-.37.27-.8.16-1.22-.11-.41-.38-.76-.75-.97l-5.13-2.96c-.77-.44-1.75-.17-2.19.6-.42.74-.18,1.68.52,2.14Z" fill="#033778"/>
  <path d="M31.02,18.5c.27,0,.55-.07.8-.21l5.13-2.96c.37-.21.64-.56.75-.97s.06-.85-.15-1.22c-.21-.37-.56-.64-.97-.75-.41-.11-.85-.06-1.24.16l-5.13,2.96c-.77.44-1.03,1.43-.59,2.19.3.51.84.8,1.39.8Z" fill="#033778"/>
</svg>