<?xml version="1.0" encoding="UTF-8"?>
<svg id="Layer_1" data-name="Layer 1" xmlns="http://www.w3.org/2000/svg" viewBox="0 0 96 96">
  <defs>
    <style>
      .cls-1 {
        fill: none;
        stroke: #033778;
        stroke-linecap: round;
        stroke-linejoin: round;
        stroke-width: 3px;
      }
    </style>
  </defs>
  <polyline class="cls-1" points="14.98 79.8 2.72 79.8 2.72 1.5 39.29 1.5 39.29 31.35"/>
  <rect class="cls-1" x="9.82" y="9.39" width="23.23" height="16.49"/>
  <polyline class="cls-1" points="21.1 49.54 9.82 49.54 9.82 33.05 33.05 33.05 33.05 37.59"/>
  <polyline class="cls-1" points="14.98 75.5 5.06 65.58 21.1 49.54 33.05 37.59 39.29 31.35 60.42 10.22 86.28 36.07 64.42 57.93"/>
  <rect class="cls-1" x="50.63" y="26.62" width="23.23" height="16.49" transform="translate(42.88 -33.81) rotate(45)"/>
  <polyline class="cls-1" points="40.2 57.93 31.47 49.21 43.13 37.54 59.56 53.97 55.6 57.93"/>
  <rect class="cls-1" x="35.85" y="37.07" width="36.57" height="78.3" transform="translate(130.35 22.08) rotate(90)"/>
  <rect class="cls-1" x="65.53" y="68.4" width="23.23" height="16.49" transform="translate(153.79 -.5) rotate(90)"/>
  <rect class="cls-1" x="41.87" y="68.4" width="23.23" height="16.49" transform="translate(130.13 23.16) rotate(90)"/>
</svg>