<?xml version="1.0" encoding="UTF-8"?>
<svg id="Layer_1" data-name="Layer 1" xmlns="http://www.w3.org/2000/svg" viewBox="0 0 96 96">
  <defs>
    <style>
      .cls-1 {
        fill: #223c75;
      }

      .cls-2 {
        fill: #033778;
      }
    </style>
  </defs>
  <path class="cls-1" d="M50.19,95.81c-2.09,0-4.19-.35-6.21-1.07l-24.24-8.63c-2.03-.72-4.24-.67-6.23.15l-13.51,5.57v-25.39l18.23-6.34c5.37-1.87,11.18-2.44,16.81-1.66l26.14,3.62c3.43.47,5.88,3.55,5.56,7-.06.71-.24,1.38-.52,2.01l19-12.38c2.93-1.91,6.84-1.34,9.1,1.32,1.27,1.5,1.85,3.47,1.6,5.42-.26,1.95-1.33,3.7-2.94,4.82l-32.24,22.28c-3.14,2.17-6.84,3.29-10.56,3.29ZM16.82,82.6c1.32,0,2.65.23,3.92.68l24.24,8.63c4.7,1.67,9.96.98,14.06-1.86l32.24-22.28c.93-.64,1.53-1.62,1.67-2.74.15-1.12-.17-2.22-.91-3.08-1.29-1.51-3.51-1.84-5.18-.75l-24.93,16.25c-3.35,2.18-7.67,2.17-11.01-.02l-3.14-2.07-10.36.33-.1-3,23.07-.74c1.75-.06,3.19-1.41,3.35-3.16.17-1.85-1.14-3.5-2.98-3.76l-26.14-3.62c-5.17-.71-10.49-.19-15.42,1.52l-16.22,5.64v18.78l9.36-3.86c1.43-.59,2.94-.89,4.46-.89ZM53.04,75.19c2.25,1.25,5.04,1.18,7.23-.23l-7.23.23Z"/>
  <path class="cls-2" d="M50.53,37.37c-10.25,0-18.59-8.34-18.59-18.59S40.28.19,50.53.19s18.59,8.34,18.59,18.59-8.34,18.59-18.59,18.59ZM50.53,3.19c-8.6,0-15.59,6.99-15.59,15.59s6.99,15.59,15.59,15.59,15.59-6.99,15.59-15.59-6.99-15.59-15.59-15.59Z"/>
  <path class="cls-2" d="M48.77,24.27l-3.42-4.08c-.53-.63-.45-1.58.19-2.11.64-.53,1.58-.45,2.11.19l1.34,1.6,4.61-4.5c.59-.58,1.54-.57,2.12.03.58.59.57,1.54-.03,2.12l-6.93,6.75Z"/>
  <path class="cls-2" d="M50.53,30.24c-6.32,0-11.46-5.14-11.46-11.46s5.14-11.46,11.46-11.46,11.46,5.14,11.46,11.46-5.14,11.46-11.46,11.46ZM50.53,10.32c-4.66,0-8.46,3.79-8.46,8.46s3.79,8.46,8.46,8.46,8.46-3.79,8.46-8.46-3.79-8.46-8.46-8.46Z"/>
  <path class="cls-2" d="M58.47,56.31c-.06,0-.13,0-.19-.01-.53-.07-.99-.42-1.19-.91l-7.67-18.5,2.77-1.15,6.68,16.1,2.62-3.43c.33-.43.86-.65,1.39-.57l4.2.58-6.67-16.08,2.77-1.15,7.67,18.5c.21.5.13,1.07-.2,1.49-.33.42-.86.64-1.39.57l-5.93-.81-3.67,4.8c-.29.37-.73.59-1.19.59Z"/>
  <path class="cls-2" d="M41.3,56.31c-.46,0-.91-.21-1.19-.59l-3.67-4.8-5.93.81c-.53.07-1.06-.15-1.39-.57-.33-.43-.4-.99-.2-1.49l7.67-18.5,2.77,1.15-6.67,16.08,4.2-.58c.53-.07,1.07.15,1.39.57l2.62,3.43,6.68-16.1,2.77,1.15-7.67,18.5c-.21.5-.66.84-1.19.91-.06,0-.13.01-.19.01Z"/>
</svg>