<?xml version="1.0" encoding="UTF-8"?>
<svg id="Capa_1" data-name="Capa 1" xmlns="http://www.w3.org/2000/svg" viewBox="0 0 96 96">
  <path d="M82.97,38.19h-44.15c-.77,0-1.39.62-1.39,1.39s.62,1.39,1.39,1.39h44.15c.77,0,1.39-.62,1.39-1.39s-.62-1.39-1.39-1.39Z" fill="#033778"/>
  <path d="M82.97,48.82h-44.15c-.77,0-1.39.62-1.39,1.39s.62,1.39,1.39,1.39h44.15c.77,0,1.39-.62,1.39-1.39s-.62-1.39-1.39-1.39Z" fill="#033778"/>
  <path d="M82.97,59.46h-44.15c-.77,0-1.39.62-1.39,1.39s.62,1.39,1.39,1.39h44.15c.77,0,1.39-.62,1.39-1.39s-.62-1.39-1.39-1.39Z" fill="#033778"/>
  <path d="M87.39,26.02h-52.99c-4.46,0-8.09,3.63-8.09,8.09v33.32c0,4.46,3.63,8.09,8.09,8.09h37.14c.4,0,.77.18,1.01.49l11.99,15.19c.47.6,1.16.92,1.88.92.27,0,.54-.05.81-.14.99-.34,1.63-1.24,1.63-2.29v-14.31c3.75-.7,6.61-4.02,6.61-7.95v-33.32c0-4.46-3.63-8.09-8.09-8.09h0ZM92.7,67.43c0,2.89-2.35,5.27-5.24,5.31-.76,0-1.37.63-1.37,1.39v14.53l-11.35-14.37c-.78-.98-1.94-1.55-3.2-1.55h-37.14c-2.93,0-5.31-2.38-5.31-5.31v-33.32c0-2.93,2.38-5.31,5.31-5.31h52.99c2.93,0,5.31,2.38,5.31,5.31v33.32Z" fill="#033778"/>
  <path d="M21,49.02c-.95.14-1.8.63-2.4,1.38l-9.56,12.1v-12.13c0-.76-.61-1.38-1.37-1.39-2.42-.03-4.38-2.02-4.38-4.44V15.54c0-2.45,1.99-4.44,4.44-4.44h46.13c2.45,0,4.44,1.99,4.44,4.44v5.37c0,.77.62,1.39,1.39,1.39s1.39-.62,1.39-1.39v-5.37c0-3.98-3.24-7.23-7.23-7.23H7.72C3.74,8.31.5,11.55.5,15.54v29.01c0,3.46,2.48,6.39,5.76,7.07v12.31c0,.99.6,1.84,1.54,2.16.25.09.51.13.76.13.68,0,1.33-.31,1.78-.87l10.44-13.22c.15-.19.37-.31.61-.35.76-.11,1.29-.81,1.18-1.57-.11-.76-.81-1.29-1.57-1.18h0Z" fill="#033778"/>
</svg>