<?xml version="1.0" encoding="UTF-8"?>
<svg id="Capa_1" data-name="Capa 1" xmlns="http://www.w3.org/2000/svg" viewBox="0 0 96 96">
  <defs>
    <style>
      .cls-1 {
        fill: #033778;
      }
    </style>
  </defs>
  <path class="cls-1" d="M50.76,1.02c1.77.32,3.57.39,5.35.71,10.83,1.97,19.89,7.07,27.17,15.3,6.64,7.51,10.5,16.3,11.46,26.26,1.18,12.29-1.96,23.46-9.5,33.27-6.99,9.08-16.12,14.97-27.36,17.32-14.04,2.93-26.91.05-38.34-8.61-9.19-6.96-14.96-16.21-17.45-27.48-.44-2-.75-4.02-.88-6.07-.02-.33-.11-.65-.17-.97v-5.51c.24-.64.15-1.32.22-1.98,1.12-10.11,4.99-19.03,11.8-26.59C20.29,8.65,29.25,3.65,39.91,1.73c1.77-.32,3.57-.39,5.34-.71h5.51ZM48.02,91.84c24.14-.01,43.83-19.69,43.84-43.84.01-24.13-19.66-43.83-43.81-43.86-24.16-.03-43.92,19.73-43.88,43.88.03,24.15,19.73,43.83,43.86,43.82Z"/>
  <path class="cls-1" d="M49.58,30.81c0,5.96,0,11.92,0,17.89,0,2.01-.41,2.42-2.41,2.42-7.8,0-15.59,0-23.39,0-.34,0-.68.02-1.01-.03-.78-.11-1.34-.75-1.36-1.49-.02-.74.52-1.41,1.29-1.55.33-.06.67-.05,1-.05,7.25,0,14.49-.02,21.74.02.81,0,1.01-.21,1.01-1.01-.03-11.34-.02-22.69-.02-34.03,0-.37,0-.74.04-1.1.12-.87.72-1.44,1.5-1.45.8-.02,1.45.59,1.56,1.49.04.33.04.67.04,1.01,0,5.96,0,11.92,0,17.89Z"/>
</svg>