<?xml version="1.0" encoding="UTF-8"?>
<svg id="Layer_1" xmlns="http://www.w3.org/2000/svg" version="1.1" viewBox="0 0 96 96">
  <!-- Generator: Adobe Illustrator 29.3.1, SVG Export Plug-In . SVG Version: 2.1.0 Build 151)  -->
  <defs>
    <style>
      .st0 {
        fill: #033778;
      }
    </style>
  </defs>
  <path class="st0" d="M86.4,35.1c-.4-9.6-8.3-17.3-18-17.3-1,0-2.1,0-3.1.3C61,6.2,47.8,0,35.9,4.4c-7.3,2.7-12.8,8.9-14.5,16.5h-.7c-9.8,0-17.7,8-17.6,17.8,0,0,0,0,0,0,0,10.3,6.5,17.8,15.5,17.8h11.2c.8,0,1.4-.6,1.4-1.4s-.6-1.4-1.4-1.4h-11.2c-7.5,0-12.7-6.2-12.7-15,0-8.2,6.6-14.9,14.8-14.9.6,0,1.1,0,1.7.1.7.1,1.4-.4,1.6-1.1,1.8-11,12.2-18.4,23.2-16.6,7.6,1.3,13.8,6.7,16,14,.2.7,1,1.1,1.7.9,1.2-.3,2.5-.5,3.7-.5,8.4,0,15.2,6.9,15.2,15.3v.2c0,.6.4,1.1.9,1.3,3.4,1.2,5.6,4.3,5.6,7.9,0,4.1-2.7,8.4-7.7,8.4h-16.2c-.8,0-1.4.6-1.4,1.4s.6,1.4,1.4,1.4h16.2c6.6,0,10.5-5.7,10.5-11.2,0-4.4-2.6-8.4-6.6-10.2h0Z"/>
  <path class="st0" d="M49.4,79.1v-18.6c3-.8,4.8-3.8,4-6.9-.8-3-3.8-4.8-6.9-4-3,.8-4.8,3.8-4,6.9.5,2,2.1,3.5,4,4v18.6c-3.8.8-6.3,4.5-5.5,8.3.8,3.8,4.5,6.3,8.3,5.5s6.3-4.5,5.5-8.3c-.6-2.8-2.7-4.9-5.5-5.5ZM45.2,55c0-1.6,1.3-2.8,2.8-2.8s2.8,1.3,2.8,2.8-1.3,2.8-2.8,2.8-2.8-1.3-2.8-2.8ZM48,90.2c-2.3,0-4.2-1.9-4.2-4.2s1.9-4.2,4.2-4.2,4.2,1.9,4.2,4.2-1.9,4.2-4.2,4.2Z"/>
  <path class="st0" d="M41,42.4c0-3.1-2.5-5.6-5.6-5.6s-5.6,2.5-5.6,5.6c0,2.6,1.7,4.8,4.2,5.5v28.3h-8.6c-.8-3.8-4.5-6.3-8.3-5.5-3.8.8-6.3,4.5-5.5,8.3.8,3.8,4.5,6.3,8.3,5.5,2.8-.6,4.9-2.7,5.5-5.5h10c.8,0,1.4-.6,1.4-1.4v-29.7c2.5-.6,4.2-2.9,4.2-5.4ZM18.5,81.8c-2.3,0-4.2-1.9-4.2-4.2s1.9-4.2,4.2-4.2,4.2,1.9,4.2,4.2-1.9,4.2-4.2,4.2h0ZM35.3,45.2c-1.6,0-2.8-1.3-2.8-2.8s1.3-2.8,2.8-2.8,2.8,1.3,2.8,2.8-1.3,2.8-2.8,2.8Z"/>
  <path class="st0" d="M77.5,70.5c-3.3,0-6.2,2.4-6.9,5.6h-8.6v-28.3c3-.8,4.8-3.8,4-6.9-.8-3-3.8-4.8-6.9-4-3,.8-4.8,3.8-4,6.9.5,2,2.1,3.5,4,4v29.7c0,.8.6,1.4,1.4,1.4h10c.8,3.8,4.5,6.3,8.3,5.5s6.3-4.5,5.5-8.3c-.7-3.3-3.5-5.6-6.9-5.6ZM57.8,42.4c0-1.6,1.3-2.8,2.8-2.8s2.8,1.3,2.8,2.8-1.3,2.8-2.8,2.8-2.8-1.3-2.8-2.8ZM77.5,81.8c-2.3,0-4.2-1.9-4.2-4.2s1.9-4.2,4.2-4.2,4.2,1.9,4.2,4.2-1.9,4.2-4.2,4.2Z"/>
</svg>