<?xml version="1.0" encoding="UTF-8"?>
<svg id="Layer_1" data-name="Layer 1" xmlns="http://www.w3.org/2000/svg" viewBox="0 0 96 96">
  <defs>
    <style>
      .cls-1 {
        fill: #033778;
      }
    </style>
  </defs>
  <path class="cls-1" d="M47.44,96c-4.13,0-7.5-3.45-7.5-7.69s3.36-7.69,7.5-7.69,7.5,3.45,7.5,7.69-3.36,7.69-7.5,7.69ZM47.44,83.62c-2.48,0-4.5,2.1-4.5,4.69s2.02,4.69,4.5,4.69,4.5-2.1,4.5-4.69-2.02-4.69-4.5-4.69Z"/>
  <path class="cls-1" d="M26.59,35.01c-3.61,0-6.55-3.01-6.55-6.71s2.94-6.71,6.55-6.71,6.55,3.01,6.55,6.71-2.94,6.71-6.55,6.71ZM26.59,24.59c-1.96,0-3.55,1.66-3.55,3.71s1.59,3.71,3.55,3.71,3.55-1.67,3.55-3.71-1.59-3.71-3.55-3.71Z"/>
  <path class="cls-1" d="M75.4,30.24h-12.15v-12.45h12.15v12.45ZM66.25,27.24h6.15v-6.45h-6.15v6.45Z"/>
  <polygon class="cls-1" points="55.9 13.37 47.44 4.64 38.98 13.37 36.83 11.28 47.44 .32 58.05 11.28 55.9 13.37"/>
  <rect class="cls-1" x="45.94" y="3.38" width="3" height="78.74"/>
  <polygon class="cls-1" points="48.4 58.6 46.48 56.3 67.83 38.45 67.83 28.74 70.83 28.74 70.83 39.85 48.4 58.6"/>
  <polygon class="cls-1" points="45.65 68.6 25.09 48.6 25.09 33.89 28.09 33.89 28.09 47.34 47.74 66.45 45.65 68.6"/>
</svg>