<?xml version="1.0" encoding="UTF-8"?>
<svg id="Layer_1" data-name="Layer 1" xmlns="http://www.w3.org/2000/svg" viewBox="0 0 96 96">
  <defs>
    <style>
      .cls-1 {
        fill: #033778;
      }
    </style>
  </defs>
  <path class="cls-1" d="M78.38,96H17.62c-9.71,0-17.62-7.9-17.62-17.62V17.62C0,7.9,7.9,0,17.62,0h60.76C88.1,0,96,7.9,96,17.62v60.76c0,9.71-7.9,17.62-17.62,17.62ZM17.62,3c-8.06,0-14.62,6.56-14.62,14.62v60.76c0,8.06,6.56,14.62,14.62,14.62h60.76c8.06,0,14.62-6.56,14.62-14.62V17.62c0-8.06-6.56-14.62-14.62-14.62H17.62Z"/>
  <rect class="cls-1" x="1.5" y="13.22" width="93" height="3"/>
  <rect class="cls-1" x="9.48" y="72.08" width="76.64" height="3"/>
  <rect class="cls-1" x="19.92" y="78.54" width="28.11" height="3"/>
  <rect class="cls-1" x="52.2" y="78.54" width="26" height="3"/>
  <rect class="cls-1" x="82.99" y="78.54" width="3.13" height="3"/>
  <rect class="cls-1" x="9.48" y="78.21" width="5.43" height="3"/>
  <rect class="cls-1" x="9.48" y="84.17" width="51.38" height="3"/>
  <path class="cls-1" d="M43.11,75.08h-26.39l-4.58-28.67h26.39l4.58,28.67ZM19.27,72.08h20.32l-3.62-22.67H15.65l3.62,22.67Z"/>
  <path class="cls-1" d="M53.7,75.08H16.71l-1.56-10.01h38.55v10.01ZM19.28,72.08h31.42v-4.01H18.66l.62,4.01Z"/>
  <path class="cls-1" d="M25.45,59c-2,0-3.74-1.65-3.98-3.86-.25-2.34,1.31-4.43,3.46-4.66,2.16-.21,4.11,1.49,4.36,3.83h0c.25,2.34-1.31,4.43-3.46,4.66-.13.01-.26.02-.38.02ZM25.32,53.47s-.05,0-.07,0c-.5.05-.87.68-.79,1.36s.57,1.24,1.06,1.17c.5-.05.86-.68.79-1.36h0c-.07-.65-.51-1.17-.99-1.17Z"/>
  <path class="cls-1" d="M60.86,62.27c-8.22,0-14.91-6.69-14.91-14.91v-8.87c0-6.87,5.59-12.46,12.46-12.46h4.91c6.87,0,12.46,5.59,12.46,12.46v8.87c0,8.22-6.69,14.91-14.91,14.91ZM58.4,29.03c-5.21,0-9.46,4.24-9.46,9.46v8.87c0,6.57,5.34,11.91,11.91,11.91s11.91-5.34,11.91-11.91v-8.87c0-5.21-4.24-9.46-9.46-9.46h-4.91Z"/>
  <path class="cls-1" d="M53.74,28.06c-.08-1.94.6-3.8,1.92-5.23s3.11-2.26,5.06-2.34c4.01-.15,7.4,2.97,7.56,6.98l-3,.12c-.09-2.36-2.08-4.21-4.45-4.1-1.14.05-2.2.53-2.97,1.37-.78.84-1.18,1.93-1.13,3.07l-3,.12Z"/>
  <path class="cls-1" d="M48.05,41.77l-.5-2.96,15.99-2.7c.91-.15,1.82-.13,2.72.08l8.34,1.89-.66,2.93-8.34-1.89c-.51-.12-1.04-.13-1.56-.04l-15.99,2.7Z"/>
  <path class="cls-1" d="M60.92,56.23c-1.13,0-2.24-.35-3.19-1.01-1.22-.85-2.03-2.13-2.29-3.6-.14-.82.4-1.59,1.22-1.74.82-.14,1.59.4,1.74,1.22.12.68.49,1.27,1.06,1.66.56.39,1.25.55,1.92.43,1.04-.18,1.85-.97,2.07-2,.17-.81.97-1.33,1.78-1.16.81.17,1.33.97,1.16,1.78-.48,2.23-2.24,3.93-4.48,4.33-.33.06-.65.09-.98.09Z"/>
  <rect class="cls-1" x="66.79" y="6.78" width="12" height="3"/>
  <rect class="cls-1" x="26.9" y="6.78" width="2.77" height="3"/>
  <rect class="cls-1" x="17.99" y="6.78" width="3.23" height="3"/>
  <rect class="cls-1" x="10.23" y="6.78" width="3.16" height="3"/>
  <path class="cls-1" d="M49.7,67.66l-2.08-2.16c2.01-1.94,4.38-3.36,7.05-4.22.12-.04.25-.08.38-.12l.75,2.91c-.06.02-.13.04-.19.06-2.25.73-4.23,1.91-5.91,3.53Z"/>
  <path class="cls-1" d="M75.07,74.05c-1.56-4.81-5.38-8.55-10.22-10.01l.87-2.87c5.78,1.75,10.34,6.22,12.21,11.96l-2.85.93Z"/>
  <path class="cls-1" d="M60.36,70.11c-3.54,0-6.42-2.88-6.42-6.42v-4.34h3v4.34c0,1.89,1.54,3.42,3.42,3.42s3.42-1.54,3.42-3.42v-3.85h3v3.85c0,3.54-2.88,6.42-6.42,6.42Z"/>
</svg>