<?xml version="1.0" encoding="UTF-8"?>
<svg id="Layer_1" data-name="Layer 1" xmlns="http://www.w3.org/2000/svg" viewBox="0 0 96 96">
  <defs>
    <style>
      .cls-1 {
        fill: #033778;
      }
    </style>
  </defs>
  <path class="cls-1" d="M17.53,45.91c-.4,0-.8-.07-1.18-.23-1.23-.49-2.02-1.65-2.02-2.97v-10.02H5.43C2.49,32.7.1,30.3.1,27.36V5.35C.1,2.4,2.49,0,5.44,0h41.4C49.79,0,52.18,2.39,52.18,5.34v22.03c0,2.94-2.39,5.34-5.34,5.34h-15.57l-11.42,12.2c-.62.66-1.46,1.01-2.33,1.01ZM17.33,31.29v11.42s0,.13.12.18c.13.05.18-.02.21-.05l11.8-12.61c.28-.34.7-.54,1.15-.54h16.22c1.29,0,2.34-1.05,2.34-2.34V5.34c0-1.29-1.05-2.34-2.34-2.34H5.44c-1.29,0-2.35,1.05-2.35,2.35v22.02c0,1.29,1.05,2.34,2.34,2.34h10.4c.54,0,1.04.29,1.31.76.15.26.21.55.19.83Z"/>
  <rect class="cls-1" x="10.45" y="8.57" width="31.49" height="3"/>
  <rect class="cls-1" x="10.45" y="15.69" width="31.49" height="3"/>
  <rect class="cls-1" x="10.45" y="22.53" width="2.77" height="3"/>
  <path class="cls-1" d="M90.76,64.37h-55.36c-2.84,0-5.14-2.31-5.14-5.14v-28.03h3v28.03c0,1.18.96,2.14,2.14,2.14h55.36c1.18,0,2.14-.96,2.14-2.14V21.18c0-1.18-.96-2.14-2.14-2.14h-40.08v-3h40.08c2.84,0,5.14,2.31,5.14,5.14v38.05c0,2.84-2.31,5.14-5.14,5.14Z"/>
  <rect class="cls-1" x="31.75" y="50.41" width="62.65" height="3"/>
  <rect class="cls-1" x="59.55" y="56.07" width="7.44" height="3"/>
  <path class="cls-1" d="M27.33,96H5.28v-19.16c0-4.55,2.92-8.51,7.27-9.85l.88,2.87c-3.08.95-5.16,3.75-5.16,6.98v16.16h16.06v-16.16c0-3.23-2.07-6.03-5.16-6.98l.88-2.87c4.35,1.34,7.27,5.29,7.27,9.85v19.16Z"/>
  <path class="cls-1" d="M16.31,70.61c-5.42,0-9.83-4.41-9.83-9.83s4.41-9.83,9.83-9.83,9.83,4.41,9.83,9.83-4.41,9.83-9.83,9.83ZM16.31,53.95c-3.77,0-6.83,3.06-6.83,6.83s3.06,6.83,6.83,6.83,6.83-3.06,6.83-6.83-3.06-6.83-6.83-6.83Z"/>
  <rect class="cls-1" x="38.23" y="71.71" width="53.79" height="3"/>
  <rect class="cls-1" x="55.75" y="62.87" width="3" height="9.89"/>
  <rect class="cls-1" x="67.41" y="63.46" width="3" height="9.75"/>
</svg>