<?xml version="1.0" encoding="UTF-8"?>
<svg id="Layer_1" data-name="Layer 1" xmlns="http://www.w3.org/2000/svg" viewBox="0 0 96 96">
  <defs>
    <style>
      .cls-1 {
        fill: #223c75;
      }
    </style>
  </defs>
  <path class="cls-1" d="M27.14,95.27c-14.97,0-27.14-12.18-27.14-27.14s12.18-27.13,27.14-27.13c.79,0,1.55.03,2.26.1l.17.02c1.45.12,2.92.37,4.38.75.09.02.17.04.26.07l-.8,2.89-.16-.04c-1.3-.34-2.62-.57-3.9-.68l-.19-.02c-.63-.06-1.3-.09-2.01-.09-13.31,0-24.14,10.83-24.14,24.13s10.83,24.14,24.14,24.14c11.81,0,22.06-8.79,23.85-20.44l2.96.46c-2.01,13.1-13.54,22.98-26.82,22.98Z"/>
  <path class="cls-1" d="M68.86,55c-2.12,0-4.24-.25-6.3-.74-1.17-.27-2.36-.64-3.53-1.1l1.11-2.79c1.02.41,2.07.73,3.11.97,3.11.74,6.37.86,9.51.34l.29-.05c.78-.13,1.5-.29,2.2-.49,10.46-2.86,17.76-12.43,17.76-23.28,0-13.31-10.83-24.14-24.14-24.14-11.82,0-21.82,8.45-23.79,20.08l-2.96-.5C44.32,10.22,55.57.73,68.86.73c14.97,0,27.14,12.18,27.14,27.14,0,12.19-8.21,22.95-19.96,26.17-.75.21-1.52.38-2.35.53l-.12.06h-.27c-1.47.25-2.97.38-4.46.38Z"/>
  <path class="cls-1" d="M27.77,84.34l-6.8-1.24.52-4.36c-.24-.13-.48-.27-.71-.42l-3.55,2.58-4.41-5.32,3.19-3c-.1-.26-.19-.52-.28-.78l-4.38-.3.04-6.91,4.38-.25c.09-.26.18-.52.29-.78l-3.16-3.05,4.48-5.27,3.52,2.63c.24-.15.48-.28.72-.41l-.46-4.36,6.81-1.16,1.01,4.27c.27.04.55.09.82.15l2.45-3.64,5.96,3.49-1.98,3.92c.18.21.36.42.53.64l4.22-1.21,2.32,6.51-4.03,1.73c0,.28,0,.55,0,.83l4.01,1.78-2.4,6.48-4.2-1.26c-.17.22-.35.43-.54.63l1.93,3.94-6.01,3.42-2.4-3.67c-.14.03-.27.05-.41.08-.13.02-.27.04-.41.06l-1.06,4.26ZM24.28,80.65l1.26.23.91-3.65,1.12-.05c.41-.02.79-.06,1.17-.12.37-.06.76-.16,1.14-.27l1.08-.33,2.07,3.15,1.11-.63-1.65-3.38.83-.76c.58-.53,1.09-1.13,1.51-1.78l.61-.94,3.61,1.09.44-1.2-3.44-1.53.15-1.12c.1-.77.11-1.55.01-2.33l-.14-1.12,3.46-1.49-.43-1.2-3.62,1.04-.6-.95c-.41-.66-.92-1.26-1.49-1.79l-.83-.77,1.7-3.37-1.1-.65-2.1,3.13-1.07-.35c-.74-.24-1.51-.38-2.29-.42l-1.13-.06-.86-3.67-1.26.21.4,3.75-1.04.43c-.72.29-1.4.68-2.03,1.15l-.9.68-3.02-2.25-.83.97,2.71,2.62-.53,1c-.37.69-.64,1.43-.81,2.19l-.25,1.1-3.76.21v1.28s3.75.26,3.75.26l.24,1.1c.17.77.43,1.51.78,2.2l.51,1-2.74,2.58.81.98,3.05-2.22.89.69c.61.47,1.29.87,2.02,1.18l1.03.44-.44,3.74Z"/>
  <path class="cls-1" d="M27.14,73.63c-3.03,0-5.49-2.46-5.49-5.49s2.46-5.49,5.49-5.49,5.49,2.46,5.49,5.49-2.46,5.49-5.49,5.49ZM27.14,65.64c-1.38,0-2.49,1.12-2.49,2.49s1.12,2.49,2.49,2.49,2.49-1.12,2.49-2.49-1.12-2.49-2.49-2.49Z"/>
  <polygon class="cls-1" points="72.72 54.7 72.7 51.7 72.72 51.7 72.72 54.7"/>
  <path class="cls-1" d="M59.65,53.29h-.39l-.2-.11c-2.91-.75-6.03-1.78-9.28-3.06-6.29-2.49-11.76-4.26-16.25-5.27-.05,0-.11-.02-.16-.03l-.73-.16c-1.1-.23-2.14-.4-3.1-.53l-.21-.02c-.09-.01-.18-.02-.27-.03h-.12c-1.4-.16-2.01-.09-2.02-.09l-.4-2.97c.15-.02.95-.12,2.68.07h.02c.15,0,.3.03.46.04l.2.02c1.28.17,2.63.41,4.06.72l1.18.28c4.45,1.07,9.75,2.82,15.76,5.19,3.19,1.26,6.24,2.26,9.07,2.98l.4.1.29.29-1.01,1.07v1.51Z"/>
  <rect class="cls-1" x="61.41" y="52.51" width="3" height=".29"/>
  <polygon class="cls-1" points="32.13 43.34 32.13 43.33 35.13 43.33 32.13 43.34"/>
  <polygon class="cls-1" points="55.14 80.81 51.95 74.07 45.2 77.26 43.92 74.54 53.38 70.07 57.85 79.53 55.14 80.81"/>
  <polygon class="cls-1" points="42.81 25.37 38.35 15.91 41.06 14.63 44.25 21.38 50.99 18.19 52.27 20.91 42.81 25.37"/>
  <path class="cls-1" d="M68.69,44.69l-6.8-1.24.52-4.36c-.24-.13-.48-.27-.71-.42l-3.55,2.58-4.41-5.32,3.19-3c-.1-.26-.19-.52-.28-.78l-4.38-.3.04-6.91,4.38-.25c.09-.26.18-.52.29-.78l-3.16-3.05,4.47-5.27,3.52,2.63c.24-.15.48-.28.72-.41l-.46-4.36,6.81-1.16,1,4.27c.27.04.54.09.82.15l2.45-3.64,5.96,3.49-1.98,3.92c.18.21.36.42.53.64l4.22-1.21,2.32,6.51-4.03,1.73c0,.28,0,.55,0,.83l4.01,1.78-2.4,6.48-4.2-1.27c-.17.22-.35.43-.54.63l1.93,3.94-6.01,3.42-2.41-3.67c-.14.03-.27.05-.41.08-.14.02-.27.04-.41.06l-1.06,4.26ZM65.21,41l1.26.23.91-3.65,1.12-.05c.42-.02.8-.06,1.17-.12.37-.06.74-.15,1.14-.27l1.08-.33,2.07,3.15,1.11-.63-1.66-3.39.83-.76c.58-.53,1.09-1.12,1.51-1.78l.61-.94,3.61,1.09.44-1.2-3.44-1.53.15-1.12c.1-.77.11-1.55.01-2.33l-.14-1.12,3.46-1.49-.43-1.2-3.62,1.04-.6-.95c-.42-.66-.92-1.26-1.49-1.8l-.83-.77,1.7-3.37-1.1-.65-2.1,3.12-1.07-.34c-.75-.24-1.52-.38-2.29-.42l-1.13-.06-.86-3.67-1.26.21.4,3.75-1.04.42c-.72.29-1.4.68-2.03,1.15l-.9.68-3.02-2.25-.83.97,2.71,2.62-.53,1c-.37.69-.64,1.43-.81,2.19l-.25,1.1-3.76.21v1.28s3.75.26,3.75.26l.24,1.1c.17.77.43,1.51.78,2.2l.51,1-2.74,2.58.81.98,3.05-2.22.89.69c.62.48,1.29.87,2.02,1.18l1.04.44-.44,3.74Z"/>
  <path class="cls-1" d="M68.06,33.97c-3.03,0-5.49-2.46-5.49-5.49s2.46-5.49,5.49-5.49,5.49,2.46,5.49,5.49-2.46,5.49-5.49,5.49ZM68.06,25.99c-1.38,0-2.49,1.12-2.49,2.49s1.12,2.49,2.49,2.49,2.49-1.12,2.49-2.49-1.12-2.49-2.49-2.49Z"/>
</svg>