<?xml version="1.0" encoding="UTF-8"?>
<svg id="Capa_1" data-name="Capa 1" xmlns="http://www.w3.org/2000/svg" viewBox="0 0 96 96">
  <path d="M69.6,48c0-11.91-9.69-21.6-21.6-21.6s-21.6,9.69-21.6,21.6,9.69,21.6,21.6,21.6,21.6-9.69,21.6-21.6ZM62.71,36.82c2.12,2.8,3.4,6.11,3.69,9.61h-8.14c-.08-2.6-.38-5.1-.88-7.46,1.81-.55,3.6-1.27,5.32-2.15h0ZM57.38,57.02c.5-2.34.79-4.85.88-7.45h8.14c-.29,3.5-1.57,6.82-3.7,9.6-1.72-.87-3.51-1.6-5.32-2.15ZM53.57,59.29c-.54,1.68-1.89,5.29-4,6.66v-7.16c1.31.07,2.65.24,4,.5ZM49.57,55.65v-6.09h5.55c-.08,2.35-.34,4.6-.77,6.68-1.59-.32-3.19-.52-4.78-.6h0ZM49.57,37.21v-7.16c2.12,1.38,3.46,4.98,4,6.67-1.35.26-2.69.43-4,.5h0ZM55.12,46.43h-5.55v-6.08c1.63-.08,3.24-.29,4.78-.6.43,2.1.69,4.34.77,6.68ZM60.51,61.58c-1.81,1.67-3.97,2.97-6.28,3.81.93-1.45,1.72-3.24,2.37-5.33,1.32.41,2.63.92,3.91,1.52ZM56.6,35.94c-.64-2.08-1.44-3.87-2.37-5.33,2.33.84,4.44,2.12,6.28,3.81-1.28.6-2.59,1.12-3.91,1.52ZM46.43,58.79v7.16c-2.12-1.38-3.47-4.98-4-6.67,1.35-.26,2.69-.43,4-.5h0ZM40.88,49.57h5.56v6.09c-1.59.08-3.2.28-4.78.6-.43-2.08-.69-4.33-.78-6.68h0ZM38.62,57.02c-1.81.55-3.6,1.27-5.32,2.15-2.13-2.79-3.4-6.1-3.7-9.61h8.14c.08,2.57.38,5.08.88,7.46ZM39.4,60.06c.64,2.08,1.44,3.87,2.37,5.33-2.34-.84-4.45-2.12-6.28-3.81,1.27-.6,2.59-1.11,3.91-1.52ZM35.49,34.42c1.84-1.69,3.95-2.97,6.28-3.81-.93,1.46-1.73,3.25-2.37,5.33-1.32-.41-2.64-.92-3.91-1.52ZM29.6,46.43c.29-3.5,1.57-6.81,3.7-9.6,1.72.87,3.5,1.6,5.32,2.15-.5,2.36-.79,4.87-.88,7.45,0,0-8.14,0-8.14,0ZM46.43,40.35v6.08h-5.56c.08-2.35.35-4.6.78-6.68,1.54.32,3.14.52,4.78.6ZM46.43,30.04v7.16c-1.31-.07-2.66-.24-4-.5.53-1.68,1.88-5.29,4-6.67h0Z" fill="#033778"/>
  <path d="M90.95,35.9h0c2.33-.1,4.2-2.04,4.2-4.39l-.12-12.67c-.01-1.17-.48-2.26-1.31-3.08-.83-.82-1.93-1.25-3.1-1.25l-6.23.06h-.02c-1.32,0-2.76-1.48-4.43-3.21-3.74-3.85-8.87-9.13-19.97-7.37l-18.91,2.99c-1.37.22-2.63.78-3.59,1.6v-.56c0-2.41-1.96-4.38-4.38-4.38h-12.65c-2.41,0-4.38,1.96-4.38,4.38v6.23c0,1.32-1.42,2.68-3.24,4.41-3.89,3.71-9.22,8.79-7.56,19.91l2.82,18.93c.13.91.42,1.79.85,2.56l-3.76.03h-.15c-2.33.11-4.2,2.05-4.2,4.4l.12,12.66c0,1.17.48,2.26,1.31,3.08.82.81,1.91,1.25,3.05,1.25h.04l6.22-.06h.01c1.32,0,2.69,1.41,4.44,3.22,3.23,3.33,7.5,7.71,15.76,7.71,1.3,0,2.7-.11,4.21-.35l18.91-2.99c1.37-.22,2.63-.78,3.59-1.6v.57c0,2.41,1.96,4.37,4.37,4.37h12.66c2.41,0,4.37-1.96,4.37-4.37v-6.23c0-1.32,1.42-2.68,3.23-4.4,3.89-3.71,9.23-8.78,7.57-19.92l-2.82-18.93c-.13-.91-.42-1.79-.85-2.56l3.76-.03h.18ZM5.34,78.35c-.68,0-1.24-.55-1.24-1.22l-.11-12.49v-.15c0-.66.48-1.19,1.1-1.26l8.87-.08c2.53,0,4.39.54,6.43,1.88l16.65,10.89s.1.07.14.08c.58.33,1.01.91,1.2,1.61.2.73.11,1.48-.26,2.11-.85,1.45-2.67,1.39-3.97.88-1.52-.58-3.06-1.48-4.7-2.44-3.2-1.87-6.51-3.8-10.29-3.8h-.1c-.86,0-1.56.71-1.55,1.57,0,.86.71,1.55,1.56,1.55h.08c2.91,0,5.96,1.77,8.9,3.47,1.73,1,3.36,1.95,4.97,2.56,3.01,1.15,6.75.49,8.16-2.97l13.43-.12h.02c.73,0,1.41.28,1.92.79.75.73,1.01,1.72.72,2.64-.35,1.09-1.38,1.84-2.83,2.07l-18.91,2.99c-9.53,1.51-13.99-3.1-17.27-6.49-2.15-2.21-4.01-4.13-6.65-4.13h-.05l-6.23.06h-.01.02ZM34.35,16.78c0,2.42-.6,4.39-1.93,6.39l-11.01,16.49s-.04.06-.06.09l-.03.05c-.37.62-.96,1.07-1.67,1.25-.7.18-1.45.08-2.05-.27-.56-.33-.95-.85-1.11-1.48l-.03-.09c-.16-.72-.07-1.58.27-2.42.59-1.5,1.5-3.04,2.48-4.67,1.92-3.22,3.9-6.56,3.9-10.36,0-.86-.7-1.57-1.57-1.57s-1.57.7-1.57,1.57c0,2.93-1.8,5.98-3.55,8.93-1.02,1.72-1.98,3.35-2.61,4.96-.57,1.45-.7,2.98-.37,4.33h0l.02.09c.44,1.73,1.6,3.06,3.25,3.75v13.45c0,.72-.29,1.41-.81,1.93-.74.74-1.73.99-2.65.69-1.08-.36-1.82-1.39-2.03-2.85l-2.81-18.93c-1.42-9.53,3.23-13.96,6.63-17.21,2.26-2.15,4.2-4,4.2-6.66v-6.23c0-.68.56-1.24,1.24-1.24h12.65c.68,0,1.24.56,1.24,1.24v8.76h-.02ZM41.53,77.41c-.27-1.72-1.33-3.29-2.77-4.11l-16.67-10.91c-1.11-.73-2.22-1.27-3.4-1.66.74-1.02,1.14-2.21,1.14-3.46v-13.06c.18-.03.37-.07.58-.12,1.54-.4,2.69-1.25,3.6-2.69l11.01-16.49c1.58-2.37,2.38-4.89,2.46-7.68,1.07.95,2.43,1.47,3.87,1.47h.06l13.06-.12c.28,1.72,1.33,3.29,2.77,4.11l16.67,10.91c1.11.73,2.22,1.27,3.4,1.66-.74,1.01-1.14,2.21-1.14,3.47v13.05c-.18.03-.37.07-.58.12-1.54.39-2.69,1.25-3.6,2.69l-11.01,16.49c-1.58,2.37-2.38,4.88-2.46,7.68-1.07-.95-2.43-1.47-3.87-1.47h-.06s-13.06.12-13.06.12ZM61.65,79.21c0-2.41.6-4.38,1.93-6.39l11.01-16.49s.06-.09.1-.14c.37-.62.96-1.07,1.67-1.25.23-.06.46-.09.7-.09.48,0,.95.12,1.36.36.56.33.95.86,1.11,1.48l.03.09c.16.72.07,1.58-.26,2.43-.59,1.49-1.5,3.03-2.47,4.65-1.92,3.23-3.91,6.57-3.91,10.38,0,.86.7,1.56,1.56,1.56s1.57-.7,1.57-1.56c0-2.93,1.8-5.98,3.54-8.92,1.02-1.73,1.98-3.36,2.62-4.97.55-1.41.69-2.91.4-4.23h0l-.05-.19c-.44-1.73-1.59-3.07-3.25-3.76v-13.44c0-.73.29-1.41.81-1.93.74-.74,1.73-.99,2.65-.69,1.08.36,1.82,1.39,2.03,2.85l2.82,18.93c1.42,9.53-3.23,13.96-6.63,17.2-2.26,2.15-4.21,4.01-4.21,6.66v6.23c0,.68-.55,1.23-1.23,1.23h-12.66c-.68,0-1.24-.55-1.24-1.23v-8.76h0ZM75.62,30.98l-16.66-10.9s-.08-.05-.12-.07c-.57-.32-1.01-.9-1.2-1.6-.2-.72-.1-1.49.26-2.12.52-.89,1.4-1.2,2.31-1.2.58,0,1.16.13,1.67.32,1.51.58,3.05,1.48,4.68,2.43,3.21,1.87,6.52,3.81,10.3,3.81h.1c.42,0,.81-.17,1.1-.47s.45-.69.45-1.11c0-.86-.71-1.55-1.56-1.55h-.08c-2.91,0-5.96-1.77-8.9-3.47-1.73-1-3.36-1.95-4.97-2.56-3.01-1.15-6.75-.49-8.15,2.98l-13.44.12h-.04c-.71,0-1.38-.28-1.9-.79-.74-.73-1.01-1.72-.72-2.64.35-1.09,1.38-1.84,2.83-2.07l18.91-2.99c9.51-1.5,13.99,3.1,17.26,6.47,2.15,2.22,4.01,4.14,6.65,4.14h.05l6.23-.06h0c.67,0,1.24.56,1.25,1.23l.11,12.49v.15c0,.66-.48,1.19-1.11,1.26l-8.87.08c-2.53,0-4.39-.54-6.42-1.88h-.02Z" fill="#033778"/>
</svg>