<?xml version="1.0" encoding="UTF-8"?>
<svg id="Layer_2" data-name="Layer 2" xmlns="http://www.w3.org/2000/svg" viewBox="0 0 96 96">
  <defs>
    <style>
      .cls-1 {
        fill: none;
        stroke: #223c75;
        stroke-linejoin: round;
        stroke-width: 3px;
      }
    </style>
  </defs>
  <path class="cls-1" d="M67.89,57.06c2.57-5.88,3.69-13.85,3.69-23.77l-24.87-13.57-24.88,13.57c0,20.61,6.31,31.91,12.63,38.07,5.4,5.27,10.81,6.76,12.25,7.08,1.02-.23,13.27-3.3,21.18-21.38Z"/>
  <circle class="cls-1" cx="46.71" cy="6.86" r="5.36"/>
  <circle class="cls-1" cx="47.46" cy="89.14" r="5.36"/>
  <circle class="cls-1" cx="88.63" cy="28.15" r="5.36"/>
  <circle class="cls-1" cx="88.63" cy="69.96" r="5.36"/>
  <circle class="cls-1" cx="7.37" cy="28.65" r="5.36"/>
  <circle class="cls-1" cx="7.37" cy="70.46" r="5.36"/>
  <line class="cls-1" x1="22.28" y1="33.51" x2="12.53" y2="30.08"/>
  <line class="cls-1" x1="70.99" y1="33.51" x2="83.36" y2="29.11"/>
  <line class="cls-1" x1="66.39" y1="60.22" x2="83.27" y2="67.49"/>
  <line class="cls-1" x1="47.18" y1="78.32" x2="47.18" y2="83.78"/>
  <line class="cls-1" x1="26.91" y1="60.43" x2="12.23" y2="68.21"/>
  <line class="cls-1" x1="46.71" y1="19.72" x2="46.71" y2="12.52"/>
  <line class="cls-1" x1="33.9" y1="8.61" x2="10.25" y2="24.13"/>
  <path class="cls-1" d="M27.27,6.3c.17.08,7.88,1.51,7.88,1.51l-1.55,7.92"/>
  <line class="cls-1" x1="59.62" y1="88.11" x2="83.27" y2="72.59"/>
  <path class="cls-1" d="M66.25,90.42c-.17-.08-7.88-1.51-7.88-1.51l1.55-7.92"/>
  <line class="cls-1" x1="88.71" y1="56.43" x2="88.71" y2="32.85"/>
  <path class="cls-1" d="M94.31,52.18c-.16.09-5.6,5.74-5.6,5.74l-5.75-5.66"/>
  <line class="cls-1" x1="7.29" y1="41.99" x2="7.29" y2="65.58"/>
  <path class="cls-1" d="M1.69,46.24c.16-.09,5.6-5.74,5.6-5.74l5.75,5.66"/>
  <line class="cls-1" x1="74.07" y1="16.88" x2="52.16" y2="8.17"/>
  <path class="cls-1" d="M72.19,10.11c.03.19,3.26,7.33,3.26,7.33l-7.38,3.25"/>
  <line class="cls-1" x1="20.18" y1="79.63" x2="42.09" y2="88.35"/>
  <path class="cls-1" d="M22.06,86.4c-.03-.19-3.26-7.33-3.26-7.33l7.38-3.25"/>
  <rect class="cls-1" x="36.58" y="42.72" width="22.34" height="17.43" rx="3.63" ry="3.63"/>
  <path class="cls-1" d="M41.34,42.72v-5.67c0-3.17,2.57-5.74,5.74-5.74h0c3.17,0,5.74,2.57,5.74,5.74v4.94"/>
  <line class="cls-1" x1="36.58" y1="48.64" x2="31.14" y2="48.64"/>
  <line class="cls-1" x1="36.58" y1="54.56" x2="31.2" y2="54.56"/>
  <line class="cls-1" x1="64.37" y1="48.64" x2="58.92" y2="48.64"/>
  <line class="cls-1" x1="64.37" y1="54.56" x2="58.99" y2="54.56"/>
</svg>