<?xml version="1.0" encoding="UTF-8"?>
<svg id="Layer_1" data-name="Layer 1" xmlns="http://www.w3.org/2000/svg" viewBox="0 0 96 96">
  <defs>
    <style>
      .cls-1 {
        fill: #033778;
      }
    </style>
  </defs>
  <path class="cls-1" d="M47.73,45.09c-5.14,0-9.33-4.18-9.33-9.33s4.18-9.33,9.33-9.33,9.33,4.18,9.33,9.33-4.18,9.33-9.33,9.33ZM47.73,29.44c-3.49,0-6.33,2.84-6.33,6.33s2.84,6.33,6.33,6.33,6.33-2.84,6.33-6.33-2.84-6.33-6.33-6.33Z"/>
  <rect class="cls-1" x="46.24" y="43.59" width="3" height="52.41"/>
  <rect class="cls-1" x="46.24" y="7.14" width="3" height="20.8"/>
  <rect class="cls-1" x="55.55" y="34.26" width="21.26" height="3"/>
  <rect class="cls-1" x="18.66" y="34.26" width="21.25" height="3"/>
  <polygon class="cls-1" points="47.73 8.9 40.9 2.06 43.02 -.06 47.73 4.65 52.45 -.06 54.57 2.06 47.73 8.9"/>
  <polygon class="cls-1" points="13.94 42.6 11.82 40.48 16.53 35.76 11.82 31.05 13.94 28.93 20.78 35.76 13.94 42.6"/>
  <polygon class="cls-1" points="82.06 42.6 75.22 35.76 82.06 28.93 84.18 31.05 79.47 35.76 84.18 40.48 82.06 42.6"/>
  <rect class="cls-1" x="50.29" y="21.39" width="21.18" height="3" transform="translate(1.65 49.75) rotate(-45)"/>
  <rect class="cls-1" x="24.12" y="47.47" width="21.34" height="3" transform="translate(-24.44 38.94) rotate(-45)"/>
  <polygon class="cls-1" points="28.75 64.68 25.75 64.68 25.75 58.01 19.08 58.01 19.08 55.01 28.75 55.01 28.75 64.68"/>
  <polygon class="cls-1" points="76.92 16.51 67.25 16.51 67.25 6.85 70.25 6.85 70.25 13.51 76.92 13.51 76.92 16.51"/>
  <rect class="cls-1" x="33.49" y="12.35" width="3" height="20.8" transform="translate(-5.84 31.4) rotate(-45)"/>
  <rect class="cls-1" x="59.57" y="37.98" width="3" height="21.72" transform="translate(-16.65 57.46) rotate(-44.98)"/>
  <polygon class="cls-1" points="70.25 64.68 67.25 64.68 67.25 55.01 76.92 55.01 76.92 58.01 70.25 58.01 70.25 64.68"/>
  <polygon class="cls-1" points="28.75 16.51 19.08 16.51 19.08 13.51 25.75 13.51 25.75 6.85 28.75 6.85 28.75 16.51"/>
  <rect class="cls-1" x="59.11" y="34.9" width="3" height="12.11" transform="translate(-.64 80.94) rotate(-67.19)"/>
  <rect class="cls-1" x="33.98" y="24.83" width="3" height="11.1" transform="translate(-6.29 51.29) rotate(-67.16)"/>
  <rect class="cls-1" x="54.61" y="29.22" width="12.11" height="3" transform="translate(-7.11 25.19) rotate(-22.19)"/>
  <rect class="cls-1" x="29.87" y="39.51" width="11.1" height="3" transform="translate(-12.86 16.42) rotate(-22.19)"/>
  <rect class="cls-1" x="47.41" y="21.94" width="12.12" height="3" transform="translate(11.12 63.63) rotate(-67.17)"/>
  <rect class="cls-1" x="37.34" y="47.06" width="11.1" height="3" transform="translate(-18.5 69.26) rotate(-67.17)"/>
  <rect class="cls-1" x="41.73" y="17.32" width="3" height="12.11" transform="translate(-5.63 18.05) rotate(-22.18)"/>
  <rect class="cls-1" x="52.02" y="43.07" width="3" height="11.1" transform="translate(-14.39 23.79) rotate(-22.17)"/>
</svg>