<?xml version="1.0" encoding="UTF-8"?>
<svg id="Layer_1" data-name="Layer 1" xmlns="http://www.w3.org/2000/svg" viewBox="0 0 96 96">
  <defs>
    <style>
      .cls-1 {
        stroke-linecap: round;
      }

      .cls-1, .cls-2 {
        fill: none;
        stroke: #223c75;
        stroke-miterlimit: 10;
        stroke-width: 3px;
      }
    </style>
  </defs>
  <g>
    <path class="cls-1" d="M4.01,24.11c2.43,3.09,16.74,5.46,34.06,5.46,1.85,0,3.67-.03,5.44-.08"/>
    <path class="cls-1" d="M72.89,7.89c0,3.53-15.42,6.4-34.44,6.4S4.01,11.43,4.01,7.89,19.44,1.5,38.45,1.5s34.44,2.86,34.44,6.39Z"/>
    <path class="cls-1" d="M72.89,7.89c0,3.53-15.42,6.4-34.44,6.4S4.01,11.43,4.01,7.89,19.44,1.5,38.45,1.5s34.44,2.86,34.44,6.39Z"/>
    <path class="cls-1" d="M4.01,38.46c0,1.15,1.63,2.23,4.49,3.16,5.92,1.94,17.11,3.24,29.95,3.24,19.02,0,34.44-2.86,34.44-6.39"/>
    <path class="cls-1" d="M4.02,54.68c2.43,3.09,16.74,5.47,34.05,5.47,3.33,0,6.55-.08,9.61-.25"/>
    <line class="cls-1" x1="52.98" y1="59.52" x2="52.97" y2="59.52"/>
    <path class="cls-1" d="M44.53,75.32c-1.97.07-4.01.1-6.08.1-18.82,0-34.11-2.81-34.43-6.29-.01-.04-.01-.07-.01-.11"/>
    <polyline class="cls-1" points="4.01 69.13 4.01 69.03 4.01 62.9 4.01 54.68 4.01 52.28 4.01 41.67 4.01 38.46 4.01 31.07 4.01 24.11 4.01 20.44 4.01 11.58 4.01 7.89"/>
    <polyline class="cls-1" points="72.89 47.85 72.89 41.67 72.89 38.46 72.89 31.08 72.89 23.18 72.89 23.17 72.89 20.44 72.89 11.58 72.89 7.9"/>
    <path class="cls-1" d="M59.9,28.12c7.7-1.17,12.99-2.95,12.99-4.95"/>
  </g>
  <path class="cls-2" d="M84.36,64.48l5.21-4.08-3.78-5.51-5.67,3.39c-1.1-1.02-2.32-1.88-3.62-2.58l1.37-6.47-6.44-1.79-2.17,6.24c-1.47-.08-2.95.03-4.43.35l-3.11-5.83-6.08,2.77,2.35,6.18c-1.2.91-2.26,1.96-3.17,3.11l-6.13-2.47-2.88,6.03,5.78,3.22c-.33,1.44-.48,2.92-.43,4.42l-6.28,2.05,1.67,6.47,6.49-1.25c.69,1.35,1.54,2.58,2.51,3.67l-3.49,5.61,5.44,3.88,4.17-5.13c1.37.58,2.8.98,4.28,1.19l.93,6.55,6.66-.52-.1-6.61c.7-.22,1.4-.47,2.08-.79.69-.31,1.34-.67,1.96-1.05l4.92,4.42,4.77-4.68-4.33-5c.81-1.25,1.45-2.6,1.92-4.01l6.61.22.64-6.65-6.52-1.05c-.18-1.45-.55-2.89-1.12-4.3Z"/>
  <circle class="cls-2" cx="68.24" cy="70.93" r="6.52"/>
</svg>