<?xml version="1.0" encoding="UTF-8"?>
<svg id="Layer_1" data-name="Layer 1" xmlns="http://www.w3.org/2000/svg" viewBox="0 0 96 96">
  <defs>
    <style>
      .cls-1 {
        stroke-miterlimit: 10;
      }

      .cls-1, .cls-2, .cls-3 {
        fill: none;
        stroke: #223c75;
        stroke-width: 3px;
      }

      .cls-1, .cls-3 {
        stroke-linecap: round;
      }

      .cls-2, .cls-3 {
        stroke-linejoin: round;
      }
    </style>
  </defs>
  <g>
    <path class="cls-1" d="M1.51,24.48c2.4,3.06,16.57,5.4,33.7,5.4,1.83,0,3.63-.03,5.38-.08"/>
    <path class="cls-1" d="M69.65,8.43c0,3.49-15.26,6.34-34.07,6.34S1.51,11.92,1.51,8.43,16.77,2.1,35.58,2.1s34.07,2.83,34.07,6.33Z"/>
    <path class="cls-1" d="M69.65,8.43c0,3.49-15.26,6.34-34.07,6.34S1.51,11.92,1.51,8.43,16.77,2.1,35.58,2.1s34.07,2.83,34.07,6.33Z"/>
    <path class="cls-1" d="M1.51,38.67c0,1.13,1.61,2.21,4.44,3.12,5.86,1.92,16.93,3.2,29.63,3.2,18.81,0,34.07-2.83,34.07-6.33"/>
    <path class="cls-1" d="M1.51,54.72c2.4,3.05,16.57,5.4,33.7,5.4,6.08,0,11.83-.29,16.83-.8"/>
    <path class="cls-1" d="M41.59,75.14c-1.95.07-3.97.1-6.01.1-18.62,0-33.75-2.78-34.07-6.23-.01-.04-.01-.07-.01-.11"/>
    <polyline class="cls-1" points="1.51 69.01 1.51 68.91 1.51 62.85 1.51 54.72 1.51 52.35 1.51 41.84 1.51 38.67 1.51 31.36 1.51 24.47 1.51 20.84 1.51 12.07 1.51 8.43"/>
    <polyline class="cls-1" points="69.66 8.43 69.66 12.08 69.66 20.84 69.66 23.54 69.66 23.55 69.66 31.36 69.66 38.67 69.66 41.85 69.66 48.16"/>
    <path class="cls-1" d="M56.8,28.44c7.62-1.15,12.85-2.92,12.85-4.9"/>
  </g>
  <g>
    <path class="cls-2" d="M65.57,93.2l-24.21-18.23c-1.7-1.28-1.84-3.78-.3-5.24l25.32-24.03,20.4,15.36-16.09,30.98c-.98,1.89-3.42,2.44-5.12,1.16Z"/>
    <line class="cls-1" x1="82.65" y1="67.86" x2="60.79" y2="51.4"/>
    <rect class="cls-3" x="80.15" y="30.63" width="7.56" height="25.1" transform="translate(42.86 -41.8) rotate(36.98)"/>
    <line class="cls-1" x1="60.48" y1="62.93" x2="45.75" y2="77.92"/>
    <line class="cls-1" x1="66.05" y1="66.62" x2="63.03" y2="70.63"/>
    <line class="cls-1" x1="60.55" y1="74.06" x2="53.37" y2="83.59"/>
    <line class="cls-1" x1="68.9" y1="75.35" x2="61.78" y2="89.92"/>
  </g>
</svg>