<?xml version="1.0" encoding="UTF-8"?>
<svg id="Layer_1" data-name="Layer 1" xmlns="http://www.w3.org/2000/svg" viewBox="0 0 96 96">
  <defs>
    <style>
      .cls-1 {
        stroke-miterlimit: 10;
      }

      .cls-1, .cls-2, .cls-3 {
        fill: none;
        stroke: #033778;
        stroke-width: 3px;
      }

      .cls-2 {
        stroke-linecap: round;
      }

      .cls-2, .cls-3 {
        stroke-linejoin: round;
      }
    </style>
  </defs>
  <rect class="cls-1" x="16.31" y="1.6" width="30.99" height="42.12" rx="14.17" ry="14.17"/>
  <path class="cls-3" d="M16.31,18.65c6.45-.44,15.68-1.96,21.11-5.63,2.32,1.73,6.4,4.38,9.88,5.18"/>
  <path class="cls-3" d="M25.2,42.31v6.58c0,.25,0,.5.04.74.17,1.54.87,2.92,1.91,3.96,1.21,1.2,2.87,1.95,4.71,1.95,3.42,0,6.23-2.57,6.6-5.89.04-.25.05-.51.05-.76v-6.62"/>
  <path class="cls-3" d="M47.96,83.87H1.5v-15.62c0-6.47,4.17-12.21,10.31-14.23l13.42-4.39c.17,1.54.88,2.92,1.91,3.97,1.21,1.2,2.87,1.94,4.7,1.94,3.42,0,6.23-2.57,6.61-5.89l7.57,2.51"/>
  <line class="cls-3" x1="14.8" y1="84.18" x2="14.8" y2="64.52"/>
  <rect class="cls-2" x="52.6" y="65.41" width="13.97" height="28.99"/>
  <rect class="cls-2" x="66.57" y="52.9" width="13.97" height="41.49"/>
  <rect class="cls-2" x="80.53" y="58.41" width="13.97" height="35.99"/>
  <circle class="cls-1" cx="58" cy="53.27" r="3.25"/>
  <circle class="cls-1" cx="87.81" cy="44.56" r="3.25"/>
  <circle class="cls-1" cx="73.29" cy="38.46" r="3.25"/>
  <line class="cls-1" x1="70.84" y1="40.35" x2="60.31" y2="51.05"/>
  <line class="cls-1" x1="76.74" y1="39.59" x2="84.91" y2="43.47"/>
</svg>