<?xml version="1.0" encoding="UTF-8"?>
<svg id="Layer_1" data-name="Layer 1" xmlns="http://www.w3.org/2000/svg" viewBox="0 0 96 96">
  <defs>
    <style>
      .cls-1 {
        fill: #223c75;
      }
    </style>
  </defs>
  <path class="cls-1" d="M25.17,93.79c-.24,0-.48-.06-.7-.17l-.1-.05L1.39,80.42c-.47-.27-.75-.76-.75-1.3v-25.44c0-.54.29-1.03.75-1.3.46-.27,1.03-.27,1.5,0l22.28,12.75,22.29-12.75c.47-.26,1.03-.26,1.5,0,.46.27.75.76.75,1.3v25.44c0,.54-.29,1.03-.75,1.3l-23.08,13.21c-.22.11-.46.17-.7.17ZM3.64,78.25l21.53,12.32,21.53-12.32v-21.98l-20.78,11.89c-.46.26-1.03.26-1.49,0L3.64,56.26v21.98Z"/>
  <path class="cls-1" d="M48.25,55.17c-.21,0-.42-.04-.61-.13-.53-.23-.9-.76-.9-1.37,0-.83.67-1.5,1.5-1.5h0c.23,0,.46.05.67.16.74.37,1.05,1.27.68,2.02-.26.53-.79.83-1.34.83Z"/>
  <path class="cls-1" d="M1.81,55.17c-.5,0-1-.25-1.28-.71-.43-.71-.21-1.63.49-2.06l23.29-14.3c.49-.3,1.1-.3,1.58,0l.18.12c.7.44.91,1.37.47,2.07-.27.44-.74.68-1.22.7L2.6,54.95c-.25.15-.52.22-.78.22Z"/>
  <path class="cls-1" d="M24.83,93.69h-.02c-.83-.01-1.49-.69-1.48-1.52l.33-25.33c.01-.82.68-1.48,1.5-1.48h.02c.83.01,1.49.69,1.48,1.52l-.33,25.33c-.01.82-.68,1.48-1.5,1.48Z"/>
  <path class="cls-1" d="M71.15,94.05c-.24,0-.48-.06-.7-.17l-.1-.05-22.94-13.35c-.46-.27-.75-.76-.75-1.3v-.22c0-.83.67-1.5,1.5-1.5.55,0,1.03.29,1.29.73l21.7,12.63,21.52-12.32v-21.98l-20.78,11.89c-.46.26-1.03.26-1.49,0l-22.96-13.14c-.72-.41-.97-1.33-.56-2.05.41-.72,1.33-.97,2.05-.56l22.21,12.71,22.28-12.75c.46-.26,1.04-.26,1.5,0,.46.27.75.76.75,1.3v25.44c0,.54-.29,1.03-.75,1.3l-23.07,13.2c-.22.12-.46.17-.7.17Z"/>
  <path class="cls-1" d="M94.24,55.43c-.27,0-.54-.07-.79-.22l-22.37-13.83-22.06,13.56c-.16.1-.33.16-.5.2-.62.13-1.29-.15-1.62-.73-.41-.72-.17-1.63.55-2.03.02,0,.04-.02.05-.03l22.78-14.01c.48-.3,1.09-.3,1.57,0l.25.16,22.91,14.16c.7.44.92,1.36.49,2.07-.28.46-.78.71-1.28.71Z"/>
  <path class="cls-1" d="M47.99,55.31c-.83,0-1.5-.67-1.5-1.5h0c0-.83.67-1.51,1.5-1.51s1.5.67,1.5,1.5-.67,1.5-1.5,1.5Z"/>
  <path class="cls-1" d="M70.82,93.94h-.02c-.83-.01-1.49-.69-1.48-1.52l.33-25.33c.01-.82.68-1.48,1.5-1.48h.02c.83.01,1.49.69,1.48,1.52l-.33,25.33c-.01.82-.68,1.48-1.5,1.48Z"/>
  <path class="cls-1" d="M47.11,55.8c-.52,0-1.02-.27-1.3-.75-.41-.72-.17-1.63.55-2.05l.88-.51c.72-.41,1.63-.17,2.05.55.41.72.17,1.63-.55,2.05l-.88.51c-.24.14-.49.2-.75.2Z"/>
  <path class="cls-1" d="M48,55.02c-.27,0-.54-.07-.79-.22l-22.72-14.03c-.71-.44-.92-1.36-.49-2.06.44-.71,1.36-.92,2.06-.49l22.72,14.03c.71.44.92,1.36.49,2.06-.28.46-.78.71-1.28.71Z"/>
  <path class="cls-1" d="M48.17,56.41c-.24,0-.49-.06-.72-.2l-.07-.04c-.72-.41-.96-1.33-.55-2.05.41-.72,1.33-.96,2.05-.55.72.41,1,1.35.58,2.07-.28.49-.78.76-1.29.76Z"/>
  <path class="cls-1" d="M47.11,55.8c-.52,0-1.02-.27-1.3-.75-.41-.72-.17-1.63.55-2.05l.88-.51c.72-.41,1.63-.17,2.05.55.41.72.17,1.63-.55,2.05l-.88.51c-.24.14-.49.2-.75.2Z"/>
  <path class="cls-1" d="M48,55.02c-.27,0-.54-.07-.79-.22l-22.72-14.03c-.44-.27-.71-.76-.71-1.28v-23.12c0-.53.28-1.03.75-1.3.46-.27,1.03-.27,1.5,0l22.41,12.75,22.16-12.75c.46-.27,1.04-.27,1.5,0,.46.27.75.76.75,1.3v23.41c0,.83-.67,1.5-1.5,1.5s-1.5-.67-1.5-1.5v-20.82l-20.66,11.88c-.46.27-1.03.27-1.49,0l-20.91-11.9v19.7l22.01,13.59c.71.44.92,1.36.49,2.06-.28.46-.78.71-1.28.71Z"/>
  <path class="cls-1" d="M25.28,17.86c-.5,0-.99-.25-1.27-.71-.44-.7-.22-1.63.48-2.07L47.45.78c.48-.3,1.1-.3,1.58,0l23.16,14.31c.71.44.92,1.36.49,2.06-.44.71-1.36.92-2.06.49L48.25,3.81l-22.17,13.82c-.25.15-.52.23-.79.23Z"/>
  <path class="cls-1" d="M48.12,55.02h-.02c-.83-.01-1.49-.69-1.48-1.52l.31-23.98c.01-.82.68-1.48,1.5-1.48h.02c.83.01,1.49.69,1.48,1.52l-.31,23.98c-.01.82-.68,1.48-1.5,1.48Z"/>
  <path class="cls-1" d="M47.99,55.3c-.83,0-1.5-.66-1.5-1.49h0c0-.83.67-1.51,1.5-1.51s1.5.66,1.5,1.49-.67,1.51-1.5,1.51Z"/>
</svg>