<?xml version="1.0" encoding="UTF-8"?>
<svg id="Layer_1" data-name="Layer 1" xmlns="http://www.w3.org/2000/svg" viewBox="0 0 96 96">
  <defs>
    <style>
      .cls-1 {
        fill: #223c75;
      }
    </style>
  </defs>
  <g>
    <path class="cls-1" d="M47.88,40.75c-12.4,0-26.12-1.88-28.83-6.07-.45-.7-.25-1.62.45-2.07.7-.45,1.63-.25,2.07.45,1.22,1.89,10.43,4.7,26.31,4.7,1.4,0,2.83-.03,4.35-.08.83-.07,1.52.62,1.55,1.45s-.62,1.52-1.45,1.55c-1.56.05-3.01.08-4.45.08Z"/>
    <path class="cls-1" d="M48.18,25.69c-10.16,0-29.37-1.63-29.37-7.81s18.46-7.8,29.37-7.8,29.37,1.64,29.37,7.8-19.21,7.81-29.37,7.81ZM48.18,13.08c-16.55,0-26.1,3.17-26.37,4.8.27,1.62,9.82,4.8,26.37,4.8s26.08-3.17,26.37-4.81c-.29-1.63-9.83-4.8-26.37-4.8ZM74.55,17.89h0,0Z"/>
    <path class="cls-1" d="M48.18,25.69c-10.16,0-29.37-1.63-29.37-7.81s18.46-7.8,29.37-7.8,29.37,1.64,29.37,7.8-19.21,7.81-29.37,7.81ZM48.18,13.08c-16.55,0-26.1,3.17-26.37,4.8.27,1.62,9.82,4.8,26.37,4.8s26.08-3.17,26.37-4.81c-.29-1.63-9.83-4.8-26.37-4.8ZM74.55,17.89h0,0Z"/>
    <path class="cls-1" d="M48.18,55.8c-10.35,0-19.62-1.23-24.8-3.3-3.03-1.2-4.57-2.71-4.57-4.5,0-.83.67-1.5,1.5-1.5s1.5.67,1.5,1.5c.01.03.27.77,2.68,1.72,4.78,1.9,13.85,3.09,23.69,3.09,16.55,0,26.1-3.17,26.37-4.8,0-.83.67-1.5,1.5-1.5s1.5.67,1.5,1.5c0,6.16-18.46,7.8-29.37,7.8ZM21.81,48h0,0Z"/>
    <path class="cls-1" d="M47.88,70.86c-12.4,0-26.12-1.88-28.83-6.07-.45-.7-.25-1.62.45-2.07.7-.45,1.63-.25,2.07.45,1.22,1.89,10.43,4.7,26.31,4.7s26.33-3.14,26.67-4.75c0-.83.67-1.49,1.5-1.49s1.5.68,1.5,1.51c0,6.11-18.65,7.74-29.67,7.74Z"/>
    <path class="cls-1" d="M48.18,85.92c-10.91,0-29.37-1.64-29.37-7.8,0-.83.67-1.5,1.5-1.5s1.5.67,1.5,1.5c.27,1.63,9.82,4.8,26.37,4.8s26.11-3.18,26.37-4.81c0-.83.67-1.5,1.5-1.5s1.5.67,1.5,1.5c0,6.16-18.46,7.8-29.37,7.8Z"/>
    <path class="cls-1" d="M20.31,79.67c-.83,0-1.5-.62-1.5-1.45V17.88c0-.83.67-1.5,1.5-1.5s1.5.67,1.5,1.5v60.24c0,.83-.67,1.55-1.5,1.55Z"/>
    <path class="cls-1" d="M76.05,79.87c-.83,0-1.5-.67-1.5-1.5V17.88c0-.83.67-1.5,1.5-1.5s1.5.67,1.5,1.5v60.49c0,.83-.67,1.5-1.5,1.5Z"/>
    <path class="cls-1" d="M65.53,39.31c-.71,0-1.34-.5-1.47-1.23-.15-.82.39-1.6,1.2-1.75,7.17-1.32,9.16-2.96,9.29-3.43,0-.83.67-1.49,1.5-1.49s1.5.69,1.5,1.51c0,1.04,0,4.19-11.74,6.35-.09.02-.18.02-.27.02Z"/>
  </g>
  <g>
    <path class="cls-1" d="M20.31,42.22h0c-7.95-.03-17.97-1.21-20.06-4.42-.45-.69-.26-1.62.44-2.08.69-.45,1.62-.26,2.08.44.66,1.01,6.66,3.01,17.56,3.06.83,0,1.5.68,1.49,1.51,0,.83-.67,1.49-1.5,1.49Z"/>
    <path class="cls-1" d="M25.82,23.15h0c-.83,0-1.5-.67-1.5-1.5s.67-1.5,1.5-1.5,1.5.67,1.5,1.5-.67,1.5-1.5,1.5Z"/>
    <path class="cls-1" d="M20.31,31.74h0C18.22,31.73,0,31.47,0,25.88s18.22-5.86,20.3-5.87h0c.82,0,1.5.67,1.5,1.49,0,.83-.66,1.5-1.49,1.51-10.3.06-16.1,1.83-17.2,2.87,1.11,1.04,6.91,2.81,17.2,2.86.83,0,1.5.68,1.49,1.51,0,.83-.68,1.49-1.5,1.49Z"/>
    <path class="cls-1" d="M37.73,25.23h0c-.83,0-1.5-.67-1.5-1.5s.67-1.5,1.5-1.5,1.5.67,1.5,1.5-.67,1.5-1.5,1.5Z"/>
    <path class="cls-1" d="M25.82,23.15h0c-.83,0-1.5-.67-1.5-1.5s.67-1.5,1.5-1.5,1.5.67,1.5,1.5-.67,1.5-1.5,1.5Z"/>
    <path class="cls-1" d="M20.31,31.74h0C18.22,31.73,0,31.47,0,25.88s18.22-5.86,20.3-5.87h0c.82,0,1.5.67,1.5,1.49,0,.83-.66,1.5-1.49,1.51-10.3.06-16.1,1.83-17.2,2.87,1.11,1.04,6.91,2.81,17.2,2.86.83,0,1.5.68,1.49,1.51,0,.83-.68,1.49-1.5,1.49Z"/>
    <path class="cls-1" d="M37.73,25.23h0c-.83,0-1.5-.67-1.5-1.5s.67-1.5,1.5-1.5,1.5.67,1.5,1.5-.67,1.5-1.5,1.5Z"/>
    <path class="cls-1" d="M23.95,52.61h0c-.83,0-1.5-.67-1.5-1.5s.67-1.5,1.5-1.5,1.5.67,1.5,1.5-.67,1.5-1.5,1.5Z"/>
    <path class="cls-1" d="M20.31,52.66h0c-2.08-.01-20.3-.28-20.3-5.87,0-.83.67-1.5,1.5-1.5.79,0,1.43.6,1.49,1.37.73,1.01,6.58,2.94,17.32,3,.83,0,1.5.68,1.49,1.51,0,.83-.68,1.49-1.5,1.49ZM3,46.79h0,0Z"/>
    <path class="cls-1" d="M20.31,63.12h0c-7.94-.03-17.96-1.21-20.06-4.41-.45-.69-.26-1.62.43-2.08.69-.45,1.62-.26,2.08.43.66,1.01,6.67,3.01,17.56,3.05.83,0,1.5.68,1.49,1.51,0,.83-.67,1.49-1.5,1.49Z"/>
    <path class="cls-1" d="M20.31,73.58h0c-2.08-.01-20.3-.28-20.3-5.87,0-.83.67-1.5,1.5-1.5.79,0,1.43.6,1.49,1.37.73,1.01,6.58,2.94,17.32,3,.83,0,1.5.68,1.49,1.51,0,.83-.68,1.49-1.5,1.49ZM3,67.71h0,0Z"/>
    <path class="cls-1" d="M1.5,69.28c-.83,0-1.5-.67-1.5-1.5V25.88c0-.83.67-1.5,1.5-1.5s1.5.67,1.5,1.5v41.91c0,.83-.67,1.5-1.5,1.5Z"/>
  </g>
  <g>
    <path class="cls-1" d="M76.05,42.22c-.82,0-1.49-.66-1.5-1.49,0-.83.66-1.51,1.49-1.51,10.68-.09,16.56-2.07,17.2-3.06.45-.69,1.38-.89,2.08-.44.69.45.89,1.38.44,2.08-2.06,3.16-11.89,4.35-19.69,4.42h-.01Z"/>
    <path class="cls-1" d="M70.19,23.15c-.83,0-1.5-.67-1.5-1.5s.67-1.5,1.5-1.5h0c.83,0,1.5.67,1.5,1.5s-.67,1.5-1.5,1.5Z"/>
    <path class="cls-1" d="M76.05,31.74c-.82,0-1.49-.66-1.5-1.48,0-.83.66-1.51,1.48-1.52,10.07-.11,15.75-1.85,16.85-2.86-1.09-1.02-6.77-2.76-16.85-2.87h-.34c-.83,0-1.5-.67-1.5-1.5s.67-1.5,1.5-1.5h.36c3.34.03,19.95.48,19.95,5.87s-16.6,5.83-19.93,5.86h-.02Z"/>
    <path class="cls-1" d="M58.28,25.23c-.83,0-1.5-.67-1.5-1.5s.67-1.5,1.5-1.5h0c.83,0,1.5.67,1.5,1.5s-.67,1.5-1.5,1.5Z"/>
    <path class="cls-1" d="M70.19,23.15c-.83,0-1.5-.67-1.5-1.5s.67-1.5,1.5-1.5h0c.83,0,1.5.67,1.5,1.5s-.67,1.5-1.5,1.5Z"/>
    <path class="cls-1" d="M76.05,31.74c-.82,0-1.49-.66-1.5-1.48,0-.83.66-1.51,1.48-1.52,10.07-.11,15.75-1.85,16.85-2.86-1.09-1.02-6.77-2.76-16.85-2.87h-.34c-.83,0-1.5-.67-1.5-1.5s.67-1.5,1.5-1.5h.36c3.34.03,19.95.48,19.95,5.87s-16.6,5.83-19.93,5.86h-.02Z"/>
    <path class="cls-1" d="M58.28,25.23c-.83,0-1.5-.67-1.5-1.5s.67-1.5,1.5-1.5h0c.83,0,1.5.67,1.5,1.5s-.67,1.5-1.5,1.5Z"/>
    <path class="cls-1" d="M76.05,52.66c-.82,0-1.49-.66-1.5-1.49,0-.83.66-1.51,1.49-1.51,10.51-.1,16.24-2.01,16.97-3,.07-.77.71-1.37,1.49-1.37.83,0,1.5.67,1.5,1.5,0,5.4-16.61,5.84-19.94,5.87h-.02Z"/>
    <path class="cls-1" d="M76.05,63.12c-.82,0-1.49-.66-1.5-1.49,0-.83.66-1.5,1.49-1.51,10.66-.08,16.56-2.06,17.21-3.05.46-.69,1.39-.88,2.08-.43.69.46.88,1.39.43,2.08-2.08,3.15-11.91,4.34-19.69,4.4h-.01Z"/>
    <path class="cls-1" d="M76.05,73.58c-.82,0-1.49-.66-1.5-1.49,0-.83.66-1.51,1.49-1.51,10.51-.1,16.24-2.01,16.97-3,.07-.77.71-1.37,1.49-1.37.83,0,1.5.67,1.5,1.5,0,5.4-16.61,5.84-19.94,5.87h-.02Z"/>
    <path class="cls-1" d="M94.5,69.28c-.83,0-1.5-.67-1.5-1.5V25.88c0-.83.67-1.5,1.5-1.5s1.5.67,1.5,1.5v41.91c0,.83-.67,1.5-1.5,1.5Z"/>
  </g>
</svg>