<?xml version="1.0" encoding="UTF-8"?>
<svg id="Layer_1" xmlns="http://www.w3.org/2000/svg" version="1.1" viewBox="0 0 96 96">
  <!-- Generator: Adobe Illustrator 29.3.1, SVG Export Plug-In . SVG Version: 2.1.0 Build 151)  -->
  <defs>
    <style>
      .st0 {
        fill: #033778;
      }
    </style>
  </defs>
  <path class="st0" d="M92.9,51.6l-7.8-14c-.6-1.2-1.9-1.9-3.2-1.9h-10.6v-10.1c0-1.4-1.2-2.6-2.6-2.6H20.6c-1.4,0-2.6,1.2-2.6,2.6v4.7h-6.2c-.8,0-1.4.6-1.4,1.4s.6,1.4,1.4,1.4h17.5c.8,0,1.4-.6,1.4-1.4s-.6-1.4-1.4-1.4h-8.5v-4.5h47.6v11.3s0,0,0,0v26.3h-21.1c-.7-3.7-3.9-6.4-7.8-6.4-3.9,0-7.1,2.8-7.7,6.4h-11v-8.2h4.2c.8,0,1.4-.6,1.4-1.4s-.6-1.4-1.4-1.4h-5.7s0,0,0,0,0,0,0,0H6.8c-.8,0-1.4.6-1.4,1.4s.6,1.4,1.4,1.4h11.1v9.6c0,.8.6,1.4,1.4,1.4h12.5c.7,3.7,3.9,6.4,7.8,6.4,3.9,0,7.1-2.8,7.7-6.4h22.4s0,0,.1,0h3.5c.7,3.7,3.9,6.4,7.8,6.4,3.9,0,7.1-2.8,7.7-6.4h2.6c1.4,0,2.5-1.1,2.5-2.5v-8c0-1.5-.4-3-1.1-4.3ZM44.6,65c0,2.8-2.2,5-5,5-2.7,0-4.9-2.2-5-4.8,0,0,0-.1,0-.2s0-.1,0-.2c0-2.7,2.3-4.9,5-4.8,2.8,0,5,2.2,5,5,0,0,0,0,0,0ZM86.2,65c0,2.8-2.2,5-5,5-2.7,0-4.9-2.2-5-4.8,0,0,0-.1,0-.2s0-.1,0-.2c0-2.7,2.3-4.9,5-4.9,2.8,0,5,2.2,5,5h0ZM91.1,63.6h-2.2c-.7-3.7-3.9-6.4-7.8-6.4-3.9,0-7.1,2.8-7.7,6.4h-2.1v-24.9h10.6c.3,0,.5.2.7.4l7.8,14c.5.9.8,1.9.8,2.9v7.6Z"/>
  <path class="st0" d="M19.4,36.3c-.8,0-1.4.6-1.4,1.4v8.2h-3.8c-.8,0-1.4.6-1.4,1.4s.6,1.4,1.4,1.4h25.5c.8,0,1.4-.6,1.4-1.4s-.6-1.4-1.4-1.4h-18.8v-8.2c0-.8-.6-1.4-1.4-1.4Z"/>
  <path class="st0" d="M14.8,39.8c0-.8-.6-1.4-1.4-1.4H3.4c-.8,0-1.4.6-1.4,1.4s.6,1.4,1.4,1.4h9.9c.8,0,1.4-.6,1.4-1.4Z"/>
</svg>