<?xml version="1.0" encoding="UTF-8"?>
<svg id="Layer_1" data-name="Layer 1" xmlns="http://www.w3.org/2000/svg" viewBox="0 0 96 96">
  <defs>
    <style>
      .cls-1 {
        fill: #033778;
      }
    </style>
  </defs>
  <path class="cls-1" d="M31.85,69.47c-10.96,0-19.88-8.66-19.88-19.31s8.92-19.31,19.88-19.31,19.88,8.66,19.88,19.31-8.92,19.31-19.88,19.31ZM31.85,33.85c-9.31,0-16.88,7.31-16.88,16.31s7.57,16.31,16.88,16.31,16.88-7.31,16.88-16.31-7.57-16.31-16.88-16.31Z"/>
  <path class="cls-1" d="M57,33.94c-9.05,0-16.41-7.15-16.41-15.95s7.36-15.95,16.41-15.95,16.41,7.15,16.41,15.95-7.36,15.95-16.41,15.95ZM57,5.05c-7.39,0-13.41,5.81-13.41,12.95s6.02,12.95,13.41,12.95,13.41-5.81,13.41-12.95-6.02-12.95-13.41-12.95Z"/>
  <path class="cls-1" d="M79.21,61.35c-7.58,0-13.75-6-13.75-13.36s6.17-13.36,13.75-13.36,13.75,6,13.75,13.36-6.17,13.36-13.75,13.36ZM79.21,37.62c-5.92,0-10.75,4.65-10.75,10.36s4.82,10.36,10.75,10.36,10.75-4.65,10.75-10.36-4.82-10.36-10.75-10.36Z"/>
  <path class="cls-1" d="M57,26.27c-4.57,0-8.28-3.71-8.28-8.28s3.71-8.28,8.28-8.28,8.28,3.71,8.28,8.28-3.71,8.28-8.28,8.28ZM57,12.72c-2.91,0-5.28,2.37-5.28,5.28s2.37,5.28,5.28,5.28,5.28-2.37,5.28-5.28-2.37-5.28-5.28-5.28Z"/>
  <rect class="cls-1" x="55.78" y="16.5" width="32.18" height="3"/>
  <path class="cls-1" d="M89.15,19.5h-12.53l2.96-8.82h12.53l-2.96,8.82ZM80.79,16.5h6.2l.95-2.82h-6.2l-.95,2.82Z"/>
  <polygon class="cls-1" points="92.11 25.32 79.58 25.32 77.29 18.47 80.13 17.52 81.74 22.32 87.94 22.32 86.65 18.47 89.49 17.52 92.11 25.32"/>
  <rect class="cls-1" x="40.99" y="30.86" width="8.12" height="3" transform="translate(-8.75 45.85) rotate(-49.77)"/>
  <rect class="cls-1" x="67.45" y="28.62" width="3" height="10.76" transform="translate(-5.83 51.8) rotate(-39.64)"/>
  <rect class="cls-1" x="15.71" y="57.17" width="32.4" height="3"/>
  <path class="cls-1" d="M44.54,60.17h-10.27v-17.54h10.27v17.54ZM37.27,57.17h4.27v-11.54h-4.27v11.54Z"/>
  <path class="cls-1" d="M37.27,60.17h-10.43v-22.64h10.43v22.64ZM29.84,57.17h4.43v-16.64h-4.43v16.64Z"/>
  <path class="cls-1" d="M29.84,60.17h-9.97v-14.1h9.97v14.1ZM22.87,57.17h3.97v-8.1h-3.97v8.1Z"/>
  <path class="cls-1" d="M87.01,82.85h-40.39l-10.34-4.17c-1.48-.59-2.42-2.01-2.4-3.6.02-1.59.99-2.98,2.48-3.54l10.28-3.89h40.38c4.19,0,7.6,3.41,7.6,7.6s-3.41,7.6-7.6,7.6ZM47.2,79.85h39.81c2.54,0,4.6-2.06,4.6-4.6s-2.06-4.6-4.6-4.6h-39.83l-9.77,3.7c-.48.18-.54.6-.54.77,0,.17.05.59.52.78l9.8,3.95Z"/>
  <rect class="cls-1" x="78.54" y="69.16" width="3" height="12.2"/>
  <rect class="cls-1" x="46.91" y="73.76" width="32.31" height="3"/>
  <rect class="cls-1" x="45.6" y="69.16" width="3" height="11.82"/>
  <path class="cls-1" d="M75.35,56.01c-.26,0-.52-.07-.75-.2-.46-.27-.75-.76-.75-1.3v-12.7c0-.53.28-1.03.75-1.3.46-.27,1.03-.27,1.5,0l11.15,6.35c.47.27.76.76.76,1.3s-.29,1.04-.76,1.3l-11.15,6.35c-.23.13-.49.2-.74.2ZM76.85,44.39v7.54l6.62-3.77-6.62-3.77Z"/>
  <rect class="cls-1" x="63.54" y="30.16" width="3" height="38.99"/>
  <rect class="cls-1" x="42.66" y="5.15" width="5.11" height="3"/>
  <polygon class="cls-1" points="66.54 96 1.39 96 1.39 5.15 22.73 5.15 22.73 8.15 4.39 8.15 4.39 93 63.54 93 63.54 81.36 66.54 81.36 66.54 96"/>
  <polygon class="cls-1" points="58.48 88.97 7.37 88.97 7.37 11.14 43.15 11.14 43.15 14.14 10.37 14.14 10.37 85.97 55.48 85.97 55.48 81.36 58.48 81.36 58.48 88.97"/>
  <rect class="cls-1" x="55.48" y="32.44" width="3" height="36.71"/>
  <path class="cls-1" d="M44.16,14.14h-22.93V4.53C21.23,2.03,23.26,0,25.76,0h13.87C42.13,0,44.16,2.03,44.16,4.53v9.61ZM24.23,11.14h16.93v-6.61c0-.84-.69-1.53-1.53-1.53h-13.87c-.84,0-1.53.69-1.53,1.53v6.61Z"/>
</svg>