<?xml version="1.0" encoding="UTF-8"?>
<svg id="Layer_1" data-name="Layer 1" xmlns="http://www.w3.org/2000/svg" viewBox="0 0 96 96">
  <defs>
    <style>
      .cls-1 {
        fill: #233b75;
      }

      .cls-2 {
        fill: #033778;
      }
    </style>
  </defs>
  <path class="cls-2" d="M62.34,37.79c-.37,0-.74-.14-1.03-.41l-8.37-7.97,8.34-8.34c.59-.59,1.54-.59,2.12,0s.59,1.54,0,2.12l-6.17,6.17,6.14,5.84c.6.57.62,1.52.05,2.12-.29.31-.69.47-1.09.47Z"/>
  <path class="cls-2" d="M79.42,37.79c-.38,0-.77-.15-1.06-.44-.59-.59-.59-1.54,0-2.12l6.17-6.17-6.14-5.84c-.6-.57-.62-1.52-.05-2.12.57-.6,1.52-.62,2.12-.05l8.37,7.96-8.34,8.34c-.29.29-.68.44-1.06.44Z"/>
  <path class="cls-2" d="M67.72,38.49c-.19,0-.38-.04-.57-.11-.77-.32-1.13-1.19-.82-1.96l6.2-15.1c.31-.76,1.19-1.13,1.96-.82.77.32,1.13,1.19.82,1.96l-6.2,15.1c-.24.58-.8.93-1.39.93Z"/>
  <path class="cls-2" d="M87.68,74.64h-45.41c-.83,0-1.5-.67-1.5-1.5s.67-1.5,1.5-1.5h45.41c2.93,0,5.32-2.05,5.32-4.57V14.27c0-2.52-2.39-4.57-5.32-4.57h-1.34c-.83,0-1.5-.67-1.5-1.5s.67-1.5,1.5-1.5h1.34c4.59,0,8.32,3.4,8.32,7.57v52.8c0,4.18-3.73,7.57-8.32,7.57Z"/>
  <path class="cls-1" d="M3,41.07H0V14.27c0-4.18,3.73-7.57,8.32-7.57h1.34v3h-1.34c-2.93,0-5.32,2.05-5.32,4.57v26.8Z"/>
  <path class="cls-2" d="M86.34,9.7H9.32c-.83,0-1.5-.67-1.5-1.5s.67-1.5,1.5-1.5h77.02c.83,0,1.5.67,1.5,1.5s-.67,1.5-1.5,1.5Z"/>
  <path class="cls-2" d="M94.5,66.8h-46.67c-.83,0-1.5-.67-1.5-1.5s.67-1.5,1.5-1.5h46.67c.83,0,1.5.67,1.5,1.5s-.67,1.5-1.5,1.5Z"/>
  <path class="cls-2" d="M53.97,82.49h-14.67v-10.85h14.67v10.85ZM42.31,79.49h8.67v-4.85h-8.67v4.85Z"/>
  <path class="cls-2" d="M77.12,89.3H16.01v-2.62c0-3.97,3.23-7.19,7.19-7.19h46.73c3.97,0,7.19,3.23,7.19,7.19v2.62ZM19.02,86.3h55.08c-.19-2.13-1.99-3.81-4.18-3.81H23.2c-2.18,0-3.98,1.68-4.18,3.81Z"/>
  <path class="cls-2" d="M53.73,74.64H8.32c-4.59,0-8.32-3.4-8.32-7.57V14.27c0-4.18,3.73-7.57,8.32-7.57h1.34c.83,0,1.5.67,1.5,1.5s-.67,1.5-1.5,1.5h-1.34c-2.93,0-5.32,2.05-5.32,4.57v52.8c0,2.52,2.39,4.57,5.32,4.57h45.41c.83,0,1.5.67,1.5,1.5s-.67,1.5-1.5,1.5Z"/>
  <path class="cls-2" d="M94.5,42.57c-.83,0-1.5-.67-1.5-1.5V14.27c0-2.52-2.39-4.57-5.32-4.57h-1.34c-.83,0-1.5-.67-1.5-1.5s.67-1.5,1.5-1.5h1.34c4.59,0,8.32,3.4,8.32,7.57v26.8c0,.83-.67,1.5-1.5,1.5Z"/>
  <path class="cls-2" d="M86.68,9.7H9.66c-.83,0-1.5-.67-1.5-1.5s.67-1.5,1.5-1.5h77.02c.83,0,1.5.67,1.5,1.5s-.67,1.5-1.5,1.5Z"/>
  <path class="cls-2" d="M48.17,66.8H1.5c-.83,0-1.5-.67-1.5-1.5s.67-1.5,1.5-1.5h46.67c.83,0,1.5.67,1.5,1.5s-.67,1.5-1.5,1.5Z"/>
  <path class="cls-2" d="M47.83,66.8c-.83,0-1.5-.67-1.5-1.5V8.2c0-.83.67-1.5,1.5-1.5s1.5.67,1.5,1.5v57.1c0,.83-.67,1.5-1.5,1.5Z"/>
  <path class="cls-2" d="M41.82,34.48h-14.72v-14.72h14.72v14.72ZM30.09,31.48h8.72v-8.72h-8.72v8.72Z"/>
  <path class="cls-2" d="M22.58,34.48H7.86v-14.72h14.72v14.72ZM10.86,31.48h8.72v-8.72h-8.72v8.72Z"/>
  <path class="cls-2" d="M41.82,55.93H7.82v-13.32h34v13.32ZM10.82,52.93h28v-7.32H10.82v7.32Z"/>
  <path class="cls-2" d="M88.41,44.36h-34.6c-.83,0-1.5-.67-1.5-1.5s.67-1.5,1.5-1.5h34.6c.83,0,1.5.67,1.5,1.5s-.67,1.5-1.5,1.5Z"/>
  <path class="cls-2" d="M88.41,51.78h-34.6c-.83,0-1.5-.67-1.5-1.5s.67-1.5,1.5-1.5h34.6c.83,0,1.5.67,1.5,1.5s-.67,1.5-1.5,1.5Z"/>
</svg>