<?xml version="1.0" encoding="UTF-8"?>
<svg id="Capa_1" data-name="Capa 1" xmlns="http://www.w3.org/2000/svg" viewBox="0 0 96 96">
  <defs>
    <style>
      .cls-1 {
        fill: #033778;
      }
    </style>
  </defs>
  <path class="cls-1" d="M43.63,48.57c-.83,0-1.51.67-1.51,1.51,0,3.65-2.97,6.62-6.62,6.62h-1.83c-3.65,0-6.62-2.97-6.62-6.62v-7.45c0-8.15-6.63-14.78-14.78-14.78h-3.59c-.83,0-1.51.67-1.51,1.51s.67,1.51,1.51,1.51h3.59c6.49,0,11.77,5.28,11.77,11.77v7.45c0,5.31,4.33,9.63,9.63,9.63h1.83c5.31,0,9.63-4.33,9.63-9.63,0-.83-.67-1.51-1.51-1.51Z"/>
  <path class="cls-1" d="M90.36,6.39c-1.73-1.73-4.56-1.73-6.3.01l-6.14,6.15H8.53c-4.02,0-7.3,3.27-7.3,7.3v48.74c0,4.02,3.27,7.3,7.3,7.3h28.22c-.03.29-.06.61-.12.97-.39,2.6-1.63,6.74-5.54,9.54-.85.6-1.83,1.15-2.94,1.6-.33.13-.6.38-.76.68s-.23.65-.16,1.01c.14.71.75,1.21,1.48,1.21h32.26c.72,0,1.34-.51,1.48-1.21.07-.35.01-.71-.16-1.01-.16-.3-.42-.54-.76-.68-1.11-.45-2.1-.99-2.94-1.6-3.91-2.8-5.16-6.94-5.54-9.54-.05-.36-.09-.68-.12-.97h28.22c4.02,0,7.3-3.27,7.3-7.3V20.85l5.04-5.04c.84-.84,1.31-1.97,1.3-3.17,0-1.19-.47-2.31-1.3-3.14l-3.1-3.11ZM51.57,45.08l3.22,3.22-3.95.72.73-3.94ZM49.92,75.87c.05.53.13,1.17.26,1.9.52,2.87,1.89,6.98,5.45,10.11h-21.59c3.56-3.13,4.93-7.23,5.45-10.11.13-.72.21-1.36.26-1.9h10.17ZM85.43,68.57c0,2.36-1.93,4.29-4.29,4.29H8.53c-2.36,0-4.29-1.93-4.29-4.29V19.84c0-2.36,1.93-4.29,4.29-4.29h66.38l-25.34,25.35s-.01.01-.02.01c-.02.02-.03.06-.06.08-.09.11-.17.22-.23.35-.03.07-.05.14-.07.21-.02.05-.04.1-.05.15l-1.64,8.92c-.09.48.07.98.42,1.33.08.08.17.15.26.21.03.02.06.03.09.05.07.04.14.07.22.1.03.01.07.02.1.03.08.02.15.03.23.04.03,0,.07.01.1.01.02,0,.04.01.06.01.09,0,.18-.01.27-.02l8.92-1.64c.06-.01.11-.04.17-.06s.12-.03.18-.06c.15-.07.29-.16.41-.28.01-.01.02-.01.02-.02l26.47-26.48v44.71ZM91.35,13.68l-33.45,33.45-5.16-5.16,26.87-26.87s.01-.02.02-.03l6.55-6.55c.57-.56,1.49-.57,2.05-.02l3.12,3.12c.27.27.42.63.42,1.01,0,.4-.15.77-.42,1.04h0Z"/>
</svg>