<?xml version="1.0" encoding="UTF-8"?>
<svg id="Layer_1" data-name="Layer 1" xmlns="http://www.w3.org/2000/svg" viewBox="0 0 96 96">
  <defs>
    <style>
      .cls-1 {
        fill: #223c75;
      }

      .cls-2 {
        fill: #033778;
      }
    </style>
  </defs>
  <path class="cls-1" d="M73.25,87.93h-1.43v-3h1.43c2.81,0,5.47-1.21,7.32-3.33,1.84-2.11,2.68-4.92,2.29-7.69l-1.3-9.46c-.75-5.45-4.42-10.03-9.57-11.94l-8.04-2.99c-4,2.11-9.49,3.31-15.21,3.31s-11.21-1.2-15.21-3.31l-8.05,2.99c-5.16,1.91-8.82,6.49-9.58,11.94l-1.3,9.46c-.38,2.78.45,5.58,2.29,7.7,1.84,2.12,4.51,3.33,7.32,3.33h.35v3h-.35c-3.67,0-7.17-1.59-9.58-4.36-2.41-2.77-3.51-6.44-3.01-10.08l1.3-9.46c.9-6.55,5.31-12.05,11.5-14.34l9.35-3.48.61.35c3.6,2.07,8.82,3.26,14.34,3.26s10.74-1.19,14.34-3.26l.61-.35,9.34,3.48c6.19,2.3,10.6,7.79,11.5,14.34l1.3,9.46c.5,3.63-.59,7.31-3.01,10.07-2.41,2.77-5.91,4.36-9.58,4.36Z"/>
  <path class="cls-1" d="M34.32,49.21l-1.33-2.69,3.73-1.84c.63-.31,1.03-.95,1.03-1.64v-2.78h3v2.78c0,1.85-1.04,3.51-2.7,4.33l-3.73,1.84Z"/>
  <path class="cls-1" d="M63.04,49.21l-3.73-1.84c-1.66-.82-2.69-2.48-2.69-4.33v-3.2h3v3.2c0,.7.39,1.33,1.02,1.64l3.73,1.84-1.33,2.69Z"/>
  <path class="cls-1" d="M73.32,88.53h-3v-27.04c0-.23-.18-.41-.41-.41H26.5c-.23,0-.41.18-.41.41v27.04h-3v-27.04c0-1.88,1.53-3.41,3.41-3.41h43.42c1.88,0,3.41,1.53,3.41,3.41v27.04Z"/>
  <path class="cls-1" d="M75.15,96H21.55c-3.84,0-6.97-3.13-6.97-6.97v-2h67.54v2c0,3.84-3.13,6.97-6.97,6.97ZM17.71,90.03c.45,1.7,2,2.97,3.84,2.97h53.6c1.84,0,3.4-1.26,3.84-2.97H17.71Z"/>
  <polygon class="cls-1" points="39.3 83.66 32.12 76.83 39.27 69.68 41.39 71.8 36.42 76.77 41.37 81.48 39.3 83.66"/>
  <polygon class="cls-1" points="55.67 83.63 53.55 81.51 58.53 76.53 53.58 71.82 55.64 69.65 62.82 76.48 55.67 83.63"/>
  <rect class="cls-1" x="40.6" y="75.35" width="13.64" height="3" transform="translate(-41.68 91.5) rotate(-67.66)"/>
  <path class="cls-2" d="M48.7,44.65h-.72c-9.32,0-16.9-7.58-16.9-16.9v-10.56C31.08,7.87,38.66.28,47.98.28h.72c9.32,0,16.9,7.58,16.9,16.9v10.56c0,9.32-7.58,16.9-16.9,16.9ZM47.98,3.28c-7.67,0-13.9,6.24-13.9,13.9v10.56c0,7.67,6.24,13.9,13.9,13.9h.72c7.67,0,13.9-6.24,13.9-13.9v-10.56c0-7.67-6.24-13.9-13.9-13.9h-.72Z"/>
  <path class="cls-2" d="M39.39,21.88c-2.48,0-4.98-.44-7.36-1.37l1.09-2.79c7.2,2.8,15.69.44,19.76-5.5.32-.47.88-.72,1.44-.64.56.08,1.03.47,1.21,1.01,1.06,3.16,4.66,5.15,8.37,4.63l.41,2.97c-4.2.58-8.3-1.23-10.48-4.38-3.59,3.89-8.96,6.07-14.45,6.07Z"/>
</svg>