<?xml version="1.0" encoding="UTF-8"?>
<svg id="Layer_1" data-name="Layer 1" xmlns="http://www.w3.org/2000/svg" viewBox="0 0 96 96">
  <defs>
    <style>
      .cls-1 {
        fill: #033778;
      }
    </style>
  </defs>
  <g>
    <path class="cls-1" d="M70.73,95.06H24.7c-2.38,0-4.31-1.93-4.31-4.31V5.25c0-2.38,1.93-4.31,4.31-4.31h46.03c2.38,0,4.31,1.93,4.31,4.31v85.5c0,2.38-1.93,4.31-4.31,4.31ZM24.7,3.94c-.72,0-1.31.59-1.31,1.31v85.5c0,.72.59,1.31,1.31,1.31h46.03c.72,0,1.31-.59,1.31-1.31V5.25c0-.72-.59-1.31-1.31-1.31H24.7Z"/>
    <rect class="cls-1" x="60.76" y="7.04" width="12.58" height="3"/>
    <path class="cls-1" d="M34.98,10.04h-13.09c-.83,0-1.5-.67-1.5-1.5s.67-1.5,1.5-1.5h13.09c.83,0,1.5.67,1.5,1.5s-.67,1.5-1.5,1.5Z"/>
    <path class="cls-1" d="M55.2,16.02h-14.66c-2.02,0-3.86-1.1-4.81-2.88l-2.08-3.89c-.39-.73-.11-1.64.62-2.03.73-.39,1.64-.11,2.03.62l2.08,3.89c.43.8,1.25,1.29,2.16,1.29h14.66c.91,0,1.73-.49,2.15-1.29l2.09-3.9c.39-.73,1.3-1.01,2.03-.61.73.39,1,1.3.61,2.03l-2.09,3.89c-.93,1.77-2.77,2.88-4.8,2.88Z"/>
    <rect class="cls-1" x="21.88" y="87.07" width="51.65" height="3"/>
    <rect class="cls-1" x="47.18" y="6.76" width="7.96" height="3"/>
    <rect class="cls-1" x="40.88" y="6.76" width="2.41" height="3"/>
  </g>
  <rect class="cls-1" x="43.15" y="30.73" width="7.09" height="3" transform="translate(.84 65.64) rotate(-70.69)"/>
  <polygon class="cls-1" points="39.51 36.49 34.78 32.3 39.43 27.56 41.58 29.66 39.13 32.15 41.5 34.25 39.51 36.49"/>
  <polygon class="cls-1" points="54.44 36.42 52.29 34.32 54.74 31.83 52.37 29.74 54.36 27.49 59.09 31.68 54.44 36.42"/>
  <rect class="cls-1" x="37.49" y="43.17" width="4.6" height="3"/>
  <rect class="cls-1" x="46.06" y="43.17" width="10.24" height="3"/>
  <rect class="cls-1" x="37.49" y="55.15" width="4.6" height="3"/>
  <rect class="cls-1" x="46.06" y="55.15" width="10.24" height="3"/>
  <rect class="cls-1" x="51.7" y="60.64" width="4.6" height="3"/>
  <rect class="cls-1" x="37.49" y="60.64" width="10.24" height="3"/>
  <rect class="cls-1" x="51.7" y="48.66" width="4.6" height="3"/>
  <rect class="cls-1" x="37.49" y="48.66" width="10.24" height="3"/>
  <path class="cls-1" d="M46.89,84.98c-3.19,0-5.78-2.59-5.78-5.78s2.59-5.78,5.78-5.78,5.78,2.59,5.78,5.78-2.59,5.78-5.78,5.78ZM46.89,76.41c-1.53,0-2.78,1.25-2.78,2.78s1.25,2.78,2.78,2.78,2.78-1.25,2.78-2.78-1.25-2.78-2.78-2.78Z"/>
  <path class="cls-1" d="M23.38,85.11H.49V13.02h22.9v72.09ZM3.49,82.11h16.9V16.02H3.49v66.09Z"/>
  <path class="cls-1" d="M94.93,85.11h-22.9V13.02h22.9v72.09ZM75.03,82.11h16.9V16.02h-16.9v66.09Z"/>
  <rect class="cls-1" x="1.99" y="23.55" width="19.9" height="3"/>
  <rect class="cls-1" x="73.53" y="23.55" width="19.9" height="3"/>
  <rect class="cls-1" x="79.46" y="17.84" width="9.28" height="3"/>
  <rect class="cls-1" x="7.21" y="18.15" width="2.41" height="3"/>
  <rect class="cls-1" x="13.76" y="18.15" width="2.41" height="3"/>
  <rect class="cls-1" x="1.99" y="73.41" width="19.9" height="3"/>
  <rect class="cls-1" x="73.53" y="73.41" width="19.9" height="3"/>
</svg>