<?xml version="1.0" encoding="UTF-8"?>
<svg id="Layer_1" xmlns="http://www.w3.org/2000/svg" version="1.1" viewBox="0 0 96 96">
  <!-- Generator: Adobe Illustrator 29.3.1, SVG Export Plug-In . SVG Version: 2.1.0 Build 151)  -->
  <defs>
    <style>
      .st0 {
        fill: #033778;
      }
    </style>
  </defs>
  <path class="st0" d="M46.4,69.7l-2.7-2v-.2c.1-1,.1-2.1,0-3.1v-.2s2.7-2,2.7-2c.6-.4.7-1.2.4-1.8l-3.5-6.1c-.4-.6-1.1-.9-1.8-.6l-3.1,1.3h-.2c-.8-.7-1.7-1.3-2.7-1.7h-.2c0,0-.4-3.4-.4-3.4,0-.7-.7-1.2-1.4-1.2h-7c-.7,0-1.3.5-1.4,1.2l-.4,3.3h-.2c-.9.5-1.9,1-2.7,1.6h-.2c0,.1-3.1-1.2-3.1-1.2-.6-.3-1.4,0-1.8.6l-3.5,6.1c-.4.6-.2,1.4.4,1.8l2.7,2v.2c-.1,1-.1,2.1,0,3.1v.2s-2.7,2-2.7,2c-.6.4-.7,1.2-.4,1.8l3.5,6.1c.4.6,1.1.9,1.8.6l3.1-1.3h.2c.8.7,1.7,1.3,2.7,1.7h.2c0,0,.4,3.4.4,3.4,0,.7.7,1.2,1.4,1.2h7c.7,0,1.3-.5,1.4-1.2l.4-3.3h.2c.9-.5,1.8-1,2.7-1.6h.2c0-.1,3.1,1.2,3.1,1.2.6.3,1.4,0,1.8-.6l3.5-6.1c.4-.6.2-1.4-.4-1.8ZM41.5,75.1l-2.7-1.2c-.5-.2-1.1-.1-1.5.2-1.1.9-2.3,1.7-3.7,2.1-.5.2-.9.6-.9,1.2l-.3,2.9h-4.6l-.3-2.9c0-.5-.4-1-.9-1.2-1.3-.5-2.6-1.2-3.7-2.1-.4-.4-1-.4-1.5-.2l-2.7,1.2-2.3-3.9,2.4-1.8c.4-.3.6-.9.5-1.4-.3-1.4-.3-2.8,0-4.2.1-.5-.1-1.1-.5-1.4l-2.4-1.8,2.3-3.9,2.7,1.2c.5.2,1.1.1,1.5-.2,1.1-.9,2.3-1.7,3.7-2.1.5-.2.9-.6.9-1.2l.3-2.9h4.6l.3,2.9c0,.5.4,1,.9,1.2,1.3.5,2.6,1.2,3.7,2.1.4.4,1,.4,1.5.2l2.7-1.2,2.3,3.9-2.4,1.8c-.4.3-.6.9-.5,1.4.3,1.4.3,2.8,0,4.2-.1.5.1,1.1.5,1.4l2.4,1.8-2.3,3.9Z"/>
  <path class="st0" d="M30.1,60.1c-3.2,0-5.8,2.6-5.8,5.8.1,3.9,3.1,5.7,5.8,5.7s5.6-1.8,5.8-5.8c0-3.2-2.6-5.8-5.8-5.8ZM30.1,68.9c-1.7,0-3-1.4-3-3,0-2.1,1.6-3,3-3s2.9.9,3,3c0,1.7-1.4,3-3,3Z"/>
  <path class="st0" d="M17.3,42.9c-.1.4,0,.7,0,1.1.2.3.5.6.8.7.4.1.7,0,1.1,0,3.5-1.8,7.2-2.6,10.9-2.6,6.2,0,12.3,2.4,16.9,7,4.7,4.9,11.6,7.8,18.9,7.8h0c7.3,0,14.2-2.8,18.9-7.8,5-4.7,7.8-11.6,7.8-18.9s-2.8-14.2-7.8-18.9h0c-4.7-4.9-11.6-7.8-18.9-7.8-7.3,0-14.2,2.8-18.9,7.8-2.3,2.3-4.1,4.9-5.4,7.8l-.3.7-.3-.7c-.2-.4-.4-.6-.8-.8-.3-.1-.7-.1-1.1,0-.3.1-.6.4-.7.8s-.1.7,0,1.1l1.8,4c.1.3.4.6.8.7.3.1.7.1,1.1,0l4-1.8c.7-.3,1-1.1.7-1.8-.3-.7-1.1-1-1.8-.7l-1.2.5.4-.9c1.2-2.6,2.8-4.9,4.8-7,4.3-4.4,10.4-7,16.9-7s12.7,2.5,17,7c4.4,4.2,7,10.4,7,16.9s-2.5,12.7-7,17c-4.2,4.4-10.4,7-16.9,7s-12.7-2.5-17-7c-4.1-4.1-9.2-6.7-14.9-7.5-5.6-.8-11.1,0-16.1,2.6-.3.2-.6.5-.7.8Z"/>
  <path class="st0" d="M82.2,33.8l-2.7-2v-.2c.1-1,.1-2.1,0-3.1v-.2s2.7-2,2.7-2c.6-.4.7-1.2.4-1.8l-3.5-6.1c-.4-.6-1.1-.9-1.8-.6l-3.1,1.3h-.2c-.8-.7-1.7-1.3-2.7-1.7h-.2c0,0-.4-3.4-.4-3.4,0-.7-.7-1.2-1.4-1.2h-7c-.7,0-1.3.5-1.4,1.2l-.4,3.3h-.2c-.9.5-1.9,1-2.7,1.6h-.2c0,.1-3.1-1.2-3.1-1.2-.6-.3-1.4,0-1.8.6l-3.5,6.1c-.4.6-.2,1.4.4,1.8l2.7,2v.2c-.1,1-.1,2.1,0,3.1v.2s-2.7,2-2.7,2c-.6.4-.7,1.2-.4,1.8l3.5,6.1c.4.6,1.1.9,1.8.6l3.1-1.3h.2c.8.7,1.7,1.3,2.7,1.7h.2c0,0,.4,3.4.4,3.4,0,.7.7,1.2,1.4,1.2h7c.7,0,1.3-.5,1.4-1.2l.4-3.3h.2c.9-.5,1.9-1,2.7-1.6h.2c0-.1,3.1,1.2,3.1,1.2.6.3,1.4,0,1.8-.6l3.5-6.1c.4-.6.2-1.4-.4-1.8ZM77.3,39.3l-2.7-1.2c-.5-.2-1.1-.1-1.5.2-1.1.9-2.3,1.7-3.7,2.1-.5.2-.9.6-.9,1.2l-.3,2.9h-4.6l-.3-2.9c0-.5-.4-1-.9-1.2-1.3-.5-2.6-1.2-3.7-2.1-.4-.4-1-.4-1.5-.2l-2.7,1.2-2.3-3.9,2.4-1.8c.4-.3.6-.9.5-1.4-.3-1.4-.3-2.8,0-4.2.1-.5-.1-1.1-.5-1.4l-2.4-1.8,2.3-3.9,2.7,1.2c.5.2,1.1.1,1.5-.2,1.1-.9,2.3-1.7,3.7-2.1.5-.2.9-.6.9-1.2l.3-2.9h4.6l.3,2.9c0,.5.4,1,.9,1.2,1.3.5,2.6,1.2,3.7,2.1.4.4,1,.4,1.5.2l2.7-1.2,2.3,3.9-2.4,1.8c-.4.3-.6.9-.5,1.4.3,1.4.3,2.8,0,4.2-.1.5.1,1.1.5,1.4l2.4,1.8-2.3,3.9Z"/>
  <path class="st0" d="M65.9,24.3c-2.7,0-5.6,1.8-5.8,5.8,0,3.2,2.6,5.8,5.8,5.8s5.8-2.6,5.8-5.8c-.1-3.9-3.1-5.7-5.8-5.7ZM65.9,33.1h0c-1.4,0-2.9-.9-3-3,0-1.7,1.4-3,3-3s3,1.4,3,3c0,2.1-1.6,3-3,3Z"/>
  <path class="st0" d="M56.9,77.8c.7-.3,1-1.1.7-1.8l-1.8-4c-.1-.3-.4-.6-.8-.7-.3-.1-.7-.1-1.1,0l-4,1.8c-.8.4-1,1.2-.7,1.8.3.6.9,1.1,1.8.7l1.2-.5-.4.9c-1.2,2.6-2.8,4.9-4.8,7-4.2,4.4-10.4,7-16.9,7s-12.7-2.5-17-7c-7.4-7.4-9.1-18.6-4.4-27.8.3-.7,0-1.5-.6-1.9-.2-.1-.4-.2-.6-.2-.5,0-1,.3-1.2.8-5.3,10.1-3.2,23.1,4.9,31.1,6.1,6.2,14.9,8.9,23.6,7.4,8.7-1.6,16.1-7.2,19.6-15.1l.4-.8.3.8c.3.7,1.2,1,1.8.7Z"/>
  <path class="st0" d="M11.1,48.9c.5.6,1.4.6,1.9.2.6-.5.7-1.4.2-1.9s-.7-.5-1.1-.5-.6.1-.9.3c-.6.5-.7,1.4-.2,1.9Z"/>
</svg>