<?xml version="1.0" encoding="UTF-8"?>
<svg id="Layer_1" data-name="Layer 1" xmlns="http://www.w3.org/2000/svg" viewBox="0 0 96 96">
  <defs>
    <style>
      .cls-1, .cls-2, .cls-3 {
        stroke: #033778;
      }

      .cls-1, .cls-2, .cls-3, .cls-4 {
        fill: none;
        stroke-width: 3px;
      }

      .cls-1, .cls-4 {
        stroke-miterlimit: 10;
      }

      .cls-2 {
        stroke-linecap: round;
      }

      .cls-2, .cls-3 {
        stroke-linejoin: round;
      }

      .cls-4 {
        stroke: #223c75;
      }
    </style>
  </defs>
  <path class="cls-4" d="M57.05,60.67s-.09-.01-.13,0c-.92-.07-1.86-.07-2.8.03-.02,0-.04,0-.05,0-.47.04-.95.11-1.42.19-9.1,1.66-15.14,10.38-13.48,19.48,1.66,9.1,10.38,15.14,19.49,13.48,8.24-1.5,13.96-8.8,13.74-16.92"/>
  <path class="cls-4" d="M74.59,63.05c.74.15,1.49.24,2.26.28,1.28.07,2.59,0,3.9-.25.95-.17,1.85-.42,2.73-.74.01,0,.02,0,.04-.01.51-.18,1.01-.39,1.49-.63,6.64-3.19,10.6-10.52,9.22-18.1-1.66-9.1-10.38-15.14-19.49-13.48-8.15,1.49-13.84,8.65-13.74,16.67"/>
  <path class="cls-4" d="M83.18,62.43h.01"/>
  <path class="cls-4" d="M52.39,60.94s.44-.15,1.53-.23h.03c.12-.02.26-.02.39-.04.66-.03,1.51-.05,2.57-.01h0s.09.01.13,0c2.47.1,6.09.48,11.24,1.5,2.39.47,4.48.74,6.3.87,0,0,.02,0,.03,0h0"/>
  <line class="cls-4" x1="76.84" y1="63.33" x2="76.81" y2="63.14"/>
  <polyline class="cls-4" points="67.76 80.32 72.52 76.91 75.93 81.67"/>
  <polyline class="cls-4" points="65.7 43.27 60.94 46.68 57.53 41.92"/>
  <rect class="cls-1" x="16.25" y="1.88" width="30.86" height="41.94" rx="14.17" ry="14.17"/>
  <path class="cls-3" d="M16.25,20.86c7.8,3.4,16.76.43,21.08-6.62,1.28,4.27,5.5,6.84,9.78,6.18"/>
  <path class="cls-3" d="M25.1,42.42v6.56c0,.25,0,.49.04.74.17,1.53.87,2.91,1.9,3.95,1.21,1.2,2.86,1.94,4.69,1.94,3.4,0,6.2-2.56,6.58-5.86.04-.25.05-.5.05-.76v-6.59"/>
  <path class="cls-3" d="M33.74,83.8H1.5v-15.55c0-6.44,4.15-12.16,10.27-14.17l13.37-4.37c.17,1.53.87,2.91,1.9,3.95,1.2,1.19,2.86,1.93,4.68,1.93,3.41,0,6.2-2.56,6.58-5.86l11.37,4.1"/>
  <line class="cls-3" x1="14.74" y1="84.1" x2="14.74" y2="64.53"/>
  <path class="cls-1" d="M57.96,68.37h0c-.7-.17-1.42-.26-2.17-.26s-1.48.09-2.18.26l-.14,1.81c-1,.32-1.91.86-2.69,1.55l-1.63-.78c-1.01,1.05-1.76,2.34-2.17,3.78l1.49,1.02c-.11.5-.17,1.02-.17,1.55s.06,1.05.17,1.56l-1.49,1.02c.41,1.43,1.17,2.72,2.17,3.77l1.63-.78c.77.69,1.68,1.23,2.69,1.56l.14,1.8c.7.17,1.43.26,2.18.26s1.47-.09,2.17-.26h0s0,0,0,0h0s.14-1.81.14-1.81c1.01-.33,1.92-.86,2.69-1.56l1.63.79c1.01-1.05,1.77-2.34,2.18-3.78l-1.49-1.02c.11-.5.16-1.02.16-1.56s-.05-1.05-.16-1.55l1.49-1.02c-.41-1.44-1.17-2.73-2.18-3.78l-1.63.79c-.77-.69-1.68-1.23-2.69-1.55l-.14-1.81h0"/>
  <path class="cls-1" d="M80.65,37.77h0c-.7-.17-1.42-.26-2.17-.26s-1.48.09-2.18.26l-.14,1.81c-1,.32-1.91.86-2.69,1.55l-1.63-.78c-1.01,1.05-1.76,2.34-2.17,3.78l1.49,1.02c-.11.5-.17,1.02-.17,1.55s.06,1.05.17,1.56l-1.49,1.02c.41,1.43,1.17,2.72,2.17,3.77l1.63-.78c.77.69,1.68,1.23,2.69,1.56l.14,1.8c.7.17,1.43.26,2.18.26s1.47-.09,2.17-.26h0s0,0,0,0h0s.14-1.81.14-1.81c1.01-.33,1.92-.86,2.69-1.56l1.63.79c1.01-1.05,1.77-2.34,2.18-3.78l-1.49-1.02c.11-.5.16-1.02.16-1.56s-.05-1.05-.16-1.55l1.49-1.02c-.41-1.44-1.17-2.73-2.18-3.78l-1.63.79c-.77-.69-1.68-1.23-2.69-1.55l-.14-1.81h0"/>
  <circle class="cls-2" cx="55.79" cy="77.28" r=".03"/>
  <circle class="cls-2" cx="78.62" cy="46.6" r=".03"/>
</svg>