<?xml version="1.0" encoding="UTF-8"?>
<svg id="Layer_1" data-name="Layer 1" xmlns="http://www.w3.org/2000/svg" viewBox="0 0 96 96">
  <defs>
    <style>
      .cls-1 {
        fill: #223c75;
      }

      .cls-2 {
        fill: none;
        stroke: #223c75;
        stroke-linecap: round;
        stroke-linejoin: round;
        stroke-width: 3px;
      }
    </style>
  </defs>
  <path class="cls-2" d="M22.17,81.7c0,.54-.14,1.05-.41,1.49-.51.93-1.5,1.55-2.64,1.55-1.68,0-3.04-1.36-3.04-3.04,0-.92.41-1.75,1.06-2.3.54-.45,1.23-.74,1.98-.74h.02c1.67.01,3.02,1.37,3.02,3.04Z"/>
  <path class="cls-2" d="M61.7,89.49c-3.4,1.09-6.99,1.78-10.68,2.02v-.05c0-1.67-1.35-3.03-3.02-3.04h-.02c-1.68,0-3.04,1.36-3.04,3.04v.05c-4.07-.27-7.99-1.09-11.7-2.37.18-.38.29-.82.29-1.29,0-1.68-1.36-3.04-3.04-3.04-.08,0-.17,0-.25.01-1.19.1-2.18.87-2.59,1.94-2.06-1.04-4.02-2.23-5.88-3.57.26-.44.41-.95.41-1.49,0-1.67-1.35-3.03-3.02-3.04h-.02c-.75,0-1.44.29-1.98.74-8.75-8.22-14.21-19.89-14.21-32.84C2.94,21.68,23.11,1.5,48,1.5s45.06,20.18,45.06,45.06c0,13.3-5.76,25.24-14.92,33.48"/>
  <path class="cls-2" d="M73.4,83.78c-1.94,1.34-4.01,2.52-6.15,3.52"/>
  <line class="cls-2" x1="48" y1="88.42" x2="48" y2="65.8"/>
  <path class="cls-2" d="M51.02,91.46v.05c-.02,1.65-1.37,2.99-3.04,2.99s-3.02-1.35-3.04-2.99v-.05c0-1.68,1.36-3.04,3.04-3.04h.02c1.67.01,3.02,1.37,3.02,3.04Z"/>
  <polyline class="cls-2" points="37.92 65.8 37.92 74.38 30.23 79.58 30.23 84.82"/>
  <path class="cls-2" d="M33.52,87.85c0,.46-.11.91-.29,1.29-.49,1.04-1.54,1.75-2.75,1.75-1.68,0-3.04-1.36-3.04-3.04,0-.38.07-.75.2-1.09.41-1.07,1.4-1.85,2.59-1.94.08-.01.17-.01.25-.01,1.68,0,3.04,1.36,3.04,3.04Z"/>
  <polyline class="cls-2" points="19.15 78.66 19.15 71.91 28.34 65.63"/>
  <polyline class="cls-2" points="56.99 65.73 56.99 74.34 64.67 79.56 64.67 84.83"/>
  <polyline class="cls-2" points="66.57 65.63 75.76 71.91 75.76 78.68"/>
  <circle class="cls-2" cx="75.61" cy="81.71" r="3.04"/>
  <circle class="cls-2" cx="64.25" cy="87.85" r="3.04"/>
  <g>
    <path class="cls-1" d="M37.91,51.57v3.45h-13.88v-18.82h13.69v3.45h-9v3.95h8.58v3.45h-8.58v4.53h9.19Z"/>
    <path class="cls-1" d="M41.5,36.19h8.41c1.82,0,3.31.53,4.45,1.58s1.71,2.33,1.71,3.83c0,2.07-1.08,3.61-3.23,4.61.94.43,1.84,1.59,2.69,3.47.85,1.89,1.67,3.66,2.47,5.33h-5.15c-.31-.62-.84-1.8-1.6-3.54-.76-1.74-1.42-2.86-1.96-3.36s-1.13-.74-1.74-.74h-1.35v7.64h-4.69v-18.82ZM46.19,39.64v4.28h2.48c.79,0,1.42-.19,1.88-.56s.69-.91.69-1.6c0-1.42-.89-2.13-2.68-2.13h-2.37Z"/>
    <path class="cls-1" d="M60.36,36.19h8.39c1.9,0,3.42.55,4.54,1.66s1.68,2.41,1.68,3.92-.56,2.9-1.66,4.02-2.62,1.67-4.53,1.67h-3.73v7.56h-4.69v-18.82ZM65.05,39.64v4.37h2.18c1.95,0,2.92-.73,2.92-2.18,0-.82-.26-1.39-.78-1.7s-1.41-.48-2.67-.48h-1.66Z"/>
  </g>
  <path class="cls-2" d="M11.27,48.88c-.05-.73-.07-1.45-.07-2.19,0-19.96,16.18-36.14,36.14-36.14s36.13,16.18,36.13,36.14c0,.74-.02,1.47-.07,2.19"/>
</svg>