<?xml version="1.0" encoding="UTF-8"?>
<svg id="Capa_1" data-name="Capa 1" xmlns="http://www.w3.org/2000/svg" viewBox="0 0 96 96">
  <defs>
    <style>
      .cls-1 {
        fill: #033778;
      }
    </style>
  </defs>
  <path class="cls-1" d="M61.69,4.16c.94.42,1.2,1.18,1.2,2.15-.01,10.56,0,21.12,0,31.68,0,.37.01.74-.12,1.1-.27.74-.81,1.1-1.58,1.04-.77-.06-1.26-.5-1.38-1.28-.06-.36-.05-.74-.05-1.11,0-9.82-.01-19.63.02-29.45,0-.84-.24-1.03-1.05-1.03-16.04.02-32.07.02-48.11,0-.77,0-.99.18-.99.98.02,26.51.02,53.02,0,79.53,0,.81.24.97,1,.97,16.04-.02,32.07-.02,48.11,0,.82,0,1.05-.2,1.04-1.03-.03-9.82-.02-19.63-.02-29.45,0-.37,0-.75.05-1.11.12-.78.61-1.22,1.38-1.28.77-.06,1.33.3,1.57,1.05.1.32.13.67.13,1.01,0,10.59,0,21.17,0,31.76,0,1.62-.53,2.14-2.17,2.15-17.35,0-34.7,0-52.05,0-1.64,0-2.14-.5-2.14-2.15,0-27.79,0-55.59-.02-83.38,0-.95.27-1.65,1.08-2.14h54.11Z"/>
  <path class="cls-1" d="M83.9,49.56c-.31,0-.62,0-.92,0-15.3,0-30.59,0-45.89,0-.34,0-.69.01-1.03-.03-.79-.1-1.36-.75-1.37-1.51,0-.76.56-1.42,1.34-1.54.34-.05.68-.03,1.03-.03,15.27,0,30.53,0,45.8,0h1.04c.04-.42-.31-.55-.51-.75-4.92-4.93-9.84-9.85-14.77-14.77-.18-.18-.37-.36-.54-.55-.64-.74-.66-1.61-.07-2.23.62-.64,1.46-.65,2.23,0,.2.16.37.35.55.53,5.89,5.89,11.78,11.79,17.67,17.68,1.35,1.35,1.35,1.96.02,3.28-5.91,5.91-11.82,11.83-17.73,17.74-1.11,1.11-1.96,1.27-2.72.51-.76-.76-.6-1.61.51-2.72,4.92-4.92,9.85-9.85,14.77-14.77.22-.22.48-.4.72-.6-.05-.08-.09-.16-.14-.24Z"/>
</svg>