<?xml version="1.0" encoding="UTF-8"?>
<svg id="Layer_1" data-name="Layer 1" xmlns="http://www.w3.org/2000/svg" viewBox="0 0 96 96">
  <defs>
    <style>
      .cls-1 {
        fill: #033778;
      }
    </style>
  </defs>
  <path class="cls-1" d="M47.56,74.24c-11.53,0-22.78-3.57-32.49-10.43-5.6-3.96-10.42-8.83-14.3-14.46l-.58-.83.56-.85c8.77-13.22,22.02-22.07,37.3-24.93,15.04-2.81,30.27.55,42.88,9.47,5.6,3.96,10.42,8.83,14.3,14.46l.58.83-.56.85c-8.77,13.22-22.02,22.07-37.3,24.93-3.46.65-6.94.97-10.39.97ZM3.82,48.47c3.58,4.99,7.94,9.32,12.98,12.88,11.94,8.44,26.36,11.63,40.6,8.97,14.15-2.64,26.47-10.72,34.78-22.79-3.58-4.99-7.94-9.32-12.98-12.88-11.94-8.44-26.36-11.63-40.6-8.97-14.15,2.64-26.47,10.72-34.78,22.79Z"/>
  <path class="cls-1" d="M48,74.23c-14.04,0-25.45-11.77-25.45-26.23s11.42-26.23,25.45-26.23,25.45,11.77,25.45,26.23-11.42,26.23-25.45,26.23ZM48,24.77c-12.38,0-22.45,10.42-22.45,23.23s10.07,23.23,22.45,23.23,22.45-10.42,22.45-23.23-10.07-23.23-22.45-23.23Z"/>
  <path class="cls-1" d="M48.02,59.79c-6.27,0-11.37-5.24-11.37-11.69s5.1-11.69,11.37-11.69,11.37,5.24,11.37,11.69-5.1,11.69-11.37,11.69ZM48.02,39.41c-4.62,0-8.37,3.9-8.37,8.69s3.75,8.69,8.37,8.69,8.37-3.9,8.37-8.69-3.75-8.69-8.37-8.69Z"/>
</svg>