<?xml version="1.0" encoding="UTF-8"?>
<svg id="Layer_1" data-name="Layer 1" xmlns="http://www.w3.org/2000/svg" viewBox="0 0 96 96">
  <path d="M95.12,46.28h0c-.86-1.05-21.33-25.68-47.12-25.68S1.74,45.23.88,46.28c-.5.62-.5,1.51,0,2.13.86,1.05,21.3,25.68,47.12,25.68s46.26-24.63,47.12-25.68c.5-.62.5-1.51,0-2.13ZM91.59,47.34c-3.85,4.29-22.22,23.39-43.59,23.39S8.25,51.63,4.4,47.34c3.85-4.29,22.22-23.39,43.59-23.39s39.74,19.1,43.59,23.39Z" fill="#033778"/>
  <path d="M48,28.18c-10.57,0-19.17,8.6-19.17,19.17s8.6,19.17,19.17,19.17,19.17-8.6,19.17-19.17-8.6-19.17-19.17-19.17ZM63.8,47.34c0,4.21-1.64,8.18-4.63,11.17-2.99,2.99-6.96,4.63-11.17,4.63-8.72,0-15.81-7.09-15.81-15.8s7.09-15.81,15.81-15.81,15.81,7.09,15.81,15.81Z" fill="#033778"/>
  <path d="M48,40.47c-3.79,0-6.87,3.08-6.87,6.87s3.08,6.87,6.87,6.87,6.87-3.08,6.87-6.87-3.08-6.87-6.87-6.87ZM51.51,47.34c0,1.93-1.57,3.51-3.51,3.51s-3.51-1.57-3.51-3.51,1.57-3.51,3.51-3.51,3.51,1.57,3.51,3.51Z" fill="#033778"/>
</svg>