<?xml version="1.0" encoding="UTF-8"?>
<svg id="Layer_1" data-name="Layer 1" xmlns="http://www.w3.org/2000/svg" viewBox="0 0 96 96">
  <defs>
    <style>
      .cls-1 {
        fill: #033778;
      }
    </style>
  </defs>
  <path class="cls-1" d="M85.84,92.34v-2.29c0-12.65-8.93-18.98-11.67-20.62-4.85-2.9-10.07-5.11-15.53-6.56l-.19-.05v-3.23l.08-.07c.91-.8,1.74-1.71,2.45-2.71,2.16-2.99,3.93-6.25,5.26-9.68l.05-.14.15-.02c1.18-.16,2.2-.92,2.72-2.02.31-.67,1.69-3.27,2.9-5.57.91-1.73,1.77-3.36,2.04-3.89.58-1.17.65-2.52.19-3.81-.5-1.4-1.56-2.53-2.97-3.17-.36-.16-.76-.28-1.22-.35l-.28-.04.08-.27c.76-2.69,1.15-5.48,1.15-8.29v-3.3c0-7.71-6.27-13.99-13.99-13.99-1.96,0-3.83.75-5.24,2.12l-.17.17-.23-.17c-1.41-1.36-3.27-2.12-5.24-2.12-11.41,0-20.7,9.29-20.7,20.7,0,1.67.2,3.32.59,4.92l.06.26-.27.04c-.39.07-.8.18-1.2.35-1.3.54-2.39,1.66-2.92,3.02-.35.91-.61,2.33.15,3.97.3.65,1.49,2.88,2.63,5.04,1.05,1.98,2.04,3.84,2.3,4.4.52,1.1,1.54,1.86,2.72,2.02l.15.02.05.14c1.33,3.42,3.09,6.67,5.25,9.66.72.99,1.54,1.9,2.45,2.7l.08.07v3.23l-.19.05c-5.46,1.45-10.68,3.65-15.53,6.56-2.74,1.64-11.67,7.98-11.67,20.62v2.29c0,.86.7,1.56,1.56,1.56h28.06c.86,0,1.57-.64,1.62-1.45.03-.44-.12-.86-.42-1.18-.3-.32-.7-.5-1.14-.5H13.29v-.25c0-7.84,3.7-14.56,10.15-18.42,4.38-2.62,9.09-4.65,14-6.02l.26-.07.05.26c.97,4.87,5.28,8.4,10.25,8.4s9.28-3.53,10.25-8.4l.05-.26.26.07c4.91,1.37,9.62,3.4,14,6.02,6.36,3.81,10.15,10.7,10.15,18.42v.25h-26.47c-.86,0-1.57.64-1.62,1.46-.03.44.12.85.42,1.17.29.32.71.5,1.14.5h28.09c.86,0,1.56-.7,1.56-1.56ZM33.7,10.58c3.31-3.34,7.74-5.18,12.48-5.18,1.15,0,2.24.44,3.07,1.24,1.33,1.28,3.42,1.28,4.75,0,.83-.8,1.92-1.24,3.07-1.24,5.99,0,10.86,4.87,10.86,10.86v3.3c0,1.7-.16,3.41-.47,5.07l-.11.58-.34-.48c-1.17-1.65-2.76-2.99-4.61-3.85-2.04-.96-3.34-3.05-3.4-5.46-.02-.84-.72-1.53-1.56-1.53-.86,0-1.54.67-1.56,1.53-.11,4.94-3.96,8.8-8.77,8.8-2.03,0-4.01-.7-5.56-1.96-1.6-1.31-3.62-2.03-5.69-2.03-3.91,0-6.33,2.64-6.77,3.17l-.44.52-.02-.66c-.04-4.82,1.76-9.32,5.08-12.67ZM55.32,64.23c0,4.04-3.29,7.32-7.32,7.32s-7.32-3.29-7.32-7.32v-2.5l.35.16c4.61,2.13,9.43,2.13,13.94,0l.36-.17v2.5ZM48,60.35h0c-4.18,0-7.98-1.96-10.44-5.37-2.26-3.13-4.05-6.56-5.32-10.18,0-.02-.54-1.48-2.19-.9l-.22.08-.09-.21c-.32-.71-1.67-3.26-2.87-5.52-.96-1.82-1.88-3.53-2.12-4.05-.23-.49-.25-1.02-.04-1.54.22-.55.68-1.02,1.21-1.23.59-.23,1.25-.21,1.8.06.49.24,1.07.21,1.53-.08.46-.29.74-.78.73-1.32v-.71c0-1.57.66-3.14,1.8-4.3,2.06-2.08,5.47-2.26,7.78-.4,5.35,4.32,12.42,2.94,15.9-.82.89-.95,1.52-1.8,2-2.66l.18-.33.23.29c.86,1.09,1.94,1.95,3.19,2.53,2.72,1.28,4.55,3.76,4.88,6.63.06.49.34.9.79,1.14.47.25,1.04.26,1.51.01.59-.3,1.27-.34,1.86-.09.54.23.98.68,1.2,1.25.2.52.19,1.06-.03,1.52-.26.55-1.22,2.36-2.24,4.29-1.19,2.24-2.41,4.55-2.77,5.31l-.1.21-.22-.09c-.5-.2-.95-.2-1.34-.02-.45.2-.72.62-.82.91-1.27,3.63-3.06,7.07-5.33,10.21-2.46,3.41-6.27,5.37-10.45,5.37Z"/>
  <path class="cls-1" d="M19.89,2.27h-9.07c-.86,0-1.56.7-1.56,1.56v9.07c0,.86.7,1.56,1.56,1.56s1.56-.7,1.56-1.56v-7.5h7.5c.86,0,1.56-.7,1.56-1.56s-.7-1.56-1.56-1.56Z"/>
  <path class="cls-1" d="M10.82,63.98h9.07c.86,0,1.56-.7,1.56-1.56s-.7-1.56-1.56-1.56h-7.5v-7.5c0-.86-.7-1.56-1.56-1.56s-1.56.7-1.56,1.56v9.07c0,.86.7,1.56,1.56,1.56Z"/>
  <path class="cls-1" d="M48.02,93.9c.86,0,1.57-.7,1.57-1.56s-.7-1.56-1.57-1.56-1.56.7-1.56,1.56.7,1.56,1.56,1.56Z"/>
  <path class="cls-1" d="M86.74,3.84c0-.86-.7-1.56-1.56-1.56h-9.07c-.86,0-1.56.7-1.56,1.56s.7,1.56,1.56,1.56h7.5v7.5c0,.86.7,1.56,1.56,1.56s1.56-.7,1.56-1.56V3.84Z"/>
  <path class="cls-1" d="M86.74,53.35c0-.86-.7-1.56-1.56-1.56s-1.56.7-1.56,1.56v7.5h-7.5c-.86,0-1.56.7-1.56,1.56s.7,1.56,1.56,1.56h9.07c.86,0,1.56-.7,1.56-1.56v-9.07Z"/>
</svg>