<?xml version="1.0" encoding="UTF-8"?>
<svg id="Capa_1" data-name="Capa 1" xmlns="http://www.w3.org/2000/svg" viewBox="0 0 96 96">
  <defs>
    <style>
      .cls-1 {
        fill: #033778;
      }
    </style>
  </defs>
  <path class="cls-1" d="M50.17,1.82c1.98.33,3.99.45,5.97.85,6.94,1.41,13.15,4.34,18.59,8.87,7.94,6.61,12.73,15.05,14.61,25.19.9,4.85,1.56,9.73,2.11,14.62.13,1.17-.37,1.98-1.32,2.1-.97.13-1.66-.45-1.79-1.68-.41-3.83-.89-7.64-1.54-11.43-.8-4.65-1.77-9.26-3.92-13.53-4.19-8.34-10.5-14.49-18.99-18.37-6.2-2.83-12.73-3.88-19.51-3.33-6.44.52-12.34,2.71-17.87,5.99-.36.21-.71.45-1.07.66-1.04.61-1.96.5-2.46-.3-.53-.84-.21-1.7.87-2.39,1.8-1.15,3.68-2.16,5.61-3.07,4.78-2.24,9.78-3.66,15.06-4.02.2-.01.4-.1.6-.15h5.05Z"/>
  <path class="cls-1" d="M79.38,64.73c.11-6.86-.06-13.71-1.05-20.51-.72-4.99-1.84-9.87-4.68-14.17-4.92-7.45-11.53-12.69-20.23-15-4.8-1.28-9.62-.81-14.32.63-7.12,2.19-12.7,6.47-16.61,12.82-3.71,6.02-5.1,12.57-4.17,19.61.38,2.9,1.39,5.65,1.89,8.52.55,3.15.65,6.34.71,9.52.07,4.42.07,8.84.09,13.26,0,.33,0,.66-.06.99-.13.74-.61,1.16-1.35,1.23-.78.07-1.32-.29-1.6-1.03-.14-.38-.12-.77-.12-1.16-.06-5.26-.04-10.52-.15-15.79-.09-4.34-1.11-8.49-2.05-12.68-1.67-7.45-.76-14.67,2.69-21.47,4.84-9.54,12.62-15.41,23.07-17.65,6.77-1.45,13.28-.51,19.44,2.62,6.9,3.5,12.38,8.55,16.24,15.29,2.09,3.64,3.2,7.62,3.91,11.73,1.39,8.03,1.63,16.14,1.61,24.26,0,3.64-.1,7.28-.16,10.91-.02,1.17-.66,1.89-1.62,1.86-.93-.03-1.48-.71-1.48-1.88,0-3.97,0-7.94,0-11.91Z"/>
  <path class="cls-1" d="M63.56,65.31c0,1.17,0,2.34,0,3.52,0,1.13-.57,1.85-1.49,1.89-.91.04-1.56-.67-1.61-1.79-.19-4.14-.29-8.29-.72-12.42-.55-5.23-1.25-10.43-3.05-15.42-2.36-6.52-10.4-8.52-15.36-3.7-2.44,2.37-3.33,5.42-2.58,8.69,1.14,4.92,1.55,9.91,1.83,14.92.53,9.25.77,18.51.78,27.77,0,1.55-.47,2.29-1.52,2.31-1.05.02-1.58-.73-1.59-2.26-.08-8.99-.24-17.98-.74-26.96-.25-4.47-.37-8.97-1.47-13.33-.69-2.72-.9-5.37-.12-8.09,2.59-8.96,14.16-11.84,20.71-5.19,2.16,2.19,3.17,4.92,3.96,7.77,1.54,5.59,2.16,11.32,2.57,17.08.12,1.74.19,3.48.28,5.22.04,0,.08,0,.12,0Z"/>
  <path class="cls-1" d="M73.28,68.34c-.14,5.29-.27,10.58-.41,15.87,0,.36-.05.72-.14,1.07-.19.69-.71,1.05-1.4,1.07-.73.02-1.26-.34-1.51-1.05-.13-.38-.12-.77-.11-1.16.29-7.57.47-15.14.38-22.72-.07-5.8-.33-11.6-1.34-17.33-.8-4.56-2.04-8.98-5.06-12.65-4.3-5.23-9.85-7.8-16.64-7.63-1.06.03-2.1.14-3.13.35-.2.04-.42.06-.63.06-.95.03-1.63-.49-1.75-1.33-.11-.81.44-1.56,1.35-1.74,5.93-1.18,11.54-.34,16.77,2.72,6.21,3.63,9.67,9.24,11.41,16.07,1.24,4.86,1.68,9.83,1.95,14.81.24,4.53.28,9.07.25,13.61Z"/>
  <path class="cls-1" d="M35.3,24.57c.59.05,1.08.33,1.35.94.3.66.16,1.25-.35,1.72-.61.57-1.31,1.05-1.92,1.63-5.07,4.8-6.93,10.8-6.5,17.63.22,3.47,1.4,6.75,1.99,10.15,1.44,8.22,2.07,16.51,2.09,24.85,0,1.07-.61,1.73-1.54,1.73-.92,0-1.53-.65-1.56-1.73-.1-3.82-.18-7.63-.48-11.44-.51-6.54-1.59-12.98-2.99-19.39-1.89-8.62-.21-16.46,5.85-23.13.87-.96,1.88-1.77,2.92-2.54.32-.23.66-.41,1.14-.42Z"/>
  <path class="cls-1" d="M4.53,44.94c.03-7.67,1.69-15.15,5.73-22.01,1.7-2.89,3.75-5.51,6.11-7.89.8-.8,1.72-.88,2.39-.24.69.66.68,1.56-.13,2.39-2.31,2.38-4.35,4.97-5.99,7.87-3.31,5.87-4.78,12.21-4.94,18.89-.16,6.49.91,12.81,2.66,19.03.09.32.2.63.26.96.2,1.02-.26,1.81-1.16,2.03-.82.2-1.6-.3-1.87-1.28-.48-1.77-.97-3.53-1.37-5.32-1.05-4.67-1.69-9.4-1.7-14.43Z"/>
  <path class="cls-1" d="M52.67,77.86c.09,4.78-.05,9.56-.18,14.33,0,.35-.05.73-.18,1.06-.26.66-.81.99-1.49.93-.71-.06-1.24-.45-1.39-1.2-.06-.29-.06-.6-.05-.9.29-9.77.26-19.53-.5-29.28-.47-5.93-1.07-11.84-2.46-17.64-.35-1.48.01-2.35,1.02-2.56,1.04-.22,1.68.36,2.04,1.86,1.19,4.98,1.8,10.04,2.27,15.13.56,6.08.81,12.17.92,18.27Z"/>
  <path class="cls-1" d="M60.19,83.11c0-1.8,0-3.6,0-5.4,0-.36,0-.72.08-1.07.15-.74.66-1.14,1.39-1.19.78-.04,1.32.34,1.55,1.1.08.25.11.53.12.8.05,3.84.09,7.68.13,11.52,0,.33-.03.66-.09.98-.15.75-.67,1.15-1.39,1.18-.76.04-1.34-.32-1.54-1.1-.09-.34-.11-.71-.11-1.07-.01-1.92,0-3.84,0-5.76-.04,0-.08,0-.12,0Z"/>
</svg>