<?xml version="1.0" encoding="UTF-8"?>
<svg id="Layer_1" data-name="Layer 1" xmlns="http://www.w3.org/2000/svg" viewBox="0 0 96 96">
  <defs>
    <style>
      .cls-1 {
        fill: #033778;
      }
    </style>
  </defs>
  <path class="cls-1" d="M13.35,24.52c-6.66,0-12.08-5.42-12.08-12.08S6.68.36,13.35.36s12.09,5.42,12.09,12.08-5.42,12.08-12.09,12.08ZM13.35,3.36c-5.01,0-9.08,4.08-9.08,9.08s4.08,9.08,9.08,9.08,9.09-4.08,9.09-9.08S18.36,3.36,13.35,3.36Z"/>
  <path class="cls-1" d="M55.69,24.52c-6.66,0-12.08-5.42-12.08-12.08S49.02.36,55.69.36s12.09,5.42,12.09,12.08-5.42,12.08-12.09,12.08ZM55.69,3.36c-5.01,0-9.08,4.08-9.08,9.08s4.08,9.08,9.08,9.08,9.09-4.08,9.09-9.08-4.08-9.08-9.09-9.08Z"/>
  <path class="cls-1" d="M33.97,59.48c-6.66,0-12.09-5.42-12.09-12.09s5.42-12.08,12.09-12.08,12.08,5.42,12.08,12.08-5.42,12.09-12.08,12.09ZM33.97,38.31c-5.01,0-9.09,4.08-9.09,9.08s4.08,9.09,9.09,9.09,9.08-4.08,9.08-9.09-4.08-9.08-9.08-9.08Z"/>
  <path class="cls-1" d="M40.03,95.65c-6.66,0-12.09-5.42-12.09-12.08s5.42-12.08,12.09-12.08,12.09,5.42,12.09,12.08-5.42,12.08-12.09,12.08ZM40.03,74.48c-5.01,0-9.09,4.08-9.09,9.08s4.08,9.08,9.09,9.08,9.09-4.08,9.09-9.08-4.08-9.08-9.09-9.08Z"/>
  <path class="cls-1" d="M83.91,95.65c-6.66,0-12.08-5.42-12.08-12.08s5.42-12.08,12.08-12.08,12.09,5.42,12.09,12.08-5.42,12.08-12.09,12.08ZM83.91,74.48c-5.01,0-9.08,4.08-9.08,9.08s4.08,9.08,9.08,9.08,9.09-4.08,9.09-9.08-4.08-9.08-9.09-9.08Z"/>
  <rect class="cls-1" x="23.93" y="10.94" width="21.17" height="3"/>
  <path class="cls-1" d="M29.46,84.51h-10.07c-2.69,0-5.17-.45-7.35-1.35-6.62-2.72-11.19-8.82-11.94-15.93-.95-9.01,4.36-17.38,12.9-20.35,1.89-.66,3.96-.98,6.31-.98h4.06v3h-4.06c-2.01,0-3.75.27-5.32.82-7.23,2.51-11.71,9.58-10.91,17.2.63,6.01,4.5,11.17,10.09,13.47,1.81.74,3.9,1.12,6.21,1.12h10.07v3Z"/>
  <rect class="cls-1" x="50.6" y="81.51" width="22.73" height="3"/>
  <path class="cls-1" d="M75.65,48.9h-31.1v-3h31.1c3.26,0,6.3-.85,8.79-2.46,4.19-2.72,6.83-7.13,7.26-12.11.43-4.96-1.05-9.68-4.04-12.95-2.64-2.89-6.27-4.42-10.48-4.44h-10.91v-3h10.83c5.17.02,9.56,1.89,12.78,5.41,3.56,3.89,5.31,9.44,4.81,15.23-.51,5.91-3.65,11.14-8.62,14.37-2.97,1.93-6.57,2.95-10.42,2.95Z"/>
  <rect class="cls-1" x="38.41" y="5.18" width="3" height="8.61" transform="translate(6.3 33) rotate(-48.35)"/>
  <rect class="cls-1" x="35.6" y="13.87" width="8.61" height="3" transform="translate(-.13 30.4) rotate(-41.64)"/>
  <rect class="cls-1" x="47.66" y="45.91" width="3" height="8.61" transform="translate(-21.03 53.57) rotate(-48.35)"/>
  <rect class="cls-1" x="44.85" y="42.83" width="8.61" height="3" transform="translate(-17.04 43.87) rotate(-41.65)"/>
  <rect class="cls-1" x="67.24" y="75.76" width="3" height="8.61" transform="translate(-36.77 78.22) rotate(-48.35)"/>
  <rect class="cls-1" x="64.43" y="84.45" width="8.61" height="3" transform="translate(-39.74 67.38) rotate(-41.64)"/>
  <rect class="cls-1" x="23.63" y="75.76" width="3" height="8.61" transform="translate(-51.4 45.64) rotate(-48.35)"/>
  <rect class="cls-1" x="20.82" y="84.45" width="8.61" height="3" transform="translate(-50.76 38.41) rotate(-41.64)"/>
</svg>