<?xml version="1.0" encoding="UTF-8"?>
<svg id="Capa_1" data-name="Capa 1" xmlns="http://www.w3.org/2000/svg" viewBox="0 0 96 96">
  <defs>
    <style>
      .cls-1 {
        fill: #033778;
      }
    </style>
  </defs>
  <path class="cls-1" d="M48,60.91c-6.85,0-12.43-5.57-12.43-12.43s5.57-12.43,12.43-12.43,12.43,5.57,12.43,12.43-5.57,12.43-12.43,12.43ZM48,38.49c-5.51,0-9.99,4.48-9.99,9.99s4.48,9.99,9.99,9.99,9.99-4.48,9.99-9.99-4.48-9.99-9.99-9.99Z"/>
  <path class="cls-1" d="M48,25.34c-6.85,0-12.43-5.57-12.43-12.43S41.15.49,48,.49s12.43,5.57,12.43,12.43-5.57,12.43-12.43,12.43ZM48,2.92c-5.51,0-9.99,4.48-9.99,9.99s4.48,9.99,9.99,9.99,9.99-4.48,9.99-9.99-4.48-9.99-9.99-9.99Z"/>
  <path class="cls-1" d="M12.43,60.91c-6.85,0-12.43-5.57-12.43-12.43s5.57-12.43,12.43-12.43,12.43,5.57,12.43,12.43-5.57,12.43-12.43,12.43ZM12.43,38.49c-5.51,0-9.99,4.48-9.99,9.99s4.48,9.99,9.99,9.99,9.99-4.48,9.99-9.99-4.48-9.99-9.99-9.99Z"/>
  <path class="cls-1" d="M48,95.51c-6.85,0-12.43-5.57-12.43-12.43s5.57-12.43,12.43-12.43,12.43,5.57,12.43,12.43-5.57,12.43-12.43,12.43ZM48,73.1c-5.51,0-9.99,4.48-9.99,9.99s4.48,9.99,9.99,9.99,9.99-4.48,9.99-9.99-4.48-9.99-9.99-9.99Z"/>
  <path class="cls-1" d="M83.57,60.91c-6.85,0-12.43-5.57-12.43-12.43s5.57-12.43,12.43-12.43,12.43,5.57,12.43,12.43-5.57,12.43-12.43,12.43ZM83.57,38.49c-5.51,0-9.99,4.48-9.99,9.99s4.48,9.99,9.99,9.99,9.99-4.48,9.99-9.99-4.48-9.99-9.99-9.99Z"/>
  <rect class="cls-1" x="23.24" y="47.5" width="13.63" height="2.43"/>
  <rect class="cls-1" x="59.26" y="47.5" width="13.63" height="2.43"/>
  <rect class="cls-1" x="46.36" y="59.43" width="2.43" height="12.65"/>
  <rect class="cls-1" x="46.36" y="24.39" width="2.43" height="12.65"/>
</svg>