<?xml version="1.0" encoding="UTF-8"?>
<svg id="Capa_1" data-name="Capa 1" xmlns="http://www.w3.org/2000/svg" viewBox="0 0 96 96">
  <path d="M87.82,43.55h2.99c-2.13-20.24-18.13-36.23-38.36-38.36v2.99c18.59,2.11,33.27,16.78,35.37,35.37Z" fill="#033778"/>
  <path d="M43.55,8.18v-2.99C23.31,7.32,7.32,23.31,5.18,43.55h2.99C10.28,24.95,24.95,10.28,43.55,8.18Z" fill="#033778"/>
  <path d="M52.45,87.82v2.99c20.24-2.13,36.23-18.13,38.36-38.36h-2.99c-2.11,18.59-16.78,33.27-35.37,35.37Z" fill="#033778"/>
  <path d="M8.18,52.45h-2.99c2.13,20.24,18.13,36.23,38.36,38.36v-2.99c-18.59-2.11-33.27-16.78-35.37-35.37Z" fill="#033778"/>
  <path d="M48,32.41c-8.61,0-15.59,6.98-15.59,15.59s6.98,15.59,15.59,15.59,15.59-6.98,15.59-15.59-6.98-15.58-15.59-15.59ZM48,60.62c-6.97,0-12.62-5.65-12.62-12.62s5.65-12.62,12.62-12.62,12.62,5.65,12.62,12.62-5.65,12.61-12.62,12.62Z" fill="#033778"/>
  <path d="M48,15.34c.82,0,1.48-.66,1.48-1.48V1.98c0-.82-.66-1.48-1.48-1.48s-1.48.66-1.48,1.48v11.88c0,.82.66,1.48,1.48,1.48Z" fill="#033778"/>
  <path d="M48,80.66c-.82,0-1.48.66-1.48,1.48v11.88c0,.82.66,1.48,1.48,1.48s1.48-.66,1.48-1.48v-11.88c0-.82-.66-1.48-1.48-1.48Z" fill="#033778"/>
  <path d="M94.02,46.52h-11.88c-.82,0-1.48.66-1.48,1.48s.66,1.48,1.48,1.48h11.88c.82,0,1.48-.66,1.48-1.48s-.66-1.48-1.48-1.48Z" fill="#033778"/>
  <path d="M15.34,48c0-.82-.66-1.48-1.48-1.48H1.98c-.82,0-1.48.66-1.48,1.48s.66,1.48,1.48,1.48h11.88c.82,0,1.48-.66,1.48-1.48Z" fill="#033778"/>
  <path d="M53.1,45.29h0l-7.44,5.19-2.48-2.74c-.55-.61-1.49-.65-2.1-.1-.61.55-.65,1.49-.1,2.1l3.36,3.71c.51.54,1.33.64,1.95.22l8.51-5.94c.67-.47.84-1.39.38-2.07s-1.39-.84-2.07-.38h0Z" fill="#033778"/>
  <circle cx="44.98" cy="20.7" r="1.48" fill="#033778"/>
  <circle cx="50.91" cy="20.7" r="1.48" fill="#033778"/>
  <circle cx="56.71" cy="21.96" r="1.48" fill="#033778"/>
  <circle cx="62.1" cy="24.44" r="1.48" fill="#033778"/>
  <circle cx="66.83" cy="28.03" r="1.48" fill="#033778"/>
  <circle cx="70.68" cy="32.53" r="1.48" fill="#033778"/>
  <circle cx="73.48" cy="37.77" r="1.48" fill="#033778"/>
  <circle cx="75.09" cy="43.48" r="1.48" fill="#033778"/>
  <circle cx="75.42" cy="49.4" r="1.48" fill="#033778"/>
  <circle cx="74.49" cy="55.26" r="1.48" fill="#033778"/>
  <circle cx="72.3" cy="60.78" r="1.48" fill="#033778"/>
  <circle cx="68.98" cy="65.69" r="1.48" fill="#033778"/>
  <circle cx="64.69" cy="69.79" r="1.48" fill="#033778"/>
  <circle cx="59.62" cy="72.88" r="1.48" fill="#033778"/>
  <circle cx="53.94" cy="74.82" r="1.48" fill="#033778"/>
  <circle cx="48.06" cy="75.46" r="1.48" fill="#033778"/>
  <circle cx="42.1" cy="74.82" r="1.48" fill="#033778"/>
  <circle cx="36.48" cy="72.92" r="1.48" fill="#033778"/>
  <circle cx="31.4" cy="69.86" r="1.48" fill="#033778"/>
  <circle cx="27.09" cy="65.78" r="1.48" fill="#033778"/>
  <circle cx="23.75" cy="60.87" r="1.48" fill="#033778"/>
  <circle cx="21.54" cy="55.37" r="1.48" fill="#033778"/>
  <circle cx="20.58" cy="49.51" r="1.48" fill="#033778"/>
  <circle cx="20.89" cy="43.59" r="1.48" fill="#033778"/>
  <circle cx="22.47" cy="37.87" r="1.48" fill="#033778"/>
  <circle cx="25.26" cy="32.62" r="1.48" fill="#033778"/>
  <circle cx="29.1" cy="28.1" r="1.48" fill="#033778"/>
  <circle cx="33.81" cy="24.5" r="1.48" fill="#033778"/>
  <circle cx="39.19" cy="21.96" r="1.48" fill="#033778"/>
</svg>