<?xml version="1.0" encoding="UTF-8"?>
<svg id="Capa_1" data-name="Capa 1" xmlns="http://www.w3.org/2000/svg" viewBox="0 0 96 96">
  <defs>
    <style>
      .cls-1 {
        fill: #033778;
      }
    </style>
  </defs>
  <path class="cls-1" d="M94.99,12.02v82.94c-30.94,0-61.89,0-92.83.02-.91,0-1.15-.19-1.15-1.13.03-26.39.02-52.77.02-79.16,0-.18.02-.37,0-.55-.05-.48.15-.64.63-.63,1.07.03,2.14-.03,3.21.02.67.03.92-.15.89-.86-.05-1.47.02-2.94-.03-4.4-.03-.77.14-1.1.99-1.03,1,.08,2.02,0,3.03.03.51.02.69-.14.68-.67-.03-1.86-.02-3.73-.03-5.59,11.25,0,22.51,0,33.76,0,2.42,3.41,4.86,6.81,7.26,10.24.4.57.82.75,1.5.75,13.63-.02,27.25-.02,40.88-.01.4,0,.79.02,1.19.03ZM47.98,91.84c14.28,0,28.56,0,42.84.02.8,0,1.07-.15,1.07-1.03-.03-17.06-.03-34.12,0-51.19,0-.83-.2-1.06-1.05-1.05-13.45.03-26.91.01-40.36.03-1.13,0-1.94-.35-2.62-1.32-4.72-6.66-9.49-13.28-14.22-19.92-.38-.53-.76-.74-1.42-.74-8.99.02-17.98.03-26.97,0-.88,0-1.11.21-1.11,1.1.03,24.34.03,48.68,0,73.02,0,.87.19,1.11,1.09,1.11,14.25-.03,28.5-.02,42.75-.02ZM44.81,27.63c1.87,2.61,3.62,5.04,5.35,7.48.23.33.51.37.86.37,13.36,0,26.72,0,40.08,0,.59,0,.79-.15.78-.77-.04-2.02-.05-4.04,0-6.05.02-.82-.18-1.06-1.04-1.06-14.98.03-29.96.02-44.94.02h-1.1ZM67.1,24.5h22.75c2.02,0,1.97,0,2.04-2.06.03-.9-.23-1.09-1.1-1.09-14.74.03-29.48.02-44.21.04-.7,0-1.1-.22-1.49-.78-2.21-3.15-4.48-6.27-6.69-9.42-.41-.58-.83-.82-1.56-.82-8.59.03-17.18.02-25.78.02-2.19,0-2.15,0-2.19,2.2-.01.78.23.95.98.95,8.01-.03,16.02,0,24.03-.03.62,0,.99.19,1.35.69,2.25,3.2,4.56,6.36,6.8,9.56.41.58.83.75,1.5.75,7.86-.02,15.72-.01,23.57-.01ZM69.48,18.25h20.36c2.03,0,1.97,0,2.05-2.06.03-.91-.24-1.09-1.11-1.09-13.18.03-26.36.02-39.54.03-.65,0-1.05-.2-1.42-.73-2.18-3.1-4.41-6.16-6.58-9.27-.5-.72-1.01-1.02-1.92-1.02-8.53.04-17.06.03-25.59.03-2.18,0-2.15,0-2.19,2.19-.02.78.24.95.98.95,7.95-.03,15.9,0,23.85-.03.74,0,1.21.19,1.66.82,2.22,3.18,4.51,6.32,6.74,9.49.35.5.72.7,1.35.7,7.12-.02,14.25-.01,21.37-.01Z"/>
  <path class="cls-1" d="M65.28,55.83c6.97,0,13.95.01,20.92-.02.76,0,.97.2.96.96-.03,9.82-.03,19.63,0,29.45,0,.73-.21.91-.92.91-14.01-.02-28.01-.02-42.02,0-.71,0-.93-.18-.93-.91.02-9.82.02-19.63,0-29.45,0-.78.24-.96.98-.96,7,.03,14.01.02,21.01.02ZM65.28,58.96c-5.96,0-11.93.01-17.89-.02-.77,0-.97.21-.97.97.03,7.71.03,15.41,0,23.12,0,.76.2.97.96.97,11.9-.02,23.79-.02,35.69,0,.78,0,.95-.22.95-.97-.03-7.71-.03-15.41,0-23.12,0-.75-.17-.98-.95-.97-5.93.03-11.87.02-17.8.02Z"/>
  <path class="cls-1" d="M65.28,73.05c-3.88,0-7.76-.02-11.64.01-.7,0-.95-.17-.94-.91.02-2.24,0-2.24,2.25-2.24,7.27,0,14.54.01,21.81-.02.8,0,1.04.19,1.01,1.01-.06,2.15-.01,2.15-2.14,2.15-3.45,0-6.9,0-10.35,0Z"/>
  <path class="cls-1" d="M65.17,79.32c-3.85,0-7.7-.02-11.55.02-.74,0-.92-.23-.91-.94.02-2.22,0-2.22,2.17-2.22,7.3,0,14.6.02,21.9-.02.83,0,1.01.24.99,1.02-.05,2.13-.01,2.13-2.16,2.13-3.48,0-6.96,0-10.45,0Z"/>
  <path class="cls-1" d="M60.49,63.63c2.38,0,4.77.01,7.15,0,.54,0,.79.12.74.71-.05.58-.05,1.16,0,1.74.05.6-.23.7-.75.7-4.71-.01-9.41-.02-14.12,0-.67,0-.81-.23-.81-.85,0-2.3-.03-2.3,2.28-2.3,1.83,0,3.67,0,5.5,0Z"/>
</svg>