<?xml version="1.0" encoding="UTF-8"?>
<svg id="Layer_1" data-name="Layer 1" xmlns="http://www.w3.org/2000/svg" viewBox="0 0 96 96">
  <path d="M90.07,72.56l-.55-18.43.06-.08c3.87-4.93,5.92-10.77,5.92-16.85,0-15.95-14.21-28.93-31.67-28.93-5.11,0-10.64,1.26-15.35,3.65-4.68,2.37-8.66,5.84-11.49,9.97l-.1.16h-.2c-1.6-.24-3.02-.34-4.36-.34-11.64,0-22.3,5.82-27.86,15.2v.04c-2.49,4.2-3.79,8.92-3.79,13.66s0,.28,0,.43h0v.43s.02.08.02.12c.22,5.76,2.25,11.23,5.88,15.85l.06.08v.12l-.55,18.35c0,.61.28,1.18.81,1.48.51.3,1.18.32,1.68.02l15.79-8.88h.12c2.51.63,5.15.93,7.81.93,5.37,0,10.68-1.26,15.39-3.65,4.68-2.39,8.64-5.84,11.45-9.97l.1-.16h.2c4.12.57,8.33.36,12.2-.55h.12s.1.04.1.04l15.67,8.82c.51.28,1.18.28,1.68-.02s.83-.87.81-1.48l.02-.02ZM9.66,35.36c5.43-6.55,13.68-10.32,22.69-10.32s1.5.02,2.25.08l.47.04-.2.43c-1.48,3.1-2.35,6.47-2.55,9.99v.3H9.24l.43-.53h0ZM4.09,49.47c.18-3.55,1.14-6.93,2.86-10.08l.08-.16h25.26v.28c.32,3.39,1.28,6.69,2.86,9.83l.24.47H4.07v-.34h.02ZM8.04,63.72l-.1-.14c-2.03-3.1-3.28-6.49-3.73-10.08h0l-.04-.36h33.29l.1.12c3.08,4.22,7.34,7.62,12.29,9.83l1.36.61H8.04v.02ZM53.49,67.62c-5.37,5.47-13.08,8.62-21.14,8.62s-5.27-.32-7.74-.97c-.43-.12-.87-.06-1.24.16l-13.79,7.76.47-16.1h43.99l-.53.55-.02-.02ZM86.72,52.31h-.02s-.04.06-.04.06c-.32.32-.49.77-.49,1.22l.47,16.12-13.77-7.76c-.36-.2-.83-.26-1.24-.16-4.18,1.07-8.64,1.28-12.89.55h-.04c-13.22-2.19-22.95-12.61-23.13-24.77v-.36c0-4.4,1.24-8.7,3.59-12.49,5.03-8.09,14.5-13.12,24.71-13.12,15.61,0,28.32,11.47,28.32,25.6,0,7.58-1.89,10.7-5.45,15.1l-.02.02Z" fill="#033778"/>
  <path d="M48.43,47.51c0,.91.75,1.66,1.66,1.66h1.99c6.41,0,11.62-5.21,11.62-11.62s-5.21-11.62-11.62-11.62h-1.99c-.91,0-1.66.75-1.66,1.66v19.91ZM51.75,29.28h.32c4.56,0,8.27,3.71,8.27,8.27s-3.71,8.27-8.27,8.27h-.32v-16.54h0Z" fill="#033778"/>
  <path d="M77.94,35.89h-6.28v-6.61h6.28c.91,0,1.66-.75,1.66-1.66s-.75-1.66-1.66-1.66h-7.95c-.91,0-1.66.75-1.66,1.66v19.89c0,.91.75,1.66,1.66,1.66h7.95c.91,0,1.66-.75,1.66-1.66s-.75-1.66-1.66-1.66h-6.28v-6.61h6.28c.91,0,1.66-.75,1.66-1.66s-.75-1.66-1.66-1.66v-.02Z" fill="#033778"/>
</svg>