<?xml version="1.0" encoding="UTF-8"?>
<svg id="Layer_1" data-name="Layer 1" xmlns="http://www.w3.org/2000/svg" viewBox="0 0 96 96">
  <path d="M36.56,48.58c3.13,4.02,7.64,6.58,12.7,7.21.79.1,1.59.15,2.38.15,4.26,0,8.3-1.4,11.69-4.03,4.02-3.13,6.58-7.64,7.21-12.7.63-5.06-.75-10.06-3.89-14.08-6.47-8.29-18.48-9.78-26.77-3.32-8.3,6.47-9.79,18.48-3.32,26.78ZM41.71,24.14c2.85-2.22,6.27-3.39,9.88-3.39,5.01,0,9.65,2.26,12.72,6.2,2.65,3.39,3.81,7.62,3.28,11.88-.35,2.8-1.41,5.44-3.08,7.67-.99-3.33-3.56-6.06-6.83-7.25,1.97-1.74,3.09-4.22,3.09-6.85,0-5.05-4.11-9.16-9.16-9.16s-9.16,4.11-9.16,9.16c0,2.63,1.12,5.11,3.09,6.85-3.27,1.19-5.84,3.92-6.83,7.25-2.5-3.34-3.59-7.46-3.08-11.62.53-4.28,2.69-8.08,6.08-10.72ZM51.61,26.21c3.41,0,6.19,2.77,6.19,6.19s-2.77,6.18-6.19,6.18-6.19-2.77-6.19-6.18,2.77-6.19,6.19-6.19ZM49.3,41.55h4.61c4.3,0,7.82,3.34,8.07,7.62-.15.13-.31.26-.47.38-3.39,2.65-7.61,3.81-11.88,3.28-3.12-.39-6.02-1.65-8.39-3.66.24-4.28,3.76-7.62,8.07-7.62Z" fill="#033778"/>
  <path d="M91.85.8H13.98c-.82,0-1.49.67-1.49,1.49v48.39c0,.82.67,1.49,1.49,1.49s1.49-.67,1.49-1.49V3.77h74.9v80.63c0,4.32-3.51,7.83-7.82,7.83s-7.83-3.51-7.83-7.83v-3.68c0-.82-.67-1.49-1.49-1.49H4.15c-.82,0-1.49.67-1.49,1.49v3.68c0,5.96,4.85,10.8,10.8,10.8h69.07c5.95,0,10.8-4.85,10.8-10.8V2.29c0-.82-.67-1.49-1.49-1.49ZM75.1,92.23H13.47c-4.32,0-7.83-3.51-7.83-7.83v-2.2h66.1v2.2c0,2.97,1.22,5.79,3.37,7.83Z" fill="#033778"/>
  <path d="M84.3,69.96h-17.6c-.82,0-1.49.67-1.49,1.49s.67,1.49,1.49,1.49h17.6c.82,0,1.49-.67,1.49-1.49s-.67-1.49-1.49-1.49Z" fill="#033778"/>
  <path d="M61.88,65.43h-.72c-.82,0-1.49.67-1.49,1.49s.67,1.49,1.49,1.49h.72c.82,0,1.49-.67,1.49-1.49s-.67-1.49-1.49-1.49Z" fill="#033778"/>
  <path d="M11.82,76.27c1.88,0,3.67-.61,5.15-1.77l12.68-9.89c.73-.57,1.2-1.39,1.31-2.31.09-.75-.06-1.5-.43-2.15l4.91-3.83c3.71,3.09,8.22,5.04,13.06,5.64,1.05.13,2.11.2,3.16.2,5.65,0,11.02-1.85,15.51-5.35,11-8.58,12.97-24.51,4.4-35.51-8.58-11-24.51-12.98-35.52-4.4-5.33,4.16-8.72,10.14-9.55,16.84-.6,4.84.19,9.69,2.28,14.04l-4.91,3.83c-.54-.52-1.22-.85-1.98-.94-.92-.12-1.83.13-2.56.7l-12.68,9.89c-1.77,1.38-2.89,3.36-3.17,5.59-.28,2.23.33,4.43,1.71,6.19,1.6,2.05,4.02,3.23,6.63,3.23ZM8.47,63.59l12.68-9.89c.09-.07.19-.1.31-.1.02,0,.04,0,.07,0,.08,0,.22.05.33.19l6.05,7.77c.11.14.11.29.1.37,0,.08-.05.22-.19.33l-12.68,9.89c-1.14.89-2.56,1.28-4,1.1-1.44-.18-2.72-.91-3.61-2.05-1.84-2.36-1.42-5.78.94-7.62ZM25.72,53.92l4.52-3.52c.44.69.91,1.36,1.41,2,.5.64,1.03,1.26,1.6,1.86l-4.52,3.52-3.01-3.86ZM69.22,23.12c7.56,9.71,5.82,23.77-3.88,31.34-4.71,3.67-10.56,5.28-16.48,4.55-5.92-.73-11.2-3.73-14.87-8.44-3.67-4.7-5.28-10.55-4.55-16.47s3.73-11.2,8.43-14.87c3.95-3.08,8.69-4.71,13.71-4.71,6.95,0,13.38,3.13,17.64,8.59Z" fill="#033778"/>
  <path d="M61.88,69.96h-.72c-.82,0-1.49.67-1.49,1.49s.67,1.49,1.49,1.49h.72c.82,0,1.49-.67,1.49-1.49s-.67-1.49-1.49-1.49Z" fill="#033778"/>
  <path d="M21.53,15.89h8.8c.82,0,1.49-.67,1.49-1.49s-.67-1.49-1.49-1.49h-8.8c-.82,0-1.49.67-1.49,1.49s.67,1.49,1.49,1.49Z" fill="#033778"/>
  <path d="M21.53,11.35h8.8c.82,0,1.49-.67,1.49-1.49s-.67-1.49-1.49-1.49h-8.8c-.82,0-1.49.67-1.49,1.49s.67,1.49,1.49,1.49Z" fill="#033778"/>
  <path d="M84.3,65.43h-17.6c-.82,0-1.49.67-1.49,1.49s.67,1.49,1.49,1.49h17.6c.82,0,1.49-.67,1.49-1.49s-.67-1.49-1.49-1.49Z" fill="#033778"/>
</svg>