<?xml version="1.0" encoding="UTF-8"?>
<svg id="Layer_1" xmlns="http://www.w3.org/2000/svg" version="1.1" viewBox="0 0 96 96">
  <!-- Generator: Adobe Illustrator 29.3.1, SVG Export Plug-In . SVG Version: 2.1.0 Build 151)  -->
  <defs>
    <style>
      .st0 {
        fill: #033778;
      }
    </style>
  </defs>
  <g id="healthcare-covid19-coronavirus-hand-hearth">
    <path class="st0" d="M57.4,18.2h-4.7v-4.7c0-.9-.7-1.6-1.6-1.6h-6.2c-.9,0-1.6.7-1.6,1.6v4.7h-4.7c-.9,0-1.6.7-1.6,1.6v6.2c0,.9.7,1.6,1.6,1.6h4.7v4.7c0,.9.7,1.6,1.6,1.6h6.2c.9,0,1.6-.7,1.6-1.6v-4.7h4.7c.9,0,1.6-.7,1.6-1.6v-6.2c0-.9-.7-1.6-1.6-1.6ZM55.8,24.4h-4.7c-.9,0-1.6.7-1.6,1.6v4.7h-3.1v-4.7c0-.9-.7-1.6-1.6-1.6h-4.7v-3.1h4.7c.9,0,1.6-.7,1.6-1.6v-4.7h3.1v4.7c0,.9.7,1.6,1.6,1.6h4.7v3.1Z"/>
    <path class="st0" d="M91.3,26.5c0-.3,0-.6,0-.8,0-3-2.1-5.5-5-6.1-3.3-.6-6.5,1.4-7.3,4.6l-6.9,19.8c-.1,0-.2,0-.3.1l-13.8,8.1c-4.3,2.5-6.9,7.1-7,12.1v14.7c-.9,0-1.6.7-1.6,1.6v12.5c0,.9.7,1.6,1.6,1.6h21.9c.9,0,1.6-.7,1.6-1.6v-12.5c0-.9-.7-1.6-1.6-1.6v-3.4c0-1.3.6-2.6,1.6-3.5l10.6-9.4c1.2-1,2-2.3,2.4-3.8l6.8-25.4c.1-.5.2-1.1.2-1.6,0-2.2-1.2-4.3-3.2-5.4ZM82,25.2c.4-1.7,2-2.8,3.7-2.5,1.4.3,2.5,1.6,2.5,3h0c-2.9,0-5.4,2-6.1,4.8l-4.4,13.5c-.7-.3-1.4-.5-2.1-.6l6.3-18.2ZM71.4,91.6h-18.7v-9.4h18.7v9.4ZM91.3,32.8l-6.8,25.4c-.2.9-.7,1.7-1.4,2.3l-10.6,9.4c-1.7,1.5-2.6,3.6-2.6,5.8v3.4h-15.6v-14.7c0-3.9,2.1-7.5,5.4-9.4l13.8-8.1c1.5-.9,3.4-.4,4.3,1.1,0,0,0,0,0,0,.4.7.5,1.6.3,2.4-.2.8-.7,1.5-1.5,1.9l-9,5.2c-.7.5-.9,1.4-.5,2.2.4.7,1.3.9,2,.5l9-5.2c1.4-.8,2.5-2.2,2.9-3.8.4-1.6.2-3.3-.6-4.7h0c0-.1,4.8-15,4.8-15,.4-1.7,2-2.8,3.7-2.5,1.4.3,2.5,1.6,2.5,3,0,.3,0,.5-.1.8Z"/>
    <path class="st0" d="M44.9,79.1v-14.7c0-5-2.7-9.6-7-12.1l-13.8-8.1c0,0-.2,0-.3-.1l-6.8-19.7c-.8-3.3-4.1-5.4-7.4-4.7-2.9.6-5,3.2-5,6.1,0,.3,0,.6,0,.8-2,1.1-3.2,3.2-3.2,5.4,0,.5,0,1.1.2,1.6l6.8,25.3c.4,1.5,1.2,2.8,2.4,3.8l10.5,9.4c1,.9,1.6,2.2,1.6,3.5v3.4c-.9,0-1.6.7-1.6,1.6v12.5c0,.9.7,1.6,1.6,1.6h21.9c.9,0,1.6-.7,1.6-1.6v-12.5c0-.9-.7-1.6-1.6-1.6ZM7.7,25.7c0-1.5,1-2.7,2.5-3,1.7-.3,3.4.9,3.8,2.6l6.3,18.1c-.7,0-1.4.3-2.1.6l-4.3-13.4c-.7-2.8-3.2-4.8-6.1-4.9h0ZM23.5,69.8l-10.6-9.4c-.7-.6-1.2-1.4-1.4-2.3l-6.8-25.4c0-.3,0-.5,0-.8,0-1.5,1-2.7,2.5-3,1.7-.3,3.4.9,3.8,2.6l4.8,14.8h0c-.8,1.6-1.1,3.3-.6,4.9.4,1.6,1.5,3,2.9,3.8l9,5.2c.8.4,1.7.1,2.1-.7.4-.7.1-1.6-.5-2l-9-5.2c-.7-.4-1.2-1.1-1.5-1.9-.2-.8,0-1.7.3-2.4.9-1.5,2.8-2,4.3-1.2,0,0,0,0,0,0l13.8,8.1c3.3,2,5.4,5.6,5.4,9.4v14.7h-15.6v-3.4c0-2.2-1-4.4-2.6-5.8ZM43.3,91.6h-18.7v-9.4h18.7v9.4Z"/>
    <path class="st0" d="M70.1,5.9c-6.1-6.1-16-6.1-22.1,0,0,0,0,0,0,0h0c-6.1-6.1-16-6.1-22.1,0,0,0,0,0,0,0-6.1,6.1-6.1,16,0,22.1l21,21c.6.6,1.6.6,2.2,0l21-21c6.1-6.1,6.1-16,0-22.1ZM48,45.6l-19.9-19.9c-4.9-4.9-4.9-12.8,0-17.7,2.3-2.3,5.5-3.7,8.8-3.7,3.3,0,6.5,1.3,8.8,3.7l1.1,1.1c.6.6,1.6.6,2.2,0l1.1-1.1c4.9-4.9,12.8-4.9,17.7,0,0,0,0,0,0,0,4.9,4.9,4.9,12.8,0,17.7l-19.9,19.9Z"/>
  </g>
</svg>