<?xml version="1.0" encoding="UTF-8"?>
<svg id="Capa_1" data-name="Capa 1" xmlns="http://www.w3.org/2000/svg" viewBox="0 0 96 96">
  <defs>
    <style>
      .cls-1 {
        fill: #033778;
      }
    </style>
  </defs>
  <path class="cls-1" d="M89.78,36.31c-.26,1.59-.4,3.2-.77,4.77-1.58,6.75-4.79,12.62-9.7,17.48-4.73,4.68-9.86,8.93-14.81,13.38-5.04,4.54-10.12,9.04-15.19,13.55-.26.24-.44.53-.89.12-9.65-8.81-19.39-17.52-28.96-26.42-5.82-5.41-9.53-12.15-10.69-20.03-1.39-9.39,1.18-17.68,8.45-24.01,8.74-7.6,21.8-6.32,29.27,2.58.84,1,1.57,2.06,2.31,3.24.76-1.03,1.43-2.07,2.22-3.01,6.02-7.18,15.9-9.71,24.56-6.12,4.91,2.04,8.46,5.64,10.95,10.3,1.76,3.29,2.71,6.82,3.09,10.52.02.21-.01.43.15.6v3.02ZM48.82,28.51c-.49-1.15-.92-2.17-1.35-3.19-1.29-3.05-3.13-5.69-5.67-7.84-6.12-5.18-15.48-5.57-21.62-.66-7.23,5.78-9.7,13.5-8.21,22.45,1.26,7.5,5.14,13.66,10.73,18.74,8.51,7.74,17.04,15.46,25.54,23.2.49.45.74.4,1.21-.02,8.49-7.6,16.99-15.19,25.5-22.77,4-3.56,7.2-7.69,9.25-12.65,1.76-4.26,2.83-8.65,2.24-13.31-.63-5.02-2.38-9.56-5.87-13.28-4.42-4.71-9.88-6.66-16.26-5.48-6.39,1.18-10.89,4.93-13.71,10.73-.62,1.28-1.15,2.61-1.79,4.08Z"/>
</svg>