<?xml version="1.0" encoding="UTF-8"?>
<svg id="Layer_1" data-name="Layer 1" xmlns="http://www.w3.org/2000/svg" viewBox="0 0 96 96">
  <path d="M55.37,48.07c-4.55-5.53-5.61-13.5-2.66-19.85.55-1.19,1.14-2.34,1.72-3.5.9-1.78,1.82-3.6,2.6-5.49.5-1.22,1.02-2.42,1.51-3.56l.3-.71c3.12-7.33,1.34-14.17,1.26-14.46l-2.93.79s1.58,6.14-1.12,12.48l-.3.71c-.49,1.16-1,2.37-1.52,3.59-.74,1.79-1.64,3.57-2.51,5.29-.61,1.19-1.2,2.39-1.76,3.59-3.44,7.39-2.2,16.65,3.07,23.06,3.83,4.67,9.11,7.13,14.94,7.13,1.75,0,3.54-.23,5.37-.67,15.81-3.88,16.6-20.77,16.62-23.88l4.96-8.1c.29-.47.3-1.06.03-1.54-.27-.49-.78-.78-1.32-.78h-4.56v-7.6c0-2.27-2.3-4.56-4.56-4.56h-4.56V.88h-3.04v9.12h-4.56v3.04h12.16c.59,0,1.52.93,1.52,1.52v9.12c0,.84.68,1.52,1.52,1.52h3.37l-3.77,6.17c-.15.26-.23.56-.23.87.03.71.59,17.62-14.31,21.28-6.75,1.66-13.03-.32-17.22-5.44v-.02Z" fill="#033778"/>
  <path d="M30.06,67.44c.9,1.14,2.07,2.61,3.74,2.61.35,0,.71-.06,1.09-.2,2.74-1,4.8-7.45,4.8-11.14,0-4.44-1.89-6.8-3.92-8.7-2.16-2.01-6.08-2.93-8.68-2.75-2.96.18-5.37.82-8.25,3.42-2.74,2.46-3.77,6.48-3.57,9.35.15,2.22,1,3.95,2.39,4.88,1.57,1.05,3.42.73,5.2.4,1.84-.33,3.74-.67,5.5.36.56.33,1.14,1.06,1.69,1.76h.02ZM22.32,62.33c-1.25.23-2.42.44-2.96.08-.58-.38-.96-1.35-1.05-2.58-.18-2.52.88-5.35,2.57-6.87,2.25-2.02,3.98-2.49,6.42-2.65,2.19-.15,5.14.74,6.42,1.95,1.49,1.38,2.95,3.04,2.95,6.46s-1.95,7.8-2.81,8.3c-.3-.06-.99-.93-1.38-1.46-.7-.88-1.49-1.89-2.55-2.51-1.46-.85-2.89-1.11-4.26-1.11-1.19,0-2.33.2-3.33.38v.02Z" fill="#033778"/>
  <path d="M2.39,73.85h4.56v7.6c0,2.27,2.3,4.56,4.56,4.56h4.56v9.12h3.04v-9.12h4.56v-3.04h-12.16c-.59,0-1.52-.93-1.52-1.52v-9.12c0-.84-.68-1.52-1.52-1.52h-3.37l3.77-6.17c.15-.26.23-.56.23-.87-.03-.71-.59-17.62,14.31-21.28,6.75-1.66,13.03.32,17.22,5.44,4.55,5.53,5.61,13.5,2.66,19.85-.55,1.19-1.14,2.34-1.72,3.5-.9,1.78-1.82,3.6-2.6,5.49-.5,1.22-1.02,2.42-1.51,3.56l-.3.71c-3.12,7.33-1.34,14.17-1.26,14.46l2.93-.79s-1.58-6.14,1.12-12.48l.3-.71c.49-1.16,1-2.37,1.52-3.59.74-1.79,1.64-3.57,2.51-5.29.61-1.19,1.2-2.39,1.76-3.59,3.44-7.39,2.2-16.65-3.07-23.06-4.97-6.05-12.37-8.41-20.31-6.46-15.81,3.88-16.6,20.77-16.62,23.88l-4.96,8.1c-.29.47-.3,1.06-.03,1.54.27.49.78.78,1.32.78v.03Z" fill="#033778"/>
  <path d="M76.88,75.37v-13.68h-3.04v12.16h-25.84v3.04h27.36c.84,0,1.52-.68,1.52-1.52Z" fill="#033778"/>
  <path d="M22.16,22.16h25.84v-3.04h-27.36c-.84,0-1.52.68-1.52,1.52v13.68h3.04v-12.16Z" fill="#033778"/>
  <path d="M64.72,44.97v-13.68c0-.84-.68-1.52-1.52-1.52s-1.52.68-1.52,1.52v13.68c0,.84.68,1.52,1.52,1.52s1.52-.68,1.52-1.52Z" fill="#033778"/>
  <path d="M67.76,29.76c-.78.3-1.16,1.2-.85,1.98l5.52,13.79c.23.58.79.96,1.41.96s1.19-.38,1.41-.96l5.52-13.79c.32-.78-.06-1.67-.85-1.98-.78-.3-1.66.06-1.98.85l-1.49,3.71h-5.24l-1.49-3.71c-.32-.78-1.2-1.16-1.98-.85h.02ZM75.24,37.37l-1.4,3.51-1.4-3.51h2.81-.02Z" fill="#033778"/>
</svg>