<?xml version="1.0" encoding="UTF-8"?>
<svg id="Capa_1" data-name="Capa 1" xmlns="http://www.w3.org/2000/svg" viewBox="0 0 96 96">
  <defs>
    <style>
      .cls-1 {
        fill: #033778;
      }
    </style>
  </defs>
  <path class="cls-1" d="M57.91,1.02c1.29,1.04,1.36,1.68.32,3.06-.75,1-1.5,2-2.28,3.04.33.26.67.15.98.15,5.66,0,11.32,0,16.97,0,3.55,0,5.42,1.88,5.42,5.44,0,25.6,0,51.19,0,76.79,0,3.63-1.85,5.47-5.48,5.47-17.31,0-34.62,0-51.93,0-2.61,0-4.42-1.23-5.04-3.42-.18-.62-.21-1.26-.21-1.91,0-25.69,0-51.38,0-77.07,0-3.42,1.92-5.31,5.37-5.31,5.84,0,11.68,0,17.52,0h1.19c-.62-1.24-1.18-2.36-1.74-3.5-.67-1.35-.51-1.92.73-2.76h.92c.6.39.98.96,1.29,1.6.66,1.37,1.37,2.72,2.03,4.1.2.41.45.57.91.56,2.14-.02,4.27-.03,6.41,0,.49,0,.77-.18,1.05-.56,1.12-1.53,2.27-3.03,3.39-4.55.35-.47.75-.87,1.26-1.16h.92ZM76.2,37.63c0-8.26,0-16.52,0-24.77,0-2.03-.43-2.46-2.5-2.46-8.84,0-17.68,0-26.52,0-.38,0-.97-.19-1.11.11-.21.45.27.88.49,1.3.24.48.72.21,1.08.19,2.97-.13,5.52,1.67,6.36,4.52.79,2.67-.39,5.66-2.79,7.06-2.54,1.48-5.68,1.09-7.67-.97-2.04-2.1-2.53-5.32-.74-7.63,1.05-1.36.88-2.31.08-3.49-.07-.1-.13-.21-.16-.33-.18-.63-.59-.79-1.23-.79-6.45.02-12.91.01-19.36.02-1.83,0-2.31.49-2.31,2.36,0,4.19,0,8.38,0,12.57,0,12.45,0,24.9-.02,37.34,0,.75.18.99.96.98,3.67-.04,7.34-.02,11.01-.01.5,0,.84-.06,1.02-.63.57-1.82,1.82-3.07,3.51-3.91,1.64-.81,3.29-1.62,4.92-2.44.71-.36.76-.69.12-1.08-2.34-1.44-3.85-3.53-4.75-6.09-.11-.32-.3-.57-.58-.79-2.59-2-2.93-6.3-.67-8.7.27-.29.41-.6.47-.96.29-1.76.89-3.42,1.63-5.04.17-.36.31-.73.24-1.15-.14-.84-.25-1.69-.39-2.54-.21-1.26.06-2.02.89-2.46.84-.46,1.61-.27,2.52.65,1.53,1.54,3.38,2.25,5.53,2.25,1.16,0,2.33-.05,3.48.04,5.18.38,9.43,2.64,10.46,8.33.06.33.22.62.48.86.88.8,1.32,1.83,1.42,2.99.19,2.28,0,4.43-2.18,5.82-.34.22-.4.59-.53.93-.92,2.41-2.35,4.41-4.57,5.79-.76.48-.75.78.05,1.2,1.6.83,3.21,1.64,4.81,2.46,1.61.82,2.88,1.97,3.49,3.71.21.6.5.78,1.12.77,3.64-.03,7.28-.04,10.92,0,.86.01,1.06-.25,1.05-1.08-.03-8.32-.02-16.64-.02-24.96ZM47.99,66.78c-9.05,0-18.1.01-27.15-.02-.85,0-1.07.24-1.06,1.07.03,7.24.02,14.49.02,21.73,0,1.8.49,2.28,2.29,2.28,17.27,0,34.54,0,51.81,0,1.79,0,2.28-.49,2.28-2.29,0-7.24-.01-14.49.02-21.73,0-.86-.25-1.06-1.08-1.06-9.05.03-18.1.02-27.15.02ZM40.86,32.54c0,1.01-.13,1.84-.51,2.63-.91,1.85-1.44,3.82-1.69,5.87-.03.24.01.51-.28.62-1.54.59-1.41,1.89-1.35,3.16.04.74.39,1.34,1.12,1.51.73.17.92.63,1.09,1.26.61,2.25,1.65,4.35,3.83,5.33,1.58.71,1.92,1.63,1.82,3.19-.09,1.54-.64,2.61-2.05,3.27-1.74.82-3.46,1.68-5.17,2.55-.72.37-1.44.77-1.68,1.63h23.94c-.43-.86-1.12-1.25-1.82-1.62-1.73-.9-3.47-1.79-5.22-2.67-1.22-.61-1.81-1.58-1.79-2.94.01-.64.03-1.29,0-1.93-.02-.44.15-.66.55-.82.82-.33,1.6-.75,2.29-1.33,1.54-1.3,2.36-3.01,2.86-4.9.12-.47.26-.84.82-.96.85-.19,1.33-.77,1.33-1.64,0-1.04.31-2.22-.91-2.85-.49-.25-.68-.56-.76-1.11-.24-1.74-.69-3.41-2.01-4.71-1.68-1.65-3.82-2.11-6.05-2.2-2.82-.12-5.7.24-8.37-1.36ZM48.43,15.19s-.1.1-.09.13c.32.69.66,1.37.97,2.06.43.95.19,1.81-.59,2.22-.83.44-1.68.13-2.2-.83-.37-.69-.72-1.39-1.1-2.13-.8,1.33-.68,2.66.26,3.69.92,1.02,2.36,1.32,3.59.76,1.24-.56,1.97-1.84,1.83-3.19-.15-1.39-1.13-2.38-2.68-2.71Z"/>
  <path class="cls-1" d="M47.91,80.87c-4.43,0-8.87,0-13.3,0-.34,0-.68.02-1-.05-.69-.15-1.13-.59-1.21-1.32-.08-.76.25-1.3.95-1.6.37-.16.77-.16,1.17-.16,8.99,0,17.98,0,26.97,0,.4,0,.8,0,1.17.16.7.31,1.03.84.95,1.6-.08.73-.51,1.17-1.21,1.32-.32.07-.67.05-1,.05-4.5,0-8.99,0-13.49,0Z"/>
  <path class="cls-1" d="M47.96,74.61c-2.51,0-5.01.01-7.52,0-1.2,0-1.94-.78-1.78-1.8.13-.82.78-1.31,1.82-1.31,3.18-.01,6.36,0,9.54,0,1.71,0,3.42,0,5.14,0,1.48,0,2.23.53,2.21,1.59-.01,1.04-.74,1.54-2.26,1.54-2.39,0-4.77,0-7.16,0Z"/>
  <path class="cls-1" d="M43.26,87.1c-.58,0-1.17.05-1.74-.01-.81-.09-1.26-.63-1.3-1.41-.04-.78.32-1.4,1.13-1.54,1.3-.23,2.62-.23,3.91,0,.8.14,1.17.74,1.13,1.55-.04.81-.5,1.32-1.3,1.41-.6.07-1.22.01-1.83.01Z"/>
  <path class="cls-1" d="M60.47,87.11c-.55,0-1.1.04-1.65,0-.8-.07-1.4-.67-1.4-1.44,0-.77.34-1.4,1.16-1.54,1.3-.22,2.62-.23,3.91,0,.8.15,1.17.75,1.12,1.55-.05.8-.51,1.32-1.31,1.4-.6.07-1.22.01-1.83.01,0,0,0,0,0,0Z"/>
  <path class="cls-1" d="M51.95,87.15c-.37-.02-.74,0-1.09-.07-.74-.14-1.19-.61-1.24-1.37-.05-.8.31-1.36,1.09-1.58.72-.21,1.45-.18,2.18-.06.87.14,1.39.78,1.36,1.57-.03.84-.62,1.41-1.55,1.48-.24.02-.49,0-.73,0,0,0,0,.02,0,.03Z"/>
  <path class="cls-1" d="M34.69,87.13c-.18,0-.37,0-.55,0-1.13-.04-1.76-.61-1.76-1.55,0-.9.62-1.5,1.67-1.56.54-.03,1.1-.03,1.64.06.88.15,1.36.77,1.31,1.6-.05.81-.6,1.36-1.49,1.44-.27.03-.55,0-.82,0v.02Z"/>
</svg>