<?xml version="1.0" encoding="UTF-8"?>
<svg id="Layer_1" data-name="Layer 1" xmlns="http://www.w3.org/2000/svg" viewBox="0 0 96 96">
  <defs>
    <style>
      .cls-1 {
        fill: #033778;
      }
    </style>
  </defs>
  <path class="cls-1" d="M63.97,96H28.03l-.07-17.58v-.09c.49-4.33-1.44-8.55-5.04-11.01-12.03-8.04-13.2-21.44-12.88-32.21-.1-9.31,3.15-18.08,9.15-24.62C25.32,3.83,33.77.1,42.99,0,66.98,0,78.73,9.67,81.12,31.36c.06.69.09,1.33.11,1.97.06,2.26.55,4.34,1.44,6.19.29.6.61,1.17.96,1.69.88,1.3,4.74,8.42,6.84,12.87.73,1.55.6,3.33-.34,4.76-.95,1.43-2.55,2.23-4.26,2.18l-2.16-.08c-.32-.01-.66.11-.9.34-.24.23-.38.55-.38.88v3.72c0,7.78-6.33,14.11-14.11,14.11h-4.19c-.09,0-.16.07-.16.16v15.83ZM31.02,93h29.95v-12.83c0-1.74,1.42-3.16,3.16-3.16h4.19c6.13,0,11.11-4.99,11.11-11.11v-3.72c0-1.16.46-2.24,1.3-3.05.84-.8,1.94-1.22,3.1-1.18l2.16.08c.67.03,1.27-.28,1.64-.84.37-.56.42-1.22.13-1.83-2.1-4.45-5.86-11.36-6.61-12.46-.43-.64-.83-1.33-1.18-2.07-1.07-2.24-1.66-4.73-1.73-7.41-.02-.59-.05-1.17-.1-1.76-2.21-20.07-12.71-28.65-35.13-28.65-8.37.09-16.04,3.47-21.59,9.52-5.49,5.98-8.46,14.01-8.36,22.62-.3,10.07.74,22.47,11.56,29.7,4.5,3.08,6.93,8.34,6.36,13.74l.06,14.42Z"/>
  <path class="cls-1" d="M55,46.05c-.31,0-.62-.1-.88-.29l-8.85-6.43-8.85,6.43c-.53.38-1.24.38-1.76,0-.53-.38-.75-1.06-.54-1.68l3.38-10.4-8.85-6.43c-.53-.38-.75-1.06-.54-1.68.2-.62.78-1.04,1.43-1.04h10.94l3.38-10.4c.2-.62.78-1.04,1.43-1.04h0c.65,0,1.23.42,1.43,1.04l3.38,10.4h10.94c.65,0,1.23.42,1.43,1.04.2.62-.02,1.29-.54,1.68l-8.85,6.43,3.38,10.4c.2.62-.02,1.29-.54,1.68-.26.19-.57.29-.88.29ZM34.14,27.54l6,4.36c.53.38.75,1.06.54,1.68l-2.29,7.05,6-4.36c.53-.38,1.24-.38,1.76,0l6,4.36-2.29-7.05c-.2-.62.02-1.29.54-1.68l6-4.36h-7.41c-.65,0-1.23-.42-1.43-1.04l-2.29-7.05-2.29,7.05c-.2.62-.78,1.04-1.43,1.04h-7.41Z"/>
</svg>