<?xml version="1.0" encoding="UTF-8"?>
<svg id="Layer_1" data-name="Layer 1" xmlns="http://www.w3.org/2000/svg" viewBox="0 0 96 96">
  <path d="M52.09,93.14c7.6-3.33,14.39-8.01,20.21-13.92,4.85-5.07,8.59-10.98,11.1-17.54,3.34-8.68,4.82-21.79,4.52-40.08l-.11-5.96c0-.59-.39-1.11-.94-1.3L48.45,1.21c-.15-.05-.3-.08-.46-.08s-.3.03-.44.08L9.12,14.35c-.55.19-.93.71-.94,1.3l-.1,5.96c-.3,18.29,1.18,31.4,4.52,40.08,2.52,6.56,6.25,12.46,11.1,17.53,5.8,5.9,12.6,10.58,20.19,13.91l3.53,1.61c.37.17.79.17,1.16,0l3.52-1.61ZM45.05,90.6c-7.25-3.17-13.75-7.64-19.32-13.27-4.61-4.83-8.15-10.43-10.53-16.66-3.22-8.4-4.63-21.15-4.33-38.98l.08-4.99L48,3.97l37.01,12.7.08,4.99c.34,17.82-1.06,30.58-4.29,39.02-2.38,6.22-5.92,11.81-10.52,16.63-5.58,5.64-12.08,10.11-19.34,13.28l-2.94,1.36-2.95-1.34Z" fill="#033778"/>
  <path d="M74.01,58.04c2.72-7.07,4-19.2,3.71-35.08l-.02-.25c0-.59-.39-1.12-.94-1.31l-28.31-9.71c-.14-.05-.3-.07-.45-.07s-.31.02-.46.07l-28.3,9.7c-.56.19-.94.72-.94,1.31v.19c-.27,15.99,1.01,28.13,3.71,35.1,1.99,5.2,4.94,9.87,8.79,13.89,4.75,4.82,10.3,8.65,16.5,11.37l.11.05c.21.1.43.12.59.14.2,0,.4-.04.59-.13l.1-.05c6.24-2.72,11.8-6.54,16.56-11.36,3.84-4.01,6.79-8.68,8.78-13.88ZM48.25,80.39l-.26.12-.26-.12c-5.6-2.53-10.63-6.02-14.95-10.39-3.6-3.75-6.37-8.11-8.23-12.95-2.5-6.62-3.7-17.97-3.48-32.83v-.44s26.91-9.23,26.91-9.23l26.9,9.23v.44c.23,14.89-.99,26.24-3.5,32.82l-.5,1.31-.04-.07c-1.84,4.34-4.43,8.26-7.7,11.67-4.31,4.38-9.32,7.9-14.9,10.44Z" fill="#033778"/>
  <path d="M57.93,38.65l-14.86,14.86-5.01-5.01c-.27-.27-.63-.41-.99-.41s-.72.14-.99.41c-.54.55-.54,1.43,0,1.98l5.99,5.99c.27.27.62.41.99.41h0c.37,0,.72-.15.98-.41l15.85-15.84c.26-.26.41-.62.41-.99s-.15-.72-.41-.99c-.53-.53-1.45-.53-1.98,0Z" fill="#033778"/>
</svg>