<?xml version="1.0" encoding="UTF-8"?>
<svg id="Layer_1" data-name="Layer 1" xmlns="http://www.w3.org/2000/svg" viewBox="0 0 96 96">
  <path d="M88.74,48.23c-3.2,0-5.89,2.24-6.58,5.23h-6c-.54-4.82-3.79-8.96-8.38-10.62-1.41-8.52-8.77-14.83-17.52-14.83-1.74,0-3.45.25-5.1.74-.82-.72-1.7-1.37-2.61-1.93v-12.98c2.99-.7,5.23-3.38,5.23-6.58,0-3.73-3.03-6.76-6.76-6.76s-6.76,3.03-6.76,6.76c0,3.2,2.24,5.89,5.23,6.58v11.43c-2.26-.9-4.7-1.37-7.2-1.37-5.55,0-10.57,2.33-14.12,6.06l-5.16-5.16c1.62-2.61,1.31-6.09-.96-8.35-2.64-2.64-6.93-2.64-9.56,0-2.64,2.64-2.64,6.93,0,9.56,1.32,1.32,3.05,1.98,4.78,1.98,1.24,0,2.48-.34,3.57-1.02l5.38,5.38c-2.17,3.14-3.44,6.95-3.44,11.05,0,.02,0,.05,0,.07-4.28,2.18-6.98,6.54-6.98,11.38,0,7.05,5.73,12.78,12.78,12.78h7.11v.52l-14.84,14.84c-2.61-1.62-6.09-1.31-8.35.96-2.64,2.64-2.64,6.93,0,9.56,1.32,1.32,3.05,1.98,4.78,1.98s3.46-.66,4.78-1.98c2.26-2.26,2.58-5.75.96-8.35l12.67-12.67v14.12c0,1.92,1.56,3.48,3.48,3.48h23.72c1.92,0,3.48-1.56,3.48-3.48v-14.12l12.67,12.67c-1.62,2.61-1.31,6.09.96,8.35,1.32,1.32,3.05,1.98,4.78,1.98s3.46-.66,4.78-1.98c2.64-2.64,2.64-6.93,0-9.56-2.26-2.26-5.75-2.58-8.35-.96l-14.84-14.84v-.52h7.11c6.48,0,11.85-4.86,12.67-11.12h6.03c.7,2.99,3.38,5.23,6.58,5.23,3.73,0,6.76-3.03,6.76-6.76s-3.03-6.76-6.76-6.76h0ZM37.31,7.26c0-2.04,1.66-3.7,3.7-3.7s3.7,1.66,3.7,3.7-1.66,3.7-3.7,3.7c-2.04,0-3.7-1.66-3.7-3.7ZM4.64,23.86c-1.44-1.44-1.44-3.79,0-5.23.72-.72,1.67-1.08,2.61-1.08s1.89.36,2.61,1.08c1.44,1.44,1.44,3.79,0,5.23-1.44,1.44-3.79,1.44-5.23,0ZM9.87,91.36c-1.44,1.44-3.79,1.44-5.23,0-1.44-1.44-1.44-3.79,0-5.23.72-.72,1.67-1.08,2.61-1.08s1.89.36,2.61,1.08c1.44,1.44,1.44,3.79,0,5.23ZM77.37,86.13c1.44,1.44,1.44,3.79,0,5.23s-3.79,1.44-5.23,0c-1.44-1.44-1.44-3.79,0-5.23.72-.72,1.67-1.08,2.61-1.08s1.89.36,2.61,1.08ZM53.28,86.62c0,.22-.19.41-.41.41h-23.72c-.22,0-.41-.19-.41-.41v-41.01c0-.22.19-.41.41-.41h2.9l1.25,3.38c.22.6.8,1,1.44,1h12.55c.64,0,1.21-.4,1.44-1l1.25-3.38h2.9c.22,0,.41.19.41.41v41.01ZM35.31,45.2h11.39l-.49,1.32h-10.41l-.49-1.32ZM63.45,64.58h-7.11v-18.97c0-1.92-1.56-3.48-3.48-3.48h-23.72c-1.92,0-3.48,1.56-3.48,3.48v18.97h-7.11c-5.36,0-9.71-4.36-9.71-9.71,0-3.96,2.38-7.49,6.06-9,.61-.25.99-.85.95-1.51-.02-.32-.03-.64-.03-.95,0-9.07,7.38-16.44,16.44-16.44,4.29,0,8.35,1.64,11.43,4.62.42.41,1.03.54,1.58.34,1.59-.57,3.26-.86,4.96-.86,7.52,0,13.8,5.63,14.61,13.1.07.63.51,1.15,1.12,1.31,4.23,1.15,7.18,5.01,7.18,9.38,0,5.36-4.36,9.72-9.71,9.72ZM88.74,58.69c-2.04,0-3.7-1.66-3.7-3.7s1.66-3.7,3.7-3.7,3.7,1.66,3.7,3.7-1.66,3.7-3.7,3.7ZM59.85,17.37c-.04-.85.62-1.56,1.46-1.6,4.94-.22,9.5,1.5,12.85,4.85,3.35,3.35,5.07,7.91,4.85,12.85-.04.82-.72,1.46-1.53,1.46-.02,0-.05,0-.07,0-.85-.04-1.5-.75-1.46-1.6.18-4.07-1.22-7.81-3.95-10.54-2.73-2.73-6.47-4.13-10.54-3.95-.86.04-1.56-.62-1.6-1.46h0ZM59.55,23.98c-.04-.85.62-1.56,1.46-1.6,3.17-.14,6.1.96,8.26,3.12,2.15,2.15,3.26,5.09,3.12,8.26-.04.82-.72,1.46-1.53,1.46-.02,0-.05,0-.07,0-.85-.04-1.5-.75-1.46-1.6.1-2.3-.69-4.41-2.22-5.95-1.54-1.54-3.65-2.33-5.95-2.22-.85.03-1.56-.62-1.6-1.46ZM60.15,10.75c-.04-.85.62-1.56,1.46-1.6,6.7-.3,12.9,2.03,17.44,6.57,4.54,4.54,6.88,10.74,6.57,17.44-.04.82-.72,1.46-1.53,1.46-.02,0-.05,0-.07,0-.85-.04-1.5-.75-1.46-1.6.26-5.84-1.75-11.21-5.68-15.14-3.93-3.93-9.3-5.95-15.14-5.68-.85.03-1.56-.62-1.6-1.46h0ZM33.81,32.23c0,.85-.69,1.53-1.53,1.53-5.32,0-9.65,4.33-9.65,9.65,0,.85-.69,1.53-1.53,1.53s-1.53-.69-1.53-1.53c0-7.01,5.7-12.71,12.72-12.71.85,0,1.53.69,1.53,1.53h0ZM44.53,84.08c0,.85-.69,1.53-1.53,1.53h-3.98c-.85,0-1.53-.69-1.53-1.53s.69-1.53,1.53-1.53h3.98c.85,0,1.53.69,1.53,1.53Z" fill="#033778"/>
</svg>