<?xml version="1.0" encoding="UTF-8"?>
<svg id="Layer_1" data-name="Layer 1" xmlns="http://www.w3.org/2000/svg" viewBox="0 0 96 96">
  <path d="M77.07,8.95c.91.91.25,2.46-1.02,2.46-.37,0-.73-.14-1.02-.42l-5.57-5.57v20.34c0,28.44-23.22,51.67-51.66,51.67h-6.54c-.79,0-1.44-.64-1.44-1.44s.65-1.44,1.44-1.44h6.54c26.9,0,48.78-21.89,48.78-48.79V5.41s-5.57,5.57-5.57,5.57c-.56.56-1.47.56-2.04,0-.56-.56-.56-1.47,0-2.03L67.01.93c.56-.57,1.48-.57,2.04,0l8.02,8.02ZM87.84,92.62h-7.2s0-74.88,0-74.88h7.2s0,74.88,0,74.88ZM89.28,14.86h-10.08c-.79,0-1.44.64-1.44,1.44v77.76c0,.79.65,1.44,1.44,1.44h10.08c.79,0,1.44-.65,1.44-1.44V16.3c0-.79-.65-1.44-1.44-1.44h0ZM65.69,92.62v-24.13s-7.2,0-7.2,0v24.13s7.2,0,7.2,0ZM67.13,65.61h-10.08c-.8,0-1.44.65-1.44,1.44v27.01c0,.79.64,1.44,1.44,1.44h10.08c.79,0,1.44-.65,1.44-1.44v-27.01c0-.79-.65-1.44-1.44-1.44h0ZM43.55,92.62h-7.2s0-9.99,0-9.99h7.2s0,9.99,0,9.99ZM44.99,79.75h-10.08c-.79,0-1.44.65-1.44,1.44v12.87c0,.79.65,1.44,1.44,1.44h10.08c.8,0,1.44-.65,1.44-1.44v-12.87c0-.79-.64-1.44-1.44-1.44ZM21.4,92.62h-7.2s0-7.2,0-7.2h7.2s0,7.2,0,7.2ZM22.84,82.54h-10.08c-.79,0-1.44.65-1.44,1.44v10.08c0,.79.65,1.44,1.44,1.44h10.08c.79,0,1.44-.65,1.44-1.44v-10.08c0-.79-.64-1.44-1.44-1.44h0ZM8.16,42.96c0,2.7,2.2,4.9,4.9,4.9.6,0,1.19-.19,1.75.46.66.75.18,1.38.18,2.45,0,3.89,4.32,6.2,7.55,4.12.92-.59,2.16.03,2.22,1.14.27,5.44,5.83,8.87,10.77,6.86v-23.86s-8.34,0-8.34,0c-.54,2.81-2.61,5.18-5.41,6.02-.14.04-.28.06-.41.06-1.63,0-2-2.34-.41-2.82,2.06-.62,3.49-2.55,3.49-4.7s-1.44-4.08-3.49-4.7c-.76-.23-1.2-1.03-.97-1.79.23-.76,1.03-1.19,1.79-.97,2.8.84,4.87,3.21,5.41,6.01h8.34s0-23.86,0-23.86c-4.94-2.01-10.5,1.42-10.77,6.86-.05,1.1-1.29,1.74-2.22,1.14-.79-.51-1.7-.77-2.65-.77-3.18,0-5.51,2.99-4.76,6.06.23.96-.56,1.88-1.55,1.77-2.87-.31-5.42,1.96-5.42,4.87,0,1.69.86,3.24,2.29,4.15.9.57.89,1.87,0,2.43-1.43.9-2.29,2.46-2.29,4.15h0ZM38.4,45.72c3.86-.68,6.81-4.06,6.81-8.12,0-4.06-2.94-7.43-6.81-8.12v16.24ZM39.94,17.9h-1.54v8.67c5.46.71,9.69,5.38,9.69,11.03,0,5.65-4.23,10.32-9.69,11.03v8.67h1.54l1.49-4.57c.13-.42.45-.75.86-.9,1.56-.59,3.02-1.43,4.31-2.49.34-.28.78-.39,1.21-.3l4.71,1,2.98-5.17-3.22-3.58c-.29-.33-.42-.77-.35-1.2.28-1.67.28-3.32,0-4.98-.07-.43.06-.87.35-1.2l3.22-3.58-2.98-5.16-4.71,1c-.43.09-.88-.02-1.22-.3-1.3-1.07-2.75-1.91-4.31-2.49-.41-.15-.73-.49-.86-.9l-1.49-4.57ZM12.11,50.77c0,5.25,5.11,8.96,10.06,7.44,1.67,6.81,9.35,10.16,15.47,6.87.47-.25.76-.74.76-1.27v-3.63h2.25c.83,0,1.56-.53,1.81-1.32l1.5-4.6c1.4-.59,2.72-1.35,3.93-2.27l4.74,1.01c.81.17,1.63-.19,2.05-.91l3.69-6.39c.41-.72.32-1.61-.23-2.23l-3.24-3.6c.19-1.5.19-3.03,0-4.53l3.24-3.6c.55-.62.65-1.51.23-2.23l-3.69-6.39c-.42-.72-1.24-1.09-2.05-.91l-4.74,1.01c-1.21-.92-2.53-1.68-3.92-2.27l-1.5-4.6c-.26-.79-.98-1.32-1.81-1.32h-2.25v-3.63c0-.53-.29-1.02-.76-1.27-6.13-3.3-13.81.06-15.47,6.87-4.94-1.51-10.06,2.13-10.06,7.52-3.84.47-6.83,3.75-6.83,7.72,0,2.03.78,3.94,2.14,5.37-1.36,1.43-2.14,3.33-2.14,5.36,0,3.97,2.99,7.25,6.83,7.72,0,.03,0,.05,0,.08h0Z" fill="#033778" fill-rule="evenodd"/>
</svg>