<?xml version="1.0" encoding="UTF-8"?>
<svg id="Layer_1" data-name="Layer 1" xmlns="http://www.w3.org/2000/svg" viewBox="0 0 96 96">
  <defs>
    <style>
      .cls-1 {
        fill: #033778;
      }
    </style>
  </defs>
  <path class="cls-1" d="M31.38,38.75c-1.17,0-2.12.95-2.12,2.12v4.75c0,1.17.95,2.12,2.12,2.12s2.12-.95,2.12-2.12v-4.75c0-1.17-.95-2.12-2.12-2.12Z"/>
  <path class="cls-1" d="M95.25,12.38c0-6.41-5.21-11.62-11.62-11.62h-42.75c-6.41,0-11.62,5.21-11.62,11.62v16.88H12.38c-6.41,0-11.62,5.21-11.62,11.62v42.75c0,6.41,5.21,11.62,11.62,11.62h42.75c6.41,0,11.62-5.21,11.62-11.62v-16.88h16.88c6.41,0,11.62-5.21,11.62-11.62V12.38ZM91,55.13c0,4.07-3.31,7.38-7.38,7.38h-19c-1.17,0-2.12.95-2.12,2.12v19c0,4.07-3.31,7.38-7.38,7.38H12.38c-4.07,0-7.38-3.31-7.38-7.38v-42.75c0-4.07,3.31-7.38,7.38-7.38h19c1.17,0,2.12-.95,2.12-2.12V12.38c0-4.07,3.31-7.38,7.38-7.38h42.75c4.07,0,7.38,3.31,7.38,7.38v42.75Z"/>
  <path class="cls-1" d="M40.88,66.75c1.17,0,2.12-.95,2.12-2.12s-.95-2.12-2.12-2.12c-4.07,0-7.38-3.31-7.38-7.38,0-1.17-.95-2.12-2.12-2.12s-2.12.95-2.12,2.12c0,6.41,5.21,11.62,11.62,11.62Z"/>
  <path class="cls-1" d="M40.88,33.5h4.75c1.17,0,2.12-.95,2.12-2.12s-.95-2.12-2.12-2.12h-4.75c-1.17,0-2.12.95-2.12,2.12s.95,2.12,2.12,2.12Z"/>
  <path class="cls-1" d="M64.62,57.25c1.17,0,2.12-.95,2.12-2.12v-4.75c0-1.17-.95-2.12-2.12-2.12s-2.12.95-2.12,2.12v4.75c0,1.17.95,2.12,2.12,2.12Z"/>
  <path class="cls-1" d="M55.12,29.25c-1.17,0-2.12.95-2.12,2.12s.95,2.12,2.12,2.12c4.07,0,7.38,3.31,7.38,7.38,0,1.17.95,2.12,2.12,2.12s2.12-.95,2.12-2.12c0-6.41-5.21-11.62-11.62-11.62Z"/>
  <path class="cls-1" d="M55.12,62.5h-4.75c-1.17,0-2.12.95-2.12,2.12s.95,2.12,2.12,2.12h4.75c1.17,0,2.12-.95,2.12-2.12s-.95-2.12-2.12-2.12Z"/>
</svg>