<?xml version="1.0" encoding="UTF-8"?>
<svg id="Layer_1" xmlns="http://www.w3.org/2000/svg" version="1.1" viewBox="0 0 96 96">
  <!-- Generator: Adobe Illustrator 29.3.1, SVG Export Plug-In . SVG Version: 2.1.0 Build 151)  -->
  <defs>
    <style>
      .st0 {
        fill: #033778;
      }
    </style>
  </defs>
  <g id="Internet_of_things">
    <path class="st0" d="M48,52.2c-2.3,0-4.2,1.9-4.2,4.2s1.9,4.2,4.2,4.2,4.2-1.9,4.2-4.2-1.9-4.2-4.2-4.2ZM48,57.8c-.8,0-1.4-.6-1.4-1.4s.6-1.4,1.4-1.4,1.4.6,1.4,1.4-.6,1.4-1.4,1.4Z"/>
    <path class="st0" d="M48,46.6c-3.4,0-6.6,1.8-8.4,4.7-.4.7-.2,1.5.5,1.9.7.4,1.5.2,1.9-.5,2-3.3,6.3-4.4,9.6-2.3,1,.6,1.8,1.4,2.3,2.3.4.7,1.3.9,1.9.5.7-.4.9-1.3.5-1.9-1.8-2.9-5-4.7-8.4-4.7Z"/>
    <path class="st0" d="M48,41c-4.9,0-9.4,2.3-12.4,6.2-.5.6-.3,1.5.3,2,.6.5,1.5.3,2-.3,0,0,0,0,0,0,4.2-5.6,12.1-6.7,17.7-2.5,1,.7,1.8,1.6,2.5,2.5.5.6,1.3.7,2,.3.6-.5.7-1.3.3-2,0,0,0,0,0,0-2.9-3.9-7.5-6.2-12.4-6.2Z"/>
    <path class="st0" d="M48,38.2c5.5,0,10.7,2.5,14.1,6.7.5.6,1.4.7,2,.2.6-.5.7-1.4.2-2-7.3-9-20.6-10.4-29.6-3.1-1.1.9-2.1,1.9-3.1,3.1-.5.6-.4,1.5.2,2s1.5.4,2-.2c3.5-4.3,8.6-6.7,14.1-6.7Z"/>
    <path class="st0" d="M71.8,49.4h7.2c.8,3.8,4.5,6.2,8.3,5.5s6.2-4.5,5.5-8.3-4.5-6.2-8.3-5.5c-2.8.6-4.9,2.7-5.5,5.5h-7.2c-.3-5.3-2.4-10.4-6-14.4l9-9c4.9,3.8,12,2.9,15.8-2,3.8-4.9,2.9-12-2-15.8-4.9-3.8-12-2.9-15.8,2-3.2,4.1-3.2,9.8,0,13.8l-9,9c-4-3.6-9.1-5.7-14.4-6v-7.2c3.8-.8,6.2-4.5,5.5-8.3-.8-3.8-4.5-6.2-8.3-5.5-3.8.8-6.2,4.5-5.5,8.3.6,2.8,2.7,4.9,5.5,5.5v7.2c-5.3.3-10.4,2.4-14.4,6l-9-9c3.8-4.9,2.9-12-2-15.8s-12-2.9-15.8,2c-3.8,4.9-2.9,12,2,15.8,4.1,3.2,9.8,3.2,13.8,0l9,9c-3.6,4-5.7,9.1-6,14.4h-7.2c-.8-3.8-4.5-6.2-8.3-5.5-3.8.8-6.2,4.5-5.5,8.3.8,3.8,4.5,6.2,8.3,5.5,2.8-.6,4.9-2.7,5.5-5.5h7.2c.3,5.3,2.4,10.4,6,14.4l-9,9c-4.9-3.8-12-2.9-15.8,2-3.8,4.9-2.9,12,2,15.8,4.9,3.8,12,2.9,15.8-2,3.2-4.1,3.2-9.8,0-13.8l9-9c4,3.6,9.1,5.7,14.4,6v7.2c-3.8.8-6.2,4.5-5.5,8.3s4.5,6.2,8.3,5.5,6.2-4.5,5.5-8.3c-.6-2.8-2.7-4.9-5.5-5.5v-7.2c5.3-.3,10.4-2.4,14.4-6l9,9c-3.8,4.9-2.9,12,2,15.8s12,2.9,15.8-2c3.8-4.9,2.9-12-2-15.8-4.1-3.2-9.8-3.2-13.8,0l-9-9c3.6-4,5.7-9.1,6-14.4ZM85.9,43.8c2.3,0,4.2,1.9,4.2,4.2s-1.9,4.2-4.2,4.2-4.2-1.9-4.2-4.2,1.9-4.2,4.2-4.2ZM81.7,5.9c4.7,0,8.4,3.8,8.4,8.4s-3.8,8.4-8.4,8.4-8.4-3.8-8.4-8.4c0-4.7,3.8-8.4,8.4-8.4ZM43.8,10.1c0-2.3,1.9-4.2,4.2-4.2s4.2,1.9,4.2,4.2-1.9,4.2-4.2,4.2-4.2-1.9-4.2-4.2ZM5.9,14.3c0-4.7,3.8-8.4,8.4-8.4s8.4,3.8,8.4,8.4-3.8,8.4-8.4,8.4c-4.7,0-8.4-3.8-8.4-8.4ZM10.1,52.2c-2.3,0-4.2-1.9-4.2-4.2s1.9-4.2,4.2-4.2,4.2,1.9,4.2,4.2-1.9,4.2-4.2,4.2ZM48,26.9c11.6,0,21.1,9.4,21.1,21.1s-9.4,21.1-21.1,21.1-21.1-9.4-21.1-21.1c0-11.6,9.4-21,21.1-21.1ZM14.3,90.1c-4.7,0-8.4-3.8-8.4-8.4s3.8-8.4,8.4-8.4,8.4,3.8,8.4,8.4c0,4.7-3.8,8.4-8.4,8.4ZM52.2,85.9c0,2.3-1.9,4.2-4.2,4.2s-4.2-1.9-4.2-4.2,1.9-4.2,4.2-4.2,4.2,1.9,4.2,4.2ZM90.1,81.7c0,4.7-3.8,8.4-8.4,8.4s-8.4-3.8-8.4-8.4,3.8-8.4,8.4-8.4c4.7,0,8.4,3.8,8.4,8.4Z"/>
  </g>
</svg>