<?xml version="1.0" encoding="UTF-8"?>
<svg id="Layer_1" data-name="Layer 1" xmlns="http://www.w3.org/2000/svg" viewBox="0 0 96 96">
  <path d="M81.75,14.25C72.74,5.24,60.75.27,48,.25,35.24.25,23.25,5.22,14.23,14.23,5.22,23.25.25,35.24.25,48s4.97,24.75,13.98,33.77,21.01,13.98,33.77,13.98,24.75-4.97,33.77-13.98c9.02-9.01,13.98-21.01,13.98-33.77s-4.97-24.72-14-33.75ZM89.09,31.54c1.89,4.72,2.94,9.67,3.13,14.72h-13.97c-.11-5.74-.93-11.49-2.44-17.09l13.15,2.27v.1h.12ZM67.16,24.16c-5.79-.99-11.65-1.52-17.42-1.59V3.83c8.65.94,16.5,8.75,21.08,20.97l-3.66-.63ZM74.72,25.46c-2.31-7.41-6.51-14.05-12.15-19.27,5.22,1.84,10.02,4.6,14.25,8.22,4.33,3.72,7.85,8.17,10.47,13.21l-12.57-2.16ZM49.74,26.03c5.61.09,11.27.61,16.83,1.54l5.48.96c1.71,5.8,2.63,11.77,2.74,17.75h-25.06v-20.25ZM76.82,81.56c-4.22,3.63-9,6.39-14.22,8.21,5.63-5.21,9.81-11.84,12.09-19.22l12.58-2.17c-2.62,5.04-6.14,9.48-10.46,13.19ZM72.08,67.45l-5.51.95c-5.54.96-11.21,1.48-16.83,1.54v-20.21h25.06c-.11,6.01-1.03,11.96-2.71,17.71ZM70.84,71.22c-4.59,12.25-12.47,20.08-21.1,20.97v-18.73c5.81-.09,11.68-.63,17.42-1.61l3.68-.63ZM92.23,49.72c-.19,5.1-1.26,10.09-3.17,14.81l-13.22,2.28c1.49-5.52,2.31-11.26,2.44-17.09h13.95ZM8.72,27.62c2.62-5.04,6.14-9.48,10.46-13.19,4.22-3.63,9-6.39,14.22-8.21-5.64,5.22-9.81,11.85-12.1,19.24l-12.58,2.16ZM23.92,28.51l5.5-.96c5.57-.96,11.23-1.48,16.84-1.54v20.25h-25.06c.11-6,1.03-11.98,2.72-17.75ZM25.16,24.78c4.59-12.25,12.45-20.07,21.08-20.97v18.75c-5.89.09-11.74.62-17.4,1.59l-3.68.63ZM3.77,46.26c.2-5.1,1.26-10.08,3.17-14.81.61-.1,3.06-.53,13.22-2.28-1.49,5.52-2.31,11.26-2.44,17.09H3.77ZM28.84,71.86c5.75.98,11.61,1.52,17.42,1.61v18.73c-8.65-.94-16.5-8.75-21.08-20.97l3.66.63ZM21.28,70.54c2.31,7.41,6.51,14.05,12.15,19.26-5.23-1.84-10.02-4.6-14.25-8.22-4.33-3.72-7.85-8.16-10.47-13.21l12.57,2.16ZM46.26,69.97c-5.61-.09-11.27-.61-16.84-1.54l-5.48-.96c-1.71-5.8-2.63-11.76-2.74-17.73h25.06v20.23ZM6.91,64.46c-1.89-4.72-2.94-9.67-3.13-14.72h13.97c.11,5.77.94,11.54,2.46,17.16-.65-.16-2.32-.45-6.58-1.2l-6.59-1.14v-.1h-.12Z" fill="#033778"/>
</svg>