<?xml version="1.0" encoding="UTF-8"?>
<svg id="Layer_1" xmlns="http://www.w3.org/2000/svg" version="1.1" viewBox="0 0 96 96">
  <!-- Generator: Adobe Illustrator 29.3.1, SVG Export Plug-In . SVG Version: 2.1.0 Build 151)  -->
  <defs>
    <style>
      .st0 {
        fill: #033778;
      }
    </style>
  </defs>
  <path class="st0" d="M17.7,41.1h19.7c.8,0,1.5-.7,1.5-1.5s-.7-1.5-1.5-1.5h-19.7c-.8,0-1.5.7-1.5,1.5s.7,1.5,1.5,1.5Z"/>
  <path class="st0" d="M57.1,47.2H17.7c-.8,0-1.5.7-1.5,1.5s.7,1.5,1.5,1.5h39.4c.8,0,1.5-.7,1.5-1.5s-.7-1.5-1.5-1.5Z"/>
  <path class="st0" d="M57.1,56.3H17.7c-.8,0-1.5.7-1.5,1.5s.7,1.5,1.5,1.5h39.4c.8,0,1.5-.7,1.5-1.5s-.7-1.5-1.5-1.5Z"/>
  <path class="st0" d="M84.5,6.4h-51.7c-5-.1-9,3.9-9,8.9v7.8h-12.2c-5,0-9,4.1-9,9v32c0,5,4,9,9,9h9.2v15.1c0,.6.4,1.2,1,1.4.2,0,.4.1.5.1.4,0,.8-.2,1.1-.5l14.7-16.2h25.2c5-.1,9-4.1,9-9.1v-.2l8,8.8c.3.3.7.5,1.1.5s.4,0,.5-.1c.6-.2,1-.8,1-1.4v-15.1h1.6c5,0,9-4,9-9V15.4c0-5-4-9-9-9ZM69.2,64c0,3.3-2.7,6-6,6h-25.9c-.4.1-.8.3-1.1.6l-12.5,13.8v-12.7c0-.8-.7-1.5-1.5-1.5h-10.7c-3.3,0-6-2.7-6-6v-32c0-3.3,2.7-6,6-6h13.7s0,0,0,0h38c3.3,0,6,2.6,6,5.9v32ZM90.4,47.4c0,3.3-2.7,6-6,6h-3.1c-.8,0-1.5.7-1.5,1.5v12.7l-7.6-8.3v-27.3c0-5-4-9-9-9H26.8c0,0,0-7.7,0-7.7,0-3.3,2.7-6,6-6h51.7q0,.1,0,.1c3.3,0,6,2.7,6,6v32h0Z"/>
</svg>