<?xml version="1.0" encoding="UTF-8"?>
<svg id="Layer_1" xmlns="http://www.w3.org/2000/svg" version="1.1" viewBox="0 0 96 96">
  <!-- Generator: Adobe Illustrator 29.3.1, SVG Export Plug-In . SVG Version: 2.1.0 Build 151)  -->
  <defs>
    <style>
      .st0 {
        fill: #033778;
      }
    </style>
  </defs>
  <path class="st0" d="M3,64.6c-.5.3-.9.8-.9,1.4,0,.6.3,1.2.9,1.4l44,22.5c.2.1.5.2.7.2.2,0,.5,0,.7-.2l44.4-21.7c.5-.3.9-.8.9-1.4,0-.6-.3-1.2-.9-1.4l-10.1-5.2c-.8-.4-1.7,0-2.1.7-.4.8,0,1.7.7,2.1l7.3,3.7-40.8,19.9h-.1c0,0-40.3-20.7-40.3-20.7l7.3-3.6c.8-.4,1.1-1.3.7-2.1-.3-.6-.8-.9-1.4-.9s-.5,0-.7.2l-10.2,5Z"/>
  <path class="st0" d="M3.1,46.2c-.5.3-.9.8-.9,1.4,0,.6.3,1.2.9,1.4l44,22.5c.2.1.5.2.7.2.2,0,.5,0,.7-.2l44.4-21.7c.5-.3.9-.8.9-1.4,0-.6-.3-1.2-.9-1.4l-10.1-5.2c-.8-.4-1.7,0-2.1.7-.4.8,0,1.7.7,2.1l7.3,3.7-40.8,19.9h-.1c0,0-40.3-20.7-40.3-20.7l7.3-3.6c.8-.4,1.1-1.3.7-2.1-.3-.6-.8-.9-1.4-.9s-.5,0-.7.2l-10.2,5Z"/>
  <path class="st0" d="M2.4,29.2c0,.6.3,1.2.9,1.4h0s44,22.5,44,22.5c.2.1.5.2.7.2.2,0,.5,0,.7-.2l44.4-21.7c.5-.3.9-.8.9-1.4,0-.6-.3-1.2-.9-1.4L49.1,6.1c-.4-.2-1-.2-1.4,0L3.3,27.8c-.5.3-.9.8-.9,1.4ZM48.3,9.3h.1c0,0,40.3,20.7,40.3,20.7l-40.8,19.9h-.1c0,0-40.3-20.7-40.3-20.7L48.3,9.3Z"/>
</svg>