<?xml version="1.0" encoding="UTF-8"?>
<svg id="Layer_1" data-name="Layer 1" xmlns="http://www.w3.org/2000/svg" viewBox="0 0 96 96">
  <path d="M93.09,32.55L49.2,13.78c-.77-.33-1.64-.33-2.41,0L2.91,32.55c-1.61.71-2.34,2.59-1.64,4.2.32.73.9,1.31,1.64,1.64l7.83,3.35-7.83,3.35c-1.61.71-2.34,2.58-1.63,4.19.32.73.9,1.31,1.63,1.63l7.83,3.35-7.84,3.36c-1.61.71-2.34,2.58-1.63,4.19.32.73.9,1.31,1.63,1.63l43.85,18.75c.39.18.82.27,1.25.27.41,0,.82-.09,1.2-.26l43.89-18.77c1.61-.71,2.34-2.58,1.63-4.19-.32-.73-.9-1.31-1.63-1.63l-7.84-3.35,7.84-3.36c1.61-.71,2.34-2.58,1.63-4.19-.32-.73-.9-1.31-1.63-1.63l-7.83-3.35,7.83-3.35c1.61-.71,2.34-2.59,1.64-4.2-.32-.73-.9-1.31-1.64-1.64h0ZM14.72,43.43l1.55.66-6.08,6.46-6.06-2.6,10.59-4.53ZM47.51,66.58l-9.37-4.02,6.11-6.49,2.54,1.09c.77.33,1.64.33,2.42,0l12.01-5.14-13.71,14.57ZM35.08,61.24l-9.39-4.03,6.09-6.48,9.4,4.02-6.11,6.49ZM22.62,55.89l-9.36-4.02,6.08-6.47,9.38,4.01-6.1,6.48ZM91.86,60.56l-43.84,18.77L4.13,60.5l10.59-4.53,32.03,13.7c.39.18.82.27,1.25.28.41,0,.82-.09,1.2-.26l32.06-13.71,10.61,4.59ZM80.9,52.73l6.31-6.71,4.66,2.01-10.97,4.7ZM84.15,44.69l-10.45,11.12-19.67,8.41,14.39-15.29,12.85-5.49,2.88,1.25ZM48,54.25L4.13,35.43l43.84-18.76,43.89,18.83-43.86,18.76Z" fill="#033778"/>
</svg>