<?xml version="1.0" encoding="UTF-8"?>
<svg id="Layer_1" data-name="Layer 1" xmlns="http://www.w3.org/2000/svg" viewBox="0 0 96 96">
  <defs>
    <style>
      .cls-1 {
        fill: none;
        stroke: #033778;
        stroke-linecap: round;
        stroke-linejoin: round;
        stroke-width: 3px;
      }
    </style>
  </defs>
  <polyline class="cls-1" points="12.56 80.51 12.56 65.35 12.56 49.18"/>
  <path class="cls-1" d="M35.1,75.07v-6.03c0-2.42-1.17-4.7-3.14-6.12l-7.36-5.31v-8.77h10.5l5.31-3.41.09-.05.9-.59c1.59-1.02,2.15-3.08,1.28-4.77-.66-1.28-1.95-1.99-3.28-1.99-.62,0-1.23.15-1.81.48l-.29.17-3.94,2.75h-15.86c-5.88,0-10.63,4.77-10.63,10.64v7.8c0,3.02,2.44,5.48,5.48,5.48h.21"/>
  <path class="cls-1" d="M19.41,80.51v-18.01l6.62,4.32c1.79,1.11,2.88,3.06,2.88,5.17v3.07"/>
  <polyline class="cls-1" points="53.9 68.9 53.9 38.02 40.4 45.42"/>
  <path class="cls-1" d="M77.72,63.48v-8.38c0-1.81-.89-3.48-2.38-4.5l-7.77-5.26v-10.66h9.55c2.23,0,4.04-1.82,4.04-4.05v-11.78c0-.92-.37-1.77-.99-2.36-.6-.62-1.44-.99-2.36-.99-1.86,0-3.36,1.5-3.36,3.35v9.64h-16.92c-2.37,0-4.7.66-6.73,1.9l-13.2,8.13-.29.17"/>
  <path class="cls-1" d="M60.95,68.9v-18.92l7.63,4.75c1.19.74,1.91,2.03,1.91,3.44v5.31"/>
  <rect class="cls-1" x="4.9" y="80.51" width="20.53" height="13.99"/>
  <rect class="cls-1" x="25.43" y="75.06" width="20.53" height="19.44"/>
  <rect class="cls-1" x="45.96" y="68.9" width="20.53" height="25.6"/>
  <rect class="cls-1" x="66.48" y="63.48" width="20.53" height="31.02"/>
  <circle class="cls-1" cx="19.04" cy="32.47" r="5.94"/>
  <circle class="cls-1" cx="60.54" cy="19.43" r="5.94"/>
  <line class="cls-1" x1="77.81" y1="15.49" x2="77.81" y2="1.61"/>
  <polygon class="cls-1" points="91.1 9.41 77.81 9.41 77.81 1.5 91.1 1.5 89.04 5.23 91.1 9.41"/>
</svg>