<?xml version="1.0" encoding="UTF-8"?>
<svg id="Capa_1" data-name="Capa 1" xmlns="http://www.w3.org/2000/svg" viewBox="0 0 96 96">
  <defs>
    <style>
      .cls-1 {
        fill: #033778;
      }
    </style>
  </defs>
  <path class="cls-1" d="M96.92,95c-.47,0-.94.01-1.4.01-31,0-62.01,0-93.01,0-.09,0-.19,0-.28,0q-1.12,0-.66-.98c2.02-4.25,4.04-8.49,6.07-12.74,3.4-7.14,6.81-14.28,10.18-21.43.32-.67.68-.88,1.41-.88,3.18.04,6.36.02,9.54.02h1.09c-.05-.44-.31-.68-.49-.94-2.23-3.38-4.84-6.51-6.67-10.15-2.81-5.57-3.77-11.51-3.35-17.69.31-4.55,1.42-8.91,3.47-13.01,3.36-6.71,8.6-11.4,15.56-14.11,7.25-2.82,14.57-2.82,21.81,0,6.95,2.71,12.27,7.36,15.53,14.12,4.24,8.77,4.69,17.85,1.67,27.09-.71,2.16-1.69,4.22-2.98,6.12-1.73,2.56-3.49,5.09-5.24,7.63-.17.25-.33.51-.5.77.35.27.71.15,1.03.16,3.03.01,6.05.03,9.08-.01.73-.01,1.09.21,1.4.88,5.37,11.34,10.77,22.67,16.18,34,.16.33.23.71.55.95v.19ZM22.35,33.26c.07,1.02.08,2.39.27,3.75.6,4.38,1.93,8.5,4.46,12.17,7.18,10.42,14.39,20.82,21.59,31.23q.62.89,1.24,0c6.85-9.89,13.7-19.78,20.55-29.68.69-1,1.39-2,1.99-3.05,3.59-6.4,4.46-13.27,3.32-20.44-.8-4.98-2.57-9.62-5.9-13.44-7.28-8.33-16.47-11.28-27.21-8.75-7.08,1.67-12.55,5.8-16.25,12.12-2.84,4.85-4.02,10.15-4.04,16.09ZM50.12,85.6c-.4.57-1.24.58-1.64.01-2.69-3.87-11.32-16.3-15.74-22.73-.43-.63-.88-.82-1.67-.78-3.18.15-6.38.29-9.55,0-.96-.08-1.35.14-1.7.88-4.4,9.29-8.82,18.56-13.24,27.84-.14.3-.37.58-.35,1h85.56c.09-.26-.07-.45-.16-.63-4.51-9.48-9.03-18.95-13.52-28.43-.19-.41-.6-.67-1.06-.66-3.31.02-6.62.03-9.92,0-.58,0-.89.23-1.2.68-1.94,2.83-3.9,5.64-5.85,8.46-3.3,4.76-6.59,9.52-9.95,14.36Z"/>
  <path class="cls-1" d="M60.53,30.76c.04,6-4.86,10.93-10.91,10.99-5.99.06-10.93-4.82-11.02-10.88-.09-5.98,4.93-11.04,10.96-11.05,6,0,10.93,4.9,10.97,10.94ZM57.4,30.82c.05-4.2-3.47-7.77-7.75-7.87-4.22-.09-7.87,3.49-7.92,7.79-.05,4.24,3.58,7.89,7.84,7.87,4.24-.01,7.78-3.54,7.82-7.8Z"/>
</svg>