<?xml version="1.0" encoding="UTF-8"?>
<svg id="Layer_1" data-name="Layer 1" xmlns="http://www.w3.org/2000/svg" viewBox="0 0 96 96">
  <defs>
    <style>
      .cls-1 {
        fill: none;
        stroke: #033778;
        stroke-linecap: round;
        stroke-linejoin: round;
        stroke-width: 3px;
      }
    </style>
  </defs>
  <polygon class="cls-1" points="85.84 39.34 48 34.3 10.16 39.34 10.16 89.46 48 94.5 85.84 89.46 85.84 39.34"/>
  <path class="cls-1" d="M21.21,37.87v-9.38c0-14.9,12.09-26.99,26.99-26.99,7.45,0,14.19,3.03,19.08,7.91,4.89,4.88,7.91,11.62,7.91,19.08v9.43"/>
  <path class="cls-1" d="M28.14,35.94v-6.97c0-11.08,8.98-20.06,20.06-20.06,5.53,0,10.55,2.25,14.18,5.88,3.64,3.63,5.88,8.64,5.88,14.18v7.01"/>
  <polyline class="cls-1" points="52.47 69.74 52.47 78.65 44.3 78.65 44.3 69.68"/>
  <path class="cls-1" d="M52.47,69.74c2.61-1.42,4.39-4.2,4.39-7.39,0-4.65-3.76-8.42-8.41-8.42s-8.42,3.77-8.42,8.42c0,3.15,1.73,5.88,4.28,7.33"/>
</svg>