<?xml version="1.0" encoding="UTF-8"?>
<svg id="Layer_1" data-name="Layer 1" xmlns="http://www.w3.org/2000/svg" viewBox="0 0 96 96">
  <defs>
    <style>
      .cls-1 {
        fill: #033778;
      }
    </style>
  </defs>
  <path class="cls-1" d="M72.51,57.98l-8.73-1.59.75-6.29c-.64-.32-1.26-.69-1.86-1.09l-5.12,3.72-5.67-6.84,4.61-4.33c-.28-.66-.52-1.34-.72-2.03l-6.31-.43.05-8.89,6.31-.36c.21-.69.46-1.37.76-2.02l-2.12-2.04,2.08-2.16,3.72,3.59-.54,1c-.57,1.07-1,2.21-1.27,3.41l-.25,1.1-5.71.32-.02,3.25,5.71.39.24,1.11c.25,1.19.66,2.34,1.22,3.44l.51,1-4.16,3.91,2.07,2.5,4.62-3.36.89.68c.98.76,2.04,1.38,3.15,1.84l1.04.44-.67,5.69,3.2.58,1.39-5.56,1.13-.04c.62-.02,1.21-.08,1.81-.18.61-.1,1.21-.25,1.79-.42l1.08-.33,3.13,4.79,2.82-1.61-2.51-5.15.84-.76c.9-.81,1.7-1.75,2.36-2.77l.61-.95,5.48,1.65,1.13-3.04-5.22-2.32.15-1.11c.16-1.22.17-2.45.02-3.65l-.14-1.12,5.26-2.26-1.1-3.06-5.48,1.58-.6-.95c-.66-1.03-1.44-1.98-2.34-2.81l-.82-.77,2.58-5.1-2.8-1.65-3.2,4.74-1.07-.34c-1.19-.38-2.39-.6-3.58-.65l-1.13-.05-1.32-5.57-3.2.54.6,5.69-1.04.43c-1.13.46-2.2,1.07-3.17,1.81l-.9.68-5.71-4.26.31-.42-1.19-1.02,1.55-1.81,5.06,3.78c.6-.4,1.23-.75,1.87-1.07l-.67-6.29,8.76-1.48,1.45,6.15c.71.08,1.41.21,2.11.39l3.54-5.25,7.66,4.5-2.85,5.64c.49.52.95,1.08,1.38,1.66l6.07-1.75,3,8.37-5.82,2.49c.04.72.04,1.43,0,2.15l5.78,2.57-3.09,8.33-6.06-1.83c-.43.58-.9,1.13-1.4,1.64l2.78,5.68-7.72,4.39-3.46-5.29c-.35.08-.71.16-1.06.22-.35.06-.71.11-1.07.15l-1.53,6.13Z"/>
  <path class="cls-1" d="M72.12,42.22c-4.09,0-7.42-3.33-7.42-7.42s3.33-7.42,7.42-7.42,7.42,3.33,7.42,7.42-3.33,7.42-7.42,7.42ZM72.12,30.37c-2.44,0-4.42,1.98-4.42,4.42s1.98,4.42,4.42,4.42,4.42-1.98,4.42-4.42-1.98-4.42-4.42-4.42Z"/>
  <rect class="cls-1" x="65.64" y="61.08" width="10.11" height="3"/>
  <path class="cls-1" d="M77.25,96h-44.96v-9.26h3v6.26h38.96v-11.41c0-1.71,1.22-3.15,2.91-3.43,4.13-.68,7.13-4.23,7.13-8.42v-5.66h-8.54v-3h11.54v8.66c0,5.67-4.06,10.46-9.64,11.38-.23.04-.4.24-.4.47v14.41Z"/>
  <path class="cls-1" d="M12.47,32.25c-.83,0-1.5-.67-1.5-1.5v-1.05C10.97,13.32,24.29,0,40.67,0h7.48C51.75,0,54.69,2.93,54.69,6.54v6.28c0,.83-.67,1.5-1.5,1.5s-1.5-.67-1.5-1.5v-6.28c0-1.95-1.59-3.54-3.54-3.54h-7.48c-14.72,0-26.7,11.98-26.7,26.7v1.05c0,.83-.67,1.5-1.5,1.5Z"/>
  <path class="cls-1" d="M29.75,72.68h-11.49c-4.02,0-7.29-3.27-7.29-7.29v-8.1c-.81-.63-1.89-.82-2.88-.47-1.48.52-3.13.3-4.42-.6-2.31-1.61-3.11-4.73-1.86-7.26l9.31-18.87c.37-.74,1.27-1.05,2.01-.68.74.37,1.05,1.27.68,2.01l-9.31,18.87c-.6,1.21-.21,2.7.89,3.47.49.34,1.13.43,1.7.23,2.28-.81,4.79-.19,6.42,1.58.29.28.45.66.45,1.07v8.75c0,2.37,1.92,4.29,4.29,4.29h11.49c1.4,0,2.54-1.14,2.54-2.54v-7.09c0-.83.67-1.5,1.5-1.5s1.5.67,1.5,1.5v7.09c0,3.06-2.49,5.54-5.54,5.54Z"/>
  <path class="cls-1" d="M31.7,37.24h-9.54c-.83,0-1.5-.67-1.5-1.5v-3.12h3v1.62h6.54v-1.62h3v3.12c0,.83-.67,1.5-1.5,1.5Z"/>
  <path class="cls-1" d="M53.19,26.87c-3.27,0-5.93-2.66-5.93-5.93s2.66-5.93,5.93-5.93,5.94,2.66,5.94,5.93-2.66,5.93-5.94,5.93ZM53.19,18c-1.62,0-2.93,1.32-2.93,2.93s1.32,2.93,2.93,2.93,2.94-1.32,2.94-2.93-1.32-2.93-2.94-2.93Z"/>
  <path class="cls-1" d="M34.22,56.9c-3.27,0-5.93-2.66-5.93-5.93s2.66-5.94,5.93-5.94,5.93,2.66,5.93,5.94-2.66,5.93-5.93,5.93ZM34.22,48.03c-1.62,0-2.93,1.32-2.93,2.94s1.32,2.93,2.93,2.93,2.93-1.32,2.93-2.93-1.32-2.94-2.93-2.94Z"/>
  <path class="cls-1" d="M56.02,67.24c-3.27,0-5.93-2.66-5.93-5.93s2.66-5.93,5.93-5.93,5.93,2.66,5.93,5.93-2.66,5.93-5.93,5.93ZM56.02,58.37c-1.62,0-2.93,1.32-2.93,2.93s1.32,2.93,2.93,2.93,2.93-1.32,2.93-2.93-1.32-2.93-2.93-2.93Z"/>
  <rect class="cls-1" x="32.29" y="81.22" width="3" height="2.98"/>
  <rect class="cls-1" x="32.29" y="75.99" width="3" height="2.98"/>
  <rect class="cls-1" x="42.42" y="39.65" width="3" height="2.98"/>
  <rect class="cls-1" x="42.42" y="32.57" width="3" height="2.98"/>
</svg>