<?xml version="1.0" encoding="UTF-8"?>
<svg id="Layer_1" data-name="Layer 1" xmlns="http://www.w3.org/2000/svg" viewBox="0 0 96 96">
  <defs>
    <style>
      .cls-1 {
        fill: #033778;
      }
    </style>
  </defs>
  <path class="cls-1" d="M83.92,70.91c-.75,0-1.36.61-1.36,1.36v1.18c0,3.25-2.64,5.89-5.89,5.89h-10.12c-1.75,0-3.17,1.42-3.17,3.17v8.51c0,.25-.2.45-.45.45H27.64c-.25,0-.45-.2-.45-.45v-10.28c0-.75-.61-1.36-1.36-1.36s-1.36.61-1.36,1.36v10.28c0,1.75,1.42,3.17,3.17,3.17h35.28c1.75,0,3.17-1.42,3.17-3.17v-8.51c0-.25.2-.45.45-.45h10.12c4.74,0,8.6-3.86,8.6-8.6v-1.18c0-.75-.61-1.36-1.36-1.36Z"/>
  <path class="cls-1" d="M93.43,58.72l-7.99-15.2c-.1-.19-.16-.41-.16-.63v-4.96c0-9.6-3.68-18.68-10.37-25.56-6.71-6.9-15.68-10.79-25.25-10.94-9.24-.14-17.98,3.14-24.79,9.29l-3-3c-.77-.77-1.79-1.19-2.88-1.19h-8.58c-.57-1.66-2.14-2.86-3.99-2.86-2.33,0-4.22,1.89-4.22,4.22s1.89,4.22,4.22,4.22c1.85,0,3.43-1.2,3.99-2.86h8.58c.36,0,.7.14.96.4l2.97,2.97c-5.98,6.25-9.47,14.27-9.97,22.87h-2.53c-.57-1.66-2.14-2.86-3.99-2.86-2.33,0-4.22,1.89-4.22,4.22s1.89,4.22,4.22,4.22c1.85,0,3.43-1.2,3.99-2.86h2.48c.13,8.73,3.32,16.92,9.06,23.39l-5.88,5.88c-.77.77-1.19,1.79-1.19,2.88v3.48c-1.66.57-2.86,2.14-2.86,3.99,0,2.33,1.89,4.22,4.22,4.22s4.22-1.89,4.22-4.22c0-1.85-1.2-3.43-2.86-3.99v-3.48c0-.36.14-.7.4-.96l5.84-5.84c.07.07.14.14.21.21.28.26.43.63.43,1v9.95c0,.75.61,1.36,1.36,1.36s1.36-.61,1.36-1.36v-9.95c0-1.11-.46-2.18-1.27-2.96-.06-.06-.11-.11-.17-.17l4.89-4.89,1.76,1.76c.43.43,1,.66,1.6.66s1.17-.24,1.6-.66l3.93-3.93c1.05.55,2.15,1,3.27,1.36v5.55c0,1.25,1.02,2.26,2.26,2.26h7.45c1.25,0,2.26-1.02,2.26-2.26v-5.55c1.12-.35,2.22-.81,3.27-1.36l3.93,3.93c.88.88,2.32.88,3.2,0l5.27-5.27c.43-.43.66-1,.66-1.6s-.24-1.17-.66-1.6l-3.93-3.93c.55-1.05,1-2.15,1.36-3.27h5.55c1.25,0,2.26-1.02,2.26-2.26v-7.45c0-1.25-1.02-2.26-2.26-2.26h-5.55c-.35-1.12-.81-2.22-1.36-3.27l3.93-3.93c.43-.43.66-1,.66-1.6s-.24-1.17-.66-1.6l-5.27-5.27c-.88-.88-2.32-.88-3.2,0l-3.93,3.93c-1.05-.55-2.15-1-3.27-1.36v-5.55c0-1.25-1.02-2.26-2.26-2.26h-7.45c-1.25,0-2.26,1.02-2.26,2.26v5.55c-1.13.35-2.22.81-3.27,1.36l-3.93-3.93c-.88-.88-2.32-.88-3.2,0l-1.53,1.53-4.07-4.07c6.28-5.62,14.32-8.62,22.82-8.49,8.84.14,17.13,3.73,23.34,10.11,6.19,6.37,9.61,14.77,9.61,23.66v4.96c0,.66.16,1.31.47,1.9l7.99,15.2c.1.2.04.36-.01.44-.05.08-.17.22-.39.22h-4.89c-1.75,0-3.17,1.42-3.17,3.17v2.59c0,.75.61,1.36,1.36,1.36s1.36-.61,1.36-1.36v-2.59c0-.25.2-.45.45-.45h4.89c1.12,0,2.13-.57,2.71-1.53.58-.96.61-2.12.09-3.11h0ZM6.42,9.4c-.83,0-1.5-.67-1.5-1.5s.67-1.5,1.5-1.5,1.5.67,1.5,1.5-.67,1.5-1.5,1.5ZM16.24,79.33c-.83,0-1.5-.67-1.5-1.5s.67-1.5,1.5-1.5,1.5.67,1.5,1.5-.67,1.5-1.5,1.5ZM6.42,38.35c-.83,0-1.5-.67-1.5-1.5s.67-1.5,1.5-1.5,1.5.67,1.5,1.5-.67,1.5-1.5,1.5ZM23.88,59.67c-5.23-5.96-8.14-13.46-8.27-21.46h6.27v2.37c0,1.25,1.02,2.26,2.26,2.26h5.55c.35,1.12.81,2.22,1.36,3.27l-3.93,3.93c-.88.88-.88,2.32,0,3.2l1.59,1.59-4.84,4.84ZM34,17.43l3.85,3.85c.7.7,1.81.86,2.69.39,1.07-.58,2.2-1.05,3.36-1.39.96-.28,1.62-1.17,1.62-2.17v-5.44h6.54v5.44c0,1,.67,1.89,1.62,2.17,1.16.34,2.29.81,3.36,1.39.88.48,1.98.32,2.69-.39l3.85-3.85,4.63,4.63-3.85,3.85c-.71.71-.86,1.81-.39,2.69.58,1.07,1.05,2.2,1.39,3.36.28.96,1.18,1.62,2.17,1.62h5.44v6.54h-5.44c-1,0-1.89.67-2.17,1.62-.34,1.16-.81,2.29-1.39,3.36-.48.88-.32,1.98.39,2.69l3.85,3.85-4.63,4.63-3.85-3.85c-.7-.71-1.81-.86-2.69-.39-1.07.58-2.2,1.05-3.36,1.39-.96.28-1.62,1.17-1.62,2.17v5.44h-6.54v-5.44c0-1-.67-1.89-1.62-2.17-1.16-.34-2.29-.81-3.36-1.39-.88-.48-1.98-.32-2.69.39l-3.85,3.85-4.63-4.63,3.85-3.85c.7-.7.86-1.81.39-2.69-.58-1.07-1.05-2.2-1.39-3.36-.28-.96-1.17-1.62-2.17-1.62h-5.44v-6.54h5.44c1,0,1.89-.67,2.17-1.62.34-1.16.81-2.29,1.39-3.36.48-.88.32-1.98-.39-2.69l-3.85-3.85,4.63-4.63ZM27.13,23.66l3.93,3.93c-.55,1.05-1,2.15-1.36,3.27h-5.55c-1.25,0-2.26,1.02-2.26,2.26v2.37h-6.21c.49-7.88,3.7-15.21,9.17-20.95l4.1,4.1-1.81,1.81c-.88.88-.88,2.32,0,3.2Z"/>
  <path class="cls-1" d="M35.26,35.45c.74.15,1.45-.32,1.6-1.06,1.15-5.63,6.17-9.72,11.92-9.72,6.71,0,12.17,5.46,12.17,12.17s-5.46,12.17-12.17,12.17c-2.82,0-5.46-.93-7.65-2.7-2.12-1.72-3.62-4.12-4.22-6.77-.17-.73-.89-1.19-1.63-1.02-.73.17-1.19.89-1.02,1.63.73,3.24,2.57,6.18,5.17,8.28,2.64,2.13,5.96,3.31,9.36,3.31,8.21,0,14.89-6.68,14.89-14.89s-6.68-14.89-14.89-14.89c-7.04,0-13.18,5-14.59,11.89-.15.74.32,1.45,1.06,1.6h0Z"/>
</svg>