<?xml version="1.0" encoding="UTF-8"?>
<svg id="Layer_1" data-name="Layer 1" xmlns="http://www.w3.org/2000/svg" viewBox="0 0 96 96">
  <defs>
    <style>
      .cls-1 {
        fill: #033778;
      }
    </style>
  </defs>
  <rect class="cls-1" y="92.71" width="96" height="3"/>
  <rect class="cls-1" x="59.07" y="52.39" width="3" height="42.3"/>
  <rect class="cls-1" x="89.13" y="22.94" width="3" height="71.14"/>
  <rect class="cls-1" x="74.1" y="41.48" width="3" height="51.69"/>
  <path class="cls-1" d="M46.55,51.54l-1.35-2.68C80.64,30.92,86.14,3.61,86.19,3.34l2.95.55c-.22,1.18-5.74,29-42.58,47.66Z"/>
  <polygon class="cls-1" points="92.76 16.29 87.64 4 75.34 9.12 74.19 6.35 89.25 .07 95.53 15.14 92.76 16.29"/>
  <g>
    <path class="cls-1" d="M23.19,81.41l-2.11-5.18c-.28,0-.55,0-.83,0-.28,0-.55-.02-.83-.04l-2.37,5.07-7.58-2.96,1.71-5.33c-.43-.34-.85-.71-1.24-1.1l-5.08,2.37-3.9-7.15,4.74-2.98c-.11-.54-.19-1.09-.25-1.64L.06,61l1.6-7.99,5.54.76c.26-.49.55-.96.87-1.42l-2.88-4.21,5.97-5.54,3.83,4.23c.52-.21,1.04-.38,1.57-.53l.49-5.58,8.14.21.22,5.59c.52.17,1.03.37,1.54.61l3.97-3.96,6.1,5.39-3.43,4.42c.29.47.56.96.8,1.46l5.57-.49,1.22,8.06-5.47,1.18c-.08.55-.19,1.09-.33,1.63l4.58,3.21-4.24,6.95-4.95-2.61c-.41.37-.85.71-1.3,1.04l1.45,5.41-7.72,2.6ZM23.03,73.04l1.88,4.62,2.38-.8-1.29-4.83.97-.58c.9-.54,1.73-1.2,2.46-1.96l.78-.81,4.42,2.33,1.31-2.14-4.08-2.86.36-1.06c.34-1.01.55-2.05.62-3.1l.08-1.13,4.88-1.05-.38-2.49-4.96.44-.41-1.05c-.39-.98-.9-1.92-1.52-2.78l-.66-.91,3.06-3.94-1.88-1.66-3.53,3.52-.98-.54c-.94-.52-1.93-.9-2.93-1.15l-1.1-.27-.2-4.99-2.51-.06-.44,4.97-1.1.22c-1.03.21-2.04.54-2.99,1.01l-1.01.49-3.27-3.61-1.86,1.73.03.04,2.66,3.81-.72.88c-.66.81-1.22,1.71-1.65,2.68l-.46,1.03-4.94-.68-.49,2.46,4.82,1.29.02,1.13c.02,1.05.17,2.1.46,3.12l.31,1.08-4.22,2.65,1.2,2.21,4.52-2.11.74.84c.71.81,1.51,1.51,2.37,2.09l.94.63-1.53,4.75,2.33.91,2.12-4.52,1.11.18c.53.08,1.04.13,1.57.14.53.01,1.07,0,1.58-.06l1.12-.12Z"/>
    <path class="cls-1" d="M20.53,67.67c-.42,0-.85-.04-1.29-.12-1.76-.34-3.27-1.35-4.27-2.83-1-1.48-1.36-3.27-1.02-5.02.71-3.62,4.24-5.99,7.86-5.29,3.63.71,6,4.23,5.29,7.86h0c-.62,3.19-3.43,5.42-6.57,5.42ZM20.52,57.27c-1.73,0-3.28,1.23-3.63,2.99-.19.97.01,1.96.56,2.77s1.39,1.38,2.36,1.56c2,.39,3.95-.92,4.34-2.92h0c.39-2-.92-3.95-2.92-4.34-.24-.05-.48-.07-.71-.07Z"/>
  </g>
  <rect class="cls-1" x="44.03" y="63.49" width="3" height="30.59"/>
</svg>