<?xml version="1.0" encoding="UTF-8"?>
<svg id="Capa_1" data-name="Capa 1" xmlns="http://www.w3.org/2000/svg" viewBox="0 0 96 96">
  <defs>
    <style>
      .cls-1 {
        fill: #033778;
      }
    </style>
  </defs>
  <path class="cls-1" d="M1.97,91.68c.4-1.6.49-3.25.7-4.88.97-7.49,1.9-14.97,2.84-22.46.93-7.37,1.85-14.74,2.76-22.11.22-1.79.19-1.79,1.95-1.79,5.22,0,10.43,0,15.65,0,.3,0,.6-.02.9.02.95.12,1.6.79,1.61,1.64.02.84-.62,1.53-1.56,1.68-.29.05-.6.04-.9.04-4.53,0-9.05.02-13.58-.02-.74,0-.94.25-1.03.95-.98,7.97-2,15.93-3,23.89-.83,6.6-1.65,13.2-2.5,19.79-.06.45.05.61.49.57.18-.02.36,0,.54,0,27.46,0,54.92,0,82.37,0,1.15,0,1.13,0,1-1.11-.71-6.55-1.41-13.1-2.12-19.66-.75-6.97-1.51-13.94-2.26-20.91-.1-.89-.21-1.79-.26-2.68-.03-.65-.28-.84-.94-.83-4.56.03-9.11.02-13.67.02-1.56,0-2.4-.59-2.4-1.68,0-1.09.84-1.69,2.39-1.69,5.52,0,11.03.02,16.55-.02.76,0,1.02.2,1.09.96.53,5.28,1.11,10.55,1.67,15.82.63,5.87,1.26,11.73,1.89,17.6.61,5.66,1.22,11.32,1.84,16.98.05.42-.05.63-.51.59-.27-.02-.54,0-.81,0-29.83,0-59.65,0-89.48,0-.42,0-.84.03-1.25.04,0-.24,0-.48,0-.72Z"/>
  <path class="cls-1" d="M46.53,67.11c-2.49-2.77-4.7-5.75-6.7-8.89-4.95-7.75-8.3-16.16-10.35-25.11-1.2-5.27-1.52-10.53-.22-15.83,1.87-7.58,7.22-12.39,14.96-13.39,4.06-.52,8.08-.42,12.01.83,6.21,1.98,9.81,6.38,11.36,12.58,1.38,5.54.92,11.05-.39,16.54-2.5,10.5-6.81,20.16-13.26,28.84-1.02,1.37-2.08,2.71-3.24,3.96-.33.36-.6.68-.51,1.25.11.65-.26,1.14-.82,1.48-.92.57-1.83,1.14-2.76,1.68-.77.45-1.7.27-2.18-.38-.54-.73-.48-1.64.24-2.26.56-.49,1.21-.87,1.85-1.33ZM48.46,64.18c.55-.66,1.08-1.27,1.57-1.9,6.87-8.8,11.46-18.68,14-29.54,1.13-4.84,1.53-9.7.34-14.59-1.28-5.23-4.29-8.9-9.6-10.39-3.76-1.05-7.58-1.08-11.39-.31-5.42,1.09-8.97,4.31-10.57,9.61-1.4,4.64-1.29,9.35-.32,14.05,2.17,10.55,6.42,20.22,12.68,28.99,1.01,1.41,2.05,2.8,3.3,4.09Z"/>
  <path class="cls-1" d="M21.18,83.96c-.75.03-1.5-.06-2.23-.22-1.02-.23-1.63-1.04-1.47-1.93.16-.95,1-1.49,2.09-1.33.83.12,1.67.13,2.51.09,1.19-.06,1.96.56,2.02,1.56.06.99-.64,1.68-1.83,1.79-.36.03-.72.04-1.08.05Z"/>
  <path class="cls-1" d="M83.63,55.46c0,1-.11,1.68-.35,2.33-.32.85-1.13,1.3-1.91,1.1-.86-.22-1.42-1-1.26-1.89.16-.87.17-1.7-.04-2.57-.24-1.03.3-1.83,1.24-2.05.86-.2,1.65.31,1.97,1.28.23.69.36,1.39.36,1.81Z"/>
  <path class="cls-1" d="M42.17,73.84c0,.58-.25,1.06-.7,1.39-.89.65-1.79,1.3-2.72,1.9-.85.54-1.8.36-2.31-.39-.52-.75-.39-1.7.4-2.31.9-.69,1.83-1.37,2.8-1.95,1.16-.69,2.51.06,2.53,1.35Z"/>
  <path class="cls-1" d="M13.16,76.6c.07-.96.14-1.86.38-2.72.27-.98,1.06-1.52,1.92-1.36.94.18,1.46.96,1.33,2-.12.95-.28,1.89-.26,2.85.02.99-.66,1.69-1.56,1.73-.88.04-1.55-.54-1.71-1.5-.06-.35-.07-.71-.1-1.01Z"/>
  <path class="cls-1" d="M75.08,65.66c-.96-.01-1.59-.52-1.77-1.29-.18-.76.16-1.55.93-1.84,1.09-.41,2.17-.82,3.21-1.35.69-.36,1.55.02,1.93.7.43.75.34,1.47-.29,2.04-1.18,1.05-2.63,1.51-4.01,1.74Z"/>
  <path class="cls-1" d="M21.83,66.49c.21.03.51.05.79.12.85.23,1.34.88,1.29,1.7-.05.82-.62,1.48-1.49,1.52-1,.05-1.94.23-2.87.6-.84.33-1.68-.1-2.01-.87-.35-.82-.06-1.71.76-2.15,1.07-.57,2.22-.87,3.53-.92Z"/>
  <path class="cls-1" d="M75.71,51.76c-.65-.09-1.37.15-2.11.25-.94.13-1.71-.35-1.95-1.19-.23-.83.2-1.69,1.1-1.99,1.35-.46,2.76-.56,4.17-.3.82.16,1.36.91,1.3,1.7-.06.85-.69,1.47-1.59,1.53-.27.02-.54,0-.92,0Z"/>
  <path class="cls-1" d="M55.27,67.43c-1.16,0-1.85-.56-1.98-1.39-.13-.81.36-1.65,1.22-1.84,1.17-.26,2.35-.45,3.54-.58.97-.1,1.67.49,1.81,1.36.14.85-.39,1.66-1.31,1.86-1.17.25-2.35.42-3.28.59Z"/>
  <path class="cls-1" d="M66.5,66.36c-.68-.04-1.27.13-1.87,0-.82-.19-1.34-.75-1.35-1.55-.01-.86.41-1.5,1.24-1.63,1.29-.21,2.62-.3,3.93-.18.85.08,1.44.79,1.47,1.56.03.8-.55,1.54-1.44,1.68-.67.11-1.37.09-1.97.12Z"/>
  <path class="cls-1" d="M29.11,82.01c-.99-.02-1.54-.37-1.79-1.11-.26-.77-.07-1.47.63-1.88,1.14-.66,2.35-1.18,3.62-1.55.78-.23,1.43.09,1.82.8.38.68.34,1.44-.26,1.89-1.24.96-2.76,1.38-4.02,1.85Z"/>
  <path class="cls-1" d="M48.42,35.26c-6.78,0-12.28-5.5-12.28-12.29,0-6.77,5.51-12.28,12.29-12.27,6.78,0,12.31,5.53,12.3,12.28-.01,6.77-5.54,12.28-12.31,12.27ZM39.5,22.96c-.01,4.86,4.04,8.95,8.89,8.97,4.84.03,8.95-4.04,8.98-8.89.03-4.9-4.06-9.02-8.94-9.02-4.85,0-8.92,4.07-8.93,8.94Z"/>
</svg>