<?xml version="1.0" encoding="UTF-8"?>
<svg id="Layer_1" data-name="Layer 1" xmlns="http://www.w3.org/2000/svg" viewBox="0 0 96 96">
  <defs>
    <style>
      .cls-1 {
        fill: #033778;
      }
    </style>
  </defs>
  <path class="cls-1" d="M54.77,89.15h-13.82l-.52-5c-1.69-.42-3.37-.98-5-1.68l-3.27,3.73-11.15-8.37,2.42-4.36c-1.15-1.38-2.2-2.87-3.12-4.43l-4.76,1.04-4.25-13.49,4.44-2.05c-.08-.93-.12-1.85-.12-2.75,0-.12,0-.23.01-.35v-.19s0-1.5,0-1.5h16.51v1.5c0,9.02,7.05,16.31,15.71,16.31s15.71-7.29,15.71-16.26v-1.5l1.5-.05h15.04v2.04c0,.9-.03,1.83-.11,2.77l4.43,2.04-4.25,13.49-4.75-1.04c-.92,1.57-1.97,3.05-3.13,4.44l2.42,4.34-11.16,8.37-3.26-3.73c-1.63.7-3.31,1.26-5.01,1.68l-.52,4.99ZM43.66,86.15h8.41l.47-4.47,1.08-.22c2.2-.45,4.37-1.17,6.44-2.16l1.03-.49,2.91,3.33,6.83-5.13-2.17-3.9.71-.8c1.54-1.72,2.88-3.63,4-5.68l.54-.99,4.25.93,2.63-8.35-3.98-1.83.12-1.08c.1-.87.16-1.72.19-2.56h-10.58c-.72,9.95-8.81,17.81-18.65,17.81s-17.93-7.87-18.65-17.81h-10.57c.03.83.09,1.67.19,2.53l.12,1.08-4,1.84,2.63,8.35,4.26-.93.54.99c1.12,2.05,2.46,3.95,3.99,5.67l.71.8-2.18,3.92,6.83,5.13,2.91-3.33,1.02.48c2.08.98,4.25,1.71,6.44,2.16l1.07.22.47,4.47Z"/>
  <rect class="cls-1" x="25.35" y="19.57" width="3" height="31.7"/>
  <polygon class="cls-1" points="21.19 51.27 18.19 51.27 18.19 28.95 11.46 28.95 11.46 25.95 21.19 25.95 21.19 51.27"/>
  <path class="cls-1" d="M26.85,20.82c-3.76,0-6.81-3.13-6.81-6.98s3.06-6.98,6.81-6.98,6.81,3.13,6.81,6.98-3.06,6.98-6.81,6.98ZM26.85,9.85c-2.1,0-3.81,1.79-3.81,3.98s1.71,3.98,3.81,3.98,3.81-1.79,3.81-3.98-1.71-3.98-3.81-3.98Z"/>
  <path class="cls-1" d="M6.81,32.81c-3.76,0-6.81-3.13-6.81-6.98s3.06-6.98,6.81-6.98,6.81,3.13,6.81,6.98-3.06,6.98-6.81,6.98ZM6.81,21.84c-2.1,0-3.81,1.79-3.81,3.98s1.71,3.98,3.81,3.98,3.81-1.79,3.81-3.98-1.71-3.98-3.81-3.98Z"/>
  <rect class="cls-1" x="67.65" y="19.32" width="3" height="31.95"/>
  <polygon class="cls-1" points="77.81 51.27 74.81 51.27 74.81 25.95 84.54 25.95 84.54 28.95 77.81 28.95 77.81 51.27"/>
  <path class="cls-1" d="M69.15,20.82c-3.76,0-6.81-3.13-6.81-6.98s3.06-6.98,6.81-6.98,6.81,3.13,6.81,6.98-3.06,6.98-6.81,6.98ZM69.15,9.85c-2.1,0-3.81,1.79-3.81,3.98s1.71,3.98,3.81,3.98,3.81-1.79,3.81-3.98-1.71-3.98-3.81-3.98Z"/>
  <path class="cls-1" d="M89.19,32.81c-3.76,0-6.81-3.13-6.81-6.98s3.06-6.98,6.81-6.98,6.81,3.13,6.81,6.98-3.06,6.98-6.81,6.98ZM89.19,21.84c-2.1,0-3.81,1.79-3.81,3.98s1.71,3.98,3.81,3.98,3.81-1.79,3.81-3.98-1.71-3.98-3.81-3.98Z"/>
  <path class="cls-1" d="M54.68,52.91h-12.16v-7.12h-6.9v-12.45h6.9v-7.12h12.16v7.12h6.89v12.45h-6.89v7.12ZM45.53,49.91h6.16v-7.12h6.89v-6.45h-6.89v-7.12h-6.16v7.12h-6.9v6.45h6.9v7.12Z"/>
</svg>