<?xml version="1.0" encoding="UTF-8"?>
<svg id="Layer_1" data-name="Layer 1" xmlns="http://www.w3.org/2000/svg" viewBox="0 0 96 96">
  <defs>
    <style>
      .cls-1 {
        fill: #033778;
      }
    </style>
  </defs>
  <rect class="cls-1" x="1.5" y="92.92" width="93" height="3"/>
  <path class="cls-1" d="M43.39,93.88h-3v-22.22c-4.37-2.85-6.11-8.89-3.87-13.94,1.02-2.3,2.77-4.14,4.93-5.19.38-.18.82-.2,1.21-.05,2.6,1.03,4.59,3.27,5.6,6.3,1.69,5.06-.48,10.65-4.87,12.97v22.12ZM42.16,55.56c-1.25.77-2.27,1.95-2.9,3.38-1.64,3.7-.42,8.1,2.71,10.17,3.14-1.65,4.67-5.7,3.44-9.38-.65-1.95-1.77-3.38-3.25-4.18Z"/>
  <path class="cls-1" d="M37.03,86.27c-3.29,0-6.51-1.6-8.45-4.55-1.3-1.98-1.87-4.37-1.59-6.72.05-.39.24-.74.54-.99,2.15-1.75,4.96-2.4,7.91-1.83,5.3,1.02,8.78,6.16,7.76,11.46-.08.4-.31.75-.65.97-1.7,1.12-3.63,1.65-5.53,1.65ZM29.93,75.98c-.04,1.44.36,2.88,1.16,4.1,2.03,3.08,6.07,4.07,9.26,2.36.33-3.44-2.01-6.64-5.47-7.31-1.86-.36-3.56-.07-4.95.85Z"/>
  <path class="cls-1" d="M46.85,86.27c-1.9,0-3.82-.54-5.53-1.65-.34-.22-.57-.57-.65-.97-.49-2.57.04-5.17,1.51-7.34,1.47-2.16,3.69-3.63,6.25-4.12,2.95-.57,5.76.08,7.91,1.83.3.25.5.6.54.99.28,2.35-.29,4.74-1.59,6.72-1.94,2.95-5.16,4.55-8.45,4.55ZM43.53,82.44c3.2,1.71,7.24.72,9.27-2.36.8-1.22,1.2-2.65,1.16-4.1-1.39-.91-3.09-1.21-4.95-.85-1.78.34-3.32,1.36-4.34,2.86-.9,1.32-1.29,2.88-1.14,4.45Z"/>
  <path class="cls-1" d="M78.26,93.88h-3v-59.18c-5.52-3.35-7.74-10.65-4.93-16.75,1.26-2.73,3.41-4.92,6.06-6.17.37-.17.79-.19,1.17-.04,3.18,1.22,5.63,3.88,6.88,7.49,2.12,6.12-.64,12.87-6.19,15.58v59.07ZM77.1,14.8c-1.75.98-3.17,2.53-4.04,4.41-2.18,4.73-.48,10.38,3.79,12.95,4.28-2.02,6.41-7.23,4.77-11.95-.89-2.56-2.45-4.42-4.52-5.41Z"/>
  <path class="cls-1" d="M70.61,52.75c-.84,0-1.69-.09-2.54-.26-3.24-.67-6.03-2.56-7.84-5.33-1.6-2.43-2.29-5.36-1.95-8.25.05-.39.24-.74.54-.99,2.63-2.14,6.07-2.93,9.7-2.24,6.5,1.25,10.77,7.55,9.52,14.05-.08.4-.31.75-.65.97-2.04,1.34-4.39,2.04-6.78,2.04ZM61.21,39.88c-.1,1.98.43,3.96,1.53,5.63,1.38,2.1,3.49,3.53,5.94,4.04,2.25.46,4.53.1,6.51-1.01.56-4.64-2.58-9.01-7.24-9.91-2.55-.49-4.87-.06-6.75,1.25Z"/>
  <path class="cls-1" d="M83.05,52.75c-2.39,0-4.73-.7-6.78-2.04-.34-.22-.57-.57-.65-.97-1.25-6.5,3.02-12.8,9.52-14.05,3.62-.7,7.06.1,9.7,2.24.3.25.5.6.54.99.34,2.89-.35,5.82-1.95,8.25-1.82,2.77-4.6,4.66-7.84,5.33-.84.17-1.69.26-2.54.26ZM78.47,48.54c1.98,1.12,4.26,1.48,6.51,1.01,2.46-.51,4.57-1.94,5.94-4.04,1.1-1.67,1.63-3.65,1.53-5.63-1.88-1.31-4.2-1.74-6.75-1.25-4.66.9-7.8,5.26-7.24,9.91Z"/>
  <path class="cls-1" d="M70.61,73.88c-4.04,0-8-1.96-10.37-5.58-1.6-2.43-2.29-5.36-1.95-8.25.05-.39.24-.74.54-.99,2.63-2.14,6.07-2.93,9.7-2.24,6.5,1.25,10.77,7.55,9.52,14.05-.08.4-.31.75-.65.97-2.09,1.37-4.45,2.03-6.78,2.03ZM61.21,61.02c-.1,1.98.43,3.96,1.53,5.63,2.72,4.14,8.19,5.43,12.45,3.03.56-4.64-2.58-9.01-7.24-9.91-2.55-.49-4.87-.06-6.75,1.25Z"/>
  <path class="cls-1" d="M83.05,73.88c-2.33,0-4.69-.66-6.78-2.03-.34-.22-.57-.57-.65-.97-1.25-6.5,3.02-12.8,9.52-14.05,3.62-.7,7.06.1,9.69,2.24.3.25.5.6.54.99.34,2.89-.35,5.82-1.95,8.25-2.38,3.62-6.34,5.58-10.37,5.58ZM78.47,69.67c4.26,2.4,9.73,1.12,12.45-3.03,1.1-1.67,1.63-3.65,1.53-5.63-1.88-1.31-4.2-1.74-6.75-1.25-4.66.9-7.79,5.26-7.24,9.91Z"/>
  <path class="cls-1" d="M7.36,95.66c-4.12-2.79-10.56-10.05-5.5-17.55,4.37-6.47,11.29-5.23,14.35-3.66,1.41.12,5.09.78,7.49,4.26,1.55,2.25,1.96,5.08,1.16,7.98-.13.51-.48,1.1-1.5,1.35-1.75.43-5.44.1-7.85-2.62-2.82-3.18-2.72-6.59-2-8.81-2.11-.63-6.26-1.13-9.17,3.17-4.65,6.89,4.31,13.13,4.7,13.39l-1.69,2.48ZM21.95,85.98s0,.03-.01.05v-.05ZM16.4,77.49c-.42,1.22-.76,3.55,1.36,5.95,1.34,1.51,3.36,1.79,4.38,1.76.34-1.79.04-3.43-.9-4.78-1.49-2.15-3.7-2.76-4.84-2.93Z"/>
  <path class="cls-1" d="M21.52,31.73c-5.85,0-10.6-4.76-10.6-10.6s4.76-10.6,10.6-10.6,10.6,4.76,10.6,10.6-4.76,10.6-10.6,10.6ZM21.52,13.52c-4.19,0-7.6,3.41-7.6,7.6s3.41,7.6,7.6,7.6,7.6-3.41,7.6-7.6-3.41-7.6-7.6-7.6Z"/>
  <path class="cls-1" d="M29.53,41.97c-.18,0-.36-.03-.53-.1-2.03-.77-4.68-1.2-7.47-1.2s-5.43.43-7.48,1.2c-.74.28-1.57-.06-1.9-.79-.9-1.99-2.48-4.17-4.44-6.14-1.98-1.98-4.16-3.55-6.14-4.44-.73-.33-1.07-1.16-.79-1.91.78-2.05,1.21-4.7,1.21-7.48s-.43-5.45-1.2-7.46c-.28-.74.06-1.57.77-1.9,2-.92,4.19-2.5,6.15-4.45,1.98-1.98,3.55-4.16,4.44-6.14.32-.73,1.16-1.07,1.9-.79,2.05.78,4.71,1.2,7.48,1.2s5.44-.43,7.47-1.2c.74-.28,1.58.06,1.9.78.91,2.01,2.49,4.19,4.44,6.15,1.96,1.95,4.14,3.53,6.14,4.45.72.33,1.06,1.16.77,1.9-.77,2.02-1.2,4.67-1.2,7.46s.43,5.43,1.21,7.48c.28.74-.06,1.58-.79,1.9-1.98.89-4.17,2.46-6.14,4.44-1.95,1.94-3.53,4.12-4.44,6.14-.25.55-.79.88-1.37.88ZM4.01,28.38c1.95,1.06,3.97,2.61,5.81,4.45,1.83,1.83,3.37,3.85,4.45,5.81,4.29-1.26,10.25-1.25,14.5,0,1.08-1.97,2.62-3.99,4.45-5.81,1.84-1.84,3.86-3.38,5.81-4.45-.63-2.14-.97-4.67-.97-7.25s.34-5.13.96-7.25c-1.95-1.08-3.98-2.62-5.8-4.44-1.83-1.83-3.37-3.85-4.45-5.82-4.25,1.25-10.2,1.25-14.49,0-1.06,1.95-2.61,3.98-4.45,5.82-1.83,1.82-3.85,3.36-5.8,4.44.63,2.12.96,4.64.96,7.25s-.34,5.11-.97,7.25Z"/>
</svg>