<?xml version="1.0" encoding="UTF-8"?>
<svg id="Layer_1" data-name="Layer 1" xmlns="http://www.w3.org/2000/svg" viewBox="0 0 96 96">
  <defs>
    <style>
      .cls-1 {
        fill: #223c75;
      }
    </style>
  </defs>
  <path class="cls-1" d="M47.83,95.4c-.26,0-.51-.07-.75-.2L6.9,72.2c-.47-.27-.75-.76-.75-1.3V26.7c0-.54.29-1.03.75-1.3.46-.27,1.03-.27,1.5,0l40.19,23c.47.27.75.76.75,1.3v44.2c0,.54-.29,1.03-.75,1.3-.23.13-.49.2-.75.2ZM9.15,70.03l37.19,21.28v-40.75L9.15,29.29v40.75Z"/>
  <path class="cls-1" d="M47.83,95.4c-.26,0-.52-.07-.75-.2-.46-.27-.75-.76-.75-1.3v-44.2c0-.54.29-1.04.76-1.3l40.52-23c.46-.26,1.03-.26,1.5,0,.46.27.75.76.75,1.3v44.2c0,.54-.29,1.04-.76,1.3l-40.52,23c-.23.13-.49.2-.74.2ZM49.33,50.57v40.75l37.52-21.3V29.27l-37.52,21.3Z"/>
  <path class="cls-1" d="M8.43,27.98l-1.57-2.56L47.33.56c.48-.29,1.09-.3,1.57,0l40.24,24.87-1.58,2.55L48.11,3.6,8.43,27.98Z"/>
  <rect class="cls-1" x="47.03" y="2.95" width="3" height="46.13" transform="translate(.88 53.62) rotate(-58.28)"/>
  <path class="cls-1" d="M52.58,65.89v-13.04l13-7.8v13.04l-13,7.8ZM55.58,54.55v6.05l7-4.2v-6.05l-7,4.2Z"/>
</svg>