<?xml version="1.0" encoding="UTF-8"?>
<svg id="Layer_1" data-name="Layer 1" xmlns="http://www.w3.org/2000/svg" viewBox="0 0 96 96">
  <defs>
    <style>
      .cls-1 {
        fill: #223c75;
      }
    </style>
  </defs>
  <path class="cls-1" d="M48.39,96c-.18,0-.36-.03-.53-.1l-37.2-13.93c-.59-.22-.97-.78-.97-1.4v-45.07c0-.49.24-.95.65-1.23.4-.28.92-.34,1.38-.17l37.2,13.93c.59.22.97.78.97,1.4v45.07c0,.49-.24.95-.65,1.23-.25.18-.55.27-.85.27ZM12.69,79.53l34.2,12.8v-41.87l-34.2-12.8v41.87Z"/>
  <path class="cls-1" d="M48.39,96c-.3,0-.6-.09-.85-.26-.41-.28-.65-.74-.65-1.24v-45.07c0-.62.38-1.18.96-1.4l36.41-13.93c.46-.18.98-.11,1.39.17.41.28.65.74.65,1.24v45.07c0,.62-.38,1.18-.96,1.4l-36.41,13.93c-.17.07-.35.1-.54.1ZM49.89,50.46v41.86l33.41-12.78v-41.86l-33.41,12.78ZM84.81,80.57h0,0Z"/>
  <path class="cls-1" d="M84.81,37.01c-.17,0-.35-.03-.52-.09l-20.27-7.52c-.78-.29-1.17-1.15-.88-1.93s1.15-1.17,1.93-.88l20.27,7.52c.78.29,1.17,1.15.88,1.93-.22.6-.8.98-1.41.98Z"/>
  <path class="cls-1" d="M11.19,37.01c-.61,0-1.18-.37-1.4-.97-.29-.77.1-1.64.87-1.93l21.27-8.06c.78-.29,1.64.1,1.93.87.29.77-.1,1.64-.87,1.93l-21.27,8.06c-.18.07-.35.1-.53.1Z"/>
  <path class="cls-1" d="M61.85,61.67c-.17,0-.33-.03-.5-.08-.6-.21-1-.78-1-1.42v-14.86l-35.58-13.76c-.77-.3-1.16-1.17-.86-1.94.3-.77,1.17-1.16,1.94-.86l36.54,14.13c.58.22.96.78.96,1.4v11.63l3.97-4.93c.26-.32.64-.52,1.05-.55.41-.04.82.11,1.13.39l2.16,1.97.03-12.85c0-.83.67-1.5,1.5-1.5h0c.83,0,1.5.67,1.5,1.5l-.04,16.23c0,.59-.35,1.13-.9,1.37-.54.24-1.18.13-1.61-.26l-3.49-3.17-5.64,7c-.29.36-.72.56-1.17.56Z"/>
  <path class="cls-1" d="M73.2,41.44c-.18,0-.36-.03-.54-.1l-14.41-5.54c-.77-.3-1.16-1.17-.86-1.94s1.17-1.16,1.94-.86l14.41,5.54c.77.3,1.16,1.17.86,1.94-.23.6-.8.96-1.4.96Z"/>
  <path class="cls-1" d="M48.64,39.04c-10.76,0-19.52-8.76-19.52-19.52S37.87,0,48.64,0s19.52,8.76,19.52,19.52-8.76,19.52-19.52,19.52ZM48.64,3c-9.11,0-16.52,7.41-16.52,16.52s7.41,16.52,16.52,16.52,16.52-7.41,16.52-16.52S57.75,3,48.64,3Z"/>
  <path class="cls-1" d="M46.53,26.1c-.34,0-.68-.12-.96-.35l-6.45-5.41c-.63-.53-.72-1.48-.19-2.11.53-.63,1.48-.72,2.11-.19l5.43,4.55,9.69-9.24c.6-.57,1.55-.55,2.12.05.57.6.55,1.55-.05,2.12l-10.66,10.16c-.29.28-.66.41-1.04.41Z"/>
</svg>