<?xml version="1.0" encoding="UTF-8"?>
<svg id="Capa_1" data-name="Capa 1" xmlns="http://www.w3.org/2000/svg" viewBox="0 0 96 96">
  <defs>
    <style>
      .cls-1 {
        fill: #033778;
      }
    </style>
  </defs>
  <path class="cls-1" d="M62.16,1.01c.04.38.38.54.6.76,7.13,7.14,14.26,14.28,21.41,21.4.47.47.68.93.68,1.6-.02,23.05-.02,46.11,0,69.16,0,.84-.22,1.05-1.06,1.05-23.82-.02-47.64-.03-71.45,0-.96,0-1.14-.27-1.13-1.16.02-30.51.02-61.03.02-91.54,0-.42-.05-.85-.08-1.27h51.01ZM14.37,47.92c0,14.28,0,28.56-.02,42.84,0,.89.24,1.1,1.11,1.1,21.74-.03,43.48-.02,65.22,0,.79,0,1.03-.18,1.02-1-.02-21.25-.02-42.5,0-63.76,0-.87-.28-1.05-1.08-1.05-6.64.03-13.27,0-19.91.03-.76,0-.97-.19-.96-.96.03-6.64,0-13.27.04-19.91,0-.86-.18-1.11-1.08-1.11-14.4.03-28.81.03-43.21,0-.93,0-1.16.22-1.16,1.15.03,14.22.02,28.44.02,42.66ZM62.9,6.61v.64c0,4.92.02,9.83-.02,14.75,0,.8.26.94.99.94,4.82-.03,9.65-.01,14.47-.02.28,0,.6.12.8-.08-5.4-5.4-10.79-10.78-16.24-16.22Z"/>
  <path class="cls-1" d="M48.08,35.47c6.21,0,12.42,0,18.62,0,.28,0,.55,0,.83,0,.95.06,1.55.6,1.61,1.43.06.87-.51,1.53-1.47,1.67-.3.04-.61.03-.92.03-12.48,0-24.95,0-37.43,0-.43,0-.85.03-1.27-.11-.77-.26-1.17-.79-1.11-1.59.06-.8.53-1.28,1.33-1.4.33-.05.67-.04,1.01-.04,6.27,0,12.54,0,18.81,0Z"/>
  <path class="cls-1" d="M47.94,51.11c-6.24,0-12.48,0-18.72,0-.31,0-.61.01-.92-.03-.8-.11-1.35-.7-1.38-1.47-.03-.8.51-1.46,1.34-1.6.3-.05.61-.03.92-.03,12.57,0,25.14,0,37.71,0,.31,0,.62-.01.92.03.83.13,1.37.8,1.34,1.6-.03.76-.58,1.36-1.39,1.46-.3.04-.61.03-.92.03-6.3,0-12.6,0-18.9,0Z"/>
  <path class="cls-1" d="M48.03,63.63c-6.15,0-12.29,0-18.44,0-.24,0-.49,0-.73,0-1.26-.02-1.95-.59-1.94-1.57.01-.97.72-1.55,1.98-1.55,12.75,0,25.5,0,38.26,0,.27,0,.55.03.81.1.79.2,1.17.74,1.16,1.54-.01.78-.56,1.35-1.38,1.45-.33.04-.67.03-1.01.03-6.24,0-12.48,0-18.72,0Z"/>
  <path class="cls-1" d="M48,73.05c6.21,0,12.42,0,18.62,0,.31,0,.61-.01.92.01,1,.08,1.6.66,1.6,1.54,0,.87-.58,1.46-1.58,1.57-.3.03-.61.02-.92.02-12.42,0-24.83,0-37.25,0-.43,0-.86-.01-1.27-.1-.8-.16-1.21-.71-1.19-1.51.02-.8.45-1.32,1.25-1.46.39-.07.79-.07,1.19-.07,6.21,0,12.42,0,18.62,0Z"/>
  <path class="cls-1" d="M36.29,22.93c2.35,0,4.71,0,7.06,0,.39,0,.8,0,1.18.11.74.2,1.12.73,1.11,1.49,0,.72-.39,1.23-1.08,1.42-.37.11-.79.11-1.18.11-4.74,0-9.48,0-14.22,0-.12,0-.24,0-.37,0-1.2-.05-1.87-.6-1.88-1.55,0-.96.66-1.55,1.85-1.58,1.19-.03,2.38,0,3.58,0,1.31,0,2.63,0,3.94,0Z"/>
</svg>