<?xml version="1.0" encoding="UTF-8"?>
<svg id="Capa_1" data-name="Capa 1" xmlns="http://www.w3.org/2000/svg" viewBox="0 0 96 96">
  <defs>
    <style>
      .cls-1 {
        fill: #033778;
      }
    </style>
  </defs>
  <path class="cls-1" d="M62.86,2.32c.04.37.37.52.59.74,6.93,6.94,13.86,13.88,20.81,20.8.46.45.66.9.66,1.55-.02,22.41-.02,44.82,0,67.23,0,.82-.22,1.02-1.03,1.02-23.15-.02-46.3-.02-69.46,0-.93,0-1.1-.26-1.1-1.13.02-29.66.02-59.32.02-88.98,0-.41-.05-.82-.07-1.24h49.59ZM16.41,48c0,13.88,0,27.76-.02,41.64,0,.77.18.99.98.99,21.16-.02,42.33-.03,63.49,0,.86,0,1-.29,1-1.05-.02-20.63-.02-41.26,0-61.89,0-.83-.23-1.03-1.04-1.03-6.42.03-12.84,0-19.26.03-.78,0-1.05-.16-1.04-1.01.04-6.39.02-12.78.02-19.17q0-1.16-1.2-1.16c-13.91,0-27.82,0-41.73,0-1.31,0-1.2-.22-1.2,1.17,0,13.82,0,27.64,0,41.47ZM79.22,23.6c-5.21-5.21-10.45-10.45-15.64-15.64v.44c0,4.78.02,9.56-.02,14.34,0,.78.27.91.97.91,4.69-.03,9.38-.01,14.07-.02.26,0,.52-.02.62-.03Z"/>
  <path class="cls-1" d="M55.97,88.15v-1.2c0-5.53,0-11.06.01-16.59,0-.64-.12-.98-.8-1.23-1.93-.69-2.88-2.88-2.24-4.91.42-1.33.41-1.34-.83-1.99-1.44-.76-2.22-1.98-2.21-3.6.01-1.61.78-2.83,2.24-3.58,1.18-.6,1.22-.7.82-1.93-.51-1.56-.2-2.95.93-4.11,1.16-1.2,2.59-1.49,4.18-1,1.21.38,1.34.33,1.93-.83.75-1.46,1.96-2.21,3.58-2.22,1.62,0,2.84.75,3.59,2.21.6,1.18.71,1.21,2.02.81,1.56-.47,2.95-.15,4.1,1.01,1.11,1.13,1.43,2.5.97,4.03-.42,1.38-.42,1.38.86,2.06,1.42.75,2.15,1.96,2.17,3.53.01,1.62-.76,2.84-2.2,3.6-1.22.65-1.24.68-.83,2,.66,2.13-.31,4.21-2.41,4.97-.6.22-.63.57-.62,1.07.01,5.56,0,11.12,0,16.68,0,.32,0,.65,0,1.02-.43-.03-.58-.35-.8-.56-2.09-2.07-4.18-4.15-6.23-6.25-.45-.46-.69-.52-1.17-.02-2.05,2.11-4.15,4.18-6.23,6.26-.21.21-.43.4-.81.76ZM70.27,66.42c.89.03,1.26-.59.99-1.49-.75-2.46-.07-4.12,2.21-5.31.43-.22.76-.5.75-1,0-.46-.31-.73-.7-.94-2.39-1.29-3-2.78-2.22-5.45.12-.41.12-.76-.17-1.07-.32-.35-.7-.37-1.14-.24-2.71.77-4.15.19-5.45-2.21-.21-.39-.47-.69-.94-.7-.52,0-.8.31-.99.75-.23.52-.52,1-.94,1.39-1.29,1.18-2.76,1.41-4.38.81-.46-.17-.87-.2-1.23.17-.33.34-.31.72-.18,1.15.78,2.61.18,4.05-2.28,5.42-.4.22-.66.51-.64.97.01.43.26.68.63.89,2.5,1.41,3.05,2.7,2.27,5.5-.16.59-.03,1.01.49,1.27.44.22.87,0,1.29-.14,1.94-.6,3.9.22,4.82,2.01.26.5.43,1.07,1.16,1.05.68-.02.84-.55,1.09-1.02.94-1.82,2.84-2.63,4.81-2.04.28.08.57.17.76.23ZM67.97,80.68c.06-.04.13-.08.19-.11,0-3.65,0-7.3,0-10.95,0-.17.07-.41-.14-.47-.22-.06-.38.12-.5.3-.11.17-.21.36-.3.54-.75,1.54-1.99,2.34-3.69,2.33-1.66-.02-2.87-.82-3.6-2.33-.17-.36-.3-.79-.83-.87v11.71c1.41-1.44,2.68-2.69,3.89-3.99.46-.49.71-.49,1.17,0,1.23,1.31,2.53,2.56,3.8,3.84Z"/>
  <path class="cls-1" d="M28.5,71.9c.31-2.03.72-3.87,1.74-5.51.74-1.18,1.71-2.12,2.93-2.79.87-.49,1.69-.32,2.19.42.5.75.36,1.57-.54,2.11-2.48,1.49-3.11,3.89-3.35,6.51-.07.8-.09,1.6-.16,2.4-.13,1.3-1.34,1.94-2.38,1.15-1.56-1.18-3.04-2.47-4.51-3.75-.57-.5-.59-1.14-.12-1.75.5-.66,1.35-.88,2.05-.43.72.46,1.36,1.03,2.15,1.64Z"/>
  <path class="cls-1" d="M35.37,28.19c-2.14,0-4.28,0-6.42,0-1.19,0-1.91-.61-1.88-1.55.02-.92.71-1.48,1.86-1.48,4.34,0,8.68,0,13.02,0,1.13,0,1.82.59,1.83,1.51,0,.92-.68,1.52-1.81,1.52-2.2.01-4.4,0-6.6,0Z"/>
  <path class="cls-1" d="M48.76,40.36c-1.66,0-3.33.01-4.99,0-1.17,0-1.83-.55-1.86-1.46-.03-.95.67-1.57,1.87-1.57,3.33-.02,6.65-.02,9.98,0,1.35,0,2.13.99,1.72,2.05-.29.74-.88.99-1.63.99-1.69,0-3.38,0-5.08,0Z"/>
  <path class="cls-1" d="M32.4,40.36c-1.22,0-2.43.02-3.65,0-1.02-.02-1.65-.6-1.68-1.46-.02-.85.61-1.53,1.6-1.55,2.46-.04,4.92-.04,7.38,0,1,.02,1.64.68,1.64,1.52,0,.89-.66,1.48-1.74,1.5-1.19.02-2.37,0-3.56,0Z"/>
</svg>