<?xml version="1.0" encoding="UTF-8"?>
<svg id="Capa_1" data-name="Capa 1" xmlns="http://www.w3.org/2000/svg" viewBox="0 0 96 96">
  <defs>
    <style>
      .cls-1 {
        fill: #033778;
      }
    </style>
  </defs>
  <path class="cls-1" d="M95.03,18.78c-.26.2-.28.53-.38.81-7.11,19.3-14.22,38.6-21.33,57.9-.06.17-.12.35-.19.52-.54,1.32-1.51,1.65-2.71.88-2.8-1.8-5.59-3.63-8.39-5.45-2.9-1.88-5.81-3.75-8.69-5.66-.58-.38-.97-.45-1.6-.03-5.5,3.72-11.04,7.38-16.56,11.07-1.46.98-2.54.41-2.82-1.31-.57-3.59-1.25-7.17-1.89-10.75-.82-4.57-1.68-9.14-2.47-13.72-.11-.66-.38-1.01-.95-1.3-8.18-4.29-16.34-8.6-24.51-12.91-.22-.11-.43-.23-.65-.35-.65-.36-1.03-.89-.91-1.65.11-.74.59-1.18,1.33-1.33,2.3-.48,4.61-.97,6.91-1.44,16.74-3.46,33.47-6.91,50.21-10.37,11.05-2.28,22.09-4.57,33.14-6.87,1.03-.22,1.86-.03,2.46.89v1.1ZM42.98,57.29c.39.26.67.45.95.63,8.62,5.6,17.24,11.21,25.86,16.81q.97.63,1.35-.42c5.5-14.91,10.99-29.83,16.49-44.74.82-2.23,1.63-4.46,2.45-6.69-.05-.04-.1-.08-.14-.12-15.62,11.48-31.24,22.97-46.95,34.52ZM7.17,37.66c.49.28.75.44,1.01.58,6.73,3.55,13.47,7.1,20.19,10.67.64.34,1.12.34,1.76,0,16.97-8.71,33.95-17.41,50.93-26.11.26-.13.58-.19.79-.59-24.85,5.14-49.63,10.25-74.69,15.43ZM34.34,70.48c.07,0,.13.02.2.03,1.31-4.26,2.63-8.52,3.91-12.79.27-.89.74-1.55,1.5-2.1,11.7-8.58,23.39-17.18,35.08-25.77.28-.21.56-.42.92-.7-.46-.05-.69.17-.95.31-14.4,7.37-28.8,14.75-43.2,22.11-.63.32-.79.65-.66,1.35.75,4,1.45,8,2.18,12.01.34,1.86.68,3.71,1.02,5.57ZM37.08,73.77c4.17-2.78,8.32-5.55,12.56-8.38-2.69-1.75-5.29-3.42-7.85-5.13-.62-.42-.77-.2-.94.38-1.22,4.1-2.47,8.19-3.7,12.28-.07.25-.28.49-.07.85Z"/>
</svg>