<?xml version="1.0" encoding="UTF-8"?>
<svg id="Layer_1" data-name="Layer 1" xmlns="http://www.w3.org/2000/svg" viewBox="0 0 96 96">
  <defs>
    <style>
      .cls-1 {
        fill: none;
        stroke: #033778;
        stroke-linecap: round;
        stroke-linejoin: round;
        stroke-width: 3px;
      }
    </style>
  </defs>
  <path class="cls-1" d="M46.17,16.77l7.89-7.89c1.42-1.42,3.93-1.2,5.62.48h0c1.68,1.68,1.9,4.2.48,5.62l-7.89,7.89"/>
  <path class="cls-1" d="M52.35,22.95l9.38-9.38c1.68-1.68,4.42-1.68,6.1,0h0c1.68,1.68,1.68,4.42,0,6.1l-9.38,9.38"/>
  <path class="cls-1" d="M58.45,29.05l9.38-9.38c1.68-1.68,4.42-1.68,6.1,0h0c1.68,1.68,1.68,4.42,0,6.1l-9.38,9.38"/>
  <path class="cls-1" d="M62.97,36.74l9.09-9.09c1.63-1.63,4.34-1.58,6.04.13h0c1.7,1.7,1.76,4.41.13,6.04l-9.09,9.09-7.29,7.29c-1.96,1.96-4.46,3.33-7.2,3.93l-3.99.88c-5.9,1.31-11.26,4.23-15.49,8.46l-22.97,22.97"/>
  <line class="cls-1" x1="1.5" y1="64.6" x2="23.42" y2="42.68"/>
  <rect class="cls-1" x="33.38" y="14.47" width="17.63" height="8.1" rx="4.05" ry="4.05" transform="translate(25.46 -24.41) rotate(45)"/>
  <rect class="cls-1" x="26.52" y="19.73" width="18.96" height="8.1" rx="4.05" ry="4.05" transform="translate(27.36 -18.49) rotate(45)"/>
  <rect class="cls-1" x="20.64" y="25.3" width="18.96" height="8.1" rx="4.05" ry="4.05" transform="translate(29.58 -12.7) rotate(45)"/>
  <rect class="cls-1" x="18.57" y="32.11" width="14.17" height="8.1" rx="4.05" ry="4.05" transform="translate(33.09 -7.55) rotate(45)"/>
  <line class="cls-1" x1="39.96" y1="58.96" x2="23.67" y2="43.18"/>
  <line class="cls-1" x1="33.5" y1="65.14" x2="17.35" y2="48.99"/>
  <path class="cls-1" d="M94.5,62.18l-14.97-14.97s-.59-7.88-3.57-11.12"/>
  <path class="cls-1" d="M84.9,88.06l-26.27-26.27s-9.36,1.68-15.33-4.16"/>
  <line class="cls-1" x1="79.53" y1="47.21" x2="62.47" y2="64.27"/>
  <line class="cls-1" x1="84.9" y1="53.26" x2="67.79" y2="70.03"/>
</svg>