<?xml version="1.0" encoding="UTF-8"?>
<svg id="Layer_1" data-name="Layer 1" xmlns="http://www.w3.org/2000/svg" viewBox="0 0 96 96">
  <defs>
    <style>
      .cls-1 {
        fill: #223c75;
      }

      .cls-2 {
        fill: #033778;
      }
    </style>
  </defs>
  <path class="cls-2" d="M27.33,55.28c-10.36,0-18.79-8.43-18.79-18.79v-10.65c0-9.05,7.36-16.41,16.41-16.41h4.76c9.05,0,16.41,7.36,16.41,16.41v10.65c0,10.36-8.43,18.79-18.79,18.79ZM24.95,12.42c-7.39,0-13.41,6.02-13.41,13.41v10.65c0,8.71,7.08,15.79,15.79,15.79s15.79-7.08,15.79-15.79v-10.65c0-7.4-6.02-13.41-13.41-13.41h-4.76Z"/>
  <path class="cls-2" d="M18.59,11.58c-.2-4.93,3.65-9.1,8.58-9.3,4.97-.2,9.1,3.65,9.3,8.58l-3,.12c-.13-3.28-2.89-5.87-6.18-5.71-3.28.13-5.84,2.91-5.71,6.18l-3,.12Z"/>
  <path class="cls-2" d="M10.74,28.85l-.5-2.96,20.62-3.49c1.12-.19,2.24-.16,3.34.09l10.75,2.43-.66,2.93-10.75-2.43c-.72-.16-1.45-.18-2.18-.06l-20.62,3.49Z"/>
  <path class="cls-2" d="M27.3,48.4c-3.2,0-5.93-1.5-6.57-3.73-.23-.8.23-1.63,1.03-1.86.79-.23,1.63.23,1.86,1.03.23.79,2.09,1.77,4.48,1.52,1.65-.18,2.76-.9,2.97-1.49.27-.78,1.13-1.2,1.91-.92.78.27,1.2,1.13.92,1.91-.65,1.85-2.75,3.19-5.48,3.48-.38.04-.75.06-1.11.06Z"/>
  <path class="cls-1" d="M54.76,96.03H.25l1.03-18.63c.65-6.32,3.88-11.58,8.43-13.82l7.1-3.5.74.56c2.5,1.91,6.13,3,9.97,3s7.47-1.09,9.96-3l.74-.57,7.1,3.51c1.38.67,2.66,1.64,3.79,2.87,2.54,2.73,4.19,6.6,4.64,10.88l1.02,18.7ZM3.42,93.03h48.17l-.84-15.46c-.37-3.56-1.74-6.81-3.85-9.08-.88-.96-1.86-1.7-2.91-2.21l-5.47-2.7c-2.94,1.96-6.9,3.06-11.01,3.06s-8.07-1.11-11.02-3.07l-5.46,2.7c-3.63,1.79-6.23,6.14-6.77,11.37l-.85,15.39Z"/>
  <path class="cls-1" d="M17.46,63.09l-1.64-2.51,2.69-1.76c.32-.21.67-.8.67-1.6v-5.56h3v5.56c0,1.72-.78,3.3-2.03,4.11l-2.69,1.76Z"/>
  <path class="cls-1" d="M37.48,63.09l-2.69-1.76c-1.25-.81-2.02-2.39-2.02-4.11v-5.06h3v5.06c0,.8.34,1.39.66,1.6l2.69,1.76-1.64,2.51Z"/>
  <rect class="cls-1" x="38.95" y="78.83" width="3" height="16.21"/>
  <rect class="cls-1" x="11.99" y="78.83" width="3" height="16.21"/>
  <path class="cls-2" d="M68.49,54.58c-10.38,0-18.82-8.44-18.82-18.82v-7.52c0-10.38,8.44-18.82,18.82-18.82s18.82,8.44,18.82,18.82v7.52c0,10.38-8.44,18.82-18.82,18.82ZM68.49,12.42c-8.72,0-15.82,7.1-15.82,15.82v7.52c0,8.72,7.09,15.82,15.82,15.82s15.82-7.1,15.82-15.82v-7.52c0-8.72-7.09-15.82-15.82-15.82Z"/>
  <path class="cls-2" d="M58.65,31.37c-2.69,0-5.4-.45-7.98-1.38l1.02-2.82c8,2.89,17.43.47,21.94-5.64.33-.45.87-.67,1.42-.59.55.08,1.01.45,1.19.97,1.18,3.26,5.21,5.31,9.38,4.77l.38,2.98c-4.68.59-9.14-1.27-11.46-4.58-3.92,4.03-9.83,6.29-15.89,6.29Z"/>
  <path class="cls-1" d="M95.75,96.03h-42.57v-3h39.4l-.85-15.46c-.54-5.16-3.14-9.52-6.77-11.29l-5.46-2.7c-2.95,1.96-6.91,3.07-11.02,3.07s-8.07-1.11-11.01-3.06l-5.46,2.7c-1.07.52-2.04,1.26-2.92,2.21l-2.21-2.03c1.13-1.22,2.4-2.19,3.8-2.87l7.09-3.5.74.57c2.49,1.91,6.12,3,9.96,3s7.47-1.09,9.97-3l.74-.56,7.09,3.5c4.54,2.23,7.77,7.5,8.43,13.75l1.02,18.7Z"/>
  <path class="cls-1" d="M58.44,63.09l-1.64-2.51,2.69-1.76c.32-.21.67-.8.67-1.6v-5.56h3v5.56c0,1.72-.78,3.29-2.02,4.11l-2.69,1.76Z"/>
  <path class="cls-1" d="M78.46,63.09l-2.69-1.76c-1.25-.81-2.02-2.39-2.02-4.11v-5.06h3v5.06c0,.8.34,1.39.66,1.6l2.69,1.76-1.64,2.51Z"/>
  <rect class="cls-1" x="78.79" y="78.83" width="3" height="16.21"/>
  <rect class="cls-1" x="57.63" y="78.83" width="3" height="16.21"/>
</svg>