<?xml version="1.0" encoding="UTF-8"?>
<svg id="Layer_1" data-name="Layer 1" xmlns="http://www.w3.org/2000/svg" viewBox="0 0 96 96">
  <defs>
    <style>
      .cls-1 {
        fill: #033778;
      }
    </style>
  </defs>
  <path class="cls-1" d="M48.81,52.67c-4.58,0-8.92-1.99-11.9-5.45-2.47-2.84-3.83-6.5-3.83-10.28,0-.72.05-1.45.15-2.16.33-2.39-1.06-4.38-1.91-5.35-1.21-1.37-1.88-3.14-1.88-4.98v-2.2c0-7.67,6.24-13.91,13.91-13.91h21.98c.83,0,1.56.73,1.56,1.56v14.56c0,1.68-.54,3.28-1.57,4.6h0c-1.04,1.35-1.44,3.07-1.1,4.73.21,1.03.32,2.09.32,3.16,0,4.85-2.19,9.36-6.01,12.37-2.81,2.2-6.17,3.37-9.73,3.37ZM43.36,11.33c-6.02,0-10.91,4.9-10.91,10.91v2.2c0,1.11.4,2.18,1.13,3,2.06,2.34,3,5.09,2.63,7.74-.08.58-.12,1.17-.12,1.75,0,3.06,1.1,6.02,3.1,8.32,2.41,2.81,5.92,4.41,9.63,4.41,2.88,0,5.6-.94,7.87-2.72,3.09-2.43,4.86-6.08,4.86-10.01,0-.86-.09-1.72-.26-2.56-.51-2.51.09-5.12,1.67-7.16.62-.8.94-1.76.94-2.77v-13.12h-20.54Z"/>
  <path class="cls-1" d="M47.37,60.5c-.26,0-.51-.07-.74-.2l-9.31-5.3c-.47-.27-.76-.76-.76-1.3v-7.46h3v6.58l7.8,4.44,7.66-4.57.02-3.51,3,.02-.03,4.36c0,.53-.28,1.01-.73,1.28l-9.14,5.45c-.24.14-.5.21-.77.21Z"/>
  <path class="cls-1" d="M57.64,27.71c-2.79-4.12-12.94-4.41-18.91-3.94v3.79h-3v-5.1c0-.77.63-1.47,1.39-1.55,1.85-.2,18.31-1.78,23,5.12l-2.48,1.68Z"/>
  <path class="cls-1" d="M41.88,67.49s-.04,0-.07,0c-.48-.02-.93-.27-1.19-.68l-5.94-9.11c-.33-.5-.32-1.15,0-1.65l2.12-3.18,2.5,1.66-1.57,2.36,4.26,6.53,4.2-5.34,2.36,1.85-5.49,6.99c-.29.36-.72.57-1.18.57Z"/>
  <path class="cls-1" d="M52.86,67.49c-.46,0-.89-.21-1.18-.57l-5.49-6.99,2.36-1.85,4.2,5.34,4.26-6.53-1.57-2.36,2.5-1.66,2.12,3.18c.33.5.33,1.15,0,1.65l-5.94,9.11c-.26.41-.71.66-1.19.68-.02,0-.04,0-.07,0Z"/>
  <path class="cls-1" d="M73.51,90.88H22.87c-.83,0-1.5-.67-1.5-1.5v-21.08c0-3.11,1.86-5.91,4.73-7.13l10.16-4.28,1.16,2.76-10.16,4.28c-1.76.75-2.9,2.46-2.9,4.36v19.58h47.64v-19.48c0-1.96-1.18-3.68-3-4.4l-11.52-4.55,1.1-2.79,11.52,4.55c2.98,1.17,4.9,4,4.9,7.19v20.98c0,.83-.67,1.5-1.5,1.5Z"/>
  <rect class="cls-1" x="63.64" y="70.21" width="3" height="19.17"/>
  <rect class="cls-1" x="29.59" y="70.21" width="3" height="19.17"/>
  <rect class="cls-1" x="45.87" y="59.26" width="3" height="29.75"/>
  <path class="cls-1" d="M79.88,58.48c-2.77,0-5.39-1.2-7.19-3.29-1.49-1.71-2.31-3.92-2.31-6.21,0-.21,0-.42.02-.63.08-1.13-.33-2.34-1.2-3.61-.57-.82-.87-1.78-.87-2.78v-1.27c0-4.66,3.79-8.45,8.45-8.45h12.42c.83,0,1.5.67,1.5,1.5v8.22c0,.83-.21,1.64-.61,2.37,0,0,0,0,0,0-.66,1.2-.93,2.35-.79,3.43.05.4.08.81.08,1.22,0,2.93-1.32,5.65-3.63,7.47-1.7,1.33-3.73,2.03-5.87,2.03ZM76.79,35.24c-3,0-5.45,2.44-5.45,5.45v1.27c0,.39.12.76.33,1.08,1.27,1.83,1.85,3.69,1.73,5.51,0,.14-.01.29-.01.43,0,1.56.56,3.07,1.58,4.25,1.23,1.43,3.02,2.25,4.92,2.25,1.47,0,2.86-.48,4.02-1.39,1.58-1.24,2.48-3.11,2.48-5.11,0-.28-.02-.56-.05-.84-.22-1.72.16-3.5,1.14-5.27.16-.28.23-.59.23-.92v-6.72h-10.92Z"/>
  <path class="cls-1" d="M15.04,62.77c-9.68,0-13.54-6.78-13.7-7.07-.16-.29-.22-.66-.17-.99l1.54-8.41c-.13-.53-.23-1.08-.29-1.64-.37-3.39.7-6.87,2.92-9.55,2.24-2.7,5.36-4.33,8.78-4.59,3.6-.27,7.05.92,9.68,3.36,2.6,2.41,4.09,5.83,4.09,9.37,0,1.45-.24,2.85-.7,4.19l1.69,7.38c.1.44,0,.95-.29,1.3-.51.67-5.34,6.63-13.56,6.63ZM4.23,54.67c.84,1.23,4.03,5.1,10.81,5.1,5.72,0,9.53-3.61,10.76-4.97l-1.62-7.09c-.07-.3-.04-.64.07-.92.43-1.11.65-2.3.65-3.52,0-2.71-1.14-5.33-3.13-7.17-2.02-1.87-4.66-2.79-7.42-2.57-2.6.2-4.98,1.45-6.7,3.51-1.71,2.06-2.53,4.72-2.25,7.31.06.52.15,1.02.29,1.5.06.22.07.45.03.68l-1.5,8.16Z"/>
  <path class="cls-1" d="M28.85,90.88H1.39c-.83,0-1.5-.67-1.5-1.5v-19.32c0-3.58,2.25-6.84,5.6-8.11l6.14-2.31,1.06,2.81-6.14,2.31c-2.19.83-3.66,2.96-3.66,5.3v17.82h25.96v3Z"/>
  <path class="cls-1" d="M24.2,65c-.17-.09-.35-.17-.53-.23l-6.32-2.36.52-1.39v-1.51c.17,0,.36.03.53.09l6.32,2.36c.36.13.65.26.91.41l-1.43,2.64Z"/>
  <rect class="cls-1" x="6.66" y="68.29" width="3" height="21.08"/>
  <path class="cls-1" d="M94.39,90.88h-27.46v-3h25.96v-17.82c0-2.34-1.47-4.47-3.66-5.3l-6.14-2.31c-.55-.21-.93-.72-.97-1.31l-.31-4.84,2.99-.19.25,3.87,5.23,1.97c3.35,1.27,5.6,4.53,5.6,8.11v19.32c0,.83-.67,1.5-1.5,1.5Z"/>
  <path class="cls-1" d="M71.78,64.9l-1.25-2.73c.17-.08.35-.16.54-.22l5.3-1.98-.12-2.94,3-.12.17,4.02c.03.65-.37,1.24-.97,1.47l-6.33,2.36c-.12.04-.23.09-.32.13Z"/>
  <rect class="cls-1" x="86.11" y="68.29" width="3" height="21.08"/>
  <path class="cls-1" d="M80.82,65.48h-.03c-.41,0-.79-.18-1.07-.48l-2.74-2.98,2.21-2.03,1.69,1.83,1.86-1.84,2.11,2.13-2.96,2.93c-.28.28-.66.43-1.06.43Z"/>
  <rect class="cls-1" x="79.43" y="63.98" width="3" height="25.4"/>
</svg>