<?xml version="1.0" encoding="UTF-8"?>
<svg id="Layer_1" data-name="Layer 1" xmlns="http://www.w3.org/2000/svg" viewBox="0 0 96 96">
  <defs>
    <style>
      .cls-1 {
        fill: none;
        stroke: #033778;
        stroke-linecap: round;
        stroke-linejoin: round;
        stroke-width: 3px;
      }
    </style>
  </defs>
  <path class="cls-1" d="M16.09,45.3l-1.64-5.03,4.07-1.82c-.13-1.13-.2-2.27-.2-3.43s.07-2.31.2-3.45l-4.07-1.81,3.32-10.22,4.36.92c1.13-2.01,2.49-3.88,4.04-5.55l-2.22-3.86,8.69-6.31,2.98,3.29c2.07-.94,4.26-1.67,6.55-2.13l.47-4.41h10.74l.47,4.41c2.28.46,4.48,1.19,6.55,2.14l2.97-3.29,8.7,6.31-2.22,3.85c1.55,1.69,2.92,3.56,4.05,5.57l4.34-.91,3.31,10.21-4.05,1.81c.13,1.14.2,2.27.2,3.44s-.07,2.32-.2,3.45l4.05,1.81-1.49,4.6"/>
  <path class="cls-1" d="M52.03,54.1s0,0-.02,0c-1.19.31-2.45.48-3.74.48-.89,0-1.78-.08-2.63-.24h-.02"/>
  <path class="cls-1" d="M31.69,36.6c-.05-.52-.07-1.04-.07-1.58,0-9.04,7.33-16.38,16.38-16.38s16.38,7.33,16.38,16.38c0,.35-.01.7-.03,1.03"/>
  <path class="cls-1" d="M43.83,94.5H5.29v-16.34c0-6.65,5.39-12.03,12.03-12.03h13.51"/>
  <path class="cls-1" d="M44.09,59.19h8.22c7.97,0,14.45,6.47,14.45,14.45v20.86H29.64v-20.86c0-7.97,6.47-14.45,14.45-14.45Z"/>
  <line class="cls-1" x1="16.7" y1="93.57" x2="16.7" y2="78.08"/>
  <path class="cls-1" d="M52.17,94.5h38.54v-16.34c0-6.65-5.39-12.03-12.03-12.03h-12.97"/>
  <line class="cls-1" x1="79.76" y1="93.57" x2="79.76" y2="78.08"/>
  <circle class="cls-1" cx="25.55" cy="53.57" r="7.48"/>
  <circle class="cls-1" cx="48.5" cy="45.43" r="9.36"/>
  <circle class="cls-1" cx="71.44" cy="53.57" r="7.48"/>
  <line class="cls-1" x1="38.56" y1="75.22" x2="38.56" y2="93.57"/>
  <line class="cls-1" x1="56.51" y1="75.22" x2="56.51" y2="93.57"/>
</svg>