<?xml version="1.0" encoding="UTF-8"?>
<svg id="Capa_1" data-name="Capa 1" xmlns="http://www.w3.org/2000/svg" viewBox="0 0 96 96">
  <defs>
    <style>
      .cls-1 {
        fill: #033778;
      }
    </style>
  </defs>
  <path class="cls-1" d="M1.01,83.07c.35-1.51.61-3.05,1.28-4.47,1.4-2.99,3.58-5.2,6.47-6.77,4.35-2.36,8.67-4.76,13.04-7.1,1.87-1,2.6-2.49,2.75-4.59.2-2.95-.41-5.5-2.19-7.93-1.57-2.14-2.42-4.71-3.15-7.28-.11-.39-.24-.74-.55-1.03-1.32-1.2-1.94-2.74-1.97-4.49-.03-2.35-.14-4.71.08-7.06.09-1,.43-1.91,1.03-2.7.36-.47.47-.95.46-1.52-.03-2.87-.02-5.75-.04-8.62-.04-5.99,3.56-11.15,9.6-13.11,6.62-2.16,13.31-2.11,19.82.56,3.03,1.24,5.39,3.36,6.74,6.42.38.86.77.89,1.58.64,4.67-1.44,9.36-1.43,13.94.33,5.59,2.14,8.77,6.49,10.56,12.02.88,2.7,1.01,5.51,1.27,8.31.43,4.71,1.99,9.11,3.95,13.38,1.54,3.37,3.42,6.55,5.49,9.62,2.21,3.26,1.09,6.5-2.65,7.73-2.03.66-4.13.77-6.25.74-3.39-.04-6.79-.03-10.18-.03-.11,0-.22.04-.39.08.3.76.89,1.09,1.54,1.38,4.63,2,9.26,3.96,13.87,6.01,4.92,2.19,7.55,6.04,7.83,11.42.09,1.8,0,3.61.04,5.41,0,.5-.12.75-.66.69-.27-.03-.55,0-.83,0-30.4,0-60.8,0-91.2,0-.43,0-.85.03-1.28.05,0-2.69,0-5.38,0-8.07ZM36.96,87.96c10.55,0,21.1,0,31.65,0,.24,0,.49-.01.73,0,.38.02.56-.13.56-.53-.02-1.53.09-3.06-.18-4.57-.7-3.8-2.89-6.45-6.31-8.15-4.7-2.34-9.39-4.7-14.1-7.04-2.98-1.48-4.47-3.85-4.46-7.18.01-1.77,0-3.55,0-5.32,0-.41.05-.75.33-1.09,2.66-3.18,4.53-6.8,5.81-10.73.15-.47.36-.75.87-.93,1.7-.6,2.36-1.59,2.37-3.39.01-1.87-.02-3.73,0-5.6.01-1.04-.31-1.93-1.09-2.61-.36-.32-.47-.66-.46-1.12.03-3.27,0-6.54.06-9.82.07-4.62-2.46-8.58-6.79-10.23-5.54-2.11-11.21-2.1-16.82-.39-5.06,1.55-7.87,5.56-7.8,10.52.04,3.3.02,6.6.05,9.91,0,.46-.1.81-.47,1.11-.78.65-1.11,1.52-1.12,2.51-.01,1.96-.01,3.91,0,5.87,0,1.21.46,2.21,1.5,2.87.36.23.54.53.64.94.98,4.07,2.79,7.74,5.34,11.05.26.34.36.67.35,1.09-.01,1.65-.04,3.3,0,4.95.09,3.41-1.39,5.82-4.39,7.42-4.34,2.31-8.63,4.71-12.96,7.05-2.73,1.48-4.65,3.61-5.62,6.59-.61,1.87-.48,3.8-.55,5.72-.03.89.22,1.11,1.1,1.11,10.58-.03,21.16-.02,31.74-.02ZM82.4,87.96c2.87,0,5.75-.02,8.62.01.63,0,.89-.16.83-.82-.05-.58,0-1.16-.01-1.74-.15-4.22-2.09-7.26-5.99-8.97-4.61-2.02-9.24-4.03-13.87-6.01-1.35-.58-2.37-1.47-3.11-2.73-1.43-2.42-.18-4.73,2.64-4.75,3.7-.03,7.4.03,11.1.05,1.75,0,3.48-.08,5.15-.67,1.45-.51,1.77-1.45.92-2.76-.81-1.26-1.66-2.49-2.43-3.78-3.26-5.49-5.85-11.26-7.19-17.55-.6-2.83-.48-5.72-.99-8.55-.73-4.06-2.31-7.72-5.66-10.28-4.93-3.78-10.45-3.98-16.19-2.25-.44.13-.58.35-.52.79.08.64.14,1.28.14,1.92,0,2.84-.01,5.69-.03,8.53,0,.41.07.76.33,1.11.82,1.08,1.21,2.32,1.21,3.68,0,2.11.03,4.22-.01,6.33-.04,2.28-1.08,4.03-3.03,5.22-.42.25-.68.55-.84,1.01-.95,2.62-2.04,5.22-3.77,7.4-1.45,1.83-1.98,3.74-1.73,5.99.1.94-.05,1.89.17,2.83.16.67.45,1.04,1.24,1,1.03-.05,2.08-.11,3.11.08,1.39.25,2.42,1.54,2.16,2.92-.14.73.15.95.7,1.22,3.15,1.55,6.28,3.13,9.43,4.7,3.48,1.73,6.01,4.33,7.39,8.02.88,2.35.91,4.79.86,7.23-.01.63.18.84.83.84,2.84-.03,5.69-.01,8.53-.01Z"/>
</svg>