<?xml version="1.0" encoding="UTF-8"?>
<svg id="Capa_1" data-name="Capa 1" xmlns="http://www.w3.org/2000/svg" viewBox="0 0 96 96">
  <defs>
    <style>
      .cls-1 {
        fill: #033778;
      }
    </style>
  </defs>
  <path class="cls-1" d="M94.99,91.12c-.43-.02-.85-.05-1.28-.05-30.49,0-60.98,0-91.46,0-1.4,0-1.23.16-1.2-1.23.05-2.5-.24-5.02.33-7.5.74-3.18,2.44-5.73,5.17-7.51,3.61-2.35,7.27-4.63,10.95-6.87,1.61-.98,2.25-2.26,2.31-4.15.07-2.19-.28-4.02-1.85-5.72-1.82-1.96-2.94-4.41-3.71-6.99-.13-.43-.36-.76-.67-1.07-.93-.95-1.49-2.11-1.52-3.44-.05-2.05-.03-4.1,0-6.14.01-1.01.43-1.91,1.05-2.69.35-.44.47-.88.46-1.43-.03-1.56.02-3.12-.01-4.68-.15-7.05,4.57-14.14,13.22-15.43,4.41-.66,8.71-.4,12.83,1.47.36.16.63.33.74-.31,1.12-6.67,5.43-10.26,11.69-11.71,5.2-1.2,10.43-1.09,15.59.45,6.45,1.93,10.32,7.29,10.17,14-.06,2.75-.01,5.5-.03,8.26,0,.38.07.71.32,1.01.93,1.18,1.26,2.56,1.27,4.03.02,1.87.01,3.73,0,5.6-.01,2.52-1.02,4.49-3.25,5.77-.36.2-.51.49-.64.84-1.25,3.44-2.97,6.63-5.2,9.53-.19.25-.33.5-.32.83,0,1.59-.01,3.18.01,4.77.03,1.95,1.05,3.23,2.76,4.07,4.68,2.32,9.34,4.66,14.02,6.99,3.7,1.85,6.34,4.63,7.58,8.62.3.95.46,1.95.68,2.93v7.71ZM59.02,87.93c8.62,0,17.25,0,25.87,0,2.08,0,4.16-.01,6.24,0,.54,0,.77-.13.74-.72-.05-.88.01-1.77-.02-2.66-.14-3.68-1.66-6.67-4.67-8.81-1.62-1.15-3.49-1.89-5.26-2.79-3.57-1.8-7.15-3.59-10.73-5.36-2.73-1.35-4.26-3.52-4.37-6.58-.07-2.05-.02-4.1-.03-6.15,0-.34.15-.57.35-.81,2.65-3.19,4.52-6.81,5.81-10.73.17-.51.4-.8.94-.97,1.43-.45,2.26-1.47,2.29-2.97.05-2.14.02-4.28,0-6.42-.01-.83-.36-1.56-.99-2.1-.44-.37-.57-.79-.57-1.35.03-3.27.02-6.54.04-9.82.03-4.64-2.47-8.47-6.81-10.11-5.54-2.09-11.22-2.1-16.82-.34-5.06,1.59-7.84,5.6-7.77,10.46.05,3.3.03,6.6.06,9.91,0,.49-.12.86-.5,1.2-.7.61-1.05,1.4-1.05,2.35,0,2.05,0,4.1,0,6.15,0,1.09.43,1.98,1.33,2.57.51.34.72.77.86,1.32.96,3.98,2.77,7.56,5.25,10.79.28.37.39.73.38,1.17-.01,1.68-.02,3.36,0,5.05.03,3.28-1.4,5.65-4.3,7.21-4.39,2.35-8.74,4.77-13.12,7.14-2.89,1.57-4.83,3.88-5.7,7.06-.47,1.71-.31,3.46-.39,5.19-.04.88.22,1.13,1.11,1.12,10.61-.03,21.22-.02,31.84-.02ZM13.53,87.93c2.78,0,5.57-.03,8.35.02.81.01,1.18-.16,1.09-1.05-.07-.66-.02-1.34-.01-2.02.06-5.5,2.31-9.79,7.06-12.66,1.72-1.04,3.5-2.01,5.3-2.92,1.76-.89,3.36-2.03,5.16-2.85,1.3-.59,2.54-1.34,3.78-2.06,1.51-.87,2.2-2.22,2.19-3.96,0-1.38-.02-2.75,0-4.13,0-.52-.14-.93-.44-1.35-2.21-3.11-3.87-6.5-4.9-10.19-.11-.41-.32-.71-.61-.99-1.2-1.16-1.83-2.59-1.85-4.25-.03-2.23-.02-4.46,0-6.7.01-1.19.4-2.29,1.11-3.24.32-.43.41-.85.41-1.36-.02-1.74-.1-3.49.03-5.23.08-1.18-.37-1.75-1.37-2.23-3.85-1.85-7.87-2.06-12-1.38-6.03.99-10.16,5.88-10.16,11.98,0,2.14,0,4.28.01,6.42,0,.5-.11.87-.51,1.19-.79.64-1.09,1.48-1.05,2.51.06,1.5.03,3,0,4.49-.02,1.01.37,1.79,1.2,2.33.37.24.54.54.64.94.88,3.64,2.85,6.66,5.42,9.31.35.36.5.7.49,1.2-.03,1.5-.03,3,0,4.5.04,2.68-1.07,4.69-3.36,6.1-3.69,2.29-7.35,4.61-11.03,6.92-1.05.66-1.91,1.51-2.64,2.51-1.56,2.16-1.77,4.62-1.72,7.17.01.73.16,1,.95.98,2.81-.05,5.63-.02,8.44-.02Z"/>
</svg>