<?xml version="1.0" encoding="UTF-8"?>
<svg id="Layer_1" data-name="Layer 1" xmlns="http://www.w3.org/2000/svg" viewBox="0 0 96 96">
  <defs>
    <style>
      .cls-1 {
        fill: #033778;
      }
    </style>
  </defs>
  <path class="cls-1" d="M47.78,42.32c-11.67,0-21.16-9.49-21.16-21.16S36.11,0,47.78,0s21.16,9.49,21.16,21.16-9.49,21.16-21.16,21.16ZM47.78,3c-10.01,0-18.16,8.15-18.16,18.16s8.15,18.16,18.16,18.16,18.16-8.15,18.16-18.16S57.79,3,47.78,3Z"/>
  <path class="cls-1" d="M57.54,63.51l-10.73-9.08c-.34-.29-.53-.7-.53-1.14v-12.46h3v11.76l10.2,8.64-1.94,2.29Z"/>
  <rect class="cls-1" x="35.78" y="55.9" width="13.41" height="3" transform="translate(-26.3 38.22) rotate(-37.91)"/>
  <path class="cls-1" d="M41.7,39.31h-3v-8.8c0-3.76,2.41-7.03,6-8.13l.88,2.87c-2.32.71-3.88,2.83-3.88,5.26v8.8Z"/>
  <path class="cls-1" d="M56.85,39.31h-3v-8.8c0-2.43-1.56-4.55-3.88-5.26l.88-2.87c3.59,1.1,6,4.37,6,8.13v8.8Z"/>
  <path class="cls-1" d="M47.78,25.85c-4.48,0-8.12-3.64-8.12-8.12s3.65-8.12,8.12-8.12,8.12,3.64,8.12,8.12-3.64,8.12-8.12,8.12ZM47.78,12.6c-2.83,0-5.12,2.3-5.12,5.12s2.3,5.12,5.12,5.12,5.12-2.3,5.12-5.12-2.3-5.12-5.12-5.12Z"/>
  <path class="cls-1" d="M74.5,96c-11.67,0-21.16-9.49-21.16-21.16s9.49-21.16,21.16-21.16,21.16,9.49,21.16,21.16-9.49,21.16-21.16,21.16ZM74.5,56.68c-10.01,0-18.16,8.15-18.16,18.16s8.15,18.16,18.16,18.16,18.16-8.15,18.16-18.16-8.15-18.16-18.16-18.16Z"/>
  <path class="cls-1" d="M68.43,92.98h-3v-8.8c0-3.76,2.41-7.03,6-8.13l.88,2.87c-2.32.71-3.88,2.83-3.88,5.26v8.8Z"/>
  <path class="cls-1" d="M83.58,92.98h-3v-8.8c0-2.43-1.56-4.55-3.88-5.26l.88-2.87c3.59,1.1,6,4.37,6,8.13v8.8Z"/>
  <path class="cls-1" d="M74.51,79.53c-4.48,0-8.12-3.64-8.12-8.12s3.64-8.12,8.12-8.12,8.12,3.64,8.12,8.12-3.65,8.12-8.12,8.12ZM74.51,66.28c-2.83,0-5.12,2.3-5.12,5.12s2.3,5.12,5.12,5.12,5.12-2.3,5.12-5.12-2.3-5.12-5.12-5.12Z"/>
  <path class="cls-1" d="M21.5,96c-11.67,0-21.16-9.49-21.16-21.16s9.49-21.16,21.16-21.16,21.16,9.49,21.16,21.16-9.49,21.16-21.16,21.16ZM21.5,56.68c-10.01,0-18.16,8.15-18.16,18.16s8.15,18.16,18.16,18.16,18.16-8.15,18.16-18.16-8.15-18.16-18.16-18.16Z"/>
  <path class="cls-1" d="M15.42,92.98h-3v-8.8c0-3.76,2.41-7.03,6-8.13l.88,2.87c-2.32.71-3.88,2.83-3.88,5.26v8.8Z"/>
  <path class="cls-1" d="M30.57,92.98h-3v-8.8c0-2.43-1.56-4.55-3.88-5.26l.88-2.87c3.59,1.1,6,4.37,6,8.13v8.8Z"/>
  <path class="cls-1" d="M21.5,79.53c-4.48,0-8.12-3.64-8.12-8.12s3.64-8.12,8.12-8.12,8.12,3.64,8.12,8.12-3.65,8.12-8.12,8.12ZM21.5,66.28c-2.83,0-5.12,2.3-5.12,5.12s2.3,5.12,5.12,5.12,5.12-2.3,5.12-5.12-2.3-5.12-5.12-5.12Z"/>
</svg>