<?xml version="1.0" encoding="UTF-8"?>
<svg id="Capa_1" data-name="Capa 1" xmlns="http://www.w3.org/2000/svg" viewBox="0 0 96 96">
  <defs>
    <style>
      .cls-1 {
        fill: #033778;
      }
    </style>
  </defs>
  <path class="cls-1" d="M50.57,1.02c1.17.19,2.35.34,3.51.57,3.36.65,6.44,1.92,8.88,4.41,2.66,2.72,3.85,6.04,3.86,9.8.01,2.9-.03,5.81-.05,8.71,0,.39.09.71.33,1.02.87,1.13,1.25,2.44,1.25,3.85.01,1.99.03,3.98,0,5.96-.04,2.41-1.06,4.29-3.18,5.52-.34.2-.55.44-.68.81-1.25,3.47-2.97,6.7-5.24,9.61-.25.32-.29.65-.29,1.02,0,1.38.04,2.75,0,4.13-.07,2.14.89,3.59,2.79,4.53,4.68,2.31,9.34,4.67,14.01,6.99,3,1.49,5.33,3.64,6.81,6.67,1,2.05,1.43,4.21,1.43,6.47,0,1.25-.06,2.51.01,3.76.13,2.05-.87,3.41-2.48,4.48-1.81,1.19-3.8,1.94-5.86,2.53-4.3,1.24-8.71,1.89-13.15,2.33-6,.6-12.01.92-18.04.71-7.43-.25-14.83-.78-22.1-2.5-2.68-.64-5.3-1.45-7.67-2.92-1.8-1.11-2.87-2.56-2.73-4.8.13-2.04-.15-4.11.17-6.14.74-4.83,3.37-8.36,7.64-10.69,4.29-2.34,8.56-4.71,12.88-7,1.98-1.05,2.74-2.6,2.87-4.8.16-2.82-.37-5.27-2.09-7.59-1.6-2.17-2.49-4.75-3.23-7.35-.13-.44-.26-.86-.62-1.19-1.34-1.23-1.91-2.81-1.95-4.59-.04-2.05-.03-4.1,0-6.15.02-1.31.39-2.54,1.2-3.59.3-.39.38-.8.38-1.28,0-3.27-.17-6.55.04-9.81.39-5.91,4.2-10.46,9.9-12.23,1.82-.56,3.66-.94,5.56-1.11.24-.02.47-.11.7-.17,1.71,0,3.43,0,5.14,0ZM48,91.85c4.23.04,8.44-.21,12.64-.58,5.21-.46,10.38-1.22,15.39-2.77,1.37-.42,2.71-.94,3.92-1.75.63-.42.97-.94.94-1.75-.06-1.59.01-3.18-.05-4.77-.1-2.6-1.08-4.86-2.81-6.8-1.04-1.16-2.3-2-3.68-2.69-4.7-2.35-9.39-4.7-14.1-7.04-2.94-1.46-4.44-3.81-4.41-7.11.02-1.8,0-3.61,0-5.41,0-.37.04-.7.3-1.01,2.7-3.23,4.59-6.91,5.87-10.9.14-.42.37-.63.78-.78,1.79-.67,2.43-1.61,2.44-3.53,0-1.77-.02-3.55,0-5.32.01-1.1-.31-2.05-1.14-2.79-.29-.26-.47-.52-.46-.94.02-3.21-.06-6.42.06-9.63.17-4.75-2.29-8.84-6.72-10.55-5.6-2.16-11.33-2.17-16.99-.37-4.98,1.58-7.86,5.67-7.7,10.42.11,3.3.01,6.6.07,9.91,0,.5-.12.86-.5,1.2-.72.64-1.09,1.47-1.09,2.43,0,2.02-.02,4.04,0,6.06.01,1.11.45,2.04,1.39,2.65.48.31.68.73.8,1.25.66,2.72,1.78,5.25,3.12,7.7.79,1.43,2.27,2.51,2.48,4.18.21,1.62.02,3.3.05,4.95.07,3.43-1.39,5.89-4.44,7.5-4.32,2.29-8.58,4.68-12.88,7-3.36,1.82-5.48,4.55-6.06,8.35-.28,1.85,0,3.73-.14,5.59-.1,1.32.49,2.03,1.56,2.61,2.37,1.27,4.95,1.93,7.54,2.49,7.84,1.69,15.79,2.16,23.78,2.23Z"/>
</svg>