<?xml version="1.0" encoding="UTF-8"?>
<svg id="Capa_1" data-name="Capa 1" xmlns="http://www.w3.org/2000/svg" viewBox="0 0 96 96">
  <defs>
    <style>
      .cls-1 {
        fill: #033778;
      }
    </style>
  </defs>
  <path class="cls-1" d="M42.3,94.87c-.6,0-1.09-.49-1.09-1.09,0-6.06.02-12.12-.01-18.17,0-.85.15-1.16,1.07-1.12,1.11.04,2.04-.86,2.09-1.97.03-.59-.15-.98-.54-1.37-5.49-5.45-10.97-10.92-16.45-16.37-.28-.28-.61-.51-.91-.77-3.42-2.98-3.25-8.2.41-10.91.68-.5.52-.72.05-1.18-4.21-4.18-8.4-8.38-12.59-12.58-1.98-1.98-2.37-4.4-1.11-6.59.31-.53.73-.98,1.16-1.41,6.18-6.18,12.36-12.37,18.55-18.54,2.21-2.21,5.79-2.2,8,0s4.21,4.19,6.29,6.31c.27.28.71.27,1,.01,4.05-3.6,10.02-1.86,11.54,3.33.18.6.25,1.21.21,1.81-.04.66.14.79.79.8,1.38.02,2.74.47,3.87,1.25,2.3,1.59,3.25,3.65,3.18,5.87-.01.5.01.72.66.72,4.05-.02,7.06,2.92,7.19,6.99.02.62.11.79.78.81,2.81.1,5,1.33,6.28,3.89,1.2,2.41.98,4.77-.43,7.06-.31.51-1.12.82-.97,1.43.12.5.75.86,1.1,1.31,1.59,2.02,1.41,4.85-.53,6.83-.62.63-.7,1.05-.23,1.83,3.12,5.2,2.18,11.93-2.23,16.13-.42.4-.66.95-.63,1.53.05,1.06.03,2.12,0,3.19-.01.47.12.69.62.63.18-.02.37,0,.55,0q1.97,0,1.97,2.02c0,5.75,0,11.51,0,17.26,0,.6-.49,1.09-1.09,1.09h-38.56ZM45.32,55.77c.13.2.17.28.23.34,3.95,3.96,7.9,7.93,11.87,11.87,1.15,1.14,2.22,1.09,3.42-.11,6.19-6.18,12.37-12.37,18.55-18.55,1.31-1.31,1.31-2.33.01-3.63-11.52-11.53-23.05-23.05-34.57-34.59-.43-.43-.66-.52-1.14-.04-7.01,7.04-14.04,14.07-21.08,21.08-.43.43-.42.65,0,1.07,2.66,2.62,5.29,5.26,7.91,7.91.38.38.76.52,1.29.52,2.87-.02,5.75-.01,8.62,0,2.2,0,4.41-.06,6.6.04,3.24.14,5.83,2.39,6.55,5.57.67,2.97-.84,6.11-3.63,7.64-1.42.78-2.97.82-4.65.88ZM32.94,55.74c.11.21.13.27.17.31,4.64,4.61,9.28,9.22,13.94,13.82.29.28.44.53.43.94-.02,1.01.02,2.02-.02,3.03-.02.51.14.69.67.69,8.96-.01,17.92-.02,26.88,0,.61,0,.7-.24.69-.76-.03-1.28.07-2.58-.03-3.85-.1-1.18.29-1.93,1.22-2.69,3.43-2.81,4.46-7.96,2.5-11.92q-.51-1.03-1.3-.24c-4.95,4.95-9.9,9.9-14.86,14.85-2.71,2.71-5.61,2.71-8.32,0-4.52-4.52-9.04-9.04-13.56-13.55-.27-.27-.48-.62-.96-.62-2.44.01-4.88,0-7.44,0ZM15.67,25.39c-.04.7.36,1.2.82,1.67.92.94,1.89,1.83,2.77,2.81.5.56.78.48,1.27-.02,6.45-6.48,12.92-12.94,19.38-19.4.58-.58,1.16-1.18,1.76-1.75.27-.26.33-.45.03-.74-1.12-1.09-2.18-2.23-3.33-3.29-.87-.8-2.01-.75-2.91.02-.16.14-.31.3-.46.45-6.1,6.1-12.19,12.19-18.29,18.29-.55.55-1.09,1.09-1.03,1.96ZM55.3,91.75c3.06,0,6.12,0,9.17,0,1.83,0,1.84,0,1.83-1.8-.01-1.83.18-3.69-.26-5.48-1.04-4.19-4.37-6.78-8.74-6.82-4.04-.04-8.07.01-12.11-.03-.72,0-.85.24-.85.89.03,4.13.03,8.26,0,12.39,0,.69.18.87.87.87,3.36-.04,6.73-.02,10.09-.02ZM38.86,52.6s0-.04,0-.06c2.75,0,5.5.1,8.25-.03,2.16-.11,3.58-1.91,3.48-4.06-.09-2.02-1.74-3.59-3.85-3.67-.03,0-.06,0-.09,0-5.17,0-10.33-.02-15.5,0-2.71.02-4.52,2.36-3.87,4.9.46,1.79,2.01,2.9,4.16,2.92,2.48.02,4.95,0,7.43,0ZM65.81,77.72c-.05.21.11.29.21.39,2.34,2.4,3.4,5.31,3.42,8.62,0,1.44.03,2.87-.01,4.31-.01.57.17.72.73.72,2.63-.03,5.26-.04,7.88,0,.67,0,.8-.22.8-.83-.03-4.12-.03-8.25,0-12.37,0-.79-.25-.94-.98-.93-3.76.04-7.52.01-11.27.02-.26,0-.54-.09-.77.08ZM64.71,21.79c-.07-1.37-.8-2.6-2.31-3.28-1.47-.67-2.85-.41-4.12.57-.42.33-.49.58-.05,1.01,1.54,1.48,3.05,3,4.54,4.53.41.43.67.39,1.01-.04.59-.74.93-1.57.94-2.79ZM56.85,13.81c-.06-1.26-.81-2.46-2.26-3.13-1.46-.68-2.85-.42-4.12.55-.36.28-.61.53-.12.99,1.58,1.52,3.13,3.08,4.66,4.65.37.38.57.27.85-.05.67-.77,1.01-1.65.99-3.02ZM72.56,29.83c-.02-1.52-1.02-3.03-2.45-3.56-1.49-.55-2.87-.33-4.09.74-.27.23-.46.42-.08.78,1.62,1.57,3.21,3.17,4.79,4.78.28.29.47.28.74,0,.73-.77,1.03-1.7,1.09-2.74ZM80.36,37.69c-.05-1.58-.77-2.79-2.22-3.49-1.45-.7-2.84-.47-4.13.47-.48.35-.6.63-.08,1.12,1.31,1.23,2.55,2.53,3.83,3.8,1.29,1.29,1.75,1.16,2.39-.64.15-.41.16-.83.21-1.28Z"/>
  <path class="cls-1" d="M70.96,52.6c0,3.42-2.8,6.23-6.22,6.25-3.42.02-6.31-2.88-6.27-6.31.04-3.42,2.88-6.22,6.29-6.19,3.45.03,6.22,2.82,6.21,6.25ZM67.83,52.62c.01-1.76-1.37-3.14-3.13-3.14-1.71,0-3.1,1.37-3.12,3.07-.02,1.72,1.43,3.17,3.14,3.16,1.69,0,3.09-1.4,3.1-3.09Z"/>
  <path class="cls-1" d="M27.13,19.67c-1.18,0-2-1.32-1.31-2.26,1.02-1.4,2.31-2.59,3.65-3.69.58-.48,1.3-.35,1.84.17.57.54.76,1.27.26,1.9-1.08,1.36-2.33,2.56-3.66,3.68-.23.19-.51.18-.78.21Z"/>
  <path class="cls-1" d="M57.69,90.15c-3.03,0-5.48-2.44-5.47-5.46,0-3.02,2.47-5.46,5.49-5.44,2.99.02,5.4,2.42,5.43,5.42.03,3.01-2.42,5.48-5.45,5.49ZM55.34,84.63c-.03,1.27,1.01,2.36,2.27,2.38,1.28.03,2.36-.99,2.39-2.26.03-1.26-1.01-2.36-2.26-2.39-1.26-.03-2.37,1.01-2.4,2.26Z"/>
</svg>