<?xml version="1.0" encoding="UTF-8"?>
<svg id="Capa_1" data-name="Capa 1" xmlns="http://www.w3.org/2000/svg" viewBox="0 0 96 96">
  <defs>
    <style>
      .cls-1 {
        fill: #033778;
      }
    </style>
  </defs>
  <path class="cls-1" d="M68.73,1.02c1.59.47,3.09,1.09,4.2,2.42,1.17,1.41,1.68,3.01,1.68,4.82,0,3.61,0,7.22,0,10.82,0,22.81,0,45.62,0,68.43,0,3.02-1.18,5.32-3.9,6.74-1.02.53-2.13.72-3.28.72-12.96,0-25.93.01-38.89,0-4.24,0-7.16-2.99-7.16-7.27,0-26.45,0-52.89,0-79.34,0-3.77,1.95-6.24,5.64-7.21.08-.02.15-.09.23-.13,13.82,0,27.65,0,41.47,0ZM24.51,43.22c0,9.6.01,19.2-.02,28.8,0,.84.21,1.06,1.05,1.06,14.95-.03,29.9-.03,44.85,0,.86,0,1.12-.18,1.12-1.09-.03-19.14-.03-38.28,0-57.42,0-.83-.21-1.06-1.05-1.06-14.95.03-29.9.03-44.85,0-.86,0-1.12.17-1.12,1.09.04,9.54.02,19.08.02,28.62ZM48.04,76.2c-7.52,0-15.04.01-22.56-.02-.83,0-1,.23-.99,1.02.04,3.48.01,6.97.02,10.45,0,2.67,1.53,4.2,4.23,4.2,12.84,0,25.68,0,38.52,0,2.73,0,4.23-1.52,4.23-4.28,0-3.42-.03-6.85.02-10.27.01-.86-.17-1.12-1.08-1.12-7.46.04-14.92.02-22.38.02ZM48,10.4c7.25,0,14.49,0,21.74,0q1.75,0,1.75-1.78c0-3.05-1.44-4.48-4.5-4.48-12.66,0-25.32,0-37.98,0-.31,0-.61,0-.92.02-2.04.16-3.5,1.68-3.58,3.73-.02.49.04.98-.02,1.47-.1.81.16,1.07,1.02,1.07,7.49-.04,14.98-.02,22.47-.02Z"/>
  <path class="cls-1" d="M1.02,19.19c.3-.43.21-.94.3-1.41.66-3.59,2.26-6.69,4.76-9.33.75-.8,1.66-.92,2.35-.33.72.62.75,1.58-.04,2.42-2.01,2.15-3.38,4.63-3.93,7.53-.91,4.84.28,9.14,3.48,12.88.2.23.42.45.6.69.59.77.55,1.66-.09,2.22-.64.57-1.53.53-2.22-.15-1.35-1.35-2.44-2.89-3.29-4.6-.91-1.82-1.5-3.73-1.75-5.75-.02-.18,0-.37-.18-.5v-3.67Z"/>
  <path class="cls-1" d="M94.98,21.04c-.11,4.75-1.69,8.9-4.95,12.39-.86.92-1.75,1.08-2.47.46-.75-.65-.69-1.61.17-2.57,4.05-4.56,5.12-9.73,3.17-15.5-.61-1.81-1.63-3.41-2.92-4.83-1.1-1.2-1.23-2.13-.43-2.84.78-.69,1.66-.45,2.72.71,3.13,3.46,4.62,7.56,4.71,12.19Z"/>
  <path class="cls-1" d="M9.01,20.7c.03-3.37,1.18-6.41,3.54-8.98.85-.92,1.74-1.1,2.47-.48.76.64.71,1.58-.14,2.57-3.18,3.69-3.63,8.54-1.14,12.47.37.59.85,1.12,1.29,1.66.69.85.7,1.76.02,2.37-.7.62-1.58.53-2.35-.28-2.44-2.58-3.65-5.66-3.69-9.32Z"/>
  <path class="cls-1" d="M86.98,21.14c-.05,3.63-1.24,6.69-3.64,9.26-.79.85-1.72.96-2.41.33-.68-.63-.64-1.56.11-2.44,3.79-4.45,3.79-9.71,0-14.13-.76-.88-.8-1.81-.13-2.44.7-.65,1.61-.54,2.41.32,2.44,2.59,3.62,5.68,3.65,9.11Z"/>
  <path class="cls-1" d="M47.99,90.25c-3.45,0-6.24-2.81-6.23-6.25,0-3.42,2.85-6.27,6.26-6.26,3.41,0,6.24,2.86,6.24,6.28,0,3.44-2.81,6.23-6.26,6.23ZM51.12,83.97c-.02-1.68-1.44-3.09-3.12-3.09-1.71,0-3.14,1.46-3.12,3.18.02,1.74,1.44,3.1,3.21,3.06,1.7-.04,3.05-1.44,3.03-3.15Z"/>
  <path class="cls-1" d="M44.9,8.86c-.94,0-1.89.02-2.83,0-1.17-.03-1.87-.63-1.88-1.56,0-.94.68-1.55,1.85-1.56,1.89-.02,3.78-.02,5.67,0,1.15.01,1.78.56,1.82,1.49.03.97-.63,1.59-1.79,1.63-.94.03-1.89,0-2.83,0Z"/>
  <path class="cls-1" d="M53.54,5.73c.18,0,.37,0,.55,0,1.05.06,1.7.64,1.71,1.52.02.87-.62,1.52-1.66,1.59-.57.04-1.16.08-1.73-.06-.78-.19-1.34-.83-1.26-1.56.09-.81.52-1.36,1.38-1.46.33-.04.67-.04,1-.05,0,0,0,.01,0,.02Z"/>
</svg>