<?xml version="1.0" encoding="UTF-8"?>
<svg id="Layer_1" xmlns="http://www.w3.org/2000/svg" version="1.1" viewBox="0 0 96 96">
  <!-- Generator: Adobe Illustrator 29.3.1, SVG Export Plug-In . SVG Version: 2.1.0 Build 151)  -->
  <defs>
    <style>
      .st0 {
        fill: #033778;
      }
    </style>
  </defs>
  <path class="st0" d="M85.3,85.9h-3.5v-51.1c0-2.4-1.9-4.3-4.3-4.3h-7.9c-2.4,0-4.3,1.9-4.3,4.3v51.1h-8.9v-27.9c0-2.4-1.9-4.3-4.3-4.3h-7.9c-2.4,0-4.3,1.9-4.3,4.3v27.9h-8.9v-14.5c0-2.4-1.9-4.3-4.3-4.3h-7.9c-2.4,0-4.3,1.9-4.3,4.3v14.5h-3.7c-.9,0-1.6.7-1.6,1.6s.7,1.6,1.6,1.6h74.6c.9,0,1.6-.7,1.6-1.6s-.7-1.6-1.6-1.6ZM27.7,85.9h-10.1v-14.5c0-.6.5-1.1,1.1-1.1h7.9c.6,0,1.1.5,1.1,1.1v14.5h0ZM53.1,85.9h-10.1v-27.9c0-.6.5-1.1,1.1-1.1h7.9c.6,0,1.1.5,1.1,1.1v27.9ZM78.6,85.9h-10.1v-51.1c0-.6.5-1.1,1.1-1.1h7.9c.6,0,1.1.5,1.1,1.1v51.1h0Z"/>
  <path class="st0" d="M81.8,8.6c0-.4-.1-.9-.5-1.2-.3-.3-.8-.5-1.2-.5,0,0,0,0,0,0h-9.7c-.9,0-1.6.7-1.6,1.6s.7,1.6,1.6,1.6h6l-15.9,15.9-6-6c-.3-.3-.7-.5-1.1-.5s-.8.2-1.1.5l-28.8,28.8c-.6.6-.6,1.6,0,2.3.3.3.7.5,1.1.5s.8-.2,1.1-.5l27.7-27.7,6,6c.6.6,1.6.6,2.3,0l17-17v5.4c0,.9.7,1.6,1.6,1.6s1.6-.7,1.6-1.6v-9.1s0,0,0,0Z"/>
  <circle class="st0" cx="19.1" cy="55.6" r="1.6"/>
</svg>