<?xml version="1.0" encoding="UTF-8"?>
<svg id="Layer_1" data-name="Layer 1" xmlns="http://www.w3.org/2000/svg" viewBox="0 0 96 96">
  <defs>
    <style>
      .cls-1 {
        fill: #033778;
      }
    </style>
  </defs>
  <path class="cls-1" d="M3.51,23.47v53.21c0,1.39.54,2.72,1.53,3.7.98.98,2.32,1.52,3.71,1.51h25.07l-2.81,10.33h-5.72c-.88,0-1.59.71-1.59,1.59s.71,1.59,1.59,1.59h45.42c.88,0,1.59-.71,1.59-1.59s-.71-1.59-1.59-1.59h-5.72l-2.81-10.33h25.08c1.39.01,2.72-.53,3.71-1.51.98-.98,1.53-2.31,1.53-3.7V23.47c0-2.91-2.32-5.33-5.24-5.33h-12.98c-.07-.28-.2-.55-.38-.77L59.21,1.03c-.3-.34-.73-.55-1.18-.56h-29.24c-3.91,0-7.01,3.27-7.01,7.17v10.5h-13.04c-2.91,0-5.24,2.41-5.24,5.33ZM61.69,92.22h-27.39l2.81-10.33h21.76l2.81,10.33ZM87.25,78.71H8.75c-.55.01-1.07-.2-1.46-.58-.39-.38-.6-.91-.6-1.46v-8.89h82.62v8.89c0,.55-.21,1.07-.6,1.46-.39.38-.92.59-1.46.58ZM59.72,6.28l8.35,9.47h-7.29c-.64,0-1.06-.61-1.06-1.25V6.28ZM89.31,23.47v41.15h-15.09V21.32h13.04c1.16.03,2.08.99,2.06,2.15ZM28.79,3.64h27.75v10.87c0,2.39,1.85,4.42,4.24,4.42h10.15l.11.13v45.55H24.96V7.64c0-2.16,1.67-4,3.83-4ZM21.78,64.61H6.69V23.47c-.02-1.16.9-2.12,2.06-2.15h13.04v43.29Z"/>
  <path class="cls-1" d="M32.97,49.46l14.56,4.7c.15.05.31.08.48.08s.33-.03.48-.08l14.54-4.7c.65-.22,1.08-.83,1.06-1.51v-19.9c.02-.68-.41-1.3-1.06-1.51l-14.56-4.7c-.31-.1-.65-.1-.96,0l-14.53,4.7c-.65.22-1.08.83-1.06,1.51v19.9c-.02.68.41,1.3,1.06,1.51ZM35.09,30.23l11.12,3.61v16.56l-11.12-3.61v-16.56ZM49.39,50.54v-16.56l11.52-3.74v16.56l-11.52,3.74ZM48,25.02l9.4,3.03-9.4,3.03-9.4-3.03,9.4-3.03Z"/>
</svg>