<?xml version="1.0" encoding="UTF-8"?>
<svg id="Layer_1" data-name="Layer 1" xmlns="http://www.w3.org/2000/svg" viewBox="0 0 96 96">
  <g id="Icon">
    <path d="M87.58,67h-3.17v-12.67c0-1.75-1.42-3.17-3.17-3.17h-3.17c-1.75,0-3.17,1.42-3.17,3.17v12.67h-1.58v-22.17c0-1.75-1.42-3.17-3.17-3.17h-3.17c-1.75,0-3.17,1.42-3.17,3.17v22.17h-1.58v-17.42c0-1.75-1.42-3.17-3.17-3.17h-3.17c-1.75,0-3.17,1.42-3.17,3.17v17.42c-.87,0-1.58-.71-1.58-1.58v-25.34c0-.87-.71-1.58-1.58-1.58s-1.58.71-1.58,1.58v25.34c0,2.62,2.13,4.75,4.75,4.75h34.84c.87,0,1.58-.71,1.58-1.58s-.71-1.58-1.58-1.58ZM55.91,67v-17.42s3.17,0,3.17,0v17.42h-3.17ZM67,67v-22.17s3.17,0,3.17,0v22.17h-3.17ZM78.08,67v-12.67s3.17,0,3.17,0v12.67h-3.17ZM70.16,19.5c0-.87.71-1.58,1.58-1.58h14.25c.87,0,1.58.71,1.58,1.58s-.71,1.58-1.58,1.58h-14.25c-.87,0-1.58-.71-1.58-1.58h0ZM65.41,19.5c0-.87.71-1.58,1.58-1.58s1.58.71,1.58,1.58-.71,1.58-1.58,1.58-1.58-.71-1.58-1.58ZM70.16,25.83c0-.87.71-1.58,1.58-1.58h14.25c.87,0,1.58.71,1.58,1.58s-.71,1.58-1.58,1.58h-14.25c-.87,0-1.58-.71-1.58-1.58h0ZM70.16,32.17c0-.87.71-1.58,1.58-1.58h14.25c.87,0,1.58.71,1.58,1.58s-.71,1.58-1.58,1.58h-14.25c-.87,0-1.58-.71-1.58-1.58h0ZM65.41,25.83c0-.87.71-1.58,1.58-1.58s1.58.71,1.58,1.58-.71,1.58-1.58,1.58-1.58-.71-1.58-1.58ZM65.41,32.17c0-.87.71-1.58,1.58-1.58s1.58.71,1.58,1.58-.71,1.58-1.58,1.58-1.58-.71-1.58-1.58ZM90.75,8.41H11.57c-2.62,0-4.75,2.13-4.75,4.75v20.67c-3.02.42-5.12,3.21-4.7,6.23.34,2.44,2.26,4.36,4.7,4.7v7.43c-8.19,7.87-8.46,20.89-.59,29.08,7.87,8.19,20.89,8.46,29.08.59,1.62-1.55,2.97-3.36,4.01-5.35h51.43c2.62,0,4.75-2.13,4.75-4.75V13.16c0-2.62-2.13-4.75-4.75-4.75ZM5.24,39.29c0-1.31,1.06-2.38,2.38-2.38s2.38,1.06,2.38,2.38-1.06,2.38-2.38,2.38c-1.31,0-2.37-1.06-2.38-2.38ZM19.49,49.66v16.39l-14.44,7.77c-3.77-8.84.33-19.07,9.18-22.84,1.67-.71,3.45-1.16,5.26-1.33ZM22.66,49.66c8.36.77,14.98,7.4,15.75,15.75h-15.75v-15.75ZM21.08,84.42c-5.84,0-11.29-2.93-14.51-7.81l14.91-8.03h16.94c-.83,8.96-8.34,15.82-17.34,15.83ZM92.33,71.75c0,.87-.71,1.58-1.58,1.58h-50.1c3.52-10.79-2.38-22.39-13.18-25.91-5.87-1.91-12.29-1.08-17.48,2.26v-5.41c1.93-.91,3.16-2.85,3.17-4.99,0-.83-.2-1.65-.57-2.39l8.01-7.12c1.5.91,3.35,1.05,4.97.38l6.98,5.51c-1.13,2.84.25,6.06,3.09,7.2s6.06-.25,7.2-3.09c.54-1.36.52-2.87-.05-4.22l9.15-7.56c2.51,1.74,5.95,1.12,7.69-1.39,1.74-2.51,1.12-5.95-1.39-7.69s-5.95-1.12-7.69,1.39c-1.06,1.53-1.28,3.49-.59,5.21l-9.19,7.59c-1.9-1.27-4.39-1.24-6.26.08l-6.45-5.09c1.7-2.55,1-5.99-1.54-7.68-2.55-1.7-5.99-1-7.68,1.54-1.09,1.63-1.23,3.71-.38,5.48l-8.02,7.13c-.15-.09-.31-.18-.47-.25V13.16c0-.87.71-1.58,1.58-1.58h79.17c.87,0,1.58.71,1.58,1.58v58.59ZM25.13,26.72c-.93.93-2.43.93-3.36,0-.93-.93-.93-2.43,0-3.36.93-.93,2.43-.93,3.36,0,.93.93.93,2.43,0,3.36ZM39.38,39.39c-.93.93-2.43.93-3.36,0-.93-.93-.93-2.43,0-3.36.93-.93,2.43-.93,3.36,0,.93.93.93,2.43,0,3.36ZM53.44,21.78c.93-.93,2.43-.93,3.36,0,.93.93.93,2.43,0,3.36-.93.93-2.43.93-3.36,0-.93-.93-.93-2.43,0-3.36Z" fill="#033778"/>
  </g>
</svg>