<?xml version="1.0" encoding="UTF-8"?>
<svg id="Layer_1" data-name="Layer 1" xmlns="http://www.w3.org/2000/svg" viewBox="0 0 96 96">
  <path d="M64.9,66.86l2.04-3.38c.37-.61.48-1.35.29-2.04-.19-.7-.66-1.3-1.29-1.65h0l-.6-.33v-.08c.11-.86.11-1.73,0-2.58v-.08s.58-.33.58-.33c.64-.35,1.11-.95,1.3-1.66.19-.69.08-1.43-.29-2.04l-2.04-3.38c-.78-1.25-2.4-1.68-3.69-.97l-.66.37-.06-.05c-.76-.54-1.58-1-2.44-1.36l-.08-.03v-.63c-.02-1.48-1.23-2.67-2.71-2.67h-4.12c-1.48,0-2.69,1.2-2.71,2.68v.63l-.08.03c-.86.36-1.68.82-2.43,1.36l-.06.05-.67-.37c-1.29-.71-2.91-.28-3.69.97l-2.04,3.38c-.37.61-.48,1.35-.29,2.04.19.7.67,1.3,1.3,1.65l.6.33v.08c-.06.43-.08.86-.08,1.29,0,.43.03.86.08,1.29v.08s-.59.33-.59.33c-.64.35-1.11.95-1.3,1.65-.19.69-.08,1.43.29,2.04l2.04,3.38c.78,1.24,2.4,1.67,3.69.97l.66-.37.06.05c.76.54,1.57,1,2.43,1.36l.08.03v.63c.02,1.48,1.23,2.68,2.71,2.68h4.12c1.48,0,2.69-1.2,2.71-2.68v-.63l.08-.03c.86-.36,1.68-.82,2.44-1.36l.06-.05.66.37c1.29.71,2.92.28,3.69-.97ZM62.42,56.91c.06.39.09.79.09,1.18,0,.4-.03.8-.09,1.19-.14,1.07.41,2.14,1.36,2.66l.51.29-1.8,2.99-.62-.34c-.96-.52-2.14-.43-3.02.22-.63.47-1.33.85-2.06,1.14-1.05.4-1.73,1.38-1.75,2.5v.57h-3.71v-.57c-.01-1.12-.7-2.1-1.74-2.49-.73-.29-1.43-.68-2.06-1.14-.87-.65-2.06-.74-3.02-.22l-.62.34-1.8-2.99.51-.28c.96-.52,1.5-1.59,1.36-2.67-.11-.78-.11-1.58,0-2.37.14-1.09-.39-2.14-1.36-2.66l-.51-.29,1.8-2.99.62.34c.96.52,2.14.43,3.02-.22.64-.47,1.33-.85,2.06-1.14,1.05-.4,1.73-1.38,1.74-2.5v-.57h3.71v.57c.02,1.12.7,2.09,1.75,2.49.74.29,1.43.68,2.06,1.15.88.64,2.06.73,3.02.21l.62-.34,1.8,2.99-.51.28c-.96.52-1.51,1.59-1.37,2.67Z" fill="#033778"/>
  <path d="M83.52,94.95c.57.57,1.49.57,2.06,0l4.48-4.48c.57-.57.57-1.49,0-2.06l-13.44-13.43c-.28-.28-.64-.43-1.03-.43s-.76.15-1.03.43l-1.21,1.21-.09-.09-4.62-4.62.08-.09c3.57-4.16,5.3-9.45,4.89-14.91-.42-5.46-2.93-10.43-7.09-14-8.58-7.36-21.55-6.37-28.91,2.21s-6.37,21.55,2.21,28.91c3.71,3.19,8.45,4.94,13.34,4.94h.01c4.89,0,9.62-1.75,13.33-4.93l.09-.08.08.08,4.62,4.62-1.21,1.21c-.57.57-.57,1.49,0,2.06l13.44,13.43ZM65.61,70.49c-3.42,3.42-7.91,5.13-12.41,5.13s-8.98-1.71-12.4-5.13c-6.84-6.84-6.84-17.97,0-24.81,3.31-3.31,7.72-5.14,12.4-5.14h0c4.69,0,9.09,1.82,12.4,5.14,3.31,3.31,5.14,7.72,5.14,12.4.01,4.62-1.86,9.14-5.14,12.4ZM75.6,78.07l.09.09,11.28,11.28-2.42,2.42-.09-.09-11.28-11.29,2.42-2.42Z" fill="#033778"/>
  <path d="M53.2,51.88c-3.42,0-6.21,2.79-6.21,6.21s2.79,6.21,6.21,6.21,6.21-2.79,6.21-6.21-2.79-6.21-6.21-6.21ZM53.2,61.38c-1.81,0-3.29-1.48-3.29-3.29s1.48-3.29,3.29-3.29,3.29,1.48,3.29,3.29-1.48,3.29-3.29,3.29Z" fill="#033778"/>
  <path d="M60.8.62H24.39c-.8,0-1.46.65-1.46,1.46v3.29H6.97c-.8,0-1.46.65-1.46,1.46v80.75c0,.8.65,1.46,1.46,1.46h63.21v-2.92H8.43V8.29h14.5v3.29c0,.8.65,1.46,1.46,1.46h36.42c.8,0,1.46-.65,1.46-1.46v-3.29h16.08v61.75h2.92V6.83c0-.8-.65-1.46-1.46-1.46h-17.54v-3.29c0-.8-.65-1.46-1.46-1.46ZM59.35,10.13H25.84V3.54h33.5v6.58Z" fill="#033778"/>
  <rect x="16.59" y="19.63" width="53.58" height="2.92" fill="#033778"/>
  <rect x="16.59" y="29.13" width="34.58" height="2.92" fill="#033778"/>
  <rect x="16.59" y="38.63" width="17.17" height="2.92" fill="#033778"/>
  <path d="M27.55,48.13h-9.5c-.8,0-1.46.65-1.46,1.46v9.5c0,.8.65,1.46,1.46,1.46h9.5c.8,0,1.46-.65,1.46-1.46v-9.5c0-.8-.65-1.46-1.46-1.46ZM26.09,57.63h-6.58v-6.58h6.58v6.58Z" fill="#033778"/>
  <rect x="16.59" y="67.13" width="12.42" height="2.92" fill="#033778"/>
  <rect x="16.59" y="76.63" width="18.75" height="2.92" fill="#033778"/>
</svg>