<?xml version="1.0" encoding="UTF-8"?>
<svg id="Layer_1" data-name="Layer 1" xmlns="http://www.w3.org/2000/svg" viewBox="0 0 96 96">
  <defs>
    <style>
      .cls-1 {
        fill: #233b75;
      }

      .cls-2 {
        fill: #033778;
      }
    </style>
  </defs>
  <path class="cls-2" d="M75.71,96c-.5,0-.97-.25-1.25-.66l-10.53-15.7,2.49-1.67,9.23,13.76,2.88-4.7c.23-.37.61-.63,1.04-.7l5.35-.84-9.22-13.75,2.49-1.67,10.53,15.7c.29.43.33.97.13,1.44-.21.47-.64.8-1.14.88l-6.99,1.1-3.74,6.1c-.27.44-.74.71-1.25.72h-.03Z"/>
  <path class="cls-2" d="M60.26,81.74c-12.69,0-23.01-10.32-23.01-23.01s10.32-23.01,23.01-23.01c7.51,0,14.57,3.68,18.87,9.85,2.7,3.87,4.13,8.42,4.13,13.16,0,5.06-1.61,9.87-4.66,13.89-1.29,1.7-2.82,3.23-4.55,4.54-4.01,3-8.77,4.58-13.79,4.58ZM60.26,38.72c-11.03,0-20.01,8.98-20.01,20.01s8.98,20.01,20.01,20.01c4.36,0,8.5-1.38,11.99-3.98,1.51-1.13,2.84-2.46,3.96-3.95,2.65-3.5,4.06-7.68,4.06-12.08,0-4.12-1.24-8.08-3.59-11.44h0c-3.75-5.36-9.88-8.57-16.41-8.57Z"/>
  <path class="cls-2" d="M60.26,75.7c-9.36,0-16.97-7.61-16.97-16.97,0-.88.07-1.76.2-2.62,1.26-8.18,8.47-14.35,16.76-14.35,5.99,0,11.59,3.21,14.63,8.38,1.53,2.59,2.34,5.56,2.34,8.59,0,9.36-7.61,16.97-16.97,16.97ZM60.26,44.77c-6.83,0-12.76,5.08-13.8,11.81-.11.7-.17,1.43-.17,2.15,0,7.7,6.26,13.97,13.97,13.97s13.97-6.26,13.97-13.97c0-2.49-.67-4.94-1.92-7.07h0c-2.5-4.26-7.11-6.9-12.04-6.9Z"/>
  <path class="cls-1" d="M38.79,61.21H13.89c-3.79,0-6.88-3.09-6.88-6.88V6.88C7.01,3.09,10.1,0,13.89,0h49.73c3.79,0,6.88,3.09,6.88,6.88v32.2h-3V6.88c0-2.14-1.74-3.88-3.88-3.88H13.89c-2.14,0-3.88,1.74-3.88,3.88v47.44c0,2.14,1.74,3.88,3.88,3.88h24.9v3Z"/>
  <path class="cls-2" d="M59.36,65.63c-.39,0-.76-.15-1.04-.42l-6.64-6.43,2.09-2.16,5.52,5.34,8.6-9.64,2.24,2-9.64,10.8c-.27.3-.66.49-1.06.5-.02,0-.04,0-.05,0Z"/>
  <rect class="cls-2" x="48.13" y="21.2" width="11.22" height="3"/>
  <rect class="cls-2" x="28.29" y="21.2" width="14.54" height="3"/>
  <rect class="cls-2" x="38.75" y="29.81" width="20.6" height="3"/>
  <rect class="cls-2" x="38.89" y="39.59" width="9.24" height="3"/>
  <rect class="cls-2" x="28.29" y="49.37" width="11.22" height="3"/>
  <rect class="cls-2" x="28.29" y="29.81" width="7.11" height="3"/>
  <rect class="cls-2" x="16.12" y="21.2" width="2.89" height="3"/>
  <rect class="cls-2" x="16.12" y="29.81" width="2.89" height="3"/>
  <rect class="cls-2" x="16.12" y="39.59" width="2.89" height="3"/>
  <rect class="cls-2" x="16.12" y="49.37" width="2.89" height="3"/>
  <rect class="cls-2" x="9.24" y="13.48" width="59.76" height="3"/>
  <path class="cls-2" d="M44.14,96h-.03c-.51-.01-.98-.28-1.25-.72l-3.74-6.1-6.99-1.1c-.51-.08-.94-.41-1.14-.88-.2-.47-.16-1.01.13-1.44l10.53-15.7,2.49,1.67-9.22,13.75,5.35.84c.43.07.82.32,1.04.7l2.88,4.7,9.23-13.76,2.49,1.67-10.53,15.7c-.28.42-.75.66-1.25.66Z"/>
</svg>