<?xml version="1.0" encoding="UTF-8"?>
<svg id="Capa_1" data-name="Capa 1" xmlns="http://www.w3.org/2000/svg" viewBox="0 0 96 96">
  <defs>
    <style>
      .cls-1 {
        fill: #033778;
      }
    </style>
  </defs>
  <path class="cls-1" d="M50.39,7.27c1.53.28,3.1.34,4.63.62,9.38,1.71,17.24,6.13,23.55,13.27,5.75,6.51,9.1,14.13,9.93,22.76,1.02,10.65-1.7,20.34-8.24,28.84-6.06,7.87-13.98,12.98-23.71,15.01-12.17,2.54-23.33.05-33.24-7.46-7.97-6.03-12.97-14.05-15.13-23.82-.38-1.73-.65-3.49-.76-5.26-.02-.28-.09-.56-.14-.84v-4.77c.21-.56.13-1.14.19-1.72.98-8.76,4.32-16.49,10.23-23.05,6.27-6.96,14.04-11.28,23.28-12.96,1.54-.28,3.1-.34,4.63-.62h4.77ZM47.98,85.56c20.72.03,37.56-16.8,37.59-37.55.03-20.72-16.8-37.56-37.55-37.59-20.72-.03-37.56,16.8-37.59,37.55-.03,20.72,16.8,37.56,37.55,37.59Z"/>
  <path class="cls-1" d="M46.43,56.01c-.07-2.58.19-5.41,1.43-8.07,1.05-2.25,2.52-4.16,4.54-5.62,1.45-1.04,2.82-2.13,3.74-3.72,1.84-3.17,1.63-7.2-.6-10.18-2.37-3.17-6.15-4.56-9.91-3.62-3.51.87-6.33,3.96-6.88,7.55-.07.47-.1.95-.14,1.42-.09,1.06-.71,1.71-1.64,1.67-.9-.03-1.51-.75-1.51-1.79.03-5.74,4.5-11.05,10.13-12.04,7-1.23,13.52,3.2,14.71,10.19.82,4.86-.78,8.97-4.71,12-2.09,1.61-4.01,3.28-5.03,5.79-.67,1.64-1,3.34-.99,5.11,0,1.35.02,2.7,0,4.05-.03,1.3-1.01,2.06-2.09,1.66-.75-.27-1.01-.89-1.05-1.62,0-.05,0-.11,0-.16,0-.77,0-1.54,0-2.61Z"/>
  <path class="cls-1" d="M49.57,68.39c0,.5.03,1.01,0,1.51-.08.95-.73,1.58-1.57,1.57-.84,0-1.5-.64-1.55-1.6-.05-1-.05-2.01,0-3.02.04-.96.69-1.6,1.53-1.61.87-.02,1.53.64,1.59,1.64.03.5,0,1.01,0,1.51,0,0,0,0,0,0Z"/>
</svg>