<?xml version="1.0" encoding="UTF-8"?>
<svg id="Layer_1" data-name="Layer 1" xmlns="http://www.w3.org/2000/svg" viewBox="0 0 96 96">
  <path d="M81.69,43.41c-7.68,0-13.93,6.25-13.93,13.93,0,.24,0,.49.03.79h-5.11c-.79,0-1.42.64-1.42,1.42v23.04h-3.39v-2.47c0-2.93-2.38-5.32-5.32-5.32h-9.87c-.28-3.75-1.82-7.34-4.34-10.14-1.35-1.49-2.92-2.72-4.69-3.66,5.83-2.18,9.72-7.78,9.72-14.01v-10.62c0-2.01-.87-3.91-2.39-5.24,2.87-2.42,4.55-5.12,4.98-8.02.55-3.65-.84-7.65-4.14-11.91-.24-.31-.6-.51-.99-.54-.39-.04-.78.09-1.07.34-1.91,1.66-4.16,2.74-6.68,3.21l-14.29.16c-4.69.05-8.81,1.94-11.9,5.47C.25,27.4-1.27,36.64,2.12,48.9c1.03,3.75,3.23,6.7,6.54,8.76,1.82,1.14,3.62,2.06,5.35,2.75-2.76,1.69-4.46,4.71-4.46,7.94v13.01c0,7.87,6.4,14.27,14.27,14.27h45.95c3.59,0,6.52-2.92,6.52-6.52v-18.93c1.71.72,3.53,1.09,5.39,1.09,7.68,0,13.93-6.25,13.93-13.93s-6.25-13.93-13.93-13.93ZM47,82.59v-4.94h5.54c1.36,0,2.47,1.11,2.47,2.47v2.47h-8.01ZM73.45,85.44v3.67c0,2.02-1.64,3.67-3.67,3.67h-22.79v-7.33h26.45ZM73.45,68.56v14.03h-9.35v-21.61h4.14c.82,3.02,2.66,5.71,5.21,7.58ZM92.78,57.34c0,6.11-4.97,11.08-11.08,11.08s-11.08-4.97-11.08-11.08,4.97-11.08,11.08-11.08,11.08,4.97,11.08,11.08ZM30.38,74.81v-6.46c0-2.33-.88-4.55-2.48-6.29,6.38,1,11.34,6.3,11.91,12.75h-9.43ZM28.4,59.11h-8c-.05,0-.1-.02-.16-.02-.29-.03-.61-.08-.96-.13-1.76-.5-2.99-2.12-2.99-3.95v-8.67c0-.79-.64-1.42-1.42-1.42h-.09c-1.95,0-3.53-1.58-3.53-3.53s1.58-3.52,3.53-3.52h.09c.79,0,1.42-.64,1.42-1.42v-.05c0-2.27,1.85-4.11,4.11-4.11h16.01c.54,0,1.07.1,1.58.32,1.53.64,2.52,2.13,2.52,3.79v10.62c0,6.68-5.43,12.11-12.11,12.11ZM38.25,29.67c-.6-.17-1.22-.25-1.84-.25h-16.01c-3.38,0-6.24,2.39-6.85,5.7-2.99.58-5.16,3.2-5.16,6.26s2.11,5.61,5.04,6.24v7.39c0,.76.12,1.5.36,2.22-1.18-.54-2.4-1.21-3.64-1.98h0c-2.72-1.69-4.45-4.01-5.3-7.1-3.15-11.41-1.87-19.56,4.15-26.42,2.59-2.94,5.88-4.46,9.8-4.5l14.4-.16c.08,0,.16,0,.23-.02,2.57-.46,4.92-1.44,6.97-2.92,2.19,3.16,3.11,6.05,2.73,8.58-.38,2.51-1.98,4.79-4.89,6.97ZM18.87,61.89c.1,0,.21-.01.31-.04.41.07.82.11,1.22.11h1.7c3.1.5,5.44,3.25,5.44,6.39v7.88c0,.79.64,1.42,1.42,1.42h15.19v15.12h-20.32c-6.3,0-11.43-5.12-11.43-11.42v-13.01c0-3.56,2.9-6.46,6.46-6.46Z" fill="#033778"/>
  <path d="M54.76,22.59v5.48c0,.79.64,1.42,1.42,1.42h30.57c.79,0,1.42-.64,1.42-1.42v-5.48c0-2.72-1.58-5.16-4.05-6.28,1.13-1.25,1.75-2.85,1.75-4.54,0-3.73-3.04-6.77-6.77-6.77s-6.77,3.04-6.77,6.77c0,1.68.62,3.29,1.75,4.54-1.03.47-1.93,1.19-2.62,2.09-.69-.9-1.59-1.62-2.62-2.09,1.13-1.25,1.75-2.85,1.75-4.54,0-3.73-3.04-6.77-6.77-6.77s-6.77,3.04-6.77,6.77c0,1.68.62,3.29,1.75,4.54-2.46,1.12-4.05,3.57-4.05,6.28ZM65.99,18.53c2.23,0,4.05,1.82,4.05,4.05v4.05h-12.44v-4.05c0-2.23,1.82-4.05,4.05-4.05h4.33ZM63.83,15.69c-2.16,0-3.92-1.76-3.92-3.92s1.76-3.92,3.92-3.92,3.92,1.76,3.92,3.92-1.76,3.92-3.92,3.92ZM76.94,18.53h4.33c2.23,0,4.05,1.82,4.05,4.05v4.05h-12.44v-4.05c0-2.23,1.82-4.05,4.05-4.05ZM79.11,15.69c-2.16,0-3.92-1.76-3.92-3.92s1.76-3.92,3.92-3.92,3.92,1.76,3.92,3.92-1.76,3.92-3.92,3.92Z" fill="#033778"/>
  <path d="M87.61,55.92h-4.49v-4.5c0-.79-.64-1.42-1.42-1.42s-1.42.64-1.42,1.42v4.5h-4.5c-.79,0-1.42.64-1.42,1.42s.64,1.42,1.42,1.42h4.5v4.49c0,.79.64,1.42,1.42,1.42s1.42-.64,1.42-1.42v-4.49h4.49c.79,0,1.42-.64,1.42-1.42s-.64-1.42-1.42-1.42Z" fill="#033778"/>
  <path d="M94.2.38H30.68c-.79,0-1.42.64-1.42,1.42v9.23c0,.79.64,1.42,1.42,1.42s1.42-.64,1.42-1.42V3.22h60.67v28.96h-17.92c-.38,0-.74.15-1.01.42l-12.37,12.37v-11.36c0-.79-.64-1.42-1.42-1.42h-13.86c-.79,0-1.42.64-1.42,1.42s.64,1.42,1.42,1.42h12.44v13.37c0,.58.34,1.1.88,1.32.17.07.36.11.54.11.38,0,.74-.15,1.01-.42l14.38-14.38h18.75c.79,0,1.42-.64,1.42-1.42V1.8c0-.79-.64-1.42-1.42-1.42Z" fill="#033778"/>
</svg>