<?xml version="1.0" encoding="UTF-8"?>
<svg id="Capa_1" data-name="Capa 1" xmlns="http://www.w3.org/2000/svg" viewBox="0 0 96 96">
  <path d="M18.59,21.53c-1-.05-1.85.73-1.9,1.73s.73,1.85,1.73,1.9,1.85-.73,1.9-1.73-.73-1.85-1.73-1.9ZM95.14,51.43c-.45,1.03-1.28,1.82-2.32,2.22l-5.45,2.11c-.49.19-1,.28-1.51.28-.58,0-1.15-.12-1.7-.36-1.03-.45-1.82-1.28-2.22-2.32l-.48-1.23-4.44,1.85c.21,1.26,0,2.56-.62,3.7-.74,1.35-1.97,2.32-3.45,2.75-.06.02-.12.03-.18.05.49,1.46.39,3.11-.4,4.55-1.17,2.13-3.5,3.22-5.77,2.92.07,1.05-.15,2.12-.69,3.1-.74,1.34-1.96,2.32-3.44,2.74-.92.27-1.88.3-2.79.1.03.99-.19,1.99-.7,2.91-.74,1.34-2.01,2.35-3.49,2.77-.51.14-1.03.21-1.55.21-.96,0-1.91-.25-2.76-.74l-1.5-.86c-.75,1.05-1.81,1.82-3.07,2.2-.56.17-1.14.26-1.71.26-.95,0-1.88-.23-2.74-.69-1.27-.68-2.21-1.78-2.7-3.06-1.59.68-3.45.64-5.06-.22-1.14-.61-2.01-1.56-2.54-2.69-1.67.91-3.75.98-5.55.02-1.37-.73-2.38-1.96-2.83-3.46-.26-.85-.32-1.73-.19-2.58-.99.03-1.98-.2-2.88-.69-1.37-.73-2.38-1.96-2.83-3.46-.45-1.5-.3-3.08.43-4.45l1.47-2.74c-.33-.78-.49-1.63-.64-2.46-.28-1.51-.5-2.45-1.17-2.71-.39-.15-1.41-.6-3.17-1.38l-.59,1.33c-.45,1.02-1.28,1.81-2.33,2.22-.49.19-1.01.29-1.52.29-.58,0-1.15-.12-1.69-.36l-5.35-2.36c-2.12-.94-3.08-3.42-2.14-5.54l12.28-27.78c.45-1.02,1.28-1.81,2.33-2.22,1.05-.41,2.19-.38,3.21.07l5.35,2.36c2.12.94,3.08,3.42,2.14,5.54l-.92,2.08,3.48,1.61s.07.04.11.06c1.91,1.08,3.91.61,6.44.02,3.3-.77,7.36-1.72,12.1,1.06,6.55-4.05,11.58-2,15.29-.48,2.77,1.13,4.41,1.73,6.08.86l3.04-1.62-.84-2.16c-.84-2.16.24-4.6,2.4-5.44l5.45-2.11c2.16-.84,4.6.24,5.44,2.4l10.98,28.32c.4,1.04.38,2.19-.08,3.21h-.02ZM23.37,22.39c.25-.57,0-1.25-.58-1.5l-5.35-2.36c-.14-.06-.3-.1-.45-.1-.14,0-.28.03-.42.08-.29.11-.51.32-.63.6h0L3.66,46.88c-.25.57,0,1.25.58,1.5l5.35,2.36c.28.12.58.13.87.02s.51-.32.63-.6l12.28-27.78h0ZM24.87,64.32l3.5-6.06c.58-1.33.04-2.88-1.24-3.57-1.36-.72-3.05-.21-3.77,1.14l-2.66,4.98c-.35.65-.42,1.4-.2,2.12.22.71.69,1.3,1.35,1.65.97.52,2.16.41,3.02-.26ZM31.53,70.15l3.87-7.49c.23-1.19-.34-2.43-1.41-3-.98-.52-2.18-.41-3.04.27l-4.33,7.61c-.35.65-.42,1.4-.2,2.12s.7,1.3,1.35,1.65c1.35.72,3.05.2,3.78-1.16h-.02ZM39.36,73.21l3.43-6.59c.23-1.19-.34-2.43-1.41-3s-2.41-.36-3.27.48l-3.74,7.24c-.07,1.09.49,2.13,1.46,2.65,1.2.64,2.7.31,3.53-.77h0ZM47.36,76.11l2.55-4.77c.5-.94.42-2.11-.22-2.97-.24-.33-.55-.6-.92-.8-1.07-.57-2.41-.36-3.27.48l-3.36,6.47c-.11,1.12.45,2.2,1.45,2.74.65.35,1.4.42,2.12.2s1.3-.7,1.65-1.35h0ZM55.23,71.7c-.08-.05-1.96-1.14-1.96-1.14-.07.77-.28,1.52-.66,2.22l-1.46,2.73,1.54.89c.59.34,1.28.42,1.95.23.7-.19,1.29-.67,1.64-1.29.7-1.28.23-2.91-1.05-3.63h0ZM73.76,53.78c-.24-.5-.63-.91-1.12-1.19l-14.5-8.26c-2.46-1.4-5.54-.16-9.1,1.28-2.66,1.08-5.65,2.29-8.69,2.29s-5.96-1.16-8.73-4.72c-.36-.47-.5-1.05-.39-1.63.11-.59.46-1.07.97-1.37,4.09-2.39,7.54-4.99,10.26-7.74.71-.72,1.42-1.37,2.14-1.97-3.14-1.38-5.82-.75-8.63-.09-2.78.65-5.65,1.32-8.58-.3l-3.38-1.56-8.29,18.75c1.68.75,2.7,1.19,3.04,1.33,2.04.79,2.62,2.74,2.95,4.38,1.78-1.74,4.55-2.22,6.86-.99,1.71.91,2.79,2.57,3.04,4.38,1.27-.23,2.62-.05,3.81.59,1.43.77,2.44,2.06,2.86,3.54,1.46-.47,3.1-.35,4.53.42,1.43.77,2.44,2.06,2.86,3.54,1.47-.47,3.1-.35,4.53.42.68.37,1.27.85,1.76,1.44l7.63,4.32h0c.61.34,1.32.42,2,.22.69-.2,1.26-.65,1.6-1.27.7-1.27.22-2.9-1.06-3.62-.08-.05-10.71-6.06-10.71-6.06-.74-.41-1-1.35-.58-2.09s1.35-1,2.09-.58l13.12,7.38h0c1.28.71,2.91.24,3.61-1.05.7-1.27.22-2.9-1.06-3.62h0c-3.71-2.08-6.8-3.81-9.99-5.64-.73-.42-.99-1.36-.57-2.09s1.36-.99,2.09-.57c3.18,1.82,6.26,3.55,9.97,5.62.6.34,1.31.42,1.99.22.69-.2,1.27-.65,1.61-1.28.41-.75.43-1.64.05-2.43h0ZM80.34,49.28l-7.44-19.2-2.72,1.46c-3.02,1.57-5.89.4-8.67-.74-3.76-1.54-7.64-3.12-13.25.72-1.19.82-2.41,1.85-3.62,3.07-2.67,2.7-5.98,5.25-9.84,7.6,3.97,4.27,8.22,2.55,13.09.58,3.94-1.59,8.01-3.24,11.77-1.11l14.5,8.26c.6.34,1.12.77,1.55,1.29l4.63-1.93ZM92.36,49.33l-10.98-28.32c-.17-.45-.61-.73-1.06-.73-.14,0-.28.02-.41.08l-5.45,2.11c-.58.23-.88.89-.65,1.47l10.98,28.32c.11.28.32.5.6.63s.59.13.87.02l5.45-2.11c.28-.11.5-.32.63-.6s.13-.59.02-.87ZM78.62,23.31c-1,0-1.82.82-1.82,1.82s.82,1.82,1.82,1.82,1.82-.82,1.82-1.82-.82-1.82-1.82-1.82Z" fill="#033778" fill-rule="evenodd"/>
</svg>