<?xml version="1.0" encoding="UTF-8"?>
<svg id="Layer_1" data-name="Layer 1" xmlns="http://www.w3.org/2000/svg" viewBox="0 0 96 96">
  <defs>
    <style>
      .cls-1 {
        fill: #033778;
      }
    </style>
  </defs>
  <path class="cls-1" d="M58.26,38.38h-19.44c-3.13,0-5.68-2.55-5.68-5.68v-13.89c0-3.13,2.55-5.68,5.68-5.68h19.44c3.13,0,5.68,2.55,5.68,5.68v13.89c0,3.13-2.55,5.68-5.68,5.68ZM38.82,16.14c-1.48,0-2.68,1.2-2.68,2.68v13.89c0,1.48,1.2,2.68,2.68,2.68h19.44c1.48,0,2.68-1.2,2.68-2.68v-13.89c0-1.48-1.2-2.68-2.68-2.68h-19.44Z"/>
  <path class="cls-1" d="M68.09,76.19H28.98v-30.06c0-2.58,2.1-4.68,4.68-4.68h29.76c2.58,0,4.68,2.1,4.68,4.68v30.06ZM31.98,73.19h33.11v-27.06c0-.93-.75-1.68-1.68-1.68h-29.76c-.93,0-1.68.75-1.68,1.68v27.06Z"/>
  <path class="cls-1" d="M65.49,95.75H31.58c-6.22,0-11.28-5.06-11.28-11.28s5.06-11.28,11.28-11.28h33.91c6.22,0,11.28,5.06,11.28,11.28s-5.06,11.28-11.28,11.28ZM31.58,76.19c-4.57,0-8.28,3.71-8.28,8.28s3.71,8.28,8.28,8.28h33.91c4.57,0,8.28-3.71,8.28-8.28s-3.71-8.28-8.28-8.28H31.58Z"/>
  <rect class="cls-1" x="41.83" y="36.88" width="3" height="6.08"/>
  <rect class="cls-1" x="53.32" y="36.88" width="3" height="6.08"/>
  <path class="cls-1" d="M30.48,51.16h-8.36c-2,0-3.63-1.63-3.63-3.63v-12.37h3v12.37c0,.35.28.63.63.63h8.36v3Z"/>
  <path class="cls-1" d="M77.39,62.1h-3v-10.48c0-.26-.21-.47-.47-.47h-7.32v-3h7.32c1.91,0,3.47,1.56,3.47,3.47v10.48Z"/>
  <polygon class="cls-1" points="48.15 71.81 43.69 55.06 39.67 64.44 30.48 64.44 30.48 61.44 37.69 61.44 44.35 45.89 48.64 61.98 52.7 51.16 55.9 60.62 66.53 60.62 66.53 63.62 53.75 63.62 52.55 60.09 48.15 71.81"/>
  <rect class="cls-1" x="47.04" y="8.79" width="3" height="5.85"/>
  <path class="cls-1" d="M48.54,10.29c-2.77,0-5.02-2.25-5.02-5.02S45.77.25,48.54.25s5.02,2.25,5.02,5.02-2.25,5.02-5.02,5.02ZM48.54,3.25c-1.11,0-2.02.91-2.02,2.02s.91,2.02,2.02,2.02,2.02-.91,2.02-2.02-.91-2.02-2.02-2.02Z"/>
  <path class="cls-1" d="M43.1,30.66c-2.7,0-4.9-2.2-4.9-4.9s2.2-4.9,4.9-4.9,4.9,2.2,4.9,4.9-2.2,4.9-4.9,4.9ZM43.1,23.86c-1.05,0-1.9.85-1.9,1.9s.85,1.9,1.9,1.9,1.9-.85,1.9-1.9-.85-1.9-1.9-1.9Z"/>
  <path class="cls-1" d="M54.6,30.66c-2.7,0-4.9-2.2-4.9-4.9s2.2-4.9,4.9-4.9,4.9,2.2,4.9,4.9-2.2,4.9-4.9,4.9ZM54.6,23.86c-1.05,0-1.9.85-1.9,1.9s.85,1.9,1.9,1.9,1.9-.85,1.9-1.9-.85-1.9-1.9-1.9Z"/>
  <path class="cls-1" d="M20.11,37.16c-3.94,0-7.14-3.2-7.14-7.14,0-1.2.31-2.39.88-3.44l2.63,1.45c-.33.61-.51,1.3-.51,2,0,2.28,1.86,4.14,4.14,4.14s4.14-1.86,4.14-4.14c0-.7-.18-1.39-.51-2l2.62-1.45c.58,1.05.89,2.25.89,3.46,0,3.94-3.2,7.14-7.14,7.14Z"/>
  <path class="cls-1" d="M69.64,71.2c-.58-1.05-.89-2.25-.89-3.46,0-3.94,3.2-7.14,7.14-7.14s7.14,3.2,7.14,7.14c0,1.2-.31,2.39-.88,3.44l-2.63-1.45c.33-.61.51-1.3.51-2,0-2.28-1.86-4.14-4.14-4.14s-4.14,1.86-4.14,4.14c0,.7.18,1.39.51,2l-2.62,1.45Z"/>
  <rect class="cls-1" x="30.48" y="82.97" width="36.59" height="3"/>
</svg>