<?xml version="1.0" encoding="UTF-8"?>
<svg id="Layer_1" data-name="Layer 1" xmlns="http://www.w3.org/2000/svg" viewBox="0 0 96 96">
  <defs>
    <style>
      .cls-1 {
        stroke-miterlimit: 10;
      }

      .cls-1, .cls-2 {
        fill: none;
        stroke: #033778;
        stroke-width: 3px;
      }

      .cls-2 {
        stroke-linejoin: round;
      }
    </style>
  </defs>
  <rect class="cls-1" x="16.03" y="2.61" width="30.4" height="41.31" rx="14.17" ry="14.17"/>
  <path class="cls-2" d="M16.03,19.34c6.33-.44,15.38-1.92,20.71-5.52,2.27,1.69,6.28,4.3,9.69,5.08"/>
  <path class="cls-2" d="M24.75,42.54v6.46c0,.24,0,.49.04.73.17,1.51.86,2.86,1.87,3.89,1.19,1.18,2.81,1.91,4.62,1.91,3.35,0,6.11-2.52,6.48-5.78.04-.24.05-.5.05-.75v-6.5"/>
  <path class="cls-2" d="M47.07,83.31H1.5v-15.32c0-6.35,4.09-11.97,10.12-13.96l13.17-4.3c.17,1.51.86,2.86,1.88,3.89,1.18,1.17,2.81,1.91,4.61,1.91,3.36,0,6.11-2.52,6.49-5.77l7.42,2.46"/>
  <line class="cls-2" x1="14.55" y1="83.61" x2="14.55" y2="64.32"/>
  <path class="cls-1" d="M85.9,74.76c1.66-3.35,2.39-7.88,2.39-13.53l-16.08-7.72-16.09,7.72c0,11.73,4.08,18.16,8.17,21.67,3.49,3,6.99,3.85,7.92,4.03.66-.13,8.58-1.88,13.7-12.17Z"/>
  <path class="cls-1" d="M91.19,76.52c2.31-4.64,3.31-10.92,3.31-18.76l-22.3-10.71-22.3,10.71c0,16.26,5.66,25.18,11.32,30.04,4.84,4.16,9.69,5.33,10.98,5.59.92-.18,11.9-2.6,18.99-16.87Z"/>
  <line class="cls-1" x1="72.2" y1="59.94" x2="72.2" y2="72.36"/>
  <line class="cls-1" x1="72.2" y1="75.8" x2="72.2" y2="78.29"/>
</svg>