<?xml version="1.0" encoding="UTF-8"?>
<svg id="Layer_1" data-name="Layer 1" xmlns="http://www.w3.org/2000/svg" viewBox="0 0 96 96">
  <defs>
    <style>
      .cls-1 {
        fill: #033778;
      }
    </style>
  </defs>
  <path class="cls-1" d="M75.26,29.31H13.43C6.02,29.31,0,23.28,0,15.88S6.02,2.45,13.43,2.45h61.84c7.4,0,13.43,6.02,13.43,13.43s-6.02,13.43-13.43,13.43ZM13.43,5.45c-5.75,0-10.43,4.68-10.43,10.43s4.68,10.43,10.43,10.43h61.84c5.75,0,10.43-4.68,10.43-10.43s-4.68-10.43-10.43-10.43H13.43Z"/>
  <path class="cls-1" d="M48.59,53.16H13.43c-7.4,0-13.43-6.02-13.43-13.43,0-3.58,1.39-6.95,3.93-9.5,2.55-2.54,5.92-3.93,9.5-3.93h61.83c7.4,0,13.43,6.02,13.43,13.43,0,1.84-.37,3.62-1.09,5.3l-2.75-1.19c.56-1.3.85-2.68.85-4.11,0-5.75-4.68-10.43-10.43-10.43H13.43c-2.78,0-5.4,1.08-7.38,3.05-1.96,1.97-3.05,4.59-3.05,7.38,0,5.75,4.68,10.43,10.43,10.43h35.16v3Z"/>
  <path class="cls-1" d="M53.32,77.11H13.43c-7.4,0-13.43-6.02-13.43-13.42,0-3.58,1.39-6.95,3.93-9.5,2.55-2.54,5.92-3.93,9.5-3.93h36.02v3H13.43c-2.78,0-5.4,1.08-7.38,3.05-1.96,1.97-3.05,4.59-3.05,7.38,0,5.75,4.68,10.42,10.43,10.42h39.89v3Z"/>
  <path class="cls-1" d="M18.37,47.17c-3.72,0-6.75-3.03-6.75-6.75s3.03-6.75,6.75-6.75,6.75,3.03,6.75,6.75-3.03,6.75-6.75,6.75ZM18.37,36.67c-2.07,0-3.75,1.68-3.75,3.75s1.68,3.75,3.75,3.75,3.75-1.68,3.75-3.75-1.68-3.75-3.75-3.75Z"/>
  <path class="cls-1" d="M38.43,23.3c-3.72,0-6.75-3.03-6.75-6.75s3.03-6.75,6.75-6.75,6.75,3.03,6.75,6.75-3.03,6.75-6.75,6.75ZM38.43,12.79c-2.07,0-3.75,1.68-3.75,3.75s1.68,3.75,3.75,3.75,3.75-1.68,3.75-3.75-1.68-3.75-3.75-3.75Z"/>
  <path class="cls-1" d="M18.37,23.44c-3.72,0-6.75-3.03-6.75-6.75s3.03-6.75,6.75-6.75,6.75,3.03,6.75,6.75-3.03,6.75-6.75,6.75ZM18.37,12.94c-2.07,0-3.75,1.68-3.75,3.75s1.68,3.75,3.75,3.75,3.75-1.68,3.75-3.75-1.68-3.75-3.75-3.75Z"/>
  <path class="cls-1" d="M38.43,47.03c-3.72,0-6.75-3.03-6.75-6.75s3.03-6.75,6.75-6.75,6.75,3.03,6.75,6.75-3.03,6.75-6.75,6.75ZM38.43,36.53c-2.07,0-3.75,1.68-3.75,3.75s1.68,3.75,3.75,3.75,3.75-1.68,3.75-3.75-1.68-3.75-3.75-3.75Z"/>
  <path class="cls-1" d="M18.37,70.51c-3.72,0-6.75-3.03-6.75-6.75s3.03-6.75,6.75-6.75,6.75,3.03,6.75,6.75-3.03,6.75-6.75,6.75ZM18.37,60c-2.07,0-3.75,1.68-3.75,3.75s1.68,3.75,3.75,3.75,3.75-1.68,3.75-3.75-1.68-3.75-3.75-3.75Z"/>
  <path class="cls-1" d="M38.43,70.37c-3.72,0-6.75-3.03-6.75-6.75s3.03-6.75,6.75-6.75,6.75,3.03,6.75,6.75-3.03,6.75-6.75,6.75ZM38.43,59.86c-2.07,0-3.75,1.68-3.75,3.75s1.68,3.75,3.75,3.75,3.75-1.68,3.75-3.75-1.68-3.75-3.75-3.75Z"/>
  <path class="cls-1" d="M71.89,93.55c-.24,0-.47-.06-.69-.17-.32-.16-7.93-4.1-14.24-9.91-4.37-4.03-9.02-12.61-9.02-20.59v-16.01c0-.63.39-1.19.98-1.41l21.17-7.84c.32-.12.67-.12.99-.02l23.88,7.84c.62.2,1.03.78,1.03,1.42v15.79c0,2.9-.79,13.09-10.89,22.68-6.72,6.37-12.56,8.08-12.81,8.15-.13.04-.27.06-.41.06ZM50.95,47.92v14.96c0,6.86,4.09,14.73,8.05,18.38,5.06,4.66,11.18,8.15,13.03,9.16,1.52-.56,6.02-2.51,11.02-7.25,7.34-6.96,9.95-15.16,9.95-20.5v-14.7l-22.35-7.34-19.7,7.3Z"/>
  <path class="cls-1" d="M70.02,73.55h-.03c-.41,0-.81-.19-1.08-.5l-8.88-9.84,2.23-2.01,7.81,8.66,12.92-13.24,2.15,2.1-14.04,14.38c-.28.29-.67.45-1.07.45Z"/>
</svg>