<?xml version="1.0" encoding="UTF-8"?>
<svg id="Layer_1" data-name="Layer 1" xmlns="http://www.w3.org/2000/svg" viewBox="0 0 96 96">
  <defs>
    <style>
      .cls-1 {
        fill: #033778;
      }
    </style>
  </defs>
  <path class="cls-1" d="M43.64,88.18l-.29-.06c-2.58-.51-11.7-2.78-20.71-10.53C12.98,69.3,1.46,52.86,1.46,21.66v-1.17l1.14-.28c.21-.05,20.86-5.32,40.16-19.29l.91-.66.89.68c19.79,15.18,39.84,19.21,40.04,19.25l1.21.24v1.24c0,13.3-2.07,25-6.15,34.79l-2.77-1.15c3.81-9.12,5.79-20.03,5.91-32.43-4.67-1.09-21.74-5.76-39.19-18.88C26.72,15.97,9.06,21.5,4.47,22.8c.22,23.25,7.17,41.39,20.12,52.52,8.15,7,16.31,9.22,19.05,9.8,2.43-.52,7.49-2.07,12.44-4.91l1.49,2.6c-6.77,3.88-12.96,5.17-13.64,5.31l-.29.06Z"/>
  <path class="cls-1" d="M74.69,96c-11.28,0-20.46-9.45-20.46-21.08s9.18-21.07,20.46-21.07,20.46,9.45,20.46,21.07-9.18,21.08-20.46,21.08ZM74.69,56.85c-9.63,0-17.46,8.11-17.46,18.07s7.83,18.08,17.46,18.08,17.46-8.11,17.46-18.08-7.83-18.07-17.46-18.07Z"/>
  <path class="cls-1" d="M74.69,75.88c-3.85,0-6.98-3.21-6.98-7.15s3.13-7.15,6.98-7.15,6.98,3.21,6.98,7.15-3.13,7.15-6.98,7.15ZM74.69,64.57c-2.19,0-3.98,1.86-3.98,4.15s1.78,4.15,3.98,4.15,3.98-1.86,3.98-4.15-1.78-4.15-3.98-4.15Z"/>
  <path class="cls-1" d="M84.23,92.66h-3v-10.45c0-3.49-2.73-6.34-6.08-6.34h-.91c-3.36,0-6.08,2.84-6.08,6.34v10.44h-3v-10.44c0-5.15,4.08-9.34,9.08-9.34h.91c5.01,0,9.08,4.19,9.08,9.34v10.45Z"/>
  <path class="cls-1" d="M43.64,73.33l-.29-.06c-1.71-.34-7.73-1.83-13.68-6.95-6.35-5.45-13.92-16.24-13.92-36.68v-1.17l1.14-.28c.13-.03,13.44-3.43,25.87-12.43l.91-.66.89.68c12.71,9.75,25.63,12.36,25.75,12.39l1.21.24v1.24c0,9.87-1.33,17.34-4.07,22.86h0c-8.64,17.38-22.02,20.47-23.52,20.77l-.29.06ZM18.76,30.79c.22,14.73,4.65,26.21,12.86,33.26,5.09,4.37,10.17,5.81,12.01,6.22,2.28-.52,13.54-3.82,21.13-19.1h0c2.42-4.87,3.65-11.53,3.75-20.33-3.53-.87-14.08-3.97-24.9-12.01-10.62,7.45-21.37,10.95-24.85,11.95Z"/>
</svg>