<?xml version="1.0" encoding="UTF-8"?>
<svg id="Layer_1" data-name="Layer 1" xmlns="http://www.w3.org/2000/svg" viewBox="0 0 96 96">
  <defs>
    <style>
      .cls-1 {
        fill: #033778;
      }
    </style>
  </defs>
  <g>
    <rect class="cls-1" x="47.61" y="-2.23" width="3" height="25.02" transform="translate(7.34 38.07) rotate(-45.45)"/>
    <g>
      <path class="cls-1" d="M39.9,73.65H2.17c-.83,0-1.5-.67-1.5-1.5V1.5C.67.67,1.34,0,2.17,0h38.03c.83,0,1.5.67,1.5,1.5v16.05h16.33c.83,0,1.5.67,1.5,1.5v17.39h-3v-15.89h-16.33c-.83,0-1.5-.67-1.5-1.5V3H3.67v67.65h36.23v3Z"/>
      <rect class="cls-1" x="27.25" y="30.25" width="20.36" height="3"/>
      <rect class="cls-1" x="27.25" y="40.12" width="20.36" height="3"/>
      <rect class="cls-1" x="27.25" y="49.43" width="8.3" height="3"/>
      <rect class="cls-1" x="27.25" y="59.06" width="9.32" height="3"/>
      <polygon class="cls-1" points="13.51 38.13 6.96 31.7 9.06 29.56 13.29 33.71 19.75 25.99 22.05 27.91 13.51 38.13"/>
      <polygon class="cls-1" points="13.51 51.95 6.96 45.52 9.06 43.38 13.29 47.53 19.75 39.81 22.05 41.73 13.51 51.95"/>
      <polygon class="cls-1" points="13.51 65.26 6.96 58.83 9.06 56.69 13.29 60.85 19.75 53.12 22.05 55.05 13.51 65.26"/>
    </g>
  </g>
  <path class="cls-1" d="M64.51,87.54l-.29-.06c-1.38-.27-6.27-1.49-11.1-5.63-5.14-4.41-11.26-13.13-11.26-29.63v-.94l22.65-10.88,22.65,10.88v.94c0,7.96-1.08,14-3.3,18.46h0c-6.98,14.06-17.85,16.57-19.06,16.81l-.29.06ZM44.86,53.15c.18,11.71,3.7,20.83,10.21,26.42,3.97,3.41,7.93,4.57,9.43,4.9,1.93-.46,10.71-3.14,16.67-15.14h0c1.92-3.87,2.9-9.17,2.98-16.18l-19.65-9.43-19.65,9.43Z"/>
  <path class="cls-1" d="M64.51,96.03l-.29-.06c-1.88-.37-8.54-2.03-15.13-7.68-7.03-6.04-15.41-17.99-15.41-40.64v-.94l30.83-14.8,30.82,14.8v.94c0,10.94-1.47,19.23-4.51,25.33h0c-9.57,19.26-24.37,22.67-26.03,22.99l-.29.06ZM36.69,48.59c.18,16.58,5.14,29.51,14.36,37.43,5.72,4.91,11.44,6.51,13.46,6.95,2.46-.56,15.12-4.19,23.63-21.32h0c2.74-5.51,4.11-13.06,4.19-23.06l-27.82-13.36-27.82,13.36Z"/>
  <rect class="cls-1" x="63.01" y="50.51" width="3" height="16.34"/>
  <rect class="cls-1" x="63.01" y="71.37" width="3" height="3.27"/>
</svg>