<?xml version="1.0" encoding="UTF-8"?>
<svg id="Layer_1" data-name="Layer 1" xmlns="http://www.w3.org/2000/svg" viewBox="0 0 96 96">
  <defs>
    <style>
      .cls-1 {
        fill: #223c75;
      }
    </style>
  </defs>
  <path class="cls-1" d="M82.11,61.6v-3h.32c5.91-.15,10.56-4.94,10.56-10.89s-4.88-10.89-10.89-10.89c-1.26,0-2.47.21-3.62.62-.68.24-1.44-.03-1.8-.66-.36-.62-.23-1.42.32-1.89,2.78-2.4,4.38-5.88,4.38-9.56,0-6.96-5.66-12.62-12.62-12.62-3.53,0-6.8,1.42-9.21,3.99-.33.35-.8.52-1.28.46-.48-.06-.89-.34-1.13-.76-3.75-6.73-10.86-10.91-18.56-10.91-11.73,0-21.27,9.54-21.27,21.26,0,.19,0,.37.02.56.08.81-.5,1.54-1.31,1.64-7.42.92-13.02,7.27-13.02,14.77,0,8.21,6.68,14.88,14.88,14.88h.32v3h-.32C8.02,61.6,0,53.57,0,43.71c0-8.55,6.07-15.86,14.32-17.53.3-13.12,11.07-23.69,24.27-23.69,8.15,0,15.72,4.1,20.19,10.82,2.79-2.33,6.28-3.6,9.99-3.6,8.61,0,15.62,7.01,15.62,15.62,0,3.05-.89,5.99-2.51,8.5.08,0,.16,0,.23,0,7.66,0,13.89,6.23,13.89,13.89s-5.94,13.69-13.52,13.89h-.36Z"/>
  <rect class="cls-1" x="69.47" y="58.6" width="12.96" height="3"/>
  <rect class="cls-1" x="18.21" y="58.6" width="6.77" height="3"/>
  <path class="cls-1" d="M69.47,74.55H24.98c-.83,0-1.5-.67-1.5-1.5v-31.21c0-.83.67-1.5,1.5-1.5h44.5c.83,0,1.5.67,1.5,1.5v31.21c0,.83-.67,1.5-1.5,1.5ZM26.48,71.55h41.5v-28.21H26.48v28.21Z"/>
  <rect class="cls-1" x="42.15" y="56.4" width="12.01" height="3" transform="translate(-24.36 78.22) rotate(-65.9)"/>
  <path class="cls-1" d="M39.17,64.45l-6.58-4.9c-.37-.28-.59-.7-.6-1.16s.19-.9.54-1.19l6.84-5.67,1.92,2.31-5.37,4.46,5.05,3.76-1.79,2.41Z"/>
  <path class="cls-1" d="M56.96,64.45l-1.79-2.41,5.05-3.76-5.37-4.46,1.92-2.31,6.84,5.67c.35.29.55.73.54,1.19-.01.46-.23.89-.6,1.16l-6.58,4.9Z"/>
  <path class="cls-1" d="M83.36,76.79h-3v-8.17h-10.89v-3h12.39c.83,0,1.5.67,1.5,1.5v9.67Z"/>
  <path class="cls-1" d="M15.39,76.79h-3v-9.67c0-.83.67-1.5,1.5-1.5h11.09v3h-9.59v8.17Z"/>
  <path class="cls-1" d="M13.89,88.87c-3.74,0-6.79-3.04-6.79-6.79s3.04-6.79,6.79-6.79,6.79,3.04,6.79,6.79-3.04,6.79-6.79,6.79ZM13.89,78.29c-2.09,0-3.79,1.7-3.79,3.79s1.7,3.79,3.79,3.79,3.79-1.7,3.79-3.79-1.7-3.79-3.79-3.79Z"/>
  <path class="cls-1" d="M81.73,88.87c-3.74,0-6.79-3.04-6.79-6.79s3.04-6.79,6.79-6.79,6.79,3.04,6.79,6.79-3.04,6.79-6.79,6.79ZM81.73,78.29c-2.09,0-3.79,1.7-3.79,3.79s1.7,3.79,3.79,3.79,3.79-1.7,3.79-3.79-1.7-3.79-3.79-3.79Z"/>
  <rect class="cls-1" x="35.73" y="73.57" width="3" height="6.58"/>
  <rect class="cls-1" x="56.62" y="73.57" width="3" height="6.58"/>
  <path class="cls-1" d="M58.12,93.51c-3.74,0-6.79-3.04-6.79-6.79s3.04-6.79,6.79-6.79,6.79,3.04,6.79,6.79-3.04,6.79-6.79,6.79ZM58.12,82.94c-2.09,0-3.79,1.7-3.79,3.79s1.7,3.79,3.79,3.79,3.79-1.7,3.79-3.79-1.7-3.79-3.79-3.79Z"/>
  <path class="cls-1" d="M37.1,93.51c-3.74,0-6.79-3.04-6.79-6.79s3.04-6.79,6.79-6.79,6.79,3.04,6.79,6.79-3.04,6.79-6.79,6.79ZM37.1,82.94c-2.09,0-3.79,1.7-3.79,3.79s1.7,3.79,3.79,3.79,3.79-1.7,3.79-3.79-1.7-3.79-3.79-3.79Z"/>
</svg>