<?xml version="1.0" encoding="UTF-8"?>
<svg id="Capa_1" data-name="Capa 1" xmlns="http://www.w3.org/2000/svg" viewBox="0 0 96 96">
  <defs>
    <style>
      .cls-1 {
        fill: #033778;
      }
    </style>
  </defs>
  <path class="cls-1" d="M88.72,49.14c-.28,1.59-.39,3.2-.75,4.77-1.72,7.39-5.63,13.35-11.68,17.9-2.45,1.84-5.15,3.23-8.05,4.24-.95.33-1.79,0-2.12-.82-.34-.83.03-1.63.95-2.06.24-.11.49-.21.74-.3,2.2-.81,4.26-1.88,6.16-3.25,5.89-4.24,9.67-9.9,11.06-17.02,2.35-11.99-3.22-23.67-13.93-29.48-1.33-.72-2.74-1.25-4.14-1.82-.71-.29-1.07-.86-.98-1.64.09-.71.53-1.12,1.21-1.31.35-.1.69-.01,1.01.11,7.83,2.83,13.65,7.95,17.39,15.39,1.7,3.39,2.68,7.01,3,10.79.02.23.09.46.13.69v3.82Z"/>
  <path class="cls-1" d="M54.23,48.01c0,10.2,0,20.41,0,30.61,0,1.22-.2,2.36-.93,3.38-1.69,2.34-4.99,2.67-7.11.73-6.71-6.17-13.43-12.33-20.13-18.51-.44-.41-.89-.57-1.48-.57-4.98.02-9.96.02-14.95.02-1.95,0-2.36-.42-2.36-2.39,0-9.41,0-18.82,0-28.22,0-1.76.46-2.23,2.2-2.23,5.09,0,10.18,0,15.26,0,.51,0,.89-.13,1.28-.46,6.75-5.73,13.51-11.44,20.26-17.16,1.5-1.27,3.19-1.53,4.97-.78,1.84.78,2.91,2.25,2.94,4.26.06,4.13.03,8.27.03,12.4,0,6.31,0,12.61,0,18.92ZM51.12,48.08c0-10.1,0-20.2,0-30.3,0-.32,0-.64-.03-.95-.06-.72-.4-1.27-1.08-1.54-.68-.28-1.27-.07-1.82.4-6.67,5.66-13.35,11.3-20.03,16.94-.38.32-.53.65-.53,1.15.03,2.04.02,4.08,0,6.12-.01,1.32-.91,2.08-2.03,1.75-.71-.2-1.11-.82-1.11-1.82-.01-1.75-.02-3.5,0-5.25,0-.52-.15-.68-.67-.68-4.24.02-8.48.02-12.72,0-.5,0-.69.12-.69.66.02,8.43.01,16.86,0,25.29,0,.49.1.7.65.7,4.27-.02,8.54-.02,12.8,0,.5,0,.63-.18.62-.65-.02-1.7-.02-3.39,0-5.09,0-.34.03-.69.13-1.02.21-.68.7-1.04,1.42-1.05.71-.01,1.21.33,1.47,1,.13.33.13.67.13,1.02,0,2.01.01,4.03-.01,6.04,0,.44.13.73.45,1.02,6.68,6.12,13.36,12.25,20.03,18.4.58.54,1.17.82,1.93.49.75-.32,1.03-.95,1.07-1.71.02-.29,0-.58,0-.87,0-10.02,0-20.04,0-30.06Z"/>
  <path class="cls-1" d="M74.55,47.25c.06,9.09-5.76,17.12-14.46,20.04-1.41.47-2.25.23-2.6-.75-.35-.98.18-1.74,1.57-2.2,2.96-.97,5.47-2.61,7.61-4.87,8.81-9.3,4.96-25.01-7.17-29.18-.37-.13-.76-.24-1.12-.41-.84-.38-1.19-1.17-.89-1.95.3-.8,1.04-1.19,1.93-.95,2.32.65,4.45,1.69,6.39,3.11,4.65,3.42,7.48,7.99,8.53,13.66.1.52.17,1.05.2,1.57.03.63,0,1.27,0,1.91Z"/>
</svg>