<?xml version="1.0" encoding="UTF-8"?>
<svg id="Layer_1" data-name="Layer 1" xmlns="http://www.w3.org/2000/svg" viewBox="0 0 96 96">
  <path d="M91.87,1H4.13c-1.73,0-3.13,1.4-3.13,3.13v3.13c0,1.73,1.4,3.13,3.13,3.13v57.97c0,2.6,2.1,4.7,4.7,4.7h19.5l-6.46,14c-1.26,2.82-.03,6.13,2.77,7.44.73.33,1.52.49,2.33.5,2.18,0,4.16-1.27,5.09-3.25l8.63-18.69h14.64l8.63,18.69c.92,1.97,2.9,3.24,5.08,3.24.81,0,1.62-.18,2.36-.51,2.78-1.32,3.99-4.62,2.73-7.43l-6.45-13.99h19.5c2.6,0,4.7-2.1,4.7-4.7V10.4c1.73,0,3.13-1.4,3.13-3.13v-3.13c0-1.73-1.4-3.13-3.13-3.13ZM29.21,90.44c-.41.87-1.28,1.43-2.25,1.43-.35,0-.7-.07-1.02-.21-1.24-.57-1.79-2.03-1.22-3.28,0,0,0,0,0,0l7.06-15.3h5.45l-8.02,17.37ZM71.27,88.36c.57,1.23.05,2.69-1.18,3.28-1.24.54-2.69.01-3.29-1.2l-8.03-17.37h5.45l7.06,15.3ZM88.73,68.37c0,.87-.7,1.57-1.57,1.57H8.83c-.87,0-1.57-.7-1.57-1.57V10.4h81.47v57.97ZM91.87,7.27H4.13v-3.13h87.73v3.13Z" fill="#033778"/>
  <path d="M21.37,65.23c3.45,0,6.26-2.79,6.26-6.25,0-2.86-1.93-5.35-4.7-6.06v-3.36c0-3.46,2.81-6.27,6.27-6.27h37.6c5.19,0,9.39-4.21,9.4-9.4v-2.48l2.03,2.03c.62.6,1.61.58,2.22-.04.59-.61.59-1.57,0-2.18l-4.7-4.7c-.61-.61-1.6-.61-2.22,0l-4.7,4.7c-.6.62-.58,1.61.04,2.22.61.59,1.57.59,2.18,0l2.03-2.03v2.48c0,3.46-2.81,6.27-6.27,6.27H29.2c-5.19,0-9.39,4.21-9.4,9.4v3.36c-3.35.86-5.36,4.27-4.5,7.62.71,2.77,3.21,4.7,6.06,4.7ZM21.37,55.83c1.73,0,3.13,1.4,3.13,3.13s-1.4,3.13-3.13,3.13-3.13-1.4-3.13-3.13,1.4-3.13,3.13-3.13Z" fill="#033778"/>
  <path d="M49.13,50.03s0,0-.02,0c-.61-.61-1.6-.61-2.22,0l-3.59,3.59-3.59-3.59c-.62-.6-1.61-.58-2.22.04-.59.61-.59,1.57,0,2.18l3.59,3.59-3.59,3.59c-.62.6-.64,1.59-.04,2.22.6.62,1.59.64,2.22.04.01-.01.03-.03.04-.04l3.59-3.59,3.59,3.59c.62.6,1.61.58,2.22-.04.59-.61.59-1.57,0-2.18l-3.59-3.59,3.59-3.59c.62-.61.63-1.59.02-2.21Z" fill="#033778"/>
  <path d="M72.61,53.16c-.61-.61-1.6-.61-2.22,0l-3.59,3.59-3.59-3.59c-.62-.6-1.61-.58-2.22.04-.59.61-.59,1.57,0,2.18l3.59,3.59-3.59,3.59c-.62.6-.64,1.59-.04,2.22.6.62,1.59.64,2.22.04.01-.01.03-.03.04-.04l3.59-3.59,3.59,3.59c.62.6,1.61.58,2.22-.04.59-.61.59-1.57,0-2.18l-3.59-3.59,3.59-3.59c.61-.61.61-1.6,0-2.22Z" fill="#033778"/>
  <path d="M35.93,33.44c.61.61,1.6.61,2.22,0l3.59-3.59,3.59,3.59c.62.6,1.61.58,2.22-.04.59-.61.59-1.57,0-2.18l-3.59-3.59,3.59-3.59c.6-.62.58-1.61-.04-2.22-.61-.59-1.57-.59-2.18,0l-3.59,3.59-3.59-3.59c-.62-.6-1.61-.58-2.22.04-.59.61-.59,1.57,0,2.18l3.59,3.59-3.59,3.59c-.61.61-.61,1.6,0,2.22Z" fill="#033778"/>
  <path d="M71.96,22.47c.29.29.69.46,1.11.46h.11c.45-.03.87-.26,1.14-.63l4.7-6.27c.52-.69.38-1.67-.31-2.19-.69-.52-1.67-.38-2.19.31,0,0,0,0,0,0l-3.62,4.82-.29-.29c-.62-.6-1.61-.58-2.22.04-.59.61-.59,1.57,0,2.18l1.57,1.57Z" fill="#033778"/>
</svg>