<?xml version="1.0" encoding="UTF-8"?>
<svg id="Layer_1" data-name="Layer 1" xmlns="http://www.w3.org/2000/svg" viewBox="0 0 96 96">
  <path d="M95,66.75l-4.55-4.51c-.65-.64-1.71-.62-2.31.03-.31.33-.48.73-.48,1.16,0,.45.18.86.5,1.16l4.55,4.51c.32.32.71.48,1.15.48s.88-.18,1.16-.48c.31-.31.48-.73.48-1.18s-.17-.86-.5-1.17Z" fill="#033778"/>
  <path d="M84.65,57.12h-.62l.11.11c-.24.08-.46.21-.65.4-.64.64-.64,1.67,0,2.31.31.31.73.48,1.16.48s.85-.17,1.16-.48.48-.72.48-1.16-.17-.86-.48-1.16c-.42-.42-.91-.48-1.16-.48Z" fill="#033778"/>
  <path d="M59.73,78.07c-.32-.32-.81-.51-1.3-.48l-.59.06c-2.77.22-5.51-.37-7.92-1.72l-.23-.12,1.45-1.48h.1c7.02-.45,13.63-3.44,18.59-8.4l18.08-18.08c2.57-2.57,2.72-6.69.34-9.39l-.23-.25c-.88-.88-2.01-1.5-3.29-1.82l-.27-.06.1-.22c.42-.89.64-1.86.64-2.88,0-1.83-.71-3.53-1.99-4.8-.99-.99-2.25-1.64-3.66-1.9l-.25-.04.09-.25c.82-2.45.18-5.1-1.66-6.93-.99-.99-2.25-1.64-3.66-1.9l-.25-.04.09-.25c.22-.69.33-1.41.33-2.12,0-1.83-.71-3.53-1.99-4.8-1.28-1.28-2.99-1.99-4.8-1.99s-2.2.24-3.07.71l-.33.19-.29-.32c-2.3-2.47-5.55-3.88-8.92-3.88h-14.63c-.92,0-1.65.72-1.65,1.65v2.44c0,.92.15,1.85.46,2.75l.16.46-.46-.19c-.81-.35-1.69-.52-2.61-.52-1.83,0-3.53.71-4.8,1.99-1.83,1.83-2.46,4.49-1.64,6.97l.08.22-.23.04c-1.43.26-2.69.91-3.65,1.9-1.29,1.28-1.99,2.99-1.99,4.8,0,1.45.03,1.54.19,1.75l.04.11c.03.07.07.16.12.3l.08.22-.23.04c-1.43.26-2.69.91-3.65,1.9-2.01,2.01-2.56,5.1-1.35,7.68l.11.25-.24.06c-1.23.27-2.37.9-3.29,1.82-2.66,2.66-2.66,6.98,0,9.63l3.89,3.89L.98,73.46c-.31.31-.48.73-.48,1.16s.17.85.48,1.16c.62.62,1.71.62,2.33,0l18.6-18.6.15.09c1.03.58,2.19.89,3.37.89,1.83,0,3.53-.71,4.8-1.99,1.32-1.33,2.05-3.18,1.99-5.08v-.25h.5c1.83,0,3.53-.71,4.8-1.99,1.28-1.29,1.99-2.99,1.99-4.8v-.63h.06v.11h.44c1.83,0,3.53-.71,4.8-1.99,1.29-1.29,1.99-2.99,1.99-4.8v-.63h.06v.11h.44c1.83,0,3.53-.71,4.8-1.99,2.5-2.5,2.69-6.42.44-9.14l-.13-.14,12.51-12.51c.66-.66,1.55-1.03,2.49-1.03s1.83.37,2.49,1.05c.66.66,1.03,1.54,1.03,2.47s-.38,1.84-1.05,2.49l-8.44,8.44c-.31.31-.48.72-.48,1.16s.17.85.48,1.16c.62.62,1.7.62,2.33,0l6.62-6.62c.67-.67,1.54-1.03,2.5-1.03.93,0,1.81.37,2.46,1.03.66.66,1.03,1.55,1.03,2.49s-.36,1.8-1.03,2.49l-6.62,6.62c-.64.64-.64,1.68,0,2.33.62.62,1.7.62,2.33,0l4.79-4.79c.66-.66,1.55-1.03,2.49-1.03s1.83.37,2.49,1.05c.66.66,1.03,1.54,1.03,2.47s-.38,1.84-1.05,2.49l-4.79,4.79c-.31.31-.48.73-.48,1.16s.17.85.48,1.16c.62.63,1.71.62,2.33,0l2.29-2.29c.65-.65,1.56-1.03,2.49-1.03s1.84.38,2.49,1.05c.66.66,1.03,1.54,1.03,2.47s-.38,1.84-1.05,2.49l-18.08,18.08c-4.59,4.59-10.67,7.24-17.12,7.46-.58,0-.98.34-1.13.48l-16.7,16.77c-.31.31-.48.73-.48,1.16s.17.85.48,1.16c.62.62,1.7.62,2.33,0l12.41-12.45.14.08c3.12,2,6.73,2.94,10.41,2.69h.11l9.68,9.68c.31.31.72.48,1.16.48s.85-.17,1.16-.48c.31-.31.48-.72.48-1.16s-.17-.85-.48-1.16l-10.23-10.23ZM50.85,29.44c0,.94-.36,1.83-1.03,2.49-.65.65-1.56,1.03-2.49,1.03s-1.84-.38-2.49-1.05l-11.18-11.18c-.66-.66-1.03-1.55-1.03-2.49s.36-1.8,1.03-2.49c.64-.66,1.53-1.02,2.49-1.02s1.83.37,2.49,1.05l11.18,11.18c.66.66,1.03,1.55,1.03,2.49ZM45.05,16.99c.54.13,1.11.19,1.75.19h5.16c.43,0,.86-.19,1.16-.52.31-.31.48-.73.48-1.16,0-.91-.74-1.65-1.65-1.65h-5.15c-1.29.02-2.56-.49-3.49-1.42s-1.46-2.19-1.46-3.52v-.8h12.99c2.45,0,4.82,1.03,6.52,2.84l.22.22-11.38,11.38-.06.09-5.81-5.81.71.15ZM43.54,36.75c0,.94-.36,1.83-1.03,2.49-.65.65-1.56,1.03-2.49,1.03s-1.84-.38-2.49-1.05l-9.38-9.38c-.66-.66-1.03-1.55-1.03-2.49s.37-1.83,1.05-2.49c.66-.66,1.54-1.03,2.47-1.03s1.84.38,2.49,1.05l9.38,9.38c.66.66,1.03,1.55,1.03,2.49ZM35.43,46.32l-.21.21c-.66.66-1.55,1.03-2.49,1.03s-1.83-.37-2.49-1.05l-7.55-7.55c-.67-.67-1.03-1.56-1.03-2.5,0-.93.37-1.81,1.03-2.46.66-.66,1.55-1.03,2.49-1.03s1.83.37,2.49,1.05l7.55,7.55c.66.66,1.03,1.55,1.03,2.49,0,.84-.29,1.63-.82,2.27ZM28.95,51.35c0,.93-.37,1.81-1.03,2.46l-.07.07v.02c-.65.62-1.51.96-2.42.96s-1.83-.37-2.49-1.05l-5.03-5.03c-.66-.66-1.03-1.55-1.03-2.49s.36-1.8,1.03-2.49c.64-.66,1.53-1.02,2.49-1.02s1.83.37,2.49,1.05l5.03,5.03c.67.67,1.03,1.55,1.03,2.5Z" fill="#033778"/>
</svg>