<?xml version="1.0" encoding="UTF-8"?>
<svg id="Layer_1" data-name="Layer 1" xmlns="http://www.w3.org/2000/svg" viewBox="0 0 96 96">
  <path d="M57.71,55.55c7.72-13.4,4.2-30.46-8.19-39.71-.05-5.32-2.91-10.22-7.52-12.86-2.83-1.62-6.03-2.47-9.29-2.47h-3.13c-3.26,0-6.46.85-9.29,2.47-4.62,2.65-7.48,7.55-7.52,12.87C-.77,25.98-3.52,45.17,6.62,58.71c3.6,4.8,8.52,8.44,14.16,10.46l-2.79,4.88H5.1c-2.54,0-4.6,2.06-4.6,4.6h0v12.26c0,2.54,2.06,4.6,4.6,4.6h39.84c2.54,0,4.6-2.06,4.6-4.6h0v-12.26c0-2.54-2.06-4.6-4.6-4.6h-12.9l-1.77-3.09c.29,0,.59.03.88.03,5.34,0,10.58-1.41,15.21-4.08l26.24,26.24c3.16,3.11,8.25,3.07,11.36-.09,3.08-3.13,3.08-8.15,0-11.27l-26.24-26.24ZM21.81,5.63c2.37-1.35,5.05-2.06,7.77-2.06h3.13c2.73,0,5.4.71,7.77,2.06,5.67,3.22,7.67,10.43,4.46,16.11v-1.6c0-2.12-.62-4.19-1.8-5.95l-1.52-2.28c-.47-.7-1.42-.89-2.12-.42-.02.02-.05.03-.07.05l-2.04,1.53c-2.39,1.79-5.29,2.75-8.27,2.76h-4.09c-3.65,0-6.79,2.58-7.51,6.16-3.36-5.59-1.55-12.84,4.05-16.2.08-.05.17-.1.26-.15ZM25.02,38.88v4.75l-2.46.41c-3.04.52-5.84,2-7.97,4.23-3.24-6.68-2.11-14.66,2.86-20.18.53,4.65,3.38,8.71,7.57,10.79ZM28.08,39.98c2.02.47,4.11.47,6.13,0v4.08c-1.92.98-4.2.98-6.13,0v-4.08ZM31.15,37.27c-5.92,0-10.72-4.8-10.73-10.73v-3.06c0-2.54,2.06-4.6,4.6-4.6h4.09c3.65,0,7.19-1.19,10.11-3.37l.74-.56.62.93c.84,1.26,1.29,2.74,1.29,4.25v6.41c0,5.92-4.8,10.72-10.73,10.73ZM23.06,47.07l3.22-.54c3.01,1.77,6.74,1.77,9.75,0l3.22.54c2.68.45,5.11,1.86,6.84,3.96-5.88,8.24-17.32,10.16-25.56,4.29-1.66-1.18-3.11-2.63-4.29-4.29,1.73-2.1,4.15-3.51,6.83-3.96h0ZM47.7,48.28c-2.13-2.23-4.93-3.72-7.97-4.23l-2.46-.41v-4.75c4.19-2.08,7.04-6.14,7.57-10.79,4.97,5.52,6.1,13.5,2.86,20.19h0ZM44.94,77.11c.85,0,1.53.69,1.53,1.53v12.26c0,.85-.69,1.53-1.53,1.53H5.1c-.85,0-1.53-.69-1.53-1.53v-12.26c0-.85.69-1.53,1.53-1.53h13.79c.55,0,1.06-.29,1.33-.77l4.8-8.4,4.8,8.4c.27.48.78.77,1.33.77h13.79ZM28.45,67.78l-2.1-3.68c-.48-.73-1.47-.94-2.21-.45-.18.12-.33.27-.45.45l-1.35,2.36C7.91,61.61.15,45.99,5,31.56c1.58-4.71,4.41-8.9,8.18-12.13.48,1.98,1.35,3.85,2.57,5.49l.23.31c-8.38,8.38-8.38,21.96,0,30.34,8.38,8.38,21.96,8.38,30.34,0,8.38-8.38,8.38-21.96,0-30.34l.23-.31c1.22-1.63,2.1-3.5,2.57-5.49,11.55,9.92,12.88,27.32,2.96,38.88-5.24,6.1-12.88,9.61-20.92,9.61-.9,0-1.8-.06-2.7-.14ZM78.27,92.44c-1.32,0-2.58-.52-3.51-1.46l-25.78-25.77c2.71-1.95,5.08-4.32,7.03-7.03l25.77,25.77c1.94,1.94,1.94,5.09,0,7.03-.93.93-2.19,1.45-3.51,1.46Z" fill="#033778"/>
  <path d="M67.73,19.33l-2.82,9.86c-.23.81.24,1.66,1.06,1.89.49.14,1.01.03,1.4-.29l8.22-6.85,8.21,6.84c.65.54,1.62.45,2.16-.2.32-.39.43-.91.29-1.39l-2.82-9.86,7.02-7.02c.6-.6.59-1.57,0-2.17-.29-.28-.67-.44-1.07-.45h-8.25l-4.17-8.35c-.45-.76-1.43-1.01-2.19-.55-.23.14-.42.33-.55.55l-4.18,8.35h-8.25c-.85,0-1.53.69-1.53,1.53,0,.41.16.8.45,1.08l7.02,7.02ZM70.98,12.76c.58,0,1.12-.33,1.38-.85l3.22-6.45,3.23,6.45c.26.52.79.85,1.37.85h5.49l-5.05,5.05c-.39.39-.54.97-.39,1.5l1.7,5.95-5.36-4.48c-.57-.47-1.39-.47-1.96,0l-5.37,4.48,1.7-5.94c.15-.54,0-1.11-.39-1.5l-5.05-5.05h5.49Z" fill="#033778"/>
  <path d="M95.39,41.28c-.24-.57-.8-.95-1.42-.95h-8.25l-4.17-8.35c-.45-.76-1.43-1.01-2.19-.55-.23.14-.42.33-.55.55l-4.18,8.35h-8.25c-.85,0-1.53.69-1.53,1.53,0,.41.16.8.45,1.08l7.02,7.02-2.82,9.86c-.23.81.24,1.66,1.06,1.89.49.14,1.01.03,1.4-.29l8.22-6.85,8.21,6.84c.65.54,1.62.45,2.16-.2.32-.39.43-.91.29-1.39l-2.82-9.86,7.02-7.02c.44-.44.57-1.09.34-1.67ZM85.23,48.45c-.39.39-.54.97-.39,1.5l1.7,5.95-5.36-4.48c-.57-.47-1.39-.47-1.96,0l-5.37,4.48,1.7-5.94c.15-.54,0-1.11-.39-1.5l-5.05-5.05h5.49c.58,0,1.12-.33,1.38-.85l3.22-6.45,3.23,6.45c.26.52.79.85,1.37.85h5.49l-5.04,5.05Z" fill="#033778"/>
  <rect x="6.63" y="86.31" width="36.77" height="3.06" fill="#033778"/>
  <rect x="9.69" y="80.18" width="30.65" height="3.06" fill="#033778"/>
</svg>