<?xml version="1.0" encoding="UTF-8"?>
<svg id="Layer_1" data-name="Layer 1" xmlns="http://www.w3.org/2000/svg" viewBox="0 0 96 96">
  <defs>
    <style>
      .cls-1 {
        fill: #223c75;
      }
    </style>
  </defs>
  <path class="cls-1" d="M47.96,95.61C21.62,95.61.2,74.19.2,47.86S21.62.1,47.96.1c15.59,0,30.23,7.64,39.17,20.44h0c5.61,8.03,8.57,17.47,8.57,27.31,0,10.51-3.35,20.48-9.68,28.83-2.67,3.54-5.85,6.71-9.45,9.42-8.32,6.22-18.21,9.51-28.61,9.51ZM47.96,3.1C23.28,3.1,3.2,23.18,3.2,47.86s20.08,44.76,44.76,44.76c9.75,0,19.02-3.08,26.81-8.91,3.38-2.54,6.36-5.51,8.86-8.83,5.94-7.83,9.07-17.17,9.07-27.02,0-9.22-2.78-18.08-8.03-25.6h0C76.29,10.26,62.56,3.1,47.96,3.1Z"/>
  <path class="cls-1" d="M47.95,80.42c-17.96,0-32.57-14.61-32.57-32.57,0-1.7.13-3.39.39-5.02,2.42-15.7,16.26-27.55,32.18-27.55,11.5,0,22.25,6.16,28.08,16.08,2.94,4.97,4.49,10.68,4.49,16.49,0,17.96-14.61,32.57-32.57,32.57ZM47.95,18.29c-14.45,0-27.02,10.75-29.22,25.01-.23,1.48-.35,3.01-.35,4.56,0,16.3,13.26,29.57,29.57,29.57s29.57-13.26,29.57-29.57c0-5.28-1.41-10.45-4.07-14.97h0c-5.29-9.01-15.05-14.6-25.49-14.6Z"/>
  <rect class="cls-1" x="-1.58" y="84.93" width="18.96" height="3" transform="translate(-66.77 42.18) rotate(-54.13)"/>
  <rect class="cls-1" x="87.25" y="77.44" width="3" height="18.96" transform="translate(-34.1 68.49) rotate(-35.87)"/>
  <path class="cls-1" d="M47.95,63.01c-8.36,0-15.16-6.8-15.16-15.16,0-.79.06-1.57.18-2.33,1.13-7.31,7.57-12.82,14.98-12.82,5.35,0,10.36,2.87,13.07,7.48,1.37,2.32,2.09,4.97,2.09,7.67,0,8.36-6.8,15.16-15.16,15.16ZM47.95,35.7c-5.94,0-11.11,4.42-12.01,10.28-.1.61-.14,1.24-.14,1.88,0,6.7,5.45,12.16,12.16,12.16s12.16-5.45,12.16-12.16c0-2.17-.58-4.3-1.67-6.15h0c-2.17-3.71-6.19-6-10.48-6Z"/>
</svg>