<?xml version="1.0" encoding="UTF-8"?>
<svg id="Capa_1" data-name="Capa 1" xmlns="http://www.w3.org/2000/svg" viewBox="0 0 96 96">
  <path d="M47.88,95.12c26.02,0,47.12-21.1,47.12-47.12,0-7.65-1.86-15.19-5.43-21.96-.44-.82-1.46-1.12-2.28-.68-.81.44-1.12,1.44-.69,2.26,3.31,6.28,5.04,13.28,5.04,20.38-2.4,58.04-85.11,58.04-87.51,0C3.72,15.55,39.8-6.2,68.26,9.28c.82.44,1.84.12,2.28-.7s.12-1.84-.7-2.28c-6.77-3.57-14.31-5.43-21.96-5.43-62.5,2.58-62.5,91.66,0,94.24h0Z" fill="#033778"/>
  <path d="M47.88,34.54c1.46,0,2.9.24,4.28.72.88.3,1.84-.16,2.14-1.04.74-2.98-4.5-2.86-6.42-3.04-22.32.92-22.32,32.74,0,33.66,9.29-.01,16.82-7.54,16.83-16.83-.17-1.95-.06-7.14-3.02-6.4-.88.3-1.35,1.26-1.04,2.14h0c.47,1.37.7,2.81.7,4.26-.67,17.83-26.25,17.83-26.93,0,0-7.43,6.03-13.45,13.46-13.46h0Z" fill="#033778"/>
  <path d="M63.99,22.31c.45-.81.16-1.84-.66-2.29h0c-4.73-2.62-10.05-3.99-15.46-4-42.41,1.75-42.41,62.2,0,63.95,17.65.01,31.97-14.29,31.98-31.94,0-5.42-1.37-10.75-4-15.5-.45-.81-1.47-1.11-2.29-.66-.81.45-1.11,1.47-.66,2.29h0c10.67,18.51-3.66,42.82-25.03,42.45-15.79-.02-28.59-12.82-28.61-28.61-.37-21.37,23.93-35.7,42.44-25.03.81.45,1.83.16,2.28-.65h.01Z" fill="#033778"/>
  <path d="M67.27,17.54l.62,8.07-21.2,21.2c-.64.67-.62,1.74.05,2.38.65.62,1.68.62,2.33,0l21.2-21.2,8.07.62c.49.04.97-.14,1.32-.49l12.25-12.25c.65-.67.64-1.74-.03-2.4-.28-.27-.64-.44-1.03-.47l-7.4-.57-.57-7.4c-.09-.93-.91-1.62-1.84-1.53-.39.04-.75.2-1.03.47l-12.25,12.25c-.35.35-.53.83-.49,1.32h0ZM79.8,8.94c.67,7.84-.65,6.46,7.14,7.14l-9.11,9.11-6.63-.51-.51-6.63,9.11-9.11Z" fill="#033778"/>
</svg>