<?xml version="1.0" encoding="UTF-8"?>
<svg id="Capa_1" data-name="Capa 1" xmlns="http://www.w3.org/2000/svg" viewBox="0 0 96 96">
  <path d="M65.26.87c-6.16,0-11.85,2-16.5,5.36-1.81-.44-3.65-.75-5.53-.86-16.38-.92-30.64,11.14-32.48,27.4-.26,2.25-.89,4.26-1.85,5.98l-5.91,10.31c-.7,1.21-.7,2.65,0,3.86.7,1.22,1.96,1.95,3.37,1.95h2.03c1.06,0,1.92.85,1.92,1.9v14.12c0,2.78,2.26,5.04,5.04,5.04h6.86c1.06,0,1.92.86,1.92,1.92v15.71c0,.87.7,1.57,1.57,1.57h29.47c.87,0,1.57-.7,1.57-1.57v-16.51c0-7.18,2.65-14.14,7.41-19.68.37,0,.73.05,1.1.05,15.59,0,28.27-12.68,28.27-28.27S80.85.87,65.26.87ZM53.6,77.04v14.94h-26.33v-14.14c0-2.79-2.27-5.06-5.06-5.06h-6.86c-1.05,0-1.9-.85-1.9-1.9v-14.12c0-2.78-2.27-5.04-5.06-5.04h-2.03c-.39,0-.58-.26-.65-.37-.08-.14-.18-.41,0-.73l5.92-10.32c1.17-2.09,1.92-4.5,2.24-7.17,1.65-14.62,14.44-25.42,29.18-24.63.88.05,1.75.16,2.62.29-5.35,5.15-8.69,12.36-8.69,20.35,0,13.94,10.15,25.53,23.44,27.83-4.41,5.83-6.83,12.85-6.83,20.07h.01ZM65.26,54.27c-.61,0-1.21-.05-1.81-.09-13.01-.94-23.31-11.79-23.31-25.04s11.27-25.13,25.13-25.13,25.13,11.27,25.13,25.13-11.27,25.13-25.13,25.13h0Z" fill="#033778"/>
  <path d="M65.26,12.18c-5.2,0-9.43,4.23-9.43,9.43,0,.87.7,1.57,1.57,1.57s1.57-.7,1.57-1.57c0-3.47,2.82-6.28,6.28-6.28s6.28,2.82,6.28,6.28-2.82,6.28-6.28,6.28c-.87,0-1.57.7-1.57,1.57v4.7c0,.87.7,1.57,1.57,1.57s1.57-.7,1.57-1.57v-3.26c4.45-.75,7.86-4.63,7.86-9.3,0-5.2-4.23-9.43-9.43-9.43h.01Z" fill="#033778"/>
  <path d="M66.13,39.74c-.08-.05-.17-.1-.27-.14-.1-.03-.2-.06-.3-.08-.3-.08-.61-.05-.91.08-.19.08-.36.19-.5.35-.3.28-.46.69-.46,1.1s.16.82.46,1.12c.3.3.69.47,1.1.47s.82-.17,1.12-.47c.3-.3.47-.69.47-1.12s-.17-.82-.47-1.1c-.06-.08-.16-.14-.23-.2h0Z" fill="#033778"/>
</svg>