<?xml version="1.0" encoding="UTF-8"?>
<svg id="Layer_1" data-name="Layer 1" xmlns="http://www.w3.org/2000/svg" viewBox="0 0 96 96">
  <defs>
    <style>
      .cls-1 {
        fill: #033778;
      }
    </style>
  </defs>
  <path class="cls-1" d="M52.75,75.98h0c-7.62-.03-17.24-1.17-19.26-4.26-.45-.69-.25-1.62.44-2.08.69-.45,1.62-.25,2.08.44.62.96,6.35,2.85,16.75,2.9.83,0,1.5.68,1.49,1.51,0,.83-.67,1.49-1.5,1.49Z"/>
  <path class="cls-1" d="M52.74,65.96h0c-3.25-.02-19.5-.38-19.5-5.67s16.24-5.67,19.5-5.68h0c.83,0,1.5.67,1.5,1.49,0,.83-.66,1.5-1.49,1.51-9.66.05-15.2,1.69-16.37,2.68,1.18.99,6.72,2.62,16.37,2.68.83,0,1.5.68,1.49,1.51,0,.83-.68,1.49-1.5,1.49Z"/>
  <path class="cls-1" d="M52.74,65.96h0c-3.25-.02-19.5-.38-19.5-5.67s16.24-5.67,19.5-5.68h0c.83,0,1.5.67,1.5,1.49,0,.83-.66,1.5-1.49,1.51-9.66.05-15.2,1.69-16.37,2.68,1.18.99,6.72,2.62,16.37,2.68.83,0,1.5.68,1.49,1.51,0,.83-.68,1.49-1.5,1.49Z"/>
  <path class="cls-1" d="M52.74,85.99c-.28,0-.56,0-.84-.01h-.09c-2.72-.04-16.26-.48-18.28-4.52-.18-.31-.29-.72-.29-1.15,0-.83.67-1.5,1.5-1.5.77,0,1.4.57,1.49,1.31.8.97,6.09,2.7,15.61,2.86h.12c.3,0,.53,0,.78,0,.83,0,1.5.67,1.5,1.5s-.67,1.5-1.5,1.5Z"/>
  <path class="cls-1" d="M52.75,96h0c-7.62-.03-17.24-1.16-19.25-4.25-.45-.69-.26-1.62.43-2.08.69-.45,1.62-.26,2.08.43.62.96,6.35,2.85,16.75,2.89.83,0,1.5.68,1.49,1.51,0,.83-.67,1.49-1.5,1.49Z"/>
  <path class="cls-1" d="M34.74,92.43c-.83,0-1.5-.67-1.5-1.5v-30.65c0-.83.67-1.5,1.5-1.5s1.5.67,1.5,1.5v30.65c0,.83-.67,1.5-1.5,1.5Z"/>
  <path class="cls-1" d="M51.03,75.99c-.83,0-1.5-.67-1.5-1.5s.7-1.53,1.55-1.5c.25,0,.5,0,.75,0,1.34-.02,2.67-.07,4.12-.16,1.74-.12,3.45-.31,5.07-.56,1.06-.17,2.08-.37,3.01-.59.8-.2,1.62.3,1.81,1.1s-.3,1.62-1.1,1.81c-1.02.25-2.12.47-3.27.65-1.71.26-3.5.46-5.33.58-1.5.09-2.88.14-4.22.16-.29,0-.58,0-.89,0Z"/>
  <path class="cls-1" d="M51.02,65.96c-.82,0-1.5-.67-1.5-1.49,0-.83.66-1.5,1.49-1.51,9.65-.05,15.19-1.69,16.37-2.68-1.17-.99-6.71-2.63-16.37-2.68-.83,0-1.5-.68-1.49-1.51,0-.83.68-1.49,1.5-1.49h0c3.25.02,19.5.38,19.5,5.68s-16.24,5.66-19.5,5.67h0ZM67.57,60.48h0,0Z"/>
  <path class="cls-1" d="M51.02,65.96c-.82,0-1.5-.67-1.5-1.49,0-.83.66-1.5,1.49-1.51,9.65-.05,15.19-1.69,16.37-2.68-1.17-.99-6.71-2.63-16.37-2.68-.83,0-1.5-.68-1.49-1.51,0-.83.68-1.49,1.5-1.49h0c3.25.02,19.5.38,19.5,5.68s-16.24,5.66-19.5,5.67h0ZM67.57,60.48h0,0Z"/>
  <path class="cls-1" d="M51.03,85.99c-.82,0-1.5-.67-1.5-1.49,0-.83.66-1.5,1.49-1.51,4.77-.03,9.2-.47,12.47-1.23.81-.19,1.61.31,1.8,1.12.19.81-.31,1.61-1.12,1.8-3.49.82-8.15,1.28-13.14,1.31h0Z"/>
  <path class="cls-1" d="M51.02,96c-.83,0-1.5-.67-1.5-1.49,0-.83.67-1.5,1.49-1.51,10.4-.04,16.13-1.93,16.75-2.89.45-.69,1.39-.89,2.08-.43.69.45.89,1.38.43,2.08-2.02,3.08-11.63,4.22-19.25,4.25h0Z"/>
  <path class="cls-1" d="M69.03,68.39c-.83,0-1.5-.67-1.5-1.5v-6.61c0-.83.67-1.5,1.5-1.5s1.5.67,1.5,1.5v6.61c0,.83-.67,1.5-1.5,1.5Z"/>
  <path class="cls-1" d="M78.88,96c-9.39,0-17.03-7.64-17.03-17.03s7.64-17.03,17.03-17.03,17.03,7.64,17.03,17.03-7.64,17.03-17.03,17.03ZM78.88,64.93c-7.74,0-14.03,6.29-14.03,14.03s6.29,14.03,14.03,14.03,14.03-6.29,14.03-14.03-6.29-14.03-14.03-14.03Z"/>
  <path class="cls-1" d="M78.88,89.4c-.83,0-1.5-.67-1.5-1.5v-19.33c0-.83.67-1.5,1.5-1.5s1.5.67,1.5,1.5v19.33c0,.83-.67,1.5-1.5,1.5Z"/>
  <path class="cls-1" d="M80.62,84.35h-5.99c-.83,0-1.5-.67-1.5-1.5s.67-1.5,1.5-1.5h5.99c.29,0,1.74-.05,1.74-1.08,0-.8-1.09-.92-1.74-.92h-4.17c-2.24,0-4.06-1.73-4.06-3.87s1.82-3.87,4.06-3.87h5.62c.83,0,1.5.67,1.5,1.5s-.67,1.5-1.5,1.5h-5.62c-.58,0-1.06.39-1.06.87s.48.87,1.06.87h4.17c2.84,0,4.74,1.58,4.74,3.92s-1.95,4.08-4.74,4.08Z"/>
  <path class="cls-1" d="M34.61,75.16C15.25,73.58.09,57.1.09,37.65.09,16.89,16.98,0,37.75,0s37.65,16.89,37.65,37.65c0,7.84-2.38,15.35-6.89,21.72l-2.45-1.73c4.15-5.86,6.34-12.77,6.34-19.99,0-19.11-15.54-34.65-34.65-34.65S3.09,18.54,3.09,37.65c0,17.9,13.96,33.06,31.77,34.52l-.24,2.99Z"/>
  <rect class="cls-1" x="36.97" y="25.84" width="23.2" height="3" transform="translate(-5.15 42.2) rotate(-44.84)"/>
  <rect class="cls-1" x="24.5" y="25.97" width="3" height="16.09" transform="translate(-15.45 44.77) rotate(-67.15)"/>
  <path class="cls-1" d="M37.35,44.01c-3.11,0-5.63-2.53-5.63-5.63s2.53-5.63,5.63-5.63,5.63,2.53,5.63,5.63-2.53,5.63-5.63,5.63ZM37.35,35.74c-1.45,0-2.63,1.18-2.63,2.63s1.18,2.63,2.63,2.63,2.63-1.18,2.63-2.63-1.18-2.63-2.63-2.63Z"/>
</svg>