<?xml version="1.0" encoding="UTF-8"?>
<svg id="Layer_1" data-name="Layer 1" xmlns="http://www.w3.org/2000/svg" viewBox="0 0 96 96">
  <defs>
    <style>
      .cls-1 {
        fill: #223c75;
      }
    </style>
  </defs>
  <path class="cls-1" d="M73.07,16.98h-9.14l-1.96-8.1,1.97-7.82h9.12l1.97,7.82-1.96,8.1ZM66.28,13.98h4.42l1.23-5.08-1.22-4.83h-4.45l-1.22,4.83,1.23,5.08Z"/>
  <rect class="cls-1" x="66.9" y="15.48" width="3" height="28.87"/>
  <path class="cls-1" d="M68.67,96c-7.36,0-13.34-5.99-13.34-13.34v-22.52l1.48-.02c1.64-.02,2.97-1.36,2.97-2.99s-1.31-2.98-2.97-3l-1.48-.02v-11.26h26.7v11.21l-1.41.09c-1.56.1-2.79,1.41-2.79,2.99s1.23,2.88,2.79,2.97l1.41.09v22.46c0,7.36-5.99,13.34-13.36,13.34ZM58.32,62.92v19.74c0,5.7,4.64,10.34,10.34,10.34s10.36-4.64,10.36-10.34v-19.81c-2.44-.76-4.2-3.04-4.2-5.71s1.76-4.96,4.2-5.72v-5.56h-20.7v5.49c2.56.69,4.45,3.04,4.45,5.79s-1.9,5.09-4.45,5.78Z"/>
  <rect class="cls-1" x="66.73" y="64.83" width="3" height="20.67"/>
  <path class="cls-1" d="M28.86,95.33c-7.6,0-13.79-6.19-13.79-13.79,0-3.34,1.14-26.21,2.95-42.25-7.31-3.96-11.97-11.74-11.97-20.09C6.05,11.7,9.76,4.67,15.96.4c.5-.34,1.14-.38,1.68-.1.54.28.87.83.87,1.44v15l4.52,8.28-2.63,1.44-4.89-8.95V4.58c-4.08,3.73-6.45,9.02-6.45,14.62,0,7.69,4.3,14.54,11.23,17.88l.96.46-.12,1.06c-1.87,15.96-3.05,39.56-3.05,42.93,0,5.95,4.84,10.79,10.79,10.79s10.79-4.84,10.79-10.79c0-3.34-1.17-26.86-3.02-42.94l-.12-1.06.96-.46c6.92-3.35,11.22-10.21,11.22-17.88,0-5.57-2.35-10.84-6.4-14.57v13.28l-5.53,7.23-2.38-1.82,4.91-6.43V1.77c0-.6.33-1.16.87-1.44.54-.28,1.18-.25,1.68.1,6.17,4.27,9.85,11.29,9.85,18.77,0,8.48-4.55,16.08-11.96,20.09,1.8,16.14,2.92,38.94,2.92,42.25,0,7.6-6.19,13.79-13.79,13.79Z"/>
  <path class="cls-1" d="M28.83,87.71c-3.66,0-6.64-2.98-6.64-6.64s2.98-6.64,6.64-6.64,6.64,2.98,6.64,6.64-2.98,6.64-6.64,6.64ZM28.83,77.43c-2.01,0-3.64,1.63-3.64,3.64s1.63,3.64,3.64,3.64,3.64-1.63,3.64-3.64-1.63-3.64-3.64-3.64Z"/>
  <polygon class="cls-1" points="34.98 27.45 20.93 27.45 15.5 17.51 15.5 1.5 18.5 1.5 18.5 16.74 22.71 24.45 33.5 24.45 39.28 16.89 39.28 1.53 42.28 1.53 42.28 17.9 34.98 27.45"/>
</svg>