<?xml version="1.0" encoding="UTF-8"?>
<svg id="Layer_1" data-name="Layer 1" xmlns="http://www.w3.org/2000/svg" viewBox="0 0 96 96">
  <path d="M76.27,49.05c-1.14,1.52-2.67,3.05-4.38,4.19h-25.13c-1.71-1.14-3.24-2.47-4.38-4.19-.57-.76-1.9-.95-2.67-.38s-.95,1.9-.38,2.67c1.52,2.09,3.62,4,5.9,5.52.38.19.57.38.95.38h26.46c.38,0,.76-.19.95-.38,2.28-1.52,4.19-3.24,5.71-5.52.57-.76.38-2.09-.38-2.67s-1.9-.38-2.67.38h0Z" fill="#033778"/>
  <path d="M95.5,38.2c0-8.57-3.24-16.56-9.14-23.04-6.47-6.85-15.23-10.66-24.56-10.66-1.14,0-1.9.76-1.9,1.9v30.08H26.96v-13.52c0-6.85-5.52-12.18-12.18-12.18h-.95c-.76-2.86-3.43-4.95-6.47-4.95-3.81,0-6.85,3.05-6.85,6.85s3.05,6.85,6.85,6.85c3.05,0,5.71-2.09,6.47-4.95h.95c4.76,0,8.38,3.81,8.38,8.38v21.7c.57,11.42,7.81,21.13,17.9,25.7v5.14c-3.62.95-6.28,4-6.28,7.81,0,4.57,3.62,8.19,8.19,8.19s8.19-3.62,8.19-8.19c0-3.81-2.67-7.04-6.28-7.81v-3.81c3.05.95,6.09,1.33,9.33,1.33h9.9c3.24,0,6.47-.57,9.33-1.33v3.81c-3.62.95-6.28,4-6.28,7.81,0,4.57,3.62,8.19,8.19,8.19s8.19-3.62,8.19-8.19c0-3.81-2.67-7.04-6.28-7.81v-5.14c10.09-4.57,17.32-14.28,17.9-25.89v-4.19c.38-.19.38-1.9.38-2.09h0ZM7.16,15.54c-1.71,0-3.05-1.33-3.05-3.05s1.33-3.05,3.05-3.05,3.05,1.33,3.05,3.05-1.33,3.05-3.05,3.05ZM47.33,83.51c0,2.47-1.9,4.38-4.38,4.38s-4.38-1.9-4.38-4.38,1.9-4.38,4.38-4.38,4.38,1.9,4.38,4.38ZM79.89,83.51c0,2.47-1.9,4.38-4.38,4.38s-4.38-1.9-4.38-4.38c0-2.28,1.9-4.38,4.38-4.38s4.38,1.9,4.38,4.38ZM83.51,17.82c4.95,5.14,7.62,11.61,8,18.66h-27.99V8.5c7.81.38,14.66,3.62,19.99,9.33ZM64.28,69.42h-9.9c-14.28,0-26.46-10.85-27.41-24.94v-4.38h64.73v4.19c-.76,14.28-12.95,25.13-27.41,25.13Z" fill="#033778"/>
</svg>