<?xml version="1.0" encoding="UTF-8"?>
<svg id="Layer_1" data-name="Layer 1" xmlns="http://www.w3.org/2000/svg" viewBox="0 0 96 96">
  <defs>
    <style>
      .cls-1 {
        fill: #033778;
      }
    </style>
  </defs>
  <path class="cls-1" d="M77.83,96H30.85c-2.41,0-4.37-1.96-4.37-4.37v-36.78h3v36.78c0,.75.61,1.37,1.37,1.37h46.98c.75,0,1.37-.61,1.37-1.37V4.37c0-.75-.61-1.37-1.37-1.37H30.85c-.75,0-1.37.61-1.37,1.37v19.48h-3V4.37C26.48,1.96,28.44,0,30.85,0h46.98c2.41,0,4.37,1.96,4.37,4.37v87.26c0,2.41-1.96,4.37-4.37,4.37Z"/>
  <rect class="cls-1" x="67.66" y="6.23" width="12.84" height="3"/>
  <path class="cls-1" d="M41.34,9.23h-13.36c-.83,0-1.5-.67-1.5-1.5s.67-1.5,1.5-1.5h13.36c.83,0,1.5.67,1.5,1.5s-.67,1.5-1.5,1.5Z"/>
  <path class="cls-1" d="M61.98,15.33h-14.96c-2.05,0-3.92-1.12-4.88-2.92l-2.12-3.97c-.39-.73-.11-1.64.62-2.03.73-.39,1.64-.11,2.03.62l2.12,3.97c.44.82,1.3,1.34,2.23,1.34h14.96c.94,0,1.79-.51,2.22-1.33l2.13-3.98c.39-.73,1.3-1.01,2.03-.61.73.39,1,1.3.61,2.03l-2.13,3.97c-.95,1.8-2.82,2.92-4.87,2.92Z"/>
  <path class="cls-1" d="M59.69,66.67c-.37,0-.73-.13-1.01-.39l-10.91-9.93h-28.9c-2.8,0-5.07-2.28-5.07-5.07v-23.86c0-2.8,2.28-5.07,5.07-5.07h43.18c2.8,0,5.08,2.28,5.08,5.07v23.86c0,2.8-2.28,5.07-5.08,5.07h-.87v8.82c0,.59-.35,1.13-.89,1.37-.19.09-.4.13-.61.13ZM18.87,25.35c-1.14,0-2.07.93-2.07,2.07v23.86c0,1.14.93,2.07,2.07,2.07h29.48c.37,0,.74.14,1.01.39l8.83,8.03v-6.92c0-.83.67-1.5,1.5-1.5h2.36c1.15,0,2.08-.93,2.08-2.07v-23.86c0-1.14-.93-2.07-2.08-2.07H18.87Z"/>
  <path class="cls-1" d="M45.91,81.69h-10.92v-10.92h10.92v10.92ZM37.98,78.69h4.92v-4.92h-4.92v4.92Z"/>
  <path class="cls-1" d="M59.84,81.69h-10.92v-10.92h10.92v10.92ZM51.91,78.69h4.92v-4.92h-4.92v4.92Z"/>
  <path class="cls-1" d="M73.7,81.69h-10.92v-10.92h10.92v10.92ZM65.78,78.69h4.92v-4.92h-4.92v4.92Z"/>
  <rect class="cls-1" x="27.98" y="87.9" width="52.72" height="3"/>
  <path class="cls-1" d="M32.61,50.07h-4.76c-2.55,0-4.62-2.07-4.62-4.62v-16.41c0-.83.67-1.5,1.5-1.5s1.5.67,1.5,1.5v16.41c0,.9.73,1.62,1.62,1.62h4.76c.9,0,1.62-.73,1.62-1.62v-16.41c0-.83.67-1.5,1.5-1.5s1.5.67,1.5,1.5v16.41c0,2.55-2.07,4.62-4.62,4.62Z"/>
  <path class="cls-1" d="M55.53,50.07c-.52,0-1.03-.27-1.3-.76l-11.12-19.53c-.41-.72-.16-1.64.56-2.05.72-.41,1.64-.16,2.05.56l11.12,19.53c.41.72.16,1.64-.56,2.05-.23.13-.49.2-.74.2Z"/>
  <path class="cls-1" d="M44.4,50.07c-.26,0-.51-.07-.75-.2-.72-.42-.96-1.33-.55-2.05l11.32-19.53c.42-.72,1.34-.96,2.05-.55.72.42.96,1.33.55,2.05l-11.32,19.53c-.28.48-.78.75-1.3.75Z"/>
  <rect class="cls-1" x="53.79" y="5.94" width="8.13" height="3"/>
  <rect class="cls-1" x="47.37" y="5.94" width="2.46" height="3"/>
</svg>