<?xml version="1.0" encoding="UTF-8"?>
<svg id="Layer_1" data-name="Layer 1" xmlns="http://www.w3.org/2000/svg" viewBox="0 0 96 96">
  <defs>
    <style>
      .cls-1 {
        fill: #033778;
      }
    </style>
  </defs>
  <path class="cls-1" d="M50.19,92c-2.09,0-4.19-.35-6.21-1.07l-24.24-8.63c-2.03-.72-4.24-.67-6.23.15l-13.51,5.57v-25.39l18.23-6.34c5.37-1.87,11.18-2.44,16.81-1.66l26.14,3.62c3.43.47,5.87,3.55,5.56,7-.06.71-.24,1.38-.51,2.01l19-12.38c2.93-1.91,6.84-1.34,9.1,1.32,1.27,1.5,1.85,3.47,1.6,5.42s-1.33,3.7-2.94,4.82l-32.24,22.28c-3.14,2.17-6.84,3.29-10.56,3.29ZM16.82,78.8c1.32,0,2.65.23,3.92.68l24.24,8.63c4.7,1.67,9.96.98,14.06-1.86l32.24-22.28c.93-.64,1.53-1.62,1.67-2.74.15-1.12-.18-2.22-.91-3.08-1.29-1.51-3.51-1.84-5.18-.75l-24.93,16.25c-3.35,2.18-7.67,2.17-11.01-.02l-2.46-1.62.32-.48-11.35.36-.1-3,23.07-.74c1.75-.06,3.19-1.42,3.35-3.16.17-1.85-1.14-3.5-2.98-3.76l-26.14-3.62c-5.16-.71-10.49-.19-15.42,1.53l-16.22,5.64v18.78l9.36-3.86c1.43-.59,2.94-.89,4.46-.89ZM53.04,71.38c2.26,1.25,5.04,1.18,7.23-.23l-7.23.23Z"/>
  <path class="cls-1" d="M65.31,63.36l-1.54-2.57,11.46-6.87c3.07-1.84,7.04-1.09,9.23,1.74l.71.91-2.37,1.83-.71-.91c-1.26-1.63-3.54-2.06-5.31-1l-11.46,6.87Z"/>
  <path class="cls-1" d="M54.79,51.73l-1.03-.98c-.2-.19-20.47-19.46-21.22-20.36-2.78-3.22-4.14-7.35-3.82-11.6.32-4.26,2.27-8.13,5.51-10.92,5.89-5.08,14.66-5.1,20.57-.24,5.9-4.86,14.67-4.84,20.56.24,6.68,5.75,7.43,15.86,1.68,22.53-.68.79-17.79,17.08-21.21,20.34l-1.03.98ZM44.64,7.02c-3.02,0-6.04,1.04-8.46,3.12-2.63,2.26-4.22,5.41-4.47,8.87-.26,3.46.85,6.81,3.11,9.43.73.8,14.23,13.69,19.97,19.14,8.05-7.67,19.34-18.45,19.98-19.15,4.66-5.41,4.05-13.62-1.38-18.29-5.08-4.38-12.79-4.13-17.55.58l-1.05,1.04-1.05-1.04c-2.49-2.46-5.79-3.7-9.1-3.7Z"/>
</svg>