<?xml version="1.0" encoding="UTF-8"?>
<svg id="Layer_1" data-name="Layer 1" xmlns="http://www.w3.org/2000/svg" viewBox="0 0 96 96">
  <defs>
    <style>
      .cls-1 {
        fill: #033778;
      }
    </style>
  </defs>
  <path class="cls-1" d="M5.14,67.09c-.88,0-1.6.72-1.6,1.6v2.96c0,.88.72,1.6,1.6,1.6s1.6-.72,1.6-1.6v-2.96c0-.88-.72-1.6-1.6-1.6Z"/>
  <path class="cls-1" d="M9.57,65.61c-.88,0-1.6.72-1.6,1.6v5.91c0,.88.72,1.6,1.6,1.6s1.6-.72,1.6-1.6v-5.91c0-.88-.72-1.6-1.6-1.6Z"/>
  <path class="cls-1" d="M27.31,65.61c-.88,0-1.6.72-1.6,1.6v5.91c0,.88.72,1.6,1.6,1.6s1.6-.72,1.6-1.6v-5.91c0-.88-.72-1.6-1.6-1.6Z"/>
  <path class="cls-1" d="M15.49,62.65c-.88,0-1.6.72-1.6,1.6v11.82c0,.88.72,1.6,1.6,1.6s1.6-.72,1.6-1.6v-11.82c0-.88-.72-1.6-1.6-1.6Z"/>
  <path class="cls-1" d="M21.4,62.65c-.88,0-1.6.72-1.6,1.6v11.82c0,.88.72,1.6,1.6,1.6s1.6-.72,1.6-1.6v-11.82c0-.88-.72-1.6-1.6-1.6Z"/>
  <path class="cls-1" d="M33.22,59.7c-.88,0-1.6.72-1.6,1.6v17.74c0,.88.72,1.6,1.6,1.6s1.6-.72,1.6-1.6v-17.74c0-.88-.72-1.6-1.6-1.6Z"/>
  <path class="cls-1" d="M39.13,56.74c-.88,0-1.6.72-1.6,1.6v23.65c0,.88.72,1.6,1.6,1.6s1.6-.72,1.6-1.6v-23.65c0-.88-.72-1.6-1.6-1.6Z"/>
  <path class="cls-1" d="M45.04,47.88c-.88,0-1.6.72-1.6,1.6v41.38c0,.88.72,1.6,1.6,1.6s1.6-.72,1.6-1.6v-41.38c0-.88-.72-1.6-1.6-1.6Z"/>
  <path class="cls-1" d="M90.86,67.09c-.88,0-1.6.72-1.6,1.6v2.96c0,.88.72,1.6,1.6,1.6s1.6-.72,1.6-1.6v-2.96c0-.88-.72-1.6-1.6-1.6Z"/>
  <path class="cls-1" d="M86.43,65.61c-.88,0-1.6.72-1.6,1.6v5.91c0,.88.72,1.6,1.6,1.6s1.6-.72,1.6-1.6v-5.91c0-.88-.72-1.6-1.6-1.6Z"/>
  <path class="cls-1" d="M68.69,65.61c-.88,0-1.6.72-1.6,1.6v5.91c0,.88.72,1.6,1.6,1.6s1.6-.72,1.6-1.6v-5.91c0-.88-.72-1.6-1.6-1.6Z"/>
  <path class="cls-1" d="M80.51,62.65c-.88,0-1.6.72-1.6,1.6v11.82c0,.88.72,1.6,1.6,1.6s1.6-.72,1.6-1.6v-11.82c0-.88-.72-1.6-1.6-1.6Z"/>
  <path class="cls-1" d="M74.6,62.65c-.88,0-1.6.72-1.6,1.6v11.82c0,.88.72,1.6,1.6,1.6s1.6-.72,1.6-1.6v-11.82c0-.88-.72-1.6-1.6-1.6Z"/>
  <path class="cls-1" d="M62.78,59.7c-.88,0-1.6.72-1.6,1.6v17.74c0,.88.72,1.6,1.6,1.6s1.6-.72,1.6-1.6v-17.74c0-.88-.72-1.6-1.6-1.6Z"/>
  <path class="cls-1" d="M56.87,56.74c-.88,0-1.6.72-1.6,1.6v23.65c0,.88.72,1.6,1.6,1.6s1.6-.72,1.6-1.6v-23.65c0-.88-.72-1.6-1.6-1.6Z"/>
  <path class="cls-1" d="M50.96,47.88c-.88,0-1.6.72-1.6,1.6v41.38c0,.88.72,1.6,1.6,1.6s1.6-.72,1.6-1.6v-41.38c0-.88-.72-1.6-1.6-1.6Z"/>
  <path class="cls-1" d="M83.47,3.54h-29.56c-4.95,0-8.99,4.04-8.99,8.99v20.69c0,4.95,4.04,8.99,8.99,8.99h2.43l-1.07,8.54c-.08.63.22,1.25.78,1.58.25.15.53.22.81.22.33,0,.66-.1.94-.31l13.8-10.04h11.86c4.95,0,8.99-4.04,8.99-8.99V12.53c0-4.95-4.04-8.99-8.99-8.99ZM59.94,39.33c.08-.57-.16-1.14-.62-1.49-.28-.22-.63-.33-.97-.33-.21,0-.43.04-.63.13-.53.23-.9.72-.96,1.29v.07h-2.84c-3.19,0-5.78-2.6-5.79-5.79V12.53c0-3.19,2.6-5.78,5.79-5.79h29.56c3.19,0,5.78,2.6,5.79,5.79v20.69c0,3.19-2.6,5.78-5.79,5.79h-8.77c-.02-.29-.11-.58-.28-.82-.25-.35-.62-.58-1.05-.64-.42-.06-.85.04-1.19.29l-13.26,9.65,1.02-8.15Z"/>
  <path class="cls-1" d="M56.87,18.32c-2.51,0-4.56,2.05-4.56,4.56s2.04,4.56,4.56,4.56,4.56-2.05,4.56-4.56c0-2.51-2.05-4.56-4.56-4.56ZM58.22,22.88c0,.75-.61,1.35-1.35,1.35-.75,0-1.35-.61-1.35-1.35s.61-1.35,1.35-1.35,1.35.61,1.35,1.35Z"/>
  <path class="cls-1" d="M68.69,18.32c-2.51,0-4.56,2.05-4.56,4.56s2.04,4.56,4.56,4.56,4.56-2.05,4.56-4.56c0-2.51-2.05-4.56-4.56-4.56ZM70.04,22.88c0,.75-.61,1.35-1.35,1.35-.75,0-1.35-.61-1.35-1.35s.61-1.35,1.35-1.35,1.35.61,1.35,1.35Z"/>
  <path class="cls-1" d="M80.51,27.43c2.51,0,4.56-2.05,4.56-4.56,0-2.51-2.05-4.56-4.56-4.56-2.51,0-4.56,2.05-4.56,4.56s2.04,4.56,4.56,4.56ZM79.16,22.88c0-.75.61-1.35,1.35-1.35s1.35.61,1.35,1.35c0,.75-.61,1.35-1.35,1.35-.75,0-1.35-.61-1.35-1.35Z"/>
</svg>