<?xml version="1.0" encoding="UTF-8"?>
<svg id="Layer_1" data-name="Layer 1" xmlns="http://www.w3.org/2000/svg" viewBox="0 0 96 96">
  <path d="M24.31,26.38c3.08,0,5.59-2.6,5.59-5.79s-2.51-5.79-5.59-5.79-5.59,2.6-5.59,5.79,2.51,5.79,5.59,5.79ZM24.31,17.89c1.38,0,2.5,1.21,2.5,2.7s-1.12,2.7-2.5,2.7-2.5-1.21-2.5-2.7,1.12-2.7,2.5-2.7Z" fill="#033778"/>
  <path d="M37.47,26.38c3.08,0,5.59-2.6,5.59-5.79s-2.51-5.79-5.59-5.79-5.59,2.6-5.59,5.79,2.51,5.79,5.59,5.79ZM37.47,17.89c1.38,0,2.5,1.21,2.5,2.7s-1.12,2.7-2.5,2.7-2.5-1.21-2.5-2.7,1.12-2.7,2.5-2.7Z" fill="#033778"/>
  <path d="M11.15,26.38c3.08,0,5.59-2.6,5.59-5.79s-2.51-5.79-5.59-5.79-5.59,2.6-5.59,5.79,2.51,5.79,5.59,5.79ZM11.15,17.89c1.38,0,2.5,1.21,2.5,2.7s-1.12,2.7-2.5,2.7-2.5-1.21-2.5-2.7,1.12-2.7,2.5-2.7Z" fill="#033778"/>
  <path d="M64.71,62.62c.51,0,.9-.13,1.02-.57l.88-3.04h5.31l.88,3.04c.12.44.51.58,1.02.58.81,0,1.9-.54,1.9-1.26,0-.08-.02-.16-.05-.24l-4.47-14.58c-.21-.69-1.07-1.02-1.95-1.02s-1.72.32-1.92,1.02l-4.47,14.57c-.02.08-.04.15-.05.23,0,.74,1.09,1.25,1.9,1.25ZM69.25,49.38l2.02,7.11h-4.03l2.02-7.11Z" fill="#033778"/>
  <path d="M81.11,62.62c.74,0,1.45-.32,1.45-.95v-15.06c0-.65-.71-.93-1.45-.93s-1.45.28-1.45.93v15.06c0,.63.68.95,1.45.95Z" fill="#033778"/>
  <path d="M93.96,36.61h-2.32v-19.2c0-4.36-3.42-7.83-7.62-7.83H8.12c-4.2,0-7.62,3.46-7.62,7.83v61.19c0,4.36,3.42,7.83,7.62,7.83h75.9c4.2,0,7.62-3.46,7.62-7.83v-7.62h2.32c.85,0,1.55-.7,1.54-1.55v-31.28c0-.41-.16-.8-.45-1.09-.29-.29-.68-.45-1.09-.45ZM8.12,12.66h75.9c2.5,0,4.53,2.08,4.53,4.74v10.9H3.59v-10.9c0-2.66,2.03-4.74,4.53-4.74ZM88.55,78.6c0,2.66-2.03,4.74-4.53,4.74H8.12c-2.5,0-4.53-2.08-4.53-4.74V31.39h84.96v5.21h-36.67c-.86,0-1.55.68-1.57,1.54v31.28c0,.86.71,1.55,1.57,1.55h6.35v7.53c0,.58.32,1.11.83,1.37.51.26,1.13.22,1.6-.12l12.2-8.79h15.68v7.62ZM92.41,67.89h-20.04c-.32,0-.63.1-.9.29l-10.15,7.32v-6.07c0-.85-.71-1.54-1.56-1.54h-6.36v-28.19h39v28.19Z" fill="#033778"/>
</svg>