<?xml version="1.0" encoding="UTF-8"?>
<svg id="Layer_1" data-name="Layer 1" xmlns="http://www.w3.org/2000/svg" viewBox="0 0 96 96">
  <path d="M7.81,46.76c.84,0,1.53-.68,1.53-1.53v-26.53c0-2.54,2.07-4.6,4.6-4.6h16.52l-1.86,1.86c-.29.29-.45.67-.45,1.08s.16.79.45,1.08c.58.58,1.58.58,2.16,0l4.47-4.47c.29-.29.45-.67.45-1.08s-.16-.79-.45-1.08l-4.47-4.47c-.59-.59-1.56-.59-2.16,0-.29.29-.45.67-.45,1.08s.16.79.45,1.08l1.86,1.86H13.94c-4.22,0-7.66,3.43-7.66,7.66v26.53c0,.84.68,1.53,1.53,1.53Z" fill="#033778"/>
  <path d="M93.97,11.04h-7.8V2.03c0-.84-.68-1.53-1.53-1.53h-31.82c-.84,0-1.53.68-1.53,1.53v9.02h-7.79c-.84,0-1.53.68-1.53,1.53v35.46c0,.84.68,1.53,1.53,1.53h50.47c.84,0,1.53-.68,1.53-1.53V12.57c0-.84-.68-1.53-1.53-1.53ZM45.03,46.51V14.1h6.27v32.41h-6.27ZM71.42,35.38v11.13h-5.36v-11.13h5.36ZM72.95,32.33h-8.41c-.84,0-1.53.68-1.53,1.53v12.65h-8.66V3.55h28.77v42.95h-8.66v-12.65c0-.84-.68-1.53-1.53-1.53ZM86.18,46.51V14.1h6.27v32.41h-6.27Z" fill="#033778"/>
  <path d="M79.44,27.03v-6.59c0-.84-.68-1.53-1.53-1.53h-18.64c-.84,0-1.53.68-1.53,1.53v6.59c0,.84.68,1.53,1.53,1.53h18.64c.84,0,1.53-.68,1.53-1.53ZM76.39,21.96v3.54h-15.59v-3.54h15.59Z" fill="#033778"/>
  <path d="M24.49,49.61c-.54-.39-1.26-.39-1.79,0L1.13,65.28c-.54.39-.76,1.07-.55,1.7.2.63.79,1.05,1.45,1.05h2.85v25.93c0,.84.68,1.53,1.53,1.53h34.37c.84,0,1.53-.68,1.53-1.53v-25.93h2.85c.66,0,1.25-.42,1.45-1.05.2-.63-.02-1.32-.55-1.7l-21.56-15.67ZM29.98,79.78c-.87-.22-1.75-.39-2.64-.52,1.56-1.46,2.48-3.71,2.48-6.14,0-3.9-2.45-6.42-6.23-6.42s-6.23,2.52-6.23,6.42c0,2.43.91,4.68,2.47,6.13-.89.13-1.77.31-2.64.53-3.54.91-5.58,2.99-5.58,5.71v6.96h-3.67v-25.93c0-.75-.54-1.37-1.24-1.5l16.9-12.28,16.9,12.28c-.71.13-1.24.75-1.24,1.5v25.93h-3.67v-6.96c0-2.75-2.04-4.83-5.59-5.72ZM23.59,69.74c2.11,0,3.18,1.13,3.18,3.37,0,2.53-1.46,4.66-3.18,4.66s-3.18-2.13-3.18-4.66c0-2.24,1.07-3.37,3.18-3.37ZM14.66,85.49c0-1.58,1.79-2.37,3.29-2.76,3.68-.95,7.48-.94,11.31,0,1.22.3,3.27,1.06,3.27,2.75v6.96H14.66v-6.96Z" fill="#033778"/>
  <path d="M59.27,16.51h18.64c.84,0,1.53-.68,1.53-1.53v-6.59c0-.84-.68-1.53-1.53-1.53h-18.64c-.84,0-1.53.68-1.53,1.53v6.59c0,.84.68,1.53,1.53,1.53ZM60.8,13.46v-3.54h15.59v3.54h-15.59Z" fill="#033778"/>
  <path d="M84.65,54.59c-.84,0-1.53.68-1.53,1.53v20.09c0,2.54-2.07,4.6-4.6,4.6h-23.8l1.86-1.86c.29-.29.45-.67.45-1.08s-.16-.79-.45-1.08c-.59-.59-1.56-.59-2.16,0l-4.47,4.47c-.59.59-.59,1.56,0,2.16l4.47,4.47c.29.29.67.45,1.08.45s.79-.16,1.08-.45c.29-.29.45-.67.45-1.08s-.16-.79-.45-1.08l-1.86-1.86h23.8c4.22,0,7.65-3.43,7.65-7.66v-20.09c0-.84-.68-1.53-1.53-1.53Z" fill="#033778"/>
</svg>