<?xml version="1.0" encoding="UTF-8"?>
<svg id="Layer_1" data-name="Layer 1" xmlns="http://www.w3.org/2000/svg" viewBox="0 0 96 96">
  <defs>
    <style>
      .cls-1, .cls-2 {
        stroke: #033778;
      }

      .cls-1, .cls-2, .cls-3 {
        fill: none;
        stroke-width: 3px;
      }

      .cls-1, .cls-3 {
        stroke-miterlimit: 10;
      }

      .cls-2 {
        stroke-linejoin: round;
      }

      .cls-3 {
        stroke: #223c75;
      }
    </style>
  </defs>
  <rect class="cls-1" x="18.92" y="1.61" width="30.8" height="41.85" rx="14.17" ry="14.17"/>
  <path class="cls-2" d="M18.92,18.55c6.41-.44,15.58-1.95,20.98-5.59,2.3,1.72,6.36,4.35,9.82,5.15"/>
  <path class="cls-2" d="M27.76,42.07v6.54c0,.25,0,.49.04.74.17,1.53.87,2.9,1.89,3.94,1.2,1.19,2.85,1.93,4.68,1.93,3.39,0,6.19-2.56,6.56-5.85.04-.25.05-.5.05-.76v-6.58"/>
  <path class="cls-2" d="M50.38,83.36H4.21v-15.52c0-6.43,4.14-12.13,10.25-14.14l13.34-4.36c.17,1.53.87,2.9,1.9,3.94,1.2,1.19,2.85,1.93,4.67,1.93,3.4,0,6.19-2.55,6.57-5.85l7.52,2.49"/>
  <line class="cls-2" x1="17.42" y1="83.66" x2="17.42" y2="64.13"/>
  <rect class="cls-3" x="58.75" y="14.24" width="33.04" height="22.05" rx="5.8" ry="5.8"/>
  <rect class="cls-3" x="58.75" y="43.29" width="33.04" height="22.05" rx="5.8" ry="5.8"/>
  <rect class="cls-3" x="58.75" y="72.34" width="33.04" height="22.05" rx="5.8" ry="5.8"/>
  <line class="cls-3" x1="75.27" y1="35.03" x2="75.27" y2="42.03"/>
  <line class="cls-3" x1="75.27" y1="65.34" x2="75.27" y2="71.42"/>
  <polyline class="cls-3" points="68.01 25.32 73.59 30.17 82.53 20.36"/>
  <circle class="cls-3" cx="75.27" cy="54.59" r="6.36"/>
  <line class="cls-3" x1="75.27" y1="48.62" x2="75.27" y2="60.06"/>
  <line class="cls-3" x1="65.93" y1="54.59" x2="84.61" y2="54.59"/>
  <line class="cls-3" x1="65.56" y1="83.64" x2="68.57" y2="83.64"/>
  <line class="cls-3" x1="65.56" y1="83.64" x2="68.57" y2="83.64"/>
  <line class="cls-3" x1="73.56" y1="83.64" x2="76.57" y2="83.64"/>
  <line class="cls-3" x1="81.64" y1="83.64" x2="84.65" y2="83.64"/>
</svg>