<?xml version="1.0" encoding="UTF-8"?>
<svg id="Capa_1" data-name="Capa 1" xmlns="http://www.w3.org/2000/svg" viewBox="0 0 96 96">
  <defs>
    <style>
      .cls-1 {
        fill: #033778;
      }
    </style>
  </defs>
  <path class="cls-1" d="M2.57,50.68c0-1.77,0-3.55,0-5.32.14-1.17.25-2.34.42-3.5,1.49-10.29,5.93-19.11,13.37-26.36,6.75-6.57,14.79-10.65,24.09-12.26,1.69-.29,3.4-.34,5.08-.66h4.97c.23.18.51.13.77.15,4.82.31,9.46,1.4,13.92,3.24,18.73,7.71,30.38,26.95,27.94,47.35-1.15,9.61-4.96,18.03-11.46,25.15-8.26,9.04-18.57,14.03-30.82,14.86-8.06.55-15.7-1.03-22.93-4.6-6.31-3.11-11.59-7.49-15.89-13.07-4.53-5.87-7.44-12.45-8.73-19.74-.31-1.74-.48-3.5-.71-5.25ZM15.1,46.44c2.9,0,5.79,0,8.69,0,.51,0,.78-.04.81-.69.24-6.61,1.55-13,4.01-19.14.21-.52.14-.75-.41-.95-3.91-1.39-7.61-3.21-11.1-5.45-.47-.3-.72-.24-1.08.19-6.2,7.28-9.59,15.7-10.24,25.23-.05.71.17.83.81.82,2.84-.03,5.67-.01,8.51-.01ZM80.81,46.44c2.9,0,5.79-.02,8.69.01.65,0,.79-.19.73-.81-.18-2-.38-4-.78-5.97-1.48-7.2-4.62-13.6-9.38-19.2-.46-.54-.75-.52-1.29-.18-3.4,2.17-6.99,3.94-10.78,5.3-.69.25-.82.46-.54,1.17,2.41,6.06,3.71,12.37,3.95,18.89.03.71.27.81.89.8,2.84-.03,5.67-.01,8.51-.01ZM15.17,49.59c-2.9,0-5.8.01-8.69-.01-.59,0-.75.16-.7.75.17,2.06.39,4.12.81,6.15,1.41,6.78,4.31,12.84,8.64,18.24.43.54.69.32,1.07.07,3.54-2.34,7.29-4.26,11.26-5.74.64-.24.75-.48.51-1.13-2.1-5.67-3.24-11.53-3.46-17.57-.02-.63-.23-.78-.82-.77-2.87.03-5.74.01-8.6.01ZM80.84,49.59c-2.87,0-5.74.02-8.6-.01-.6,0-.81.14-.82.78-.03,1.24-.13,2.48-.25,3.71-.49,4.81-1.56,9.49-3.27,14.02-.19.5-.1.7.41.89,4.06,1.51,7.89,3.46,11.5,5.85.4.27.63.33.99-.12,5.72-7.14,8.86-15.26,9.45-24.38.04-.59-.12-.75-.7-.75-2.9.03-5.8.01-8.69.01ZM37.1,46.44c2.84,0,5.68-.02,8.51.02.67,0,.83-.18.83-.84-.03-5.14-.04-10.29,0-15.43,0-.87-.27-1.09-1.07-1.11-4.36-.13-8.63-.84-12.83-2.01-.56-.15-.76,0-.96.51-2.31,5.82-3.62,11.84-3.87,18.1-.03.65.17.79.78.78,2.87-.03,5.73-.01,8.6-.01ZM58.94,46.44c2.84,0,5.68-.02,8.51.02.73.01.91-.22.83-.9-.12-1-.13-2-.22-3-.49-5.21-1.73-10.23-3.69-15.09-.16-.4-.3-.55-.76-.42-4.34,1.2-8.77,1.91-13.28,2.06-.61.02-.77.24-.77.84.02,5.23.03,10.47,0,15.7,0,.71.24.81.86.81,2.84-.03,5.68-.01,8.51-.01ZM58.93,49.59c-2.84,0-5.67.02-8.51-.01-.64,0-.86.13-.85.82.03,4.7.03,9.4,0,14.1,0,.66.18.87.83.89,4.63.13,9.16.89,13.61,2.17.55.16.75.06.95-.49,1.96-5.4,3.11-10.95,3.33-16.69.02-.62-.13-.81-.76-.8-2.87.03-5.73.01-8.6.01ZM37.11,49.59c-2.84,0-5.67.02-8.51-.01-.66,0-.91.11-.88.86.24,5.71,1.38,11.23,3.32,16.61.22.61.5.64,1.03.49,4.42-1.27,8.92-2.02,13.52-2.15.71-.02.86-.3.86-.96-.03-4.67-.03-9.34,0-14.01,0-.65-.14-.86-.82-.85-2.84.04-5.67.02-8.51.02ZM42.31,89.88c-.11-.16-.16-.26-.24-.34-5.17-5.05-9.29-10.85-12.3-17.42-.25-.54-.51-.4-.89-.25-3.66,1.38-7.13,3.13-10.44,5.22-.6.38-.61.54-.11,1.03,3.96,3.87,8.48,6.87,13.59,8.99,3.31,1.37,6.74,2.31,10.38,2.77ZM53.77,89.86c.09,0,.18.02.26.01,1.05-.18,2.1-.33,3.14-.57,7.9-1.84,14.77-5.55,20.56-11.24.45-.44.41-.6-.1-.92-3.28-2.08-6.72-3.83-10.34-5.21-.6-.23-.88-.22-1.18.43-2.91,6.35-6.89,11.96-11.86,16.87-.18.18-.43.32-.48.62ZM49.58,89.25c.32-.28.48-.4.63-.54,5.45-4.9,9.74-10.67,12.91-17.28.37-.77.13-.88-.54-1.06-4.01-1.08-8.09-1.68-12.23-1.92-.77-.05-.79.26-.79.85.01,6.35,0,12.71,0,19.06,0,.23,0,.46,0,.89ZM46.43,89.23c0-6.88,0-13.56.01-20.23,0-.62-.33-.55-.74-.53-4.17.21-8.28.84-12.31,1.92-.75.2-.81.41-.48,1.09,2.41,5.02,5.5,9.57,9.26,13.67,1.29,1.41,2.64,2.76,4.27,4.09ZM42.46,6.1c-9.11,1.32-16.79,5.01-23.36,11.08-.47.43-.12.53.18.72,3.2,1.98,6.57,3.59,10.09,4.9.6.23.85.12,1.13-.46,1.55-3.2,3.43-6.2,5.56-9.04,1.88-2.5,3.97-4.83,6.4-7.2ZM53.59,6.11c.34.36.54.58.74.78,2.61,2.58,4.96,5.39,7.04,8.42,1.56,2.27,2.95,4.63,4.18,7.09.14.29.18.72.73.52,3.83-1.39,7.49-3.13,11-5.38-6.66-6.29-14.45-10.09-23.68-11.43ZM46.43,6.86c-.2.11-.28.14-.34.19-5.26,4.66-9.46,10.13-12.65,16.39-.28.55-.03.63.39.74,3.87,1.01,7.81,1.58,11.8,1.82.72.04.81-.22.81-.84-.03-3.19-.01-6.39-.01-9.58,0-2.87,0-5.73,0-8.73ZM49.64,6.84c-.03.21-.05.32-.05.43,0,6.03.01,12.06-.02,18.09,0,.72.37.65.83.62,3.96-.2,7.87-.79,11.72-1.77.68-.17.64-.4.37-.94-2.37-4.67-5.37-8.9-8.94-12.72-1.2-1.29-2.44-2.53-3.9-3.71Z"/>
</svg>