<?xml version="1.0" encoding="UTF-8"?>
<svg id="Layer_1" data-name="Layer 1" xmlns="http://www.w3.org/2000/svg" viewBox="0 0 96 96">
  <path d="M95.12,42.06s0,0,0-.01c0-.02,0-.04,0-.06-.09-.67-.18-1.34-.3-2.01-.01-.07-.02-.14-.04-.21-.11-.62-.23-1.25-.36-1.86-.04-.17-.08-.34-.12-.51-.12-.51-.23-1.02-.37-1.53-.16-.59-.33-1.18-.5-1.76-.02-.08-.04-.16-.07-.24-4.85-15.71-17.51-27.74-33.36-31.84-.12-.03-.24-.06-.36-.09-.56-.14-1.12-.27-1.69-.39-.25-.05-.51-.11-.76-.16-.43-.08-.86-.16-1.29-.23-.36-.06-.71-.12-1.07-.17-.32-.05-.65-.08-.97-.12-.45-.06-.9-.11-1.35-.15-.18-.02-.37-.03-.55-.04-1.3-.11-2.62-.18-3.95-.18-15.1,0-28.56,7.09-37.27,18.1-.03.03-.06.05-.09.08-.24.3-.46.61-.69.91,0,0,0,.01-.01.02-.9,1.2-1.73,2.44-2.51,3.71-.03.06-.07.11-.1.17-.37.61-.72,1.22-1.06,1.85-.01.02-.02.04-.03.06-.36.66-.7,1.33-1.03,2.01-.01.03-.03.06-.04.09-.29.61-.57,1.23-.84,1.85-.05.12-.1.23-.15.35-.55,1.32-1.04,2.65-1.47,4.01-.05.16-.1.31-.14.47-.17.55-.33,1.11-.47,1.66-.04.15-.08.3-.12.45-.17.67-.33,1.35-.47,2.03-.03.16-.06.31-.09.47-.11.54-.2,1.09-.29,1.64-.03.21-.07.42-.1.63-.1.67-.19,1.34-.26,2.02-.17,1.62-.26,3.27-.26,4.94,0,1.46.08,2.91.21,4.34,0,0,0,.01,0,.02,0,.02,0,.04,0,.05.07.76.16,1.51.27,2.26,0,.05.01.09.02.14,1.06,7.37,3.82,14.19,7.87,20.07.05.08.11.15.16.23.38.54.77,1.08,1.17,1.61.17.22.35.44.52.66.29.37.59.74.89,1.1.26.31.53.62.8.92.23.26.46.52.69.77.33.36.67.72,1.02,1.07.18.18.36.37.55.55.39.39.79.77,1.19,1.14.15.14.3.28.45.41.43.39.88.77,1.33,1.15.14.11.28.23.42.34.28.23.56.47.85.7.03.03.08.04.11.06,8.03,6.21,18.08,9.91,28.99,9.91,26.19,0,47.5-21.31,47.5-47.5,0-2.01-.14-3.99-.38-5.94ZM90.39,35c.13.41.24.83.36,1.25.08.3.17.6.25.91.02.09.04.19.07.28.28,1.15.52,2.32.71,3.51-.76.13-1.52.24-2.3.35-1.17.16-2.28-.62-2.58-1.79-.43-1.72-.99-3.23-1.65-4.47-.85-1.6-2.37-2.62-4.18-2.8-.19-.02-.38-.03-.57-.03-1.66,0-3.24.74-4.32,2.04-2.42,2.92-4.63,4.4-6.42,4.18-1.86-.2-2.92-2.2-2.92-2.21-4.33-8.65-10.52-12.31-14.95-13.85-4.47-1.56-8.07-1.34-8.71-1.28-1.26.01-2.61.3-4,.86-2.67,1.07-4.86-.19-5.93-1.59-1.05-1.39-1.6-3.63.04-5.78l.16-.2c.57-.73,1.45-1.2,2.42-1.28,8.24-.67,12.78-5.24,15.22-9.3.2.01.41.03.61.05.38.03.76.06,1.14.1.43.05.85.1,1.27.16.24.03.48.06.72.1,16.73,2.6,30.39,14.58,35.42,30.37.05.15.1.29.14.44ZM20.24,28.81c.4,2.42-.8,4.78-2.99,5.87l-3.1,1.55c-1.35.68-2.51,1.7-3.35,2.96-1.03,1.55-2.76,2.47-4.62,2.47h-2.06c.01-.07.02-.14.03-.22.12-.8.26-1.6.42-2.39.05-.23.11-.45.16-.67.13-.58.27-1.17.42-1.74.09-.33.19-.66.28-.99.14-.47.28-.94.43-1.4.11-.34.23-.68.35-1.02.16-.46.34-.92.52-1.37.12-.32.24-.64.38-.95.29-.68.59-1.36.91-2.03.15-.3.3-.6.45-.9.23-.46.47-.91.71-1.36.18-.33.38-.66.57-.99.22-.38.45-.76.69-1.14.21-.33.42-.66.63-.99.25-.38.51-.75.78-1.12.17-.24.34-.49.52-.73l4.76,2.38c1.58.79,2.7,2.3,2.99,4.05h0s.12.73.12.73ZM19.23,75.69l-.61,5.47c-.12-.11-.25-.21-.37-.32-.06-.05-.11-.11-.17-.16-.45-.41-.88-.83-1.31-1.25-.11-.11-.22-.22-.33-.33-.36-.37-.72-.74-1.07-1.12-.17-.18-.33-.36-.49-.55-.28-.31-.55-.63-.82-.94-.22-.26-.43-.52-.64-.78-.2-.25-.39-.49-.58-.74-.26-.34-.51-.68-.76-1.03-.13-.17-.25-.35-.38-.53-.29-.42-.58-.84-.86-1.27-.07-.1-.13-.2-.19-.3-.32-.5-.63-1.01-.93-1.52-.01-.02-.02-.04-.04-.06-2.67-4.59-4.51-9.65-5.4-14.92,0-.05-.02-.09-.02-.14-.09-.55-.16-1.1-.23-1.66-.01-.11-.03-.22-.04-.33l.58-.25c2.12-.91,4.54-.44,6.17,1.19l2.93,2.93c1.23,1.23,2.78,2.06,4.48,2.4,2.61.52,4.51,2.84,4.51,5.5v.44c0,1.76-.51,3.46-1.49,4.92-1.06,1.6-1.74,3.45-1.95,5.35ZM48,92.33c-9.91,0-19.07-3.27-26.46-8.79l.83-7.51c.16-1.4.65-2.77,1.44-3.94,1.32-1.98,2.02-4.29,2.02-6.68v-.44c0-4.17-2.97-7.79-7.05-8.61-1.09-.22-2.08-.75-2.87-1.53l-2.93-2.93c-2.45-2.45-6.04-3.2-9.26-2-.03-.63-.05-1.27-.05-1.91,0-1.07.05-2.12.13-3.17h2.39c2.92,0,5.63-1.45,7.25-3.88.54-.8,1.27-1.45,2.13-1.88l3.1-1.55c3.44-1.72,5.33-5.43,4.7-9.23l-.12-.72c-.46-2.74-2.21-5.12-4.7-6.36l-4.15-2.08C22.39,9.84,34.16,3.89,47.31,3.68c-2.78,3.73-6.7,5.84-11.71,6.24-1.85.15-3.55,1.06-4.66,2.49l-.18.24c-2.23,2.94-2.24,6.71-.03,9.61,2.26,2.96,6.12,4.01,9.62,2.61,1.04-.42,2.02-.63,2.9-.63.06,0,.12,0,.17,0,.13-.02,13.24-1.29,20.58,13.38.07.14,1.8,3.53,5.37,3.94,2.94.33,6.05-1.45,9.24-5.3.52-.63,1.31-.96,2.12-.88.74.08,1.36.49,1.7,1.14.54,1.02,1.01,2.29,1.38,3.76.63,2.5,2.86,4.2,5.34,4.2.24,0,.48-.02.72-.05.76-.1,1.52-.22,2.27-.34.11,1.29.18,2.59.18,3.9,0,24.45-19.89,44.33-44.33,44.33Z" fill="#033778"/>
  <path d="M69.77,52.82c-.28-1.53-1.2-2.87-2.53-3.67l-3.12-1.87c-.4-.24-.72-.6-.9-1.03l-3.04-7.1c-1-2.33-3.53-3.67-6.02-3.17l-3.43.69c-.54.11-1.11.01-1.58-.28l-5.74-3.44c-.84-.5-1.8-.77-2.78-.77h-3.31c-1.74,0-3.38.84-4.39,2.26l-6.07,8.49c-.66.92-1.01,2-1.01,3.13v1.7c0,1.65.74,3.18,2.03,4.21l5.01,4.01c1.31,1.05,3.06,1.43,4.68,1.02l1.53-.38c1.02-.25,2.06.22,2.53,1.17l1.61,3.22c.07.15.13.3.17.46l3,12.01c.06.24.13.47.22.69l1.74,4.34c.84,2.1,2.86,3.39,5.02,3.39.57,0,1.14-.09,1.7-.28,1.22-.41,2.26-1.24,2.92-2.34l3.78-6.3c.09-.16.21-.3.34-.43l1.72-1.72c1.01-1,1.58-2.4,1.58-3.82v-5c0-.5.17-1,.49-1.39l2.77-3.46c.97-1.22,1.37-2.79,1.1-4.33ZM66.21,55.17l-2.77,3.46c-.76.95-1.18,2.15-1.18,3.37v5c0,.59-.24,1.16-.65,1.58l-1.72,1.72c-.31.31-.58.66-.81,1.04l-3.78,6.3c-.28.46-.7.8-1.21.97-1.12.37-2.34-.2-2.78-1.29l-1.74-4.34c-.04-.09-.07-.19-.09-.28l-3-12.01c-.09-.38-.23-.75-.41-1.11l-1.61-3.22c-.94-1.87-2.8-2.99-4.81-2.99-.44,0-.89.05-1.33.17l-1.53.38c-.67.17-1.4,0-1.94-.42l-5.01-4.01c-.53-.43-.84-1.06-.84-1.74v-1.7c0-.47.14-.92.42-1.3l6.07-8.49c.42-.58,1.1-.93,1.81-.93h3.31c.41,0,.8.11,1.15.32l5.75,3.45c1.15.69,2.52.93,3.84.66l3.44-.69c1.03-.2,2.07.34,2.49,1.31l3.05,7.11c.45,1.05,1.21,1.92,2.18,2.5l3.12,1.87c.56.34.93.88,1.05,1.52.11.64-.05,1.28-.45,1.79Z" fill="#033778"/>
  <path d="M76.47,61.94c-.11-.57-.53-1.04-1.09-1.21-.56-.17-1.17-.02-1.58.4l-4.75,4.75c-.22.22-.37.5-.43.81l-1.58,7.92c-.1.52.06,1.06.43,1.43l3.17,3.17c.3.3.7.46,1.12.46.06,0,.13,0,.19-.01.48-.06.91-.34,1.16-.76l4.75-7.92c.2-.34.27-.74.19-1.13l-1.58-7.92ZM71.43,75.53l-1.13-1.14,1.32-6.61,2.32-2.32.88,4.42-3.39,5.65Z" fill="#033778"/>
</svg>