<?xml version="1.0" encoding="UTF-8"?>
<svg id="Layer_1" data-name="Layer 1" xmlns="http://www.w3.org/2000/svg" viewBox="0 0 96 96">
  <path d="M88.23,2.45H7.77C3.42,2.46-.12,6-.12,10.35v56.82c0,4.35,3.55,7.89,7.9,7.9h26.44v15.59h-6.04c-.8,0-1.45.65-1.45,1.45s.65,1.45,1.45,1.45h40.8c.8,0,1.45-.65,1.45-1.45s-.65-1.45-1.45-1.45h-7.2v-15.59h26.44c4.35,0,7.89-3.55,7.9-7.9V10.35c0-4.35-3.55-7.89-7.9-7.9ZM58.89,75.06v15.59h-21.78v-15.59h21.78ZM2.77,62.73h90.46v4.44c0,2.75-2.25,5-5,5H7.77c-2.75,0-5-2.25-5-5v-4.44ZM7.77,5.35h80.46c2.75,0,5,2.25,5,5v49.48H2.77V10.35c0-2.75,2.25-5,5-5Z" fill="#b1b0b1"/>
  <path d="M41.29,39.25c.72,0,.96-.34,1.03-.63l.77-2.68h4.57l.76,2.67c.08.29.32.63,1.04.63s1.83-.49,1.83-1.26c0-.08-.02-.16-.05-.23l-4.01-13.08c-.22-.74-1.11-1-1.87-1-.71,0-1.62.26-1.85,1l-4.02,13.08c-.02.08-.04.15-.05.24,0,.77,1.07,1.25,1.83,1.25ZM43.72,33.57l1.64-5.8,1.64,5.8h-3.29Z" fill="#b1b0b1"/>
  <path d="M53.95,39.25c.73,0,1.48-.34,1.48-.98v-13.52c0-.66-.74-.96-1.48-.96-.9,0-1.48.38-1.48.96v13.52c0,.67.77.98,1.48.98Z" fill="#b1b0b1"/>
  <path d="M12.52,38.25h0c2.58,0,4.81-1.73,5.46-4.21h9.88c.11,1.61.42,3.2.92,4.73h-.55c-3.16,0-5.73,2.58-5.73,5.73,0,1.56-1.27,2.84-2.84,2.84h-.73c-.72-2.72-3.34-4.51-6.15-4.17-2.84.35-4.98,2.76-4.98,5.62s2.14,5.27,4.98,5.62c2.81.35,5.43-1.45,6.15-4.17h.73c3.16,0,5.73-2.58,5.73-5.73,0-1.56,1.27-2.84,2.84-2.84h1.74c3.12,6.2,9.11,10.31,16.02,10.99.67.07,1.34.1,2.02.1,7.65-.02,14.53-4.27,17.97-11.09h1.79c1.56,0,2.84,1.28,2.84,2.84,0,3.16,2.58,5.73,5.73,5.73h.73c.66,2.5,2.93,4.21,5.47,4.21.23,0,.46-.01.69-.04,2.84-.34,4.98-2.76,4.98-5.62s-2.14-5.27-4.98-5.62c-2.8-.34-5.43,1.45-6.15,4.17h-.73c-1.56,0-2.84-1.28-2.84-2.84,0-3.16-2.58-5.73-5.73-5.73h-.6c.44-1.36.73-2.78.87-4.2.02-.18.03-.35.04-.53h9.93c.72,2.72,3.35,4.51,6.15,4.17,2.84-.34,4.98-2.76,4.98-5.62s-2.14-5.27-4.98-5.62c-2.81-.34-5.43,1.45-6.15,4.17h-9.93c-.11-1.61-.42-3.2-.92-4.73h.61c3.16,0,5.73-2.58,5.73-5.73,0-1.56,1.28-2.84,2.84-2.84h.73c.25.97.76,1.85,1.47,2.55,1.82,1.82,4.64,2.19,6.86.89,2.22-1.3,3.29-3.93,2.6-6.41-.69-2.48-2.96-4.17-5.54-4.14-2.54.04-4.74,1.77-5.39,4.21h-.73c-3.16,0-5.73,2.58-5.73,5.73,0,1.56-1.27,2.84-2.84,2.84h-1.8c-3.44-6.84-10.33-11.09-18-11.09s-14.56,4.25-18,11.09h-1.73c-1.56,0-2.84-1.28-2.84-2.84,0-3.16-2.58-5.73-5.73-5.73h-.73c-.65-2.44-2.85-4.16-5.38-4.2-.03,0-.06,0-.08,0-2.53,0-4.76,1.69-5.44,4.14-.69,2.47.38,5.1,2.59,6.4,2.22,1.29,5.03.93,6.85-.88.71-.7,1.21-1.58,1.47-2.55h.73c1.56,0,2.84,1.27,2.84,2.84,0,3.16,2.58,5.73,5.73,5.73h.55c-.44,1.36-.73,2.78-.87,4.2-.02.18-.03.35-.04.53h-9.88c-.74-2.79-3.52-4.6-6.37-4.13-2.89.47-4.97,3.12-4.73,6.04.23,2.92,2.71,5.2,5.64,5.2ZM9.75,32.59c0-.73.3-1.44.82-1.95h0c.52-.52,1.21-.81,1.95-.81s1.43.29,1.95.81c.52.52.81,1.21.81,1.95s-.29,1.43-.81,1.95-1.21.81-1.95.81-1.43-.29-1.95-.81c-.52-.51-.82-1.22-.82-1.95ZM15.42,50.74c-1.07,1.07-2.82,1.07-3.9,0-1.07-1.08-1.07-2.83,0-3.9.54-.54,1.25-.81,1.95-.81s1.41.27,1.95.81c1.07,1.08,1.07,2.83,0,3.9ZM30.79,30.89c.42-4.54,2.68-8.8,6.2-11.69,3.07-2.52,6.96-3.89,10.91-3.89.59,0,1.18.03,1.77.09h0c4.59.45,8.73,2.67,11.65,6.23,2.93,3.57,4.29,8.06,3.83,12.65-.45,4.59-2.67,8.73-6.23,11.65-3.56,2.93-8.06,4.29-12.65,3.84-9.47-.94-16.42-9.4-15.49-18.88ZM80.54,46.88l.04-.04c.52-.52,1.21-.81,1.95-.81s1.43.29,1.95.81c1.08,1.08,1.08,2.83,0,3.9-.52.52-1.21.81-1.95.81h0c-.74,0-1.43-.29-1.95-.81-1.06-1.06-1.07-2.78-.04-3.86ZM80.71,32.59c0-.73.3-1.44.82-1.95h0c.52-.52,1.21-.81,1.95-.81s1.43.29,1.95.81c.52.52.81,1.21.81,1.95s-.29,1.43-.81,1.95c-.52.52-1.21.81-1.95.81s-1.43-.29-1.95-.81c-.52-.51-.82-1.22-.82-1.95ZM80.54,14.48l.04-.04c1.08-1.08,2.83-1.08,3.9,0,1.08,1.08,1.08,2.83,0,3.9-1.08,1.08-2.83,1.08-3.9,0-1.06-1.06-1.07-2.78-.04-3.86ZM15.42,18.34c-.52.52-1.21.81-1.95.81h0c-.74,0-1.43-.29-1.95-.81-.52-.52-.81-1.21-.81-1.95s.29-1.43.81-1.95c.52-.52,1.21-.81,1.95-.81.74,0,1.43.29,1.95.81,1.07,1.08,1.07,2.83,0,3.9Z" fill="#b1b0b1"/>
</svg>