<?xml version="1.0" encoding="UTF-8"?>
<svg id="Layer_1" data-name="Layer 1" xmlns="http://www.w3.org/2000/svg" viewBox="0 0 96 96">
  <defs>
    <style>
      .cls-1 {
        fill: #b1b0b1;
      }
    </style>
  </defs>
  <path class="cls-1" d="M80.75,32.82c-.78,0-1.41.63-1.41,1.42v3.2h-3.21c-.78,0-1.41.63-1.41,1.42s.63,1.41,1.41,1.41h4.62c.78,0,1.42-.63,1.42-1.41v-4.62c0-.78-.63-1.42-1.42-1.42Z"/>
  <path class="cls-1" d="M39.91,22.04c-3.33,0-6.03,2.71-6.03,6.03s2.71,6.03,6.03,6.03,6.03-2.71,6.03-6.03-2.71-6.03-6.03-6.03ZM39.91,31.28c-1.77,0-3.2-1.44-3.2-3.2s1.44-3.2,3.2-3.2,3.2,1.44,3.2,3.2-1.44,3.2-3.2,3.2Z"/>
  <path class="cls-1" d="M73.06,72.6h9.24c.78,0,1.42-.63,1.42-1.42v-8.65l2.66-2.66c.27-.27.42-.62.42-1v-4.74h2.37c1,0,1.93-.5,2.48-1.34.55-.84.63-1.89.22-2.81l-4.82-10.85.05-.06c1.79-2.14,2.78-4.85,2.77-7.64.04-10.22-5.63-19.39-14.79-23.93l-4.47-2.24c-.63-.31-1.38-.12-1.78.44l-.68.95h-10.62v-3.2c0-.78-.63-1.41-1.41-1.41h-15.4c-.78,0-1.41.63-1.41,1.41v6.28h-2.48c-.69,0-1.28.5-1.39,1.18l-1.05,6.3-.06.03c-.35.19-.69.38-1.01.59l-.05.03-5.99-2.24c-.65-.25-1.37.01-1.72.62l-1.59,2.75h-.07s-.07-.01-.09-.02h-9.38v-5.12l.08-.03c2.07-.73,3.3-2.83,2.93-5-.37-2.16-2.23-3.73-4.43-3.73s-4.06,1.57-4.43,3.73c-.37,2.16.86,4.27,2.93,5l.08.03v6.53c0,.78.63,1.41,1.42,1.41h9.38l-.04.16c-.13.52.05,1.07.46,1.41l4.93,4.06v.06c0,.12,0,.23,0,.35v.11s-.12,0-.12,0l-14.97.23-.03-.08c-.68-1.89-2.55-3.11-4.56-2.97-2,.15-3.68,1.62-4.08,3.59-.4,1.97.57,3.98,2.36,4.9h0c.63.33,1.34.5,2.05.5h0c1.91,0,3.6-1.21,4.22-3.01l.03-.08,12.55-.19-2.39,1.97c-.54.44-.67,1.2-.33,1.8l2.89,5v.03s.06,7.05.06,7.05h-7.81c-.07,0-.15.02-.23.05l-.12.04-.04-.12c-.71-2.09-2.81-3.35-4.99-2.99-2.18.36-3.76,2.22-3.76,4.43s1.58,4.07,3.76,4.43c2.18.36,4.28-.9,4.99-2.99l.04-.12.12.04c.08.03.16.04.24.05h9.23c.38,0,.74-.15,1-.42.26-.27.41-.63.41-1.01l-.07-7.89,5.07-1.9.05.03c.33.21.66.41,1.01.59l.06.03,1.05,6.3c.11.68.7,1.18,1.4,1.18h.93v7.95h-4.74c-.78,0-1.42.63-1.42,1.41v22.51l-.04.04-13.41,13.41c-.41.41-.53,1.01-.31,1.54.22.53.73.87,1.31.87h49.27c.58,0,1.09-.34,1.31-.87.22-.53.1-1.13-.31-1.54l-10.36-10.36v-8.26l.02-.03,3.51-5.85.11.06c5.82,3.52,9.31,5.3,10.35,5.3ZM13.01,11.26c-.92,0-1.67-.75-1.67-1.66s.75-1.67,1.67-1.67,1.66.75,1.66,1.67-.75,1.66-1.66,1.66ZM8.91,31.18c-.17.06-.35.08-.52.08-.26,0-.52-.06-.76-.18-.4-.2-.69-.55-.82-.97-.13-.42-.1-.86.1-1.26.2-.4.55-.7.97-.83.86-.22,1.73.27,2,1.1.27.83-.16,1.74-.98,2.06ZM13.01,49.75c-.92,0-1.67-.75-1.67-1.66s.75-1.67,1.67-1.67,1.66.75,1.66,1.67-.75,1.66-1.66,1.66ZM42.14,4.85h12.57v3.2c0,.78.63,1.42,1.42,1.42h10.01l-5,7c-.17.24-.27.52-.26.82v.13h-5.91l-.69-1.19c-.35-.6-1.07-.86-1.72-.62l-5.99,2.24-.05-.03c-.32-.21-.66-.41-1.01-.59l-.06-.03-1.06-6.3c-.11-.68-.7-1.18-1.39-1.18h-.85v-4.87ZM63.4,47.96l-4.73,1.89c-.54.22-.89.73-.89,1.31v3.2h-17.19v-7.95h2.4c.69,0,1.28-.5,1.39-1.18l1.05-6.3.06-.03c.34-.18.68-.38,1.01-.59l.05-.03,5.99,2.24c.65.24,1.37-.01,1.72-.62l.69-1.19h7.33c.09,0,.2-.03.29-.06l.08-.03,2.83,3.77v2.73h-6.16v2.83h4.08ZM50.5,67.56l5.74,5.75v1.08h-9.49v-17.19h3.33v9.36c0,.38.15.73.42,1ZM57.34,21.56l-.76-1.31h4.28v6.41h-7.85l4-3.3c.53-.44.67-1.19.33-1.79ZM60.86,29.49v6.41h-4.28l.76-1.31c.34-.6.21-1.35-.33-1.79l-4-3.3h7.85ZM37.06,37.74c-.08-.48-.39-.88-.84-1.07-.68-.29-1.32-.67-1.9-1.11-.39-.29-.89-.36-1.34-.19l-5.57,2.09-1.88-3.26,4.59-3.77s.04-.04.06-.07c.04-.04.06-.06.09-.09.11-.12.19-.25.26-.39l.02-.03c.05-.14.08-.3.08-.47,0-.04.01-.06.01-.08h0s0-.01,0-.03c0-.02,0-.05,0-.08v-.04c-.09-.71-.09-1.45,0-2.18.06-.48-.13-.95-.51-1.26l-4.58-3.77,1.88-3.26,5.57,2.09c.45.17.96.1,1.34-.19.59-.44,1.23-.81,1.9-1.11.45-.19.76-.59.84-1.07l.98-5.85h3.76l.98,5.85c.08.48.39.88.84,1.07.67.29,1.31.67,1.9,1.11.39.29.89.36,1.34.19l5.57-2.09,1.88,3.26-4.59,3.77c-.37.31-.56.78-.5,1.26.1.73.1,1.47,0,2.2-.06.48.13.95.5,1.26l4.59,3.77-1.88,3.26-5.57-2.09c-.45-.17-.95-.1-1.34.19-.59.44-1.23.81-1.9,1.11-.45.19-.76.59-.84,1.07l-.98,5.85h-3.76l-.97-5.85ZM22.58,91.33l.21-.21,11.23-11.23c.26-.26.41-.63.41-1v-21.68h9.49v22.69l-3.33,3.81v-7.77h-2.83v11.01l-3.85,4.39h-11.34ZM50.09,91.33h-12.41l2.95-3.37,5.78-6.6c.23-.26.35-.59.35-.93v-3.2h3.33v14.11ZM65.02,91.33h-12.11v-14.11h3.33v4.74c0,.37.15.74.41,1l8.36,8.36ZM60.12,65.87l-2.75,4.58-4.46-4.46v-8.78h4.87v6.28c0,.49.25.94.67,1.2.46.29.88.55,1.31.81l.43.26-.06.11ZM60.67,62.74l-.06-.04v-10.58l6.81-2.72c.54-.22.89-.73.89-1.31v-6.16c0-.3-.1-.6-.28-.85l-4.34-5.78v-17.55l.02-.03,6.71-9.39,3.39,1.7c8.19,4.06,13.26,12.26,13.23,21.4,0,2.4-.96,4.74-2.67,6.44-.41.41-.53,1.04-.29,1.57l5.27,11.87h-3.98c-.78,0-1.41.63-1.41,1.41v4.74h-.42c-2.39,0-4.72-.97-6.41-2.67-.55-.53-1.44-.52-1.98.02-.54.54-.55,1.43-.02,1.98,1.79,1.8,4.16,2.99,6.68,3.35l.25.04-.77.77c-.26.26-.42.63-.42,1v7.82h-7.71s-.03,0-.03,0c-3.55-1.64-7.01-3.56-10.29-5.69h-.01c-.73-.45-1.45-.89-2.17-1.34Z"/>
  <rect class="cls-1" x="37.77" y="63.61" width="2.83" height="2.83"/>
  <rect class="cls-1" x="37.77" y="69.77" width="2.83" height="2.83"/>
  <rect class="cls-1" x="47.01" y="45.13" width="2.83" height="2.83"/>
  <rect class="cls-1" x="53.17" y="45.13" width="2.83" height="2.83"/>
  <rect class="cls-1" x="67.02" y="17.42" width="2.83" height="5.91"/>
  <rect class="cls-1" x="67.02" y="26.66" width="2.83" height="2.83"/>
  <rect class="cls-1" x="67.02" y="32.82" width="2.83" height="2.83"/>
</svg>