<?xml version="1.0" encoding="UTF-8"?>
<svg id="Layer_1" data-name="Layer 1" xmlns="http://www.w3.org/2000/svg" viewBox="0 0 96 96">
  <path d="M75.97,40.35h4.59c.85,0,1.53-.69,1.53-1.53v-4.59c0-.85-.69-1.53-1.53-1.53s-1.53.69-1.53,1.53v3.06h-3.06c-.85,0-1.53.69-1.53,1.53s.69,1.53,1.53,1.53Z" fill="#b1b0b1"/>
  <path d="M39.96,34.22c3.38,0,6.12-2.74,6.12-6.12s-2.74-6.12-6.12-6.12-6.12,2.74-6.12,6.12,2.74,6.12,6.12,6.12ZM39.96,25.04c1.69,0,3.06,1.37,3.06,3.06s-1.37,3.06-3.06,3.06-3.06-1.37-3.06-3.06,1.37-3.06,3.06-3.06Z" fill="#b1b0b1"/>
  <path d="M6.53,33.72c.65.33,1.37.51,2.1.51,1.95,0,3.68-1.24,4.32-3.08l12.04-.19-2.1,1.74c-.58.48-.73,1.3-.35,1.95l2.86,4.94.06,6.89h-7.64c-.09,0-.18.03-.27.05-.72-2.13-2.88-3.42-5.1-3.05-2.22.37-3.84,2.28-3.84,4.53s1.63,4.16,3.84,4.53c2.22.37,4.37-.93,5.1-3.05.09.03.18.04.27.05h9.18c.41,0,.8-.16,1.09-.45.29-.29.45-.68.44-1.09l-.07-7.76,4.9-1.84c.33.22.67.41,1.01.59l1.03,6.21c.12.74.76,1.28,1.51,1.28h.8v7.65h-4.59c-.85,0-1.53.69-1.53,1.53v22.33l-13.33,13.33c-.44.44-.57,1.1-.33,1.67s.8.94,1.41.94h48.98c.62,0,1.18-.37,1.41-.94.24-.57.11-1.23-.33-1.67l-10.27-10.27v-8.13l3.43-5.71c5.78,3.49,9.28,5.28,10.35,5.28h9.18c.85,0,1.53-.69,1.53-1.53v-8.55l2.61-2.61c.29-.29.45-.68.45-1.08v-4.59h2.24c1.04,0,2-.52,2.57-1.39.56-.87.65-1.96.23-2.91l-4.76-10.71c1.81-2.15,2.79-4.87,2.79-7.68.03-10.13-5.69-19.4-14.77-23.9l-4.44-2.22c-.67-.34-1.49-.13-1.93.48l-.64.89h-10.36v-3.06c0-.85-.69-1.53-1.53-1.53h-15.31c-.85,0-1.53.69-1.53,1.53v6.12h-2.34c-.75,0-1.39.54-1.51,1.28l-1.03,6.2c-.34.18-.68.37-1.01.59l-5.89-2.21c-.7-.26-1.49.02-1.86.67l-1.54,2.67s-.07-.02-.11-.02h-9.19v-4.87c2.11-.75,3.37-2.9,2.99-5.11-.38-2.2-2.29-3.82-4.53-3.82s-4.15,1.61-4.53,3.82c-.38,2.2.89,4.36,3,5.11v6.4c0,.85.69,1.53,1.53,1.53h9.16c-.14.56.05,1.16.5,1.53l4.85,4c0,.11,0,.23,0,.34l-14.79.23c-.7-1.94-2.6-3.18-4.65-3.03-2.06.15-3.76,1.65-4.17,3.67-.41,2.02.58,4.07,2.42,5ZM13.22,49.53c-.85,0-1.53-.69-1.53-1.53s.69-1.53,1.53-1.53,1.53.69,1.53,1.53-.69,1.53-1.53,1.53ZM13.22,8.21c.85,0,1.53.69,1.53,1.53s-.69,1.53-1.53,1.53-1.53-.69-1.53-1.53.69-1.53,1.53-1.53ZM40.77,46.47h2.26c.75,0,1.39-.54,1.51-1.28l1.03-6.21c.34-.18.68-.37,1.01-.59l5.9,2.21c.7.26,1.49-.02,1.86-.67l.65-1.12h7.21c.11,0,.22-.03.33-.07l2.73,3.64v2.55h-6.12v3.06h3.53l-4.1,1.64c-.58.23-.96.8-.96,1.42v3.06h-16.84v-7.65ZM57.4,21.57l-.65-1.12h3.91v6.12h-7.33l3.71-3.06c.57-.48.72-1.29.35-1.94ZM60.66,29.63v6.12h-3.91l.65-1.12c.37-.65.22-1.47-.35-1.94l-3.71-3.06h7.33ZM50.4,67.45l5.67,5.67v.9h-9.18v-16.84h3.06v9.18c0,.41.16.8.45,1.08ZM40.7,87.79h.07v-.08l5.74-6.56c.24-.28.38-.64.38-1.01v-3.06h3.06v13.77h-11.94l2.69-3.06ZM23.03,90.86l11.16-11.16c.29-.29.45-.68.45-1.08v-21.43h9.18v22.38l-3.06,3.5v-7.52h-3.06v11.02l-3.76,4.29h-10.92ZM64.62,90.86h-11.61v-13.77h3.06v4.59c0,.41.16.8.45,1.08l8.1,8.1ZM57.3,70.02l-4.29-4.29v-8.55h4.59v6.12c0,.53.27,1.02.72,1.3.57.36,1.09.67,1.63,1.01l-2.65,4.41ZM70.33,8.63l3.27,1.64c8.04,3.98,13.11,12.19,13.08,21.16,0,2.37-.93,4.64-2.61,6.31-.45.45-.57,1.12-.32,1.7l5.17,11.62h-3.77c-.85,0-1.53.69-1.53,1.53v4.59h-.26c-2.37,0-4.64-.93-6.31-2.61-.6-.58-1.56-.57-2.15.02s-.6,1.54-.02,2.15c1.81,1.82,4.17,3,6.71,3.37l-.59.59c-.29.29-.45.68-.45,1.08v7.65h-7.51c-3.54-1.63-6.95-3.51-10.22-5.64h0s0,0,0,0c-.72-.44-1.44-.88-2.16-1.32v-10.36l6.69-2.67c.58-.23.96-.8.96-1.42v-6.12c0-.33-.11-.65-.31-.92l-4.29-5.71v-17.37l6.61-9.25ZM42.3,5.14h12.24v3.06c0,.85.69,1.53,1.53,1.53h9.71l-4.83,6.76c-.19.26-.29.57-.29.89h-5.68l-.65-1.12c-.37-.65-1.16-.93-1.86-.67l-5.89,2.21c-.33-.22-.67-.41-1.01-.59l-1.04-6.21c-.12-.74-.76-1.28-1.51-1.28h-.73v-4.59ZM25.82,21.98l1.76-3.06,5.44,2.04c.49.18,1.04.1,1.45-.21.58-.43,1.2-.8,1.86-1.09.48-.21.82-.64.91-1.16l.95-5.71h3.53l.95,5.71c.09.51.43.95.91,1.16.66.29,1.29.65,1.86,1.09.42.31.96.39,1.45.21l5.44-2.04,1.76,3.06-4.48,3.68c-.4.33-.61.85-.55,1.36.09.71.09,1.44,0,2.15-.06.52.14,1.03.55,1.36l4.48,3.68-1.76,3.06-5.44-2.04c-.49-.18-1.03-.1-1.45.21-.58.43-1.2.8-1.86,1.09-.48.21-.82.64-.91,1.16l-.95,5.71h-3.53l-.95-5.71c-.09-.51-.43-.95-.91-1.16-.66-.29-1.29-.65-1.86-1.09-.42-.31-.96-.39-1.45-.21l-5.44,2.04-1.76-3.06,4.48-3.68s.05-.05.08-.08c.03-.03.06-.06.08-.09.12-.12.21-.27.28-.42v-.02c.07-.17.11-.35.11-.53,0-.02,0-.04.01-.07,0-.02,0-.03-.01-.05s0-.07,0-.11c-.09-.71-.09-1.44,0-2.15.06-.52-.14-1.03-.55-1.36l-4.48-3.68ZM7.26,28.93c.18-.37.51-.64.89-.77.78-.2,1.59.24,1.83,1.01.25.77-.15,1.6-.9,1.89-.8.26-1.67-.18-1.93-.99-.12-.38-.09-.8.09-1.15Z" fill="#b1b0b1"/>
  <path d="M37.7,63.31h3.06v3.06h-3.06v-3.06Z" fill="#b1b0b1"/>
  <path d="M37.7,69.43h3.06v3.06h-3.06v-3.06Z" fill="#b1b0b1"/>
  <path d="M46.89,44.94h3.06v3.06h-3.06v-3.06Z" fill="#b1b0b1"/>
  <path d="M53.01,44.94h3.06v3.06h-3.06v-3.06Z" fill="#b1b0b1"/>
  <path d="M66.79,17.39h3.06v6.12h-3.06v-6.12Z" fill="#b1b0b1"/>
  <path d="M66.79,26.57h3.06v3.06h-3.06v-3.06Z" fill="#b1b0b1"/>
  <path d="M66.79,32.69h3.06v3.06h-3.06v-3.06Z" fill="#b1b0b1"/>
</svg>