<?xml version="1.0" encoding="UTF-8"?>
<svg id="Layer_1" data-name="Layer 1" xmlns="http://www.w3.org/2000/svg" viewBox="0 0 96 96">
  <defs>
    <style>
      .cls-1, .cls-2, .cls-3 {
        fill: none;
        stroke: #b1b0b1;
        stroke-width: 3px;
      }

      .cls-1, .cls-3 {
        stroke-linejoin: round;
      }

      .cls-2 {
        stroke-miterlimit: 10;
      }

      .cls-3 {
        stroke-linecap: round;
      }
    </style>
  </defs>
  <rect class="cls-2" x="16.87" y="2.34" width="32.17" height="43.71" rx="14.17" ry="14.17"/>
  <path class="cls-1" d="M16.87,20.03c6.7-.46,16.27-2.03,21.91-5.84,2.4,1.79,6.65,4.55,10.25,5.38"/>
  <path class="cls-1" d="M26.1,44.59v6.83c0,.26.01.52.04.77.18,1.6.91,3.03,1.98,4.11,1.26,1.25,2.98,2.02,4.88,2.02,3.55,0,6.46-2.67,6.85-6.11.04-.26.05-.53.05-.79v-6.87"/>
  <path class="cls-1" d="M49.72,87.73H1.5v-16.21c0-6.72,4.32-12.67,10.71-14.77l13.93-4.55c.18,1.6.91,3.03,1.98,4.12,1.25,1.24,2.98,2.02,4.88,2.02,3.55,0,6.47-2.66,6.86-6.11l7.85,2.6"/>
  <line class="cls-1" x1="15.3" y1="88.04" x2="15.3" y2="67.63"/>
  <line class="cls-2" x1="56.33" y1="88.24" x2="56.33" y2="73.97"/>
  <path class="cls-3" d="M56.33,51.56v-6.74c0-2.1,1.7-3.81,3.81-3.81h5.65c11.77,0,21.31,9.54,21.31,21.31v.8"/>
  <path class="cls-3" d="M87.1,63.12l7.03,14.26c.71,1.44.41,3.03-1.04,4.05-.7.49-6.24.08-5.99.19h0s0,7.67,0,7.67c0,2.42-1.96,4.37-4.37,4.37h-8.68c-1.69,0-3.06-1.37-3.06-3.06v-8.88"/>
  <circle class="cls-3" cx="56.33" cy="55.7" r="3.35"/>
  <circle class="cls-3" cx="70.66" cy="78.39" r="3.35"/>
  <circle class="cls-3" cx="56.33" cy="69.84" r="3.35"/>
  <line class="cls-1" x1="77.31" y1="65.61" x2="77.31" y2="63.36"/>
</svg>