<?xml version="1.0" encoding="UTF-8"?>
<svg id="Layer_1" data-name="Layer 1" xmlns="http://www.w3.org/2000/svg" viewBox="0 0 96 96">
  <defs>
    <style>
      .cls-1 {
        stroke-linejoin: round;
      }

      .cls-1, .cls-2 {
        fill: none;
        stroke: #b1b0b1;
        stroke-width: 3px;
      }

      .cls-2 {
        stroke-miterlimit: 10;
      }
    </style>
  </defs>
  <rect class="cls-2" x="15.89" y="2.16" width="30.76" height="41.8" rx="14.17" ry="14.17"/>
  <path class="cls-1" d="M15.89,19.08c6.4-.44,15.56-1.95,20.95-5.58,2.3,1.71,6.35,4.35,9.8,5.14"/>
  <path class="cls-1" d="M24.72,42.56v6.53c0,.25,0,.49.04.74.17,1.53.87,2.9,1.89,3.93,1.2,1.19,2.85,1.93,4.67,1.93,3.39,0,6.18-2.55,6.55-5.84.04-.25.05-.5.05-.76v-6.57"/>
  <path class="cls-1" d="M47.3,83.8H1.2v-15.5c0-6.42,4.13-12.11,10.24-14.12l13.32-4.35c.17,1.53.87,2.9,1.9,3.93,1.2,1.19,2.85,1.93,4.66,1.93,3.4,0,6.18-2.55,6.56-5.84l11.69,3.67"/>
  <line class="cls-1" x1="14.39" y1="84.1" x2="14.39" y2="64.6"/>
  <polygon class="cls-1" points="72.6 94.39 51.18 82.13 51.18 58.58 72.6 70.83 72.6 94.39"/>
  <polygon class="cls-1" points="72.6 94.39 94.2 82.13 94.2 58.58 72.6 70.83 72.6 94.39"/>
  <polyline class="cls-1" points="51.18 58.58 72.75 45.32 94.2 58.58"/>
  <line class="cls-1" x1="71.63" y1="57.81" x2="83.43" y2="64.68"/>
  <circle class="cls-1" cx="70.17" cy="56.43" r="3.14"/>
</svg>