<?xml version="1.0" encoding="UTF-8"?>
<svg id="Layer_1" data-name="Layer 1" xmlns="http://www.w3.org/2000/svg" viewBox="0 0 96 96">
  <defs>
    <style>
      .cls-1 {
        fill: #b1b0b1;
      }
    </style>
  </defs>
  <path class="cls-1" d="M42.28,12.32c-1.78-.38-3.57-.57-5.35-.57-4.8,0-9.5,1.38-13.62,4.04-11.67,7.54-15.04,23.17-7.5,34.85,7.54,11.67,23.17,15.04,34.85,7.5,7.22-4.67,11.53-12.59,11.53-21.19,0-1.26-.1-2.53-.29-3.77l-2.62,2.65v1.12c-.02,12.28-10.01,22.26-22.29,22.26h-.03c-12.29-.02-22.27-10.03-22.26-22.32,0-5.95,2.33-11.55,6.55-15.75,4.21-4.2,9.8-6.51,15.74-6.51h.03c7.71.01,14.97,4.1,18.99,10.67l2.1-2.1c-3.65-5.61-9.27-9.47-15.82-10.88Z"/>
  <path class="cls-1" d="M77.98,90.88c.86.86,2.04,1.34,3.26,1.34.02,0,.05,0,.07,0,1.17-.03,2.26-.51,3.08-1.34l6.54-6.54c1.73-1.75,1.73-4.61,0-6.36l-14.25-14.25c-1.7-1.64-4.35-1.73-6.16-.21l-.09.07-6.9-6.92.06-.09c6.38-8.61,8.17-19.8,4.79-29.96l-2.34,2.34c.74,2.59,1.12,5.28,1.14,7.97,0,16.65-13.54,30.21-30.19,30.21h0c-16.65,0-30.2-13.54-30.2-30.19,0-16.65,13.54-30.21,30.19-30.21h.01c9.83,0,19.06,4.79,24.71,12.84l2.04-2.08C53.06,2.74,32.38-.63,17.58,10c-7.19,5.16-11.93,12.81-13.36,21.54-1.43,8.73.62,17.49,5.78,24.68,5.16,7.19,12.81,11.93,21.54,13.36,8.73,1.43,17.49-.62,24.68-5.78.12-.09.24-.17.36-.26l.09-.06.08.08,6.84,6.82-.07.09c-1.51,1.82-1.41,4.47.23,6.17l14.25,14.25ZM72.31,65.79c.66-.6,1.65-.61,2.31,0l14.25,14.25c.6.66.6,1.65,0,2.31h0s-6.47,6.48-6.47,6.48c-.33.3-.75.45-1.16.45s-.82-.15-1.15-.45l-14.25-14.25c-.6-.66-.6-1.65,0-2.31l6.48-6.48ZM58.96,61.61l.1-.09c.88-.78,1.73-1.62,2.52-2.51l.09-.1.09.09,6.42,6.42-2.71,2.69-.09-.09-6.43-6.43Z"/>
  <path class="cls-1" d="M79.72,22.56c.8,0,1.46-.65,1.46-1.46v-12.66c0-.19-.04-.38-.12-.55h0c-.15-.36-.43-.64-.79-.79-.18-.08-.36-.11-.56-.12h-12.66c-.8,0-1.46.65-1.46,1.46s.65,1.46,1.46,1.46h9.15l-.21.21-24.75,24.72-.08-.05c-2.32-1.41-5.32-1.1-7.3.76l-.08.07-5.74-4.49.03-.09c.24-.65.37-1.32.37-2.01,0-3.42-2.78-6.21-6.21-6.21s-6.21,2.78-6.21,6.21c0,1.36.47,2.7,1.32,3.77l.06.08-.06.08-7.35,9.5c-.49.63-.37,1.55.26,2.04.63.49,1.55.37,2.04-.26l7.39-9.48.09.04c2.21.97,4.78.54,6.56-1.09l.08-.07.08.06,5.72,4.46-.03.08c-1.1,3.24.65,6.77,3.89,7.87,1.57.53,3.25.42,4.74-.31,1.49-.73,2.6-2,3.13-3.57.59-1.74.38-3.64-.57-5.21l-.05-.08.07-.07,24.86-24.89v9.15c0,.8.65,1.46,1.46,1.46ZM32.23,32.31c-1.81,0-3.29-1.48-3.29-3.29s1.48-3.29,3.29-3.29,3.29,1.48,3.29,3.29-1.48,3.29-3.29,3.29ZM48.06,43.39c-1.81,0-3.29-1.48-3.29-3.29s1.48-3.29,3.29-3.29c.88,0,1.7.35,2.32.97.62.62.97,1.44.97,2.32,0,1.81-1.48,3.29-3.29,3.29Z"/>
</svg>