<?xml version="1.0" encoding="UTF-8"?>
<svg id="Layer_1" xmlns="http://www.w3.org/2000/svg" version="1.1" viewBox="0 0 96 96">
  <!-- Generator: Adobe Illustrator 29.3.1, SVG Export Plug-In . SVG Version: 2.1.0 Build 151)  -->
  <defs>
    <style>
      .st0 {
        fill: #b1b0b1;
      }
    </style>
  </defs>
  <path class="st0" d="M34,4.1c0,.4.2.8.5,1.1.3.3.7.4,1.1.4.9,0,1.5-.7,1.5-1.6,0-.4-.2-.8-.5-1.1-.3-.3-.7-.4-1.1-.4h0c-.4,0-.8.2-1.1.5s-.4.7-.4,1.1Z"/>
  <path class="st0" d="M2,36.8c.2,18.6,15.4,33.6,34,33.6s.2,0,.3,0c6.6,0,12.9-2,18.3-5.6h.2c0-.1,29,28.3,29,28.3.3.3.7.4,1.1.4h0c.4,0,.8-.2,1.1-.5l7.5-7.7c.3-.3.4-.7.4-1.1s-.2-.8-.5-1.1l-29-28.4v-.2c3.6-5.5,5.4-11.9,5.3-18.4,0-3-.4-5.9-1.2-8.8h0c0-.1,6.7-6.9,6.7-6.9h.2c1,.7,2.2,1,3.5,1h0c3.8,0,6.9-3.2,6.9-7,0-1.9-.8-3.6-2.1-4.9-1.3-1.3-3-2-4.9-2s0,0,0,0c-1.8,0-3.6.8-4.9,2.1-1.3,1.3-2,3.1-2,4.9,0,1.2.4,2.5,1,3.5v.2c.1,0-5.5,5.7-5.5,5.7v-.4c-4.3-10.1-13-17.6-23.5-20.1-.4,0-.8,0-1.2.2s-.6.6-.7,1c0,.4,0,.8.2,1.2s.6.6,1,.7c10,2.4,18.4,10,21.8,19.8h0c0,.1-.1.3-.1.3l-9.1,9.3h-.2c-1.1-.7-2.3-1-3.5-1-1.2,0-2.5.4-3.5,1h-.2c0,.1-6.7-6.4-6.7-6.4v-.2c.7-1.1,1-2.3,1-3.5,0-3.8-3.1-6.9-6.9-6.9h0c-3.8,0-6.9,3.2-6.9,7,0,1.2.4,2.5,1,3.5v.2c.1,0-6.4,6.7-6.4,6.7h-.2c-1.1-.7-2.3-1-3.5-1-3.8,0-6.9,3.2-6.9,7,0,1.9.8,3.6,2.1,4.9,1.3,1.3,3,2,4.9,2h0c3.8,0,6.9-3.2,6.9-7,0-1.2-.4-2.5-1-3.5v-.2c-.1,0,6.4-6.7,6.4-6.7h.2c1.1.7,2.3,1,3.5,1,1.2,0,2.5-.4,3.5-1h.2c0-.1,6.7,6.4,6.7,6.4v.2c-.7,1.1-1,2.3-1,3.5,0,1.9.8,3.6,2.1,4.9,1.3,1.3,3,2,4.9,2h0c3.8,0,6.9-3.2,6.9-7,0-1.2-.4-2.5-1-3.5v-.2c-.1,0,7.9-8.2,7.9-8.2v.5c.5,1.9.7,3.9.7,5.9,0,8.2-3,16-8.8,21.9s-13.5,9.2-21.7,9.2c-.1,0-.2,0-.3,0-16.9,0-30.7-13.6-30.9-30.5-.1-14.1,9.3-26.5,22.9-30.1.8-.2,1.3-1.1,1.1-1.9-.2-.8-1.1-1.3-1.9-1.1C12.2,7.7,1.9,21.3,2,36.8ZM76.2,11.8c.7-.7,1.7-1.1,2.7-1.2h0c2.1,0,3.8,1.7,3.8,3.8,0,1-.4,2-1.1,2.7-.7.7-1.7,1.1-2.7,1.2h0c-2.1,0-3.8-1.7-3.8-3.8,0-1,.4-2,1.1-2.7ZM22.6,44.7c-.7.7-1.7,1.1-2.7,1.2h0c-2.1,0-3.8-1.7-3.8-3.8,0-1,.4-2,1.1-2.7.7-.7,1.7-1.1,2.7-1.2,1,0,2,.4,2.7,1.1.7.7,1.1,1.7,1.2,2.7,0,1-.4,2-1.1,2.7ZM35.9,29.5h0c-1,0-2-.4-2.7-1.1-.7-.7-1.1-1.7-1.2-2.7,0-2.1,1.7-3.9,3.8-3.9h0c2.1,0,3.8,1.7,3.8,3.8,0,2.1-1.7,3.9-3.8,3.9ZM55,44.4c-.7.7-1.7,1.1-2.7,1.2h0c-1,0-2-.4-2.7-1.1-.7-.7-1.1-1.7-1.2-2.7,0-1,.4-2,1.1-2.7.7-.7,1.7-1.1,2.7-1.2h0c1,0,2,.4,2.7,1.1.7.7,1.1,1.7,1.2,2.7,0,1-.4,2-1.1,2.7ZM69.9,64.3l20.3,19.9-5.4,5.5-.2-.2-20.3-19.9,5.4-5.5.2.2ZM57.6,62.6c1.8-1.5,3.5-3.2,5-5.1l.2-.2,4.8,4.7-5.4,5.5-4.8-4.7.2-.2Z"/>
</svg>