<?xml version="1.0" encoding="UTF-8"?>
<svg id="Capa_1" data-name="Capa 1" xmlns="http://www.w3.org/2000/svg" viewBox="0 0 96 96">
  <defs>
    <style>
      .cls-1 {
        fill: #b1b0b1;
      }
    </style>
  </defs>
  <path class="cls-1" d="M1.02,91.67V21.58c.44-.71.67-1.55,1.33-2.14.96-.87,2.08-1.21,3.36-1.19,1.56.02,1.56,0,1.56-1.5,0-2.9.01-5.8-.01-8.71,0-.58.13-.82.76-.78.88.05,1.77.01,2.66.01q1.32,0,1.32-1.3c0-1.82,0-1.8,1.8-1.83.94-.02,2.23.42,2.71-.19.54-.68.18-1.93.11-2.93,20.92,0,41.84,0,62.76,0-.01.06-.04.12-.04.18,0,9.11,0,18.23-.01,27.34,0,.03,0,.06,0,.09-.04.43.15.62.58.59.27-.02.55,0,.83,0,3.16.02,4.85,1.71,4.85,4.89,0,1.59-.02,3.18,0,4.77.03,1.43-.12,2.86.08,4.29,1.42.26,2.85.05,4.28.12.43.02.86,0,1.28.04,2.66.29,4.4,3.09,3.48,5.6-5.2,14.25-10.4,28.5-15.6,42.75-.91,2.5-2.05,3.28-4.74,3.28-22.81,0-45.62,0-68.44,0-2.84,0-3.86-.69-4.93-3.3ZM40.11,91.85c11.47,0,22.93,0,34.4.01.79,0,1.3-.17,1.6-1,5.16-14.2,10.35-28.39,15.52-42.59.44-1.2,0-1.84-1.25-1.84-22.93,0-45.87,0-68.8-.02-.91,0-1.36.32-1.67,1.18-2.83,7.84-5.7,15.66-8.56,23.49-2.33,6.39-4.67,12.79-6.99,19.19-.39,1.08-.07,1.55,1.08,1.58.21,0,.43,0,.64,0,11.35,0,22.69,0,34.04,0ZM48.1,4.15c-9.05,0-18.1.01-27.15-.02-.9,0-1.17.19-1.17,1.14.04,12.35.02,24.7.02,37.06,0,1.11,0,1.1,1.14.99.36-.03.73-.02,1.1-.02,17.7,0,35.4,0,53.11.01.74,0,1.07-.1,1.06-.97-.03-12.41-.03-24.83,0-37.24,0-.77-.21-.96-.97-.96-9.05.03-18.1.02-27.15.02ZM4.15,80.97s.09.02.14.03c.11-.27.24-.53.34-.8.77-2.09,1.51-4.19,2.3-6.27.24-.64.35-1.28.35-1.96,0-16.47,0-32.95,0-49.42,0-.24,0-.49,0-.73,0-.18,0-.33-.24-.42-1.62-.62-2.88.22-2.88,1.94,0,18.92,0,37.84,0,56.76v.88ZM10.4,64.02c.83-1.9,1.66-3.7,1.63-5.85-.1-7.39-.04-14.79-.04-22.19,0-8.22-.01-16.44.02-24.66,0-.8-.27-.95-.99-.94-.87.01-.61.6-.61,1.02,0,17.33,0,34.65,0,51.98v.64ZM15.29,51.17c.58-1.83,1.43-3.43,1.41-5.39-.06-11.21-.03-22.43-.03-33.64,0-1.41-.01-2.81,0-4.22,0-.44-.09-.63-.6-.67-.77-.06-.96.2-.96.96.02,14.02.02,28.05.02,42.07,0,.26-.08.53.15.88ZM79.33,37.84v3.21c0,2.29,0,2.27,2.32,2.25.64,0,.83-.19.83-.83-.03-2.6-.01-5.2-.01-7.79,0-2.21-.2-2.38-2.42-2.34-.57,0-.73.18-.72.74.03,1.59.01,3.18.01,4.77Z"/>
  <path class="cls-1" d="M47.96,27.64c-5.99,0-11.99,0-17.98,0-.31,0-.61.01-.92-.03-.81-.11-1.42-.79-1.41-1.56.01-.73.59-1.38,1.36-1.51.3-.05.61-.03.91-.04,12.05,0,24.09,0,36.14,0,1.49,0,2.26.52,2.28,1.54.02,1.03-.76,1.58-2.23,1.58-6.05,0-12.11,0-18.16,0Z"/>
  <path class="cls-1" d="M48,35.49c6.02,0,12.05,0,18.07,0,1.52,0,2.25.5,2.27,1.53.02,1.05-.77,1.6-2.32,1.6-12.02,0-24.04,0-36.05,0-.43,0-.86.02-1.27-.14-.72-.27-1.09-.82-1.03-1.56.06-.73.49-1.25,1.25-1.39.36-.06.73-.05,1.1-.05,5.99,0,11.99,0,17.98,0Z"/>
  <path class="cls-1" d="M36.99,16.67c-2.35,0-4.71,0-7.06,0-.34,0-.68,0-1.01-.05-.76-.14-1.19-.66-1.24-1.39-.06-.74.3-1.29,1.03-1.55.41-.15.84-.14,1.27-.14,4.71,0,9.42,0,14.13,0,.27,0,.55,0,.82.03.97.14,1.52.78,1.46,1.66-.06.84-.64,1.41-1.61,1.42-2.6.03-5.2,0-7.8,0,0,0,0,0,0,0Z"/>
</svg>