<?xml version="1.0" encoding="UTF-8"?>
<svg id="Capa_1" data-name="Capa 1" xmlns="http://www.w3.org/2000/svg" viewBox="0 0 96 96">
  <defs>
    <style>
      .cls-1 {
        fill: #b1b0b1;
      }
    </style>
  </defs>
  <path class="cls-1" d="M48.5,4.94c1.38.28,2.71.67,3.85,1.54,2.13,1.62,3.16,3.8,3.19,6.45,0,.6.2.81.74.96,4.22,1.16,8.05,3.05,11.21,6.15,4.31,4.24,6.72,9.35,6.85,15.4.12,5.21-.02,10.42.07,15.64.14,8.71,3.29,16.25,9.07,22.73.54.61,1.09,1.2,1.65,1.79.48.51.85,1.05.62,1.8-.24.77-.86,1.05-1.59,1.18-3.28.56-6.56,1.15-9.85,1.69-3.92.65-7.85,1.27-11.77,1.87-.53.08-.75.4-.98.8-1.61,2.83-3.83,5.03-6.77,6.45-5.28,2.55-10.41,2.16-15.31-1.01-2.15-1.39-3.82-3.27-5.07-5.51-.24-.43-.54-.65-1.04-.72-7.21-1.01-14.36-2.36-21.54-3.56-.73-.12-1.36-.39-1.61-1.16-.25-.78.14-1.34.66-1.86,4.6-4.68,7.76-10.16,9.25-16.58.68-2.93.97-5.91.96-8.92-.01-4.43.03-8.86,0-13.28-.08-10.08,6.75-18.09,14.39-21.41,1.23-.53,2.48-1.02,3.79-1.36.48-.12.67-.35.65-.87-.14-4.16,2.83-7.59,6.76-8.11.05,0,.09-.06.13-.09.56,0,1.12,0,1.68,0ZM14.88,75.86c.28.08.43.14.6.17,7.87,1.29,15.7,2.88,23.65,3.66,7.35.73,14.66.48,21.97-.47,5.47-.72,10.89-1.74,16.33-2.65,1.19-.2,2.38-.43,3.67-.66-.28-.36-.46-.6-.66-.84-2.71-3.21-4.89-6.75-6.46-10.66-1.5-3.74-2.41-7.62-2.62-11.66-.27-5.29-.07-10.59-.13-15.89-.01-1.06,0-2.13-.17-3.19-.92-6.26-4.18-11.01-9.53-14.23-5.44-3.27-11.44-4.08-17.67-3.21-4.79.66-9.15,2.38-12.78,5.66-4.44,4.01-6.91,8.95-6.83,15.03.03,2.38.01,4.76,0,7.15-.01,3.73.11,7.45-.32,11.17-.53,4.69-1.85,9.14-4.06,13.33-1.36,2.59-3.04,4.96-5.01,7.29ZM57.92,82.72c-6.63.69-13.17.68-19.82,0,4.92,6.93,15.15,6.73,19.82,0ZM47.72,8.1c-2.51,0-4.56,2-4.66,4.47-.02.43.09.54.51.49,2.76-.37,5.52-.43,8.29-.05.46.06.56-.11.55-.55-.06-2.35-2.2-4.36-4.68-4.35Z"/>
  <path class="cls-1" d="M47.88,20.62c3.42.05,6.59.64,9.61,1.96,1.01.44,1.42,1.27,1.07,2.14-.33.8-1.22,1.16-2.2.75-3.16-1.32-6.43-1.94-9.84-1.66-4.33.35-8.28,1.66-11.31,4.99-1.74,1.91-2.89,4.11-3.07,6.74-.02.25-.04.5-.08.75-.13,1-.77,1.55-1.68,1.48-.86-.07-1.4-.71-1.39-1.68.01-2.59.76-4.97,2.17-7.13,2.38-3.63,5.69-6.03,9.84-7.29,2.3-.7,4.64-1.01,6.89-1.06Z"/>
</svg>