<?xml version="1.0" encoding="UTF-8"?>
<svg id="Layer_1" data-name="Layer 1" xmlns="http://www.w3.org/2000/svg" viewBox="0 0 96 96">
  <path d="M48,9.48c-14.85,0-26.92,12.08-26.92,26.93s12.07,26.92,26.92,26.92,26.92-12.07,26.92-26.92-12.07-26.93-26.92-26.93ZM48,60.33c-13.23,0-23.94-10.69-23.94-23.93s10.7-23.94,23.94-23.94,23.93,10.7,23.93,23.94-10.69,23.93-23.93,23.93Z" fill="#b1b0b1"/>
  <path d="M90.32,81.29l-13.54-23.45c4.47-5.98,7.11-13.4,7.11-21.44C83.89,16.6,67.81.5,48,.5S12.11,16.6,12.11,36.41c0,8.03,2.65,15.45,7.11,21.44l-13.54,23.45c-.41.72-.16,1.63.56,2.04.31.18.68.24,1.03.17l14.31-2.83,4.7,13.81c.26.78,1.11,1.2,1.9.94.35-.12.64-.36.82-.68l13.23-22.91c1.88.3,3.81.47,5.77.47s3.89-.16,5.77-.47l13.23,22.91c.41.72,1.32.97,2.04.56.32-.18.56-.47.68-.82l4.7-13.81,14.31,2.83c.81.16,1.6-.37,1.76-1.18.07-.35.01-.72-.17-1.03ZM28.05,90.39l-4.06-11.92c-.24-.71-.97-1.13-1.7-.98l-12.37,2.44,11.32-19.61c4.68,5.24,10.88,9.09,17.89,10.88l-11.09,19.19ZM15.1,36.41C15.1,18.21,29.81,3.49,48,3.49s32.9,14.72,32.9,32.91-14.71,32.9-32.9,32.9S15.1,54.6,15.1,36.41ZM73.71,77.48c-.73-.14-1.46.28-1.7.98l-4.06,11.92-11.09-19.19c7.02-1.79,13.21-5.64,17.89-10.88l11.32,19.61-12.37-2.44Z" fill="#b1b0b1"/>
  <path d="M62.32,29.79c-2.64-1.05-5.44-1.55-8.15-2.23-1.56-2.38-2.92-4.98-4.65-7.07-.28-.29-.46-.75-1.52-.75s-1.24.46-1.52.75c-1.63,1.89-3.83,5.78-4.65,7.07-2.75.69-5.67,1.26-8.15,2.23-.36.18-.85.22-1.18,1.23-.33,1.01.05,1.32.23,1.68,1.2,2.02,4.63,5.81,5.29,6.6-.17,3.01-.58,5.73-.4,8.44.06.4-.06.88.79,1.5.86.62,1.28.36,1.68.3,2.36-.57,6.58-2.45,7.91-2.98,2.65,1.01,5.29,2.31,7.91,2.98.4.07.82.33,1.68-.3.86-.62.74-1.1.79-1.5.2-2.33-.33-7.41-.4-8.44,1.53-1.79,3.16-3.7,4.6-5.54.82-.89,1.16-1.84.92-2.74-.24-.9-.82-1.05-1.18-1.23ZM55.7,37.41c-.21.28-.37.4-.55.96-.18.56-.13.76-.12,1.1.11,2.32.33,4.54.43,6.83-2.48-.86-5.14-2.25-7.45-2.75-.59,0-.75.12-1.08.23-2.17.82-4.22,1.71-6.37,2.52.07-2.33.32-4.55.43-6.83,0-.35.06-.54-.12-1.1-.18-.56-.34-.68-.55-.96-1.42-1.79-3.1-3.69-4.35-5.28,2.23-.66,4.42-1.11,6.62-1.7.33-.1.53-.1,1-.45.48-.35.55-.54.75-.83.79-1.16,1.56-2.46,2.23-3.57.51-.84,1.02-1.62,1.44-2.21h0c1.31,1.92,2.42,3.87,3.67,5.77.2.28.27.48.75.83.48.35.67.35,1,.45,2.24.6,4.42,1.08,6.62,1.7-1.4,1.85-2.93,3.5-4.35,5.28Z" fill="#b1b0b1"/>
</svg>