<?xml version="1.0" encoding="UTF-8"?>
<svg id="Layer_1" data-name="Layer 1" xmlns="http://www.w3.org/2000/svg" viewBox="0 0 96 96">
  <path d="M93.76,45.45c-1.33-1.12-3.3-1.04-4.53.18-1.17,1.13-2.47,2.1-3.88,2.91-3.78,2.15-8.17,2.97-12.47,2.32.11-.95.17-1.9.18-2.85-.02-9.99-5.95-19.01-15.1-23,.99-2.45,2.5-4.66,4.42-6.47,2.33-2.21,5.17-3.81,8.26-4.67,1.65-.43,2.68-2.06,2.37-3.73-.23-1.72-1.75-2.97-3.48-2.85-5.67.27-11.12,2.24-15.65,5.65-2.28,1.71-4.28,3.76-5.91,6.09-2.35-3.3-5.38-6.05-8.9-8.06-3.9-2.23-8.28-3.49-12.77-3.69-1.72-.13-3.24,1.11-3.46,2.82-.28,1.69.78,3.32,2.44,3.76,1.57.44,3.08,1.07,4.49,1.88,3.69,2.1,6.57,5.38,8.18,9.31-9.11,4.01-15,13.01-15.02,22.96,0,.97.07,1.93.19,2.89-2.73.43-5.52.25-8.18-.52-3.09-.88-5.92-2.51-8.23-4.74-1.23-1.19-3.16-1.26-4.46-.14-1.34,1.07-1.65,2.98-.71,4.41,3.09,4.74,7.55,8.43,12.78,10.59,2.63,1.1,5.42,1.78,8.26,2.01-3.64,7.79-3.44,16.83.57,24.44.57,1.1,1.71,1.79,2.95,1.79.42,0,.84-.08,1.24-.23,1.62-.6,2.51-2.33,2.06-4-.4-1.56-.6-3.16-.6-4.77,0-4.27,1.47-8.4,4.14-11.73,8.91,6.75,21.22,6.74,30.12-.02,1.68,2.09,2.89,4.52,3.53,7.12.77,3.09.75,6.32-.04,9.4-.45,1.64.45,3.34,2.05,3.9,1.6.65,3.43-.03,4.23-1.57,2.6-5,3.61-10.67,2.88-16.26-.35-2.8-1.15-5.53-2.36-8.08,4.04-.36,7.96-1.59,11.49-3.6,3.89-2.22,7.18-5.33,9.62-9.08.95-1.41.66-3.31-.68-4.36ZM69.93,48c0,.71-.04,1.42-.11,2.13-.22-.07-.44-.12-.65-.19-5.3-1.87-9.5-6-11.45-11.28-1.27-3.4-1.52-7.11-.71-10.65,7.85,3.56,12.9,11.38,12.92,20ZM38.88,28.05c.06.26.14.52.19.78,1.01,5.52-.51,11.19-4.15,15.46-2.31,2.74-5.34,4.77-8.75,5.86-.07-.7-.11-1.42-.11-2.15.02-8.58,5.02-16.37,12.82-19.96ZM35.09,65.73c.14-.13.26-.26.41-.39,4.37-3.68,10.14-5.25,15.77-4.3,3.59.6,6.93,2.22,9.63,4.66-7.68,5.63-18.12,5.64-25.81.02ZM91.81,48.12c-2.15,3.34-5.08,6.11-8.54,8.07-3.79,2.16-8.07,3.29-12.42,3.29h-.05c-.87,0-1.57.7-1.57,1.57,0,.28.07.56.22.8,1.66,2.8,2.73,5.91,3.14,9.14.64,4.95-.25,9.98-2.55,14.41-.03.06-.09.18-.33.09-.17-.07-.16-.12-.14-.2,3.07-11.79-4-23.83-15.79-26.9-.66-.17-1.33-.31-2.01-.42-6.54-1.11-13.23.72-18.3,5-4.95,4.18-7.8,10.32-7.81,16.79,0,1.87.24,3.74.7,5.55.03.09.05.21-.15.28s-.23-.01-.28-.1c-3.91-7.45-3.71-16.39.55-23.65.44-.75.19-1.71-.56-2.14-.24-.14-.51-.22-.79-.22h-.12c-3.25.01-6.47-.62-9.47-1.87-4.65-1.91-8.61-5.19-11.36-9.4-.04-.07-.09-.15.07-.29.17-.14.23-.07.29-.02,2.68,2.58,5.94,4.47,9.52,5.5,8.48,2.4,17.58-.37,23.28-7.09,7.82-9.28,6.63-23.15-2.65-30.97-1.04-.88-2.17-1.66-3.36-2.33-1.64-.93-3.38-1.66-5.2-2.17-.1-.03-.22-.06-.19-.27.03-.17.1-.17.23-.17,8.47.36,16.17,5,20.46,12.31.28.48.8.78,1.35.78.56,0,1.08-.3,1.36-.78,1.62-2.84,3.81-5.31,6.42-7.27,4.03-3.04,8.88-4.8,13.93-5.04.08,0,.21,0,.24.22.03.17-.03.19-.12.21-3.58.99-6.87,2.85-9.57,5.4-6.35,6.05-8.49,15.3-5.44,23.52,4.4,11.58,17.35,17.4,28.93,13,1.1-.42,2.17-.92,3.19-1.51,1.63-.93,3.15-2.07,4.5-3.37.08-.11.23-.13.33-.05.01.01.03.02.04.03.13.1.1.16.04.25Z" fill="#b1b0b1"/>
  <path d="M48,41.74c-3.46,0-6.27,2.81-6.27,6.27s2.81,6.27,6.27,6.27,6.27-2.81,6.27-6.27-2.81-6.27-6.27-6.27ZM48,51.14c-1.73,0-3.13-1.4-3.13-3.13s1.4-3.13,3.13-3.13,3.13,1.4,3.13,3.13-1.4,3.13-3.13,3.13Z" fill="#b1b0b1"/>
</svg>