<?xml version="1.0" encoding="UTF-8"?>
<svg id="Layer_1" data-name="Layer 1" xmlns="http://www.w3.org/2000/svg" viewBox="0 0 96 96">
  <path d="M90.3,15.1H19.66c-.75-4.44-4.61-7.83-9.26-7.83C5.22,7.27,1,11.48,1,16.67v62.67c0,5.18,4.22,9.4,9.4,9.4h79.9c2.59,0,4.7-2.11,4.7-4.7V19.8c0-2.59-2.11-4.7-4.7-4.7ZM4.35,80.9c-.13-.5-.22-1.02-.22-1.56,0-2.91,2.01-5.34,4.7-6.04v3.11c-2.23.57-3.92,2.32-4.48,4.5ZM10.4,85.6c-.22,0-.42-.04-.63-.06h0c-1.43-.29-2.5-1.56-2.5-3.07s1.08-2.81,2.56-3.08c1.24-.23,2.14-1.31,2.14-2.57v-3.53c2.69.7,4.7,3.13,4.7,6.04,0,3.46-2.81,6.27-6.27,6.27ZM16.67,72.35c-1.67-1.49-3.86-2.41-6.27-2.41s-4.6.92-6.27,2.41V16.67c0-3.46,2.81-6.27,6.27-6.27s6.27,2.81,6.27,6.27v55.68ZM91.87,84.03c0,.86-.7,1.57-1.57,1.57H17.39c1.49-1.67,2.41-3.86,2.41-6.27V18.23h70.5c.86,0,1.57.7,1.57,1.57v64.23Z" fill="#b1b0b1"/>
  <path d="M27.63,38.6c.86,0,1.57-.7,1.57-1.57v-7.83h9.4c.86,0,1.57-.7,1.57-1.57s-.7-1.57-1.57-1.57h-10.97c-.86,0-1.57.7-1.57,1.57v9.4c0,.87.7,1.57,1.57,1.57Z" fill="#b1b0b1"/>
  <path d="M84.04,26.07h-36.03c-.86,0-1.57.7-1.57,1.57s.7,1.57,1.57,1.57h7.83v17.23c0,.87.7,1.57,1.57,1.57s1.57-.7,1.57-1.57v-6.27h4.7c.87,0,1.57-.7,1.57-1.57s-.7-1.57-1.57-1.57h-4.7v-7.83h12.53v12.53c0,.87.7,1.57,1.57,1.57s1.57-.7,1.57-1.57v-12.53h7.83v7.83c0,.87.7,1.57,1.57,1.57s1.57-.7,1.57-1.57v-9.4c0-.87-.7-1.57-1.57-1.57Z" fill="#b1b0b1"/>
  <path d="M84.03,44.87c-.87,0-1.57.7-1.57,1.57v9.4h-14.1c-.87,0-1.57.7-1.57,1.57s.7,1.57,1.57,1.57h3.13v6.27c0,.87.7,1.57,1.57,1.57s1.57-.7,1.57-1.57v-6.27h7.83v15.67h-20.37v-17.23c0-.87-.7-1.57-1.57-1.57s-1.57.7-1.57,1.57v17.23h-1.57c-.87,0-1.57.7-1.57,1.57s.7,1.57,1.57,1.57h26.63c.87,0,1.57-.7,1.57-1.57v-29.77c0-.87-.7-1.57-1.57-1.57Z" fill="#b1b0b1"/>
  <path d="M48,74.63h-1.57v-18.8c0-.87-.7-1.57-1.57-1.57h-4.7c-.86,0-1.57.7-1.57,1.57s.7,1.57,1.57,1.57h3.13v17.23h-14.1v-17.23h4.7c.86,0,1.57-.7,1.57-1.57s-.7-1.57-1.57-1.57h-4.7v-7.83c0-.87-.7-1.57-1.57-1.57s-1.57.7-1.57,1.57v29.77c0,.87.7,1.57,1.57,1.57h20.37c.86,0,1.57-.7,1.57-1.57s-.7-1.57-1.57-1.57Z" fill="#b1b0b1"/>
</svg>