<?xml version="1.0" encoding="UTF-8"?>
<svg id="Capa_1" data-name="Capa 1" xmlns="http://www.w3.org/2000/svg" viewBox="0 0 96 96">
  <defs>
    <style>
      .cls-1 {
        fill: #b1b0b1;
      }
    </style>
  </defs>
  <path class="cls-1" d="M82.24,2.33c0,30.08,0,60.16.02,90.24,0,.9-.22,1.11-1.11,1.11-19.74-.03-39.47-.02-59.21-.02-3.32,0-5.84-1.35-7.4-4.34-.59-1.13-.79-2.36-.79-3.62,0-24.79.04-49.58-.01-74.37,0-4.71,3.03-8.24,7.02-8.89.05,0,.09-.07.13-.11,20.45,0,40.91,0,61.36,0ZM39.62,47.91c-1.79,2.98-3.48,5.8-5.18,8.62-.46.76-.9,1.54-1.42,2.26-.55.76-1.35,1.06-2.28.83-.95-.24-1.56-.83-1.7-1.83-.06-.41-.09-.83-.09-1.24,0-12.07,0-24.14,0-36.21,0-.24-.02-.48,0-.71.04-.44-.16-.56-.57-.55-.98.02-1.96.05-2.94,0-.78-.05-1.05.14-1.05,1,.03,23.19.03,46.37,0,69.56,0,.84.24,1.01,1.04,1.01,17.6-.02,35.2-.02,52.8,0,.74,0,1-.12,1-.95-.03-23.22-.03-46.43,0-69.65,0-.81-.22-.97-.99-.97-8.95.03-17.9.03-26.84,0-.87,0-1.13.16-1.13,1.1.04,12.16.03,24.32.02,36.48,0,.44-.02.9-.12,1.33-.22,1.01-.99,1.62-2.02,1.69-1.14.08-1.81-.54-2.35-1.44-2.02-3.39-4.06-6.77-6.17-10.3ZM49.33,12.99c-4.92,0-9.64,0-14.36,0-.45,0-.61.23-.78.57-.6,1.23-1.21,2.45-1.84,3.66-.24.46-.36.92-.36,1.44,0,11.68,0,23.35.01,35.03,0,.21-.12.47.18.68,2.46-4.1,4.91-8.18,7.44-12.38,2.53,4.22,4.99,8.31,7.44,12.39.06-.03.12-.06.18-.09v-.97c0-11.47,0-22.94,0-34.4,0-.27.06-.56-.02-.8-.19-.57.04-1.04.28-1.51.58-1.16,1.16-2.32,1.81-3.62ZM51.24,15.99c.27.03.38.05.5.05,8.92,0,17.83,0,26.75.02.62,0,.74-.23.72-.78-.01-.51-.05-.82-.71-.8-1.78.04-3.57.03-5.35,0-.91-.02-1.5-.6-1.55-1.41-.05-.79.5-1.44,1.37-1.59.26-.04.53-.04.8-.04,1.55,0,3.09-.01,4.64,0,.51,0,.83-.03.81-.69-.02-.59-.12-.83-.78-.82-2.08.04-4.16.02-6.24,0-.38,0-.79-.02-1.14-.15-.65-.23-.99-.74-.96-1.44.03-.7.4-1.18,1.07-1.37.34-.09.71-.08,1.06-.08,2.08,0,4.16-.02,6.24,0,.5,0,.71-.09.75-.67.06-.82-.3-.89-.98-.89-18.52.02-37.04.01-55.55.02-.53,0-1.07.03-1.59.13-2.89.55-4.77,3.37-4.17,6.24.53,2.53,2.79,4.24,5.72,4.29,2.08.03,4.16,0,6.24.02.49,0,.74-.15.95-.59.75-1.58,1.59-3.12,2.32-4.71.3-.65.68-.82,1.36-.82,6.57.03,13.14.01,19.71.02.29,0,.59-.08.95.13-.96,1.93-1.91,3.86-2.93,5.9ZM16.78,17.56c0,.46,0,.73,0,1,0,22.29,0,44.59,0,66.88,0,.36,0,.72.05,1.07.29,1.94,1.37,3.25,3.24,3.87,1.24.41,1.29.35,1.29-.93,0-23.07,0-46.13,0-69.2,0-.24,0-.48,0-.71,0-.27-.07-.46-.38-.48-1.47-.1-2.83-.58-4.2-1.49Z"/>
</svg>