<?xml version="1.0" encoding="UTF-8"?>
<svg id="Layer_1" data-name="Layer 1" xmlns="http://www.w3.org/2000/svg" viewBox="0 0 96 96">
  <defs>
    <style>
      .cls-1, .cls-2 {
        fill: none;
        stroke: #b1b0b1;
        stroke-miterlimit: 10;
        stroke-width: 3px;
      }

      .cls-2 {
        fill-rule: evenodd;
      }
    </style>
  </defs>
  <g>
    <path class="cls-1" d="M14.39,77.92c3.61,1.11,6.24,4.47,6.24,8.45v8.05H1.5v-8.05c0-3.98,2.63-7.34,6.24-8.45"/>
    <circle class="cls-1" cx="11.07" cy="70.24" r="8.36"/>
  </g>
  <g>
    <path class="cls-1" d="M51.33,77.92c3.61,1.11,6.24,4.47,6.24,8.45v8.05h-19.13v-8.05c0-3.98,2.63-7.34,6.24-8.45"/>
    <circle class="cls-1" cx="48" cy="70.24" r="8.36"/>
  </g>
  <g>
    <path class="cls-1" d="M88.26,77.92c3.61,1.11,6.24,4.47,6.24,8.45v8.05h-19.13v-8.05c0-3.98,2.63-7.34,6.24-8.45"/>
    <circle class="cls-1" cx="84.94" cy="70.24" r="8.36"/>
  </g>
  <line class="cls-1" x1="18.97" y1="69.33" x2="39.98" y2="69.33"/>
  <line class="cls-1" x1="56.35" y1="69.71" x2="77" y2="69.71"/>
  <g>
    <path class="cls-2" d="M56.43,35.46v12.43c0,1-.81,1.81-1.81,1.81h-13.38c-1,0-1.81-.81-1.81-1.81v-12.34c0-1.16-.56-2.24-1.5-2.92-4.4-3.15-7.25-8.33-7.17-14.18.13-9.47,7.74-16.92,17.21-16.87,4.95.03,9.4,2.16,12.5,5.54,2.81,3.04,4.52,7.11,4.52,11.58,0,4.72-1.91,8.99-5,12.09-.65.65-1.34,1.24-2.09,1.78-.93.67-1.47,1.75-1.47,2.89Z"/>
    <path class="cls-1" d="M41.48,49.7h13.11v.46c0,2.57-2.09,4.66-4.66,4.66h-3.79c-2.57,0-4.66-2.09-4.66-4.66v-.46h0Z"/>
    <line class="cls-1" x1="39.42" y1="40.96" x2="56.43" y2="40.96"/>
    <path class="cls-1" d="M29.7,35.33c-4-4.71-6.18-10.95-5.61-17.59.44-5.17,2.49-9.81,5.61-13.48"/>
    <path class="cls-1" d="M65.58,3.44c4.46,4.79,6.95,11.38,6.34,18.41-.44,5.08-2.42,9.65-5.46,13.29"/>
    <path class="cls-1" d="M55.29,18.7c0-.53-.06-1.04-.16-1.54l3.93-2.68-1.94-3.37-4.29,2.07c-.76-.69-1.66-1.22-2.66-1.54l-.35-4.75h-3.89l-.35,4.75c-1,.32-1.9.86-2.66,1.54l-4.29-2.07-1.94,3.37,3.93,2.68c-.11.5-.16,1.01-.16,1.54s.06,1.04.16,1.54l-3.93,2.68,1.94,3.37,4.29-2.07c.76.69,1.66,1.22,2.66,1.54l.35,4.75h3.89l.35-4.75c1-.32,1.9-.86,2.66-1.54l4.29,2.07,1.94-3.37-3.93-2.68c.11-.5.16-1.01.16-1.54Z"/>
    <circle class="cls-1" cx="47.87" cy="18.7" r="2.59"/>
  </g>
</svg>