<?xml version="1.0" encoding="UTF-8"?>
<svg id="Capa_1" data-name="Capa 1" xmlns="http://www.w3.org/2000/svg" viewBox="0 0 96 96">
  <defs>
    <style>
      .cls-1 {
        fill: #b1b0b1;
      }
    </style>
  </defs>
  <path class="cls-1" d="M2.55,9.62c.35-.01.71-.03,1.06-.03,7.25,0,14.49,0,21.74,0,.56,0,.89-.08,1.08-.71,1.05-3.41,4.25-5.73,7.58-5.56,3.76.18,6.65,2.55,7.52,6.14,1.13,4.67-2.65,9.46-7.51,9.5-.89,0-1.58-.57-1.66-1.39-.08-.89.46-1.6,1.42-1.71.83-.1,1.63-.22,2.38-.64,1.7-.95,2.67-2.89,2.37-4.78-.31-1.97-1.78-3.5-3.74-3.91-1.89-.39-3.86.47-4.87,2.15-.15.24-.43.51-.28.79.13.24.49.09.74.1.68.02,1.36-.02,2.04.03.86.06,1.43.69,1.44,1.51,0,.81-.55,1.44-1.41,1.54-.35.04-.71.03-1.06.03-8.22,0-16.45.01-24.67-.02-.8,0-1.05.19-1.04,1.02.04,4.08.03,8.16,0,12.24,0,.69.17.89.88.89,27.63-.02,55.25-.02,82.88,0,.66,0,.85-.17.85-.84-.03-4.17-.03-8.34,0-12.51,0-.62-.18-.8-.8-.8-6.33.02-12.66.02-18.99,0-.52,0-.76.13-.94.67-1.11,3.33-3.42,5.21-6.93,5.57-1.18.12-1.94-.36-2.05-1.3-.12-1.03.49-1.68,1.71-1.79,1.97-.18,3.41-1.14,4.15-2.98,1.08-2.68-.5-5.62-3.32-6.27-.37-.09-.76-.1-1.14-.16-.96-.15-1.5-.81-1.41-1.71.08-.83.75-1.41,1.66-1.38,2.91.12,5.12,1.45,6.64,3.92.2.33.44.68.48,1.04.15,1.18.84,1.33,1.89,1.32,7.1-.05,14.2-.02,21.3-.04.66,0,.9.12.9.86-.02,27.12-.02,54.25,0,81.37,0,.88-.41.84-1.02.84-20.65,0-41.29,0-61.94,0-8.93,0-17.87,0-26.8,0-.38,0-.76.04-1.15.06,0-27.69,0-55.38,0-83.07ZM47.99,29.93c-13.72,0-27.45,0-41.17-.02-.87,0-1.14.18-1.14,1.11.03,19.11.02,38.21.02,57.32,0,1.33-.12,1.14,1.12,1.14,27.45,0,54.9,0,82.34,0,1.23,0,1.11.19,1.11-1.15,0-19.08,0-38.16,0-57.23,0-1.28.16-1.16-1.21-1.16-13.69,0-27.39,0-41.08,0Z"/>
  <path class="cls-1" d="M60.51,11.45c-.13,4.01-3.35,7.2-7.18,7.45-1.27.08-2.03-.32-2.15-1.27-.14-1.05.51-1.67,1.87-1.82,1.96-.23,3.36-1.23,4.04-3.11.97-2.68-.63-5.52-3.42-6.13-.37-.08-.76-.09-1.14-.16-.9-.15-1.43-.8-1.37-1.66.06-.84.72-1.45,1.62-1.42,2.76.1,4.93,1.29,6.47,3.58.88,1.31,1.25,2.79,1.25,4.54Z"/>
  <path class="cls-1" d="M43.46,3.33c4.14.1,7.28,3.21,7.63,7.57.29,3.54-2.63,7.22-6.28,7.91-.4.08-.82.09-1.23.13-.99.08-1.74-.5-1.82-1.38-.08-.92.49-1.62,1.52-1.7,1.36-.1,2.55-.53,3.46-1.56,1.18-1.34,1.57-2.9.99-4.61-.57-1.7-1.78-2.74-3.53-3.13-.32-.07-.64-.08-.97-.13-.97-.14-1.53-.78-1.47-1.67.06-.87.75-1.45,1.7-1.43Z"/>
  <path class="cls-1" d="M82.43,40.92c0,.82-.69,1.52-1.51,1.53-.87.02-1.57-.68-1.56-1.56,0-.85.65-1.51,1.5-1.53.87-.02,1.58.68,1.57,1.55Z"/>
  <path class="cls-1" d="M26.02,51.89c.81-.02,1.53.67,1.57,1.48.04.87-.64,1.61-1.5,1.63-.82.02-1.52-.65-1.56-1.48-.04-.88.63-1.61,1.49-1.63Z"/>
  <path class="cls-1" d="M71.45,53.48c-.01.84-.69,1.52-1.52,1.52-.85,0-1.56-.72-1.55-1.59.02-.82.71-1.52,1.52-1.53.85,0,1.55.72,1.54,1.59Z"/>
  <path class="cls-1" d="M71.45,40.9c0,.88-.69,1.58-1.56,1.56-.82-.02-1.5-.71-1.51-1.53,0-.87.7-1.57,1.57-1.55.84.02,1.49.68,1.5,1.53Z"/>
  <path class="cls-1" d="M38.57,53.47c-.01.81-.72,1.52-1.53,1.53-.85.01-1.58-.73-1.56-1.58.01-.81.72-1.52,1.52-1.53.83-.01,1.58.74,1.57,1.58Z"/>
  <path class="cls-1" d="M58.97,55c-.8,0-1.53-.69-1.56-1.5-.03-.84.7-1.61,1.54-1.61.8,0,1.52.69,1.55,1.5.03.85-.68,1.6-1.53,1.61Z"/>
  <path class="cls-1" d="M16.61,64.37c.02.89-.65,1.58-1.53,1.58-.84,0-1.51-.66-1.54-1.49-.02-.86.68-1.59,1.54-1.59.83,0,1.51.66,1.53,1.5Z"/>
  <path class="cls-1" d="M27.59,64.37c.02.88-.66,1.58-1.54,1.58-.85,0-1.51-.64-1.53-1.49-.02-.88.65-1.59,1.53-1.59.83,0,1.52.67,1.54,1.5Z"/>
  <path class="cls-1" d="M71.45,64.42c0,.85-.65,1.51-1.5,1.52-.88.02-1.57-.67-1.57-1.55,0-.86.73-1.56,1.59-1.53.84.03,1.48.71,1.47,1.55Z"/>
  <path class="cls-1" d="M80.9,65.95c-.85,0-1.51-.64-1.53-1.49-.02-.88.65-1.59,1.52-1.59.86,0,1.56.72,1.54,1.58-.02.83-.7,1.49-1.53,1.5Z"/>
  <path class="cls-1" d="M15.07,75.41c.85-.01,1.51.62,1.54,1.48.03.89-.63,1.59-1.51,1.6-.86.01-1.57-.7-1.56-1.57.01-.83.69-1.5,1.52-1.51Z"/>
  <path class="cls-1" d="M26.09,75.41c.88.02,1.54.74,1.5,1.62-.04.83-.74,1.48-1.57,1.46-.87-.02-1.53-.73-1.49-1.62.04-.85.71-1.48,1.56-1.45Z"/>
  <path class="cls-1" d="M48.01,39.38c.83.01,1.52.69,1.53,1.51.02.85-.72,1.58-1.57,1.56-.82-.01-1.52-.7-1.54-1.52-.02-.85.71-1.57,1.58-1.56Z"/>
  <path class="cls-1" d="M16.61,53.42c.01.87-.7,1.59-1.55,1.58-.82-.01-1.51-.71-1.52-1.53-.01-.86.72-1.59,1.56-1.58.82.01,1.49.7,1.51,1.53Z"/>
  <path class="cls-1" d="M49.54,53.47c-.02.84-.8,1.56-1.63,1.52-.81-.05-1.5-.78-1.48-1.58.02-.84.81-1.57,1.63-1.52.8.05,1.5.79,1.48,1.59Z"/>
  <path class="cls-1" d="M80.86,55c-.86-.02-1.53-.75-1.49-1.63.04-.83.74-1.5,1.56-1.48.85.02,1.54.78,1.51,1.63-.04.82-.75,1.5-1.57,1.48Z"/>
  <path class="cls-1" d="M48.03,62.87c.82.02,1.51.72,1.52,1.54,0,.85-.73,1.56-1.6,1.54-.83-.02-1.51-.71-1.52-1.53,0-.85.74-1.57,1.59-1.55Z"/>
  <path class="cls-1" d="M49.54,76.91c.03.81-.65,1.53-1.47,1.58-.85.05-1.61-.65-1.64-1.5-.03-.81.65-1.53,1.47-1.57.87-.04,1.61.63,1.64,1.49Z"/>
  <path class="cls-1" d="M38.57,40.9c0,.81-.68,1.53-1.5,1.55-.85.03-1.6-.68-1.6-1.53,0-.86.71-1.57,1.58-1.55.82.02,1.51.71,1.52,1.53Z"/>
  <path class="cls-1" d="M60.51,40.94c-.02.85-.77,1.55-1.62,1.51-.81-.04-1.49-.76-1.48-1.57.02-.86.76-1.54,1.62-1.5.84.04,1.49.74,1.47,1.56Z"/>
  <path class="cls-1" d="M37,62.87c.82-.01,1.53.66,1.57,1.47.04.85-.67,1.59-1.53,1.6-.84,0-1.52-.63-1.56-1.47-.04-.86.65-1.59,1.52-1.61Z"/>
  <path class="cls-1" d="M60.5,64.43c-.01.86-.74,1.55-1.61,1.52-.82-.03-1.5-.74-1.49-1.55.01-.81.71-1.51,1.53-1.52.86-.01,1.58.7,1.57,1.56Z"/>
  <path class="cls-1" d="M37.04,75.41c.82,0,1.51.69,1.53,1.51.01.85-.72,1.58-1.57,1.56-.83-.01-1.52-.69-1.53-1.52-.01-.86.7-1.57,1.57-1.56Z"/>
  <path class="cls-1" d="M58.93,78.49c-.81,0-1.52-.71-1.53-1.52-.01-.85.71-1.57,1.57-1.55.84.01,1.51.68,1.52,1.51.01.86-.7,1.57-1.57,1.56Z"/>
</svg>