<?xml version="1.0" encoding="UTF-8"?>
<svg id="Capa_1" data-name="Capa 1" xmlns="http://www.w3.org/2000/svg" viewBox="0 0 96 96">
  <defs>
    <style>
      .cls-1 {
        fill: #b1b0b1;
      }
    </style>
  </defs>
  <path class="cls-1" d="M17.72,1.02h11.93c.84.46,1.18,1.15,1.13,2.11-.06,1.13.02,2.26-.03,3.39-.03.62.2.77.78.76,1.93-.03,3.85-.01,5.78-.01,8.99,0,17.98,0,26.97.02.75,0,1.02-.17.97-.95-.07-1.07.03-2.14-.03-3.21-.05-.97.29-1.65,1.13-2.11h11.93c.84.52,1.1,1.31,1.06,2.26-.04.98.06,1.96-.03,2.93-.09.93.27,1.09,1.12,1.08,3.06-.05,6.11-.02,9.17-.02,1.73,0,2.25.51,2.25,2.24,0,27.73,0,55.46,0,83.19,0,1.79-.48,2.27-2.3,2.27-27.7,0-55.4,0-83.1,0-1.82,0-2.3-.48-2.3-2.27,0-27.73,0-55.46,0-83.19,0-1.73.51-2.24,2.25-2.24,3.09,0,6.18-.03,9.26.02.77.01,1.1-.12,1.03-.98-.09-1,0-2.02-.03-3.02-.03-.95.22-1.74,1.06-2.26ZM48.01,91.85c13.21,0,26.42,0,39.63.02.86,0,1.12-.17,1.12-1.08-.03-20.7-.03-41.4,0-62.1,0-.93-.29-1.07-1.13-1.07-26.42.02-52.83.02-79.25,0-.86,0-1.12.17-1.12,1.08.03,20.7.03,41.4,0,62.1,0,.93.29,1.07,1.13,1.07,13.21-.03,26.42-.02,39.63-.02ZM47.97,24.51c4.92,0,9.84,0,14.77,0,8.38,0,16.75,0,25.13,0,.55,0,.89,0,.88-.75-.04-4.22-.03-8.44,0-12.66,0-.56-.17-.73-.73-.73-2.63.03-5.26.03-7.89,0-.67,0-.82.24-.8.85.04,1.19.03,2.38,0,3.58-.03,1.25-.59,1.84-1.78,1.85-3.52.02-7.03.02-10.55,0-1.18,0-1.73-.59-1.76-1.76-.02-1.07,0-2.14,0-3.21-.01-1.47.19-1.28-1.24-1.29-4.49,0-8.99,0-13.48,0-6.3,0-12.6.01-18.89-.02-.68,0-.9.17-.87.87.06,1.16.02,2.32.01,3.48-.01,1.36-.54,1.92-1.87,1.92-3.42.02-6.85.01-10.27,0-1.38,0-1.92-.57-1.94-1.97-.02-1.16-.04-2.32,0-3.48.02-.64-.18-.83-.82-.82-2.57.03-5.14.05-7.7,0-.76-.02-.9.25-.89.94.03,4.04.04,8.07,0,12.11-.01.88.19,1.11,1.09,1.1,13.21-.03,26.41-.02,39.62-.02ZM19.8,8.91c0,1.31.02,2.62,0,3.94,0,.5.13.7.67.7,2.17-.02,4.33-.02,6.5,0,.5,0,.69-.13.68-.66-.02-2.68-.02-5.37,0-8.05,0-.49-.1-.7-.65-.69-2.17.03-4.33.03-6.5,0-.59,0-.72.22-.7.75.03,1.34,0,2.68,0,4.03ZM76.2,8.86c0-1.34-.02-2.69,0-4.03,0-.49-.12-.7-.66-.7-2.17.03-4.33.02-6.5,0-.5,0-.69.11-.69.65.03,2.68.02,5.37,0,8.05,0,.48.09.71.64.7,2.17-.03,4.33-.03,6.5,0,.59,0,.72-.22.71-.75-.03-1.31,0-2.62,0-3.94Z"/>
  <path class="cls-1" d="M47.9,82.46c-9.54,0-19.08-.01-28.62.02-.87,0-1.04-.26-1.04-1.07.02-14.43.03-28.87,0-43.3,0-.88.2-1.11,1.1-1.11,19.11.03,38.22.03,57.33,0,.91,0,1.09.25,1.09,1.12-.03,14.43-.03,28.87,0,43.3,0,.83-.2,1.07-1.05,1.06-9.6-.03-19.2-.02-28.8-.02ZM26.78,65.24c1.62,0,3.24-.02,4.85.01.56.01.73-.17.73-.73-.02-3.18-.01-6.35,0-9.53,0-.43,0-.76-.6-.75-3.27.02-6.53.02-9.8,0-.44,0-.57.16-.57.59.01,3.27.02,6.53,0,9.8,0,.49.17.62.64.61,1.59-.02,3.18,0,4.76,0ZM69.2,54.25c-1.59,0-3.18.02-4.76-.01-.58-.01-.81.13-.8.75.03,3.18.02,6.35,0,9.53,0,.56.17.73.73.73,3.18-.02,6.35-.03,9.53,0,.65,0,.74-.25.73-.8-.02-3.14-.02-6.29,0-9.43,0-.59-.15-.79-.76-.78-1.56.04-3.11.01-4.67.01ZM26.8,40.16c-1.56,0-3.12.02-4.68,0-.52,0-.76.1-.76.7.03,3.21.02,6.42,0,9.63,0,.53.17.66.68.66,3.21-.02,6.42-.02,9.63,0,.52,0,.68-.16.68-.68-.02-3.18-.02-6.36,0-9.54,0-.61-.2-.79-.79-.77-1.59.03-3.18.01-4.77.01ZM69.14,51.13c1.59,0,3.18-.02,4.77.01.57.01.72-.16.72-.72-.03-3.18-.02-6.36,0-9.54,0-.55-.15-.74-.72-.73-3.18.02-6.36.02-9.54,0-.56,0-.74.18-.73.74.02,3.18.02,6.36,0,9.54,0,.58.19.72.74.71,1.59-.03,3.18-.01,4.77-.01ZM21.39,73.87c0,1.59.02,3.18,0,4.77,0,.5.12.7.66.7,3.21-.02,6.42-.02,9.63,0,.51,0,.7-.15.7-.68-.02-3.21-.02-6.42,0-9.63,0-.52-.16-.68-.68-.68-3.21.02-6.42.03-9.63,0-.62,0-.69.25-.68.76.02,1.59,0,3.18,0,4.77ZM63.65,73.87c0,1.59.01,3.18,0,4.77,0,.51.16.7.68.7,3.21-.02,6.42-.02,9.63,0,.52,0,.68-.16.68-.68-.02-3.21-.02-6.42,0-9.63,0-.51-.13-.68-.66-.68-3.21.02-6.42.03-9.63,0-.6,0-.71.23-.7.76.03,1.59,0,3.18,0,4.77ZM35.49,45.71c0,1.59.01,3.18,0,4.77,0,.44.07.66.59.66,3.24-.02,6.48-.02,9.72,0,.47,0,.64-.14.64-.62-.01-3.24-.01-6.48,0-9.72,0-.48-.18-.64-.65-.63-3.21.01-6.42.02-9.63,0-.54,0-.68.19-.67.7.02,1.62,0,3.24,0,4.86ZM55.03,51.13c1.59,0,3.18-.02,4.77.01.57.01.73-.16.72-.72-.02-3.18-.02-6.36,0-9.54,0-.56-.17-.73-.73-.73-3.15.02-6.3.02-9.45,0-.61,0-.79.2-.78.79.02,3.15.03,6.3,0,9.45,0,.63.22.76.79.75,1.56-.03,3.12-.01,4.68-.01ZM46.43,59.78c0-1.59-.02-3.18.01-4.76.01-.6-.17-.78-.78-.78-3.15.03-6.29.03-9.44,0-.63,0-.75.23-.75.8.02,3.15.02,6.29,0,9.44,0,.59.15.79.77.78,3.15-.03,6.29-.03,9.44,0,.63,0,.77-.22.76-.79-.03-1.56-.01-3.11-.01-4.67ZM60.51,59.8c0-1.62-.01-3.24,0-4.86,0-.49-.1-.71-.65-.7-3.21.02-6.41.02-9.62,0-.53,0-.69.17-.68.68.02,3.21.01,6.41,0,9.62,0,.49.12.7.67.7,3.21-.02,6.41-.02,9.62,0,.53,0,.68-.18.67-.68-.03-1.59,0-3.18,0-4.76ZM40.99,68.36c-1.59,0-3.18.02-4.77-.01-.53,0-.75.1-.75.7.03,3.18.02,6.36,0,9.54,0,.53.12.76.71.75,3.18-.02,6.36-.02,9.54,0,.6,0,.71-.25.71-.77-.02-3.18-.02-6.36,0-9.54,0-.51-.15-.69-.68-.68-1.59.03-3.18.01-4.77.01ZM60.51,73.87c0-1.59-.02-3.18,0-4.77,0-.52-.09-.76-.69-.75-3.18.03-6.36.03-9.54,0-.56,0-.73.16-.73.72.02,3.18.02,6.36,0,9.54,0,.57.21.73.75.73,3.15-.02,6.3-.02,9.45,0,.62,0,.78-.21.76-.8-.03-1.56-.01-3.12-.01-4.68Z"/>
</svg>