<?xml version="1.0" encoding="UTF-8"?>
<svg id="Layer_1" data-name="Layer 1" xmlns="http://www.w3.org/2000/svg" viewBox="0 0 96 96">
  <defs>
    <style>
      .cls-1 {
        fill: #b1b0b1;
      }
    </style>
  </defs>
  <rect class="cls-1" x="27.18" y="27.48" width="41.33" height="3"/>
  <rect class="cls-1" x="27.18" y="36.44" width="32.59" height="3"/>
  <rect class="cls-1" x="27.18" y="19.38" width="25.48" height="3"/>
  <polygon class="cls-1" points="79.7 83.64 64.54 83.64 64.54 80.64 76.7 80.64 76.7 19.69 60.35 3.34 19.29 3.34 19.29 80.64 47.85 80.64 47.85 83.64 16.29 83.64 16.29 .34 61.59 .34 79.7 18.45 79.7 83.64"/>
  <path class="cls-1" d="M56.17,75.6c-8.93,0-16.19-7.26-16.19-16.19s7.26-16.19,16.19-16.19,16.19,7.26,16.19,16.19-7.26,16.19-16.19,16.19ZM56.17,46.23c-7.27,0-13.19,5.92-13.19,13.19s5.92,13.19,13.19,13.19,13.19-5.92,13.19-13.19-5.92-13.19-13.19-13.19Z"/>
  <polygon class="cls-1" points="55.19 65.07 51.08 61 53.19 58.86 55 60.66 59.83 54.99 62.11 56.94 55.19 65.07"/>
  <polygon class="cls-1" points="46.34 95.7 46.34 71.15 49.34 71.15 49.34 89.97 56.14 85.28 63.04 89.99 63.04 71.15 66.04 71.15 66.04 95.68 56.15 88.92 46.34 95.7"/>
  <path class="cls-1" d="M56.17,70.94c-6.36,0-11.53-5.17-11.53-11.53s5.17-11.53,11.53-11.53,11.53,5.17,11.53,11.53-5.17,11.53-11.53,11.53ZM56.17,50.89c-4.7,0-8.53,3.83-8.53,8.53s3.83,8.53,8.53,8.53,8.53-3.83,8.53-8.53-3.82-8.53-8.53-8.53Z"/>
  <polygon class="cls-1" points="78.21 20.57 59.47 20.57 59.47 1.84 62.47 1.84 62.47 17.57 78.21 17.57 78.21 20.57"/>
</svg>