<?xml version="1.0" encoding="UTF-8"?>
<svg id="Layer_1" data-name="Layer 1" xmlns="http://www.w3.org/2000/svg" viewBox="0 0 96 96">
  <defs>
    <style>
      .cls-1 {
        fill: #b1b0b1;
      }
    </style>
  </defs>
  <g id="cloud-internet-computer-laptop-smartphone">
    <path class="cls-1" d="M30.64,24.53l2.17,2.17c8.35-8.38,21.92-8.4,30.29-.05.02.02.03.03.05.05l2.17-2.17c-9.55-9.58-25.05-9.6-34.63-.05-.02.02-.03.03-.05.05h0Z"/>
    <path class="cls-1" d="M34.96,28.85l2.16,2.17c5.99-5.99,15.7-5.99,21.7,0l2.16-2.17c-7.19-7.18-18.83-7.18-26.02,0h0Z"/>
    <path class="cls-1" d="M39.3,33.19l2.17,2.17c3.59-3.59,9.42-3.59,13.01,0,0,0,0,0,0,0l2.17-2.17c-4.79-4.79-12.56-4.79-17.35,0h0s0,0,0,0Z"/>
    <path class="cls-1" d="M47.98,35.73c-2.54,0-4.6,2.06-4.6,4.6s2.06,4.6,4.6,4.6,4.6-2.06,4.6-4.6-2.06-4.6-4.6-4.6ZM47.98,41.87c-.85,0-1.53-.69-1.53-1.53s.69-1.53,1.53-1.53,1.53.69,1.53,1.53-.69,1.53-1.53,1.53Z"/>
    <path class="cls-1" d="M92.45,84.8v-10.73c0-2.54-2.06-4.59-4.6-4.6h-7.67v-6.13c0-.85-.69-1.53-1.53-1.53h-26.34c-.47-1.3-1.49-2.32-2.79-2.79v-1.81h27.6c9.32.03,16.89-7.5,16.92-16.82.03-8.2-5.84-15.22-13.91-16.66-.67-7.09-6.62-12.52-13.74-12.53-1.41,0-2.81.21-4.16.64C53.28.58,36.9-1.3,25.63,7.65c-5.03,3.99-8.4,9.7-9.48,16.03-9.2,1.48-15.45,10.14-13.97,19.34,1.32,8.18,8.37,14.19,16.65,14.19h27.6v1.81c-1.3.47-2.32,1.49-2.79,2.79h-26.34c-.85,0-1.53.69-1.53,1.53v3.07H6.57c-2.54,0-4.59,2.06-4.6,4.6v12.27c0,2.54,2.06,4.59,4.6,4.6h6.13v3.07h-3.07v3.07h15.33v-3.07h-3.07v-3.07h6.13c2.54,0,4.59-2.06,4.6-4.6v-12.27c0-2.54-2.06-4.59-4.6-4.6h-9.2v-1.53h24.81c.47,1.3,1.49,2.32,2.79,2.79v1.81h-3.07c-2.54,0-4.59,2.06-4.6,4.6v15.33c0,2.54,2.06,4.59,4.6,4.6h9.2c2.54,0,4.59-2.06,4.6-4.6v-15.33c0-2.54-2.06-4.59-4.6-4.6h-3.07v-1.81c1.3-.47,2.32-1.49,2.79-2.79h24.81v4.6h-7.67c-2.54,0-4.59,2.06-4.6,4.6v10.73c-.85,0-1.53.69-1.53,1.53v3.07c0,2.54,2.06,4.59,4.6,4.6h21.47c2.54,0,4.59-2.06,4.6-4.6v-3.07c0-.85-.69-1.53-1.53-1.53ZM18.84,90.94h-3.07v-3.07h3.07v3.07ZM29.57,83.27c0,.85-.69,1.53-1.53,1.53H6.57c-.85,0-1.53-.69-1.53-1.53v-1.53h24.54v1.53ZM28.04,69.47c.85,0,1.53.69,1.53,1.53v7.67H5.04v-7.67c0-.85.69-1.53,1.53-1.53h21.47ZM18.84,54.13c-7.62-.06-13.76-6.28-13.7-13.9.05-7.08,5.45-12.98,12.5-13.64.72-.07,1.3-.63,1.38-1.35,1.54-12.59,13.01-21.55,25.6-20.01,6.34.78,12.07,4.16,15.82,9.34.42.57,1.17.78,1.82.51,5.49-2.26,11.77.35,14.03,5.83.54,1.32.82,2.74.81,4.16,0,.78.6,1.44,1.38,1.52,7.59.72,13.16,7.45,12.44,15.04-.67,7.12-6.67,12.55-13.82,12.5H18.84ZM52.58,72.54c.85,0,1.53.69,1.53,1.53v15.33c0,.85-.69,1.53-1.53,1.53h-9.2c-.85,0-1.53-.69-1.53-1.53v-15.33c0-.85.69-1.53,1.53-1.53h9.2ZM47.98,64.87c-.85,0-1.53-.69-1.53-1.53s.69-1.53,1.53-1.53,1.53.69,1.53,1.53-.69,1.53-1.53,1.53ZM67.91,74.07c0-.85.69-1.53,1.53-1.53h18.4c.85,0,1.53.69,1.53,1.53v10.73h-21.47v-10.73ZM90.91,89.4c0,.85-.69,1.53-1.53,1.53h-21.47c-.85,0-1.53-.69-1.53-1.53v-1.53h24.54v1.53Z"/>
    <rect class="cls-1" x="44.91" y="86.34" width="6.13" height="3.07"/>
  </g>
</svg>