<?xml version="1.0" encoding="UTF-8"?>
<svg id="Capa_1" data-name="Capa 1" xmlns="http://www.w3.org/2000/svg" viewBox="0 0 96 96">
  <defs>
    <style>
      .cls-1 {
        fill: #b1b0b1;
      }
    </style>
  </defs>
  <path class="cls-1" d="M48,89.54c-.52,0-1.04-.12-1.51-.35-1.32-.66-32.4-16.6-32.4-48.82v-23.89l1.34.09c14.5,1.02,30.55-9.44,30.71-9.55,1.13-.75,2.6-.76,3.74,0,.14.09,14.72,9.61,28.67,9.61h3.37v23.73c0,32.23-31.08,48.16-32.4,48.82-.47.24-.99.35-1.51.35ZM16.59,19.13v21.24c0,30.7,29.75,45.95,31.02,46.59.24.12.53.12.78,0,1.27-.63,31.02-15.89,31.02-46.59v-21.23h-.87c-14.68,0-29.43-9.62-30.05-10.03-.3-.2-.68-.2-.97,0-.67.44-16.03,10.42-30.93,10.02Z"/>
</svg>