<?xml version="1.0" encoding="UTF-8"?>
<svg id="Layer_1" data-name="Layer 1" xmlns="http://www.w3.org/2000/svg" viewBox="0 0 96 96">
  <path d="M88.73,1H7.27C3.81,1,1,3.81,1,7.27v59.53c0,3.46,2.81,6.27,6.27,6.27h21.93v5.46l-10.31,7.36s-.07.07-.11.1c-.06.05-.11.09-.16.15-.08.1-.15.2-.21.31-.03.05-.06.1-.08.16-.07.18-.1.37-.1.55v4.7c0,1.73,1.4,3.13,3.13,3.13h53.27c1.73,0,3.13-1.4,3.13-3.13v-4.7c0-.19-.04-.37-.11-.55-.03-.06-.05-.11-.08-.16-.06-.11-.12-.21-.21-.3-.05-.05-.1-.1-.15-.15-.04-.03-.07-.08-.11-.1l-10.31-7.37v-5.46h21.93c3.46,0,6.27-2.81,6.27-6.27V7.27c0-3.46-2.81-6.27-6.27-6.27ZM74.63,91.87H21.37v-3.13h53.27v3.13ZM71.31,85.6H24.69l6.58-4.7h33.46l6.58,4.7ZM32.33,77.77v-4.7h31.33v4.7h-31.33ZM91.87,66.8c0,1.73-1.4,3.13-3.13,3.13H7.27c-1.73,0-3.13-1.4-3.13-3.13v-6.27h87.73v6.27ZM91.87,57.4H4.13V7.27c0-1.73,1.4-3.13,3.13-3.13h81.47c1.73,0,3.13,1.4,3.13,3.13v50.13Z" fill="#b1b0b1"/>
  <path d="M44.87,66.8h6.27c.87,0,1.57-.7,1.57-1.57s-.7-1.57-1.57-1.57h-6.27c-.87,0-1.57.7-1.57,1.57s.7,1.57,1.57,1.57Z" fill="#b1b0b1"/>
  <path d="M38.12,17.14c-.6-.6-1.58-.61-2.2-.02l-12.53,12.53c-.61.61-.61,1.6,0,2.22l12.53,12.53c.61.59,1.59.59,2.2-.02.6-.6.61-1.58.02-2.2l-11.43-11.43,11.43-11.43c.59-.61.59-1.59-.02-2.2Z" fill="#b1b0b1"/>
  <path d="M60.07,17.13c-.61-.59-1.59-.59-2.2.02s-.61,1.58-.02,2.2l11.43,11.43-11.43,11.43c-.61.61-.61,1.6,0,2.22s1.6.61,2.22,0l12.53-12.53c.61-.61.61-1.6,0-2.22l-12.53-12.53Z" fill="#b1b0b1"/>
  <path d="M52.44,16.69c-.55.09-1.01.47-1.21,1l-9.4,25.07c-.3.81.11,1.71.92,2.01.18.06.36.1.55.1.65,0,1.24-.41,1.47-1.02l9.4-25.07c.2-.52.1-1.11-.26-1.55-.36-.43-.92-.64-1.47-.55Z" fill="#b1b0b1"/>
</svg>