<?xml version="1.0" encoding="UTF-8"?>
<svg id="Layer_1" xmlns="http://www.w3.org/2000/svg" version="1.1" viewBox="0 0 96 96">
  <!-- Generator: Adobe Illustrator 29.3.1, SVG Export Plug-In . SVG Version: 2.1.0 Build 151)  -->
  <defs>
    <style>
      .st0 {
        fill: #b1b0b1;
      }
    </style>
  </defs>
  <path class="st0" d="M27.1,56.6c0,.4.2.8.5,1.1l9.8,8.4c.3.2.6.3.9.3s.8-.2,1.1-.5c.2-.3.4-.6.3-1s-.2-.7-.5-1l-8.6-7.3h.1c0,0,8.5-7.3,8.5-7.3.6-.5.7-1.4.2-2-.3-.3-.7-.5-1.1-.5s-.6.1-.9.3l-9.8,8.4c-.3.3-.5.7-.5,1.1Z"/>
  <path class="st0" d="M57.7,66.3c.3,0,.7-.1.9-.3l9.8-8.4c.3-.3.5-.7.5-1.1s-.2-.8-.5-1.1l-9.8-8.4c-.3-.2-.6-.3-.9-.3s0,0-.1,0c-.4,0-.7.2-1,.5s-.4.6-.3,1c0,.4.2.7.5.9l8.6,7.3-8.6,7.3c-.3.2-.5.6-.5,1,0,.4,0,.7.3,1,.3.3.7.5,1.1.5Z"/>
  <path class="st0" d="M43.2,70.9c0,.4,0,.7.2,1,.2.3.5.5.9.6,0,0,.2,0,.3,0,.7,0,1.2-.5,1.4-1.1l6.1-29.1c.2-.8-.3-1.5-1.1-1.7h0c0,0-.2,0-.3,0-.6,0-1.2.5-1.4,1.1l-6.1,29.1Z"/>
  <path class="st0" d="M83.8,7.5H12.2c-5.6,0-10.1,4.5-10.1,10.1v60.8c0,5.6,4.5,10.1,10.1,10.1h71.6c5.6,0,10.1-4.5,10.1-10.1V17.6c0-5.6-4.5-10.1-10.1-10.1ZM91.1,78.4c0,4-3.3,7.3-7.3,7.3H12.2c-4,0-7.3-3.3-7.3-7.3V31.6h86.2v46.8ZM91.1,28.8H4.9v-11.2c0-4,3.3-7.3,7.3-7.3h71.6c4,0,7.3,3.3,7.3,7.3v11.2Z"/>
  <path class="st0" d="M28,15c-2.6,0-4.7,2.1-4.7,4.7s2.1,4.7,4.7,4.7,4.7-2.1,4.7-4.7-2.1-4.7-4.7-4.7ZM28,21.6c-1,0-1.9-.8-1.9-1.9s.8-1.9,1.9-1.9,1.9.8,1.9,1.9-.8,1.9-1.9,1.9Z"/>
  <path class="st0" d="M13.2,14.9c-2.6,0-4.7,2.1-4.7,4.7s2.1,4.7,4.7,4.7,4.7-2.1,4.7-4.7-2.1-4.7-4.7-4.7ZM13.2,21.5c-1,0-1.9-.8-1.9-1.9s.8-1.9,1.9-1.9,1.9.8,1.9,1.9-.8,1.9-1.9,1.9Z"/>
  <path class="st0" d="M42.7,15c-2.6,0-4.7,2.1-4.7,4.7s2.1,4.7,4.7,4.7,4.7-2.1,4.7-4.7-2.1-4.7-4.7-4.7ZM42.7,21.6c-1,0-1.9-.8-1.9-1.9s.8-1.9,1.9-1.9,1.9.8,1.9,1.9-.8,1.9-1.9,1.9Z"/>
</svg>