<?xml version="1.0" encoding="UTF-8"?>
<svg id="Layer_1" data-name="Layer 1" xmlns="http://www.w3.org/2000/svg" viewBox="0 0 96 96">
  <path d="M90.3,1H5.7C3.1,1,1,3.1,1,5.7v70.5c0,2.6,2.1,4.7,4.7,4.7h31.09c-1.15,3.62-6.1,4.68-6.33,4.73-3.33.17-5.94,2.9-5.95,6.24,0,1.73,1.4,3.13,3.13,3.13h40.73c1.73,0,3.13-1.4,3.13-3.13-.01-3.33-2.63-6.07-5.95-6.24-.06-.01-5.14-1.08-6.32-4.73h31.08c2.6,0,4.7-2.1,4.7-4.7V5.7c0-2.6-2.1-4.7-4.7-4.7ZM65.23,88.73c1.73,0,3.13,1.4,3.13,3.13H27.63c0-1.73,1.4-3.13,3.13-3.13h34.47ZM37.28,85.6c1.4-1.22,2.36-2.87,2.73-4.7h15.98c.37,1.82,1.33,3.48,2.73,4.7h-21.44ZM91.87,76.2c0,.87-.7,1.57-1.57,1.57H5.7c-.87,0-1.57-.7-1.57-1.57v-3.13h87.73v3.13ZM91.87,69.93H4.13V5.7c0-.87.7-1.57,1.57-1.57h84.6c.87,0,1.57.7,1.57,1.57v64.23Z" fill="#b1b0b1"/>
  <path d="M48,30.77c-3.46,0-6.27,2.81-6.27,6.27s2.81,6.27,6.27,6.27,6.27-2.81,6.27-6.27-2.81-6.27-6.27-6.27ZM48,40.17c-1.73,0-3.13-1.4-3.13-3.13s1.4-3.13,3.13-3.13,3.13,1.4,3.13,3.13-1.4,3.13-3.13,3.13Z" fill="#b1b0b1"/>
  <path d="M72.23,22.25c-1.07-1.82-2.84-3.11-4.9-3.56-3.17-.66-6.45-.58-9.58.24-2.26-6.24-5.73-10.1-9.76-10.1s-7.5,3.86-9.76,10.1c-3.13-.82-6.41-.9-9.57-.24-2.06.45-3.84,1.74-4.9,3.56-2.02,3.72-.12,9.2,4.51,14.78-4.63,5.57-6.53,11.06-4.51,14.78,1.07,1.82,2.84,3.11,4.9,3.56,1.25.32,2.53.47,3.82.45,1.94-.03,3.87-.27,5.75-.71,2.26,6.25,5.73,10.12,9.76,10.12s7.5-3.86,9.76-10.12c1.89.44,3.82.68,5.75.71,1.29.02,2.57-.14,3.82-.45,2.06-.45,3.84-1.74,4.9-3.56,2.02-3.72.12-9.2-4.51-14.78,4.63-5.57,6.53-11.06,4.51-14.78ZM29.48,52.35c-1.23-.24-2.3-.97-2.96-2.04-1.24-2.28.18-6.38,3.86-10.93,1.71,1.76,3.54,3.4,5.48,4.9.28,2.65.76,5.28,1.45,7.85-2.56.66-5.24.73-7.83.21ZM35.53,39.95c-1.11-.97-2.13-1.95-3.06-2.92.93-.97,1.94-1.94,3.06-2.92-.04.96-.06,1.93-.06,2.92s.02,1.96.06,2.92ZM35.87,29.79c-1.94,1.51-3.77,3.14-5.48,4.9-3.68-4.55-5.1-8.65-3.86-10.94.66-1.06,1.73-1.8,2.96-2.04,1-.25,2.02-.36,3.05-.35,1.61.03,3.22.22,4.79.57-.68,2.57-1.17,5.2-1.45,7.85ZM56.61,27.21c-.76-.51-1.55-1.02-2.35-1.51-.88-.54-1.76-1.04-2.64-1.53h0c1.37-.56,2.71-1.03,4.02-1.43.38,1.38.71,2.88.97,4.47ZM48,11.97c2.35,0,4.83,2.9,6.66,7.78-2.28.71-4.5,1.57-6.66,2.58-2.16-1.01-4.38-1.87-6.66-2.58,1.83-4.89,4.31-7.79,6.66-7.79ZM40.37,22.74c1.31.4,2.65.86,4.02,1.42-.88.48-1.76.99-2.64,1.53-.81.49-1.59,1-2.35,1.52.27-1.59.6-3.09.97-4.47ZM39.4,46.86c.76.52,1.55,1.02,2.35,1.52h0c.88.54,1.76,1.04,2.64,1.53-1.37.56-2.71,1.04-4.02,1.44-.4-1.48-.73-2.97-.98-4.48ZM48,62.1c-2.35,0-4.84-2.9-6.67-7.8,2.28-.7,4.51-1.56,6.67-2.57,2.16,1.01,4.39,1.87,6.67,2.57-1.83,4.9-4.32,7.8-6.67,7.8ZM55.63,51.34c-1.31-.4-2.65-.87-4.02-1.44.88-.48,1.76-.99,2.64-1.53.8-.49,1.59-1,2.35-1.51h0c-.25,1.51-.58,3-.98,4.48ZM57.15,42.64c-1.41,1.05-2.92,2.07-4.53,3.07-1.53.94-3.07,1.79-4.61,2.56-1.54-.77-3.09-1.62-4.62-2.56-1.62-.99-3.13-2.02-4.53-3.07-.16-1.78-.25-3.65-.25-5.6s.09-3.82.25-5.6c1.41-1.05,2.92-2.07,4.53-3.07,1.53-.94,3.08-1.78,4.62-2.54,1.54.77,3.08,1.6,4.61,2.54,1.62.99,3.13,2.02,4.53,3.07.16,1.78.25,3.65.25,5.6s-.09,3.82-.25,5.6ZM69.48,50.32h0c-.66,1.06-1.73,1.8-2.96,2.04-2.59.52-5.27.45-7.83-.21.68-2.58,1.17-5.2,1.45-7.85,1.94-1.51,3.77-3.14,5.48-4.9,3.69,4.54,5.1,8.64,3.86,10.93ZM60.47,34.12h0c1.11.97,2.13,1.95,3.06,2.92-.93.97-1.94,1.94-3.06,2.92.04-.96.06-1.93.06-2.92s-.02-1.96-.06-2.92ZM65.62,34.68c-1.71-1.76-3.54-3.4-5.48-4.9-.28-2.65-.76-5.27-1.45-7.85,1.57-.35,3.18-.54,4.79-.57,1.03-.01,2.05.11,3.05.36,1.23.24,2.3.97,2.96,2.04,1.24,2.28-.17,6.38-3.86,10.92Z" fill="#b1b0b1"/>
</svg>