<?xml version="1.0" encoding="UTF-8"?>
<svg id="Capa_1" data-name="Capa 1" xmlns="http://www.w3.org/2000/svg" viewBox="0 0 96 96">
  <defs>
    <style>
      .cls-1 {
        fill: #b1b0b1;
      }
    </style>
  </defs>
  <path class="cls-1" d="M72.46,6.53c1.56.38,3.16.6,4.69,1.14,8.27,2.9,13.53,11.87,12.08,20.54-.69,4.14-2.52,7.65-5.46,10.6-6.12,6.13-12.24,12.27-18.39,18.38-6.01,5.96-14.2,7.36-21.84,3.77-1.8-.85-3.38-2.02-4.8-3.4-.73-.71-.79-1.56-.22-2.24.58-.68,1.54-.76,2.3-.06,1.61,1.47,3.35,2.74,5.41,3.46,6.29,2.2,11.96,1.07,16.73-3.58,6.32-6.16,12.55-12.42,18.73-18.72,6.5-6.62,6.15-16.76-.75-22.9-5.9-5.25-15.43-5.25-21.49.89-4.55,4.61-9.16,9.17-13.74,13.75-1.03,1.03-1.93,1.2-2.66.5-.77-.73-.62-1.65.45-2.72,4.86-4.84,9.67-9.72,14.59-14.5,2.81-2.73,6.29-4.2,10.17-4.73.26-.04.52-.11.78-.17,1.13,0,2.27,0,3.4,0Z"/>
  <path class="cls-1" d="M6.53,69.06c.35-1.55.54-3.12,1.08-4.63.94-2.61,2.34-4.92,4.29-6.87,6.22-6.23,12.37-12.52,18.72-18.61,6.1-5.84,16.34-6.3,23.18-1.32.81.59,1.58,1.22,2.3,1.91.76.74.84,1.62.23,2.3-.59.67-1.54.72-2.3,0-2.07-1.93-4.42-3.38-7.19-4.01-5.73-1.32-10.77.05-14.96,4.17-5.91,5.81-11.77,11.67-17.58,17.58-5.68,5.77-6.21,14.23-1.39,20.67,5.3,7.09,16.21,8.21,22.68,2.18,4.26-3.97,8.29-8.2,12.42-12.31.25-.25.5-.5.79-.69.61-.41,1.43-.32,1.93.17.52.52.61,1.28.2,1.93-.1.16-.22.31-.35.44-4.27,4.25-8.43,8.6-12.83,12.7-4.3,4-9.57,5.46-15.36,4.53-7.94-1.27-13.73-6.84-15.48-14.69-.16-.73-.26-1.48-.4-2.22,0-1.08,0-2.16,0-3.24Z"/>
</svg>