<?xml version="1.0" encoding="UTF-8"?>
<svg id="Layer_1" data-name="Layer 1" xmlns="http://www.w3.org/2000/svg" viewBox="0 0 96 96">
  <defs>
    <style>
      .cls-1 {
        fill: #b1b0b1;
      }
    </style>
  </defs>
  <path class="cls-1" d="M55.78,87.08l-.27-2.99c20.11-1.8,35.87-19.58,35.87-40.47,0-5.77-1.15-11.35-3.41-16.58l2.75-1.19c2.43,5.61,3.66,11.58,3.66,17.77,0,22.43-16.95,41.52-38.6,43.46Z"/>
  <path class="cls-1" d="M20.72,19.11l-2.42-1.77C26.38,6.32,38.69,0,52.07,0,64.36,0,76.03,5.5,84.08,15.09l-2.3,1.93c-7.48-8.91-18.31-14.02-29.71-14.02-12.41,0-23.84,5.87-31.35,16.11Z"/>
  <path class="cls-1" d="M46.11,86.82c-20.72-3.01-36.35-21.58-36.35-43.19,0-5.49.98-10.85,2.91-15.92l2.8,1.07c-1.8,4.73-2.71,9.72-2.71,14.85,0,20.13,14.52,37.43,33.78,40.23l-.43,2.97Z"/>
  <polygon class="cls-1" points="19.01 39.84 13.62 29.73 3.79 34.62 2.46 31.93 14.9 25.75 21.65 38.43 19.01 39.84"/>
  <polygon class="cls-1" points="70.09 18.85 69.93 15.85 81.89 15.22 81.76 1.51 84.76 1.49 84.92 18.06 70.09 18.85"/>
  <polygon class="cls-1" points="65.07 95.64 54.19 86.32 60.07 73.19 62.81 74.42 57.85 85.5 67.02 93.36 65.07 95.64"/>
</svg>