<?xml version="1.0" encoding="UTF-8"?>
<svg id="Layer_1" xmlns="http://www.w3.org/2000/svg" version="1.1" viewBox="0 0 96 96">
  <!-- Generator: Adobe Illustrator 29.3.1, SVG Export Plug-In . SVG Version: 2.1.0 Build 151)  -->
  <defs>
    <style>
      .st0 {
        fill: #b1b0b1;
      }
    </style>
  </defs>
  <path class="st0" d="M34.2,24.1c-.3.8,0,1.6.6,2.2l5.8,4.7-2,7.2c-.2.8,0,1.6.8,2.1.7.5,1.6.5,2.3,0l6.2-4.1,6.2,4.1c.3.2.7.3,1.1.3s.8-.1,1.2-.4c.7-.5,1-1.3.8-2.1l-2-7.2,5.8-4.7c.7-.5.9-1.4.6-2.2-.3-.8-1-1.3-1.8-1.4l-7.4-.4-2.6-7c-.3-.8-1-1.3-1.9-1.3s-1.6.5-1.9,1.3l-2.6,7-7.4.4c-.8,0-1.5.6-1.8,1.4h0ZM44.2,25.2c.8,0,1.5-.5,1.8-1.3l2.1-5.5,2.1,5.5c.3.7,1,1.2,1.8,1.3l5.8.3-4.5,3.7c-.6.5-.9,1.3-.7,2.1l1.5,5.6-4.9-3.2c-.3-.2-.7-.3-1.1-.3s-.8.1-1.1.3l-4.9,3.2,1.5-5.6c.2-.8,0-1.6-.7-2.1l-4.5-3.7,5.8-.3ZM46.6,9.6v-5.2c0-.8.6-1.4,1.4-1.4s1.4.6,1.4,1.4v5.2c0,.8-.6,1.4-1.4,1.4s-1.4-.6-1.4-1.4ZM55.2,17.9c-.5-.6-.5-1.5.1-2l5.8-5.2c.6-.5,1.5-.5,2,.1.5.6.5,1.5-.1,2l-5.8,5.2c-.3.2-.6.4-.9.4s-.8-.2-1-.5ZM33,10.8c.5-.6,1.4-.6,2-.1l5.8,5.2c.6.5.6,1.4.1,2-.3.3-.7.5-1,.5s-.7-.1-.9-.4l-5.8-5.2c-.6-.5-.6-1.4-.1-2ZM66,26.3l5.8,4.7-2,7.2c-.2.8,0,1.6.8,2.1.7.5,1.6.5,2.3,0l6.2-4.1,6.2,4.1c.3.2.7.3,1.1.3s.8-.1,1.2-.4c.7-.5,1-1.3.8-2.1l-2-7.2,5.8-4.7c.7-.5.9-1.4.6-2.2-.3-.8-1-1.3-1.8-1.4l-7.4-.4-2.6-7c-.3-.8-1-1.3-1.9-1.3s-1.6.5-1.9,1.3l-2.6,7-7.4.4c-.8,0-1.5.6-1.8,1.4-.3.8,0,1.6.6,2.2h0ZM75.3,25.2c.8,0,1.5-.5,1.8-1.3l2.1-5.5,2.1,5.5c.3.7,1,1.2,1.8,1.3l5.8.3-4.5,3.7c-.6.5-.9,1.3-.7,2.1l1.5,5.6-4.9-3.2c-.3-.2-.7-.3-1.1-.3s-.8.1-1.1.3l-4.9,3.2,1.5-5.6c.2-.8,0-1.6-.7-2.1l-4.5-3.7,5.8-.3ZM3.7,26.3l5.8,4.7-2,7.2c-.2.8,0,1.6.8,2.1.7.5,1.6.5,2.3,0l6.2-4.1,6.2,4.1c.3.2.7.3,1.1.3s.8-.1,1.2-.4c.7-.5,1-1.3.8-2.1l-2-7.2,5.8-4.7c.7-.5.9-1.4.6-2.2-.3-.8-1-1.3-1.8-1.4l-7.4-.4-2.6-7c-.3-.8-1-1.3-1.9-1.3s-1.6.5-1.9,1.3l-2.6,7-7.4.4c-.8,0-1.5.6-1.8,1.4-.3.8,0,1.6.6,2.2h0ZM13,25.2c.8,0,1.5-.5,1.8-1.3l2.1-5.5,2.1,5.5c.3.7,1,1.2,1.8,1.3l5.8.3-4.5,3.7c-.6.5-.9,1.3-.7,2.1l1.5,5.6-4.9-3.2c-.3-.2-.7-.3-1.1-.3s-.8.1-1.1.3l-4.9,3.2,1.5-5.6c.2-.8,0-1.6-.7-2.1l-4.5-3.7,5.8-.3ZM92.8,77.7c-1-3.2-3-6.1-5.7-8.1-1.3-1-2.7-1.7-4.2-2.2,2.1-1.6,3.4-4.1,3.4-6.9,0-4.8-3.9-8.8-8.8-8.8s-8.8,3.9-8.8,8.8,1.3,5.3,3.4,6.9c-2.7,1-5.2,2.7-7,5-.9-1.2-1.9-2.3-3-3.4-2.3-2.1-4.9-3.6-7.8-4.5,3-2,5.1-5.5,5.1-9.4,0-6.2-5.1-11.3-11.3-11.3s-11.3,5.1-11.3,11.3,2,7.4,5.1,9.4c-2.9.9-5.5,2.4-7.8,4.5-1.1,1-2.1,2.2-3,3.4-1.9-2.3-4.3-4-7-5,2-1.6,3.4-4.1,3.4-6.9,0-4.8-3.9-8.8-8.8-8.8s-8.8,3.9-8.8,8.8,1.3,5.3,3.4,6.9c-1.5.5-2.9,1.3-4.2,2.2-2.7,2-4.7,4.9-5.7,8.1-.5,1.5-.2,3,.7,4.2.9,1.2,2.3,1.9,3.8,1.9h19.4v2.5c0,3.7,3,6.6,6.6,6.6h28.4c3.7,0,6.6-3,6.6-6.6v-2.5h19.4c1.5,0,2.9-.7,3.8-1.9.9-1.2,1.2-2.7.7-4.2h0ZM77.5,54.5c3.3,0,6,2.7,6,6s-2.7,6-6,6-6-2.7-6-6,2.7-6,6-6ZM39.5,55.2c0-4.7,3.8-8.5,8.5-8.5s8.5,3.8,8.5,8.5-3.8,8.5-8.5,8.5h0c-4.7,0-8.5-3.8-8.5-8.5h0ZM18.5,54.5c3.3,0,6,2.7,6,6s-2.7,6-6,6-6-2.7-6-6,2.7-6,6-6ZM27.4,81H7.8c-.6,0-1.2-.3-1.6-.8-.4-.5-.5-1.1-.3-1.7,1.7-5.6,6.8-9.3,12.6-9.3s8.4,2.1,10.9,5.7c-1,1.9-1.7,3.9-2,6.1ZM66,86.4c0,2.1-1.7,3.8-3.8,3.8h-28.4c-2.1,0-3.8-1.7-3.8-3.8v-3.9c1-9.2,8.7-16.1,18-16.1,0,0,0,0,0,0s0,0,0,0c9.3,0,17,6.9,18,16.1v3.9ZM89.8,80.2c-.4.5-.9.8-1.6.8h-19.6c-.4-2.1-1-4.2-2-6.1,2.5-3.6,6.5-5.7,10.9-5.7s10.9,3.7,12.6,9.3c.2.6,0,1.2-.3,1.7Z"/>
</svg>