<?xml version="1.0" encoding="UTF-8"?>
<svg id="Layer_1" data-name="Layer 1" xmlns="http://www.w3.org/2000/svg" viewBox="0 0 96 96">
  <path d="M88.15,7.16H7.85C3.8,7.16.5,10.46.5,14.51v52.15c0,4.05,3.3,7.35,7.35,7.35h27.14v11.8h-8.6c-.84,0-1.52.68-1.52,1.52s.68,1.51,1.52,1.51h43.22c.83,0,1.51-.68,1.51-1.51s-.68-1.52-1.51-1.52h-8.6v-11.8h27.14c4.05,0,7.35-3.3,7.35-7.35V14.51c0-4.05-3.3-7.35-7.35-7.35ZM57.98,74.02v11.8h-19.95v-11.8h19.95ZM3.53,62.52h88.94v4.15c0,2.38-1.94,4.32-4.32,4.32H7.85c-2.38,0-4.32-1.94-4.32-4.32v-4.15ZM7.85,10.19h80.3c2.38,0,4.32,1.94,4.32,4.32v44.98H3.53V14.51c0-2.38,1.94-4.32,4.32-4.32Z" fill="#b1b0b1"/>
  <path d="M48.1,33.16h-.1c-2.68,0-4.86,2.18-4.86,4.86,0,1.33.55,2.61,1.51,3.52v2.86c0,1.84,1.5,3.35,3.35,3.35s3.35-1.5,3.35-3.35v-2.86c.94-.89,1.49-2.15,1.51-3.45.04-2.65-2.1-4.86-4.75-4.93ZM49,39.55c-.43.28-.69.75-.69,1.27v3.59c0,.17-.14.32-.32.32s-.32-.14-.32-.32v-3.59c0-.51-.26-.99-.68-1.27-.52-.34-.83-.91-.83-1.53,0-1.01.81-1.83,1.81-1.83h.06c1,.02,1.8.86,1.78,1.85,0,.61-.32,1.17-.83,1.5Z" fill="#b1b0b1"/>
  <path d="M31.83,46.76c-.42,0-.81.17-1.09.47l-3.09,3.09h-3.68c-.58-1.19-1.8-1.96-3.12-1.96-1.91,0-3.47,1.56-3.47,3.47s1.56,3.47,3.47,3.47c1.32,0,2.54-.77,3.12-1.96h4.31c.4,0,.79-.16,1.07-.45l3.11-3.11h.87c.14,2.02,1.82,3.59,3.85,3.59h21.64c2.03,0,3.71-1.57,3.85-3.59h.86l3.12,3.11c.29.29.67.44,1.07.44h4.31c.58,1.19,1.8,1.96,3.12,1.96,1.91,0,3.47-1.56,3.47-3.47s-1.56-3.47-3.47-3.47c-1.32,0-2.54.77-3.12,1.96h-3.68l-3.05-3.05c-.29-.32-.7-.51-1.13-.51h-1.49v-4.79h7.52c.58,1.19,1.8,1.96,3.12,1.96,1.91,0,3.47-1.56,3.47-3.47s-1.56-3.47-3.47-3.47c-1.32,0-2.54.77-3.12,1.96h-7.52v-4.79h1.49c.09,0,.18,0,.29-.03.09-.02.18-.05.28-.09.08-.03.16-.08.26-.14.09-.06.16-.12.23-.19l3.11-3.11h3.68c.58,1.19,1.8,1.96,3.12,1.96,1.91,0,3.47-1.56,3.47-3.47s-1.56-3.47-3.47-3.47c-1.32,0-2.54.77-3.12,1.96h-4.31c-.4,0-.79.16-1.07.44l-3.11,3.11h-.87c-.14-2.02-1.82-3.6-3.85-3.6h-.29v-2.62c0-2.81-1.1-5.45-3.08-7.44-1.99-1.99-4.63-3.08-7.44-3.08s-5.45,1.1-7.44,3.08c-1.99,1.99-3.08,4.63-3.08,7.44v2.62h-.29c-2.04,0-3.72,1.57-3.85,3.6h-.87l-3.11-3.11c-.29-.28-.67-.44-1.07-.44h-4.31c-.58-1.19-1.8-1.96-3.12-1.96-1.91,0-3.47,1.56-3.47,3.47s1.56,3.47,3.47,3.47c1.32,0,2.54-.77,3.12-1.96h3.68l3.14,3.14c.07.07.14.12.23.18.08.05.16.09.26.13.09.04.18.06.28.08.1.02.19.03.28.03h1.49v4.79h-7.52c-.58-1.19-1.8-1.96-3.12-1.96-1.91,0-3.47,1.56-3.47,3.47s1.56,3.47,3.47,3.47c1.32,0,2.54-.77,3.12-1.96h7.52v4.79h-1.49ZM20.85,52.27c-.24,0-.44-.2-.44-.44s.2-.44.44-.44.44.2.44.44-.2.44-.44.44ZM48,17.4c2,0,3.88.78,5.3,2.2,1.42,1.41,2.2,3.3,2.2,5.3v2.62h-1.19v-2.62c0-3.48-2.83-6.3-6.3-6.3s-6.3,2.83-6.3,6.3v2.62h-1.19v-2.62c0-2,.78-3.88,2.2-5.3,1.41-1.42,3.3-2.2,5.3-2.2ZM44.73,24.9c0-1.81,1.47-3.27,3.27-3.27s3.27,1.47,3.27,3.27v2.62h-6.55v-2.62ZM59.66,49.52c0,.46-.37.83-.83.83h-21.64c-.46,0-.83-.37-.83-.83v-18.13c0-.46.37-.83.83-.83h21.64c.46,0,.83.37.83.83v18.13ZM75.15,52.27c-.24,0-.44-.2-.44-.44s.2-.44.44-.44.44.2.44.44-.2.44-.44.44ZM73.33,40.01c.24,0,.44.2.44.44s-.2.44-.44.44-.44-.2-.44-.44.2-.44.44-.44ZM75.15,29.52c-.24,0-.44-.2-.44-.45,0-.24.2-.43.44-.43s.44.2.44.44-.2.44-.44.44ZM20.85,28.64c.24,0,.44.2.44.45,0,.24-.2.43-.44.43s-.44-.2-.44-.44.2-.44.44-.44ZM22.67,40.9c-.24,0-.44-.2-.44-.44s.2-.44.44-.44.44.2.44.44-.2.44-.44.44Z" fill="#b1b0b1"/>
</svg>