<?xml version="1.0" encoding="UTF-8"?>
<svg id="Layer_1" data-name="Layer 1" xmlns="http://www.w3.org/2000/svg" viewBox="0 0 96 96">
  <defs>
    <style>
      .cls-1 {
        fill: none;
        stroke: #b1b0b1;
        stroke-miterlimit: 10;
        stroke-width: 3px;
      }
    </style>
  </defs>
  <circle class="cls-1" cx="47.73" cy="35.76" r="7.83"/>
  <line class="cls-1" x1="47.74" y1="96" x2="47.74" y2="43.59"/>
  <line class="cls-1" x1="47.74" y1="27.94" x2="47.74" y2="7.14"/>
  <line class="cls-1" x1="76.81" y1="35.76" x2="55.56" y2="35.76"/>
  <line class="cls-1" x1="39.91" y1="35.76" x2="18.66" y2="35.76"/>
  <polyline class="cls-1" points="53.51 1 47.73 6.78 41.96 1"/>
  <polyline class="cls-1" points="12.88 29.99 18.66 35.76 12.88 41.54"/>
  <polyline class="cls-1" points="83.12 41.54 77.34 35.76 83.12 29.99"/>
  <line class="cls-1" x1="68.37" y1="15.39" x2="53.4" y2="30.38"/>
  <line class="cls-1" x1="42.33" y1="41.43" x2="27.25" y2="56.52"/>
  <polyline class="cls-1" points="19.08 56.51 27.25 56.51 27.25 64.68"/>
  <polyline class="cls-1" points="76.92 15.01 68.75 15.01 68.75 6.85"/>
  <line class="cls-1" x1="42.34" y1="30.1" x2="27.63" y2="15.39"/>
  <line class="cls-1" x1="68.75" y1="56.52" x2="53.4" y2="41.15"/>
  <polyline class="cls-1" points="68.75 64.68 68.75 56.51 76.92 56.51"/>
  <polyline class="cls-1" points="27.25 6.85 27.25 15.01 19.08 15.01"/>
  <line class="cls-1" x1="66.19" y1="43.3" x2="55.02" y2="38.61"/>
  <line class="cls-1" x1="40.6" y1="32.54" x2="30.37" y2="28.23"/>
  <line class="cls-1" x1="66.27" y1="28.43" x2="55.06" y2="33"/>
  <line class="cls-1" x1="40.57" y1="38.91" x2="30.28" y2="43.1"/>
  <line class="cls-1" x1="55.82" y1="17.85" x2="51.12" y2="29.02"/>
  <line class="cls-1" x1="45.05" y1="43.44" x2="40.74" y2="53.68"/>
  <line class="cls-1" x1="40.94" y1="17.77" x2="45.52" y2="28.99"/>
  <line class="cls-1" x1="51.42" y1="43.48" x2="55.61" y2="53.76"/>
</svg>