<?xml version="1.0" encoding="UTF-8"?>
<svg id="Layer_1" xmlns="http://www.w3.org/2000/svg" version="1.1" viewBox="0 0 96 96">
  <!-- Generator: Adobe Illustrator 29.3.1, SVG Export Plug-In . SVG Version: 2.1.0 Build 151)  -->
  <defs>
    <style>
      .st0 {
        fill: #b1b0b1;
      }
    </style>
  </defs>
  <path class="st0" d="M82.9,45.6h-2.4c.3-1.4.4-2.8.4-4.2,0-12.3-10-22.3-22.3-22.3s-16.1,4.7-19.9,12.2c-2.5-1.9-5.6-2.9-8.8-2.9-8.2,0-14.9,6.7-14.9,14.9s0,1.5.2,2.3h-2.2c-6.1,0-11.1,5-11.1,11.1s1.1,5.7,3.2,7.8c2.1,2.1,4.9,3.2,7.8,3.2h28.8v4.5h-5.8c-.6,0-1.1.4-1.4.9-.2.5-.1,1.2.3,1.6l11.9,13.4c.3.3.7.5,1.1.5s.9-.2,1.1-.5l11.9-13.4c.4-.5.5-1.1.3-1.6-.2-.6-.8-.9-1.4-.9h-5.7v-4.5h28.8c6.1,0,11.1-5,11.1-11.1s-1.1-5.7-3.2-7.8c-2.1-2.1-4.9-3.2-7.8-3.2ZM56.5,75.2l-8.5,9.6-8.5-9.6h3.9c.8,0,1.5-.7,1.5-1.5v-22h6.1v22c0,.8.7,1.5,1.5,1.5h3.9ZM82.9,64.6h-28.8v-14.4c0-.8-.7-1.5-1.5-1.5h-9.2c-.8,0-1.5.7-1.5,1.5v14.4H13.1c-2.1,0-4.1-.8-5.6-2.3s-2.3-3.5-2.3-5.6c0-4.4,3.6-8,8-8h4.2c.5,0,.9-.2,1.2-.6s.4-.9.2-1.4c-.3-1.1-.5-2.2-.5-3.4,0-6.5,5.3-11.8,11.8-11.8s6.1,1.2,8.3,3.4c.4.4.9.5,1.4.4.5-.1.9-.5,1.1-.9,2.9-7.4,9.9-12.2,17.9-12.2s19.2,8.6,19.2,19.2-.3,3.5-.8,5.3c-.1.5,0,1,.3,1.3.3.4.7.6,1.2.6h4.4c2.1,0,4.1.8,5.6,2.3s2.3,3.5,2.3,5.6c0,4.4-3.6,8-8,8Z"/>
</svg>