<?xml version="1.0" encoding="UTF-8"?>
<svg id="Layer_1" xmlns="http://www.w3.org/2000/svg" version="1.1" viewBox="0 0 96 96">
  <!-- Generator: Adobe Illustrator 29.3.1, SVG Export Plug-In . SVG Version: 2.1.0 Build 151)  -->
  <defs>
    <style>
      .st0 {
        fill: #b1b0b1;
      }
    </style>
  </defs>
  <path class="st0" d="M9.3,16.7v5.8c-.4,17.7,1,30.4,4.3,38.9,2.4,6.4,6.1,12.1,10.8,17,5.6,5.7,12.2,10.3,19.6,13.5l3.4,1.6c.4.2.8.2,1.2,0l3.4-1.6c7.4-3.2,14-7.8,19.6-13.5,4.7-4.9,8.3-10.7,10.8-17,3.2-8.4,4.7-21.1,4.4-38.9v-5.8c-.1-.6-.5-1.2-1.1-1.4L48.5,2.6c-.2,0-.3,0-.5,0s-.3,0-.5,0L10.3,15.3c-.6.2-1,.7-1,1.4ZM12.1,22.5v-4.8c0,0,35.9-12.3,35.9-12.3l35.7,12.3v4.8c.4,17.2-.9,29.6-4.1,37.8-2.3,6-5.7,11.4-10.2,16.1-5.4,5.5-11.7,9.8-18.7,12.8l-2.8,1.3-2.8-1.3c-7-3.1-13.3-7.4-18.7-12.8-4.5-4.7-7.9-10.1-10.2-16.1-3.1-8.1-4.5-20.5-4.2-37.7Z"/>
  <path class="st0" d="M73.3,57.8c2.6-6.9,3.9-18.6,3.6-34v-.2c0-.6-.4-1.2-1-1.4l-27.4-9.4c-.2,0-.3,0-.5,0s-.3,0-.5,0l-27.4,9.4c-.6.2-1,.7-1,1.4v.2c-.3,15.5,1,27.3,3.6,34,1.9,5,4.8,9.6,8.5,13.5,4.6,4.7,10,8.4,16,11h.1c.2.1.4.2.6.2.2,0,.4,0,.6-.1h.1c6-2.7,11.4-6.4,16.1-11.1,3.7-3.9,6.6-8.4,8.5-13.5ZM48.2,79.3h-.2c0,0-.2,0-.2,0-5.4-2.4-10.3-5.8-14.4-10-3.5-3.6-6.1-7.8-7.9-12.5-2.4-6.4-3.6-17.4-3.4-31.8v-.4s26-8.9,26-8.9l25.9,8.9v.4c.2,14.4-1,25.4-3.4,31.8l-.4,1.1h0c-1.8,4.2-4.3,8-7.5,11.4-4.2,4.2-9,7.6-14.4,10.1Z"/>
  <path class="st0" d="M57.5,38.9l-14.3,14.3-4.8-4.8c-.3-.3-.6-.4-1-.4s-.8.2-1,.4c-.3.3-.4.6-.4,1s.2.8.4,1l5.8,5.8c.3.3.6.4,1,.4h0c.4,0,.8-.2,1-.4l15.4-15.3c.3-.3.4-.6.4-1s-.2-.8-.4-1c-.6-.6-1.5-.6-2.1,0Z"/>
</svg>