<?xml version="1.0" encoding="UTF-8"?>
<svg id="Layer_1" data-name="Layer 1" xmlns="http://www.w3.org/2000/svg" viewBox="0 0 96 96">
  <defs>
    <style>
      .cls-1, .cls-2, .cls-3 {
        fill: none;
        stroke: #b1b0b1;
        stroke-width: 3px;
      }

      .cls-1, .cls-3 {
        stroke-linejoin: round;
      }

      .cls-2 {
        stroke-miterlimit: 10;
      }

      .cls-3 {
        stroke-linecap: round;
      }
    </style>
  </defs>
  <rect class="cls-2" x="16.08" y="2.06" width="30.52" height="41.48" rx="14.17" ry="14.17"/>
  <path class="cls-1" d="M16.08,18.85c6.35-.44,15.44-1.93,20.79-5.54,2.28,1.7,6.31,4.31,9.73,5.1"/>
  <path class="cls-1" d="M24.84,42.15v6.48c0,.24,0,.49.04.73.17,1.52.86,2.87,1.88,3.9,1.19,1.18,2.83,1.92,4.63,1.92,3.36,0,6.13-2.53,6.5-5.8.04-.24.05-.5.05-.75v-6.52"/>
  <path class="cls-1" d="M47.25,83.07H1.5v-15.38c0-6.37,4.1-12.02,10.16-14.01l13.22-4.32c.17,1.52.86,2.87,1.88,3.9,1.19,1.18,2.82,1.91,4.63,1.91,3.37,0,6.13-2.53,6.51-5.8l7.45,2.47"/>
  <line class="cls-1" x1="14.6" y1="83.37" x2="14.6" y2="64.01"/>
  <g>
    <ellipse class="cls-3" cx="72.45" cy="68.52" rx="9.39" ry="25.43"/>
    <ellipse class="cls-3" cx="72.45" cy="68.52" rx="25.43" ry="9.39" transform="translate(-25.44 49.52) rotate(-32.42)"/>
    <ellipse class="cls-3" cx="72.45" cy="68.52" rx="9.39" ry="25.43" transform="translate(-24.23 92.94) rotate(-57.58)"/>
    <circle class="cls-3" cx="72.39" cy="68.8" r="3.34"/>
  </g>
</svg>