<?xml version="1.0" encoding="UTF-8"?>
<svg id="Layer_1" data-name="Layer 1" xmlns="http://www.w3.org/2000/svg" viewBox="0 0 96 96">
  <defs>
    <style>
      .cls-1 {
        fill: none;
        stroke: #b1b0b1;
        stroke-miterlimit: 10;
        stroke-width: 3px;
      }
    </style>
  </defs>
  <g>
    <path class="cls-1" d="M23.73,86.39h-.35c-6.83,0-12.09-6.03-11.15-12.79l1.3-9.51c.83-6.01,4.89-11.09,10.59-13.2l8.73-3.25c3.7,2.13,9.12,3.48,15.16,3.48s11.46-1.35,15.16-3.48l8.72,3.25c5.69,2.11,9.76,7.19,10.59,13.2l1.3,9.51c.93,6.76-4.32,12.79-11.15,12.79h-1.43"/>
    <path class="cls-1" d="M38.47,40.01v2.79c0,1.28-.73,2.44-1.87,3l-3.75,1.85"/>
    <path class="cls-1" d="M57.41,39.58v3.21c0,1.28.72,2.44,1.87,3l3.75,1.85"/>
    <path class="cls-1" d="M23.73,88.5v-27.16c0-1.02.8-1.86,1.81-1.91.03-.01.07-.01.11-.01h43.63c1.05,0,1.92.85,1.92,1.92v27.16"/>
    <path class="cls-1" d="M80.03,88.5v.5c0,3.03-2.46,5.5-5.5,5.5H20.68c-3.03,0-5.5-2.46-5.5-5.5v-.5h64.85Z"/>
    <polyline class="cls-1" points="39.55 70.62 33.46 76.71 39.55 82.51"/>
    <polyline class="cls-1" points="53.9 82.51 59.99 76.42 53.9 70.62"/>
    <line class="cls-1" x1="49.28" y1="70.43" x2="44.07" y2="83.1"/>
    <path class="cls-1" d="M63.43,18.35v9.07c0,4.99-2.36,9.42-6.02,12.26-2.61,2.02-5.9,3.23-9.45,3.23h-.72c-3.25,0-6.27-1-8.76-2.71-4.06-2.79-6.72-7.48-6.72-12.77v-8.67h0c8,3.12,17.21.4,21.64-6.07,1.31,3.91,5.65,6.28,10.04,5.67h0Z"/>
  </g>
  <line class="cls-1" x1="48.59" y1="72.1" x2="48.58" y2="72.1"/>
  <line class="cls-1" x1="54.39" y1="71.09" x2="54.38" y2="71.09"/>
  <path class="cls-1" d="M69.69,50.08v-26.84c0-12.01-9.74-21.74-21.74-21.74s-21.75,9.74-21.75,21.74v26.88"/>
</svg>