<?xml version="1.0" encoding="UTF-8"?>
<svg id="Layer_1" data-name="Layer 1" xmlns="http://www.w3.org/2000/svg" viewBox="0 0 96 96">
  <defs>
    <style>
      .cls-1, .cls-2 {
        fill: none;
        stroke: #b1b0b1;
        stroke-miterlimit: 10;
        stroke-width: 3px;
      }

      .cls-2 {
        fill-rule: evenodd;
      }
    </style>
  </defs>
  <g>
    <path class="cls-2" d="M58.67,47.85v15.49c0,1.25-1.01,2.26-2.26,2.26h-16.68c-1.25,0-2.26-1.01-2.26-2.26v-15.39c0-1.44-.7-2.8-1.87-3.64-5.49-3.93-9.04-10.39-8.93-17.67.17-11.8,9.65-21.09,21.45-21.03,6.16.03,11.71,2.69,15.59,6.9,3.5,3.79,5.63,8.87,5.63,14.43,0,5.88-2.38,11.21-6.24,15.07-.81.81-1.67,1.55-2.6,2.22-1.15.84-1.83,2.18-1.83,3.61Z"/>
    <path class="cls-1" d="M40.03,65.61h16.35v1.63c0,2.63-2.13,4.76-4.76,4.76h-6.82c-2.63,0-4.76-2.13-4.76-4.76v-1.63h0Z"/>
    <line class="cls-1" x1="34.31" y1="59.91" x2="61.09" y2="59.91"/>
    <line class="cls-1" x1="37.47" y1="54.71" x2="58.67" y2="54.71"/>
    <line class="cls-1" x1="47.7" y1="47.56" x2="47.7" y2="54.71"/>
    <path class="cls-1" d="M57.25,26.96c0-.66-.07-1.3-.2-1.92l4.9-3.34-2.42-4.2-5.35,2.58c-.95-.86-2.08-1.52-3.32-1.93l-.44-5.92h-4.85l-.44,5.92c-1.25.4-2.37,1.07-3.32,1.93l-5.35-2.58-2.42,4.2,4.9,3.34c-.13.62-.2,1.26-.2,1.92s.07,1.3.2,1.92l-4.9,3.34,2.42,4.2,5.35-2.58c.95.86,2.08,1.52,3.32,1.93l.44,5.92h4.85l.44-5.92c1.25-.4,2.37-1.07,3.32-1.93l5.35,2.58,2.42-4.2-4.9-3.34c.13-.62.2-1.26.2-1.92Z"/>
    <circle class="cls-1" cx="48" cy="26.96" r="4.38"/>
  </g>
  <path class="cls-1" d="M55.52,81.37h38.98c0,2.49-.98,4.74-2.56,6.37-1.57,1.63-3.75,2.64-6.17,2.64H10.23c-4.82,0-8.73-4.04-8.73-9.01h38.98"/>
  <polyline class="cls-1" points="55.52 81.37 55.52 83.59 40.48 83.59 40.48 81.37"/>
  <path class="cls-1" d="M55.51,81.37h31.46V31.98c0-2.37-1.86-4.29-4.15-4.29h-13.51"/>
  <path class="cls-1" d="M26.67,27.69h-13.49c-2.3,0-4.16,1.92-4.16,4.29v49.39h31.46"/>
  <path class="cls-1" d="M40.48,81.37H15.11v-45.73c0-1.02.8-1.86,1.79-1.86h10.87"/>
  <path class="cls-1" d="M68.21,33.78h10.88c1,0,1.8.84,1.8,1.86v45.73h-25.38"/>
</svg>