<?xml version="1.0" encoding="UTF-8"?>
<svg id="Layer_1" data-name="Layer 1" xmlns="http://www.w3.org/2000/svg" viewBox="0 0 96 96">
  <defs>
    <style>
      .cls-1 {
        fill: #b1b0b1;
      }
    </style>
  </defs>
  <path class="cls-1" d="M67.64,22.68h0c-1.46-1.46-3.83-1.46-5.29,0l-6.77,6.78c-.1.07-.2.14-.29.24-.07.08-.14.16-.19.24L11.43,73.64s0,0,0,0c0,0,0,0,0,0l-7,7.01c-1.46,1.47-1.46,3.83,0,5.3l5.8,5.8c1.46,1.46,3.83,1.46,5.3,0l50.92-50.96s0,0,.01-.01,0,0,.01-.01l7-7.01c1.44-1.47,1.44-3.82,0-5.29-.09-.08.82.82-5.81-5.81ZM12.86,89.8c-.56,0-.37-.26-6.28-6-.26-.27-.26-.69,0-.96,2.05-2.05,4.03-4.03,5.94-5.94,3.66,3.59,5.6,5.63,6.74,6.79-6.51,6.54-6.1,6.1-6.41,6.1ZM21.44,81.51l-6.75-6.76c22.4-22.39,34.8-34.9,41.7-41.83l6.78,6.78c-22.6,22.57-34.94,34.98-41.73,41.8ZM71.27,31.61c-2.05,2.05-4.03,4.02-5.93,5.92l-6.78-6.79c7.1-7.1,6.5-6.31,6.9-5.9l5.81,5.8c.26.27.26.69,0,.96Z"/>
  <path class="cls-1" d="M89.39,31.25c-3.64,2.98-6.98,3.22-10.52.74-1.4-.98-3.12.74-2.14,2.14,2.48,3.54,2.25,6.88-.74,10.53-.5.61-.46,1.5.1,2.06.56.56,1.46.61,2.07.1,3.64-2.99,6.98-3.22,10.51-.75,1.4.98,3.12-.74,2.14-2.14-2.48-3.54-2.24-6.88.75-10.52.49-.58.49-1.42,0-2-.55-.64-1.52-.72-2.17-.16ZM86.37,41.64c-1.75-.45-3.59-.41-5.31.12.53-1.73.57-3.57.12-5.32,1.75.45,3.59.41,5.31-.12-.53,1.73-.57,3.57-.12,5.32Z"/>
  <path class="cls-1" d="M51.49,20.12c3.64-2.99,6.97-3.22,10.51-.75,1.4.98,3.12-.74,2.14-2.14-2.48-3.54-2.24-6.87.74-10.52.48-.57.48-1.41,0-1.98-.55-.65-1.52-.73-2.16-.18-3.64,2.99-6.98,3.22-10.52.74-1.4-.98-3.12.74-2.14,2.14,2.48,3.54,2.24,6.88-.74,10.53-.5.61-.46,1.5.1,2.06.56.56,1.45.61,2.07.1ZM54.5,9.73c1.75.45,3.59.41,5.32-.12-.53,1.73-.57,3.57-.12,5.32-1.75-.45-3.59-.41-5.32.12.52-1.73.57-3.57.12-5.32Z"/>
  <path class="cls-1" d="M92.33,3.96c-.55-.65-1.51-.73-2.16-.19-3.64,2.98-6.98,3.22-10.52.74-1.4-.98-3.12.74-2.14,2.14,2.48,3.54,2.24,6.88-.74,10.52-.5.61-.46,1.5.1,2.06h0c.56.56,1.45.6,2.06.1,3.64-2.98,6.98-3.22,10.52-.74,1.4.98,3.12-.74,2.14-2.14-2.48-3.54-2.24-6.88.74-10.53.48-.57.48-1.4,0-1.97ZM87.15,14.16c-1.75-.45-3.59-.41-5.32.12.53-1.73.57-3.57.12-5.32,1.75.45,3.59.41,5.32-.12-.53,1.73-.57,3.57-.12,5.32Z"/>
</svg>