<?xml version="1.0" encoding="UTF-8"?>
<svg id="Layer_1" data-name="Layer 1" xmlns="http://www.w3.org/2000/svg" viewBox="0 0 96 96">
  <path d="M22.14,20.33c.7-.55,1.38-1.11,2.03-1.66.57,1.46,1.21,2.89,1.93,4.27,1.08,2.09,2.35,4.08,3.77,5.95-8.35,10.07-13.12,22.64-13.55,35.72,0,18.08,13.02,30.71,31.66,30.71s31.66-12.63,31.66-30.71c-.32-10.51-3.45-20.74-9.06-29.63-1.34-2.14-2.85-4.17-4.52-6.07,1.44-1.88,2.71-3.88,3.8-5.98.72-1.39,1.37-2.81,1.93-4.27.65.56,1.33,1.11,2.04,1.67,7.95,6.19,17.65,10.34,20.81,6.29,1.04-1.34,1.63-3.94-1.55-8.71-2.69-3.79-5.95-7.13-9.66-9.93-4.07-3.3-8.71-5.82-13.69-7.44-2.56-.5-5.22.19-7.22,1.86-4.04,3.13-7.31,7.14-9.55,11.73-.91,1.74-1.7,3.55-2.35,5.4-1.76-.28-3.55-.28-5.31,0-.65-1.86-1.44-3.66-2.35-5.41-2.25-4.59-5.52-8.6-9.56-11.73C31.43.74,28.78.06,26.22.56c-4.98,1.62-9.62,4.15-13.69,7.45-3.71,2.79-6.97,6.14-9.66,9.93C-.29,22.69.28,25.29,1.33,26.64c3.15,4.04,12.86-.11,20.81-6.31ZM48,92.17c-11.47,0-20.38-5.03-25-13.32l4.46-2.75c5.8-3.59,13.13-3.59,18.93,0,6.84,4.12,15.39,4.12,22.23,0l7.07-4.34c-2.85,12.45-13.25,20.41-27.69,20.41ZM76.36,67.63l-9.4,5.78c-5.82,3.51-13.11,3.51-18.93,0-6.82-4.21-15.42-4.21-22.24,0l-4.19,2.58c-1.43-3.62-2.14-7.48-2.11-11.37,0-1.45.09-2.91.24-4.35l7.71-4.75c5.8-3.59,13.13-3.59,18.93,0,6.84,4.12,15.39,4.12,22.23,0l6.02-3.7c1.19,4.17,1.82,8.47,1.86,12.8,0,1.02-.05,2.02-.13,3.01ZM73.67,48.7l-6.7,4.12c-5.82,3.51-13.11,3.51-18.93,0-6.81-4.21-15.42-4.21-22.24,0l-5.45,3.35c.96-4.91,2.55-9.68,4.75-14.18l4.62-2.37c5.19-2.66,11.35-2.66,16.54,0l.49.25c6.1,3.12,13.32,3.12,19.42,0l2.85-1.46c1.89,3.27,3.45,6.72,4.66,10.3h0ZM55.81,15.6c2.01-4.13,4.93-7.76,8.55-10.59,1.25-1.09,2.9-1.6,4.54-1.41,4.59,1.52,8.86,3.86,12.62,6.9,3.44,2.58,6.47,5.68,8.96,9.18,2.03,3.05,1.99,4.6,1.68,5-.97,1.25-7.62-.04-16.36-6.84-1.3-1.02-2.52-2.06-3.62-3.08h0c-1.68-1.54-3.22-3.23-4.6-5.05-.47-.73-1.45-.95-2.19-.47-.73.47-.95,1.45-.47,2.19.03.05.07.11.11.16,1.28,1.7,2.69,3.28,4.23,4.75-.6,1.76-1.34,3.48-2.19,5.13-.93,1.79-1.99,3.51-3.19,5.13-2.84-2.85-6.29-5.02-10.1-6.33.57-1.6,1.25-3.15,2.02-4.66ZM67.31,35.71l-2.61,1.34c-5.19,2.66-11.35,2.66-16.54,0l-.49-.25c-6.09-3.13-13.32-3.13-19.42,0l-.42.22c5.26-8.43,12.49-14.52,20.16-14.52,7.27,0,14.14,5.47,19.32,13.21h0ZM5.51,19.69c2.5-3.5,5.52-6.6,8.97-9.18,3.76-3.04,8.04-5.38,12.63-6.9,1.64-.19,3.29.32,4.53,1.41,3.62,2.83,6.55,6.46,8.56,10.6.78,1.51,1.45,3.06,2.02,4.66-3.81,1.3-7.27,3.46-10.11,6.31-1.19-1.62-2.26-3.33-3.18-5.11-.86-1.65-1.59-3.37-2.19-5.13,1.54-1.47,2.95-3.05,4.23-4.75.52-.7.37-1.69-.33-2.21-.7-.52-1.69-.37-2.21.33-1.38,1.82-2.92,3.51-4.6,5.06h0c-1.09,1.01-2.3,2.05-3.61,3.07-8.75,6.8-15.4,8.09-16.37,6.85-.32-.39-.35-1.95,1.68-5Z" fill="#b1b0b1"/>
  <circle cx="55.91" cy="32" r="1.58" fill="#b1b0b1"/>
  <circle cx="48" cy="28.84" r="1.58" fill="#b1b0b1"/>
  <circle cx="60.66" cy="47.83" r="1.58" fill="#b1b0b1"/>
  <circle cx="60.66" cy="65.25" r="1.58" fill="#b1b0b1"/>
  <circle cx="60.66" cy="84.25" r="1.58" fill="#b1b0b1"/>
  <circle cx="70.16" cy="62.08" r="1.58" fill="#b1b0b1"/>
  <circle cx="48" cy="46.25" r="1.58" fill="#b1b0b1"/>
  <circle cx="48" cy="65.25" r="1.58" fill="#b1b0b1"/>
  <circle cx="35.33" cy="43.09" r="1.58" fill="#b1b0b1"/>
  <circle cx="35.33" cy="62.08" r="1.58" fill="#b1b0b1"/>
  <circle cx="48" cy="84.25" r="1.58" fill="#b1b0b1"/>
  <circle cx="35.33" cy="81.08" r="1.58" fill="#b1b0b1"/>
  <circle cx="25.83" cy="65.25" r="1.58" fill="#b1b0b1"/>
</svg>