<?xml version="1.0" encoding="UTF-8"?>
<svg id="Layer_1" data-name="Layer 1" xmlns="http://www.w3.org/2000/svg" viewBox="0 0 96 96">
  <defs>
    <style>
      .cls-1 {
        fill: none;
        stroke: #b1b0b1;
        stroke-linejoin: round;
        stroke-width: 3px;
      }
    </style>
  </defs>
  <rect class="cls-1" x="14.61" y="15.08" width="65.83" height="65.83"/>
  <rect class="cls-1" x="27.48" y="27.96" width="40.09" height="40.09"/>
  <line class="cls-1" x1="21.82" y1="15.09" x2="21.82" y2="2.04"/>
  <line class="cls-1" x1="32.51" y1="15.09" x2="32.51" y2="2.04"/>
  <line class="cls-1" x1="53.89" y1="93.96" x2="53.89" y2="80.91"/>
  <line class="cls-1" x1="43.2" y1="15.09" x2="43.2" y2="2.04"/>
  <line class="cls-1" x1="64.58" y1="15.09" x2="64.58" y2="2.04"/>
  <line class="cls-1" x1="75.27" y1="15.09" x2="75.27" y2="2.04"/>
  <line class="cls-1" x1="21.82" y1="93.96" x2="21.82" y2="80.91"/>
  <line class="cls-1" x1="32.51" y1="93.96" x2="32.51" y2="80.91"/>
  <line class="cls-1" x1="53.89" y1="15.09" x2="53.89" y2="2.04"/>
  <line class="cls-1" x1="43.2" y1="93.96" x2="43.2" y2="80.91"/>
  <line class="cls-1" x1="64.58" y1="93.96" x2="64.58" y2="80.91"/>
  <line class="cls-1" x1="75.27" y1="93.96" x2="75.27" y2="80.91"/>
  <line class="cls-1" x1="81.46" y1="21.28" x2="94.5" y2="21.28"/>
  <line class="cls-1" x1="81.46" y1="31.97" x2="94.5" y2="31.97"/>
  <line class="cls-1" x1="1.5" y1="54.43" x2="14.54" y2="54.43"/>
  <line class="cls-1" x1="81.46" y1="42.66" x2="94.5" y2="42.66"/>
  <line class="cls-1" x1="81.46" y1="64.03" x2="94.5" y2="64.03"/>
  <line class="cls-1" x1="81.46" y1="74.72" x2="94.5" y2="74.72"/>
  <line class="cls-1" x1="1.5" y1="22.37" x2="14.54" y2="22.37"/>
  <line class="cls-1" x1="1.5" y1="33.06" x2="14.54" y2="33.06"/>
  <line class="cls-1" x1="81.46" y1="53.34" x2="94.5" y2="53.34"/>
  <line class="cls-1" x1="1.5" y1="43.74" x2="14.54" y2="43.74"/>
  <line class="cls-1" x1="1.5" y1="65.12" x2="14.54" y2="65.12"/>
  <line class="cls-1" x1="1.5" y1="75.81" x2="14.54" y2="75.81"/>
</svg>