<?xml version="1.0" encoding="UTF-8"?>
<svg id="Capa_1" data-name="Capa 1" xmlns="http://www.w3.org/2000/svg" viewBox="0 0 96 96">
  <defs>
    <style>
      .cls-1 {
        fill: #b1b0b1;
      }
    </style>
  </defs>
  <path class="cls-1" d="M93.38,47.8c-.99,1.42-1.8,1.52-3.09.27-3.89-3.79-8.17-7.06-12.91-9.72-5.05-2.83-10.41-4.85-16.06-6.13-.08-.02-.17,0-.36.02,5.31,4.67,7.88,10.47,7.34,17.47-.39,5.11-2.54,9.48-6.28,13.02-7.87,7.44-19.69,7.31-27.33.58-4.68-4.12-7.05-9.35-6.99-15.56.06-6.21,2.63-11.34,7.45-15.54-4.53.99-8.67,2.42-12.65,4.31-6.3,2.99-11.88,7.01-16.83,11.91-.31.31-.61.66-1.06.76-.69.16-1.29,0-1.71-.62-.47-.69-.36-1.38.18-1.94.88-.91,1.79-1.8,2.73-2.65,8.53-7.72,18.4-12.96,29.71-15.06,21.86-4.04,40.96,1.62,57.08,17.03.29.28.52.64.77.96v.89ZM65.25,47.97c-.02-9.49-7.7-17.19-17.18-17.2-9.5-.01-17.28,7.75-17.26,17.22.02,9.48,7.73,17.18,17.2,17.2,9.51.02,17.26-7.72,17.24-17.22Z"/>
  <path class="cls-1" d="M47.71,37.02c1.09-.01,1.81.55,1.87,1.46.06.93-.61,1.61-1.76,1.69-3.12.21-5.39,1.69-6.83,4.46-.51.99-.67,2.06-.78,3.15-.12,1.16-.78,1.84-1.69,1.75-.94-.09-1.48-.83-1.43-1.98.28-5.8,4.97-10.46,10.61-10.53Z"/>
</svg>