<?xml version="1.0" encoding="UTF-8"?>
<svg id="Capa_1" data-name="Capa 1" xmlns="http://www.w3.org/2000/svg" viewBox="0 0 96 96">
  <defs>
    <style>
      .cls-1 {
        fill: #b1b0b1;
      }
    </style>
  </defs>
  <path class="cls-1" d="M94.27,48.17c-4.56,4.53-9.03,9.15-13.7,13.57-6.96,6.58-15.24,10.64-24.71,12.14-13,2.06-24.92-.73-35.7-8.31-2.2-1.55-4.22-3.32-6.12-5.22-3.98-3.96-7.94-7.94-11.92-11.9-.45-.45-.56-.68-.04-1.19,4.3-4.24,8.45-8.64,12.86-12.75,11.01-10.25,24.1-14.45,39.02-12.64,10.86,1.31,20.1,6.08,27.84,13.79,3.91,3.9,7.81,7.81,11.72,11.71.23.23.39.55.75.61v.18ZM47.7,71.43c11.23-.14,20.88-3.55,29.16-10.58,4.47-3.79,8.35-8.21,12.56-12.28.51-.49.13-.7-.15-.99-3.16-3.16-6.33-6.31-9.48-9.48-7.81-7.87-17.2-12.44-28.25-13.34-12.03-.98-22.82,2.33-32.17,9.99-4.7,3.85-8.68,8.48-13.04,12.69-.47.45-.12.65.15.92,3.33,3.33,6.64,6.68,10,9.99,8.77,8.62,19.34,12.9,31.22,13.08Z"/>
  <path class="cls-1" d="M47.82,27.57c11.12-.08,20.3,9.06,20.38,20.29.08,11.17-8.98,20.33-20.22,20.43-11.22.1-20.53-9.14-20.5-20.36.02-11.18,9.12-20.29,20.34-20.37ZM30.64,47.87c-.08,9.45,7.63,17.23,17.14,17.31,9.42.08,17.24-7.68,17.31-17.17.07-9.45-7.63-17.2-17.17-17.28-9.46-.09-17.2,7.59-17.28,17.14Z"/>
  <path class="cls-1" d="M35.36,45.77c.24-5.62,4.98-10.25,10.59-10.33,1.09-.02,1.79.51,1.87,1.41.08.92-.58,1.66-1.71,1.69-4.14.11-7.54,3.49-7.66,7.67-.03,1.13-.78,1.79-1.7,1.7-.98-.09-1.45-.82-1.4-2.14Z"/>
</svg>