<?xml version="1.0" encoding="UTF-8"?>
<svg id="Layer_1" data-name="Layer 1" xmlns="http://www.w3.org/2000/svg" viewBox="0 0 96 96">
  <defs>
    <style>
      .cls-1 {
        fill: #b1b0b1;
      }
    </style>
  </defs>
  <path class="cls-1" d="M80.55,20.44c0-.39-.15-.77-.42-1.04l-14.78-14.78c-.28-.27-.65-.43-1.04-.42h0s-44.34-.01-44.34-.01c-2.45,0-4.43,1.99-4.43,4.43v79.82c0,2.45,1.99,4.43,4.43,4.43h56.17c2.45,0,4.43-1.99,4.43-4.43V20.44h-.01ZM65.78,9.23l9.73,9.73h-8.26c-.82,0-1.48-.66-1.48-1.48v-8.26ZM77.61,88.43c0,.82-.66,1.48-1.48,1.48H19.96c-.82,0-1.48-.66-1.48-1.48V8.62c0-.82.66-1.48,1.48-1.48h42.86v10.35c0,2.45,1.99,4.43,4.43,4.43h10.35v66.51Z"/>
  <path class="cls-1" d="M30.31,44.09c-2.45,0-4.43,1.99-4.43,4.43s1.99,4.43,4.43,4.43,4.43-1.99,4.43-4.43-1.99-4.43-4.43-4.43ZM30.31,50c-.82,0-1.48-.66-1.48-1.48s.66-1.48,1.48-1.48,1.48.66,1.48,1.48-.66,1.48-1.48,1.48Z"/>
  <rect class="cls-1" x="40.66" y="47.05" width="29.56" height="2.96"/>
  <path class="cls-1" d="M30.31,29.31c-2.45,0-4.43,1.99-4.43,4.43s1.99,4.43,4.43,4.43,4.43-1.99,4.43-4.43-1.99-4.43-4.43-4.43ZM30.31,35.22c-.82,0-1.48-.66-1.48-1.48s.66-1.48,1.48-1.48,1.48.66,1.48,1.48-.66,1.48-1.48,1.48Z"/>
  <rect class="cls-1" x="40.66" y="32.27" width="29.56" height="2.96"/>
  <path class="cls-1" d="M30.31,58.87c-2.45,0-4.43,1.99-4.43,4.43s1.99,4.43,4.43,4.43,4.43-1.99,4.43-4.43-1.99-4.43-4.43-4.43ZM30.31,64.79c-.82,0-1.48-.66-1.48-1.48s.66-1.48,1.48-1.48,1.48.66,1.48,1.48-.66,1.48-1.48,1.48Z"/>
  <rect class="cls-1" x="40.66" y="61.83" width="29.56" height="2.96"/>
  <path class="cls-1" d="M30.31,73.65c-2.45,0-4.43,1.99-4.43,4.43s1.99,4.43,4.43,4.43,4.43-1.99,4.43-4.43-1.99-4.43-4.43-4.43ZM30.31,79.57c-.82,0-1.48-.66-1.48-1.48s.66-1.48,1.48-1.48,1.48.66,1.48,1.48-.66,1.48-1.48,1.48Z"/>
  <rect class="cls-1" x="40.66" y="76.61" width="29.56" height="2.96"/>
</svg>