<?xml version="1.0" encoding="UTF-8"?>
<svg id="Capa_1" data-name="Capa 1" xmlns="http://www.w3.org/2000/svg" viewBox="0 0 96 96">
  <defs>
    <style>
      .cls-1 {
        fill: #b1b0b1;
      }
    </style>
  </defs>
  <path class="cls-1" d="M77.94,3.55c.31.27.72.18,1.08.28,4.48,1.16,7.37,4.87,7.38,9.65.03,9.48,0,18.96.02,28.45,0,.69-.24.8-.85.79-5.05-.02-10.09-.02-15.14,0-1.4,0-1.26-.23-1.26,1.23,0,15.8,0,31.61,0,47.41,0,.36.11.75-.11,1.1-.38-.05-.62-.31-.91-.5-9.36-6.23-18.72-12.46-28.06-18.72-.5-.34-.84-.35-1.35,0-9.39,6.29-18.8,12.55-28.2,18.81-.23.16-.49.49-.74.38-.33-.15-.15-.58-.15-.87,0-25.95,0-51.91,0-77.86,0-5.3,2.92-8.9,8.08-10,.08-.02.14-.09.22-.13,20.01,0,40.02,0,60.03,0ZM12.91,86.67c.27-.17.53-.34.79-.51,8.32-5.55,16.64-11.09,24.94-16.66.58-.39.94-.38,1.51,0,8.3,5.57,16.62,11.11,24.94,16.65.26.17.48.41.82.45.19-.3.1-.63.1-.93,0-4.81,0-9.63,0-14.44,0-18.67,0-37.35,0-56.02,0-2.57.56-4.94,2.06-7.05.34-.48.73-.92,1.15-1.46-.28-.01-.42-.03-.56-.03-16.41,0-32.83,0-49.24,0-.67,0-1.33.07-1.97.26-3.06.91-4.7,3.3-4.7,6.88,0,23.95,0,47.9,0,71.86,0,.31-.1.63.15.99ZM83.26,26.08c0-4.15-.05-8.29.01-12.44.08-5.01-4.52-8.2-9.11-6.41-3.1,1.21-4.99,4.06-5,7.73-.02,7.91,0,15.83-.02,23.74,0,.76.26.89.94.88,4.06-.03,8.12-.03,12.18,0,.77,0,1.03-.16,1.02-.98-.05-4.17-.02-8.35-.02-12.52Z"/>
</svg>