<?xml version="1.0" encoding="UTF-8"?>
<svg id="Capa_1" data-name="Capa 1" xmlns="http://www.w3.org/2000/svg" viewBox="0 0 96 96">
  <defs>
    <style>
      .cls-1 {
        fill: #b1b0b1;
      }
    </style>
  </defs>
  <path class="cls-1" d="M15.52,1.04c.89.42,1.21,1.13,1.16,2.08-.04.79.02,1.59-.02,2.38-.02.51.13.75.67.88,7.32,1.71,14.7,2.84,22.25,2.35,3.53-.23,7.01-.79,10.18-2.43,7.17-3.71,14.73-4.09,22.51-2.79,2.96.49,5.85,1.25,8.67,2.27,1.21.44,1.52.84,1.52,2.08,0,15.38,0,30.77,0,46.15,0,1.63-.93,2.24-2.49,1.72-6.12-2.04-12.35-3.21-18.83-2.59-2.88.28-5.7.86-8.27,2.21-6.29,3.28-13.04,3.87-19.97,3.55-5.18-.24-10.27-1.07-15.3-2.27-.8-.19-.95-.02-.95.77.02,11.71.02,23.43.02,35.14,0,.37,0,.74-.04,1.1-.11.81-.63,1.27-1.41,1.33-.78.05-1.36-.33-1.56-1.13-.09-.35-.12-.72-.12-1.09,0-29.82,0-59.64-.01-89.45,0-.95.23-1.74,1.07-2.25h.92ZM16.67,31.22c0,7,.01,14-.02,21.01,0,.77.24,1.03.97,1.2,5.4,1.26,10.85,2.13,16.39,2.35,6.16.25,12.12-.44,17.7-3.37,2.73-1.43,5.74-2.06,8.79-2.39,6.08-.64,12.01.18,17.84,1.89.88.26,1.01.05,1.01-.78-.02-13.91-.02-27.83,0-41.74,0-.66-.19-.96-.83-1.15-3.14-.93-6.33-1.63-9.58-1.99-5.71-.63-11.32-.3-16.55,2.33-4.87,2.45-10.06,3.35-15.43,3.41-6.51.07-12.92-.81-19.24-2.33-.84-.2-1.07-.09-1.06.82.04,6.91.02,13.82.02,20.73Z"/>
</svg>