<?xml version="1.0" encoding="UTF-8"?>
<svg id="Layer_1" data-name="Layer 1" xmlns="http://www.w3.org/2000/svg" viewBox="0 0 96 96">
  <defs>
    <style>
      .cls-1 {
        fill: none;
        stroke: #b1b0b1;
        stroke-miterlimit: 10;
        stroke-width: 3px;
      }
    </style>
  </defs>
  <circle class="cls-1" cx="13.35" cy="12.44" r="10.59"/>
  <circle class="cls-1" cx="55.69" cy="12.44" r="10.59"/>
  <circle class="cls-1" cx="33.97" cy="47.39" r="10.59"/>
  <circle class="cls-1" cx="40.03" cy="83.56" r="10.59"/>
  <circle class="cls-1" cx="83.91" cy="83.56" r="10.59"/>
  <line class="cls-1" x1="45.1" y1="12.44" x2="23.93" y2="12.44"/>
  <path class="cls-1" d="M23.38,47.4h-4.06c-1.98,0-3.95.25-5.82.9-7.68,2.67-12.79,10.34-11.9,18.78.71,6.78,5.13,12.28,11.01,14.7,2.14.88,4.46,1.23,6.78,1.23h10.07"/>
  <line class="cls-1" x1="73.33" y1="83.01" x2="50.6" y2="83.01"/>
  <path class="cls-1" d="M44.55,47.4h31.11c3.39,0,6.76-.86,9.6-2.71,4.39-2.84,7.46-7.62,7.94-13.24.83-9.67-5.12-18.98-16.01-19.01h-10.91"/>
  <line class="cls-1" x1="36.69" y1="6.63" x2="43.13" y2="12.35"/>
  <line class="cls-1" x1="36.69" y1="18.24" x2="43.13" y2="12.51"/>
  <line class="cls-1" x1="52.37" y1="53.08" x2="45.94" y2="47.35"/>
  <line class="cls-1" x1="52.37" y1="41.47" x2="45.94" y2="47.19"/>
  <line class="cls-1" x1="65.52" y1="77.21" x2="71.96" y2="82.93"/>
  <line class="cls-1" x1="65.52" y1="88.82" x2="71.96" y2="83.09"/>
  <line class="cls-1" x1="21.91" y1="77.21" x2="28.35" y2="82.93"/>
  <line class="cls-1" x1="21.91" y1="88.82" x2="28.35" y2="83.09"/>
</svg>