<?xml version="1.0" encoding="UTF-8"?>
<svg id="Capa_1" data-name="Capa 1" xmlns="http://www.w3.org/2000/svg" viewBox="0 0 96 96">
  <defs>
    <style>
      .cls-1 {
        fill: #b1b0b1;
      }
    </style>
  </defs>
  <path class="cls-1" d="M91,47.98c-.79.28-1.47.78-2.2,1.19-4.25,2.42-8.5,4.85-12.91,7.37,5.05,2.87,9.99,5.68,14.92,8.48,0,.34-.27.36-.45.46-13.93,7.97-27.87,15.93-41.8,23.9-.42.24-.72.24-1.14,0-13.93-7.97-27.86-15.93-41.8-23.9-.16-.09-.37-.14-.48-.44,4.93-2.8,9.87-5.61,14.95-8.5-5.09-2.91-10.05-5.75-15.1-8.64,5.06-2.88,10.02-5.69,15.1-8.58-5.05-2.89-10-5.72-14.97-8.56.19-.36.51-.44.77-.58,13.78-7.83,27.57-15.66,41.35-23.51.56-.32.96-.31,1.51,0,13.78,7.85,27.56,15.67,41.35,23.5.24.14.47.28.86.52-5.05,2.89-10,5.72-14.95,8.55.09.26.29.3.45.39,4.67,2.66,9.33,5.31,14,7.96.16.09.31.26.53.21v.17ZM11.49,30.71c.11.23.34.28.52.39,11.8,6.75,23.6,13.48,35.39,20.24.51.29.84.19,1.29-.06,11.75-6.72,23.5-13.43,35.25-20.15.2-.12.47-.17.59-.47-.16-.1-.32-.22-.48-.31-11.81-6.71-23.63-13.42-35.44-20.15-.51-.29-.85-.19-1.29.06-11.71,6.66-23.43,13.32-35.15,19.98-.23.13-.53.2-.67.48ZM11.37,65.11c.21.15.29.22.39.28,11.9,6.8,23.79,13.59,35.68,20.4.53.3.86.13,1.29-.11,11.67-6.68,23.35-13.35,35.03-20.02.26-.15.51-.31.77-.46-.15-.33-.45-.39-.68-.53-3.47-1.98-6.96-3.94-10.42-5.94-.54-.31-.92-.28-1.44.02-7.73,4.44-15.49,8.85-23.22,13.3-.6.34-1.01.31-1.58-.02-7.71-4.43-15.44-8.83-23.14-13.26-.59-.34-1.02-.32-1.58.01-2.39,1.4-4.8,2.75-7.21,4.12-1.26.72-2.52,1.43-3.88,2.21ZM84.67,47.91c-3.93-2.23-7.77-4.41-11.6-6.59-.46-.26-.74-.03-.95.34-.29.49-.7.81-1.28.8-.29,0-.54.06-.79.21-.82.48-1.64.97-2.48,1.41-.42.22-.48.38-.19.8.48.69.22,1.59-.47,2.04-.73.47-1.72.31-2.1-.5-.31-.68-.59-.43-1-.2-4.78,2.74-9.56,5.47-14.35,8.19-.38.22-.61.45-.69.93-.14.87-.99,1.36-1.83,1.18-.83-.18-1.39-1-1.11-1.85.19-.59-.1-.72-.47-.93-4.91-2.8-9.81-5.6-14.71-8.39-.18-.1-.34-.3-.59-.22-.01,1.26-.43,1.9-1.31,2.02-.76.11-1.5-.34-1.71-1.04-.26-.86.1-1.48,1.27-2.1-1.04-.59-2.07-1.17-3.08-1.76-.26-.15-.45-.1-.69.03-.63.33-1.29.3-1.77-.23-.36-.41-.6-.31-.97-.09-3.28,1.87-6.56,3.73-9.84,5.6-.18.1-.35.22-.6.38.41.24.75.42,1.08.63.52.33.98.56,1.68.29.81-.31,1.62.3,1.78,1.18.06.35.16.6.49.79,4.93,2.8,9.86,5.62,14.79,8.43.27.15.42.25.63-.13.53-.95,1.37-1.21,2.15-.74.81.48,1,1.31.42,2.23-.2.32-.12.45.15.57,1.26.56,2.26,1.65,3.75,1.75.38.02.67.3.86.62.16.27.37.47.65.63,2.58,1.47,5.15,2.93,7.71,4.42.36.21.64.2,1-.01,2.05-1.19,4.12-2.37,6.19-3.54.27-.16.43-.3.46-.69.12-1.27,1.1-1.79,2.3-1.26.27.12.45.12.69-.02.99-.58,1.98-1.14,2.99-1.73-1.17-.72-1.51-1.37-1.2-2.21.25-.67.94-1.04,1.69-.94.48.07.82.33,1.07.73.26.4.25.87.19,1.42,1.83-1.04,3.55-2.02,5.27-3,3.37-1.93,6.75-3.85,10.12-5.79.26-.15.67-.2.46-.71-.33-.8-.03-1.45.67-1.86.72-.41,1.41-.27,1.95.37.17.21.3.28.55.13.89-.52,1.79-1.03,2.76-1.59Z"/>
  <path class="cls-1" d="M19.15,47.16c-.86.02-1.55-.64-1.57-1.49-.02-.86.64-1.55,1.5-1.57.86-.02,1.55.64,1.57,1.49.02.87-.63,1.55-1.49,1.57Z"/>
  <path class="cls-1" d="M23.8,48.8c.87,0,1.54.65,1.54,1.52,0,.86-.66,1.54-1.52,1.54-.86,0-1.54-.66-1.54-1.52,0-.86.65-1.54,1.52-1.54Z"/>
  <path class="cls-1" d="M66.05,56.56c-.84,0-1.55-.72-1.54-1.55,0-.84.71-1.53,1.57-1.52.85,0,1.55.71,1.54,1.55,0,.83-.73,1.53-1.57,1.53Z"/>
  <path class="cls-1" d="M77.01,45.67c-.02.84-.74,1.51-1.59,1.5-.85-.02-1.54-.74-1.52-1.57.03-.84.74-1.52,1.59-1.5.84.02,1.54.74,1.52,1.57Z"/>
  <path class="cls-1" d="M33.16,48.8c.87-.02,1.55.63,1.57,1.49.02.86-.64,1.55-1.5,1.57-.87.02-1.55-.63-1.57-1.49-.02-.87.63-1.55,1.49-1.57Z"/>
  <path class="cls-1" d="M61.35,51.86c-.85,0-1.54-.72-1.53-1.56.01-.85.71-1.52,1.57-1.51.85,0,1.55.72,1.54,1.55-.01.84-.73,1.52-1.58,1.51Z"/>
  <path class="cls-1" d="M72.32,50.35c-.02.84-.73,1.52-1.58,1.51-.85-.01-1.55-.73-1.53-1.56.02-.84.73-1.52,1.58-1.51.85.01,1.55.73,1.53,1.56Z"/>
  <path class="cls-1" d="M30.04,55.05c-.01.85-.71,1.52-1.56,1.51-.85-.01-1.52-.7-1.5-1.56.01-.86.69-1.52,1.56-1.5.85.01,1.52.7,1.51,1.55Z"/>
  <path class="cls-1" d="M37.92,56.56c-.85.01-1.54-.66-1.55-1.51-.01-.87.64-1.54,1.5-1.55.86-.01,1.55.66,1.56,1.51.01.85-.67,1.55-1.52,1.56Z"/>
  <path class="cls-1" d="M42.55,58.19c.85-.02,1.56.65,1.58,1.49.02.84-.66,1.56-1.5,1.58-.86.02-1.55-.64-1.57-1.5-.02-.87.63-1.55,1.49-1.57Z"/>
  <path class="cls-1" d="M51.97,58.19c.85,0,1.55.69,1.56,1.52,0,.84-.7,1.54-1.55,1.54-.85,0-1.54-.69-1.55-1.53,0-.85.68-1.53,1.54-1.54Z"/>
  <path class="cls-1" d="M58.23,55.02c0,.83-.71,1.54-1.55,1.54-.84,0-1.55-.69-1.55-1.53,0-.85.69-1.53,1.54-1.54.85,0,1.55.69,1.55,1.53Z"/>
  <path class="cls-1" d="M48.83,64.43c-.01.83-.73,1.53-1.56,1.53-.84,0-1.52-.71-1.52-1.56,0-.86.69-1.52,1.55-1.51.85,0,1.54.71,1.53,1.55Z"/>
</svg>