<?xml version="1.0" encoding="UTF-8"?>
<svg id="Capa_1" data-name="Capa 1" xmlns="http://www.w3.org/2000/svg" viewBox="0 0 96 96">
  <defs>
    <style>
      .cls-1 {
        fill: #b1b0b1;
      }
    </style>
  </defs>
  <path class="cls-1" d="M52.03,91.05h-8.07c-.45-.19-.94-.13-1.41-.16-7.02-.35-13.93-1.32-20.63-3.54-3.63-1.2-7.13-2.71-10.01-5.32-1.94-1.75-3.1-3.84-3.09-6.6.05-18.33.04-36.66,0-54.99,0-2,.68-3.66,1.89-5.15,2.09-2.57,4.88-4.17,7.86-5.45,6.61-2.86,13.61-4,20.73-4.56,6.35-.5,12.71-.45,19.06.15,5.79.54,11.48,1.54,16.96,3.56,3.33,1.23,6.5,2.77,9.06,5.31,1.77,1.75,2.8,3.77,2.79,6.4-.05,18.22-.06,36.43,0,54.65,0,2.83-1.16,4.96-3.16,6.74-2.87,2.57-6.35,4.06-9.95,5.26-5.82,1.94-11.84,2.88-17.94,3.39-1.36.11-2.75.02-4.1.31ZM48.02,8.1c-3.03,0-6.05.1-9.07.38-5.73.52-11.38,1.48-16.83,3.37-2.52.87-4.95,1.93-7.11,3.53-.52.38-1.02.8-1.46,1.26-2.08,2.15-2,4.46.18,6.53,1.92,1.83,4.24,3,6.67,3.96,6.58,2.6,13.48,3.69,20.48,4.18,6.41.45,12.82.32,19.21-.47,5.32-.66,10.55-1.72,15.55-3.72,2.4-.96,4.69-2.12,6.6-3.92,2.2-2.07,2.3-4.36.23-6.53-.46-.48-.98-.92-1.53-1.31-2.94-2.14-6.3-3.38-9.76-4.36-7.57-2.16-15.33-2.9-23.18-2.9ZM83.99,63.43c-.22.14-.32.18-.4.25-2.57,2.16-5.53,3.58-8.67,4.69-6.47,2.29-13.18,3.27-20,3.68-5.26.31-10.53.27-15.79-.14-4.81-.38-9.56-1.08-14.22-2.34-4.6-1.25-8.99-2.94-12.72-6.01-.03-.02-.1.01-.2.02v.91c0,3.73.03,7.45-.01,11.18-.01,1.35.46,2.45,1.32,3.43,1.53,1.71,3.47,2.82,5.53,3.73,7.03,3.14,14.5,4.31,22.1,4.86,5.34.39,10.69.33,16.03-.15,6.24-.56,12.37-1.63,18.25-3.89,2.36-.9,4.63-2,6.57-3.66,1.11-.95,2.15-2.05,2.18-3.55.09-4.28.03-8.57.03-12.99ZM12.01,44.57c0,4.13.06,8.05-.03,11.97-.05,2.03.85,3.47,2.3,4.71,1.35,1.15,2.89,2.01,4.5,2.75,4.83,2.21,9.95,3.41,15.17,4.15,9.65,1.37,19.32,1.37,28.96-.14,4.91-.76,9.71-1.92,14.26-3.99,2-.91,3.9-1.98,5.41-3.61.82-.89,1.4-1.9,1.4-3.15,0-3.95.01-7.9,0-11.85,0-.23.13-.5-.16-.71-1.66,1.44-3.53,2.56-5.52,3.49-4.55,2.13-9.38,3.28-14.31,4.09-5.4.89-10.85,1.2-16.32,1.19-5.04-.01-10.07-.31-15.07-1.09-5.19-.81-10.27-2-15.05-4.24-1.95-.91-3.77-2.04-5.55-3.56ZM12.04,25.84c-.02.34-.04.56-.04.77,0,3.78.05,7.57,0,11.35-.02,1.51.51,2.72,1.53,3.77,1.52,1.58,3.4,2.64,5.37,3.53,4.73,2.14,9.74,3.31,14.85,4.06,9.83,1.42,19.66,1.41,29.47-.15,4.77-.76,9.44-1.9,13.86-3.89,2.08-.94,4.06-2.04,5.6-3.77.77-.86,1.3-1.83,1.3-3.02.01-3.98.01-7.96,0-11.94,0-.2.11-.45-.16-.63-2.17,1.85-4.65,3.19-7.28,4.26-6.27,2.53-12.86,3.65-19.55,4.16-9.57.73-19.1.48-28.53-1.49-5.88-1.23-11.54-3.03-16.43-7.01Z"/>
</svg>