<?xml version="1.0" encoding="UTF-8"?>
<svg id="Layer_1" data-name="Layer 1" xmlns="http://www.w3.org/2000/svg" viewBox="0 0 96 96">
  <defs>
    <style>
      .cls-1 {
        fill: #b3b2b4;
      }
    </style>
  </defs>
  <path class="cls-1" d="M63.73,96v-3h12.14l.06,2.39v.61s-12.2,0-12.2,0ZM51.59,96h-12.14v-3h12.14v3ZM27.3,96h-7.17c-1.8,0-3.58-.24-5.3-.71l.79-2.89c1.46.4,2.98.6,4.51.6h7.17v3ZM88.15,91.83l-1.83-2.38c2.97-2.29,5.13-5.52,6.1-9.12l2.9.78c-1.14,4.22-3.68,8.03-7.16,10.71ZM4.14,88.1C1.43,84.57,0,80.35,0,75.89h3c0,3.79,1.22,7.38,3.52,10.38l-2.38,1.82ZM96,68.64h-3v-12.14h3v12.14ZM3,63.75H0v-12.14h3v12.14ZM96,44.35h-3v-12.14h3v12.14ZM3,39.46H0v-12.14h3v12.14ZM93,20.08c-.01-3.79-1.24-7.38-3.54-10.38l2.38-1.83c2.71,3.52,4.15,7.74,4.16,12.2h-3ZM3.6,15.63l-2.9-.79c1.15-4.22,3.7-8.02,7.19-10.7l1.83,2.38c-2.97,2.28-5.14,5.51-6.12,9.1ZM80.35,3.59c-1.45-.39-2.96-.59-4.48-.59h-7.21V0h7.21C77.66,0,79.43.23,81.13.7l-.78,2.9ZM56.52,3h-12.14V0h12.14v3ZM32.23,3h-12.1L20.09,0h12.14v3Z"/>
</svg>