<?xml version="1.0" encoding="UTF-8"?>
<svg id="Layer_1" data-name="Layer 1" xmlns="http://www.w3.org/2000/svg" viewBox="0 0 96 96">
  <path d="M94.38,63.62c-1.89-3.19-5.25-4.31-8.17-2.7l-1.87,1.02v-19.56c2.05-.76,3.41-2.71,3.41-4.9v-10.72c0-2.88-2.34-5.22-5.22-5.22h-11.99c3.92-2.07,6.22-5.27,6.38-8.91.15-3.39-1.71-6.49-4.75-7.88-1.89-.86-6.97-2.18-13.42,4.01-2.73,2.63-5.02,5.85-6.66,9.35-1.65-3.5-3.94-6.73-6.65-9.35-6.44-6.2-11.53-4.87-13.42-4.01-3.04,1.38-4.92,4.47-4.79,7.88.15,3.63,2.46,6.83,6.39,8.91h-9.8c-2.88,0-5.22,2.34-5.22,5.22v10.72c0,2.16,1.39,4.15,3.41,4.9v15.8l-3.65,1.47c-.75-1.08-1.98-1.73-3.32-1.73H4.55c-1.06,0-2.08.39-2.86,1.16-.77.76-1.19,1.78-1.19,2.87v24.89c0,2.23,1.81,4.04,4.04,4.04h10.48c1.35,0,2.62-.69,3.37-1.81l6.87,2.33c1.24.43,2.4.63,3.74.63h30.49c1.92,0,3.58-.49,5.23-1.55l28.23-18.04c3.13-2.01,3.06-6.04,1.42-8.81ZM41.49,28.98h0s0,0,0,0h0ZM41.29,28.83l-.27.37c-1.26,1.7-2.45,3.3-3.85,4.4-.38.29-.62.72-.68,1.2-.06.48.08.97.38,1.35.35.44.86.68,1.43.68.39,0,.79-.14,1.13-.39,1.83-1.46,3.26-3.38,4.64-5.25l.06-.08c1.96-2.65,3.66-4.95,6.13-5.7v13.64h-26.47c-.88,0-1.59-.71-1.59-1.59v-10.72c0-.88.71-1.59,1.59-1.59h20.49c-1.11,1.14-2.06,2.43-2.99,3.68ZM25.61,42.69h24.63v19.27h-5.65c-.85,0-1.56-.17-2.29-.57l-8.75-4.66c-1.26-.67-2.58-1.01-3.93-1.01-1.06,0-2.12.21-3.16.63l-.86.35v-14.01ZM31.85,59.93l8.75,4.66c1.28.68,2.55,1,3.99,1h13.76c1.22,0,2.22.76,2.56,1.93.34,1.17-.1,2.35-1.13,3.01l-2.89,1.86c-.72.47-1.45.68-2.34.68h-12.95c-1,0-1.82.81-1.82,1.81s.81,1.81,1.82,1.81h20.29c1.92,0,3.65-.45,5.43-1.4l20.58-11.2c1.82-1,3.08.96,3.32,1.37.64,1.05,1.15,3.03-.22,3.9l-28.23,18.06c-1.07.68-2.08.98-3.28.98h-30.47c-.95,0-1.7-.12-2.58-.42l-7.38-2.5v-22.24l8.76-3.52c1.37-.55,2.73-.48,4.02.22ZM80.7,63.91l-15.08,8.19c-1.06.58-2.05.88-3.14.95,1.87-1.61,2.65-4.15,1.94-6.57-.8-2.71-3.23-4.54-6.06-4.54h-4.49v-19.25h26.83v21.22ZM64.71,36.45c.32.26.7.39,1.13.39.57,0,1.08-.24,1.43-.68.3-.38.43-.86.38-1.33-.05-.48-.29-.91-.67-1.2-1.41-1.13-2.59-2.68-3.99-4.6l-.06-.08c-.95-1.28-1.93-2.6-3.07-3.78h22.68c.87,0,1.57.71,1.57,1.59v10.72c0,.88-.71,1.59-1.59,1.59h-28.64v-13.64c2.47.75,4.17,3.05,6.13,5.7l.13.17c1.36,1.84,2.78,3.74,4.58,5.15ZM68.59,7.63c.74,0,1.43.15,2.07.43,1.68.75,2.7,2.48,2.62,4.41-.12,2.84-2.53,5.34-6.44,6.71-3.22,1.14-7.44,1.9-12.23,2.21,1.41-3.66,3.81-7.3,6.62-10.03,2.57-2.45,5.12-3.74,7.36-3.74ZM30.85,12.47c-.09-1.93.94-3.66,2.62-4.41.62-.29,1.32-.43,2.07-.43,2.22,0,4.83,1.33,7.34,3.76,2.79,2.67,5.2,6.31,6.64,10.01-4.81-.32-9.03-1.08-12.22-2.21h0c-3.91-1.39-6.32-3.9-6.44-6.71ZM15.44,61.94v24.87c0,.23-.19.43-.41.43H4.54c-.22,0-.41-.2-.41-.41v-24.89c0-.1.05-.21.13-.29s.18-.13.29-.13h10.48c.22,0,.41.2.41.41Z" fill="#b1b0b1"/>
</svg>