<?xml version="1.0" encoding="UTF-8"?>
<svg id="Capa_1" data-name="Capa 1" xmlns="http://www.w3.org/2000/svg" viewBox="0 0 96 96">
  <defs>
    <style>
      .cls-1 {
        fill: #b1b0b1;
      }
    </style>
  </defs>
  <path class="cls-1" d="M45.66,91.1c-6.39,0-12.72-1.59-18.3-4.6l1.19-2.2c5.22,2.81,11.14,4.3,17.11,4.3,19.94,0,36.16-16.22,36.16-36.16h2.5c0,21.32-17.34,38.66-38.66,38.66Z"/>
  <path class="cls-1" d="M93.21,53.69h-48.8V4.9h1.25c26.22,0,47.55,21.33,47.55,47.55v1.25ZM46.91,51.19h43.78c-.65-23.85-19.93-43.13-43.78-43.78v43.78Z"/>
  <path class="cls-1" d="M26.47,90.8l-1.1-.59c-13.93-7.5-22.58-21.97-22.58-37.77C2.79,28.8,22.02,9.57,45.66,9.57v2.5C23.4,12.07,5.29,30.18,5.29,52.44c0,14.46,7.7,27.74,20.17,34.96l19.1-35.55,2.2,1.18-20.29,37.77Z"/>
</svg>