<?xml version="1.0" encoding="UTF-8"?>
<svg id="Layer_1" data-name="Layer 1" xmlns="http://www.w3.org/2000/svg" viewBox="0 0 96 96">
  <path d="M60.19,55.05c.51.5,1.19.78,1.91.78.71,0,1.4-.28,1.91-.78l26.26-26.37c3.06-3.07,4.76-7.24,4.73-11.57-.03-4.33-1.79-8.47-4.89-11.5-6.49-6.05-16.61-5.88-22.9.37l-5.11,5.14-5.33-5.36c-3.02-3.05-7.13-4.76-11.42-4.76s-8.4,1.71-11.42,4.76c-6.29,6.34-6.29,16.57,0,22.92l26.26,26.37ZM36.15,7.98c2.43-2.46,5.74-3.84,9.2-3.84s6.77,1.38,9.2,3.84l5.64,5.66c1.08,1,2.74,1,3.82,0l5.43-5.45c5.07-5.06,13.23-5.21,18.49-.34,2.5,2.44,3.92,5.79,3.94,9.29.02,3.5-1.35,6.86-3.82,9.34h0s-25.95,26.06-25.95,26.06l-25.95-26.06c-5.08-5.12-5.08-13.38,0-18.5Z" fill="#b1b0b1"/>
  <path d="M91.41,57.9c-1.27-.36-2.63-.21-3.78.44l-2.54,1.43-.08-.08c-2.16-2.14-5.36-2.85-8.23-1.81l-12.79,4.83-30.08-5.14c-2.63-.42-5.33-.16-7.83.75l-6.4,2.76c-.47-2.15-2.38-3.69-4.59-3.69H5.7c-2.6,0-4.7,2.1-4.7,4.7v21.93c0,2.6,2.1,4.7,4.7,4.7h9.4c2.47-.01,4.51-1.93,4.67-4.4.32,0,.64.03.94.12l31.91,10.21c2.44.73,5.08.23,7.08-1.33l33.41-26.78c1.18-.95,1.87-2.38,1.88-3.89,0-.84-.22-1.67-.63-2.41-.64-1.15-1.7-1.99-2.96-2.35ZM16.67,63.33s-.02.07-.02.1l.02,19.61v.99c0,.86-.7,1.57-1.57,1.57H5.7c-.87,0-1.57-.7-1.57-1.57v-21.93c0-.86.7-1.57,1.57-1.57h9.4c.86,0,1.57.7,1.57,1.57v1.23ZM77.88,60.82c1.45-.52,3.07-.3,4.33.59l-10.97,6.2c-.04-.32-.1-.63-.2-.94-.03-.09-.06-.18-.1-.27-.08-.22-.17-.42-.28-.63-.05-.09-.09-.17-.15-.26-.14-.22-.29-.43-.46-.63-.04-.04-.06-.09-.1-.13-.21-.23-.45-.44-.7-.63-.02-.01-.03-.03-.05-.05l8.67-3.27ZM91.17,64.1l-33.4,26.78c-1.2.92-2.76,1.22-4.22.8l-31.89-10.2c-.59-.18-1.2-.28-1.82-.28h-.04v-16.75l7.44-3.22c1.98-.71,4.1-.9,6.18-.57l30.46,5.2s.07.01.11.01l2.61.44c.88.15,1.53.9,1.54,1.79,0,.48-.18.94-.51,1.28-.35.35-.81.54-1.3.55h-27.95c-.86,0-1.57.7-1.57,1.57s.7,1.57,1.57,1.57h5.82l9.12,5.66c.36.2.74.35,1.13.45.26.06.53.09.8.1.13.01.25.05.38.05h0c.3,0,.6-.05.89-.11.09-.02.19-.01.28-.04.39-.1.77-.25,1.12-.45l27.7-15.65h0s3.55-2.02,3.55-2.02c.87-.48,1.98-.17,2.47.7.15.27.23.58.23.9,0,.56-.26,1.09-.7,1.44ZM61.57,73.07l-5.2,2.94c-.46.25-1.01.26-1.48.02l-4.77-2.96h11.45Z" fill="#b1b0b1"/>
  <path d="M44.87,10.42h.1c.13-.02.26-.02.4-.02.86,0,1.56-.7,1.56-1.57,0-.86-.71-1.56-1.57-1.56-.2,0-.4,0-.59.02-.86.03-1.54.75-1.52,1.62.03.86.75,1.54,1.62,1.52Z" fill="#b1b0b1"/>
  <path d="M40.62,26.53c.4.4.97.55,1.51.41.54-.14.96-.56,1.11-1.11.15-.54,0-1.12-.4-1.51l-2.25-2.26c-2.46-2.46-2.67-6.39-.49-9.1.37-.43.48-1.04.27-1.57-.2-.53-.68-.92-1.24-1-.57-.08-1.13.15-1.47.61-3.18,3.96-2.87,9.68.72,13.27l2.25,2.26Z" fill="#b1b0b1"/>
  <path d="M11.97,63.67h-3.13c-.87,0-1.57.7-1.57,1.57s.7,1.57,1.57,1.57h3.13c.86,0,1.57-.7,1.57-1.57s-.7-1.57-1.57-1.57Z" fill="#b1b0b1"/>
  <path d="M11.97,79.33h-3.13c-.87,0-1.57.7-1.57,1.57s.7,1.57,1.57,1.57h3.13c.86,0,1.57-.7,1.57-1.57s-.7-1.57-1.57-1.57Z" fill="#b1b0b1"/>
</svg>