<?xml version="1.0" encoding="UTF-8"?>
<svg id="Layer_1" data-name="Layer 1" xmlns="http://www.w3.org/2000/svg" viewBox="0 0 96 96">
  <path d="M26.35,88.93s0,0,0,0ZM95.17,63.99c-.42.96-1.18,1.69-2.15,2.07l-5.44,2.13c-.46.18-.94.27-1.42.27-.53,0-1.06-.11-1.57-.33-.74-.32-1.35-.86-1.76-1.54l-6.19,2.64c.2,1.2.01,2.47-.61,3.6-.73,1.33-1.95,2.3-3.42,2.72-.02,0-.03,0-.05.01.55,1.49.49,3.2-.33,4.68-1.03,1.87-2.96,2.93-4.96,2.93-.41,0-.83-.05-1.24-.14.05,1-.17,2.03-.68,2.96-1.03,1.87-2.96,2.93-4.96,2.93-.24,0-.49-.02-.73-.05.08,1.05-.14,2.13-.68,3.11-1.03,1.87-2.96,2.93-4.96,2.93-.92,0-1.85-.22-2.71-.7l-1.95-1.07c-.72,1.01-1.75,1.75-2.95,2.11-.54.17-1.1.25-1.65.25-.92,0-1.82-.22-2.65-.67-1.3-.69-2.21-1.83-2.66-3.12-.24.11-.49.21-.74.28-.54.17-1.1.25-1.65.25-.92,0-1.82-.22-2.65-.67-1.17-.63-2.03-1.61-2.52-2.75-.38.22-.78.4-1.21.52-.54.17-1.1.25-1.65.25-.92,0-1.82-.22-2.65-.67-1.33-.71-2.3-1.9-2.74-3.35-.27-.89-.32-1.81-.15-2.69-.11,0-.22.01-.33.01-.92,0-1.82-.22-2.65-.67-1.33-.71-2.3-1.9-2.74-3.35-.44-1.45-.29-2.98.42-4.3l1.43-2.67c-.37-.82-.53-1.72-.69-2.6-.3-1.64-.52-2.44-1.2-2.71-.51-.2-2.04-.87-4.92-2.16-.75.95-1.89,1.49-3.07,1.49-.54,0-1.09-.11-1.61-.35l-5.32-2.43c-1.96-.89-2.82-3.21-1.93-5.17l10.93-23.91c.89-1.96,3.21-2.82,5.17-1.93l5.32,2.43c1.96.89,2.82,3.21,1.93,5.17l-.33.72,4.81,2.22s.07.03.11.05c1.91,1.08,3.9.61,6.42.01,3.28-.77,7.31-1.73,12.04,1.06,6.5-4.02,11.49-1.99,15.17-.48,2.68,1.1,4.41,1.72,6.07.86l4.57-2.45-.1-.26c-.78-2,.21-4.27,2.21-5.05l5.44-2.13c2-.78,4.27.21,5.05,2.21t0,0l9.58,24.48c.38.97.36,2.03-.06,2.98h0ZM10.56,62.43l10.93-23.91c.21-.46,0-1.02-.46-1.23l-5.32-2.43c-.22-.1-.48-.11-.71-.02-.23.09-.42.26-.52.48L3.55,59.23c-.21.46,0,1.02.46,1.23l5.32,2.43c.46.21,1.02,0,1.23-.46ZM23.93,79.82c.69-.21,1.25-.67,1.58-1.29,0,0,2.65-4.95,2.65-4.95.68-1.28.18-2.95-1.1-3.63-1.28-.68-2.94-.19-3.63,1.1,0,0-2.64,4.94-2.65,4.95-.69,1.28-.18,2.95,1.1,3.63.63.34,1.35.41,2.04.2h0ZM31.38,85.21s3.58-6.7,3.58-6.7c.68-1.28.18-2.95-1.1-3.63-1.27-.68-2.93-.2-3.63,1.09l-3.59,6.71c-.34.63-.41,1.35-.2,2.04s.67,1.25,1.3,1.59c.63.34,1.35.41,2.04.2s1.25-.67,1.59-1.3h0ZM39.42,87.86s2.9-5.42,2.9-5.42c.68-1.28.18-2.95-1.1-3.63-1.29-.68-2.95-.18-3.63,1.1l-2.9,5.42c-.7,1.3-.2,2.93,1.1,3.63.63.34,1.35.41,2.04.2.69-.21,1.25-.67,1.59-1.3h0ZM47.13,91.12s2.54-4.74,2.54-4.74c.68-1.27.17-2.95-1.1-3.63-1.29-.68-2.95-.19-3.63,1.1l-2.54,4.74c-.7,1.3-.2,2.93,1.1,3.63.63.34,1.35.41,2.04.2.69-.21,1.25-.67,1.59-1.3h0ZM55.53,87.04l-2.56-1.41s-.03-.02-.04-.02c-.07.75-.28,1.48-.64,2.16l-1.48,2.77,1.94,1.07c1.3.71,2.93.24,3.64-1.06.67-1.22.28-2.75-.85-3.52h0ZM72.35,67.75l-14.41-8.21c-2.46-1.4-5.53-.16-9.08,1.27-5.35,2.17-12.01,4.86-17.64-2.9-.25-.34-.34-.77-.25-1.18s.35-.77.71-.98c4.28-2.45,7.87-5.13,10.68-7.97.72-.73,1.45-1.39,2.18-2-3.17-1.42-5.86-.79-8.67-.12-2.75.65-5.59,1.32-8.5-.29l-4.75-2.19-8.51,18.62c1.7.76,4.08,1.82,4.65,2.05,2.13.83,2.66,2.88,2.97,4.53.66-.68,1.48-1.18,2.42-1.47,1.45-.44,2.98-.29,4.3.42,1.32.7,2.3,1.89,2.74,3.34.11.35.18.71.22,1.06,1.31-.29,2.67-.1,3.86.53,1.32.7,2.3,1.89,2.74,3.34.03.08.05.17.07.25.08-.03.16-.05.24-.08,1.45-.44,2.98-.29,4.3.42,1.32.7,2.29,1.89,2.74,3.34.03.08.05.17.07.25.08-.03.16-.05.24-.08,1.45-.44,2.98-.29,4.3.42.65.34,1.21.8,1.67,1.35l7.48,4.15c1.3.71,2.93.24,3.64-1.06.71-1.28.23-2.92-1.07-3.65l-8.89-5.01c-.71-.4-.97-1.31-.57-2.02.4-.71,1.31-.97,2.02-.57l11.75,6.55c1.3.71,2.93.24,3.64-1.06.7-1.27.23-2.9-1.04-3.63-.08-.04-10.58-5.96-10.58-5.96-.71-.4-.97-1.31-.56-2.02.4-.71,1.31-.97,2.02-.56l10.33,5.83c.6.34,1.31.42,2,.23.7-.2,1.28-.66,1.63-1.29.7-1.28.22-2.91-1.08-3.65h0ZM81.69,63.85l-7.56-19.31-4.27,2.29c-2.99,1.55-5.83.39-8.58-.73-3.76-1.54-7.64-3.12-13.26.76-1.18.81-2.37,1.83-3.54,3.01-2.66,2.69-5.96,5.23-9.82,7.58,3.97,4.31,8.22,2.59,13.09.62,3.91-1.58,7.95-3.22,11.66-1.1l14.41,8.21c.63.36,1.17.82,1.6,1.35l6.27-2.67ZM92.47,62.09s-9.57-24.47-9.58-24.48c-.18-.46-.74-.71-1.21-.53l-5.44,2.13c-.47.18-.71.74-.53,1.21l9.58,24.48c.09.23.27.41.49.51.23.1.48.11.71.02l5.44-2.13c.23-.09.41-.27.51-.49s.11-.48.02-.71h0ZM80.35,39.53c-1.14,0-2.07.93-2.07,2.07s.93,2.07,2.07,2.07,2.07-.93,2.07-2.07-.93-2.07-2.07-2.07ZM16.9,37.37c-1.14-.06-2.12.81-2.18,1.95s.81,2.12,1.95,2.18,2.12-.81,2.18-1.95-.81-2.12-1.95-2.18ZM17.11,27.62c-.73-.99-.94-2.19-.57-3.37,1.02-3.29,3.37-5.84,6.36-7.16-1.17-1.19-1.89-2.82-1.89-4.61,0-3.63,2.96-6.59,6.59-6.59s6.59,2.96,6.59,6.59c0,1.79-.72,3.42-1.88,4.61,1.47.65,2.79,1.6,3.88,2.81,1.66-2.13,3.88-3.78,6.44-4.76-1.79-1.53-2.93-3.8-2.93-6.33,0-4.58,3.73-8.31,8.31-8.31s8.31,3.73,8.31,8.31c0,2.53-1.14,4.8-2.93,6.33,2.55.98,4.77,2.63,6.44,4.76,1.09-1.21,2.41-2.16,3.88-2.81-1.16-1.19-1.88-2.82-1.88-4.61,0-3.63,2.96-6.59,6.59-6.59s6.59,2.96,6.59,6.59c0,1.79-.72,3.42-1.89,4.61,2.99,1.32,5.34,3.88,6.36,7.16.37,1.18.16,2.38-.57,3.37-.73.99-1.82,1.54-3.05,1.54h-12.93v1.24c0,2.81-2.28,5.09-5.09,5.09h-19.62c-2.81,0-5.09-2.28-5.09-5.09v-1.24h-12.93c-1.24,0-2.32-.55-3.05-1.54h0ZM68.39,16.09h0c2,0,3.62-1.62,3.62-3.62s-1.62-3.62-3.62-3.62-3.62,1.62-3.62,3.62,1.62,3.62,3.62,3.62ZM61.47,22.56c.55,1.14.97,2.35,1.22,3.63h13.14c.28,0,.49-.11.66-.34.17-.23.21-.46.12-.73-1.12-3.62-4.43-6.06-8.23-6.06h0c-2.77,0-5.3,1.29-6.92,3.49ZM48,14.15h0c2.94,0,5.34-2.4,5.34-5.34,0-2.94-2.4-5.34-5.34-5.34s-5.34,2.4-5.34,5.34,2.39,5.34,5.34,5.34h0ZM36.07,27.76v2.65c0,1.17.95,2.12,2.12,2.12h19.62c1.17,0,2.12-.95,2.12-2.12v-2.65c-.69-6.07-5.8-10.64-11.93-10.64h0s0,0,0,0c-6.13,0-11.24,4.57-11.93,10.64ZM27.6,16.09h0c2,0,3.62-1.62,3.62-3.62s-1.62-3.62-3.62-3.62-3.62,1.62-3.62,3.62,1.62,3.62,3.62,3.62ZM19.5,25.86c.17.23.38.33.66.33h13.15c.25-1.28.67-2.5,1.22-3.63-1.62-2.2-4.15-3.49-6.92-3.49h0c-3.8,0-7.1,2.44-8.23,6.06-.08.27-.04.5.12.73Z" fill="#b1b0b1"/>
</svg>