<?xml version="1.0" encoding="UTF-8"?>
<svg id="Layer_1" data-name="Layer 1" xmlns="http://www.w3.org/2000/svg" viewBox="0 0 96 96">
  <path d="M83.42,53.23l4.76-4.76c9.77-9.77,9.77-25.65,0-35.42-9.77-9.77-25.65-9.77-35.42,0l-4.76,4.76-4.76-4.76C33.48,3.29,17.59,3.29,7.82,13.05-1.94,22.82-1.94,38.71,7.82,48.47l8.28,8.28c.62.62,1.69.62,2.31,0,.64-.64.64-1.67,0-2.31l-8.28-8.28c-4.11-4.11-6.37-9.58-6.37-15.4s2.26-11.29,6.37-15.4c8.49-8.49,22.31-8.49,30.8,0l4.76,4.76-6.53,6.53c-2.92,2.92-2.92,7.67,0,10.59,2.92,2.92,7.67,2.92,10.59,0l10.05-10.05c.64-.64.64-1.67,0-2.31-.62-.62-1.7-.62-2.31,0l-10.05,10.05c-.8.8-1.86,1.24-2.98,1.24s-2.19-.44-2.98-1.24-1.24-1.86-1.24-2.98.44-2.19,1.24-2.98l13.6-13.6c8.49-8.49,22.31-8.49,30.8,0,4.11,4.11,6.37,9.58,6.37,15.4s-2.26,11.29-6.37,15.4l-4.76,4.76-18.95-18.95c-.64-.64-1.67-.64-2.31,0-.31.31-.48.72-.48,1.15s.17.85.48,1.16l25.42,25.42c.8.8,1.24,1.86,1.24,2.98s-.44,2.19-1.24,2.98c-.8.8-1.86,1.24-2.98,1.24s-2.19-.44-2.98-1.24l-8.87-8.87c-.64-.64-1.67-.64-2.31,0-.31.31-.48.72-.48,1.15s.17.85.48,1.16l7.69,7.69c.8.8,1.24,1.86,1.24,2.98s-.44,2.19-1.24,2.98c-1.65,1.64-4.32,1.64-5.97,0l-8.87-8.87c-.62-.62-1.69-.62-2.31,0-.31.31-.48.72-.48,1.15s.17.85.48,1.16l7.69,7.69c.8.8,1.23,1.86,1.23,2.98s-.44,2.19-1.23,2.98-1.86,1.24-2.98,1.24-2.19-.44-2.98-1.24l-8.87-8.87c-.61-.62-1.69-.62-2.31,0-.31.31-.48.72-.48,1.16s.17.85.48,1.15l6.5,6.5c1.64,1.65,1.64,4.32,0,5.97s-4.32,1.65-5.97,0l-.91-.91c.49-1.02.74-2.11.74-3.25,0-2-.78-3.88-2.19-5.29-1.61-1.61-3.88-2.4-6.14-2.14.25-2.26-.53-4.53-2.14-6.14-1.61-1.61-3.88-2.4-6.14-2.14.25-2.26-.53-4.53-2.14-6.14-1.41-1.41-3.29-2.19-5.29-2.19s-3.88.78-5.29,2.19c-1.41,1.41-2.19,3.29-2.19,5.29s.78,3.88,2.19,5.29c1.61,1.61,3.81,2.41,6.14,2.14-.25,2.26.53,4.53,2.14,6.14,1.61,1.61,3.81,2.4,6.14,2.14-.25,2.26.53,4.53,2.14,6.14,1.41,1.41,3.29,2.19,5.29,2.19,1.71,0,3.37-.59,4.7-1.66l.65.65c1.41,1.41,3.29,2.19,5.29,2.19s3.88-.78,5.29-2.19c1.2-1.2,1.95-2.76,2.14-4.44.99.47,2.1.72,3.21.72,2,0,3.88-.78,5.29-2.19s2.16-3.21,2.19-5.17c.65.18,1.31.27,1.98.27,2,0,3.88-.78,5.29-2.19,1.37-1.37,2.15-3.23,2.19-5.17.64.18,1.31.27,1.98.27,2,0,3.88-.78,5.29-2.19s2.19-3.29,2.19-5.29-.78-3.88-2.19-5.29l-4.17-4.17ZM29.75,65.05c0,1.13-.44,2.19-1.23,2.98-1.65,1.65-4.32,1.64-5.97,0-.8-.8-1.24-1.86-1.24-2.98s.44-2.19,1.24-2.98c.8-.8,1.86-1.23,2.98-1.23s2.19.44,2.98,1.23c.8.8,1.23,1.86,1.23,2.98ZM46.31,81.61c0,1.13-.44,2.19-1.24,2.98-.8.8-1.85,1.23-2.98,1.23s-2.19-.44-2.98-1.23-1.23-1.86-1.23-2.98.44-2.19,1.23-2.98c.8-.8,1.85-1.23,2.98-1.23s2.19.44,2.98,1.23c.8.8,1.24,1.86,1.24,2.98ZM38.03,73.33c0,1.13-.44,2.19-1.23,2.98s-1.86,1.23-2.98,1.23-2.19-.44-2.98-1.23-1.23-1.85-1.23-2.98.44-2.19,1.23-2.98,1.86-1.23,2.98-1.23,2.19.44,2.98,1.23,1.23,1.85,1.23,2.98Z" fill="#b1b0b1"/>
</svg>