<?xml version="1.0" encoding="UTF-8"?>
<svg id="Layer_1" data-name="Layer 1" xmlns="http://www.w3.org/2000/svg" viewBox="0 0 96 96">
  <defs>
    <style>
      .cls-1 {
        fill: none;
        stroke: #b1b0b1;
        stroke-miterlimit: 10;
        stroke-width: 3px;
      }
    </style>
  </defs>
  <rect class="cls-1" x="39.3" y="1.84" width="18.95" height="15.12" rx="6.72" ry="6.72"/>
  <rect class="cls-1" x="63.76" y="40.91" width="18.95" height="15.12" rx="6.72" ry="6.72"/>
  <rect class="cls-1" x="75.32" y="79.03" width="18.95" height="15.12" rx="6.72" ry="6.72"/>
  <rect class="cls-1" x="13.98" y="40.77" width="18.95" height="15.12" rx="6.72" ry="6.72"/>
  <rect class="cls-1" x="50.38" y="79.03" width="18.95" height="15.12" rx="6.72" ry="6.72"/>
  <rect class="cls-1" x="26.67" y="79.03" width="18.95" height="15.12" rx="6.72" ry="6.72"/>
  <rect class="cls-1" x="1.73" y="79.03" width="18.95" height="15.12" rx="6.72" ry="6.72"/>
  <polyline class="cls-1" points="23.46 35.75 23.46 29.29 73.24 29.29 73.24 35.89"/>
  <line class="cls-1" x1="48.78" y1="20.98" x2="48.78" y2="29.29"/>
  <polyline class="cls-1" points="10.77 74.88 10.77 67.41 36.14 67.41 36.14 75.02"/>
  <polyline class="cls-1" points="59.86 74.88 59.86 67.41 85.23 67.41 85.23 75.02"/>
  <line class="cls-1" x1="23.46" y1="59.91" x2="23.46" y2="67.41"/>
  <line class="cls-1" x1="73.24" y1="60.05" x2="73.24" y2="67.41"/>
</svg>