<?xml version="1.0" encoding="UTF-8"?>
<svg id="Layer_1" data-name="Layer 1" xmlns="http://www.w3.org/2000/svg" viewBox="0 0 96 96">
  <defs>
    <style>
      .cls-1 {
        fill: none;
        stroke: #b1b0b1;
        stroke-miterlimit: 10;
        stroke-width: 3px;
      }
    </style>
  </defs>
  <path class="cls-1" d="M46.14,87.73h4.1c4.05,0,7.34,3.29,7.34,7.34h-18.78c0-4.05,3.29-7.34,7.34-7.34Z" transform="translate(96.38 182.8) rotate(180)"/>
  <line class="cls-1" x1="64.16" y1="81.19" x2="33.39" y2="81.19"/>
  <line class="cls-1" x1="60.52" y1="75.21" x2="36.17" y2="75.21"/>
  <line class="cls-1" x1="48.78" y1="67" x2="48.78" y2="75.21"/>
  <path class="cls-1" d="M37.8,43.34c0-.76.08-1.5.23-2.21l-5.63-3.83,2.78-4.82,6.15,2.97c1.09-.98,2.38-1.75,3.81-2.21l.5-6.8h5.57l.5,6.8c1.43.46,2.72,1.23,3.81,2.21l6.15-2.97,2.78,4.82-5.63,3.83c.15.71.23,1.45.23,2.21s-.08,1.5-.23,2.21l5.63,3.83-2.78,4.82-6.15-2.97c-1.09.98-2.38,1.75-3.81,2.21l-.5,6.8h-5.57l-.5-6.8c-1.43-.46-2.72-1.23-3.81-2.21l-6.15,2.97-2.78-4.82,5.63-3.83c-.15-.71-.23-1.45-.23-2.21Z"/>
  <circle class="cls-1" cx="48.43" cy="43.34" r="5.03"/>
  <line class="cls-1" x1="24.9" y1="36.5" x2="24.9" y2="36.49"/>
  <path class="cls-1" d="M24.05,40.92h0s-4.33,10.01-4.33,10.01c-.51,1.18-.23,2.48.7,3.21.76.57,2.71.47,3.8.47.32,0,.58.3.58.66v5.44c0,1.98,1.41,3.59,3.15,3.59h6.26c2.25,0,1.97,1.84,1.97,3.03v17.79c0,1.43,1.16,2.6,2.6,2.6h19.16c1.43,0,2.59-1.16,2.59-2.6v-17.67c0-1.66.8-3.21,2.16-4.17,6.3-4.51,10.38-11.93,10.26-20.3-.19-13.56-11.07-24.23-24.63-24.16-3.75.02-7.3.89-10.46,2.42h0c-2.82,1.35-5.34,3.23-7.44,5.51-2.52,2.74-4.43,6.06-5.49,9.73h0c-.42,1.43-.71,2.91-.85,4.43h0"/>
  <line class="cls-1" x1="48.35" y1="12.4" x2="48.35" y2=".93"/>
  <line class="cls-1" x1="71.1" y1="19.34" x2="79.21" y2="11.23"/>
  <line class="cls-1" x1="82.2" y1="42.68" x2="93.67" y2="42.68"/>
  <line class="cls-1" x1="24.9" y1="19.34" x2="16.79" y2="11.23"/>
  <line class="cls-1" x1="13.8" y1="42.68" x2="2.33" y2="42.68"/>
</svg>