<?xml version="1.0" encoding="UTF-8"?>
<svg id="Layer_1" data-name="Layer 1" xmlns="http://www.w3.org/2000/svg" viewBox="0 0 96 96">
  <defs>
    <style>
      .cls-1 {
        fill: none;
        stroke: #b1b0b1;
        stroke-miterlimit: 10;
        stroke-width: 3px;
      }
    </style>
  </defs>
  <path class="cls-1" d="M29.46,78.5c.56-5.04-1.78-9.74-5.69-12.41-10.67-7.13-12.58-18.98-12.22-30.93C11.34,16.77,24.61,1.7,43,1.5c19.99,0,34.03,6.44,36.62,30.03.05.62.09,1.23.1,1.85.07,2.35.56,4.68,1.58,6.8.3.62.65,1.26,1.07,1.88.79,1.16,4.59,8.14,6.73,12.67,1.08,2.29-.66,4.9-3.19,4.81l-2.16-.08c-1.55-.06-2.84,1.18-2.84,2.73v3.73c0,6.97-5.65,12.61-12.61,12.61h-4.19c-.92,0-1.66.74-1.66,1.66v14.33H29.52l-.06-16Z"/>
  <polygon class="cls-1" points="45.27 14.6 48.99 26.04 61.02 26.04 51.29 33.11 55 44.55 45.27 37.48 35.54 44.55 39.26 33.11 29.53 26.04 41.56 26.04 45.27 14.6"/>
</svg>