<?xml version="1.0" encoding="UTF-8"?>
<svg id="Layer_1" data-name="Layer 1" xmlns="http://www.w3.org/2000/svg" viewBox="0 0 96 96">
  <path d="M84.25,73.55l-2.64-.52-.92-2.22,1.5-2.24c.35-.52.28-1.22-.16-1.67l-3.9-3.9c-.45-.45-1.14-.51-1.67-.16l-2.24,1.5-2.22-.92-.52-2.64c-.12-.62-.66-1.06-1.29-1.06h-1.21c1.18-1.82,2.31-3.88,3.47-6.31,1.16-2.43.39-4.73-1.16-6.21.94-.6,1.57-1.65,1.57-2.85v-1.57c2.01-.23,3.57-1.93,3.57-3.99v-3.68c0-3.02,1.47-5.07,3.17-7.44,2.11-2.95,4.51-6.29,4.51-12.08,0-4.67-1.83-8.59-5.3-11.35-3.02-2.4-7.06-3.73-11.38-3.73s-8.36,1.32-11.38,3.73c-3.46,2.76-5.3,6.68-5.3,11.35,0,5.79,2.4,9.13,4.51,12.08,1.7,2.37,3.17,4.42,3.17,7.44v3.68c0,2.07,1.56,3.77,3.57,3.99v1.57c0,1.09.52,2.05,1.32,2.67-.34.34-.64.75-.9,1.22-5.11,9.1-11.15,13.88-25.41,9.53-1.17-.66-1.95-1.67-2.35-3.01.72-.59,1.4-1.27,2.03-2.05,1.87-2.33,3.13-5.38,3.58-8.61,2.32-3.09,2.2-9.97.69-14.8-.19-.62-.82-1.01-1.46-.91-3.15.49-6.15-.23-8.79-.86-3.69-.88-7.5-1.78-9.97,1.61-.79-.08-1.61.08-2.37.47-1.43.72-2.48,2.18-2.96,4.1-.51,2.07-.38,7.13.94,10.21.43,3.3,1.7,6.41,3.6,8.79.62.78,1.3,1.46,2.02,2.05-.39,1.31-1.16,2.31-2.29,2.97-.86.25-1.86.5-2.91.77-3.2.82-6.82,1.74-8.96,2.99-2.9,1.7-3.94,3.6-4.26,7.83,0,0,0,.02,0,.03-.48,8.65-.17,16.39.25,24.89.03.7.61,1.25,1.32,1.25h37.44c.35,0,.69-.14.93-.39.25-.25.39-.58.39-.93v-19.33c0-.74.58-1.36,1.32-1.4,3.06-.18,5.91-.7,8.51-1.54l-.46,1.12-2.64.52c-.62.12-1.06.66-1.06,1.29v5.52c0,.63.45,1.17,1.06,1.29l2.64.52.92,2.22-1.5,2.24c-.35.52-.28,1.22.16,1.67l3.9,3.9c.45.45,1.14.51,1.67.16l2.24-1.5,2.22.92.52,2.64c.12.62.66,1.06,1.29,1.06h5.52c.63,0,1.17-.45,1.29-1.06l.52-2.64,2.22-.92,2.24,1.5c.52.35,1.22.28,1.67-.16l3.9-3.9c.45-.45.51-1.14.16-1.67l-1.5-2.24.92-2.22,2.64-.52c.62-.12,1.06-.66,1.06-1.29v-5.52c0-.63-.45-1.17-1.06-1.29h0ZM64.63,42.8h5.57v1.54c0,.41-.34.75-.75.75h-4.08c-.41,0-.75-.34-.75-.75v-1.54h0ZM57.4,26.12c-1.97-2.75-4.02-5.6-4.02-10.54,0-8.54,7.28-12.44,14.04-12.44s14.04,3.89,14.04,12.44c0,4.94-2.04,7.79-4.02,10.54-1.76,2.45-3.57,4.98-3.66,8.69h-2.54v-9.91c0-.11,0-.22,0-.33,2.22-.86,4.01-2.48,5.02-4.64,1.19-2.56,1.18-4.85-.03-6.13-.8-.84-1.96-1.07-3.11-.62-1.93.77-3.99,3.62-4.43,9.34-.44.07-.87.1-1.28.1s-.84-.03-1.28-.1c-.45-5.72-2.5-8.57-4.43-9.34-1.15-.46-2.32-.23-3.11.62-1.21,1.28-1.22,3.57-.03,6.13,1,2.15,2.8,3.77,5.02,4.64,0,.11,0,.22,0,.33v9.91h-2.54c-.09-3.71-1.9-6.24-3.66-8.69h0ZM71.45,21.53c.43-3.21,1.44-5.05,2.35-5.71.25-.18.42-.22.48-.22,0,0,.02,0,.02,0,.18.1.54,1.15-.43,3.22-.57,1.22-1.44,2.1-2.42,2.71h0ZM68.6,34.81h-2.37v-9.6c.78.08,1.6.08,2.37,0v9.6ZM63.38,21.53c-.98-.61-1.85-1.49-2.42-2.71-.96-2.06-.61-3.12-.43-3.22,0,0,.01,0,.02,0,.06,0,.23.03.48.21.9.66,1.92,2.5,2.35,5.71ZM61.06,38.78v-1.33h12.72v1.33c0,.76-.62,1.38-1.38,1.38h-9.95c-.76,0-1.38-.62-1.38-1.38h0ZM17.95,34.35c.29-1.16.85-2.01,1.58-2.38.26-.13.54-.2.8-.2.17,0,.34.03.49.09.62.26,1.34,0,1.66-.58,1.39-2.52,3.45-2.16,7.59-1.18,2.57.61,5.45,1.3,8.64,1.03.75,2.95.85,5.99.5,8.28-.55-1.11-1.39-2.03-2.74-2.28-1.18-.21-2.59.11-4.22.48-2.48.57-5.29,1.21-8.02.26-1.66-.57-3.92-1.36-5.23.63-.4.6-.67,1.22-.94,1.81-.39-2.23-.39-4.77-.1-5.97h0ZM19,43.97c.69-.87,1.09-1.76,1.45-2.55.24-.53.46-1.03.75-1.46.03-.04.05-.06.05-.07.13-.07.6-.04,2.11.48,3.44,1.19,6.93.4,9.47-.18,1.29-.3,2.52-.57,3.17-.46.98.18,1.4,2.5,1.63,3.75l.02.11c-.67,5.07-3.85,10.61-9.35,11.02-5.37-.4-8.53-5.69-9.3-10.65h0ZM28.21,57.26s.06,0,.09,0,.06,0,.09,0c1.4-.09,2.73-.44,3.97-1.04.47,1.2,1.2,2.21,2.15,3.02-1.73,1.87-3.9,2.88-6.2,2.88s-4.47-1.01-6.2-2.88c.95-.8,1.68-1.82,2.15-3.02,1.24.59,2.57.94,3.97,1.04h0ZM6.17,69.51c.28-3.58.98-4.58,2.97-5.74,1.81-1.06,5.25-1.94,8.27-2.71.79-.2,1.55-.4,2.26-.59,1.99,2.4,4.53,3.86,7.31,4.21v28.18h-11.57v-19.61c0-.73-.59-1.32-1.32-1.32s-1.32.59-1.32,1.32v19.61h-6.4c-.38-7.93-.64-15.25-.19-23.35h0ZM45.03,70.82c-2.13.13-3.8,1.9-3.8,4.03v18.01h-11.61v-28.18c2.77-.35,5.3-1.8,7.29-4.18,3.54,1.03,6.72,1.54,9.58,1.54s5.32-.49,7.56-1.48c4.11-1.82,7.4-5.22,10.66-11.02,1.04-1.86,2.97-1.5,3.95-1,1.18.61,2.25,1.96,1.4,3.74-1.43,2.99-2.8,5.38-4.28,7.44h-1.11c-.63,0-1.17.45-1.29,1.06l-.52,2.64-2.22.92-2.24-1.5c-.52-.35-1.22-.28-1.67.16l-3.9,3.9c-.45.45-.51,1.14-.16,1.67l.5.74c-2.46.82-5.18,1.32-8.13,1.5h0ZM82.67,79.28l-2.27.45c-.43.09-.79.38-.96.79l-1.46,3.53c-.17.41-.12.87.12,1.24l1.29,1.92-2.37,2.37-1.92-1.29c-.37-.25-.83-.29-1.24-.12l-3.53,1.46c-.41.17-.7.53-.79.96l-.45,2.27h-3.35l-.45-2.27c-.09-.43-.38-.79-.79-.96l-3.53-1.46c-.41-.17-.87-.12-1.24.12l-1.92,1.29-2.37-2.37,1.29-1.92c.25-.37.29-.83.12-1.24l-1.46-3.53c-.17-.41-.53-.7-.96-.79l-2.27-.45v-3.35l2.27-.45c.43-.09.79-.38.96-.79l1.46-3.53c.17-.41.12-.87-.12-1.24l-1.29-1.92,2.37-2.37,1.92,1.29c.37.25.83.29,1.24.12l3.53-1.46c.41-.17.7-.53.79-.96l.45-2.27h3.35l.45,2.27c.09.43.38.79.79.96l3.53,1.46c.41.17.87.12,1.24-.12l1.92-1.29,2.37,2.37-1.29,1.92c-.25.37-.29.83-.12,1.24l1.46,3.53c.17.41.53.7.96.79l2.27.45v3.35ZM67.42,67.79c-5.41,0-9.82,4.4-9.82,9.82s4.4,9.82,9.82,9.82,9.82-4.4,9.82-9.82-4.4-9.82-9.82-9.82ZM67.42,84.79c-3.96,0-7.18-3.22-7.18-7.18s3.22-7.18,7.18-7.18,7.18,3.22,7.18,7.18-3.22,7.18-7.18,7.18ZM83.76,5.81c-.36-.63-.15-1.44.48-1.8l3.06-1.77c.63-.36,1.44-.15,1.8.48.36.63.15,1.44-.48,1.8l-3.06,1.77c-.21.12-.43.18-.66.18-.46,0-.9-.24-1.14-.66h0ZM49.27,25.96c.63-.36,1.44-.15,1.8.48.36.63.15,1.44-.48,1.8l-3.06,1.77c-.21.12-.43.18-.66.18-.46,0-.9-.24-1.14-.66-.36-.63-.15-1.44.48-1.8l3.06-1.77h0ZM45.72,2.72c.36-.63,1.17-.85,1.8-.48l3.06,1.77c.63.36.85,1.17.48,1.8-.24.42-.69.66-1.14.66-.22,0-.45-.06-.66-.18l-3.06-1.77c-.63-.36-.85-1.17-.48-1.8h0ZM92.7,16.13c0,.73-.59,1.32-1.32,1.32h-3.54c-.73,0-1.32-.59-1.32-1.32s.59-1.32,1.32-1.32h3.54c.73,0,1.32.59,1.32,1.32ZM89.11,29.53c-.24.42-.69.66-1.14.66-.22,0-.45-.06-.66-.18l-3.06-1.77c-.63-.36-.85-1.17-.48-1.8s1.17-.85,1.8-.48l3.06,1.77c.63.36.85,1.17.48,1.8h0ZM42.13,16.13c0-.73.59-1.32,1.32-1.32h3.54c.73,0,1.32.59,1.32,1.32s-.59,1.32-1.32,1.32h-3.54c-.73,0-1.32-.59-1.32-1.32h0Z" fill="#b1b0b1"/>
</svg>