<?xml version="1.0" encoding="UTF-8"?>
<svg id="Capa_1" data-name="Capa 1" xmlns="http://www.w3.org/2000/svg" viewBox="0 0 96 96">
  <defs>
    <style>
      .cls-1 {
        fill: #b1b0b1;
      }
    </style>
  </defs>
  <path class="cls-1" d="M41.03,20.5c-2.97-2.67-6.97-3.85-10.97-3.41-6.67.89-11.86,6.23-11.86,12.6v.3c.15,2.52,1.48,10.68,11.12,12.31.89.15,1.63.3,2.52.3,3.26,0,6.38-1.19,8.9-3.26,2.97-2.37,4.6-5.93,4.6-9.49s-1.48-6.97-4.3-9.34h0ZM38.81,36.95c-2.52,2.08-5.78,2.97-9.04,2.37-7.27-1.19-8.45-7.12-8.6-9.64v-.15c0-4.89,4-9.04,9.19-9.64,3.11-.44,6.38.59,8.75,2.67,2.08,1.93,3.26,4.45,3.26,7.12,0,2.82-1.33,5.49-3.56,7.27Z"/>
  <path class="cls-1" d="M50.82,52.97l5.78-5.49c.59-.44.59-1.33.15-1.93l-4.15-5.78c.59-1.19,1.19-2.37,1.48-3.56l7.41-1.33c.74-.15,1.19-.74,1.19-1.48v-7.71c0-.74-.59-1.33-1.19-1.48l-7.56-1.33c-.44-1.19-.89-2.37-1.63-3.56l4.15-5.78c.44-.59.3-1.48-.15-1.93-.15-.15-5.49-5.04-5.93-5.34s-.89-.44-1.48-.3c-.15,0-.44.15-.59.3l-5.63,3.56c-.15.15-.3.15-.44.3-1.19-.59-2.37-1.04-3.56-1.33l-1.48-6.97c-.15-.74-.74-1.19-1.48-1.19h-8.15c-.74,0-1.33.59-1.48,1.33l-1.48,6.82c-1.33.44-2.67.89-3.85,1.48-3.26-2.08-5.04-3.11-6.08-3.71-.1-.1-.2-.2-.3-.3v.15c-.89-.44-1.04-.3-1.48-.15,0,.15-.3.3-.3.44l-5.63,5.19c-.59.59-.59,1.48,0,2.08.44.59,1.78,2.37,2.82,3.85l1.19,1.93c-.59,1.19-1.19,2.37-1.48,3.56l-7.41,1.33c-.74.15-1.19.74-1.19,1.48v7.71c0,.59.3,1.04.74,1.33.3.15.44.3.74.15l7.27,1.19c.3.89.74,2.08,1.63,3.56-2.08,2.97-3.26,4.6-3.85,5.63l-.3.3c-.44.89-.44,1.04-.15,1.48.15.3.3.44.59.59,1.04.89,5.34,4.89,5.63,5.19.44.3.89.44,1.48.3.15,0,.44-.15.59-.3l6.08-4c1.19.59,2.37,1.04,3.56,1.33l1.48,6.97c.15.74.74,1.19,1.48,1.19h8.15c.74,0,1.33-.44,1.48-1.19l1.48-6.97c1.33-.44,2.67-.89,3.85-1.48l6.38,4c.3.44,1.04.3,1.63-.15h0v.02ZM42.07,46.15c-1.48.89-3.11,1.48-4.89,1.93-.59.15-1.04.59-1.04,1.19l-1.48,6.52h-5.78l-1.33-6.67c-.15-.59-.59-1.04-1.04-1.19-1.63-.44-3.26-1.04-4.6-1.78-.44-.3-1.04-.3-1.48,0l-6.08,3.85c-.89-.44-2.22-1.63-4.15-3.41,1.33-1.93,3.85-5.49,3.85-5.63.3-.44.3-1.19,0-1.63-1.04-1.78-1.48-2.82-1.93-4l-.15-.59c-.15-.44-.59-.89-1.19-.89l-7.12-1.19v-5.19l7.12-1.33c.59-.15,1.04-.59,1.19-1.04.3-1.04.89-2.67,1.78-4.15.59-.44.74-.89,0-1.93,0-.15-.15-.15-.15-.3-.3-.59-.89-1.19-1.48-2.22l-2.22-3.26c.74-.74,1.93-1.78,3.56-3.41l.44-.3c1.93,1.19,5.93,3.71,6.08,3.85.44.3,1.04.3,1.48,0,1.48-.74,3.11-1.48,4.89-1.93.59-.15,1.04-.59,1.04-1.19l1.48-6.67h5.78l1.33,6.67c.15.59.59,1.04,1.04,1.19,1.63.44,2.97.89,4.45,1.63.44.3,1.19.44,1.63,0l6.08-3.85c.74.74,2.08,1.93,4,3.71l-4,5.63c-.3.44-.3,1.19,0,1.63.89,1.48,1.63,2.97,2.08,4.45.15.59.59.89,1.19,1.04l7.12,1.19v5.19l-7.12,1.33c-.59.15-1.04.44-1.19,1.04-.15,1.78-.89,3.26-1.78,4.6-.3.44-.3,1.19,0,1.63l4,5.49-4,3.71-5.93-3.71c-.44-.15-1.04-.3-1.48,0h0Z"/>
  <path class="cls-1" d="M82.55,69.42c-1.04-5.19-5.78-9.04-10.97-9.04-6.23,0-11.27,5.04-11.27,11.27v.15c0,3.41,1.48,6.38,4.15,8.6,2.08,1.63,4.6,2.52,7.12,2.52,2.08,0,4-.59,5.93-1.63,4-2.37,5.93-7.12,5.04-11.86h0ZM75.87,78.77c-2.37,1.48-6.23,2.08-9.49-.59-1.93-1.63-2.97-3.85-2.97-6.38v-.15c0-4.6,3.71-8.3,8.3-8.3,3.85,0,7.27,2.82,8.15,6.52.59,4.45-1.63,7.41-4,8.9h0Z"/>
  <path class="cls-1" d="M95.15,68.39c0-.74-.44-1.33-1.19-1.48l-5.49-1.04c-.3-.89-.59-1.78-1.04-2.52l2.97-4.6c.44-.59.3-1.33-.15-1.93-2.22-2.08-3.41-3.41-4.15-4,0-.15-.15-.3-.3-.3-.74-.59-.89-.59-1.33-.44-.3,0-.44.15-.59.3-.74.44-2.82,1.93-4.15,2.82l-.15.15c-.74-.44-1.48-.74-2.37-.89l-1.04-5.49c-.15-.74-.74-1.19-1.48-1.19h-6.23c-.74,0-1.33.59-1.48,1.33l-1.04,5.34c-.89.3-1.78.59-2.52,1.04-1.33-.89-4.3-2.82-4.6-3.11-.74-.44-1.63-.3-2.08.3l-2.52,2.82-.3.3-.3.3-.15.15-.15.15-.89.89c-.44.44-.59,1.33-.15,1.93,0,.15,2.08,3.11,3.11,4.6-.44.89-.74,1.78-1.04,2.67l-5.34.89c-.74.15-1.19.74-1.19,1.48v6.23c.15.89.3,1.04.74,1.33.15.15.44.15.74.15l5.19.89c.3.74.59,1.48,1.04,2.52-.74,1.04-1.93,2.82-2.52,3.85l-.44.74c-.44.74-.3,1.63.44,2.08l4.3,4.15c.44.3.89.44,1.48.44.15,0,.44-.15.59-.3l4.45-3.11c.74.3,1.48.74,2.37.89l1.04,5.49c.15.74.74,1.19,1.48,1.19h5.93c.74,0,1.33-.44,1.48-1.19l1.04-5.49c.89-.3,1.78-.59,2.52-1.04l4.6,3.11c.59.44,1.33.3,1.93-.15l4.3-4.45c.44-.44.59-1.33.15-1.93l-3.11-4.6c.44-.89.74-1.63,1.04-2.67l5.34-1.04c.74-.15,1.19-.74,1.19-1.48v-6.08h.02ZM87.14,74.47c-.59.15-1.04.59-1.19,1.04-.3,1.33-.89,2.52-1.48,3.56-.3.44-.3,1.04,0,1.63l2.97,4.3-2.67,2.67-4.3-2.97c-.44-.3-1.04-.3-1.63,0-1.04.59-2.37,1.19-3.56,1.48-.59.15-.89.59-1.04,1.19l-.89,5.19h-3.71l-1.04-5.04c-.15-.59-.59-1.04-1.04-1.19-1.19-.3-2.37-.74-3.41-1.33-.44-.3-1.04-.3-1.63.15l-4.3,2.97-2.67-2.67c1.04-1.48,2.82-4.15,2.82-4.3.3-.44.3-1.04,0-1.63-.74-1.33-1.04-2.22-1.33-3.11l-.15-.44c0-.74-.44-1.19-1.04-1.19l-5.04-.89v-3.71l5.04-1.04c.59-.15,1.04-.59,1.19-1.19.15-.74.74-2.22,1.33-3.41,0-.15.15-.15.15-.3.15-.44.3-.59-.15-1.48,0-.15-.15-.15-.3-.3-.44-.74-1.19-1.93-2.67-4l.15-.15.15-.15,2.52-2.52c.89.74,2.37,1.63,4.3,2.97.44.3,1.04.3,1.63,0,1.04-.59,2.22-1.19,3.56-1.48.59-.15.89-.59,1.04-1.19l1.04-5.04h3.71l1.04,5.04c.15.59.44,1.04,1.04,1.19,1.19.3,2.08.74,3.11,1.19.59.59,1.19.44,1.78,0s.15-.15.15-.15c.3-.15.44-.3.74-.44.89-.59,2.37-1.63,3.26-2.37l2.67,2.67-2.82,4.3c-.3.44-.3,1.04,0,1.63.59,1.19,1.19,2.37,1.48,3.56.15.59.59.89,1.19,1.04l5.04.89v3.71l-5.04,1.33v-.02Z"/>
  <g>
    <path class="cls-1" d="M40.59,86.33c-13.34-.3-24.46-10.23-26.54-23.13l2.37,2.37c.59.59,1.48.59,2.08,0s.59-1.48,0-2.08l-5.34-5.19c-.59-.59-1.48-.59-2.08,0l-5.19,5.34c-.59.59-.59,1.48,0,2.08s1.48.59,2.08,0l2.97-2.97c1.93,14.68,14.23,26.24,29.65,26.69.89,0,1.48-.74,1.48-1.48,0-1.04-.59-1.63-1.48-1.63h0Z"/>
    <path class="cls-1" d="M93.96,39.18c-.59-.59-1.48-.59-2.08,0l-2.82,2.82c.44-14.83-9.93-28.02-24.61-30.99-.74-.15-1.63.44-1.63,1.33-.15.74.44,1.48,1.19,1.63,13.2,2.67,22.54,14.53,22.24,27.87l-2.82-2.67c-.59-.59-1.48-.59-2.08,0s-.59,1.48,0,2.08l5.19,5.19c.3.3.59.44,1.04.44s.74-.15,1.04-.44l5.19-5.19c.74-.59.74-1.48.15-2.08h0Z"/>
  </g>
</svg>