<?xml version="1.0" encoding="UTF-8"?>
<svg id="Layer_1" data-name="Layer 1" xmlns="http://www.w3.org/2000/svg" viewBox="0 0 96 96">
  <path d="M23.72,9.82c-.4-.69-.16-1.57.53-1.97.69-.4,1.57-.16,1.97.53l2.11,3.66c.56.96-.15,2.16-1.25,2.16-.5,0-.98-.26-1.25-.72l-2.11-3.66ZM6.86,25.24c.4-.69,1.28-.93,1.97-.53l3.66,2.11c1.27.73.74,2.69-.72,2.69-.24,0-.49-.06-.72-.19l-3.66-2.12c-.69-.4-.92-1.28-.53-1.97ZM95.5,48.99c0,.8-.64,1.44-1.44,1.44h-4.23c-.8,0-1.44-.64-1.44-1.44s.64-1.44,1.44-1.44h4.23c.8,0,1.44.64,1.44,1.44h0ZM6.17,50.43H1.94c-.79,0-1.44-.64-1.44-1.44s.64-1.44,1.44-1.44h4.23c.8,0,1.44.64,1.44,1.44,0,.8-.64,1.44-1.44,1.44ZM82.98,28.79c-.4-.69-.16-1.57.53-1.97l3.66-2.11c.69-.4,1.57-.16,1.97.53.4.69.16,1.57-.53,1.96l-3.66,2.12c-.68.39-1.56.17-1.97-.53h0ZM46.56,7.16V2.93c0-.8.64-1.44,1.44-1.44s1.44.64,1.44,1.44v4.23c0,.79-.64,1.44-1.44,1.44s-1.44-.65-1.44-1.44ZM67.67,12.04l2.11-3.66c.4-.69,1.28-.93,1.97-.53.69.4.92,1.28.53,1.97l-2.11,3.66c-.4.7-1.29.92-1.97.53-.69-.4-.92-1.28-.53-1.97ZM40.91,21.21c0-.85.69-1.54,1.54-1.54h11.1c.85,0,1.54.69,1.54,1.54v3.34h-14.17v-3.34ZM67.49,29.7v2.81l-16.8,9c-1.73.93-3.64.93-5.38,0l-16.8-9v-2.81c0-1.26,1.02-2.28,2.28-2.28h34.41c1.26,0,2.28,1.02,2.28,2.28ZM65.2,53.99c1.26,0,2.28-1.02,2.28-2.28v-15.93l-15.44,8.27c-2.61,1.4-5.48,1.4-8.09,0l-15.44-8.27v15.93c0,1.26,1.02,2.28,2.28,2.28h34.41ZM25.63,29.7v22.01c0,2.84,2.32,5.16,5.16,5.16h34.41c2.85,0,5.16-2.32,5.16-5.16v-22.01c0-2.84-2.31-5.16-5.16-5.16h-7.24v-3.34c0-2.43-1.98-4.41-4.41-4.41h-11.1c-2.43,0-4.41,1.98-4.41,4.41v3.34h-7.24c-2.85,0-5.16,2.32-5.16,5.16h0ZM84.74,70.07l-22.1,12.76c-5.86,3.38-9.33,5.08-15.86,6.05-6.89,1.02-13.75.49-20.14-.22-2.9-.32-5.54-.57-8.22-.76v-18.65c5.38-.5,10.11-.42,16.17,1.2.12.03.25.05.37.05h15.59c2.37,0,3.96,2.42,3.07,4.58-.52,1.25-1.72,2.06-3.07,2.06h-15.59c-.79,0-1.44.64-1.44,1.44s.64,1.44,1.44,1.44h15.59c2.09,0,3.99-1.04,5.13-2.73.54.1,1.07.15,1.59.15,2.51,0,3.78-.95,5.52-1.96l18.8-10.85c1.5-.87,3.43-.35,4.3,1.15.87,1.5.35,3.43-1.15,4.29h0ZM15.54,90.31c0,.73-.59,1.32-1.32,1.32h-6.47c-.73,0-1.32-.59-1.32-1.32v-21.99c0-.73.59-1.32,1.32-1.32h6.47c.73,0,1.32.59,1.32,1.32v21.99ZM80.16,62.13l-18.8,10.85c-1.72.99-2.62,1.75-4.65,1.54.43-3.67-2.45-6.91-6.16-6.91h-15.41c-6.46-1.7-11.47-1.77-17.19-1.22-.7-1.36-2.11-2.29-3.74-2.29h-6.47c-2.32,0-4.2,1.88-4.2,4.2v21.99c0,2.32,1.89,4.2,4.2,4.2h6.47c2.16,0,3.94-1.64,4.18-3.73,2.58.19,5.14.43,7.93.74,6.89.77,13.82,1.25,20.88.21,7.26-1.07,11.22-3.13,16.88-6.4l22.1-12.76c2.88-1.66,3.87-5.35,2.2-8.23-1.66-2.88-5.35-3.87-8.23-2.2h0Z" fill="#b1b0b1" fill-rule="evenodd"/>
</svg>