<?xml version="1.0" encoding="UTF-8"?>
<svg id="Layer_1" data-name="Layer 1" xmlns="http://www.w3.org/2000/svg" viewBox="0 0 96 96">
  <path d="M84.01,11.9l-10.41-10.41c-.65-.65-1.48-.99-2.39-.99H14.39c-1.87,0-3.39,1.52-3.39,3.39v88.23c0,1.87,1.52,3.39,3.39,3.39h67.23c1.87,0,3.39-1.52,3.39-3.39V14.29c0-.92-.34-1.75-.99-2.39h0ZM73.51,5.73l6.26,6.26h-6.26v-6.26ZM81.61,92.44H14.39c-.17,0-.32-.15-.32-.32V3.89c0-.17.15-.32.32-.32h56.05v9.03c0,1.36,1.1,2.46,2.46,2.46h9.03v77.06c0,.17-.15.32-.32.32h0ZM67.16,53.6c0,.85-.69,1.53-1.53,1.53h-30.1c-.85,0-1.53-.69-1.53-1.53s.69-1.53,1.53-1.53h30.1c.85,0,1.53.69,1.53,1.53ZM33.99,58.87c0-.85.69-1.53,1.53-1.53h17.93c.85,0,1.53.69,1.53,1.53s-.69,1.53-1.53,1.53h-17.93c-.85,0-1.53-.69-1.53-1.53h0ZM29.9,51.25h-6.92c-.85,0-1.53.69-1.53,1.53v6.92c0,.85.69,1.53,1.53,1.53h6.92c.85,0,1.53-.69,1.53-1.53v-6.92c0-.85-.69-1.53-1.53-1.53ZM28.37,58.16h-3.85v-3.85h3.85v3.85ZM67.16,66.6c0,.85-.69,1.53-1.53,1.53h-30.1c-.85,0-1.53-.69-1.53-1.53s.69-1.53,1.53-1.53h30.1c.85,0,1.53.69,1.53,1.53ZM33.99,71.87c0-.85.69-1.53,1.53-1.53h17.93c.85,0,1.53.69,1.53,1.53s-.69,1.53-1.53,1.53h-17.93c-.85,0-1.53-.69-1.53-1.53h0ZM29.9,64.24h-6.92c-.85,0-1.53.69-1.53,1.53v6.92c0,.85.69,1.53,1.53,1.53h6.92c.85,0,1.53-.69,1.53-1.53v-6.92c0-.85-.69-1.53-1.53-1.53ZM28.37,71.16h-3.85v-3.85h3.85v3.85ZM54.98,84.87c0,.85-.69,1.53-1.53,1.53h-17.93c-.85,0-1.53-.69-1.53-1.53s.69-1.53,1.53-1.53h17.93c.85,0,1.53.69,1.53,1.53ZM67.16,79.6c0,.85-.69,1.53-1.53,1.53h-30.1c-.85,0-1.53-.69-1.53-1.53s.69-1.53,1.53-1.53h30.1c.85,0,1.53.69,1.53,1.53ZM29.9,77.24h-6.92c-.85,0-1.53.69-1.53,1.53v6.92c0,.85.69,1.53,1.53,1.53h6.92c.85,0,1.53-.69,1.53-1.53v-6.92c0-.85-.69-1.53-1.53-1.53ZM28.37,84.16h-3.85v-3.85h3.85v3.85ZM48,15.6c-5.71,0-10.35,4.64-10.35,10.35s4.64,10.35,10.35,10.35,10.35-4.64,10.35-10.35-4.64-10.35-10.35-10.35h0ZM48,33.23c-4.02,0-7.28-3.27-7.28-7.28s3.27-7.29,7.28-7.29,7.28,3.27,7.28,7.29-3.27,7.28-7.28,7.28h0ZM67.23,21.99l-2.36-.91c-.36-1.26-.86-2.47-1.5-3.62l1.03-2.32c.26-.58.13-1.26-.32-1.71l-3.58-3.57c-.45-.45-1.13-.57-1.71-.32l-2.32,1.03c-1.15-.63-2.36-1.14-3.61-1.5l-.91-2.36c-.23-.59-.8-.98-1.43-.98h-5.06c-.63,0-1.2.39-1.43.98l-.91,2.36c-1.26.36-2.47.86-3.61,1.5l-2.32-1.03c-.58-.26-1.26-.13-1.71.32l-3.57,3.57c-.45.45-.57,1.13-.32,1.71l1.03,2.32c-.63,1.15-1.14,2.36-1.5,3.61l-2.36.91c-.59.23-.98.8-.98,1.43v5.06c0,.63.39,1.2.98,1.43l2.36.91c.36,1.26.86,2.47,1.5,3.62l-1.03,2.32c-.26.58-.13,1.26.32,1.71l3.58,3.57c.45.45,1.13.57,1.71.32l2.32-1.03c1.15.63,2.36,1.14,3.61,1.5l.91,2.36c.23.59.8.98,1.43.98h5.06c.63,0,1.2-.39,1.43-.98l.91-2.36c1.26-.36,2.47-.86,3.62-1.5l2.32,1.03c.58.26,1.26.13,1.71-.32l3.57-3.58c.45-.45.57-1.13.32-1.71l-1.03-2.32c.63-1.15,1.14-2.36,1.5-3.61l2.36-.91c.59-.23.98-.8.98-1.43v-5.06c0-.63-.39-1.2-.98-1.43h0ZM65.15,27.42l-2.11.81c-.47.18-.82.58-.94,1.08-.35,1.49-.94,2.91-1.75,4.22-.26.43-.3.96-.1,1.43l.92,2.07-2.09,2.09-2.07-.92c-.46-.21-1-.17-1.43.1-1.31.81-2.73,1.39-4.22,1.75-.49.12-.89.47-1.08.94l-.81,2.11h-2.95l-.81-2.11c-.18-.47-.58-.82-1.08-.94-1.49-.35-2.91-.94-4.22-1.75-.43-.27-.96-.3-1.43-.1l-2.07.92-2.09-2.09.92-2.07c.21-.46.17-1-.1-1.43-.81-1.31-1.39-2.73-1.75-4.22-.12-.49-.47-.89-.94-1.08l-2.11-.81v-2.95l2.11-.81c.47-.18.82-.58.94-1.08.35-1.49.94-2.91,1.75-4.22.27-.43.3-.96.1-1.43l-.92-2.07,2.09-2.09,2.07.92c.46.21,1,.17,1.43-.1,1.31-.81,2.73-1.39,4.22-1.75.49-.12.89-.47,1.08-.94l.81-2.11h2.95l.81,2.11c.18.47.58.82,1.08.94,1.49.35,2.91.94,4.22,1.75.43.26.96.3,1.43.1l2.07-.92,2.09,2.09-.92,2.07c-.21.46-.17,1,.1,1.43.81,1.31,1.39,2.73,1.75,4.22.12.49.47.89.94,1.08l2.11.81v2.95h0Z" fill="#b1b0b1"/>
</svg>