<?xml version="1.0" encoding="UTF-8"?>
<svg id="Layer_1" data-name="Layer 1" xmlns="http://www.w3.org/2000/svg" viewBox="0 0 96 96">
  <path d="M87.17,15.1H8.83c-4.32,0-7.83,3.51-7.83,7.83v50.13c0,4.32,3.51,7.83,7.83,7.83h78.33c4.32,0,7.83-3.51,7.83-7.83V22.93c0-4.32-3.51-7.83-7.83-7.83ZM91.87,73.07c0,2.6-2.1,4.7-4.7,4.7H8.83c-2.6,0-4.7-2.1-4.7-4.7v-36.03h87.73v36.03ZM91.87,33.9H4.13v-6.27h87.73v6.27ZM91.87,24.5H4.13v-1.57c0-2.6,2.1-4.7,4.7-4.7h78.33c2.6,0,4.7,2.1,4.7,4.7v1.57Z" fill="#b1b0b1"/>
  <path d="M38.61,68.46c2.76-1.37,5-3.6,6.36-6.36h25.89c1.24,0,2.44-.5,3.31-1.38l2.68-2.66c1.23-1.23,1.23-3.22,0-4.44l-2.68-2.66c-.88-.89-2.07-1.38-3.32-1.38h-25.89c-3.46-6.98-11.92-9.83-18.9-6.36-6.98,3.46-9.83,11.92-6.36,18.9,3.46,6.98,11.92,9.83,18.9,6.36ZM22.17,51.72c2.27-5.62,8.66-8.33,14.28-6.06,2.76,1.11,4.94,3.3,6.06,6.06.24.59.81.98,1.45.98h26.9c.41,0,.81.17,1.1.47l2.68,2.67-2.67,2.66c-.29.3-.68.47-1.1.47h-26.9c-.64,0-1.21.39-1.45.98-2.27,5.62-8.66,8.33-14.28,6.06s-8.33-8.66-6.06-14.28Z" fill="#b1b0b1"/>
  <path d="M29.2,60.53c2.6,0,4.7-2.1,4.7-4.7s-2.1-4.7-4.7-4.7-4.7,2.1-4.7,4.7,2.1,4.7,4.7,4.7ZM29.2,54.27c.87,0,1.57.7,1.57,1.57s-.7,1.57-1.57,1.57-1.57-.7-1.57-1.57.7-1.57,1.57-1.57Z" fill="#b1b0b1"/>
</svg>