<?xml version="1.0" encoding="utf-8"?>
<!-- Generator: Adobe Illustrator 27.9.6, SVG Export Plug-In . SVG Version: 9.03 Build 54986)  -->
<svg version="1.1" xmlns="http://www.w3.org/2000/svg" xmlns:xlink="http://www.w3.org/1999/xlink" x="0px" y="0px"
	 viewBox="0 0 96 96" enable-background="new 0 0 96 96" xml:space="preserve">
<g id="background">
</g>
<g id="Capa_1">
	<path fill="#B1B0B1" d="M48,3C23.2,3,3.1,23.1,3,48c0,11.9,4.7,23.2,13,31.7c0,0.1,0.1,0.1,0.1,0.2c0,0,0.1,0.1,0.1,0.1
		c17.6,17.5,46,17.5,63.6-0.1c17.5-17.6,17.5-46.1-0.1-63.6C71.3,7.7,59.9,3,48,3L48,3z M89.5,46.3h-7.3c-0.1-2.1-0.4-4.3-0.9-6.4
		c-0.2-0.9-1.1-1.5-2-1.3c-0.9,0.2-1.5,1.1-1.3,2c0,0,0,0.1,0,0.1c2.4,9.9-0.3,20.3-7.1,27.9l-5.5-5.5c7.9-9.2,7.4-22.9-1.1-31.5
		l5.5-5.5c1.7,1.8,3.3,3.7,4.5,5.8c0.5,0.8,1.5,1.1,2.3,0.6c0.8-0.5,1.1-1.5,0.6-2.3c0,0,0,0,0-0.1c-1.7-2.8-3.8-5.4-6.2-7.6
		c0,0,0,0-0.1-0.1c-0.1-0.1-0.1-0.1-0.2-0.2c-5.8-5.3-13.3-8.3-21.2-8.7V6.4C71.3,7.3,88.6,24.7,89.5,46.3L89.5,46.3z M17.2,49.7
		h7.8c0.9,12.1,11,21.5,23.1,21.5c0.5,0,0.9,0,1.4,0c0.9-0.1,1.6-0.9,1.6-1.8c-0.1-0.9-0.9-1.6-1.8-1.6c-0.4,0-0.8,0-1.2,0
		c-4.7,0-9.2-1.7-12.7-4.7l5.9-5.9c2.7,2,6.2,2.8,9.5,2c0.9-0.2,1.5-1.1,1.3-2c-0.2-0.9-1.1-1.5-2-1.3c0,0,0,0-0.1,0
		c-4.4,1-8.8-1.7-9.8-6.1c-1-4.4,1.7-8.8,6.1-9.8c4.4-1,8.8,1.7,9.8,6.1c0.3,1.3,0.3,2.6-0.1,3.9c-0.2,0.9,0.3,1.8,1.2,2.1
		c0.9,0.2,1.8-0.3,2.1-1.2c1.6-6.2-2-12.5-8.2-14.1c-6.2-1.6-12.5,2-14.1,8.2c-0.3,1-0.4,2-0.4,3c0,2.5,0.8,4.9,2.3,6.9l-5.9,5.9
		c-3-3.6-4.7-8.1-4.7-12.8c0-0.9-0.8-1.7-1.7-1.7h-9.4c0.9-17.1,15.5-30.1,32.6-29.2c6.5,0.4,12.6,2.7,17.7,6.8l-5.5,5.5
		c-10.2-7.7-24.7-5.6-32.4,4.6c-0.2,0.3-0.5,0.6-0.7,0.9c-0.5,0.8-0.3,1.8,0.4,2.3c0.8,0.5,1.8,0.3,2.3-0.4c0,0,0,0,0,0
		c6.1-9.1,18.4-11.5,27.5-5.3c9.1,6.1,11.5,18.4,5.3,27.5c-1.5,2.3-3.5,4.2-5.8,5.6c-0.8,0.5-1,1.5-0.5,2.3c0.5,0.8,1.5,1,2.3,0.5
		c1-0.6,1.9-1.3,2.7-2l5.5,5.5C55.9,82.4,36.4,81.4,25,68.7C20.3,63.5,17.5,56.7,17.2,49.7L17.2,49.7z M46.3,6.4v7.3
		c-18.9,0.9-33.5,17-32.5,35.9c0.4,7.9,3.5,15.4,8.8,21.3l-5.2,5.2C1.8,59.3,2.9,32.9,19.8,17.4C27.1,10.7,36.5,6.8,46.3,6.4
		L46.3,6.4z M48,89.6c-10.5,0-20.6-4-28.2-11.1l5.2-5.2c14,12.8,35.6,11.8,48.4-2.2c5.4-5.9,8.5-13.5,8.9-21.4h7.3
		C88.6,72,70.3,89.6,48,89.6L48,89.6z"/>
</g>
</svg>
