<?xml version="1.0" encoding="UTF-8"?>
<svg id="Layer_1" data-name="Layer 1" xmlns="http://www.w3.org/2000/svg" viewBox="0 0 96 96">
  <path d="M74.9,16.99h-10.83v-5.07c0-.89-.72-1.61-1.61-1.61s-1.61.72-1.61,1.61v5.07h-10.83c-.89,0-1.61.72-1.61,1.61s.72,1.61,1.61,1.61h6.35v.25c.01,4.25,1.34,8.32,3.84,11.76l.13.18-.15.15c-2.67,2.6-6.03,4.22-9.71,4.69-.43.05-.81.27-1.07.61-.26.34-.38.76-.33,1.18.11.87.89,1.51,1.79,1.39,4.31-.54,8.26-2.42,11.41-5.43l.17-.17.17.17c3.15,3.01,7.1,4.89,11.41,5.43.88.11,1.68-.52,1.79-1.39.11-.88-.51-1.68-1.39-1.79-3.68-.46-7.04-2.08-9.71-4.69l-.15-.15.13-.18c2.5-3.45,3.83-7.52,3.84-11.76v-.25h6.35c.89,0,1.61-.72,1.61-1.61s-.72-1.61-1.61-1.61ZM65.34,20.45c-.01,3.2-.93,6.33-2.66,9.04l-.21.33-.21-.33c-1.73-2.71-2.65-5.84-2.66-9.04v-.25s5.74,0,5.74,0v.25Z" fill="#b1b0b1"/>
  <path d="M56.71,83.38c5.29,0,9.59-4.3,9.59-9.59v-23.81h4.85l.07.06,13.39,11.43c.47.4,1.16.5,1.71.24.57-.26.93-.83.93-1.46v-10.4l.2-.04c4.51-.86,7.78-4.83,7.78-9.42V10.34c0-5.29-4.3-9.59-9.59-9.59h-14.84c-.88,0-1.61.72-1.61,1.61s.72,1.61,1.61,1.61h14.84c3.52,0,6.38,2.86,6.38,6.38v30.04c0,3.52-2.86,6.38-6.38,6.38-.88,0-1.61.72-1.61,1.61v8.39l-11.26-9.61c-.29-.25-.66-.38-1.04-.38h-32.46c-3.52,0-6.38-2.86-6.38-6.38V10.34c0-3.52,2.86-6.38,6.38-6.38h14.84c.88,0,1.61-.72,1.61-1.61s-.72-1.61-1.61-1.61h-14.84c-5.29,0-9.59,4.3-9.59,9.59v23.81H10.34c-5.29,0-9.59,4.3-9.59,9.59v30.04c0,4.59,3.27,8.56,7.78,9.42l.2.04v10.4c0,.62.37,1.2.93,1.46.56.26,1.25.16,1.72-.24l13.46-11.49h31.87ZM33.56,51.66l4.04,10.7h-8.11l4.07-10.7ZM23.21,80.55l-11.26,9.61v-8.39c0-.89-.72-1.61-1.61-1.61-3.52,0-6.38-2.86-6.38-6.38v-30.04c0-3.52,2.86-6.38,6.38-6.38h19.35v3.03c0,2.32.84,4.56,2.38,6.31l.15.17-.16.17c-.18.19-.33.41-.43.66l-7.96,20.89c-.15.4-.14.84.04,1.23.18.39.49.69.89.84.4.15.84.14,1.23-.04.39-.18.69-.49.84-.89l1.58-4.16h10.54l1.57,4.16c.23.62.84,1.04,1.5,1.04.19,0,.38-.04.57-.1.4-.15.72-.45.9-.84.18-.39.19-.83.04-1.23l-7.21-19.12.48.14c.86.25,1.75.37,2.64.37h23.81v23.81c0,3.52-2.86,6.38-6.38,6.38H24.25c-.38,0-.75.14-1.04.38Z" fill="#b1b0b1"/>
  <path d="M62.47.75c-.42,0-.84.17-1.13.47s-.47.71-.47,1.14.17.84.47,1.14c.6.6,1.67.6,2.27,0,.3-.3.47-.71.47-1.14s-.17-.84-.47-1.14-.71-.47-1.13-.47Z" fill="#b1b0b1"/>
</svg>