<?xml version="1.0" encoding="UTF-8"?>
<svg id="Layer_1" data-name="Layer 1" xmlns="http://www.w3.org/2000/svg" viewBox="0 0 96 96">
  <defs>
    <style>
      .cls-1 {
        fill: #b1b0b1;
      }
    </style>
  </defs>
  <path class="cls-1" d="M67.73,21.8c-5.76-5.47-13.31-8.25-21.27-7.83-7.16.37-13.89,3.43-18.94,8.6-5.06,5.17-7.96,11.97-8.18,19.13-.19,6.24,1.6,12.24,5.17,17.33,2.84,4.05,5.04,8.25,6.53,12.48l.95,2.69v8.04c0,2.25,1.83,4.08,4.08,4.08h1.01l1.86,4.43c.8,1.91,2.66,3.14,4.73,3.14h8.66c2.07,0,3.93-1.23,4.73-3.14l1.86-4.43h.16c2.25,0,4.08-1.83,4.08-4.08v-8.04c1.78-5,4.44-9.9,7.89-14.56,3.68-4.96,5.62-10.86,5.62-17.05,0-7.94-3.17-15.33-8.93-20.8h0ZM46.6,72.45l-1.77-16.26h5.48l-1.77,16.26h-1.93ZM60.14,75.46v2.43h-25.14v-2.43h25.14ZM54.27,89.59c-.33.79-1.1,1.3-1.95,1.3h-8.66c-.85,0-1.62-.51-1.95-1.3l-1.37-3.26h15.3l-1.37,3.26ZM59.07,83.32h-23c-.59,0-1.07-.48-1.07-1.07v-1.36h25.14v1.36c0,.59-.48,1.07-1.07,1.07ZM68.62,57.86c-3.46,4.67-6.16,9.57-8.04,14.59h-9.03l1.77-16.26h2.33c.66,0,1.24-.43,1.44-1.06l1.18-3.84-2.88-.88-.85,2.77h-13.96l-.85-2.77-2.88.88,1.18,3.84c.19.63.78,1.06,1.44,1.06h2.33l1.77,16.26h-9.02l-.68-1.93c-1.58-4.49-3.91-8.94-6.9-13.21-3.2-4.56-4.79-9.92-4.62-15.51.4-13.23,11.06-24.13,24.27-24.82,7.12-.37,13.89,2.12,19.04,7.01,5.16,4.9,8,11.5,8,18.61,0,5.54-1.74,10.82-5.03,15.26h0Z"/>
  <path class="cls-1" d="M25.41,41.89l3.01.09c.2-6.54,3.68-12.53,9.31-16.04l-1.59-2.56c-6.49,4.04-10.49,10.95-10.72,18.5h0Z"/>
  <path class="cls-1" d="M46.49,2.05h3.01v7.91h-3.01V2.05Z"/>
  <path class="cls-1" d="M26.35,8.25l2.61-1.51,3.95,6.85-2.61,1.51-3.95-6.85Z"/>
  <path class="cls-1" d="M12.01,23.69l1.51-2.61,6.85,3.95-1.51,2.61-6.85-3.95Z"/>
  <path class="cls-1" d="M7.31,41.23h7.91v3.01h-7.91v-3.01Z"/>
  <path class="cls-1" d="M80.78,41.23h7.91v3.01h-7.91v-3.01Z"/>
  <path class="cls-1" d="M75.63,25.04l6.85-3.95,1.51,2.61-6.85,3.95-1.51-2.61Z"/>
  <path class="cls-1" d="M63.09,13.59l3.95-6.85,2.61,1.51-3.95,6.85-2.61-1.51Z"/>
</svg>