<?xml version="1.0" encoding="UTF-8"?>
<svg id="Capa_1" data-name="Capa 1" xmlns="http://www.w3.org/2000/svg" viewBox="0 0 96 96">
  <defs>
    <style>
      .cls-1 {
        fill: #b1b0b1;
      }
    </style>
  </defs>
  <path class="cls-1" d="M48.37.6c1.03.4,1.4,1.17,1.39,2.25-.03,2.1.01,4.19-.02,6.29-.02,1.34-.9,2.16-2.01,1.94-.8-.16-1.37-.63-1.41-1.48-.11-2.49-.11-4.99,0-7.48.04-.83.67-1.19,1.32-1.51h.74Z"/>
  <path class="cls-1" d="M37.46,80.53c0-2.44-.02-4.88.02-7.31,0-.62-.18-.92-.76-1.16-7.57-3.14-13.04-8.47-16.2-16.02-3.36-8.04-3.22-16.13.44-24.04,3.65-7.88,9.69-13.24,17.95-15.89,8.32-2.67,16.4-1.79,23.99,2.58,6.64,3.82,11.23,9.44,13.49,16.74,2.91,9.38,1.53,18.24-4.09,26.33-3.27,4.7-7.63,8.1-12.93,10.26-.66.27-.85.6-.84,1.29.03,4.78.02,9.56.02,14.35,0,1.91-.56,2.5-2.5,2.46-.78-.02-1.12.14-1.03,1,.08.79.05,1.6,0,2.4-.06,1.16-.72,1.85-1.88,1.86-3.42.03-6.85.03-10.27,0-1.16,0-1.83-.7-1.88-1.86-.04-.83-.07-1.67,0-2.5.07-.77-.25-.98-.94-.89-.18.02-.37.01-.55,0-1.38-.08-2.02-.72-2.03-2.1-.02-2.5,0-5,0-7.5ZM47.93,74.31c1.57,0,3.15.02,4.72,0,.76-.01,1.74.33,2.23-.15.49-.48.14-1.46.15-2.23.03-1.77.22-2.07,1.91-2.7,7.05-2.64,12.27-7.33,15.18-14.27,3.81-9.08,2.86-17.82-2.83-25.86-4.22-5.96-10.09-9.49-17.34-10.59-6.83-1.04-13.2.33-18.8,4.32-8.48,6.05-12.3,14.41-11.22,24.8.72,6.93,3.97,12.62,9.29,17.11,2.4,2.03,5.12,3.52,8.08,4.57,1.39.49,1.68.94,1.69,2.39,0,.62.04,1.24,0,1.85-.05.6.15.79.77.78,2.07-.04,4.13-.01,6.2-.01ZM48.1,77.82c-2.06,0-4.13.04-6.19-.02-.8-.02-.96.25-.95.99.05,2.28.06,4.56,0,6.84-.02.84.24,1.12,1.03.99.15-.02.31,0,.46,0,1.39.05,2.02.67,2.04,2.06.01.86.02,1.73,0,2.59-.01.42.09.61.56.6,1.97-.02,3.94-.02,5.92,0,.46,0,.58-.17.57-.59-.02-.92-.03-1.85,0-2.77.04-1.18.67-1.8,1.84-1.88.28-.02.56-.04.83,0,.62.07.86-.13.85-.8-.04-2.4-.04-4.81,0-7.21.01-.68-.22-.82-.85-.81-2.03.04-4.07.01-6.1.01Z"/>
  <path class="cls-1" d="M24.89,19.62c-.03,1.4-1.45,2.2-2.59,1.52-.36-.22-.67-.53-.97-.84-1.38-1.36-2.75-2.73-4.11-4.11-.89-.91-.97-1.95-.25-2.69.73-.75,1.8-.7,2.69.18,1.54,1.51,3.05,3.04,4.57,4.56.4.4.71.86.66,1.38Z"/>
  <path class="cls-1" d="M72.88,21.38c-1.41-.03-2.23-1.46-1.53-2.58.29-.46.71-.85,1.09-1.24,1.27-1.29,2.55-2.58,3.85-3.85.91-.89,1.95-.98,2.69-.26.75.72.7,1.8-.17,2.69-1.51,1.54-3.04,3.05-4.56,4.57-.4.4-.86.69-1.37.66Z"/>
  <path class="cls-1" d="M24.89,69.34c.04.54-.25.98-.62,1.36-1.56,1.57-3.11,3.15-4.7,4.69-.82.79-1.86.81-2.56.13-.72-.7-.71-1.78.12-2.63,1.54-1.59,3.12-3.14,4.69-4.7.57-.57,1.27-.79,2.02-.47.66.28,1.06.82,1.05,1.62Z"/>
  <path class="cls-1" d="M79.51,74.22c-.03,1.4-1.46,2.21-2.59,1.52-.41-.25-.76-.62-1.11-.97-1.33-1.32-2.66-2.64-3.98-3.98-.89-.91-.97-1.95-.25-2.69.73-.75,1.8-.7,2.69.18,1.54,1.51,3.05,3.04,4.57,4.56.4.4.7.86.66,1.38Z"/>
  <path class="cls-1" d="M9.35,46.25c-1.05,0-2.09.02-3.14,0-1.29-.03-2.07-.71-2.08-1.74,0-1.04.77-1.74,2.05-1.75,2.12-.02,4.24-.02,6.36,0,1.29.01,2.08.69,2.08,1.73,0,1.03-.78,1.73-2.06,1.76-1.08.03-2.15,0-3.23,0Z"/>
  <path class="cls-1" d="M86.66,42.75c1.11,0,2.21-.03,3.32,0,1.15.04,1.88.75,1.88,1.73,0,.94-.7,1.7-1.79,1.73-2.3.05-4.61.05-6.92,0-1.09-.02-1.79-.79-1.79-1.73,0-.98.74-1.69,1.89-1.73,1.14-.04,2.27,0,3.41,0Z"/>
  <path class="cls-1" d="M27,43.32c.75-9.79,7.26-17.34,16.67-19.43,1.33-.3,2.68-.4,4.04-.45,1.15-.04,1.92.62,1.99,1.61.07,1.08-.59,1.82-1.81,1.87-3.73.14-7.17,1.15-10.19,3.4-4.32,3.22-6.73,7.52-7.18,12.9-.04.46-.05.92-.11,1.38-.11.94-.74,1.55-1.62,1.6-.93.05-1.61-.51-1.82-1.49-.1-.5.01-.98.02-1.4Z"/>
</svg>