<?xml version="1.0" encoding="UTF-8"?>
<svg id="Capa_1" data-name="Capa 1" xmlns="http://www.w3.org/2000/svg" viewBox="0 0 96 96">
  <defs>
    <style>
      .cls-1 {
        fill: #b1b0b1;
      }
    </style>
  </defs>
  <path class="cls-1" d="M50.68,2.55c4.78,1.29,7.47,4.72,9.17,9.09.85,2.2.91,4.56,1.12,6.89.55,5.87-.1,11.63-1.53,17.32-.06.23-.07.47-.14.69-.12.37.03.48.37.47.24-.01.47,0,.71,0,6.92,0,13.84,0,20.76,0,2.07,0,3.96.51,5.58,1.87,3.41,2.87,3.75,7.92.73,11.22-.18.19-.35.4-.57.65,3.42,1.61,4.64,4.4,4.06,7.94-.57,3.44-2.79,5.49-6.17,6.42.91,1.36,1.53,2.8,1.59,4.45.14,3.62-2.1,6.82-5.56,7.84-.65.19-.72.33-.35.91,3.17,4.97-.17,11.55-6.05,11.93-.5.03-1,.04-1.51.04-13.93,0-27.86.01-41.8-.02-.88,0-1.17.19-1.14,1.11.07,2.06.02,2.06-2.05,2.06-7.37,0-14.73-.01-22.1.02-.74,0-.92-.2-.92-.93.02-19.23.02-38.45,0-57.68,0-.73.18-.95.93-.95,7.75.03,15.5.03,23.25,0,.75,0,1.03.23.91.95-.02.12,0,.24,0,.35,0,1.98.22,2.15,2.23,1.75,2.5-.49,4.33-1.96,5.78-3.96,2.19-3.02,3.16-6.5,3.8-10.11.54-3.04.69-6.11.73-9.19.03-2.07.18-4.13.79-6.13.76-2.53,2.28-4.28,4.89-5h2.48ZM30,63.68c0,7.48.01,14.97-.02,22.45,0,.87.24,1.07,1.09,1.07,13.72-.03,27.45-.02,41.17-.02.5,0,1.01.02,1.51,0,2.11-.1,3.69-1.02,4.49-3.03,1.18-2.99-.92-6.25-4.14-6.33-3.49-.09-6.98-.03-10.47-.04-.38,0-.77-.03-1.14-.12-.73-.18-1.1-.71-1.12-1.42-.02-.71.35-1.23,1.04-1.49.34-.13.7-.12,1.05-.12,2.54,0,5.09,0,7.63,0,2.51,0,5.03.04,7.54-.02,2.9-.06,4.93-2.49,4.56-5.35-.3-2.34-2.28-4.01-4.86-4.03-3.87-.02-7.75,0-11.62,0-.3,0-.6.02-.88-.03-.78-.15-1.27-.62-1.32-1.44-.05-.8.43-1.41,1.25-1.57.37-.07.76-.08,1.15-.08,4.91,0,9.82,0,14.73,0,.77,0,1.54,0,2.3-.07,2.05-.2,3.79-2.04,3.99-4.14.23-2.35-.69-3.69-3.01-4.44-1.71-.55-3.49-.63-5.26-.65-4.26-.07-8.52-.06-12.78-.09-.35,0-.71,0-1.06-.06-.83-.13-1.33-.71-1.32-1.51,0-.77.55-1.4,1.34-1.51.32-.04.65-.03.97-.03,4.73,0,9.47,0,14.2,0,.56,0,1.13-.03,1.67-.14,2.65-.53,4.29-3.3,3.5-5.89-.65-2.12-2.38-3.35-4.77-3.36-8.05,0-16.09,0-24.14,0-1.98,0-2,0-1.53-1.97,1.61-6.72,2.83-13.48,2.04-20.45-.29-2.6-.57-5.17-2.02-7.45-1.15-1.79-2.49-3.37-4.51-4.24-2.18-.94-3.84-.3-4.74,1.89-.57,1.39-.74,2.85-.8,4.33-.13,3.49-.16,6.98-.71,10.43-.68,4.27-1.8,8.39-4.37,11.95-2.42,3.35-5.54,5.56-9.88,5.48-.76-.01-.78.33-.78.9.01,7.54,0,15.09,0,22.63ZM8.08,63.61c0,8.55,0,17.1-.02,25.64,0,.76.13,1.05.99,1.05,5.62-.04,11.24-.04,16.86,0,.76,0,.99-.17.99-.97-.03-17.13-.03-34.25,0-51.38,0-.82-.26-.96-1-.95-5.62.03-11.24.03-16.86,0-.78,0-.98.19-.98.97.03,8.55.02,17.1.02,25.64Z"/>
  <path class="cls-1" d="M17.48,69.96c4.28,0,7.79,3.49,7.82,7.77.03,4.26-3.58,7.88-7.84,7.87-4.29-.01-7.84-3.6-7.8-7.89.04-4.3,3.53-7.76,7.82-7.75ZM22.14,77.75c0-2.58-2.13-4.7-4.69-4.69-2.55.01-4.7,2.17-4.68,4.71.01,2.58,2.13,4.67,4.71,4.67,2.59,0,4.67-2.1,4.66-4.69Z"/>
</svg>