<?xml version="1.0" encoding="UTF-8"?>
<svg id="Layer_1" data-name="Layer 1" xmlns="http://www.w3.org/2000/svg" viewBox="0 0 96 96">
  <defs>
    <style>
      .cls-1 {
        fill: #b1b0b1;
        fill-rule: evenodd;
      }
    </style>
  </defs>
  <g id="Live-chat-">
    <path class="cls-1" d="M37.87,26.63c-2.34-.57-4.8-.87-7.34-.87-15.82,0-28.59,11.73-28.59,26.07,0,7.12,3.19,13.91,8.8,18.82h.01c.41.36.61.89.54,1.42,0,0,0,0,0,.01-.4,3.05-1.23,9.05-1.23,9.05-.09.62.2,1.24.74,1.57.53.33,1.21.32,1.73-.04l8.35-5.68c.39-.27.88-.34,1.33-.21,0,0,0,0,0,0,2.69.75,5.5,1.13,8.32,1.13,9.79,0,18.42-4.49,23.56-11.31,3.07.96,6.36,1.48,9.79,1.48,3.01,0,6-.41,8.86-1.22,0,0,0,0,0,0,.45-.13.94-.05,1.33.21l8.91,6.06c.52.35,1.2.37,1.73.04.53-.33.82-.95.74-1.57,0,0-.9-6.48-1.32-9.68h0c-.07-.54.13-1.07.54-1.42,0,0,0,0,.01-.01,5.97-5.18,9.36-12.38,9.36-19.92,0-15.14-13.48-27.51-30.18-27.51-11.1,0-20.77,5.47-26.01,13.57h0ZM36.24,29.52c-1.84-.38-3.75-.58-5.71-.58-13.98,0-25.41,10.22-25.41,22.9,0,6.22,2.81,12.14,7.71,16.42,1.22,1.05,1.83,2.65,1.61,4.23-.2,1.49-.49,3.68-.74,5.54l5.4-3.67c1.17-.79,2.63-1.03,3.98-.64,2.42.67,4.93,1.02,7.46,1.02,8.36,0,15.79-3.65,20.43-9.29-10.21-4.42-17.26-13.92-17.26-24.87,0-3.92.91-7.66,2.54-11.05ZM36.88,40.57c0-13.48,12.14-24.34,27-24.34s27,10.86,27,24.34c0,6.64-3.01,12.96-8.26,17.52-1.23,1.05-1.84,2.65-1.62,4.26.21,1.62.55,4.11.83,6.15l-5.96-4.05c-1.17-.79-2.63-1.03-4-.64-2.58.73-5.28,1.1-7.99,1.1-14.86,0-27-10.86-27-24.34ZM33.71,60.71h-14.29c-.88,0-1.59.71-1.59,1.59s.71,1.59,1.59,1.59h14.29c.88,0,1.59-.71,1.59-1.59s-.71-1.59-1.59-1.59ZM30.53,51.18h-11.12c-.88,0-1.59.71-1.59,1.59s.71,1.59,1.59,1.59h11.12c.88,0,1.59-.71,1.59-1.59s-.71-1.59-1.59-1.59ZM76.59,36.88c-2.63,0-4.76,2.13-4.76,4.76s2.13,4.76,4.76,4.76,4.76-2.13,4.76-4.76-2.13-4.76-4.76-4.76ZM63.88,36.88c-2.63,0-4.76,2.13-4.76,4.76s2.13,4.76,4.76,4.76,4.76-2.13,4.76-4.76-2.13-4.76-4.76-4.76ZM51.18,36.88c-2.63,0-4.76,2.13-4.76,4.76s2.13,4.76,4.76,4.76,4.76-2.13,4.76-4.76-2.13-4.76-4.76-4.76ZM28.94,41.65h-9.53c-.88,0-1.59.71-1.59,1.59s.71,1.59,1.59,1.59h9.53c.88,0,1.59-.71,1.59-1.59s-.71-1.59-1.59-1.59ZM76.59,40.06c.88,0,1.59.71,1.59,1.59s-.71,1.59-1.59,1.59-1.59-.71-1.59-1.59.71-1.59,1.59-1.59ZM63.88,40.06c.88,0,1.59.71,1.59,1.59s-.71,1.59-1.59,1.59-1.59-.71-1.59-1.59.71-1.59,1.59-1.59ZM51.18,40.06c.88,0,1.59.71,1.59,1.59s-.71,1.59-1.59,1.59-1.59-.71-1.59-1.59.71-1.59,1.59-1.59Z"/>
  </g>
</svg>