<?xml version="1.0" encoding="UTF-8"?>
<svg id="Capa_1" data-name="Capa 1" xmlns="http://www.w3.org/2000/svg" viewBox="0 0 96 96">
  <defs>
    <style>
      .cls-1 {
        fill: #b1b0b1;
      }
    </style>
  </defs>
  <path class="cls-1" d="M48.57,5.27c8.69.2,16.43,3.67,22.39,10.76,3.58,4.25,5.57,9.29,6.49,14.74,1.19,7.02.5,13.83-2.41,20.36-.82,1.84-1.9,3.53-3.04,5.18-7.84,11.32-15.68,22.64-23.51,33.97-.36.53-.53.64-.95.03-8.13-11.8-16.3-23.57-24.43-35.37-2.61-3.78-4.03-8.05-4.7-12.57-.79-5.35-.43-10.62,1.14-15.8,2.49-8.24,7.51-14.4,15.26-18.22,4.38-2.16,8.7-3.1,13.77-3.09ZM74.93,37.2c.02-4.05-.69-8.23-2.3-12.24-2.4-5.98-6.45-10.53-12.17-13.48-7.11-3.67-14.52-4.13-22.01-1.3-7.23,2.74-12.32,7.79-15.16,15-2.09,5.29-2.68,10.79-1.88,16.42.61,4.28,1.98,8.28,4.45,11.86,7.22,10.46,14.46,20.91,21.68,31.37.35.51.52.56.9.01,7.09-10.28,14.19-20.55,21.32-30.8,3.47-5,5-10.57,5.16-16.84Z"/>
  <path class="cls-1" d="M59.22,35.02c0,6.04-4.93,10.95-10.98,10.93-6-.02-10.9-4.91-10.93-10.92-.03-6,4.95-10.99,10.96-10.99,6.03,0,10.95,4.93,10.95,10.98ZM56.08,34.97c-.03-4.31-3.57-7.82-7.85-7.78-4.25.04-7.76,3.56-7.76,7.8,0,4.28,3.54,7.82,7.82,7.81,4.31-.01,7.82-3.53,7.79-7.83Z"/>
</svg>