<?xml version="1.0" encoding="UTF-8"?>
<svg id="Outline_cut" xmlns="http://www.w3.org/2000/svg" version="1.1" viewBox="0 0 96 96">
  <!-- Generator: Adobe Illustrator 29.3.1, SVG Export Plug-In . SVG Version: 2.1.0 Build 151)  -->
  <defs>
    <style>
      .st0 {
        fill: #b1b0b1;
      }
    </style>
  </defs>
  <path class="st0" d="M94.2,47.8l-11.6-16c-.3-.4-.7-.6-1.2-.6h-19.4v-14c0-.8-.7-1.5-1.5-1.5H3c-.8,0-1.5.7-1.5,1.5v55.1c0,.8.7,1.5,1.5,1.5h6c.7,3.6,3.9,6.4,7.7,6.4s7-2.7,7.7-6.4h5.8c.7,3.6,3.9,6.4,7.7,6.4s7-2.7,7.7-6.4h24.5c.7,3.6,3.9,6.4,7.7,6.4s7-2.7,7.7-6.4h7.6c.8,0,1.5-.7,1.5-1.5v-23.7c0-.3,0-.6-.3-.9h0ZM28.3,49.6H4.4v-9.6h23.9c.8,0,1.5-.7,1.5-1.5v-6.6l12.9,12.9-12.9,12.9v-6.6c0-.8-.7-1.5-1.5-1.5ZM16.7,77.3c-2.7,0-4.9-2.2-4.9-4.9s2.2-4.9,4.9-4.9,4.9,2.2,4.9,4.9-2.2,4.9-4.9,4.9ZM37.9,77.3c-2.7,0-4.9-2.2-4.9-4.9s2.2-4.9,4.9-4.9,4.9,2.2,4.9,4.9-2.2,4.9-4.9,4.9ZM59.2,70.9h-13.6c-.7-3.6-3.9-6.4-7.7-6.4s-7,2.7-7.7,6.4h-5.8c-.7-3.6-3.9-6.4-7.7-6.4s-7,2.7-7.7,6.4h-4.6v-18.4h22.4v8.7c0,.6.3,1.1.9,1.3.2,0,.4.1.6.1.4,0,.7-.1,1-.4l16.4-16.4c.6-.6.6-1.5,0-2.1l-16.4-16.4c-.4-.4-1-.5-1.6-.3-.5.2-.9.8-.9,1.3v8.7H4.4v-18.4h54.8v52.2ZM91.6,49.1v3.7h-19.3v-18.7h8.4l10.9,15ZM77.8,77.3c-2.7,0-4.9-2.2-4.9-4.9s2.2-4.9,4.9-4.9,4.9,2.2,4.9,4.9-2.2,4.9-4.9,4.9ZM85.5,70.9c-.7-3.6-3.9-6.4-7.7-6.4s-7,2.7-7.7,6.4h-8v-36.8h7.4v20.1c0,.8.7,1.5,1.5,1.5h20.7v15.2h-6.1Z"/>
</svg>