<?xml version="1.0" encoding="UTF-8"?>
<svg id="Layer_1" data-name="Layer 1" xmlns="http://www.w3.org/2000/svg" viewBox="0 0 96 96">
  <defs>
    <style>
      .cls-1 {
        fill: #b1b0b1;
      }
    </style>
  </defs>
  <path class="cls-1" d="M40.87,69.15l-3.78-8.65c-1.46.13-2.83.12-4.26,0l-3.78,8.65-11.31-4.12,2.66-9.05c-1.16-.82-2.25-1.73-3.26-2.74l-8.45,4.19-6.03-10.43,7.85-5.22c-.36-1.36-.61-2.77-.74-4.2l-9.17-2.22,2.09-11.86,9.37,1.06c.6-1.29,1.32-2.52,2.13-3.7l-5.6-7.59,9.23-7.74,6.5,6.82c1.29-.6,2.63-1.09,4.01-1.46l.59-9.41h12.04l.59,9.41c1.37.37,2.71.86,4,1.46l6.51-6.82,9.22,7.74-5.6,7.59c.81,1.17,1.53,2.41,2.14,3.7l9.37-1.06,2.09,11.86-9.17,2.22c-.12,1.42-.37,2.83-.73,4.2l1.83,1.21-1.66,2.5-3.68-2.45.34-1.07c.57-1.83.9-3.74.99-5.66l.05-1.13,8.6-2.08-1.11-6.3-8.77.99-.43-1.04c-.75-1.78-1.72-3.46-2.89-4.98l-.68-.9,5.25-7.11-4.9-4.12-6.1,6.4-1-.52c-1.71-.88-3.52-1.55-5.4-1.97l-1.1-.25-.56-8.82h-6.41l-.55,8.82-1.1.25c-1.88.42-3.7,1.08-5.4,1.97l-1,.52-6.09-6.4-4.91,4.12,5.25,7.11-.68.9c-1.17,1.53-2.14,3.21-2.88,4.98l-.43,1.04-8.78-.99-1.11,6.3,8.59,2.08.05,1.12c.09,1.96.42,3.86.99,5.66l.34,1.08-7.36,4.89,3.21,5.55,7.92-3.93.76.83c1.3,1.42,2.78,2.66,4.39,3.69l.95.61-2.5,8.49,6.02,2.19,3.54-8.11,1.12.14c1.97.25,3.77.25,5.75,0l1.12-.14,4.1,9.4-.73.32.53,1.45-1.99.73Z"/>
  <polygon class="cls-1" points="48.18 56.57 48.17 56.57 48.17 53.57 48.18 56.57"/>
  <path class="cls-1" d="M68.23,94.73l-10.01-1.83.89-7.55c-.91-.44-1.78-.95-2.6-1.52l-6.14,4.47-6.49-7.84,5.53-5.2c-.41-.92-.74-1.87-1.01-2.85l-7.58-.52.06-10.18,7.58-.43c.28-.96.63-1.91,1.05-2.83l-5.47-5.27,6.59-7.76,6.09,4.54c.84-.56,1.71-1.06,2.62-1.49l-.8-7.55,10.03-1.7,1.74,7.39c1,.11,1.99.29,2.97.54l4.24-6.3,8.78,5.14-3.42,6.78c.7.73,1.35,1.5,1.93,2.32l7.3-2.1,3.42,9.58-6.98,3c.07,1.01.07,2.02-.01,3.02l6.94,3.08-3.54,9.54-7.27-2.19c-.59.81-1.25,1.58-1.96,2.3l3.34,6.83-8.84,5.03-4.16-6.35c-.5.12-.99.23-1.48.31-.49.08-.99.15-1.5.2l-1.83,7.37ZM61.53,90.45l4.47.82,1.69-6.79,1.12-.05c.79-.03,1.53-.11,2.25-.23.72-.12,1.45-.3,2.2-.53l1.08-.33,3.84,5.85,3.95-2.25-3.07-6.29.83-.76c1.12-1.02,2.1-2.17,2.92-3.43l.61-.94,6.7,2.02,1.58-4.26-6.39-2.84.15-1.12c.2-1.49.21-3,.02-4.51l-.14-1.12,6.43-2.76-1.53-4.28-6.72,1.93-.6-.95c-.8-1.27-1.77-2.43-2.88-3.47l-.83-.77,3.15-6.25-3.92-2.3-3.91,5.81-1.07-.35c-1.43-.46-2.92-.73-4.43-.81l-1.13-.06-1.6-6.81-4.48.76.74,6.96-1.04.43c-1.39.57-2.71,1.32-3.91,2.23l-.9.68-5.61-4.19-2.94,3.46,5.04,4.86-.53,1c-.71,1.34-1.24,2.76-1.57,4.22l-.25,1.1-6.98.4-.03,4.54,6.98.48.24,1.1c.32,1.48.83,2.91,1.51,4.25l.51,1-5.09,4.79,2.9,3.5,5.66-4.12.89.69c1.18.92,2.49,1.68,3.89,2.28l1.04.44-.82,6.95Z"/>
  <path class="cls-1" d="M34.97,51.83c-9.21,0-16.71-7.49-16.71-16.71,0-2.78.7-5.52,2.01-7.95.39-.73,1.31-1,2.03-.6.73.39,1,1.3.6,2.03-1.08,1.99-1.65,4.24-1.65,6.52,0,7.56,6.15,13.71,13.71,13.71,2.32,0,4.62-.59,6.63-1.71.72-.4,1.64-.14,2.04.58.4.72.14,1.64-.58,2.04-2.46,1.37-5.26,2.09-8.09,2.09Z"/>
  <path class="cls-1" d="M48.49,43.59c-.23,0-.47-.05-.69-.17-.74-.38-1.03-1.28-.65-2.02,1.01-1.95,1.52-4.06,1.52-6.27,0-7.56-6.15-13.71-13.71-13.71-2.08,0-4.08.45-5.94,1.35-.75.36-1.64.05-2-.7-.36-.75-.05-1.64.7-2,2.27-1.09,4.7-1.65,7.24-1.65,9.21,0,16.71,7.49,16.71,16.71,0,2.66-.64,5.3-1.85,7.65-.27.52-.79.81-1.33.81Z"/>
  <path class="cls-1" d="M67.99,75.65c-4.79,0-8.68-3.89-8.68-8.68s3.89-8.68,8.68-8.68,8.68,3.89,8.68,8.68-3.89,8.68-8.68,8.68ZM67.99,61.29c-3.13,0-5.68,2.55-5.68,5.68s2.55,5.68,5.68,5.68,5.68-2.55,5.68-5.68-2.55-5.68-5.68-5.68Z"/>
  <path class="cls-1" d="M34.97,43.86c-4.82,0-8.73-3.92-8.73-8.73s3.92-8.73,8.73-8.73,8.73,3.92,8.73,8.73-3.92,8.73-8.73,8.73ZM34.97,29.39c-3.16,0-5.73,2.57-5.73,5.73s2.57,5.73,5.73,5.73,5.73-2.57,5.73-5.73-2.57-5.73-5.73-5.73Z"/>
</svg>