<?xml version="1.0" encoding="UTF-8"?>
<svg id="Layer_1" data-name="Layer 1" xmlns="http://www.w3.org/2000/svg" viewBox="0 0 96 96">
  <defs>
    <style>
      .cls-1 {
        fill: #b1b0b1;
      }
    </style>
  </defs>
  <path class="cls-1" d="M72.85,88.06l-2.26-4.04c-2.2.33-4.44.35-6.59.1l-.64,1.15-2.62-1.46,1.66-2.97,1.04.17c2.47.4,5.12.37,7.67-.12l1.07-.21,2.06,3.69,3.83-1.39-.81-4.23.9-.54c2.21-1.32,4.16-3.01,5.8-5.03l.68-.84,3.94,1.5,2.04-3.53-3.34-2.72.34-.99c.81-2.34,1.22-4.76,1.22-7.21v-1.46s3.96-1.38,3.96-1.38l-.71-4.02-4.3.07-.38-.98c-.92-2.41-2.25-4.63-3.95-6.59l-.71-.82,2.16-3.63-3.12-2.62-3.27,2.82-.92-.52c-2.26-1.27-4.69-2.11-7.23-2.5l-1.08-.17-.68-4.18h-4.08l-.69,4.26-1.03.2c-2.55.49-4.96,1.41-7.16,2.73l-.94.56-.66-.57c-.55.21-1.14.33-1.75.33h-4.32v-3h4.32c.4,0,.75-.11,1.06-.34l.97-.72.73.63c1.93-1.05,3.99-1.83,6.15-2.34l.77-4.73h9.18l.74,4.57c2.16.43,4.25,1.16,6.22,2.16l3.62-3.13,7.04,5.9-2.37,3.98c1.38,1.73,2.51,3.63,3.38,5.66l4.78-.07,1.6,9.05-4.37,1.52c-.06,2.2-.41,4.38-1.05,6.51l3.71,3.03-4.59,7.96-4.33-1.65c-1.47,1.66-3.14,3.11-4.98,4.31l.9,4.7-8.64,3.14Z"/>
  <path class="cls-1" d="M66.87,73.36c-7.81,0-14.17-6.36-14.17-14.17s6.36-14.17,14.17-14.17,14.17,6.36,14.17,14.17-6.36,14.17-14.17,14.17ZM66.87,48.02c-6.16,0-11.17,5.01-11.17,11.17s5.01,11.17,11.17,11.17,11.17-5.01,11.17-11.17-5.01-11.17-11.17-11.17Z"/>
  <path class="cls-1" d="M32.03,55.26h-.27c-9.32,0-16.9-7.58-16.9-16.9v-11.43c0-9.32,7.58-16.9,16.9-16.9h.27c9.32,0,16.91,7.58,16.91,16.9v11.43c0,9.32-7.58,16.9-16.91,16.9ZM31.75,13.02c-7.67,0-13.9,6.24-13.9,13.9v11.43c0,7.67,6.24,13.9,13.9,13.9h.27c7.67,0,13.91-6.24,13.91-13.9v-11.43c0-7.67-6.24-13.9-13.91-13.9h-.27Z"/>
  <path class="cls-1" d="M23.08,33.54c-2.46,0-4.96-.49-7.33-1.53l1.2-2.75c7.03,3.07,15.35.45,19.35-6.08.31-.5.87-.78,1.47-.7.59.08,1.07.49,1.24,1.06,1.05,3.51,4.57,5.73,8.19,5.17l.46,2.96c-4.15.64-8.21-1.32-10.37-4.75-3.55,4.24-8.82,6.61-14.22,6.61Z"/>
  <rect class="cls-1" x="22.97" y="35.76" width="3" height="2.55"/>
  <rect class="cls-1" x="36.91" y="35.76" width="3" height="2.55"/>
  <path class="cls-1" d="M16.35,40.92h-4.88c-2.67,0-4.85-2.17-4.85-4.85v-2.75c0-2.67,2.17-4.85,4.85-4.85h4.88c.83,0,1.5.67,1.5,1.5v9.45c0,.83-.67,1.5-1.5,1.5ZM11.47,31.47c-1.02,0-1.85.83-1.85,1.85v2.75c0,1.02.83,1.85,1.85,1.85h3.38v-6.45h-3.38Z"/>
  <path class="cls-1" d="M52.33,40.92h-4.89v-3h4.89c.4,0,.75-.11,1.06-.34.5-.36.78-.91.78-1.5v-2.78c0-1.01-.82-1.84-1.84-1.84h-4.89v-3h4.89c2.67,0,4.84,2.17,4.84,4.84v2.78c0,1.55-.75,3.02-2.01,3.92-.8.59-1.78.92-2.82.92Z"/>
  <path class="cls-1" d="M53.81,30.19l-2.97-.43c.25-1.75.25-3.54,0-5.32-1.47-10.45-11.18-17.74-21.61-16.28-10.45,1.47-17.75,11.16-16.28,21.61l-2.97.42c-1.7-12.09,6.75-23.3,18.84-25,12.09-1.7,23.3,6.75,25,18.84.29,2.06.29,4.14,0,6.17Z"/>
  <path class="cls-1" d="M31.94,67.12c-2.17,0-4.22-.85-5.78-2.39-1.32-1.33-2.15-3.06-2.35-4.88-.04-.29-.05-.6-.05-.91v-6.6h3v6.6c0,.19,0,.38.03.57.13,1.16.66,2.26,1.49,3.1.98.97,2.28,1.51,3.65,1.51,2.63,0,4.83-1.97,5.13-4.57.04-.24.04-.42.04-.6v-6.64h3v6.64c0,.27,0,.63-.07,1.01-.46,4.06-3.95,7.17-8.1,7.17Z"/>
  <path class="cls-1" d="M62.05,95.53H1.5C.67,95.53,0,94.86,0,94.03v-15.66C0,71.21,4.57,64.9,11.38,62.67l13.46-4.4c.43-.14.9-.08,1.28.17.38.25.63.65.68,1.1.12,1.15.65,2.24,1.49,3.08.98.97,2.28,1.51,3.65,1.51,2.63,0,4.83-1.97,5.13-4.57.05-.45.3-.85.68-1.09.38-.24.85-.3,1.28-.16l13.18,4.36c6.77,2.24,11.33,8.54,11.33,15.68v15.69c0,.83-.67,1.5-1.5,1.5ZM3,92.53h57.55v-14.19c0-5.84-3.72-11-9.27-12.84l-11.63-3.85c-1.12,3.21-4.17,5.47-7.71,5.47-2.17,0-4.22-.85-5.78-2.39-.88-.89-1.54-1.95-1.94-3.1l-11.91,3.89c-5.57,1.82-9.31,6.99-9.31,12.84v14.16Z"/>
  <rect class="cls-1" x="13.34" y="74.62" width="3" height="19.72"/>
  <rect class="cls-1" x="47.27" y="74.83" width="3" height="19.5"/>
  <path class="cls-1" d="M82.3,36.85h-3v-16.75l.74-.43c2.97-1.74,4.82-4.96,4.82-8.4,0-2.9-1.27-5.58-3.44-7.42v7.98l-7.09,2.54-6.47-2.58v-6.96c-1.57,1.77-2.45,4.04-2.45,6.44,0,2.78,1.2,5.43,3.28,7.28l.5.45v12.92h-3v-11.6c-2.41-2.39-3.78-5.65-3.78-9.05,0-3.85,1.73-7.46,4.74-9.89.68-.55,1.6-.66,2.4-.28.81.39,1.31,1.18,1.31,2.07v6.58l3.53,1.41,4.04-1.45V2.46c0-.84.46-1.61,1.19-2.01.73-.4,1.61-.38,2.31.06,3.72,2.35,5.94,6.37,5.94,10.76s-2.11,8.15-5.56,10.51v15.07Z"/>
  <polygon class="cls-1" points="52.5 49.04 34.44 49.04 34.44 46.04 49.5 46.04 49.5 39.42 52.5 39.42 52.5 49.04"/>
</svg>