<?xml version="1.0" encoding="UTF-8"?>
<svg id="Layer_1" data-name="Layer 1" xmlns="http://www.w3.org/2000/svg" viewBox="0 0 96 96">
  <defs>
    <style>
      .cls-1 {
        fill: none;
        stroke: #b1b0b1;
        stroke-miterlimit: 10;
        stroke-width: 3px;
      }
    </style>
  </defs>
  <line class="cls-1" y1="94.21" x2="96" y2="94.21"/>
  <line class="cls-1" x1="60.57" y1="52.39" x2="60.57" y2="94.69"/>
  <line class="cls-1" x1="90.63" y1="22.94" x2="90.63" y2="94.08"/>
  <line class="cls-1" x1="75.6" y1="41.47" x2="75.6" y2="93.17"/>
  <path class="cls-1" d="M45.87,50.2C82.48,31.67,87.66,3.61,87.66,3.61"/>
  <polyline class="cls-1" points="74.76 7.74 88.44 2.03 94.15 15.72"/>
  <g>
    <path class="cls-1" d="M7.15,48.38l3.91-3.63,3.54,3.9c1.06-.51,2.18-.9,3.36-1.13l.46-5.25,5.32.14.21,5.27c1.16.29,2.27.73,3.29,1.29l3.73-3.73,3.99,3.53-3.23,4.16c.69.95,1.26,2,1.7,3.11l5.24-.46.8,5.27-5.16,1.11c-.08,1.21-.32,2.38-.69,3.47l4.31,3.02-2.78,4.54-4.66-2.46c-.82.85-1.75,1.6-2.77,2.21l1.36,5.09-5.05,1.7-1.99-4.88c-.59.06-1.18.09-1.78.07s-1.18-.07-1.76-.16l-2.23,4.77-4.96-1.94,1.61-5.02c-.99-.66-1.88-1.45-2.66-2.34l-4.78,2.23-2.55-4.68,4.46-2.8c-.32-1.12-.5-2.3-.52-3.5l-5.09-1.36,1.05-5.23,5.22.72c.48-1.09,1.11-2.11,1.85-3.02l-2.03-2.9-.75-1.11Z"/>
    <circle class="cls-1" cx="20.52" cy="60.97" r="5.2"/>
  </g>
  <line class="cls-1" x1="45.53" y1="63.49" x2="45.53" y2="94.08"/>
</svg>