<?xml version="1.0" encoding="UTF-8"?>
<svg id="Capa_1" data-name="Capa 1" xmlns="http://www.w3.org/2000/svg" viewBox="0 0 96 96">
  <path d="M94.49,46.88l-25.14-21.78c-.44-.38-1.05-.47-1.58-.23-.52.24-.86.77-.86,1.34v7.65h-12.26l-9.95-10.21c-1.45-1.51-3.4-2.34-5.49-2.34-1.91,0-3.02.6-3.49.85l-15.07,8.41c-1.42.67-2.51,1.84-3.07,3.3H2.48c-.81,0-1.48.66-1.48,1.48v25.31c0,.81.66,1.48,1.48,1.48h21.69l-13.89,22.83c-.92,1.51-1.2,3.28-.78,4.99s1.47,3.16,2.98,4.08c1.04.63,2.22.97,3.42.97.52,0,1.05-.06,1.56-.19,1.71-.42,3.16-1.47,4.08-2.98l18.23-29.93,8.06,8.67,7.11,18.84c.62,1.65,1.85,2.96,3.45,3.69,1.6.72,3.41.78,5.05.16,1.65-.62,2.96-1.85,3.68-3.45.72-1.6.79-3.38.18-5.02l-7.56-20.02c-.34-.9-.86-1.7-1.54-2.37l-.24-.26h8.94v7.65c0,.58.34,1.1.86,1.34.52.24,1.15.14,1.58-.23l25.14-21.78c.32-.28.51-.69.51-1.11s-.19-.84-.51-1.12v-.02ZM68.38,59.18h-13.08l-8.49-9.4v-6.6l8.04,8.08c1.13,1.14,2.63,1.76,4.25,1.77,1.59,0,3.1-.62,4.23-1.74,2.34-2.33,2.36-6.13.03-8.47l-5.84-6h10.86c.81,0,1.48-.66,1.48-1.48v-5.89l21.41,18.55-21.41,18.55v-5.89c0-.81-.66-1.48-1.48-1.48ZM61.25,49.19c-.57.57-1.34.89-2.15.89s-1.58-.32-2.15-.9l-10.13-10.18v-8.93l14.44,14.82c.57.58.89,1.34.88,2.15,0,.81-.32,1.58-.9,2.15h.01ZM14.49,50.9c-.28,1.58.08,3.17,1,4.48s2.3,2.19,3.88,2.46,3.17-.08,4.48-1,2.19-2.3,2.46-3.88l2.28-13.03,3-1.58v11.53l-5.64,9.28H3.95v-22.36h13l-2.46,14.08v.02ZM12.8,86.5l19.77-32.51c.15.2.34.43.6.74.17.19.36.41.57.67.02.02.04.05.06.07l3.89,4.18-18.66,30.64c-.51.83-1.31,1.42-2.26,1.65-.95.23-1.93.08-2.76-.43s-1.42-1.31-1.65-2.25-.08-1.93.43-2.76h.01ZM33.84,34.66c-.23-.14-.5-.21-.76-.21-.24,0-.47.06-.69.17l-5.81,3.05c-.4.21-.69.6-.77,1.05l-2.4,13.74c-.14.8-.59,1.5-1.25,1.97-.67.47-1.47.65-2.28.51-.8-.14-1.5-.59-1.97-1.25-.47-.67-.65-1.48-.51-2.28l2.79-15.93c.17-.99.83-1.83,1.74-2.25.04-.02.07-.03.11-.05l15.01-8.38.07-.04c.35-.19.93-.5,2.1-.5s2.33.45,3.2,1.28l.25.25c.78.86,1.21,1.97,1.21,3.12v21.43c0,.37.14.72.38.99l11.8,13.06s.04.05.07.07c.39.37.68.82.87,1.33l7.55,20c.71,1.88-.25,3.99-2.13,4.7-.91.34-1.9.31-2.79-.09-.89-.4-1.57-1.13-1.91-2.04l-7.22-19.12c-.07-.18-.17-.34-.3-.48l-14.2-15.27c-.23-.28-.42-.5-.61-.72-.82-.95-.83-.97-.83-2.65v-14.22c0-.51-.27-1-.71-1.26v.02Z" fill="#b1b0b1"/>
  <path d="M41.58,18.92c4.94,0,8.96-4.02,8.96-8.96S46.52,1,41.58,1s-8.96,4.02-8.96,8.96,4.02,8.96,8.96,8.96ZM35.57,9.96c0-3.31,2.7-6.01,6.01-6.01s6.01,2.7,6.01,6.01-2.7,6.01-6.01,6.01-6.01-2.7-6.01-6.01Z" fill="#b1b0b1"/>
</svg>