<?xml version="1.0" encoding="UTF-8"?>
<svg id="Layer_1" data-name="Layer 1" xmlns="http://www.w3.org/2000/svg" viewBox="0 0 96 96">
  <defs>
    <style>
      .cls-1 {
        fill: none;
        stroke: #b1b0b1;
        stroke-linejoin: round;
        stroke-width: 3px;
      }
    </style>
  </defs>
  <circle class="cls-1" cx="17.45" cy="29.53" r="5.53"/>
  <circle class="cls-1" cx="38.55" cy="14.26" r="5.53"/>
  <circle class="cls-1" cx="59.26" cy="29.53" r="5.53"/>
  <circle class="cls-1" cx="79.96" cy="7.03" r="5.53"/>
  <path class="cls-1" d="M53.74,88.98c0,3.05-2.48,5.52-5.53,5.52s-5.53-2.47-5.53-5.52,2.48-5.53,5.53-5.53c1.66,0,3.15.73,4.16,1.9.86.97,1.37,2.24,1.37,3.63Z"/>
  <line class="cls-1" x1="61.77" y1="75.74" x2="52.37" y2="85.35"/>
  <polyline class="cls-1" points="11.42 69.89 11.42 51.41 23.48 51.41 23.48 55.73"/>
  <polyline class="cls-1" points="32.52 50.61 32.52 26.57 44.58 26.57 44.58 47.7"/>
  <path class="cls-1" d="M52.83,60.77c4.47.74,8.58,2.54,12.06,5.13"/>
  <polyline class="cls-1" points="52.83 47.8 52.83 42.51 64.89 42.51 64.89 51.04"/>
  <polyline class="cls-1" points="73.93 58.05 73.93 23.89 85.99 23.89 85.99 69.57 84.84 69.57"/>
  <path class="cls-1" d="M52.83,60.77c4.47.74,8.58,2.54,12.06,5.13M64.89,56.12c-3.7-1.92-7.76-3.21-12.06-3.76-1.51-.19-3.05-.29-4.62-.29-1.22,0-2.43.06-3.63.18-4.28.42-8.34,1.59-12.06,3.37-3.32,1.6-6.37,3.68-9.04,6.17-6,5.57-10.1,13.15-11.26,21.66-.23,1.62-.34,3.28-.34,4.96,0,.19,0,.38.01.57h8.32c-.02-.19-.02-.38-.02-.57,0-1.69.15-3.35.45-4.96.51-2.92,1.48-5.68,2.84-8.21,4.71-8.83,14.02-14.85,24.73-14.85,1.57,0,3.12.13,4.62.38,4.47.74,8.58,2.54,12.06,5.13,6.88,5.11,11.34,13.29,11.34,22.51,0,.19,0,.38-.02.57h8.33c.01-.19.01-.38.01-.57,0-14.06-7.98-26.25-19.66-32.29ZM48.21,83.45c-3.05,0-5.53,2.47-5.53,5.53s2.48,5.52,5.53,5.52,5.53-2.47,5.53-5.52c0-1.39-.51-2.66-1.37-3.63-1.01-1.17-2.5-1.9-4.16-1.9Z"/>
  <polyline class="cls-1" points="94.33 88.98 73.35 88.98 62.4 88.98"/>
  <polyline class="cls-1" points="35.5 88.98 19.2 88.98 1.67 88.98"/>
  <path class="cls-1" d="M20.21,88.98c-.02-.19-.02-.38-.02-.57,0-1.69.15-3.35.45-4.96.51-2.92,1.48-5.68,2.84-8.21,4.71-8.83,14.02-14.85,24.73-14.85,1.57,0,3.12.13,4.62.38,4.47.74,8.58,2.54,12.06,5.13,6.88,5.11,11.34,13.29,11.34,22.51,0,.19,0,.38-.02.57"/>
  <line class="cls-1" x1="22.11" y1="26.57" x2="33.49" y2="17.67"/>
  <line class="cls-1" x1="42.89" y1="17.67" x2="55.37" y2="26.57"/>
  <line class="cls-1" x1="62.75" y1="25.24" x2="76.21" y2="11.72"/>
</svg>