<?xml version="1.0" encoding="UTF-8"?>
<svg id="Capa_1" data-name="Capa 1" xmlns="http://www.w3.org/2000/svg" viewBox="0 0 96 96">
  <defs>
    <style>
      .cls-1 {
        fill: #b1b0b1;
      }
    </style>
  </defs>
  <path class="cls-1" d="M45.47,4.94c1.68,0,3.36,0,5.05,0,.22.05.43.12.65.14,6.73.48,13.03,2.4,18.78,5.92,11.15,6.84,18.02,16.69,20.43,29.58.3,1.61.45,3.26.67,4.88v5.21c-.17.18-.14.42-.15.64-.14,2.27-.51,4.51-1.05,6.71-2.23,9.13-6.98,16.74-14.1,22.84-2.6,2.23-5.47,4.09-8.55,5.61-9.58,4.71-19.59,5.8-29.91,3.16-9.87-2.53-17.9-7.96-23.94-16.18-6.53-8.89-9.24-18.89-8.17-29.84.9-9.13,4.45-17.19,10.54-24.06,6.66-7.51,14.95-12.17,24.85-13.97,1.63-.3,3.28-.36,4.9-.65ZM31.17,33.98h-.02c0-1.12.01-2.24,0-3.36-.06-4.97,2.84-9.52,7.45-11.39,5.81-2.36,11.78-2.41,17.67-.45,5.68,1.88,8.67,6.49,8.57,12.46-.04,2.38,0,4.76-.02,7.15,0,.39.12.69.34,1,.64.88,1.01,1.87,1.02,2.97.01,2.05.05,4.09,0,6.14-.05,1.96-1.01,3.47-2.66,4.5-.41.26-.67.55-.82.99-.71,2.01-1.49,4.04-2.81,5.7-1.65,2.08-2.17,4.3-2.02,6.89.11,1.97.83,3.24,2.58,4.12,4.56,2.27,9.17,4.43,13.63,6.9.4.22.6.07.86-.18,1.15-1.07,2.27-2.17,3.27-3.38,8.97-10.81,11.93-23.11,8.24-36.64-5.55-20.36-25.64-32.67-46.3-28.54C19.67,12.96,5.63,32.25,8.45,53.27c1.2,8.98,5.1,16.62,11.45,23.04,1.34,1.35,1.35,1.34,2.96.45.1-.05.2-.11.29-.16,3.78-2.06,7.56-4.14,11.36-6.19,1.51-.81,2.25-2.02,2.22-3.74-.02-1.09-.03-2.19,0-3.28.02-.57-.15-1.01-.47-1.47-1.87-2.65-3.3-5.52-4.18-8.65-.13-.45-.32-.82-.65-1.15-.99-.99-1.57-2.19-1.6-3.59-.04-2.1-.02-4.2-.01-6.3,0-.71.11-1.47.54-2,.93-1.14.83-2.43.81-3.74-.01-.84,0-1.68,0-2.52ZM23.88,79.77c.17.13.24.18.3.23,9.01,6.52,19.02,9.03,30.01,7.39,6.22-.92,11.88-3.31,17.02-6.95.6-.42.62-.58-.07-.92-4.14-2.04-8.26-4.12-12.4-6.18-2.67-1.33-4-3.48-4.01-6.46,0-1.6,0-3.19,0-4.79,0-.38.06-.69.32-1,2.37-2.82,4.03-6.05,5.17-9.54.15-.47.37-.73.85-.89,1.36-.46,1.98-1.32,2.01-2.77.03-1.71.01-3.42,0-5.13,0-.82-.28-1.55-.93-2.08-.39-.32-.49-.69-.48-1.17.03-2.89.03-5.77.06-8.66.04-4.06-2.13-7.46-5.93-8.91-4.92-1.87-9.96-1.87-14.91-.27-4.36,1.4-6.74,4.9-6.67,9.15.05,2.91.04,5.83.07,8.74,0,.45-.1.79-.46,1.1-.67.55-.95,1.3-.95,2.16,0,1.71,0,3.42,0,5.13,0,1.02.39,1.87,1.27,2.42.36.23.53.52.63.92.58,2.44,1.57,4.71,2.77,6.91.72,1.31,2.08,2.29,2.25,3.84.17,1.52.04,3.08.04,4.62,0,.08,0,.17,0,.25-.05,2.8-1.3,4.86-3.77,6.19-1.65.89-3.29,1.79-4.94,2.69-2.38,1.3-4.76,2.6-7.27,3.97Z"/>
</svg>