<?xml version="1.0" encoding="UTF-8"?>
<svg id="Layer_1" data-name="Layer 1" xmlns="http://www.w3.org/2000/svg" viewBox="0 0 96 96">
  <path d="M41.73,63.67v-3.13c0-1.73-1.41-3.13-3.13-3.13H10.4c-1.73,0-3.13,1.41-3.13,3.13v3.13c0,1.73,1.41,3.13,3.13,3.13h10.48c3.92,6.78,10.14,11.73,17.37,14.1l-2.42,8.05c-.44,1.43-.18,2.94.72,4.15.9,1.21,2.27,1.91,3.77,1.91h35.88c1.69,0,3.2-.87,4.05-2.33.85-1.46.87-3.21.04-4.68l-9-15.98c4.98-5.55,8.04-12.86,8.04-20.88,0-6.84-2.28-13.53-6.41-18.96.08-.46.14-.93.14-1.41,0-1.13-.25-2.2-.68-3.17l5.06-4.02c1.47-1.18,1.88-3.19,1.11-4.82l9.07-7.2c1.27-1.04,1.48-2.88.47-4.19l-4.16-5.25c-1.04-1.27-2.88-1.49-4.2-.47l-9.06,7.2c-.57-.45-1.26-.75-2.01-.84-1.06-.12-2.1.18-2.93.84l-25.27,20.08c-.66.54-1.07,1.3-1.16,2.14-.04.37,0,.74.09,1.1-2.87,3.11-3.4,7.5-1.06,10.47,1.4,1.75,3.5,2.65,5.75,2.65,1.56,0,3.18-.45,4.69-1.32.45.23.95.37,1.45.37.68,0,1.37-.22,1.96-.67l8.36-6.65c1.31.99,2.92,1.59,4.69,1.59.24,0,.47-.05.7-.07,2.61,3.7,4,8.03,4,12.6,0,12.09-9.84,21.93-21.93,21.93-5.82,0-11.23-2.27-15.31-6.27h5.91c1.73,0,3.13-1.41,3.13-3.13h0ZM10.4,60.54h28.2v3.13H10.4v-3.13ZM77.55,91.09c-.14.23-.54.77-1.35.77h-35.88c-.5,0-.95-.23-1.25-.63-.29-.4-.38-.9-.23-1.37l2.44-8.13c2.18.48,4.43.74,6.73.74,8.08,0,15.44-3.1,21-8.14l8.56,15.21c.4.7.12,1.33-.01,1.56ZM81.57,4.19l3.98,5.02-8.86,7.03-3.98-5.01,8.86-7.04ZM40.79,40.68c-1.22-1.54-.97-3.91.42-5.81l5.33,6.71c-2.16.93-4.52.64-5.74-.9ZM50.23,41.2l-7.8-9.83,25.25-20.07c.18-.14.4-.2.63-.18.23.03.43.14.57.32l6.75,8.49c.29.37.23.91-.14,1.2l-4.94,3.92c-1.4-1.3-3.26-2.12-5.32-2.12-4.32,0-7.83,3.51-7.83,7.83,0,1.42.41,2.73,1.07,3.88l-8.24,6.55h0ZM60.53,30.77c0-2.59,2.11-4.7,4.7-4.7s4.7,2.11,4.7,4.7-2.11,4.7-4.7,4.7-4.7-2.11-4.7-4.7ZM48,76.2c13.82,0,25.07-11.25,25.07-25.07,0-4.88-1.38-9.54-3.99-13.58.93-.53,1.74-1.23,2.38-2.08,3.07,4.61,4.75,10.09,4.75,15.66,0,15.55-12.65,28.2-28.2,28.2-9.48,0-18.22-4.75-23.44-12.53h3.91c4.8,5.97,11.85,9.4,19.52,9.4h0Z" fill="#b1b0b1"/>
</svg>