<?xml version="1.0" encoding="UTF-8"?>
<svg id="Capa_1" data-name="Capa 1" xmlns="http://www.w3.org/2000/svg" viewBox="0 0 96 96">
  <path d="M55.34,22.91c-4.12,0-7.47,3.35-7.47,7.47,0,.88.71,1.59,1.59,1.59s1.59-.71,1.59-1.59c0-2.36,1.92-4.28,4.28-4.28s4.28,1.92,4.28,4.28c0,.88.71,1.59,1.59,1.59s1.59-.71,1.59-1.59c0-4.12-3.35-7.47-7.47-7.47h.02Z" fill="#b1b0b1"/>
  <path d="M33.44,30.38c0-2.36,1.92-4.28,4.28-4.28s4.28,1.92,4.28,4.28c0,.88.71,1.59,1.59,1.59s1.59-.71,1.59-1.59c0-4.12-3.35-7.47-7.47-7.47s-7.47,3.35-7.47,7.47c0,.88.71,1.59,1.59,1.59s1.59-.71,1.59-1.59h.02Z" fill="#b1b0b1"/>
  <path d="M59.57,37.05c-.38-.2-.81-.24-1.21-.12-.41.12-.74.4-.94.77-2.16,4.01-6.33,6.5-10.88,6.5s-8.72-2.49-10.88-6.5c-.2-.38-.54-.65-.95-.77s-.84-.08-1.21.12c-.38.2-.65.54-.77.94s-.08.84.12,1.21c2.71,5.05,7.96,8.18,13.69,8.18s10.98-3.14,13.69-8.18c.2-.37.25-.81.12-1.21-.12-.41-.4-.74-.77-.95h0Z" fill="#b1b0b1"/>
  <path d="M19.41,63.05c-4.27-6.78-6.53-14.61-6.53-22.63v-1.17c0-.88-.71-1.59-1.59-1.59s-1.59.71-1.59,1.59v1.17c0,8.62,2.43,17.04,7.02,24.33l3.45,5.49c1.32,2.1,2.02,4.51,2.02,6.97v16.33c0,.88.71,1.59,1.59,1.59s1.59-.71,1.59-1.59v-16.33c0-3.07-.87-6.07-2.51-8.67,0,0-3.45-5.49-3.45-5.49Z" fill="#b1b0b1"/>
  <path d="M90.78,56.81l-8.51-12.43c-.24-.35-.36-.76-.36-1.18v-3.94c0-.88-.71-1.59-1.59-1.59s-1.59.71-1.59,1.59v3.94c0,1.06.32,2.09.92,2.98l8.51,12.42c.08.12.12.25.12.39,0,.36-.29.65-.65.65h-5.1c-2.9,0-5.27,2.36-5.27,5.27v4.41c0,6.81-5.54,12.36-12.36,12.36h-13.95c-.88,0-1.59.71-1.59,1.59s.71,1.59,1.59,1.59h6.48v8.69c0,.88.71,1.59,1.59,1.59s1.59-.71,1.59-1.59v-8.69h4.28c8.57,0,15.55-6.97,15.55-15.55v-4.41c0-1.15.93-2.08,2.08-2.08h5.1c2.11,0,3.83-1.72,3.83-3.83,0-.77-.23-1.52-.67-2.17h0Z" fill="#b1b0b1"/>
  <path d="M65.66,13.45c.3.3.7.47,1.13.47s.83-.17,1.13-.47l1.56-1.56c.62-.62.62-1.63,0-2.25s-1.63-.62-2.25,0l-1.56,1.56c-.3.3-.47.7-.47,1.13s.17.83.47,1.13h0Z" fill="#b1b0b1"/>
  <path d="M46.53,5.53c.88,0,1.59-.71,1.59-1.59v-1.47c0-.88-.71-1.59-1.59-1.59s-1.59.71-1.59,1.59v1.47c0,.88.71,1.59,1.59,1.59Z" fill="#b1b0b1"/>
  <path d="M25.15,13.45c.3.3.7.47,1.13.47s.83-.17,1.13-.47c.62-.62.62-1.63,0-2.25l-1.56-1.56c-.62-.62-1.63-.62-2.25,0s-.62,1.63,0,2.25l1.56,1.56h0Z" fill="#b1b0b1"/>
  <path d="M74.61,26.71l2.13-.57c.85-.23,1.35-1.1,1.13-1.95-.23-.85-1.1-1.36-1.95-1.13l-2.13.57c-.85.23-1.35,1.1-1.13,1.95.19.7.82,1.18,1.54,1.18.14,0,.28-.02.41-.05Z" fill="#b1b0b1"/>
  <path d="M53.53,6.45c.14.04.27.05.41.05.72,0,1.35-.49,1.54-1.18l.57-2.13c.11-.41.05-.84-.16-1.21s-.56-.63-.97-.74c-.85-.23-1.72.28-1.95,1.13l-.57,2.13c-.11.41-.05.84.16,1.21s.56.63.97.74Z" fill="#b1b0b1"/>
  <path d="M37.58,5.33c.19.7.82,1.18,1.54,1.18.14,0,.28-.02.41-.05.41-.11.75-.37.97-.74s.27-.8.16-1.21l-.57-2.13c-.23-.85-1.1-1.36-1.95-1.13-.41.11-.75.37-.97.74s-.27.8-.16,1.21c0,0,.57,2.13.57,2.13Z" fill="#b1b0b1"/>
  <path d="M19.28,23.63l-2.13-.57c-.41-.11-.84-.05-1.21.16s-.63.56-.74.97-.05.84.16,1.21c.21.37.56.63.97.74l2.13.57c.14.04.27.05.41.05.72,0,1.35-.49,1.54-1.18.11-.41.05-.84-.16-1.21s-.56-.63-.97-.74Z" fill="#b1b0b1"/>
  <path d="M70.89,32.58c0-13.43-10.93-24.36-24.36-24.36s-24.36,10.93-24.36,24.36,10.93,24.36,24.36,24.36,24.36-10.93,24.36-24.36ZM67.7,32.58c0,11.67-9.5,21.17-21.17,21.17s-21.17-9.5-21.17-21.17,9.5-21.17,21.17-21.17,21.17,9.5,21.17,21.17Z" fill="#b1b0b1"/>
  <path d="M19.48,32.58c0-.88-.71-1.59-1.59-1.59H6.14c-.88,0-1.59.71-1.59,1.59s.71,1.59,1.59,1.59h11.75c.88,0,1.59-.71,1.59-1.59Z" fill="#b1b0b1"/>
  <path d="M10.76,13.76l10.18,5.88c.24.14.52.21.8.21.57,0,1.1-.31,1.38-.8.44-.76.18-1.74-.58-2.18l-10.18-5.88c-.37-.21-.8-.27-1.21-.16-.41.11-.75.37-.97.74-.44.76-.18,1.74.58,2.18h0Z" fill="#b1b0b1"/>
  <path d="M30.83,8.58c.28.49.81.8,1.38.8.28,0,.55-.07.79-.21.76-.44,1.02-1.42.58-2.18l-3.06-5.31c-.21-.37-.56-.63-.97-.74s-.84-.05-1.21.16c-.37.21-.63.56-.74.97s-.05.84.16,1.21l3.06,5.31h0Z" fill="#b1b0b1"/>
  <path d="M60.05,9.16c.24.14.52.21.79.21.57,0,1.1-.31,1.38-.8l3.06-5.31c.21-.37.27-.8.16-1.21-.11-.41-.37-.76-.74-.97-.37-.21-.8-.27-1.21-.16s-.75.37-.97.74l-3.06,5.31c-.21.37-.27.8-.16,1.21.11.41.37.75.74.97h0Z" fill="#b1b0b1"/>
  <path d="M69.95,19.05c.28.49.81.8,1.38.8.28,0,.55-.07.8-.21l10.18-5.88c.37-.21.63-.56.74-.97s.05-.84-.16-1.21c-.44-.76-1.42-1.02-2.18-.58l-10.18,5.88c-.76.44-1.02,1.42-.58,2.18h0Z" fill="#b1b0b1"/>
  <path d="M73.58,32.58c0,.88.71,1.59,1.59,1.59h11.75c.88,0,1.59-.71,1.59-1.59s-.71-1.59-1.59-1.59h-11.75c-.88,0-1.59.71-1.59,1.59Z" fill="#b1b0b1"/>
</svg>