<?xml version="1.0" encoding="UTF-8"?>
<svg id="Layer_1" data-name="Layer 1" xmlns="http://www.w3.org/2000/svg" viewBox="0 0 96 96">
  <defs>
    <style>
      .cls-1 {
        fill: none;
        stroke: #b1b0b1;
        stroke-miterlimit: 10;
        stroke-width: 3px;
      }
    </style>
  </defs>
  <line class="cls-1" x1="1.5" y1="94.42" x2="94.5" y2="94.42"/>
  <path class="cls-1" d="M41.89,70.8c4.3-1.7,6.52-6.87,4.95-11.54-.87-2.6-2.51-4.5-4.73-5.38h0c-1.78.87-3.3,2.39-4.21,4.45-2.07,4.64-.28,10.22,4,12.47v23.07"/>
  <path class="cls-1" d="M41.73,83.36c.86-4.49-2.08-8.84-6.57-9.7-2.5-.48-4.85.03-6.68,1.52h0c-.23,1.94.2,3.96,1.35,5.72,2.61,3.97,7.93,5.07,11.9,2.46Z"/>
  <path class="cls-1" d="M42.15,83.36c-.86-4.49,2.08-8.84,6.57-9.7,2.5-.48,4.85.03,6.68,1.52h0c.23,1.94-.2,3.96-1.35,5.72-2.61,3.97-7.93,5.07-11.9,2.46Z"/>
  <path class="cls-1" d="M76.76,33.82c5.45-2.08,8.26-8.39,6.28-14.1-1.1-3.18-3.19-5.5-6-6.58h0c-2.26,1.06-4.18,2.93-5.34,5.44-2.62,5.67-.35,12.5,5.06,15.24v60.06"/>
  <path class="cls-1" d="M76.57,49.46c1.1-5.7-2.63-11.2-8.33-12.3-3.17-.61-6.14.04-8.47,1.93h0c-.29,2.45.25,5.02,1.71,7.25,3.3,5.03,10.05,6.42,15.08,3.12Z"/>
  <path class="cls-1" d="M77.09,49.46c-1.1-5.7,2.63-11.2,8.33-12.3,3.17-.61,6.14.04,8.47,1.93h0c.29,2.45-.25,5.02-1.71,7.25-3.3,5.03-10.05,6.42-15.08,3.12Z"/>
  <path class="cls-1" d="M76.57,70.59c1.1-5.7-2.63-11.2-8.33-12.3-3.17-.61-6.14.04-8.47,1.93h0c-.29,2.45.25,5.02,1.71,7.25,3.3,5.03,10.05,6.42,15.08,3.12Z"/>
  <path class="cls-1" d="M77.09,70.59c-1.1-5.7,2.63-11.2,8.33-12.3,3.17-.61,6.14.04,8.47,1.93h0c.29,2.45-.25,5.02-1.71,7.25-3.3,5.03-10.05,6.42-15.08,3.12Z"/>
  <path class="cls-1" d="M8.2,94.42s-10.66-7.23-5.1-15.47c4.79-7.09,12.44-3.16,12.44-3.16,0,0-2.78,4.27,1.1,8.64,2.51,2.83,6.65,2.37,6.75,1.96s1.22-3.74-.92-6.83c-2.54-3.67-6.81-3.64-6.81-3.64"/>
  <circle class="cls-1" cx="21.52" cy="21.13" r="9.1"/>
  <path class="cls-1" d="M13.52,1.79c-.93,2.08-2.57,4.41-4.75,6.59-2.18,2.16-4.5,3.8-6.58,4.75.82,2.13,1.3,4.95,1.3,8s-.49,5.87-1.31,8.01c2.08.93,4.41,2.57,6.59,4.75,2.18,2.18,3.81,4.5,4.75,6.58,2.13-.8,4.93-1.3,8.01-1.3s5.86.48,8,1.3c.94-2.08,2.57-4.41,4.75-6.58,2.18-2.18,4.51-3.82,6.59-4.75-.82-2.14-1.31-4.95-1.31-8.01s.48-5.87,1.3-8c-2.08-.95-4.4-2.58-6.58-4.75-2.18-2.18-3.81-4.51-4.75-6.59-2.14.82-4.93,1.3-8,1.3s-5.89-.49-8.01-1.3Z"/>
</svg>