<?xml version="1.0" encoding="UTF-8"?>
<svg id="Layer_1" data-name="Layer 1" xmlns="http://www.w3.org/2000/svg" viewBox="0 0 96 96">
  <defs>
    <style>
      .cls-1 {
        fill: #b1b0b1;
      }
    </style>
  </defs>
  <path class="cls-1" d="M21.53,37.01l1.55.27c.13.02.23.11.25.23.65,2.98,1.81,5.8,3.48,8.37.06.09.05.22-.02.32l-.92,1.3c-1.4,1.97-1.17,4.64.54,6.35,1.71,1.71,4.38,1.93,6.35.54l1.3-.92c.1-.07.23-.08.32-.02,2.57,1.66,5.39,2.83,8.37,3.48.12.02.21.13.23.25l.27,1.55c.41,2.38,2.46,4.11,4.87,4.11s4.47-1.73,4.87-4.11l.27-1.55c.02-.13.11-.23.23-.25,2.98-.64,5.8-1.81,8.37-3.48.09-.06.22-.05.32.02l1.3.92c1.97,1.4,4.64,1.17,6.35-.54s1.94-4.38.54-6.35l-.92-1.3c-.07-.1-.08-.23-.02-.32,1.66-2.57,2.83-5.39,3.48-8.37.02-.12.13-.21.25-.23l1.55-.27c2.38-.41,4.11-2.46,4.11-4.87s-1.73-4.46-4.11-4.87l-1.55-.27c-.13-.02-.23-.11-.25-.23-.65-2.98-1.81-5.8-3.48-8.37-.06-.09-.05-.22.02-.32l.92-1.3c1.4-1.97,1.17-4.64-.54-6.35-1.71-1.71-4.38-1.93-6.35-.54l-1.3.92c-.1.07-.23.08-.32.02-.27-.17-.54-.34-.82-.51-.65-.38-1.48-.17-1.86.47s-.17,1.48.47,1.86c.25.15.49.3.73.45,1.03.67,2.35.64,3.37-.08l1.3-.92c.89-.63,2.09-.53,2.86.24.77.77.87,1.97.24,2.86l-.92,1.3c-.72,1.01-.75,2.33-.08,3.37,1.48,2.29,2.53,4.81,3.1,7.47.26,1.21,1.22,2.12,2.45,2.33l1.55.27c1.07.18,1.85,1.11,1.85,2.19s-.78,2.01-1.85,2.19l-1.55.27c-1.23.21-2.19,1.13-2.45,2.33-.58,2.66-1.62,5.17-3.1,7.47-.67,1.03-.64,2.35.08,3.37l.92,1.3c.63.89.53,2.09-.24,2.86-.77.77-1.97.87-2.86.24l-1.3-.92c-1.01-.72-2.33-.75-3.37-.08-2.29,1.48-4.81,2.53-7.47,3.1-1.21.26-2.12,1.22-2.33,2.45l-.27,1.55c-.18,1.07-1.11,1.85-2.19,1.85s-2.01-.78-2.19-1.85l-.27-1.55c-.21-1.23-1.13-2.19-2.33-2.45-2.66-.58-5.17-1.62-7.47-3.1-1.03-.67-2.35-.64-3.37.08l-1.3.92c-.89.63-2.09.53-2.86-.24s-.87-1.97-.24-2.86l.92-1.3c.72-1.01.75-2.33.08-3.37-1.48-2.29-2.53-4.81-3.1-7.47-.26-1.21-1.22-2.12-2.45-2.33l-1.55-.27c-1.07-.18-1.85-1.11-1.85-2.19s.78-2.01,1.85-2.19l1.55-.27c1.23-.21,2.19-1.13,2.45-2.33.58-2.66,1.62-5.17,3.1-7.47.67-1.03.64-2.35-.08-3.37l-.92-1.3c-.63-.89-.53-2.09.24-2.86.77-.77,1.97-.87,2.86-.24l1.3.92c1.01.72,2.33.75,3.37.08,2.29-1.48,4.81-2.53,7.47-3.1,1.21-.26,2.12-1.22,2.33-2.45l.27-1.55c.18-1.07,1.11-1.85,2.19-1.85s2.01.78,2.19,1.85l.27,1.55c.21,1.23,1.13,2.19,2.33,2.45.41.09.83.19,1.24.31.72.2,1.47-.22,1.67-.95.2-.72-.22-1.47-.95-1.67-.46-.13-.93-.24-1.39-.34-.12-.02-.21-.13-.23-.25l-.27-1.55c-.41-2.38-2.46-4.11-4.87-4.11s-4.47,1.73-4.87,4.11l-.27,1.55c-.02.13-.11.23-.23.25-2.98.64-5.8,1.81-8.37,3.48-.09.06-.22.05-.32-.02l-1.3-.92c-1.97-1.4-4.64-1.17-6.35.54-1.71,1.71-1.94,4.38-.54,6.35l.92,1.3c.07.1.08.23.02.32-1.66,2.57-2.83,5.39-3.48,8.37-.02.12-.13.21-.25.23l-1.55.27c-2.38.41-4.11,2.46-4.11,4.87s1.73,4.46,4.11,4.87h0Z"/>
  <path class="cls-1" d="M28.2,32.14c0,10.99,8.94,19.92,19.93,19.92s19.93-8.94,19.93-19.92-8.94-19.92-19.93-19.92-19.93,8.94-19.93,19.92ZM65.34,32.14c0,9.49-7.72,17.21-17.21,17.21s-17.21-7.72-17.21-17.21,7.72-17.21,17.21-17.21,17.21,7.72,17.21,17.21Z"/>
  <path class="cls-1" d="M43.18,26.73c-.75,0-1.36.61-1.36,1.36v3.66l-2.98-4.42c-.33-.49-.95-.71-1.52-.54-.57.17-.96.7-.96,1.3v8.1c0,.75.61,1.36,1.36,1.36s1.36-.61,1.36-1.36v-3.66s2.98,4.41,2.98,4.42c.32.48.97.71,1.52.54.57-.17.96-.7.96-1.3v-8.1c0-.75-.61-1.36-1.36-1.36h0Z"/>
  <path class="cls-1" d="M46.71,28.09v8.1c0,.75.61,1.36,1.36,1.36h2.81c.75,0,1.36-.61,1.36-1.36s-.61-1.36-1.36-1.36h-1.45v-6.74c0-.75-.61-1.36-1.36-1.36s-1.36.61-1.36,1.36h0Z"/>
  <path class="cls-1" d="M55.72,37.55c.75,0,1.36-.61,1.36-1.36v-1.77h1.4c2.12,0,3.84-1.72,3.84-3.84s-1.72-3.84-3.84-3.84h-2.76c-.75,0-1.36.61-1.36,1.36v8.1c0,.75.61,1.36,1.36,1.36h0ZM57.08,29.45h1.4c.62,0,1.12.5,1.12,1.12s-.5,1.12-1.12,1.12h-1.4v-2.25Z"/>
  <path class="cls-1" d="M67.46,73.44c-1.62-6.28-6.87-9.15-11.11-9.15-3.83,0-6.66,1.42-8.23,4.02-1.56-2.6-4.39-4.02-8.23-4.02-4.24,0-9.49,2.87-11.11,9.15-3.81,1-6.82,3.18-8.5,6.17-.37.65-.13,1.48.52,1.85.65.37,1.48.13,1.85-.52.3-.53.69-1.1,1.22-1.68.82.75,2.41,2.37,4.04,4.92.26.41.7.63,1.15.63.25,0,.5-.07.73-.21.63-.4.82-1.24.41-1.88-1.61-2.53-3.21-4.24-4.21-5.19,1-.61,2.22-1.15,3.74-1.52.04,0,.07-.02.11-.03.73-.24,1.29-.84,1.5-1.58,0-.02,0-.03.01-.05.35-1.46.94-2.69,1.68-3.71,1.14.94,3.28,2.38,6.48,3.08.1.02.2.03.3.03.62,0,1.18-.43,1.33-1.07.16-.73-.3-1.46-1.03-1.62-2.5-.55-4.21-1.64-5.14-2.37,1.55-1.14,3.33-1.69,4.92-1.69,4.27,0,6.58,2.05,6.87,6.1v9.61c-3.61-.54-6.04-2.2-6.09-2.23-.61-.43-1.46-.28-1.89.33-.43.61-.28,1.46.33,1.89.13.09,3.14,2.17,7.65,2.75v1.51c-.05,1.81-.75,3.02-2.14,3.7-2.27,1.11-5.77.46-7.49-.82-.04-.03-.07-.05-.11-.07-.82-.49-1.82-.53-2.69-.09-3.65,1.89-6.98,2.29-9.36,1.12-1.69-.82-2.88-2.44-3.25-4.44-.14-.74-.85-1.22-1.59-1.08-.74.14-1.22.85-1.08,1.59.54,2.85,2.26,5.17,4.73,6.38,1.06.52,2.48.94,4.27.94,2.02,0,4.52-.54,7.52-2.09,0,0,.02,0,.04,0,2.41,1.73,6.95,2.6,10.21,1.02.95-.46,1.72-1.1,2.31-1.89.59.79,1.37,1.43,2.31,1.89,3.26,1.59,7.8.71,10.21-1.02.01,0,.02,0,.02,0,3,1.55,5.5,2.1,7.53,2.1,2.72,0,4.59-.98,5.68-1.81,2.76-2.1,4.05-5.86,3.27-9.59-.94-4.52-4.55-8-9.69-9.35h0ZM72.24,90.21c-2.43,1.84-6.09,1.65-10.33-.54-.4-.2-.83-.3-1.26-.3-.49,0-.99.13-1.43.4-.04.02-.07.05-.11.07-1.72,1.28-5.22,1.93-7.49.82-1.39-.68-2.09-1.89-2.14-3.7v-1.51c4.5-.57,7.51-2.65,7.65-2.75.61-.43.76-1.27.33-1.89-.43-.61-1.27-.77-1.89-.34-.03.02-2.47,1.68-6.09,2.23v-9.61c.29-4.05,2.6-6.1,6.87-6.1,1.59,0,3.37.55,4.92,1.69-.93.73-2.64,1.81-5.14,2.37-.73.16-1.19.89-1.03,1.62.14.63.7,1.07,1.33,1.07.1,0,.2-.01.3-.03,3.19-.71,5.34-2.14,6.48-3.08.74,1.01,1.34,2.24,1.68,3.71,0,.02,0,.03.01.05.21.75.77,1.34,1.5,1.58.04.01.07.02.11.03,1.39.34,2.64.86,3.73,1.53-1,.96-2.59,2.66-4.19,5.18-.4.63-.22,1.47.41,1.88.23.14.48.21.73.21.45,0,.89-.22,1.15-.63,1.62-2.54,3.21-4.15,4.03-4.91,1.08,1.16,1.81,2.54,2.13,4.08.56,2.71-.32,5.4-2.25,6.87h0Z"/>
  <path class="cls-1" d="M85.6,44.9c-1.23-1.73-2.56-2.91-3.39-3.56l1.86-.18c.75-.07,1.29-.74,1.22-1.48-.07-.75-.74-1.29-1.48-1.22l-5.29.51c-.36.04-.7.22-.93.5s-.33.65-.29,1.01c0,0,.64,5.45.64,5.45.08.71.75,1.25,1.47,1.2.75-.05,1.32-.77,1.23-1.51l-.26-2.26c1.56,1.18,6.65,5.71,5.42,13.65-.56,3.62-2.58,6.53-5.99,8.66-2.63,1.63-5.14,2.17-5.2,2.18-.73.15-1.21.87-1.06,1.6.13.64.7,1.09,1.33,1.09.09,0,.18,0,.27-.03.12-.02,2.96-.61,6.01-2.48,4.11-2.53,6.65-6.19,7.33-10.6.89-5.77-1.08-9.99-2.88-12.52h0Z"/>
  <path class="cls-1" d="M21.37,70.54c.63,0,1.2-.44,1.33-1.09.15-.73-.32-1.45-1.06-1.6-.03,0-2.55-.54-5.2-2.18-3.42-2.12-5.44-5.04-5.99-8.66-1.24-8.01,3.85-12.49,5.42-13.66l-.27,2.27c-.09.75.45,1.42,1.19,1.51.73.09,1.42-.45,1.51-1.19l.64-5.45c.04-.36-.06-.73-.29-1.01s-.56-.46-.93-.5l-5.29-.51c-.75-.07-1.41.47-1.48,1.22-.07.75.47,1.41,1.22,1.48l1.86.18c-.83.65-2.15,1.84-3.39,3.56-1.81,2.53-3.77,6.75-2.88,12.52.68,4.41,3.21,8.08,7.33,10.6,3.05,1.87,5.89,2.46,6.01,2.48.09.02.18.03.27.03h0Z"/>
</svg>