<?xml version="1.0" encoding="UTF-8"?>
<svg id="Capa_1" data-name="Capa 1" xmlns="http://www.w3.org/2000/svg" viewBox="0 0 96 96">
  <defs>
    <style>
      .cls-1 {
        fill: #b1b0b1;
      }
    </style>
  </defs>
  <path class="cls-1" d="M45.24,94.98c-1.77-.32-3.57-.39-5.35-.71-10.83-1.97-19.89-7.07-27.17-15.3-6.64-7.51-10.5-16.3-11.46-26.26C.09,40.42,3.23,29.25,10.77,19.44,17.76,10.36,26.9,4.47,38.13,2.12c14.04-2.93,26.91-.05,38.34,8.61,9.19,6.96,14.96,16.21,17.45,27.48.44,2,.75,4.02.88,6.07.02.33.11.65.17.97v5.51c-.24.64-.15,1.32-.22,1.98-1.12,10.11-4.99,19.03-11.8,26.59-7.23,8.03-16.2,13.02-26.86,14.95-1.77.32-3.57.39-5.34.71h-5.51ZM48.03,4.16c-24.12-.04-43.83,19.62-43.89,43.79-.06,24.11,19.59,43.83,43.76,43.91,24.14.08,43.92-19.65,43.94-43.83.02-24.13-19.65-43.83-43.81-43.87Z"/>
  <path class="cls-1" d="M43.29,48c0,7.98-.02,15.96.02,23.94,0,.96-.28,1.16-1.18,1.15-3.48-.05-6.97-.04-10.46,0-.69,0-.94-.14-.94-.9.02-16.11.02-32.23,0-48.34,0-.74.22-.92.93-.91,3.58.03,7.15.04,10.73,0,.76,0,.9.26.9.95-.02,8.04-.01,16.08-.01,24.12ZM33.89,48.01c0,7,0,13.99-.01,20.99,0,.7.16.97.91.94,1.46-.05,2.94-.07,4.4,0,.85.04,1-.27.99-1.04-.03-4.46-.02-8.92-.02-13.38,0-9.5,0-19.01.01-28.51,0-.69-.15-.97-.9-.94-1.46.06-2.94.07-4.4,0-.84-.04-1,.26-1,1.04.03,6.97.02,13.93.02,20.9Z"/>
  <path class="cls-1" d="M65.23,48.05c0,8.01-.01,16.02.02,24.03,0,.83-.23,1.02-1.02,1.01-3.52-.04-7.03-.04-10.55,0-.73,0-1-.15-1-.95.02-16.08.02-32.16,0-48.25,0-.78.24-.97.99-.96,3.49.04,6.97.04,10.46,0,.85-.01,1.13.17,1.13,1.09-.04,8.01-.02,16.02-.02,24.03ZM55.84,48.02c0,7,0,13.99-.01,20.99,0,.7.16.96.91.93,1.4-.06,2.81-.07,4.22,0,.89.04,1.19-.16,1.18-1.14-.05-5.71-.03-11.43-.03-17.14,0-8.22,0-16.44.02-24.66,0-.71-.18-.96-.91-.93-1.4.05-2.81.07-4.22,0-.89-.05-1.18.17-1.18,1.14.05,6.94.03,13.87.03,20.81Z"/>
</svg>