<?xml version="1.0" encoding="UTF-8"?>
<svg id="Layer_1" data-name="Layer 1" xmlns="http://www.w3.org/2000/svg" viewBox="0 0 96 96">
  <defs>
    <style>
      .cls-1 {
        fill: none;
        stroke: #b1b0b1;
        stroke-miterlimit: 10;
        stroke-width: 3px;
      }
    </style>
  </defs>
  <path class="cls-1" d="M24.95,10.92h4.76c8.23,0,14.91,6.68,14.91,14.91v10.65c0,9.54-7.75,17.29-17.29,17.29h0c-9.54,0-17.29-7.75-17.29-17.29v-10.65c0-8.23,6.68-14.91,14.91-14.91Z"/>
  <path class="cls-1" d="M20.09,11.52c-.17-4.11,3.03-7.58,7.15-7.74,4.11-.17,7.58,3.03,7.74,7.15"/>
  <path class="cls-1" d="M10.49,27.37l20.62-3.49c.92-.15,1.85-.13,2.76.08l10.75,2.43"/>
  <path class="cls-1" d="M22.18,44.25c.5,1.74,3.23,2.9,6.08,2.6,2.17-.23,3.79-1.25,4.23-2.48"/>
  <path class="cls-1" d="M53.18,94.53H1.84l.94-17.05c.59-5.72,3.51-10.55,7.59-12.56l6.26-3.09c2.66,2.03,6.55,3.31,10.88,3.31s8.22-1.28,10.87-3.31l6.26,3.09c1.23.6,2.36,1.46,3.35,2.54,2.29,2.46,3.83,6.02,4.25,10.02l.93,17.05"/>
  <path class="cls-1" d="M20.67,51.66v5.56c0,1.21-.52,2.32-1.35,2.86l-2.69,1.76"/>
  <path class="cls-1" d="M34.27,52.16v5.06c0,1.21.52,2.32,1.34,2.86l2.69,1.76"/>
  <line class="cls-1" x1="40.45" y1="78.83" x2="40.45" y2="95.04"/>
  <line class="cls-1" x1="13.49" y1="78.83" x2="13.49" y2="95.04"/>
  <rect class="cls-1" x="51.17" y="10.92" width="34.63" height="42.16" rx="17.32" ry="17.32"/>
  <path class="cls-1" d="M51.17,28.59c8.75,3.16,18.81.4,23.66-6.16,1.44,3.97,6.17,6.37,10.98,5.75"/>
  <path class="cls-1" d="M53.18,94.53h40.98l-.93-17.05c-.6-5.72-3.51-10.55-7.6-12.56l-6.26-3.09c-2.66,2.03-6.55,3.31-10.88,3.31s-8.22-1.28-10.87-3.31l-6.26,3.09c-1.23.6-2.37,1.46-3.36,2.54"/>
  <path class="cls-1" d="M61.65,51.66v5.56c0,1.21-.52,2.32-1.35,2.86l-2.69,1.76"/>
  <path class="cls-1" d="M75.25,52.16v5.06c0,1.21.52,2.32,1.34,2.86l2.69,1.76"/>
  <line class="cls-1" x1="80.29" y1="78.83" x2="80.29" y2="95.04"/>
  <line class="cls-1" x1="59.13" y1="78.83" x2="59.13" y2="95.04"/>
</svg>