<?xml version="1.0" encoding="UTF-8"?>
<svg id="Layer_1" data-name="Layer 1" xmlns="http://www.w3.org/2000/svg" viewBox="0 0 96 96">
  <defs>
    <style>
      .cls-1 {
        fill: #b1b0b1;
      }
    </style>
  </defs>
  <path class="cls-1" d="M84.66,95.48H11.34l1.36-32.62c.89-6.46,5.24-11.89,11.35-14.15l9.22-3.43.61.35c3.54,2.04,8.69,3.21,14.12,3.21s10.58-1.17,14.12-3.21l.61-.35,9.22,3.43c6.11,2.27,10.46,7.69,11.35,14.15v.14s1.36,32.48,1.36,32.48ZM14.47,92.48h67.06l-1.21-29.28c-.76-5.33-4.36-9.81-9.41-11.68l-7.91-2.95c-3.94,2.08-9.35,3.26-14.99,3.26s-11.05-1.18-14.99-3.26l-7.92,2.95c-5.05,1.87-8.65,6.35-9.41,11.68l-1.21,29.28Z"/>
  <path class="cls-1" d="M33.8,48.27l-1.33-2.69,3.68-1.81c.61-.3,1-.93,1-1.6v-2.74h3v2.74c0,1.83-1.03,3.48-2.68,4.29l-3.68,1.81Z"/>
  <path class="cls-1" d="M62.08,48.27l-3.68-1.81c-1.65-.81-2.67-2.45-2.67-4.29v-3.22h3v3.22c0,.68.38,1.3.99,1.6l3.68,1.81-1.33,2.69Z"/>
  <path class="cls-1" d="M47.74,43.77h-.27c-9.32,0-16.9-7.58-16.9-16.91v-9.96C30.57,7.58,38.15,0,47.47,0h.27C57.06,0,64.64,7.58,64.64,16.9v9.96c0,9.32-7.58,16.91-16.91,16.91ZM47.47,3c-7.67,0-13.9,6.24-13.9,13.9v9.96c0,7.67,6.24,13.91,13.9,13.91h.27c7.67,0,13.91-6.24,13.91-13.91v-9.96c0-7.67-6.24-13.9-13.91-13.9h-.27Z"/>
  <path class="cls-1" d="M38.78,21.33c-2.44,0-4.91-.44-7.26-1.35l1.09-2.79c7.08,2.76,15.44.43,19.45-5.41.32-.47.88-.71,1.44-.64.56.08,1.03.47,1.21,1.01,1.04,3.1,4.58,5.06,8.22,4.55l.41,2.97c-4.13.58-8.17-1.21-10.33-4.3-3.55,3.82-8.83,5.96-14.24,5.96Z"/>
  <rect class="cls-1" x="64.18" y="65.59" width="3" height="28.91"/>
  <rect class="cls-1" x="27.33" y="65.59" width="3" height="28.91"/>
</svg>