<?xml version="1.0" encoding="UTF-8"?>
<svg id="Layer_1" data-name="Layer 1" xmlns="http://www.w3.org/2000/svg" viewBox="0 0 96 96">
  <defs>
    <style>
      .cls-1 {
        fill: none;
        stroke: #b1b0b1;
        stroke-miterlimit: 10;
        stroke-width: 3px;
      }
    </style>
  </defs>
  <line class="cls-1" x1="1.88" y1="92.51" x2="94.12" y2="92.51"/>
  <line class="cls-1" x1="61.75" y1="57.57" x2="61.75" y2="92.99"/>
  <line class="cls-1" x1="61.75" y1="51.45" x2="61.75" y2="92.99"/>
  <line class="cls-1" x1="90.29" y1="22.54" x2="90.29" y2="92.39"/>
  <line class="cls-1" x1="76.14" y1="40.74" x2="76.14" y2="91.49"/>
  <path class="cls-1" d="M43.77,50.07C78.49,34.64,87.37,4.56,87.37,4.56"/>
  <polyline class="cls-1" points="74.7 8.61 88.14 3.01 93.74 16.44"/>
  <rect class="cls-1" x="15.07" y="15.07" width="26.28" height="35.71" rx="13.14" ry="13.14"/>
  <path class="cls-1" d="M15.07,31.23c6.64,2.89,14.27.37,17.95-5.64,1.09,3.63,4.68,5.83,8.33,5.26"/>
  <path class="cls-1" d="M22.61,49.58v5.58c0,.21,0,.42.03.63.14,1.3.74,2.47,1.62,3.36,1.03,1.02,2.43,1.65,3.99,1.65,2.9,0,5.28-2.18,5.6-4.99.03-.21.04-.43.04-.65v-5.61"/>
  <path class="cls-1" d="M53.7,71.55v13.27H2.52v-13.24c0-5.49,3.53-10.35,8.75-12.06l11.38-3.72c.14,1.3.74,2.47,1.62,3.36,1.03,1.02,2.43,1.65,3.99,1.65,2.9,0,5.28-2.18,5.6-4.99l11.15,3.69c5.19,1.72,8.7,6.57,8.7,12.05Z"/>
  <line class="cls-1" x1="13.79" y1="85.08" x2="13.79" y2="68.41"/>
  <line class="cls-1" x1="42.48" y1="85.08" x2="42.48" y2="68.59"/>
</svg>