<?xml version="1.0" encoding="UTF-8"?>
<svg id="Layer_1" data-name="Layer 1" xmlns="http://www.w3.org/2000/svg" viewBox="0 0 96 96">
  <defs>
    <style>
      .cls-1 {
        fill: none;
        stroke: #b1b0b1;
        stroke-miterlimit: 10;
        stroke-width: 3px;
      }
    </style>
  </defs>
  <circle class="cls-1" cx="47.78" cy="21.16" r="19.66"/>
  <polyline class="cls-1" points="47.78 40.82 47.78 53.28 58.51 62.37"/>
  <line class="cls-1" x1="37.2" y1="61.52" x2="47.78" y2="53.28"/>
  <path class="cls-1" d="M40.2,39.31v-8.8c0-3.16,2.08-5.82,4.94-6.7"/>
  <path class="cls-1" d="M50.42,23.81c2.86.88,4.94,3.54,4.94,6.7v8.8"/>
  <circle class="cls-1" cx="47.78" cy="17.72" r="6.62"/>
  <circle class="cls-1" cx="74.5" cy="74.84" r="19.66"/>
  <path class="cls-1" d="M66.93,92.98v-8.8c0-3.16,2.08-5.82,4.94-6.7"/>
  <path class="cls-1" d="M77.14,77.48c2.86.88,4.94,3.54,4.94,6.7v8.8"/>
  <circle class="cls-1" cx="74.51" cy="71.4" r="6.62"/>
  <circle class="cls-1" cx="21.5" cy="74.84" r="19.66"/>
  <path class="cls-1" d="M13.92,92.98v-8.8c0-3.16,2.08-5.82,4.94-6.7"/>
  <path class="cls-1" d="M24.13,77.48c2.86.88,4.94,3.54,4.94,6.7v8.8"/>
  <circle class="cls-1" cx="21.5" cy="71.4" r="6.62"/>
</svg>