<?xml version="1.0" encoding="UTF-8"?>
<svg id="Capa_1" data-name="Capa 1" xmlns="http://www.w3.org/2000/svg" viewBox="0 0 96 96">
  <defs>
    <style>
      .cls-1 {
        fill: #b1b0b1;
      }
    </style>
  </defs>
  <path class="cls-1" d="M19.92,2.8c2,.52,3.26,1.89,4.36,3.58,3.67,5.61,7.43,11.17,11.14,16.75,1.52,2.28,1.49,4.67-.07,6.63-.34.43-.78.8-1.21,1.15-2.01,1.59-4.04,3.15-6.05,4.72-1.46,1.14-1.63,2.09-.78,3.75,2.48,4.8,5.73,9.03,9.42,12.94,4.53,4.8,9.2,9.45,14.64,13.24,1.79,1.25,3.7,2.29,5.61,3.32,1.31.7,2.35.43,3.32-.81,1.62-2.06,3.21-4.14,4.83-6.2,2.1-2.67,4.97-3.15,7.78-1.28,5.88,3.91,11.75,7.82,17.61,11.75,2.85,1.91,3.48,4.78,1.73,7.74-1.26,2.12-2.63,4.19-3.8,6.36-2.09,3.88-5.37,5.81-9.64,6.44-5.49.81-10.79.04-15.98-1.7-7.96-2.68-14.95-7.11-21.46-12.31-10.41-8.3-19.67-17.72-27.44-28.54-4.15-5.78-7.58-11.96-9.61-18.84-.69-2.34-1.19-4.73-1.37-7.18-.01-.17-.1-.33-.15-.49,0-1.35,0-2.71,0-4.06.12-.83.24-1.67.36-2.5.46-3.37,1.6-6.47,4.54-8.4,3.37-2.21,6.71-4.5,10.47-6.05h1.77ZM73.81,90.21c1.94.01,3.38-.15,4.8-.36,2.94-.43,5.34-1.69,6.88-4.37,1.35-2.34,2.78-4.64,4.17-6.96.9-1.51.63-2.7-.86-3.69-5.82-3.89-11.64-7.77-17.47-11.65-1.64-1.09-2.71-.91-3.94.66-1.61,2.06-3.2,4.14-4.83,6.2-1.85,2.33-4.45,2.88-7.07,1.47-1.4-.75-2.79-1.52-4.14-2.36-4.84-2.99-8.99-6.83-13-10.81-5.32-5.28-10.28-10.84-13.75-17.58-1.5-2.92-1.02-5.45,1.58-7.48,2.07-1.61,4.14-3.2,6.19-4.83,1.3-1.03,1.5-2.18.59-3.55-3.95-5.96-7.91-11.9-11.88-17.84-.86-1.29-2.11-1.57-3.44-.78-2.45,1.45-4.89,2.93-7.34,4.4-1.96,1.18-3.24,2.87-3.79,5.09-1.12,4.5-.85,8.98.27,13.44,1.84,7.3,5.5,13.72,9.84,19.77,5.73,8,12.48,15.09,19.74,21.71,6.5,5.92,13.42,11.27,21.37,15.16,5.23,2.56,10.68,4.29,16.07,4.36Z"/>
  <path class="cls-1" d="M55.41,14.95c12.44.52,23.53,9.41,26.48,22.08.46,1.98.71,3.99.73,6.03.01,1.19-.52,1.91-1.45,1.93-.92.02-1.52-.68-1.55-1.88-.05-2.31-.37-4.57-1.04-6.78-2.1-6.93-6.36-12.11-12.73-15.52-3.37-1.8-6.98-2.76-10.81-2.87-.41-.01-.82-.06-1.23-.12-.77-.12-1.2-.59-1.25-1.37-.06-.77.4-1.33,1.17-1.53.59-.15,1.17.05,1.67.02Z"/>
  <path class="cls-1" d="M55.04,23.95c10.13.45,18.33,8.87,18.56,19.09.03,1.18-.51,1.91-1.45,1.95-.91.03-1.49-.66-1.56-1.86-.4-6.79-3.62-11.73-9.74-14.71-1.84-.9-3.81-1.36-5.87-1.44-.41-.02-.82-.05-1.23-.13-.81-.16-1.2-.69-1.19-1.5,0-.75.54-1.3,1.33-1.39.38-.04.76,0,1.14,0Z"/>
  <path class="cls-1" d="M54.55,32.97c5.35.16,9.95,4.84,10.02,10.19.01,1.05-.53,1.75-1.41,1.82-.84.06-1.51-.55-1.59-1.62-.19-2.31-1.04-4.26-2.87-5.73-1.16-.93-2.47-1.45-3.94-1.61-.35-.04-.71-.05-1.05-.14-.82-.21-1.23-.82-1.14-1.63.09-.74.63-1.22,1.45-1.27.18-.01.35,0,.53,0Z"/>
</svg>