<?xml version="1.0" encoding="UTF-8"?>
<svg id="Capa_1" data-name="Capa 1" xmlns="http://www.w3.org/2000/svg" viewBox="0 0 96 96">
  <defs>
    <style>
      .cls-1 {
        fill: #b1b0b1;
      }
    </style>
  </defs>
  <path class="cls-1" d="M50.52,5.03c1.62.29,3.27.35,4.89.65,9.9,1.8,18.19,6.47,24.84,14,6.07,6.87,9.61,14.91,10.48,24.02,1.08,11.24-1.79,21.46-8.69,30.42-6.39,8.31-14.74,13.69-25.02,15.83-12.84,2.68-24.61.05-35.06-7.87-8.4-6.37-13.68-14.82-15.96-25.13-.4-1.83-.69-3.68-.81-5.55-.02-.3-.1-.59-.15-.89v-5.03c.22-.59.14-1.21.21-1.81,1.03-9.24,4.56-17.4,10.79-24.31,6.62-7.34,14.82-11.9,24.56-13.67,1.62-.29,3.27-.36,4.89-.65h5.03ZM88.1,47.96c-.03-22.09-18.04-40.08-40.11-40.07-22.08,0-40.08,18.01-40.09,40.09-.01,22.1,18.07,40.16,40.15,40.11,22.1-.05,40.08-18.07,40.05-40.13Z"/>
  <path class="cls-1" d="M36.56,47.9c0-6.85,0-13.7,0-20.55,0-.31-.01-.62.02-.92.11-1.08,1.1-1.63,2.08-1.16.22.11.43.26.64.4,10.16,6.93,20.32,13.85,30.47,20.78,1.56,1.06,1.56,2.01,0,3.08-10.13,6.91-20.27,13.82-30.4,20.73-.23.16-.46.32-.71.44-.99.47-1.97-.08-2.07-1.17-.03-.28-.02-.56-.02-.84,0-6.93,0-13.87,0-20.8ZM39.48,66.59c.38-.03.59-.28.83-.44,8.61-5.86,17.22-11.73,25.82-17.6q.8-.55-.01-1.1c-8.61-5.87-17.21-11.74-25.82-17.6-.24-.16-.45-.42-.82-.43v37.19Z"/>
</svg>