<?xml version="1.0" encoding="UTF-8"?>
<svg id="Layer_1" data-name="Layer 1" xmlns="http://www.w3.org/2000/svg" viewBox="0 0 96 96">
  <defs>
    <style>
      .cls-1 {
        stroke-linejoin: round;
      }

      .cls-1, .cls-2 {
        fill: none;
        stroke: #b1b0b1;
        stroke-width: 3px;
      }

      .cls-2 {
        stroke-miterlimit: 10;
      }
    </style>
  </defs>
  <path class="cls-2" d="M30.76,64.49c0-.53-.03-1.05-.09-1.57l1.85-.83-1.52-4.66-1.98.42c-.52-.92-1.14-1.77-1.85-2.54l1.01-1.76-3.97-2.88-1.36,1.5c-.94-.43-1.95-.76-2.99-.97l-.21-2.02h-4.9l-.21,2.02c-1.05.21-2.05.54-2.99.97l-1.36-1.51-3.97,2.88,1.01,1.76c-.71.77-1.33,1.62-1.85,2.54l-1.99-.42-1.52,4.66,1.86.83c-.06.52-.09,1.04-.09,1.57s.03,1.05.09,1.57l-1.86.83,1.52,4.66,1.99-.42c.52.92,1.14,1.77,1.84,2.54l-1.01,1.76,3.97,2.88,1.36-1.51c.94.43,1.94.77,2.99.97l.22,2.02h4.9l.21-2.01c1.05-.21,2.05-.54,2.99-.97l1.36,1.5,3.97-2.88-1.01-1.76c.71-.77,1.33-1.62,1.85-2.54l1.98.42,1.52-4.66-1.85-.83c.06-.52.09-1.04.09-1.58Z"/>
  <circle class="cls-2" cx="17.19" cy="64.49" r="7.48"/>
  <circle class="cls-2" cx="72.51" cy="64.96" r="16.03"/>
  <polyline class="cls-2" points="62.94 62.72 56.53 69.13 50.12 62.72"/>
  <polyline class="cls-2" points="82.05 67.77 88.46 61.36 94.87 67.77"/>
  <g>
    <polygon class="cls-1" points="43.19 40.02 26.67 30.56 26.67 12.39 43.19 21.85 43.19 40.02"/>
    <polygon class="cls-1" points="43.19 40.02 59.85 30.56 59.85 12.39 43.19 21.85 43.19 40.02"/>
    <polyline class="cls-1" points="26.67 12.39 43.31 2.17 59.85 12.39"/>
    <line class="cls-1" x1="35.41" y1="7.12" x2="51.54" y2="17.1"/>
  </g>
  <path class="cls-2" d="M15.92,26.48c-.95,1.19-1.82,2.45-2.62,3.76-2.92,4.77-4.79,10.25-5.31,16.11"/>
  <path class="cls-2" d="M31.26,15.01h-.01"/>
  <polyline class="cls-2" points="5.54 28.26 15.96 26.12 18.11 36.54"/>
  <path class="cls-2" d="M80.48,43.83c-.17-1.51-.44-3.02-.8-4.51-1.31-5.43-3.86-10.63-7.64-15.15"/>
  <polyline class="cls-2" points="86.56 35.24 80.71 44.12 71.82 38.27"/>
  <path class="cls-2" d="M34.97,84.41c1.42.56,2.87,1.04,4.35,1.42,5.41,1.41,11.19,1.62,16.96.42"/>
  <polyline class="cls-2" points="39.68 93.83 34.62 84.47 43.97 79.41"/>
</svg>