<?xml version="1.0" encoding="UTF-8"?>
<svg id="Capa_1" data-name="Capa 1" xmlns="http://www.w3.org/2000/svg" viewBox="0 0 96 96">
  <defs>
    <style>
      .cls-1 {
        fill: #b1b0b1;
      }
    </style>
  </defs>
  <path class="cls-1" d="M88.71,50.39c-.21,1.54-.35,3.1-.63,4.62-2.28,12.2-8.77,21.54-19.34,27.98-6.87,4.19-14.43,6.07-22.46,5.67-11.52-.56-21.17-5.2-28.84-13.82-5.78-6.49-9.16-14.12-9.94-22.76-1.17-12.87,2.86-23.98,12.01-33.12,6.1-6.09,13.51-9.75,22.02-11.17,1.35-.23,2.72-.35,4.09-.52,1.59,0,3.18,0,4.77,0,.2.04.41.12.61.13,6.37.45,12.33,2.27,17.77,5.6,10.55,6.46,17.04,15.79,19.32,27.98.29,1.53.43,3.08.63,4.62v4.77ZM85.56,48.04c.06-20.7-16.76-37.56-37.53-37.61-20.7-.06-37.56,16.76-37.61,37.53-.06,20.7,16.76,37.56,37.53,37.61,20.7.06,37.56-16.76,37.61-37.53Z"/>
  <path class="cls-1" d="M49.56,59.14c0,2.94,0,5.89,0,8.83,0,.76-.18,1.43-.92,1.79-.84.41-1.82-.04-2.11-.93-.12-.36-.12-.73-.12-1.1,0-5.78-.01-11.56.02-17.34,0-.67-.17-.83-.83-.83-5.51.03-11.03.02-16.54.02-1.43,0-2.23-.59-2.2-1.61.03-1,.79-1.54,2.18-1.54,5.46,0,10.92-.02,16.38.02.76,0,1.02-.13,1.01-.97-.05-5.2-.02-10.39-.02-15.59,0-1.46.55-2.23,1.58-2.23,1.03,0,1.58.77,1.58,2.23,0,5.2.02,10.39-.02,15.59,0,.84.25.98,1.01.97,5.38-.03,10.76-.02,16.14-.02.19,0,.37,0,.56,0,1.12.03,1.84.63,1.87,1.54.02.94-.72,1.6-1.88,1.6-5.59,0-11.19.02-16.78-.01-.72,0-.93.17-.91.91.04,2.89.02,5.78.02,8.67Z"/>
</svg>