<?xml version="1.0" encoding="UTF-8"?>
<svg id="Layer_1" data-name="Layer 1" xmlns="http://www.w3.org/2000/svg" viewBox="0 0 96 96">
  <path d="M48,10c-4.16,0-7.54,3.38-7.54,7.54,0,4.15,3.39,7.54,7.54,7.54,4.16,0,7.54-3.38,7.54-7.54s-3.38-7.54-7.54-7.54ZM48,22.07c-2.5,0-4.53-2.03-4.53-4.53,0-2.5,2.03-4.53,4.53-4.53h0c2.5,0,4.53,2.03,4.53,4.53s-2.03,4.53-4.53,4.53Z" fill="#b1b0b1"/>
  <path d="M11.79,95.5h72.43c3.05,0,5.53-2.48,5.53-5.53s-2.48-5.53-5.53-5.53h-1.51v-6.54c0-.83-.68-1.51-1.51-1.51h-2.52v-36.22h2.52c.83,0,1.51-.68,1.51-1.51v-6.54h1.51c3.05,0,5.53-2.49,5.53-5.53v-.64c0-2.02-1.1-3.87-2.86-4.85L50.66,1.19c-1.67-.92-3.66-.93-5.33,0L9.12,21.11c-1.77.97-2.86,2.83-2.86,4.85v.64c0,3.05,2.49,5.53,5.53,5.53h1.51v6.54c0,.83.68,1.51,1.51,1.51h2.52v36.22h-2.52c-.83,0-1.51.68-1.51,1.51v6.54h-1.51c-3.05,0-5.53,2.48-5.53,5.53s2.48,5.53,5.53,5.53ZM79.69,79.4v5.03h-13.08v-5.03h13.08ZM56.05,76.39h-2.52v-36.22h2.52c.83,0,1.51-.68,1.51-1.51v-6.54h6.04v6.54c0,.83.68,1.51,1.51,1.51h2.52v36.22h-2.52c-.83,0-1.51.68-1.51,1.51v6.54h-6.04v-6.54c0-.83-.68-1.51-1.51-1.51ZM30.9,76.39h-2.52v-36.22h2.52c.83,0,1.51-.68,1.51-1.51v-6.54h6.04v6.54c0,.83.68,1.51,1.51,1.51h2.52v36.22h-2.52c-.83,0-1.51.68-1.51,1.51v6.54h-6.04v-6.54c0-.83-.68-1.51-1.51-1.51ZM41.46,37.16v-5.03h13.08v5.03h-13.08ZM50.52,40.17v36.22h-5.03v-36.22h5.03ZM41.46,79.4h13.08v5.03h-13.08v-5.03ZM70.63,76.39v-36.22h5.03v36.22h-5.03ZM79.69,37.16h-13.08v-5.03h13.08v5.03ZM11.79,29.11c-1.39,0-2.52-1.13-2.52-2.52v-.64c0-.92.5-1.76,1.3-2.21L46.79,3.83c.76-.42,1.66-.42,2.43,0l36.21,19.92c.8.44,1.3,1.29,1.3,2.21v.64c0,1.39-1.13,2.52-2.52,2.52H11.79ZM16.31,37.16v-5.03h13.08v5.03h-13.08ZM25.37,40.17v36.22h-5.03v-36.22h5.03ZM16.31,79.4h13.08v5.03h-13.08v-5.03ZM11.79,87.45h72.43c1.39,0,2.52,1.13,2.52,2.52,0,1.39-1.13,2.51-2.52,2.52H11.79c-1.39,0-2.52-1.13-2.52-2.52s1.13-2.52,2.52-2.52Z" fill="#b1b0b1"/>
</svg>