<?xml version="1.0" encoding="UTF-8"?>
<svg id="Capa_1" data-name="Capa 1" xmlns="http://www.w3.org/2000/svg" viewBox="0 0 96 96">
  <defs>
    <style>
      .cls-1 {
        fill: #b1b0b1;
      }
    </style>
  </defs>
  <path class="cls-1" d="M16.15,1.01h64.7s.01.01.02.02c0,8.52.02,17.05-.02,25.57,0,.87.26,1.04,1.07,1.04,4.1-.04,8.2,0,12.29-.03.58,0,.78.13.78.75-.02,17.25-.02,34.49,0,51.74,0,.43-.35.77-.77.76-2.57-.03-5.13,0-7.7-.03-.69,0-.99.13-.93.89.07,1-.02,2.02.03,3.03.03.63-.14.87-.81.84-1.04-.05-2.08.02-3.12-.03-.63-.03-.84.16-.83.81.04,2.57,0,5.14.03,7.71,0,.64-.09.89-.83.89-21.38-.02-42.75-.02-64.13,0-.65,0-.82-.19-.81-.82.03-2.6,0-5.2.03-7.8,0-.58-.13-.82-.76-.79-1.1.05-2.2,0-3.3.02-.51.01-.71-.14-.69-.67.03-1.07-.03-2.14.02-3.21.03-.49-.37-.88-.86-.87-2.51.03-5.03,0-7.54,0-.55,0-1-.45-1-1V28.62c0-.55.45-1,1-1,3.88,0,7.76,0,11.64,0q1.47,0,1.47-1.42c0-8.06.01-16.13.02-24.19,0-.55.45-1,1-1ZM48.09,30.75c-14.31,0-28.62,0-42.92-.02-.85,0-1.05.23-1.05,1.06.03,7.67.03,15.35,0,23.02,0,.76.12,1.04.98,1.04,28.59-.03,57.17-.03,85.76,0,.82,0,1-.23,1-1.02-.03-7.7-.04-15.41,0-23.11,0-.86-.27-.98-1.03-.98-14.25.02-28.49.02-42.74.02ZM47.98,58.97c-9.57,0-19.14,0-28.71-.01-.75,0-1.04.11-1.04.97.04,10.33.03,20.67,0,31,0,.79.24.93.98.93,19.2-.02,38.4-.02,57.6,0,.79,0,.94-.23.94-.97-.02-10.33-.03-20.67,0-31,0-.79-.24-.94-.98-.94-9.6.02-19.2.02-28.8.02ZM47.9,27.63c9.63,0,19.27,0,28.9.02.77,0,.96-.2.95-.96-.03-7.22-.03-14.43,0-21.65,0-.71-.17-.92-.9-.92-19.24.02-38.47.02-57.71,0-.73,0-.91.2-.9.91.03,7.22.03,14.43,0,21.65,0,.76.18.96.95.96,9.57-.03,19.14-.02,28.72-.02ZM15.12,70.72c0-3.64,0-7.28,0-10.92,0-.5.02-.86-.69-.86-3.21.03-6.42.02-9.63,0-.52,0-.68.15-.68.67.02,5.81.02,11.62,0,17.43,0,.51.13.69.66.68,1.62-.03,3.24-.04,4.86,0,.63.02.76-.22.75-.79-.03-1.74-.04-3.49,0-5.23.02-1.27.83-1.96,1.92-1.73.78.16,1.19.75,1.2,1.81.01,3.27.02,6.54,0,9.82,0,.61.12.87.8.86.65,0,.82-.2.82-.84-.03-3.64-.01-7.28-.01-10.92ZM80.86,70.65c0,3.67,0,7.34-.01,11.01,0,.56.11.81.75.82.69.01.88-.19.87-.88-.03-3.27-.03-6.54,0-9.82,0-1.29.75-1.99,1.85-1.79.81.15,1.26.77,1.27,1.85.02,1.74.02,3.49,0,5.23,0,.52.16.68.68.67,1.62-.03,3.24-.04,4.86,0,.65.02.74-.24.74-.8-.02-5.72-.02-11.44,0-17.15,0-.73-.24-.85-.89-.84-3.09.03-6.18.04-9.26,0-.7,0-.87.2-.86.88.03,3.61.02,7.22.02,10.82Z"/>
  <path class="cls-1" d="M87.11,43.28c.01,4.29-3.5,7.82-7.79,7.83-4.27.01-7.82-3.52-7.84-7.8-.02-4.27,3.52-7.81,7.81-7.82,4.29-.01,7.81,3.49,7.82,7.79ZM79.33,38.62c-2.57,0-4.68,2.07-4.71,4.63-.03,2.53,2.08,4.69,4.63,4.73,2.59.04,4.74-2.09,4.74-4.7,0-2.58-2.08-4.66-4.66-4.67Z"/>
  <path class="cls-1" d="M34.69,35.49c.79,0,1.59-.03,2.37,0,.86.04,1.45.63,1.52,1.42.06.76-.47,1.53-1.31,1.61-1.73.17-3.47.17-5.19,0-.83-.08-1.37-.86-1.3-1.62.07-.79.66-1.37,1.53-1.41.79-.04,1.58,0,2.37,0Z"/>
  <path class="cls-1" d="M12.81,41.75c.76,0,1.53-.03,2.29,0,.92.05,1.52.65,1.54,1.5.02.84-.54,1.54-1.45,1.58-1.62.06-3.24.06-4.86,0-.91-.04-1.47-.74-1.45-1.58.02-.85.62-1.45,1.54-1.49.79-.04,1.59,0,2.38,0Z"/>
  <path class="cls-1" d="M12.75,51.12c-.73,0-1.47.02-2.2,0-1.03-.04-1.67-.65-1.67-1.57,0-.87.63-1.52,1.6-1.54,1.53-.04,3.06-.04,4.59,0,.97.03,1.58.68,1.58,1.56,0,.88-.63,1.48-1.6,1.54-.06,0-.12,0-.18,0-.7,0-1.41,0-2.11,0Z"/>
  <path class="cls-1" d="M23.81,41.74c.73,0,1.47-.03,2.2,0,.95.04,1.6.69,1.61,1.54,0,.81-.61,1.52-1.51,1.55-1.59.06-3.18.06-4.77,0-.96-.04-1.55-.76-1.5-1.63.05-.84.65-1.42,1.58-1.46.79-.03,1.59,0,2.38,0Z"/>
  <path class="cls-1" d="M34.67,51.11c-.76,0-1.52.03-2.28,0-.95-.04-1.61-.7-1.62-1.54,0-.83.65-1.54,1.59-1.56,1.55-.04,3.11-.04,4.66,0,.93.03,1.59.75,1.57,1.58-.02.84-.68,1.48-1.63,1.52-.76.03-1.52,0-2.28,0Z"/>
  <path class="cls-1" d="M12.76,38.61c-.7,0-1.41.02-2.11,0-1.11-.04-1.77-.64-1.77-1.57,0-.95.64-1.53,1.77-1.55,1.41-.02,2.81-.02,4.22,0,1.13.02,1.77.6,1.77,1.55,0,.93-.66,1.53-1.77,1.57-.7.03-1.41,0-2.11,0Z"/>
  <path class="cls-1" d="M23.73,38.61c-.73,0-1.46.03-2.19,0-1.08-.05-1.73-.71-1.69-1.63.04-.9.67-1.47,1.73-1.48,1.43-.02,2.86-.02,4.29,0,1.09.02,1.76.65,1.75,1.57-.01.86-.68,1.5-1.7,1.55-.73.04-1.46,0-2.19,0Z"/>
  <path class="cls-1" d="M23.76,51.11c-.73,0-1.47.02-2.2,0-1.04-.03-1.7-.62-1.72-1.52-.02-.9.64-1.56,1.65-1.59,1.5-.03,3-.03,4.5,0,.96.02,1.62.67,1.64,1.52.02.88-.66,1.55-1.66,1.59-.73.03-1.47,0-2.2,0Z"/>
  <path class="cls-1" d="M34.69,44.86c-.73,0-1.46.02-2.19,0-1.02-.04-1.7-.67-1.72-1.54-.02-.9.7-1.56,1.76-1.58,1.43-.02,2.86-.02,4.29,0,1.06.01,1.78.67,1.77,1.57-.01.87-.7,1.5-1.71,1.54-.73.03-1.46,0-2.19,0Z"/>
  <path class="cls-1" d="M48.04,68.35c5.99,0,11.99,0,17.98,0,.34,0,.68-.02,1.01.04.76.13,1.36.82,1.31,1.54-.06.78-.48,1.32-1.26,1.49-.32.07-.67.06-1,.06-12.05,0-24.09,0-36.14,0-1.49,0-2.26-.52-2.28-1.54-.02-1.05.76-1.58,2.32-1.59,6.02,0,12.05,0,18.07,0Z"/>
  <path class="cls-1" d="M48.04,76.19c5.99,0,11.99,0,17.98,0,1.57,0,2.34.52,2.32,1.58-.02,1.05-.79,1.56-2.36,1.56-11.99,0-23.97,0-35.96,0-.42,0-.86-.02-1.27-.13-.75-.2-1.11-.78-1.08-1.51.03-.73.44-1.27,1.2-1.42.39-.07.79-.07,1.19-.07,5.99,0,11.99,0,17.98,0Z"/>
  <path class="cls-1" d="M47.91,22.93c-5.96,0-11.93,0-17.89,0-1.6,0-2.35-.48-2.37-1.53-.02-1.07.77-1.6,2.4-1.61,11.96,0,23.91,0,35.87,0,.45,0,.93.01,1.36.13.69.2,1.06.76,1.04,1.45-.02.73-.4,1.29-1.16,1.46-.41.09-.85.09-1.28.09-5.99,0-11.99,0-17.98,0Z"/>
  <path class="cls-1" d="M43.31,11.99c4.43,0,8.86,0,13.29,0,.37,0,.74-.02,1.1.05.75.15,1.17.67,1.22,1.41.05.7-.28,1.24-.95,1.51-.4.16-.83.16-1.26.16-8.95,0-17.9,0-26.85,0-.27,0-.55,0-.82-.05-.84-.16-1.41-.81-1.38-1.57.03-.82.65-1.47,1.55-1.49,1.68-.04,3.36-.02,5.04-.02,3.02,0,6.05,0,9.07,0Z"/>
</svg>