<?xml version="1.0" encoding="UTF-8"?>
<svg id="Layer_1" data-name="Layer 1" xmlns="http://www.w3.org/2000/svg" viewBox="0 0 96 96">
  <defs>
    <style>
      .cls-1 {
        fill: #b1b0b1;
      }
    </style>
  </defs>
  <path class="cls-1" d="M91.07,63.37H5.22V6.14h85.85v57.24ZM8.22,60.37h79.85V9.14H8.22v51.24Z"/>
  <path class="cls-1" d="M91.71,70.77H4.61c-2.22,0-4.03-1.82-4.03-4.06v-2.27c0-2.24,1.81-4.06,4.03-4.06h2.11v3h-2.11c-.57,0-1.03.48-1.03,1.06v2.27c0,.59.46,1.06,1.03,1.06h87.1c.39,0,.72-.34.72-.75v-2.9c0-.41-.32-.75-.72-.75h-2.13v-3h2.13c2.05,0,3.72,1.68,3.72,3.75v2.9c0,2.07-1.67,3.75-3.72,3.75Z"/>
  <path class="cls-1" d="M57.29,9.14h-18.35v-4.09C38.94,2.27,41.21,0,43.99,0h8.25C55.03,0,57.29,2.27,57.29,5.05v4.09ZM41.94,6.14h12.35v-1.09c0-1.13-.92-2.05-2.05-2.05h-8.25c-1.13,0-2.05.92-2.05,2.05v1.09Z"/>
  <path class="cls-1" d="M33.58,96h-12.83l5.54-28.23h12.83l-5.54,28.23ZM24.39,93h6.72l4.36-22.23h-6.72l-4.36,22.23Z"/>
  <path class="cls-1" d="M76.38,96h-12.83l-5.54-28.23h12.83l5.54,28.23ZM66.01,93h6.72l-4.36-22.23h-6.72l4.36,22.23Z"/>
  <rect class="cls-1" x="35.27" y="78.09" width="26.71" height="3"/>
  <rect class="cls-1" x="34.05" y="84.32" width="29.03" height="3"/>
  <path class="cls-1" d="M30.15,37.2c-6.03,0-10.93-4.97-10.93-11.07s4.9-11.07,10.93-11.07,10.93,4.97,10.93,11.07-4.9,11.07-10.93,11.07ZM30.15,18.06c-4.37,0-7.93,3.62-7.93,8.07s3.56,8.07,7.93,8.07,7.93-3.62,7.93-8.07-3.56-8.07-7.93-8.07Z"/>
  <path class="cls-1" d="M77.46,49.7c-3.61,0-6.54-2.97-6.54-6.62s2.94-6.62,6.54-6.62,6.54,2.97,6.54,6.62-2.94,6.62-6.54,6.62ZM77.46,39.46c-1.95,0-3.54,1.62-3.54,3.62s1.59,3.62,3.54,3.62,3.54-1.62,3.54-3.62-1.59-3.62-3.54-3.62Z"/>
  <rect class="cls-1" x="24.04" y="46.7" width="9.43" height="3" transform="translate(-25.76 34.85) rotate(-45.42)"/>
  <rect class="cls-1" x="27.26" y="43.49" width="3" height="9.43" transform="translate(-25.56 34.05) rotate(-44.58)"/>
  <rect class="cls-1" x="46.57" y="25.88" width="9.43" height="3" transform="translate(-4.21 44.69) rotate(-45.42)"/>
  <rect class="cls-1" x="49.78" y="22.66" width="3" height="9.43" transform="translate(-4.46 43.87) rotate(-44.58)"/>
  <rect class="cls-1" x="52.87" y="46.7" width="9.42" height="3" transform="translate(-17.17 55.39) rotate(-45.42)"/>
  <rect class="cls-1" x="56.08" y="43.49" width="3" height="9.42" transform="translate(-17.26 54.28) rotate(-44.57)"/>
  <polygon class="cls-1" points="28.82 31.74 24.4 27.67 26.43 25.46 28.54 27.41 33.29 21.73 35.59 23.65 28.82 31.74"/>
  <path class="cls-1" d="M47.14,40.28c-2.78,0-4.7-.23-4.93-.26l.37-2.98c.15.02,15.05,1.78,22.68-5.04,3.01-2.7,4.51-6.46,4.46-11.18l3-.04c.07,5.63-1.77,10.16-5.47,13.46-5.75,5.13-14.61,6.03-20.12,6.03Z"/>
</svg>