<?xml version="1.0" encoding="UTF-8"?>
<svg id="Layer_1" data-name="Layer 1" xmlns="http://www.w3.org/2000/svg" viewBox="0 0 96 96">
  <defs>
    <style>
      .cls-1 {
        stroke-linejoin: round;
      }

      .cls-1, .cls-2 {
        fill: none;
        stroke: #b1b0b1;
        stroke-width: 3px;
      }

      .cls-2 {
        stroke-miterlimit: 10;
      }
    </style>
  </defs>
  <line class="cls-2" x1="80.98" y1="40.45" x2="94.5" y2="53.75"/>
  <polygon class="cls-1" points="94.5 53.75 94.5 93.99 52.16 93.99 52.16 40.45 80.98 40.45 80.98 53.75 94.5 53.75"/>
  <line class="cls-2" x1="71.17" y1="61.39" x2="86.6" y2="61.39"/>
  <line class="cls-2" x1="71.17" y1="73.06" x2="86.6" y2="73.06"/>
  <line class="cls-2" x1="71.17" y1="85.2" x2="86.6" y2="85.2"/>
  <polyline class="cls-2" points="58.59 71.66 61.84 74.85 66.35 69.44"/>
  <polyline class="cls-2" points="58.59 60.18 61.84 63.37 66.35 57.97"/>
  <polyline class="cls-2" points="58.59 83.8 61.84 86.99 66.35 81.58"/>
  <line class="cls-2" x1="57.65" y1="46.55" x2="75.58" y2="46.55"/>
  <line class="cls-2" x1="57.65" y1="51.88" x2="75.58" y2="51.88"/>
  <rect class="cls-2" x="15.76" y="2.01" width="29.84" height="40.55" rx="14.17" ry="14.17"/>
  <path class="cls-1" d="M15.76,18.42c6.21-.43,15.09-1.89,20.32-5.42,2.23,1.66,6.16,4.22,9.51,4.99"/>
  <path class="cls-1" d="M24.32,41.2v6.34c0,.24,0,.48.04.72.16,1.48.84,2.81,1.84,3.81,1.17,1.16,2.76,1.87,4.53,1.87,3.29,0,5.99-2.48,6.36-5.67.04-.24.05-.49.05-.74v-6.38"/>
  <path class="cls-1" d="M46.23,81.21H1.5v-15.04c0-6.23,4.01-11.75,9.93-13.7l12.92-4.22c.16,1.48.84,2.81,1.84,3.82,1.16,1.15,2.76,1.87,4.52,1.87,3.29,0,6-2.47,6.36-5.67l7.29,2.41"/>
  <line class="cls-1" x1="14.3" y1="81.5" x2="14.3" y2="62.57"/>
</svg>