<?xml version="1.0" encoding="UTF-8"?>
<svg id="Layer_1" data-name="Layer 1" xmlns="http://www.w3.org/2000/svg" viewBox="0 0 96 96">
  <defs>
    <style>
      .cls-1 {
        fill: #b1b0b1;
      }
    </style>
  </defs>
  <path class="cls-1" d="M67.44,96H.28v-56.14h67.15v56.14ZM3.28,93h61.15v-50.14H3.28v50.14Z"/>
  <path class="cls-1" d="M55.11,42.86H12.23v-15.72h42.88v15.72ZM15.23,39.86h36.88v-9.72H15.23v9.72Z"/>
  <path class="cls-1" d="M95.71,96h-31.28V0h31.28v96ZM67.44,93h25.28V3h-25.28v90Z"/>
  <rect class="cls-1" x="32.17" y="7.68" width="3" height="20.96"/>
  <path class="cls-1" d="M51.53,20.75h-19.17v-11.42h19.17v11.42ZM35.36,17.75h13.17v-5.42h-13.17v5.42Z"/>
  <rect class="cls-1" x="86.35" y="16.79" width="3" height="8.37"/>
  <rect class="cls-1" x="86.35" y="28.06" width="3" height="8.37"/>
  <rect class="cls-1" x="86.35" y="40.21" width="3" height="8.37"/>
  <rect class="cls-1" x="79.45" y="16.79" width="3" height="8.37"/>
  <rect class="cls-1" x="79.45" y="28.06" width="3" height="8.37"/>
  <rect class="cls-1" x="79.45" y="40.21" width="3" height="8.37"/>
  <rect class="cls-1" x="72.39" y="16.79" width="3" height="8.37"/>
  <rect class="cls-1" x="72.39" y="28.06" width="3" height="8.37"/>
  <rect class="cls-1" x="72.39" y="40.21" width="3" height="8.37"/>
  <rect class="cls-1" x="21.53" y="48.59" width="3" height="8.37"/>
  <rect class="cls-1" x="21.53" y="59.85" width="3" height="8.37"/>
  <rect class="cls-1" x="21.53" y="72.01" width="3" height="8.37"/>
  <rect class="cls-1" x="14.63" y="48.59" width="3" height="8.37"/>
  <rect class="cls-1" x="14.63" y="59.85" width="3" height="8.37"/>
  <rect class="cls-1" x="14.63" y="72.01" width="3" height="8.37"/>
  <rect class="cls-1" x="7.56" y="48.59" width="3" height="8.37"/>
  <rect class="cls-1" x="7.56" y="59.85" width="3" height="8.37"/>
  <rect class="cls-1" x="7.56" y="72.01" width="3" height="8.37"/>
  <rect class="cls-1" x="56.64" y="48.59" width="3" height="8.37"/>
  <rect class="cls-1" x="56.64" y="59.85" width="3" height="8.37"/>
  <rect class="cls-1" x="56.64" y="72.01" width="3" height="8.37"/>
  <rect class="cls-1" x="49.74" y="48.59" width="3" height="8.37"/>
  <rect class="cls-1" x="49.74" y="59.85" width="3" height="8.37"/>
  <rect class="cls-1" x="49.74" y="72.01" width="3" height="8.37"/>
  <rect class="cls-1" x="42.68" y="48.59" width="3" height="8.37"/>
  <rect class="cls-1" x="42.68" y="59.85" width="3" height="8.37"/>
  <rect class="cls-1" x="42.68" y="72.01" width="3" height="8.37"/>
</svg>