<?xml version="1.0" encoding="UTF-8"?>
<svg id="Layer_1" xmlns="http://www.w3.org/2000/svg" version="1.1" viewBox="0 0 96 96">
  <!-- Generator: Adobe Illustrator 29.3.1, SVG Export Plug-In . SVG Version: 2.1.0 Build 151)  -->
  <defs>
    <style>
      .st0 {
        fill: #b1b0b1;
      }
    </style>
  </defs>
  <path class="st0" d="M93.6,16.8h-37.4c-.9,0-1.6.7-1.6,1.6v14c0,.9.7,1.6,1.6,1.6.2,0,.3,0,.5,0l2-.7c2.1-.7,4.4.5,5.1,2.6s-.5,4.4-2.6,5.1c-.8.3-1.7.3-2.5,0l-2-.7c-.8-.3-1.7.2-2,1,0,.2,0,.3,0,.5v12.5h-12.5c-.9,0-1.6.7-1.6,1.6,0,.2,0,.3,0,.5l.7,2c.7,2.1-.5,4.4-2.6,5.1-2.1.7-4.4-.5-5.1-2.6-.3-.8-.3-1.7,0-2.5l.7-2c.3-.8-.2-1.7-1-2-.2,0-.3,0-.5,0h-14c-.9,0-1.6.7-1.6,1.6v37.4c0,.9.7,1.6,1.6,1.6h74.7c.9,0,1.6-.7,1.6-1.6V18.3c0-.9-.7-1.6-1.6-1.6ZM54.8,78.6c0,.2,0,.3,0,.5v12.5H20.5v-34.2h10.3c-1.2,3.8.9,7.8,4.7,9,3.8,1.2,7.8-.9,9-4.7.4-1.4.4-2.9,0-4.3h10.3v12.5c0,.9.7,1.6,1.6,1.6.2,0,.3,0,.5,0l2-.7c2.1-.7,4.4.5,5.1,2.6s-.5,4.4-2.6,5.1c-.8.3-1.7.3-2.5,0l-2-.7c-.8-.3-1.7.2-2,1ZM92.1,91.5h-34.2v-10.3c3.8,1.2,7.8-.9,9-4.7,1.2-3.8-.9-7.8-4.7-9-1.4-.4-2.9-.4-4.3,0v-10.3h12.5c.9,0,1.6-.7,1.6-1.6,0-.2,0-.3,0-.5l-.7-2c-.7-2.1.5-4.4,2.6-5.1s4.4.5,5.1,2.6c.3.8.3,1.7,0,2.5l-.7,2c-.3.8.2,1.7,1,2,.2,0,.3,0,.5,0h12.5v34.2h0ZM92.1,54.2h-10.3c1.2-3.8-.9-7.8-4.7-9-3.8-1.2-7.8.9-9,4.7-.4,1.4-.4,2.9,0,4.3h-10.3v-10.3c2.2.7,4.5.3,6.4-1,3.2-2.3,4-6.8,1.7-10-1.8-2.5-5.1-3.6-8-2.7v-10.3h34.2v34.2Z"/>
  <path class="st0" d="M46.6,14.6c-1.4-.4-2.9-.4-4.3,0V2.8c0-.9-.7-1.6-1.6-1.6H3.4c-.9,0-1.6.7-1.6,1.6v37.4c0,.9.7,1.6,1.6,1.6h11.9c-1.2,3.8.9,7.8,4.7,9s7.8-.9,9-4.7c.4-1.4.4-2.9,0-4.3h11.9c.9,0,1.6-.7,1.6-1.6v-11.9c3.8,1.2,7.8-.9,9-4.7,1.2-3.8-.9-7.8-4.7-9ZM45.7,25.3c-.8.3-1.7.3-2.5,0l-2-.7c-.8-.3-1.7.2-2,1,0,.2,0,.3,0,.5v12.5h-12.5c-.9,0-1.6.7-1.6,1.6,0,.2,0,.3,0,.5l.7,2c.7,2.1-.5,4.4-2.6,5.1-2.1.7-4.4-.5-5.1-2.6-.3-.8-.3-1.7,0-2.5l.7-2c.3-.8-.2-1.7-1-2-.2,0-.3,0-.5,0H4.9V4.3h34.2v12.5c0,.9.7,1.6,1.6,1.6.2,0,.3,0,.5,0l2-.7c2.1-.7,4.4.5,5.1,2.6.7,2.1-.5,4.4-2.6,5.1Z"/>
</svg>