<?xml version="1.0" encoding="UTF-8"?>
<svg id="Layer_1" data-name="Layer 1" xmlns="http://www.w3.org/2000/svg" viewBox="0 0 96 96">
  <defs>
    <style>
      .cls-1, .cls-2 {
        fill: none;
        stroke: #b1b0b1;
        stroke-miterlimit: 10;
        stroke-width: 3px;
      }

      .cls-2 {
        fill-rule: evenodd;
      }
    </style>
  </defs>
  <polyline class="cls-2" points="65.18 78.8 75.71 94.5 79.81 87.81 87.49 86.6 76.96 70.9"/>
  <path class="cls-1" d="M77.91,46.43c-3.89-5.56-10.34-9.21-17.64-9.21-11.88,0-21.51,9.63-21.51,21.51s9.63,21.51,21.51,21.51c4.83,0,9.29-1.59,12.88-4.28,1.61-1.21,3.05-2.64,4.26-4.24,2.74-3.61,4.36-8.1,4.36-12.98,0-4.58-1.43-8.82-3.86-12.3Z"/>
  <path class="cls-1" d="M73.6,50.9c-2.68-4.57-7.65-7.64-13.33-7.64-7.73,0-14.14,5.68-15.28,13.08-.12.78-.18,1.57-.18,2.38,0,8.54,6.92,15.47,15.47,15.47s15.47-6.92,15.47-15.47c0-2.86-.78-5.54-2.13-7.83Z"/>
  <path class="cls-1" d="M69,39.08V6.88c0-2.96-2.41-5.38-5.38-5.38H13.89c-2.97,0-5.38,2.42-5.38,5.38v47.44c0,2.97,2.41,5.38,5.38,5.38h24.9"/>
  <polyline class="cls-1" points="52.72 57.7 59.36 64.13 69 53.33"/>
  <line class="cls-1" x1="59.36" y1="22.7" x2="48.13" y2="22.7"/>
  <line class="cls-1" x1="42.84" y1="22.7" x2="28.29" y2="22.7"/>
  <line class="cls-1" x1="59.36" y1="31.31" x2="38.76" y2="31.31"/>
  <line class="cls-1" x1="38.89" y1="41.09" x2="48.13" y2="41.09"/>
  <line class="cls-1" x1="39.52" y1="50.87" x2="28.29" y2="50.87"/>
  <line class="cls-1" x1="28.29" y1="31.31" x2="35.41" y2="31.31"/>
  <line class="cls-1" x1="16.12" y1="22.7" x2="19.01" y2="22.7"/>
  <line class="cls-1" x1="16.12" y1="31.31" x2="19.01" y2="31.31"/>
  <line class="cls-1" x1="16.12" y1="41.09" x2="19.01" y2="41.09"/>
  <line class="cls-1" x1="16.12" y1="50.87" x2="19.01" y2="50.87"/>
  <line class="cls-1" x1="9.24" y1="14.98" x2="69" y2="14.98"/>
  <polyline class="cls-2" points="54.67 78.8 44.14 94.5 40.03 87.81 32.36 86.6 42.89 70.9"/>
</svg>