<?xml version="1.0" encoding="UTF-8"?>
<svg id="Layer_1" data-name="Layer 1" xmlns="http://www.w3.org/2000/svg" viewBox="0 0 96 96">
  <defs>
    <style>
      .cls-1 {
        stroke-linejoin: round;
      }

      .cls-1, .cls-2 {
        fill: none;
        stroke: #b1b0b1;
        stroke-width: 3px;
      }

      .cls-2 {
        stroke-miterlimit: 10;
      }
    </style>
  </defs>
  <rect class="cls-2" x="17.19" y="1.5" width="30.55" height="41.52" rx="14.17" ry="14.17"/>
  <path class="cls-1" d="M17.19,18.31c6.36-.44,15.46-1.93,20.81-5.55,2.28,1.7,6.31,4.32,9.74,5.11"/>
  <path class="cls-1" d="M25.95,41.63v6.49c0,.24,0,.49.04.73.17,1.52.86,2.88,1.88,3.91,1.19,1.18,2.83,1.92,4.64,1.92,3.37,0,6.14-2.54,6.51-5.8.04-.24.05-.5.05-.75v-6.53"/>
  <path class="cls-1" d="M48.39,82.6H2.59v-15.4c0-6.38,4.11-12.03,10.17-14.03l13.23-4.33c.17,1.52.86,2.88,1.89,3.91,1.19,1.18,2.83,1.91,4.63,1.91,3.37,0,6.14-2.53,6.52-5.8l7.46,2.47"/>
  <line class="cls-1" x1="15.7" y1="82.9" x2="15.7" y2="63.52"/>
  <path class="cls-2" d="M90.09,77.54c2.32-4.66,3.33-10.98,3.33-18.85l-22.41-10.76-22.41,10.76c0,16.34,5.69,25.31,11.38,30.19,4.86,4.18,9.74,5.36,11.04,5.62.92-.18,11.96-2.61,19.08-16.96Z"/>
  <polyline class="cls-2" points="61.81 69.48 69.91 77.99 82.28 61.74"/>
</svg>