<?xml version="1.0" encoding="UTF-8"?>
<svg id="Layer_1" data-name="Layer 1" xmlns="http://www.w3.org/2000/svg" viewBox="0 0 96 96">
  <path d="M87.5,69.85h0c-1.78-.95-3.88-1.11-5.77-.43l-17.58,6.31c.03-.12.05-.26.07-.4.34-2.07-.24-4.16-1.58-5.73-1.34-1.58-3.3-2.49-5.37-2.49h-9.99c-2.24,0-4.4-.78-6.26-2.26-4.24-3.38-13.04-8.09-24.6-1.87v-1.72c0-1.78-1.45-3.23-3.23-3.23h-6.74c-1.78,0-3.23,1.45-3.23,3.23v28.83c0,1.78,1.45,3.23,3.23,3.23h6.74c1.78,0,3.23-1.45,3.23-3.23v-1.03c2.6.01,7.86.5,15.29,3.4,5.18,2.02,10.52,3.05,15.89,3.05,3,0,5.98-.32,8.85-.96,7.99-1.74,19.94-5.29,31.43-12.33,1.58-.96,2.75-2.58,3.2-4.46.74-3.11-.74-6.36-3.6-7.9ZM61.17,74.85c-.18,1.07-.85,2.03-1.81,2.62-.11.05-.2.1-.27.16-.65.34-1.38.52-2.11.52h-12.2c-.86,0-1.55.7-1.55,1.55s.68,1.55,1.55,1.55h12.2c1.3,0,2.58-.33,3.64-.93l22.15-7.94c1.07-.38,2.27-.28,3.3.27,1.6.82,2.43,2.64,2.01,4.41-.25,1.07-.91,2-1.8,2.53-11.14,6.82-22.72,10.26-30.48,11.94-7.55,1.65-15.49.97-22.96-1.95-7.99-3.13-13.7-3.62-16.42-3.62v-19.44c10.69-6.55,18.79-2.35,22.67.75,2.38,1.89,5.28,2.93,8.18,2.93h9.99c1.17,0,2.27.51,3.02,1.4.76.89,1.08,2.04.88,3.24ZM13.21,90.24h-6.74c-.07,0-.14-.07-.14-.14v-28.82c0-.07.07-.14.14-.14h6.74c.07,0,.14.07.14.14v28.82c0,.07-.07.14-.14.14Z" fill="#b1b0b1"/>
  <path d="M31.23,58.06h8.9c.86,0,1.55-.7,1.55-1.55v-17.81c0-.86-.7-1.55-1.55-1.55h-8.9c-.86,0-1.55.7-1.55,1.55v17.81c0,.87.68,1.55,1.55,1.55ZM38.58,40.26v14.71h-5.81v-14.71h5.81Z" fill="#b1b0b1"/>
  <path d="M54.99,58.06c.86,0,1.56-.7,1.56-1.55v-10.37c0-.86-.7-1.55-1.56-1.55h-8.9c-.86,0-1.55.7-1.55,1.55v10.37c0,.86.7,1.55,1.55,1.55h8.9ZM53.44,47.69v7.28h-5.81v-7.28h5.81Z" fill="#b1b0b1"/>
  <path d="M69.83,58.06c.86,0,1.55-.7,1.55-1.55v-25.23c0-.86-.7-1.55-1.55-1.55h-8.9c-.86,0-1.56.7-1.56,1.55v25.23c0,.86.7,1.55,1.56,1.55h8.9ZM62.48,54.97v-22.13h5.81v22.13h-5.81Z" fill="#b1b0b1"/>
  <path d="M84.68,58.06c.86,0,1.55-.7,1.55-1.55V23.86c0-.86-.7-1.55-1.55-1.55h-8.9c-.86,0-1.55.7-1.55,1.55v32.65c0,.86.7,1.55,1.55,1.55h8.9ZM83.14,25.42v29.55h-5.81v-29.55h5.81Z" fill="#b1b0b1"/>
  <path d="M92.31.95c-.61-.61-1.59-.6-2.19,0l-7.22,7.22c-.82-.48-1.73-.73-2.66-.73-2.43,0-4.55,1.69-5.11,4.04h-3.9c-.55-2.35-2.66-4.04-5.1-4.04-2.9,0-5.26,2.36-5.26,5.26,0,.73.17,1.46.5,2.17l-8.65,8.64c-1.6-.75-3.42-.62-4.89.27l-7.49-7.49c.4-.76.61-1.57.61-2.4,0-2.9-2.36-5.26-5.26-5.26s-5.26,2.36-5.26,5.26,2.36,5.26,5.26,5.26c.86,0,1.71-.22,2.48-.65l7.6,7.6c-.33.7-.5,1.43-.5,2.18,0,2.9,2.36,5.26,5.26,5.26s5.26-2.36,5.26-5.26c0-.95-.26-1.89-.76-2.71l8.37-8.37c.82.5,1.76.76,2.71.76,2.16,0,4.11-1.35,4.89-3.38h4.34c.78,2.03,2.73,3.38,4.89,3.38,2.9,0,5.26-2.36,5.26-5.26,0-.75-.18-1.5-.52-2.22l7.34-7.34c.61-.62.6-1.58,0-2.19ZM82.4,12.69c0,1.2-.97,2.17-2.17,2.17s-2.17-.97-2.17-2.17.97-2.17,2.17-2.17,2.17.97,2.17,2.17ZM68.29,12.69c0,1.2-.97,2.17-2.17,2.17s-2.17-.97-2.17-2.17.97-2.17,2.17-2.17,2.17.97,2.17,2.17ZM52.71,28.27c0,1.2-.97,2.17-2.17,2.17s-2.17-.97-2.17-2.17.97-2.17,2.17-2.17,2.17.97,2.17,2.17ZM37.86,13.88c0,1.2-.97,2.17-2.17,2.17s-2.17-.97-2.17-2.17.97-2.17,2.17-2.17,2.17.97,2.17,2.17Z" fill="#b1b0b1"/>
</svg>