<?xml version="1.0" encoding="UTF-8"?>
<svg id="Layer_1" data-name="Layer 1" xmlns="http://www.w3.org/2000/svg" viewBox="0 0 96 96">
  <defs>
    <style>
      .cls-1 {
        fill: #b1b0b1;
      }
    </style>
  </defs>
  <g>
    <path class="cls-1" d="M69.79,96h-12.27c-.83,0-1.5-.67-1.5-1.5,0-3.52-2.75-6.38-6.13-6.38s-6.13,2.86-6.13,6.38c0,.83-.67,1.5-1.5,1.5h-11.98c-.71,0-1.32-.5-1.47-1.19-.19-.92-.33-1.88-.4-2.84l-6.44-1.72c-.76-.2-1.23-.96-1.09-1.73l1.49-7.93c.15-.79.88-1.31,1.67-1.21l6.57.88c.5-1.04,1.09-2.04,1.75-2.99l-3.88-5.64c-.44-.64-.32-1.5.27-2l6.08-5.08c.62-.52,1.54-.45,2.08.15l4.49,5.03c1.01-.46,2.06-.83,3.14-1.12l.54-6.87c.06-.79.73-1.35,1.52-1.38l7.82.14c.79.01,1.44.64,1.47,1.43l.31,6.89c1.07.33,2.11.74,3.1,1.22l4.65-4.87c.56-.59,1.48-.62,2.09-.08l5.9,5.29c.58.52.67,1.39.21,2.01l-4.06,5.5c.63.98,1.18,2,1.65,3.05l6.6-.65c.8-.09,1.51.48,1.63,1.27l1.23,7.98c.12.78-.38,1.51-1.14,1.69l-6.49,1.5c-.07.63-.16,1.23-.27,1.82-.02.81-.66,1.46-1.48,1.46ZM58.9,93h9.58c.07-.51.12-1.03.16-1.59.04-.66.51-1.22,1.16-1.37l6.2-1.43-.8-5.2-6.29.62c-.68.07-1.31-.33-1.55-.96-.59-1.53-1.38-3-2.35-4.36-.38-.53-.37-1.24.02-1.76l3.88-5.26-3.81-3.41-4.43,4.64c-.47.49-1.22.61-1.82.27-1.4-.78-2.91-1.38-4.49-1.78-.64-.16-1.1-.73-1.13-1.39l-.29-6.57-5-.09-.51,6.55c-.05.66-.53,1.21-1.19,1.35-1.57.33-3.1.88-4.54,1.62-.61.31-1.35.18-1.81-.33l-4.28-4.79-3.91,3.27,3.71,5.39c.37.54.35,1.25-.05,1.77-1.01,1.31-1.84,2.74-2.49,4.27-.26.62-.92,1-1.58.91l-6.26-.83-.97,5.16,6.15,1.65c.64.17,1.1.75,1.11,1.41.02.76.08,1.5.18,2.24h9.34c.7-4.46,4.48-7.88,9.02-7.88s8.32,3.42,9.02,7.88Z"/>
    <path class="cls-1" d="M19.84,50.54c-7.09,0-12.87-5.94-12.87-13.23s5.77-13.23,12.87-13.23,12.87,5.94,12.87,13.23-5.77,13.23-12.87,13.23ZM19.84,27.07c-5.44,0-9.87,4.59-9.87,10.23s4.43,10.23,9.87,10.23,9.87-4.59,9.87-10.23-4.43-10.23-9.87-10.23Z"/>
    <path class="cls-1" d="M45.36,21.84c-5.86,0-10.63-4.9-10.63-10.92S39.5,0,45.36,0s10.63,4.9,10.63,10.92-4.77,10.92-10.63,10.92ZM45.36,3c-4.21,0-7.63,3.55-7.63,7.92s3.42,7.92,7.63,7.92,7.63-3.55,7.63-7.92-3.42-7.92-7.63-7.92Z"/>
    <path class="cls-1" d="M66.97,38.55c-4.32,0-7.83-3.61-7.83-8.04s3.51-8.04,7.83-8.04,7.83,3.61,7.83,8.04-3.51,8.04-7.83,8.04ZM66.97,25.47c-2.67,0-4.83,2.26-4.83,5.04s2.17,5.04,4.83,5.04,4.83-2.26,4.83-5.04-2.17-5.04-4.83-5.04Z"/>
    <rect class="cls-1" x="17.97" y="17.69" width="20.62" height="3" transform="translate(-5.83 21.35) rotate(-37.78)"/>
    <rect class="cls-1" x="27.28" y="26.28" width="19.27" height="3" transform="translate(-6.8 42.71) rotate(-55.82)"/>
    <rect class="cls-1" x="53.21" y="16.76" width="3" height="15" transform="translate(1.99 52.58) rotate(-52.16)"/>
    <rect class="cls-1" x="58.26" y="9.89" width="3" height="16.35" transform="translate(2.71 43.42) rotate(-40.78)"/>
    <rect class="cls-1" x="36.78" y="39.24" width="3" height="28.36" transform="translate(-23.51 31.04) rotate(-34.47)"/>
    <rect class="cls-1" x="24.28" y="48.04" width="3" height="23.16" transform="translate(-21.08 14.64) rotate(-22.79)"/>
    <path class="cls-1" d="M19.84,43.6c-3.39,0-6.15-2.83-6.15-6.3s2.76-6.3,6.15-6.3,6.15,2.82,6.15,6.3-2.76,6.3-6.15,6.3ZM19.84,34.01c-1.74,0-3.15,1.48-3.15,3.3s1.41,3.3,3.15,3.3,3.15-1.48,3.15-3.3-1.41-3.3-3.15-3.3Z"/>
    <path class="cls-1" d="M75.58,53.68c-.11,0-.22-.01-.33-.04l-14.16-3.14c-.74-.17-1.25-.86-1.17-1.62l1.41-13.58,2.98.31-1.27,12.25,11.99,2.66.94-1.06-7.99-4.32c-.62-.33-.92-1.06-.73-1.73l2.4-8.36,2.88.83-2.07,7.2,8.59,4.65c.4.22.68.61.76,1.06.08.45-.05.91-.35,1.26l-2.78,3.14c-.29.33-.7.5-1.12.5Z"/>
    <path class="cls-1" d="M84.32,45.32c-.12,0-.23-.01-.35-.04-.46-.11-.84-.43-1.03-.86l-3.96-9.11-7.01,1.67-.7-2.92,8.23-1.96c.7-.17,1.43.19,1.72.86l3.66,8.43,1.02-.85-1.86-12.6-11.86.57-.14-3,13.22-.63c.77-.04,1.44.52,1.56,1.28l2.18,14.78c.08.52-.12,1.04-.52,1.37l-3.2,2.68c-.27.23-.61.35-.96.35Z"/>
  </g>
  <path class="cls-1" d="M33.4,94.55c-.34-9.67,7.03-17.83,16.43-18.18,4.11-.15,8.17,1.44,11.44,4.48,3.78,3.51,6.04,8.47,6.22,13.59l-3,.1c-.15-4.27-2.12-8.57-5.27-11.5-2.68-2.49-5.98-3.79-9.28-3.68-7.75.29-13.82,7.05-13.54,15.07l-3,.11Z"/>
</svg>