<?xml version="1.0" encoding="UTF-8"?>
<svg id="Layer_1" data-name="Layer 1" xmlns="http://www.w3.org/2000/svg" viewBox="0 0 96 96">
  <defs>
    <style>
      .cls-1 {
        fill: none;
        stroke: #b1b0b1;
        stroke-miterlimit: 10;
        stroke-width: 3px;
      }
    </style>
  </defs>
  <rect class="cls-1" x="1.5" y="3.95" width="85.69" height="23.85" rx="11.93" ry="11.93"/>
  <path class="cls-1" d="M48.59,51.66H13.43c-6.59,0-11.93-5.34-11.93-11.93,0-3.29,1.33-6.27,3.49-8.44,2.17-2.16,5.15-3.49,8.44-3.49h61.83c6.59,0,11.93,5.34,11.93,11.93,0,1.67-.34,3.25-.97,4.7"/>
  <path class="cls-1" d="M49.45,51.76H13.43c-3.29,0-6.27,1.33-8.44,3.49-2.16,2.17-3.49,5.15-3.49,8.44,0,6.59,5.34,11.92,11.93,11.92h39.89"/>
  <circle class="cls-1" cx="18.37" cy="40.42" r="5.25"/>
  <circle class="cls-1" cx="38.43" cy="16.55" r="5.25"/>
  <circle class="cls-1" cx="18.37" cy="16.69" r="5.25"/>
  <circle class="cls-1" cx="38.43" cy="40.28" r="5.25"/>
  <circle class="cls-1" cx="18.37" cy="63.76" r="5.25"/>
  <circle class="cls-1" cx="38.43" cy="63.61" r="5.25"/>
  <path class="cls-1" d="M71.89,92.05s-7.67-3.94-13.91-9.68c-3.98-3.66-8.53-11.78-8.53-19.48v-16.01l21.17-7.84,23.88,7.84v15.79c0,5.39-2.46,14.04-10.42,21.59-6.53,6.19-12.19,7.8-12.19,7.8Z"/>
  <polyline class="cls-1" points="61.15 62.21 70.02 72.05 84.06 57.67"/>
</svg>