<?xml version="1.0" encoding="UTF-8"?>
<svg id="Layer_1" data-name="Layer 1" xmlns="http://www.w3.org/2000/svg" viewBox="0 0 96 96">
  <path d="M91.87,57.39h-4.7c-3.46,0-6.27,2.81-6.27,6.27v6.27h-13.24l-3.05-6.52c1.45-2,2.24-4.41,2.24-6.88,0-.94-.12-1.87-.35-2.77l18.33-7.42c3.19-1.29,4.73-4.92,3.45-8.11l-1.27-3.13c1.49-1.3,1.99-3.4,1.23-5.23l-10.5-25.95c-.99-2.38-3.7-3.52-6.09-2.56L3.93,28.75c-2.39.96-3.56,3.68-2.59,6.08.5,1.25,1.53,2.23,2.8,2.67l11.68,4.09,1.44,3.56-3.13,1.26c-1.31-1.47-3.39-1.97-5.22-1.24l-2.89,1.17c-2.39.96-3.54,3.67-2.58,6.06,0,0,0,.01,0,.02l5.83,14.4c.98,2.38,3.69,3.54,6.08,2.6l2.9-1.17c1.82-.76,2.97-2.56,2.89-4.53l3.13-1.27.58,1.43c1.29,3.19,4.91,4.74,8.1,3.45,0,0,0,0,0,0l11.97-4.84c1.73,2.96,4.66,5.01,8.03,5.61l3.76,8.04c1.81,3.84,5.68,6.3,9.93,6.32h14.24v6.27c0,3.46,2.81,6.27,6.27,6.27h4.7c1.73,0,3.13-1.4,3.13-3.13v-31.33c0-1.73-1.4-3.13-3.13-3.13ZM4.14,33.11c-.02-.64.36-1.23.96-1.46L72.83,4.25c.79-.31,1.68.06,2.01.85l10.5,25.95c.15.37.15.79,0,1.16-.16.38-.46.68-.84.83l-38.25,15.48c-.35.14-.74.15-1.1.02L5.18,34.54c-.61-.2-1.03-.78-1.03-1.42ZM17.06,65.36l-2.88,1.16c-.79.31-1.69-.07-2.01-.86l-5.84-14.42c-.31-.78.07-1.67.85-1.99l2.89-1.17c.79-.31,1.68.06,2.01.84l5.83,14.41c.32.79-.06,1.69-.85,2.02h0ZM20.23,60.71l-4.65-11.5,2.86-1.16,4.66,11.5-2.87,1.16ZM31.78,64.42c-1.58.64-3.39-.12-4.03-1.7,0,0,0,0,0,0l-7.99-19.75,24.36,8.53c1.07.37,2.24.35,3.29-.07l36.81-14.89,1.16,2.87c.64,1.59-.13,3.39-1.71,4.03l-51.88,20.98ZM47.88,61.29l15.69-6.35c.1.52.15,1.06.15,1.59,0,4.77-3.85,8.64-8.62,8.64-2.91,0-5.62-1.46-7.22-3.88h0ZM66.66,79.33c-3.04,0-5.81-1.76-7.1-4.52l-3.08-6.59c2.12-.25,4.13-1.08,5.81-2.39l2.95,6.33c.26.55.81.91,1.43.9h14.24v6.27h-14.24ZM91.87,91.86h-4.7c-1.73,0-3.13-1.4-3.13-3.13v-25.06c0-1.73,1.4-3.13,3.13-3.13h4.7v31.33Z" fill="#b1b0b1"/>
</svg>