<?xml version="1.0" encoding="UTF-8"?>
<svg id="Layer_1" data-name="Layer 1" xmlns="http://www.w3.org/2000/svg" viewBox="0 0 96 96">
  <defs>
    <style>
      .cls-1 {
        fill: none;
        stroke: #b1b0b1;
        stroke-miterlimit: 10;
        stroke-width: 3px;
      }
    </style>
  </defs>
  <g>
    <line class="cls-1" x1="40.2" y1="1.5" x2="58.03" y2="19.05"/>
    <g>
      <polyline class="cls-1" points="58.03 36.45 58.03 19.05 40.2 19.05 40.2 1.5 2.16 1.5 2.16 72.15 39.9 72.15"/>
      <line class="cls-1" x1="27.25" y1="31.75" x2="47.61" y2="31.75"/>
      <line class="cls-1" x1="27.25" y1="41.62" x2="47.61" y2="41.62"/>
      <line class="cls-1" x1="35.54" y1="50.93" x2="27.25" y2="50.93"/>
      <line class="cls-1" x1="36.56" y1="60.56" x2="27.25" y2="60.56"/>
      <polyline class="cls-1" points="8.01 30.63 13.4 35.92 20.9 26.95"/>
      <polyline class="cls-1" points="8.01 44.45 13.4 49.74 20.9 40.77"/>
      <polyline class="cls-1" points="8.01 57.76 13.4 63.05 20.9 54.08"/>
    </g>
  </g>
  <path class="cls-1" d="M82.52,70c2.19-4.4,3.14-10.36,3.14-17.79l-21.15-10.16-21.15,10.16c0,15.42,5.37,23.89,10.74,28.5,4.59,3.94,9.19,5.06,10.42,5.3.87-.17,11.29-2.47,18.01-16.01Z"/>
  <path class="cls-1" d="M89.48,72.31c3.03-6.1,4.35-14.37,4.35-24.66l-29.32-14.08-29.33,14.08c0,21.38,7.44,33.11,14.89,39.51,6.36,5.46,12.74,7.01,14.44,7.35,1.21-.24,15.65-3.42,24.97-22.19Z"/>
  <line class="cls-1" x1="64.51" y1="50.51" x2="64.51" y2="66.85"/>
  <line class="cls-1" x1="64.51" y1="71.37" x2="64.51" y2="74.64"/>
</svg>