<?xml version="1.0" encoding="UTF-8"?>
<svg id="Layer_1" data-name="Layer 1" xmlns="http://www.w3.org/2000/svg" viewBox="0 0 96 96">
  <g id="_039---SEO" data-name="039---SEO">
    <path id="Shape" d="M81.91,73.07l-4.42-4.42-5.64-5.64c11.93-16.54,9.16-39.46-6.37-52.68C49.95-2.89,26.88-1.96,12.46,12.46-1.96,26.88-2.89,49.95,10.33,65.48c13.22,15.53,36.14,18.3,52.68,6.37l21.18,21.18c1.56,1.66,3.9,2.35,6.11,1.78s3.94-2.29,4.5-4.5c.57-2.21-.11-4.55-1.77-6.11l-11.13-11.12ZM71.97,76.38l4.42-4.42,2.21,2.21-4.42,4.42-2.21-2.21ZM4.24,40.18C4.24,20.33,20.33,4.24,40.18,4.24s35.94,16.09,35.94,35.94-16.09,35.94-35.94,35.94c-19.84-.02-35.91-16.1-35.94-35.94h0ZM69.9,65.49l4.27,4.27-4.42,4.41-4.27-4.27c1.58-1.35,3.06-2.83,4.41-4.41ZM90.81,90.83c-1.23,1.18-3.18,1.17-4.41,0l-10.02-10.02,4.41-4.42,10.02,10.02c.59.59.92,1.38.91,2.21s-.33,1.63-.92,2.21h0Z" fill="#b1b0b1"/>
    <path id="Shape-2" data-name="Shape" d="M62.12,52.73c1.07-1.84,1.87-3.81,2.4-5.87l4.61-1.37c1.19-.34,2.05-1.38,2.16-2.61.09-.91.13-1.81.13-2.7s-.04-1.79-.13-2.7c-.12-1.23-.98-2.27-2.16-2.61l-4.55-1.33c-.55-2.05-1.38-4.01-2.47-5.84l2.3-4.24c.6-1.08.47-2.42-.31-3.37-.58-.7-1.19-1.37-1.82-2s-1.3-1.24-2-1.82c-.96-.79-2.29-.91-3.38-.31l-4.16,2.29c-1.84-1.07-3.81-1.87-5.87-2.4l-1.37-4.62c-.34-1.19-1.38-2.05-2.61-2.16-1.8-.17-3.61-.17-5.4,0-1.23.12-2.27.98-2.61,2.17l-1.33,4.55c-2.05.55-4.01,1.38-5.84,2.47l-4.24-2.3c-1.08-.6-2.42-.47-3.38.31-.7.58-1.37,1.19-2,1.82s-1.24,1.3-1.82,2c-.79.96-.91,2.29-.31,3.38l2.29,4.16c-1.07,1.84-1.87,3.81-2.4,5.87l-4.62,1.37c-1.19.34-2.05,1.38-2.16,2.61-.09.91-.13,1.82-.13,2.7s.04,1.79.13,2.7c.12,1.23.98,2.27,2.17,2.61l4.55,1.33c.55,2.05,1.38,4.01,2.47,5.84l-2.3,4.24c-.6,1.08-.47,2.42.31,3.38.58.7,1.19,1.37,1.82,2s1.3,1.25,2,1.82c.95.79,2.29.91,3.38.31l4.16-2.29c1.84,1.07,3.81,1.87,5.87,2.4l1.37,4.62c.34,1.19,1.38,2.05,2.61,2.16.91.09,1.81.13,2.7.13s1.79-.04,2.7-.13c1.23-.12,2.27-.98,2.61-2.17l1.33-4.55c2.05-.55,4.01-1.38,5.84-2.47l4.24,2.3c1.08.6,2.42.47,3.38-.31.7-.58,1.37-1.19,2-1.82s1.25-1.3,1.82-2c.79-.96.91-2.29.31-3.38l-2.29-4.17ZM60.06,60.07c-.56.56-1.16,1.1-1.68,1.59l-4.24-2.3c-.93-.5-2.06-.48-2.97.05-1.63.94-3.37,1.66-5.18,2.15-1.02.27-1.82,1.05-2.13,2.06l-1.28,4.56c-1.57.12-3.15.13-4.72.05l-1.37-4.61c-.3-1.01-1.11-1.79-2.13-2.06-1.81-.5-3.56-1.22-5.19-2.16-.47-.27-.99-.41-1.53-.41-.5,0-.99.13-1.43.36l-4.14,2.32c-.62-.52-1.22-1.06-1.78-1.62s-1.1-1.16-1.59-1.68l2.3-4.24c.5-.93.48-2.06-.05-2.97-.94-1.63-1.66-3.37-2.15-5.18-.27-1.02-1.05-1.82-2.06-2.13l-4.56-1.28c-.08-.81-.11-1.62-.11-2.41s.04-1.6.06-2.32l4.61-1.37c1.01-.3,1.79-1.11,2.06-2.13.5-1.81,1.22-3.56,2.16-5.19.53-.91.55-2.04.05-2.97l-2.32-4.14c.52-.62,1.06-1.22,1.62-1.78s1.16-1.1,1.68-1.59l4.24,2.3c.93.5,2.06.48,2.97-.05,1.63-.94,3.37-1.66,5.18-2.15,1.02-.27,1.82-1.05,2.13-2.05l1.28-4.56c1.57-.12,3.15-.13,4.72-.05l1.37,4.61c.3,1.01,1.11,1.79,2.13,2.06,1.81.49,3.55,1.22,5.18,2.15.91.54,2.04.56,2.97.05l4.14-2.32c.62.52,1.22,1.06,1.78,1.62s1.1,1.16,1.59,1.68l-2.3,4.24c-.5.93-.48,2.06.05,2.97.94,1.63,1.66,3.37,2.15,5.18.27,1.02,1.05,1.82,2.06,2.13l4.56,1.28c.07.81.11,1.62.11,2.4s-.04,1.55-.11,2.33l-4.57,1.36c-1.01.3-1.79,1.11-2.06,2.13-.5,1.81-1.22,3.56-2.16,5.19-.53.91-.55,2.04-.05,2.97l2.32,4.14c-.52.62-1.06,1.22-1.62,1.78h0Z" fill="#b1b0b1"/>
    <path id="Shape-3" data-name="Shape" d="M40.18,21.43c-10.35,0-18.75,8.39-18.75,18.75s8.39,18.75,18.75,18.75,18.75-8.39,18.75-18.75c-.01-10.35-8.4-18.74-18.75-18.75ZM40.18,55.8c-8.63,0-15.62-7-15.62-15.62s7-15.62,15.62-15.62,15.62,7,15.62,15.62c0,8.63-7,15.61-15.62,15.62Z" fill="#b1b0b1"/>
    <path id="Shape-4" data-name="Shape" d="M40.18,29.24c-6.04,0-10.94,4.9-10.94,10.94s4.9,10.94,10.94,10.94,10.94-4.9,10.94-10.94c0-6.04-4.9-10.93-10.94-10.94ZM40.18,47.99c-4.31,0-7.81-3.5-7.81-7.81s3.5-7.81,7.81-7.81,7.81,3.5,7.81,7.81c0,4.31-3.5,7.81-7.81,7.81Z" fill="#b1b0b1"/>
  </g>
</svg>