<?xml version="1.0" encoding="UTF-8"?>
<svg id="Layer_1" data-name="Layer 1" xmlns="http://www.w3.org/2000/svg" viewBox="0 0 96 96">
  <defs>
    <style>
      .cls-1 {
        fill: #b1b0b1;
      }
    </style>
  </defs>
  <path class="cls-1" d="M45.15,94.5h-3v-10.88c-5.89-.29-10.59-5.3-10.59-11.42v-6.53h-3.35c-1.8,0-3.47-.92-4.46-2.45-1.03-1.59-1.18-3.57-.41-5.31l5.19-11.66v-9.13c0-.26,0-.5,0-.76l3,.11c0,.22,0,.43,0,.65v9.77l-5.45,12.25c-.36.81-.29,1.72.19,2.46.45.69,1.16,1.08,1.95,1.08h3.7c1.46,0,2.65,1.2,2.65,2.68v6.85c0,4.65,3.65,8.44,8.13,8.44h2.46v13.87Z"/>
  <path class="cls-1" d="M58.89,83.63v-3c.61,0,1.21-.02,1.81-.04l.12,3c-.63.03-1.28.04-1.93.04Z"/>
  <path class="cls-1" d="M89.4,57.55l-2.98-.37c.21-1.73.32-3.53.32-5.35v-6.57c0-8.76-3.3-16.99-9.29-23.18-5.96-6.15-13.87-9.55-22.28-9.58-1.07,0-2.13.07-3.14.21l-.4-2.97c1.15-.16,2.34-.24,3.55-.24,9.23.03,17.91,3.76,24.43,10.49,6.54,6.75,10.14,15.72,10.14,25.27v6.57c0,1.94-.12,3.87-.35,5.72Z"/>
  <path class="cls-1" d="M35.98,43.29c-1.08,0-2.13-.45-2.9-1.3l-9.21-10.16h-12.47c-3.98,0-7.22-3.32-7.22-7.41V7.41C4.17,3.32,7.41,0,11.39,0h34.71C50.09,0,53.33,3.33,53.33,7.42v17.01c0,4.08-3.24,7.41-7.22,7.41h-6.17v7.42c0,1.7-1,3.18-2.56,3.78-.46.18-.94.26-1.41.26ZM25.72,29.42l9.58,10.56c.37.41.79.34,1,.25.15-.06.64-.3.64-.98v-8.88c0-.31.08-.61.26-.87.28-.41.74-.66,1.24-.66h7.67c2.33,0,4.22-1.98,4.22-4.41V7.42c0-2.43-1.9-4.42-4.23-4.42H11.39c-2.33,0-4.22,1.98-4.22,4.41v17.02c0,2.43,1.89,4.41,4.22,4.41h13.14c.47,0,.9.22,1.19.58Z"/>
  <rect class="cls-1" x="27.25" y="14.71" width="3" height="8.55"/>
  <rect class="cls-1" x="27.25" y="9.89" width="3" height="2.69"/>
  <path class="cls-1" d="M78.9,94.5h-3v-12.45h1.5c4.55,0,11.44-4.76,11.44-11.94v-2.45c0-10.76-5.41-15.77-17.03-15.77-7.25,0-13.16,6.11-13.16,13.63v3.61l-2.59,7.1c-.05.13,0,.24.03.28.06.09.13.09.16.09h3.13c1.58,0,2.87,1.31,2.87,2.91v3.21c0,1.95,1.51,3.53,3.38,3.53h1.5v8.25h-3v-5.43c-2.79-.69-4.88-3.28-4.88-6.35v-3.12h-3c-1.04,0-2.02-.51-2.62-1.37-.62-.88-.76-2.02-.39-3.03l2.41-6.6v-3.08c0-9.17,7.25-16.63,16.16-16.63,13.29,0,20.03,6.31,20.03,18.77v2.45c0,7.79-6.65,13.96-12.94,14.83v9.56Z"/>
</svg>