<?xml version="1.0" encoding="UTF-8"?>
<svg id="Layer_1" data-name="Layer 1" xmlns="http://www.w3.org/2000/svg" viewBox="0 0 96 96">
  <defs>
    <style>
      .cls-1 {
        fill: #b1b0b1;
      }
    </style>
  </defs>
  <path class="cls-1" d="M52.13,92.23h-8.26c-2.79,0-5.15-2.09-5.48-4.86l-.88-6.91c-1.76-.57-3.45-1.28-5.06-2.1l-5.51,4.28c-2.23,1.73-5.38,1.53-7.32-.46l-5.8-5.8c-1.98-1.92-2.18-5.06-.45-7.29l4.28-5.51c-.83-1.61-1.53-3.31-2.1-5.06l-6.93-.88c-2.76-.34-4.85-2.69-4.85-5.48v-8.26c0-2.79,2.09-5.15,4.86-5.48l6.91-.88c.57-1.76,1.28-3.45,2.1-5.06l-4.28-5.51c-1.73-2.23-1.53-5.38.47-7.32l5.8-5.8c1.92-1.98,5.07-2.17,7.29-.45l5.51,4.28c1.61-.82,3.31-1.53,5.07-2.1l.88-6.93c.33-2.76,2.69-4.85,5.48-4.85h8.26c2.79,0,5.15,2.09,5.48,4.86l.88,6.91c1.76.57,3.46,1.28,5.07,2.1l5.51-4.28c2.24-1.73,5.38-1.53,7.32.47l5.8,5.8c1.98,1.92,2.18,5.06.45,7.29l-4.28,5.51c.83,1.61,1.53,3.31,2.1,5.06l6.93.88c2.76.34,4.85,2.69,4.85,5.48v8.26c0,2.79-2.09,5.15-4.86,5.48l-6.91.88c-.57,1.76-1.28,3.45-2.1,5.06l4.28,5.51c1.73,2.23,1.53,5.38-.47,7.32l-5.8,5.8c-1.92,1.98-5.07,2.18-7.29.45l-5.51-4.28c-1.61.83-3.31,1.53-5.06,2.1l-.88,6.93c-.34,2.76-2.69,4.85-5.48,4.85h0ZM32.26,74.31c.31,0,.62.08.9.23,2.03,1.14,4.23,2.05,6.54,2.71.71.2,1.23.81,1.32,1.54l1.03,8.11c.11.93.91,1.64,1.82,1.64h8.26c.91,0,1.71-.71,1.82-1.62l1.04-8.12c.09-.73.61-1.33,1.32-1.54,2.31-.66,4.51-1.58,6.54-2.71.64-.36,1.45-.3,2.03.15l6.45,5.01c.74.57,1.78.53,2.41-.13l5.84-5.84c.67-.65.72-1.69.14-2.43l-5.01-6.45c-.45-.58-.52-1.38-.15-2.03,1.14-2.03,2.05-4.23,2.71-6.54.2-.71.81-1.23,1.54-1.32l8.11-1.03c.93-.11,1.64-.91,1.64-1.82v-8.26c0-.91-.71-1.71-1.62-1.82l-8.12-1.04c-.73-.09-1.33-.61-1.54-1.32-.66-2.31-1.58-4.51-2.71-6.54-.36-.64-.3-1.44.15-2.03l5.01-6.45c.58-.74.53-1.78-.12-2.41l-5.84-5.84c-.64-.67-1.69-.72-2.43-.14l-6.45,5.01c-.59.45-1.39.52-2.03.15-2.02-1.14-4.22-2.05-6.54-2.71-.71-.2-1.23-.81-1.32-1.54l-1.03-8.11c-.11-.93-.91-1.64-1.82-1.64h-8.26c-.91,0-1.71.71-1.82,1.62l-1.04,8.12c-.09.73-.61,1.33-1.32,1.54-2.31.66-4.51,1.58-6.54,2.71-.64.36-1.44.3-2.03-.15l-6.45-5.01c-.74-.58-1.78-.53-2.41.12l-5.84,5.85c-.67.65-.72,1.69-.14,2.43l5.01,6.45c.45.58.52,1.38.15,2.03-1.14,2.03-2.05,4.23-2.71,6.54-.2.71-.81,1.23-1.54,1.32l-8.11,1.03c-.93.11-1.64.91-1.64,1.82v8.26c0,.91.71,1.71,1.62,1.82l8.12,1.04c.73.09,1.33.61,1.54,1.32.66,2.31,1.58,4.51,2.71,6.54.36.64.3,1.44-.15,2.03l-5.01,6.45c-.58.74-.53,1.78.12,2.41l5.84,5.84c.64.67,1.68.72,2.43.14l6.45-5.01c.34-.25.73-.38,1.14-.38h0Z"/>
  <path class="cls-1" d="M48,66.43c-10.16,0-18.43-8.27-18.43-18.43s8.27-18.43,18.43-18.43,18.43,8.27,18.43,18.43-8.27,18.43-18.43,18.43ZM48,33.26c-8.13,0-14.74,6.61-14.74,14.74s6.61,14.74,14.74,14.74,14.74-6.61,14.74-14.74-6.61-14.74-14.74-14.74Z"/>
</svg>