<?xml version="1.0" encoding="UTF-8"?>
<svg id="Layer_1" data-name="Layer 1" xmlns="http://www.w3.org/2000/svg" viewBox="0 0 96 96">
  <path d="M74.94,22.91c-1.9,0-3.68.74-5.02,2.08s-2.08,3.12-2.08,5.02v12.87c0,.68-.3,1.33-.82,1.77l-11.54,9.83c-.42.36-.96.56-1.51.56h-11.97c-.55,0-1.09-.2-1.51-.56l-11.54-9.83c-.52-.44-.82-1.09-.82-1.77v-12.87c0-1.9-.74-3.68-2.08-5.02s-3.12-2.08-5.02-2.08h0c-1.9,0-3.68.74-5.02,2.08s-2.08,3.12-2.08,5.02v17.69c0,1.78.78,3.47,2.14,4.63l15.4,13.12c.21.18.33.43.33.7v26.97c0,1.03.84,1.88,1.88,1.88h28.55c1.03,0,1.88-.84,1.88-1.88v-27.03c0-.27.12-.53.33-.71l15.44-13.05c1.37-1.16,2.15-2.85,2.15-4.64v-17.68c0-1.9-.74-3.68-2.08-5.02-1.34-1.34-3.12-2.08-5.02-2.08h0ZM26.54,47.5l11.54,9.83c1.1.94,2.5,1.45,3.94,1.45h11.97c1.44,0,2.84-.52,3.94-1.45l11.54-9.83c1.36-1.16,2.14-2.84,2.14-4.63v-12.87c0-.89.35-1.73.98-2.37,1.26-1.26,3.47-1.26,4.73,0,.63.63.98,1.47.98,2.37v17.68c0,.69-.3,1.33-.82,1.78l-15.44,13.05c-1.05.89-1.66,2.19-1.66,3.57v25.16h-24.8v-25.09c0-1.37-.6-2.67-1.64-3.56l-15.4-13.13c-.52-.44-.82-1.09-.82-1.77v-17.69c0-.89.35-1.73.98-2.37,1.26-1.26,3.47-1.27,4.73,0,.63.63.98,1.47.98,2.37v12.87c0,1.78.78,3.47,2.13,4.63h0ZM21.06,23.28h0Z" fill="#b1b0b1"/>
  <path d="M59.95,39.65c0-6.77-5.36-12.28-11.95-12.28s-11.95,5.51-11.95,12.28,5.36,12.28,11.95,12.28,11.95-5.51,11.95-12.28ZM48,31.13c4.52,0,8.2,3.82,8.2,8.52s-3.68,8.52-8.2,8.52-8.2-3.82-8.2-8.52,3.68-8.52,8.2-8.52Z" fill="#b1b0b1"/>
  <path d="M85.71,13.8l-6.85-11.86c-.33-.58-.96-.94-1.62-.94s-1.29.36-1.63.94l-2.88,4.99h-17.61c-.85-3.45-3.99-5.93-7.58-5.93s-6.72,2.47-7.58,5.93h-14.31V2.88c0-1.03-.84-1.88-1.88-1.88h-11.86c-1.03,0-1.88.84-1.88,1.88v11.86c0,1.03.84,1.88,1.88,1.88h11.86c1.03,0,1.88-.84,1.88-1.88v-4.06h14.31c.85,3.45,3.99,5.93,7.58,5.93s6.72-2.48,7.58-5.93h15.45l-1.8,3.12c-.33.58-.33,1.3,0,1.88s.96.94,1.63.94h13.7c.67,0,1.29-.36,1.63-.94.33-.58.33-1.3,0-1.88h-.02ZM73.64,12.86l3.6-6.24,3.6,6.24h-7.2ZM51.59,8.8c0,2.23-1.82,4.05-4.05,4.05s-4.05-1.82-4.05-4.05,1.82-4.05,4.05-4.05,4.05,1.82,4.05,4.05ZM21.9,4.75v8.11h-8.11V4.75h8.11Z" fill="#b1b0b1"/>
</svg>