<?xml version="1.0" encoding="UTF-8"?>
<svg id="Layer_1" data-name="Layer 1" xmlns="http://www.w3.org/2000/svg" viewBox="0 0 96 96">
  <path d="M64.56,33.09c.68,1.96,1.02,4.01,1.02,6.1,0,.83-.66,1.49-1.49,1.49s-1.49-.66-1.49-1.49c0-1.75-.28-3.48-.85-5.12-1.56-4.54-5.06-8.08-9.6-9.69-.77-.28-1.19-1.13-.9-1.9s1.13-1.19,1.9-.9c5.38,1.92,9.54,6.12,11.41,11.52h0ZM71.32,40.58c-.36,6.63-3.33,12.71-8.38,17.09-3.9,3.39-6.19,8.24-6.44,13.46,4.86-.28,7.47,5.84,3.95,9.11,3.43,3.16,1.05,9.17-3.67,9.11h-1.58c.15,3.6-2.73,6.64-6.34,6.64h-11.24c-3.61.02-6.49-3.05-6.34-6.64h-1.58c-4.72.06-7.1-5.95-3.67-9.11-3.01-2.69-1.56-8.06,2.35-8.92-.77-.83-1.39-1.81-1.81-2.9-7.1.53-12.48-6.78-10.15-13.38-8.94-4.05-8.94-17.17,0-21.21-2.33-6.59,3.05-13.89,10.15-13.38,3.39-8.98,16.66-6.68,16.77,2.97v42.03c0,2.18-.81,4.16-2.15,5.68h4.18V18.15c-.04-1.9,1.73-3.56,3.63-3.35,12.89.92,23.25,12.88,22.31,25.79h0ZM31.8,60.76c.3.77-.09,1.62-.87,1.92-.4.15-.73.36-1,.64-1.13,1.13-.83,2.99-.79,3.22,1.41,6.7,11.12,5.78,11.26-1.07V23.44c-.04-6.08-8.34-7.83-10.82-2.33,2,.4,7.91,5.44,3.67,6.38-1.43-.04-1.71-1.92-2.86-2.56-5.57-4.42-13.52,1.64-11.09,8.08,2.8-.41,5.72.73,7.53,2.9.53.62.45,1.56-.19,2.09-.62.53-1.56.45-2.09-.19-.4-.47-1.26-1.32-2.64-1.71-1.34-.4-2.5-.15-3.07.02-7.68,2.26-8.3,13.18-1,16.32,1-1.6,6.87-6.08,7.91-2.96.21.79-.28,1.6-1.07,1.81-8.45,2.09-7.28,13.97,1.43,14.19.04-1.24.38-2.92,1.71-4.25.96-1,3.18-2.3,3.97-.45h0ZM52.25,89.36h-17.98c-.15,1.96,1.39,3.67,3.37,3.67h11.24c1.98.02,3.5-1.71,3.37-3.67ZM59.12,84.07c0-1.28-1.04-2.33-2.33-2.33h-27.05c-1.28,0-2.33,1.04-2.33,2.33s1.04,2.33,2.33,2.33h27.07c1.26-.02,2.32-1.05,2.32-2.33ZM29.73,74.11c-3.07.08-3.07,4.57,0,4.65h27.07c1.28,0,2.33-1.04,2.33-2.33s-1.04-2.33-2.33-2.33h-27.07v.02ZM48.75,17.75c-.26.02-.38.11-.41.4v52.99h5.16c.26-6.08,2.96-11.76,7.49-15.7,14.32-12.25,6.46-36.16-12.24-37.68h0ZM67.87,20.5l6.87-6.87c1.36-1.39-.7-3.46-2.11-2.11l-6.87,6.87c-1.36,1.41.72,3.46,2.11,2.11ZM84.81,37.93h-9.71c-1.96.04-1.96,2.94,0,2.97h9.71c1.96-.04,1.96-2.94,0-2.97ZM67.87,58.32c-1.39-1.36-3.46.7-2.11,2.11l6.87,6.87c1.41,1.36,3.46-.7,2.11-2.11l-6.87-6.87ZM48.35,11.18V1.47c-.04-1.96-2.94-1.96-2.97,0v9.71c.04,1.96,2.94,1.96,2.97,0Z" fill="#b1b0b1"/>
</svg>