<?xml version="1.0" encoding="UTF-8"?>
<svg id="Layer_1" data-name="Layer 1" xmlns="http://www.w3.org/2000/svg" viewBox="0 0 96 96">
  <defs>
    <style>
      .cls-1 {
        fill: #b1b0b1;
      }
    </style>
  </defs>
  <path class="cls-1" d="M69.27,94.97H27.71c-2.89,0-5.25-2.35-5.25-5.25v-8.24h3v8.24c0,1.24,1.01,2.25,2.25,2.25h41.56c1.24,0,2.25-1.01,2.25-2.25v-31.45h3v31.45c0,2.89-2.35,5.25-5.25,5.25Z"/>
  <path class="cls-1" d="M25.46,51.86h-3v-14.03h9.41c.07,0,.12-.06.12-.12v-18.64c0-.07-.05-.12-.12-.12h-9.41V6.28c0-2.89,2.35-5.25,5.25-5.25h41.56c2.89,0,5.25,2.35,5.25,5.25v20.47h-3V6.28c0-1.24-1.01-2.25-2.25-2.25H27.71c-1.24,0-2.25,1.01-2.25,2.25v9.66h6.41c1.72,0,3.12,1.4,3.12,3.12v18.64c0,1.72-1.4,3.12-3.12,3.12h-6.41v11.03Z"/>
  <rect class="cls-1" x="23.96" y="10.24" width="49.05" height="3"/>
  <rect class="cls-1" x="39.57" y="75" width="33.45" height="3"/>
  <rect class="cls-1" x="43.67" y="82.92" width="8.73" height="3"/>
  <path class="cls-1" d="M23.96,40.83H3.12C1.4,40.83,0,39.43,0,37.71v-18.64C0,17.35,1.4,15.94,3.12,15.94h20.84v3H3.12c-.07,0-.12.05-.12.12v18.64c0,.07.05.12.12.12h20.84v3Z"/>
  <path class="cls-1" d="M91.51,59.77h-25.54c-2.48,0-4.49-2.01-4.49-4.49v-25.54c0-2.48,2.01-4.49,4.49-4.49h25.54c2.48,0,4.49,2.01,4.49,4.49v25.54c0,2.48-2.01,4.49-4.49,4.49ZM65.97,28.25c-.82,0-1.49.67-1.49,1.49v25.54c0,.82.67,1.49,1.49,1.49h25.54c.82,0,1.49-.67,1.49-1.49v-25.54c0-.82-.67-1.49-1.49-1.49h-25.54Z"/>
  <polygon class="cls-1" points="17.96 32.39 1.15 19 3.01 16.65 17.94 28.54 31.57 17.37 33.47 19.69 17.96 32.39"/>
  <path class="cls-1" d="M79.13,50.22c-4.63,0-8.4-3.77-8.4-8.4s3.77-8.4,8.4-8.4,8.4,3.77,8.4,8.4-3.77,8.4-8.4,8.4ZM79.13,36.42c-2.98,0-5.4,2.42-5.4,5.4s2.42,5.4,5.4,5.4,5.4-2.42,5.4-5.4-2.42-5.4-5.4-5.4Z"/>
  <rect class="cls-1" x="8.19" y="58.48" width="24.75" height="3"/>
  <rect class="cls-1" x="8.19" y="65.27" width="24.75" height="3"/>
  <rect class="cls-1" x="8.19" y="71.86" width="24.75" height="3"/>
  <path class="cls-1" d="M37.95,82.98H3.12C1.4,82.98,0,81.58,0,79.86v-26.38c0-1.72,1.4-3.13,3.12-3.13h34.83c1.72,0,3.12,1.4,3.12,3.13v1.6h6.82c.59,0,1.13.35,1.37.89.24.54.14,1.17-.26,1.61l-7.93,8.77v13.51c0,1.72-1.4,3.12-3.12,3.12ZM3.12,53.36c-.06,0-.12.05-.12.13v26.38c0,.06.06.12.12.12h34.83c.06,0,.12-.06.12-.12v-14.08c0-.37.14-.73.39-1.01l6.05-6.69h-4.94c-.83,0-1.5-.67-1.5-1.5v-3.1c0-.08-.06-.13-.12-.13H3.12Z"/>
</svg>