<?xml version="1.0" encoding="UTF-8"?>
<svg id="Layer_1" data-name="Layer 1" xmlns="http://www.w3.org/2000/svg" viewBox="0 0 96 96">
  <defs>
    <style>
      .cls-1 {
        fill: none;
        stroke: #b1b0b1;
        stroke-miterlimit: 10;
        stroke-width: 3px;
      }
    </style>
  </defs>
  <path class="cls-1" d="M18.21,60.09h-.32c-9.05,0-16.38-7.34-16.38-16.38,0-8.35,6.25-15.25,14.34-16.26-.02-.23-.02-.46-.02-.7,0-12.57,10.19-22.76,22.77-22.76,8.55,0,15.99,4.71,19.87,11.68,2.58-2.75,6.24-4.46,10.31-4.46,7.8,0,14.12,6.32,14.12,14.12,0,4.28-1.89,8.11-4.9,10.7,1.29-.46,2.68-.7,4.12-.7,6.84,0,12.39,5.55,12.39,12.39s-5.37,12.21-12.06,12.39h-.32"/>
  <polyline class="cls-1" points="69.47 60.09 82.11 60.09 82.44 60.09"/>
  <line class="cls-1" x1="24.98" y1="60.09" x2="18.21" y2="60.09"/>
  <rect class="cls-1" x="24.98" y="41.84" width="44.5" height="31.21"/>
  <line class="cls-1" x1="50.6" y1="52.42" x2="45.7" y2="63.38"/>
  <polyline class="cls-1" points="40.33 52.67 33.49 58.35 40.07 63.25"/>
  <polyline class="cls-1" points="55.8 52.67 62.64 58.35 56.06 63.25"/>
  <polyline class="cls-1" points="69.47 67.12 81.86 67.12 81.86 76.79"/>
  <polyline class="cls-1" points="13.89 76.79 13.89 67.12 24.98 67.12"/>
  <circle class="cls-1" cx="13.89" cy="82.08" r="5.29"/>
  <circle class="cls-1" cx="81.73" cy="82.08" r="5.29"/>
  <line class="cls-1" x1="37.23" y1="73.57" x2="37.23" y2="80.15"/>
  <line class="cls-1" x1="58.12" y1="73.57" x2="58.12" y2="80.15"/>
  <circle class="cls-1" cx="58.12" cy="86.72" r="5.29"/>
  <circle class="cls-1" cx="37.1" cy="86.72" r="5.29"/>
</svg>