<?xml version="1.0" encoding="UTF-8"?>
<svg id="Layer_1" data-name="Layer 1" xmlns="http://www.w3.org/2000/svg" viewBox="0 0 96 96">
  <defs>
    <style>
      .cls-1 {
        fill: none;
        stroke: #b1b0b1;
        stroke-miterlimit: 10;
        stroke-width: 3px;
      }
    </style>
  </defs>
  <path class="cls-1" d="M55.52,70.33h38.98c0,2.49-.98,4.74-2.56,6.37-1.57,1.63-3.75,2.64-6.17,2.64H10.23c-4.82,0-8.73-4.04-8.73-9.01h38.98"/>
  <polyline class="cls-1" points="55.52 70.33 55.52 72.55 40.48 72.55 40.48 70.33"/>
  <path class="cls-1" d="M40.48,70.34H9.03V20.94c0-2.37,1.86-4.29,4.15-4.29h69.64c2.29,0,4.15,1.92,4.15,4.29v49.39h-31.46"/>
  <path class="cls-1" d="M55.51,70.34h25.38V24.6c0-1.02-.8-1.85-1.8-1.85H16.91c-.99,0-1.8.84-1.8,1.85v45.74h25.37"/>
  <g>
    <rect class="cls-1" x="25.98" y="29.55" width="42.84" height="33.98"/>
    <line class="cls-1" x1="25.98" y1="39.26" x2="68.82" y2="39.26"/>
    <polyline class="cls-1" points="32.18 44.12 39.06 51.23 32.18 58.33"/>
    <line class="cls-1" x1="46.6" y1="58.33" x2="57.23" y2="58.33"/>
  </g>
</svg>