<?xml version="1.0" encoding="UTF-8"?>
<svg id="Layer_1" data-name="Layer 1" xmlns="http://www.w3.org/2000/svg" viewBox="0 0 96 96">
  <defs>
    <style>
      .cls-1 {
        fill: #b1b0b1;
      }
    </style>
  </defs>
  <path class="cls-1" d="M50.19,87.63c-2.09,0-4.19-.35-6.21-1.07l-24.24-8.63c-2.03-.72-4.24-.67-6.23.15L0,83.66v-25.39l18.23-6.34c5.37-1.87,11.18-2.44,16.81-1.66l26.14,3.62c3.43.47,5.88,3.55,5.56,7-.06.71-.24,1.38-.52,2.01l19-12.38c2.93-1.91,6.84-1.34,9.1,1.32,1.27,1.5,1.85,3.47,1.6,5.42-.26,1.95-1.33,3.7-2.94,4.82l-32.24,22.28c-3.14,2.17-6.84,3.29-10.56,3.29ZM16.82,74.43c1.32,0,2.65.23,3.92.68l24.24,8.63c4.7,1.67,9.96.98,14.06-1.86l32.24-22.28c.93-.64,1.53-1.62,1.67-2.74s-.17-2.22-.91-3.08c-1.29-1.51-3.52-1.84-5.18-.75l-24.93,16.25c-3.35,2.18-7.67,2.17-11.01-.02l-3.14-2.07-10.36.33-.1-3,23.07-.74c1.75-.06,3.19-1.42,3.35-3.16.17-1.85-1.14-3.5-2.98-3.76l-26.14-3.62c-5.16-.71-10.49-.19-15.42,1.53l-16.22,5.64v18.78l9.36-3.86c1.43-.59,2.94-.89,4.46-.89ZM53.04,67.01c2.26,1.26,5.04,1.18,7.23-.23l-7.23.23Z"/>
  <path class="cls-1" d="M84.85,25.44H6.33l13-17.08h51.52l14,17.08ZM12.38,22.44h66.13l-9.08-11.08H20.81l-8.43,11.08Z"/>
  <polygon class="cls-1" points="84.85 35.52 6.33 35.52 15.83 23.04 18.21 24.85 12.38 32.52 78.51 32.52 72.26 24.9 74.58 22.99 84.85 35.52"/>
  <polygon class="cls-1" points="84.85 45.32 6.33 45.32 15.83 32.84 18.21 34.65 12.38 42.32 78.51 42.32 72.26 34.7 74.58 32.79 84.85 45.32"/>
</svg>