<?xml version="1.0" encoding="UTF-8"?>
<svg id="Layer_1" data-name="Layer 1" xmlns="http://www.w3.org/2000/svg" viewBox="0 0 96 96">
  <path d="M94.1,79.99l-11.3-8.97c-1.19-.95-2.8-1.13-4.19-.45-1.31.63-2.12,1.89-2.12,3.29v2.64h-11.11c4.12-5.45,6.37-12.07,6.37-19,0-16.39-12.52-29.91-28.5-31.51,0-.05,0-.11,0-.16,0-6.98,5.68-12.67,12.67-12.67,5.85,0,10.84,3.98,12.26,9.5h-2.22c-1.4,0-2.66.81-3.29,2.12-.67,1.39-.5,3,.45,4.19l8.98,11.3c.7.89,1.74,1.4,2.84,1.4s2.14-.51,2.84-1.39l8.98-11.3c.95-1.19,1.13-2.8.45-4.19-.63-1.31-1.89-2.12-3.29-2.12h-2.87c-1.56-12.54-12.32-22.17-25.12-22.17-13.97,0-25.33,11.36-25.33,25.33,0,.51.01.99.04,1.46-11.86,3.71-20.76,14.18-22.04,27.03h-2.8c-1.4,0-2.66.81-3.29,2.12-.67,1.39-.5,3,.45,4.19l8.98,11.3c.7.89,1.74,1.4,2.84,1.39,1.1,0,2.14-.51,2.84-1.39l8.98-11.3c.95-1.19,1.13-2.8.46-4.19-.63-1.31-1.89-2.12-3.29-2.12h-2.38c1.52-9.01,9.44-15.83,18.73-15.83,10.47,0,19,8.52,19,19s-8.52,19-19,19H5.25c-2.62,0-4.75,2.13-4.75,4.75v3.17c0,2.62,2.13,4.75,4.75,4.75h71.24v2.64c0,1.4.81,2.66,2.12,3.29.56.27,1.16.4,1.75.4.87,0,1.73-.29,2.44-.86l11.3-8.97c.89-.7,1.4-1.74,1.4-2.84s-.51-2.14-1.39-2.84h0ZM33.73,25.83c0-12.22,9.94-22.17,22.17-22.17s21.35,9.09,22.11,20.69c.05.83.75,1.48,1.58,1.48h4.31c.23,0,.37.18.44.33.11.22.14.56-.08.84l-8.98,11.31c-.25.32-.46.32-.72,0l-8.98-11.3c-.22-.28-.19-.62-.08-.84.07-.15.21-.33.44-.33h4.12c.45,0,.88-.19,1.18-.53s.44-.78.39-1.23c-.89-8.02-7.66-14.08-15.73-14.08-8.73,0-15.83,7.1-15.83,15.83-2.16,0-4.27.23-6.31.65,0-.22-.02-.42-.02-.65h0ZM62.25,57.5c0-12.22-9.94-22.17-22.16-22.17-11.52,0-21.22,8.99-22.1,20.46-.03.44.12.87.42,1.2s.72.51,1.16.51h4.17c.23,0,.37.18.44.33.11.22.14.56-.08.84l-8.98,11.31c-.25.32-.46.32-.72,0l-8.98-11.31c-.22-.28-.19-.62-.08-.84.07-.15.21-.33.44-.33h4.27c.84,0,1.54-.66,1.58-1.5.79-15.14,13.29-27,28.46-27s28.5,12.78,28.5,28.5c0,7.07-2.6,13.78-7.31,19h-9.83c6.46-3.88,10.81-10.93,10.81-19h0ZM92.13,83.19l-11.3,8.98c-.28.22-.62.19-.84.08-.15-.07-.32-.21-.32-.44v-4.23c0-.42-.16-.82-.46-1.12s-.7-.46-1.12-.46H5.25c-.87,0-1.58-.71-1.58-1.58v-3.17c0-.87.71-1.58,1.58-1.58h72.83c.42,0,.82-.17,1.12-.46s.46-.7.46-1.12v-4.22c0-.23.17-.37.32-.44.23-.11.56-.14.84.08l11.31,8.98c.16.13.19.26.19.36s-.03.23-.2.36h0Z" fill="#b1b0b1"/>
</svg>