<?xml version="1.0" encoding="UTF-8"?>
<svg id="Capa_1" data-name="Capa 1" xmlns="http://www.w3.org/2000/svg" viewBox="0 0 96 96">
  <defs>
    <style>
      .cls-1 {
        fill: #b1b0b1;
      }
    </style>
  </defs>
  <path class="cls-1" d="M88.19,41.26c-.35,1.76-1.46,3.01-2.71,4.21-4.11,3.95-8.16,7.96-12.26,11.92-.96.92-1.29,1.91-1.06,3.22,1.06,6.01,2.08,12.02,3.11,18.03.4,2.31-.26,4.26-2.15,5.66-1.89,1.4-3.96,1.5-6.04.42-5.43-2.83-10.86-5.67-16.26-8.56-1.2-.64-2.25-.64-3.45,0-5.36,2.86-10.74,5.68-16.12,8.48-3.08,1.61-6.48.54-7.91-2.45-.53-1.12-.63-2.29-.43-3.5,1.03-6.01,2.05-12.03,3.12-18.03.24-1.36-.11-2.39-1.11-3.35-4.35-4.18-8.65-8.4-12.96-12.62-1.93-1.89-2.46-4.19-1.47-6.46.87-1.99,2.45-3.07,4.56-3.37,6.09-.89,12.17-1.77,18.27-2.63,1.19-.17,1.98-.75,2.51-1.84,2.68-5.48,5.39-10.94,8.08-16.41,1.03-2.09,2.63-3.35,5-3.43,2.46-.07,4.23,1.1,5.31,3.28,1.57,3.14,3.1,6.29,4.66,9.43,1.17,2.37,2.37,4.73,3.5,7.11.55,1.16,1.41,1.7,2.65,1.87,6.07.85,12.13,1.72,18.19,2.63,2.57.39,4.22,1.87,4.85,4.43.02.09.09.18.13.26v1.68ZM48.86,72.46c1.33.01,2.3.35,3.24.84,5.39,2.85,10.79,5.68,16.19,8.52,1,.53,1.99.67,2.94-.03.92-.67,1.14-1.61.95-2.71-1.01-5.83-1.95-11.68-3.03-17.5-.5-2.67.1-4.79,2.1-6.68,4.29-4.06,8.47-8.22,12.7-12.34.5-.48.95-.99,1.05-1.72.21-1.59-.74-2.68-2.56-2.94-5.94-.86-11.87-1.76-17.81-2.57-2.45-.33-4.08-1.55-5.15-3.75-2.61-5.4-5.29-10.76-7.94-16.14-.39-.8-.88-1.49-1.82-1.71-1.32-.31-2.32.23-3.04,1.68-2.7,5.47-5.41,10.93-8.09,16.41-.93,1.9-2.37,3.1-4.46,3.42-3.95.6-7.9,1.15-11.85,1.72-2.36.34-4.73.66-7.09,1.06-1.46.25-2.25,1.52-1.98,2.93.13.69.59,1.16,1.07,1.63,4.36,4.24,8.7,8.5,13.07,12.73,1.48,1.43,2.17,3.14,1.85,5.17-.53,3.34-1.14,6.66-1.71,9.99-.51,2.96-1.03,5.91-1.5,8.87-.24,1.5.69,2.7,2.14,2.9.69.09,1.29-.18,1.88-.5,5.37-2.83,10.75-5.65,16.12-8.48.94-.5,1.92-.81,2.72-.82Z"/>
</svg>