<?xml version="1.0" encoding="UTF-8"?>
<svg id="Layer_1" data-name="Layer 1" xmlns="http://www.w3.org/2000/svg" viewBox="0 0 96 96">
  <path d="M69.84,84.69c-.67-.66-1.58-1.07-2.58-1.07h-5.11s0-.05,0-.07v-5.06c0-.84-.34-1.6-.89-2.15-.55-.55-1.31-.89-2.15-.89h-3.96c-1.56-1.16-2.48-2.38-2.92-3.58-.42-1.15-.39-2.29-.05-3.33.35-1.08,1.04-2.06,1.92-2.83,1.05-.93,2.36-1.55,3.66-1.65.62-.01,1.19-.42,1.38-1.04.93-2.94,1.24-6.87.92-11.18-.49-6.47-2.41-13.91-5.84-20.24-3.49-6.46-8.55-11.8-15.26-13.92-2.34-.74-4.87-1.08-7.59-.95-1.62-1.29-3.37-2.44-5.23-3.08-2.2-.76-4.51-.81-6.84.4h0c-.08.05-.17.1-.24.16-.64.51-.74,1.44-.23,2.08l3.82,4.76L4.16,38.57c-.51.44-.66,1.19-.32,1.81l5.36,9.95c.38.7,1.24.98,1.96.63l6.98-3.46c.69-.31,1.05-1.1.8-1.83l-.68-2c.66-.26,1.92-.08,3.27.11,2.67.37,5.59.79,7.65-1.15,1.18,2.76.5,4.82-6.79,12.11-7.94,7.94-7.56,16.86-6.92,20.7h-3.17c-.83,0-1.59.34-2.14.89h0c-.55.55-.89,1.31-.89,2.15v5.06s0,.05,0,.07h-5.11c-1,0-1.91.41-2.58,1.07h0s0,0,0,0c-.66.67-1.07,1.58-1.07,2.58v4.57c0,1.01.41,1.92,1.07,2.58h0c.66.66,1.58,1.07,2.58,1.07h63.11c1,0,1.92-.41,2.58-1.08h0c.66-.65,1.07-1.57,1.07-2.58v-4.57c0-1-.41-1.92-1.07-2.58h0ZM24.48,56.84c10.2-10.2,9.28-11.95,6.48-17.26-.01-.02-.03-.05-.04-.08l-.25-.48c-.38-.72-1.27-1-2-.62-.32.16-.55.44-.68.75h0c-1.01,2.42-3.68,2.04-6.06,1.7-2.79-.39-5.33-.75-6.67,1.73-.21.38-.23.81-.1,1.18l.56,1.64-4.59,2.27-4.15-7.69,18.7-17.72c.56-.53.61-1.4.13-2h0s-3.32-4.15-3.32-4.15c.91-.11,1.81.03,2.69.33,1.63.57,3.26,1.7,4.78,2.94.31.25.68.36,1.05.33h0c2.55-.19,4.91.11,7.06.79,5.89,1.86,10.39,6.66,13.55,12.49,3.22,5.95,5.03,12.96,5.49,19.06.27,3.52.08,6.71-.54,9.19-1.61.33-3.15,1.13-4.43,2.26-1.25,1.11-2.25,2.53-2.77,4.13-.54,1.64-.59,3.45.08,5.27.31.86.79,1.72,1.45,2.55H18.47c-.58-2.87-1.42-11.16,6.01-18.6ZM12.23,78.48s0-.04.02-.05h0s.03-.02.05-.02h46.82s.04,0,.05.02c.01.01.02.03.02.05v5.06s0,.04-.02.05c0,.01-.03.02-.05.02H12.3s-.03,0-.05-.02c-.01,0-.02-.03-.02-.05v-5.06ZM67.95,91.84c0,.19-.07.36-.2.49h0c-.12.13-.29.2-.48.2H4.15c-.19,0-.36-.07-.48-.2h0c-.12-.13-.2-.3-.2-.49v-4.57c0-.19.08-.37.2-.49h0c.12-.13.3-.2.48-.2h63.11c.19,0,.36.08.48.2h0c.12.13.2.3.2.49v4.57Z" fill="#b1b0b1"/>
  <path d="M63.59,27.7c.64.51,1.57.41,2.08-.22l3.1-3.83v18.01c0,.82.67,1.49,1.48,1.49h13.32v16.4c0,.82.67,1.48,1.49,1.48s1.48-.67,1.48-1.48v-17.89c0-.82-.67-1.48-1.48-1.48h-13.32v-16.52l3.09,3.83c.52.64,1.45.74,2.09.22.64-.52.74-1.45.22-2.09l-5.74-7.09h0c-.07-.07-.14-.15-.22-.22-.64-.51-1.57-.41-2.08.22l-5.73,7.1c-.52.64-.41,1.57.22,2.08Z" fill="#b1b0b1"/>
  <path d="M70.25,11.97c1.58,0,3.02-.64,4.06-1.68,1.04-1.04,1.68-2.47,1.68-4.06s-.64-3.02-1.68-4.06c-1.04-1.04-2.47-1.68-4.06-1.68s-3.02.64-4.06,1.68c-1.04,1.04-1.68,2.47-1.68,4.06s.64,3.02,1.68,4.06c1.04,1.04,2.47,1.68,4.06,1.68ZM68.29,4.28c.5-.5,1.19-.81,1.96-.81s1.46.31,1.96.81c.5.5.81,1.19.81,1.96,0,.76-.31,1.46-.81,1.96-.5.5-1.19.81-1.96.81s-1.46-.31-1.96-.81c-.5-.5-.81-1.19-.81-1.96s.31-1.46.81-1.96Z" fill="#b1b0b1"/>
  <path d="M85.05,66.94h0c-1.59,0-3.02.64-4.06,1.68-1.04,1.04-1.68,2.47-1.68,4.06s.64,3.02,1.68,4.06c1.04,1.04,2.47,1.68,4.06,1.68s3.02-.64,4.06-1.68c1.04-1.04,1.68-2.47,1.68-4.06s-.64-3.02-1.68-4.06c-1.04-1.04-2.47-1.68-4.06-1.68ZM87,74.63c-.5.5-1.19.81-1.95.81s-1.46-.31-1.96-.81c-.5-.5-.81-1.19-.81-1.96s.31-1.46.81-1.95c.5-.5,1.19-.81,1.96-.81s1.46.31,1.95.81c.5.5.81,1.19.81,1.95s-.31,1.46-.81,1.96Z" fill="#b1b0b1"/>
  <path d="M92.25,24.26l2.82-2.82c.58-.58.58-1.52,0-2.1-.58-.58-1.52-.58-2.1,0l-2.81,2.82-2.82-2.82c-.58-.58-1.52-.58-2.1,0-.58.58-.58,1.52,0,2.1l2.81,2.82-2.81,2.82c-.58.58-.58,1.52,0,2.1.58.58,1.52.58,2.1,0l2.82-2.82,2.81,2.82c.58.58,1.52.58,2.1,0,.58-.58.58-1.52,0-2.1l-2.82-2.82Z" fill="#b1b0b1"/>
  <path d="M44.34,15.62c.58.58,1.52.58,2.1,0l2.82-2.81,2.81,2.81c.58.58,1.52.58,2.1,0,.58-.58.58-1.52,0-2.1l-2.82-2.81,2.82-2.81c.58-.58.58-1.52,0-2.1-.58-.58-1.52-.58-2.1,0l-2.81,2.81-2.81-2.81c-.58-.58-1.52-.58-2.1,0-.58.58-.58,1.52,0,2.1l2.81,2.81-2.81,2.81c-.58.58-.58,1.52,0,2.1Z" fill="#b1b0b1"/>
  <path d="M51.54,57.33c.81,0,1.48-.65,1.49-1.47.07-8.24-1.63-14.99-4.21-20.24-3.25-6.6-7.92-10.85-12.24-12.73-.75-.32-1.62.02-1.95.77-.32.75.02,1.62.77,1.95,3.75,1.63,7.84,5.4,10.76,11.32,2.39,4.87,3.98,11.17,3.91,18.9,0,.82.65,1.49,1.47,1.49Z" fill="#b1b0b1"/>
</svg>