<?xml version="1.0" encoding="UTF-8"?>
<svg id="Layer_1" data-name="Layer 1" xmlns="http://www.w3.org/2000/svg" viewBox="0 0 96 96">
  <path d="M63.95,43.74c1.47.39,3.03-.19,3.87-1.45l1.15-1.72.14,2.07c.1,1.52,1.16,2.8,2.63,3.19l13.49,3.61c1.47.39,3.03-.19,3.87-1.45l3.99-5.94c.12-.2.29-.52.29-.96.1-8.1-2.58-16.1-7.57-22.52-.59-.75-1.68-.89-2.43-.31-.75.59-.89,1.68-.31,2.43,4.02,5.18,6.42,11.6,6.79,18.12l-17.54-4.7c.73-4.78,1.02-9.64.85-14.44-.09-2.6-.32-5.23-.68-7.84,2.32,1.22,4.49,2.71,6.44,4.44.35.31.8.46,1.25.43.46-.03.89-.23,1.19-.58.63-.72.57-1.81-.15-2.45-3.49-3.1-7.54-5.46-12.02-7.02l1.2-3.35c.16-.44.13-.91-.07-1.33s-.55-.73-.98-.89c-.9-.32-1.9.15-2.22,1.05l-1.26,3.54c-15.51-3.69-31.75,3.44-39.59,17.44-.11.21-.25.53-.23.98l.48,7.12c.1,1.52,1.16,2.8,2.63,3.19l13.49,3.61c1.47.39,3.03-.19,3.87-1.45l1.15-1.72.14,2.06c.1,1.52,1.16,2.8,2.63,3.19l5.07,1.36-7.47,27.88-12.5-.04c-.95,0-1.73.78-1.73,1.73,0,.46.18.9.5,1.23.33.33.76.51,1.23.51l26.77.08c1.44,0,2.84-.59,3.84-1.61l9.63-9.83c1.89-1.93,4.76-2.62,7.32-1.77l2.37.79-17.84,17.96c-.7.7-1.66,1.1-2.65,1.1H12.46c-.04-1.46.28-3.4,1.84-4.96,1.17-1.17,2.72-1.81,4.4-1.81l10.49.04c.95,0,1.73-.78,1.73-1.73,0-.46-.18-.9-.5-1.23-.33-.33-.76-.51-1.22-.51l-10.48-.04h-.04c-2.57,0-4.99,1-6.82,2.82-2.55,2.54-2.84,6.13-2.84,8.6,0,1.26,1.02,2.28,2.28,2.28h2.71l-2.59,5.69c-.41.9-.51,1.9-.29,2.85h-6.78c-.96,0-1.73.78-1.73,1.73s.78,1.73,1.73,1.73h84.07c.96,0,1.73-.78,1.73-1.73s-.78-1.73-1.73-1.73h-12.33c.22-.95.12-1.95-.29-2.85l-4.23-9.29,17.72-17.84c.56-.55.77-1.35.59-2.13-.19-.79-.74-1.4-1.48-1.64l-4.18-1.39c-3.81-1.27-8.09-.24-10.9,2.63l-9.63,9.83c-.36.36-.85.57-1.37.57l-10.67-.03,7.23-27,5.07,1.36ZM46.28,30.74l-2.63,3.91s-.06.04-.09.04l-13.49-3.61s-.06-.04-.06-.08l-.32-4.7,16.6,4.45ZM88.85,42.15l-2.63,3.91s-.06.05-.09.03l-13.49-3.61s-.06-.04-.06-.08l-.32-4.7,16.6,4.45ZM67.57,36.44l-2.63,3.91s-.06.04-.1.04l-13.49-3.61s-.06-.04-.06-.08l-.32-4.7,16.6,4.45ZM57.28,17.07c1.95-2.93,4.2-5.7,6.68-8.26,1.61.32,3.22.78,4.77,1.36.54,3.2.87,6.44.98,9.64.16,4.46-.1,8.97-.75,13.41l-17.59-4.71c1.55-4.03,3.54-7.87,5.92-11.44ZM59.73,8.26c-1.95,2.18-3.74,4.49-5.34,6.89-2.59,3.88-4.74,8.07-6.4,12.46l-17.52-4.69c6.44-9.87,17.56-15.43,29.26-14.65ZM20.01,82.99l-3.62,7.95c-.22.49-.83.72-1.32.5-.5-.23-.72-.82-.5-1.32l3.24-7.13h2.19ZM44.41,82.99l-2.29,8.54h-22.19l3.89-8.54h20.59ZM67.28,91.53h-21.57l2.29-8.54h15.4l3.89,8.54ZM72.14,91.44c-.49.22-1.1-.01-1.32-.5l-3.76-8.26c.64-.19,1.25-.48,1.82-.83l3.76,8.27c.23.5,0,1.1-.5,1.32Z" fill="#b1b0b1"/>
</svg>