<?xml version="1.0" encoding="UTF-8"?>
<svg id="Layer_1" data-name="Layer 1" xmlns="http://www.w3.org/2000/svg" viewBox="0 0 96 96">
  <defs>
    <style>
      .cls-1 {
        fill: #b1b0b1;
      }
    </style>
  </defs>
  <path class="cls-1" d="M28.33,55.04c-.37-.39-.89-.61-1.43-.61h0c-.82,0-1.53.47-1.84,1.24-.31.77-.13,1.6.46,2.17l12.64,12.63c.53.57,1.2.79,1.88.62.73-.19,1.35-.81,1.54-1.54.17-.68-.04-1.34-.61-1.87l-12.63-12.63Z"/>
  <path class="cls-1" d="M34.64,48.72c-.37-.38-.89-.6-1.42-.6-.82,0-1.52.47-1.83,1.24-.31.76-.14,1.59.45,2.16l12.64,12.64c.54.53,1.19.73,1.86.55.71-.19,1.31-.79,1.5-1.5.18-.66-.02-1.32-.56-1.86l-12.64-12.63Z"/>
  <path class="cls-1" d="M91.94,5.11c-.33-.77-1.06-1.24-1.88-1.21h0c-.52.01-1,.23-1.37.6l-9.12,9.13-2.81-2.81c-1.5-1.5-3.19-2.31-4.89-2.36-.94-.03-1.81.1-2.82.24l-.29.04-14.74,2.05c-5.29.74-8.03,2.97-11.6,6.3L6.13,50.91c-1.41,1.4-2.21,3.41-2.23,5.66-.02,1.34.26,3.81,2.22,5.58h0s.12.11.12.11h0s27.51,27.51,27.51,27.51h0s.11.12.11.12h0c1.72,1.91,4.11,2.22,5.47,2.22.04,0,.07,0,.1,0,2.25-.03,4.26-.82,5.66-2.23l.04-.04,2.55-2.73.08.03,9.92,3.69c2.04.76,4.22.68,6.15-.23,2.04-.96,3.54-2.51,4.22-4.38l10.91-32.67c3.31-3.55,5.54-6.28,6.27-11.57l2.09-15.01c.14-1.02.27-1.89.24-2.83-.05-1.7-.86-3.39-2.36-4.89l-2.81-2.81.09-.09,9.04-9.04c.6-.58.77-1.42.44-2.19ZM72.24,61.08l-7.93,23.77c-.29.81-1.19,1.69-2.18,2.16-.62.29-1.22.4-1.74.4-.41,0-.76-.07-1.04-.17l-8.76-3.28,21.83-23.42-.18.54ZM82.38,22.04c1.14,1.14,1.18,1.33,1.2,2.19.01.5-.08,1.28-.24,2.45l-2.05,14.74c-.62,4.46-1.98,5.92-4.96,9.11l-.32.34-33.75,36.21c-.6.61-1.79,1.04-2.88,1.05h-.05c-1.07,0-2.08-.37-2.57-.95-.03-.04-.07-.08-.11-.11l-27.73-27.73s-.07-.07-.11-.11c-.59-.5-.96-1.53-.95-2.62.01-1.09.44-2.28,1.05-2.88L45.46,19.67c3.2-2.98,4.65-4.34,9.11-4.96l14.74-2.05c1.14-.16,1.95-.26,2.45-.24.86.02,1.06.06,2.2,1.2l2.81,2.81-.09.09-4.9,4.9-.08-.04c-.85-.41-1.74-.62-2.66-.62-3.42,0-6.19,2.78-6.19,6.19s2.78,6.19,6.19,6.19,6.19-2.78,6.19-6.19c0-.92-.21-1.81-.62-2.66l-.04-.08.06-.06,4.92-4.92,2.81,2.81ZM71.27,26.96c0,1.25-.98,2.23-2.23,2.23s-2.23-.98-2.23-2.23.98-2.23,2.23-2.23,2.23.98,2.23,2.23Z"/>
</svg>