<?xml version="1.0" encoding="UTF-8"?>
<svg id="Layer_1" data-name="Layer 1" xmlns="http://www.w3.org/2000/svg" viewBox="0 0 96 96">
  <defs>
    <style>
      .cls-1 {
        fill: #b1b0b1;
      }
    </style>
  </defs>
  <path class="cls-1" d="M55.66,95.9L20.03,59.58c-2.11-2.15-3.32-5.13-3.32-8.18v-19.01c-.02-6.55,4.97-11.94,11.33-12.26l19.45-.97c3.15-.16,6.21,1.06,8.44,3.33l35.42,36.1-35.69,37.31ZM47.64,22.16l-19.45.97c-4.77.24-8.5,4.31-8.5,9.26v19.01c.01,2.27.91,4.49,2.47,6.08l33.47,34.11,31.54-32.97L53.79,24.59c-1.63-1.66-3.86-2.55-6.15-2.43Z"/>
  <path class="cls-1" d="M28.16,39.25c-1.8,0-3.5-.72-4.78-2.02-2.63-2.69-2.66-7.08-.06-9.8,1.28-1.33,2.98-2.07,4.8-2.08h.04c1.8,0,3.5.72,4.78,2.02,2.63,2.68,2.66,7.08.06,9.8-1.27,1.33-2.98,2.07-4.8,2.08h-.04ZM28.16,28.34h-.02c-1,0-1.94.42-2.65,1.16-1.49,1.56-1.48,4.08.03,5.62.72.73,1.68,1.18,2.67,1.12,1,0,1.94-.42,2.65-1.16,1.49-1.56,1.48-4.08-.03-5.62h0c-.71-.73-1.65-1.12-2.64-1.12Z"/>
  <path class="cls-1" d="M29.55,32.46l-2.98-.33c.01-.11,1.09-10.79-4.56-13.55-2.51-1.23-4.6-1.33-6.61-1.43-2.93-.15-5.95-.3-8.55-4.38C4.3,8.78,5.47,1.33,5.62.5l2.96.5c-.33,1.96-.83,7.6.81,10.16,1.77,2.77,3.43,2.86,6.17,2.99,2.1.1,4.71.23,7.77,1.73,7.54,3.68,6.28,16.05,6.22,16.57Z"/>
</svg>