<?xml version="1.0" encoding="UTF-8"?>
<svg id="Layer_1" data-name="Layer 1" xmlns="http://www.w3.org/2000/svg" viewBox="0 0 96 96">
  <defs>
    <style>
      .cls-1 {
        fill: none;
        stroke: #b1b0b1;
        stroke-miterlimit: 10;
        stroke-width: 3px;
      }
    </style>
  </defs>
  <path class="cls-1" d="M85.9,21.4C77.54,9.43,63.66,1.6,47.96,1.6,22.41,1.6,1.7,22.31,1.7,47.86s20.71,46.26,46.26,46.26c10.39,0,19.98-3.43,27.71-9.21,3.46-2.6,6.56-5.67,9.16-9.12,5.89-7.76,9.38-17.43,9.38-27.92,0-9.84-3.07-18.97-8.3-26.45Z"/>
  <path class="cls-1" d="M74.73,32.13c-5.39-9.18-15.37-15.34-26.78-15.34-15.53,0-28.4,11.4-30.7,26.28-.25,1.56-.37,3.16-.37,4.79,0,17.16,13.91,31.07,31.07,31.07s31.07-13.91,31.07-31.07c0-5.74-1.56-11.12-4.28-15.73Z"/>
  <line class="cls-1" x1="13.45" y1="78.75" x2="2.34" y2="94.11"/>
  <line class="cls-1" x1="83.19" y1="79.24" x2="94.3" y2="94.6"/>
  <path class="cls-1" d="M59.72,40.94c-2.37-4.04-6.76-6.74-11.77-6.74-6.83,0-12.49,5.01-13.5,11.55-.11.69-.16,1.39-.16,2.1,0,7.54,6.12,13.66,13.66,13.66s13.66-6.12,13.66-13.66c0-2.53-.69-4.89-1.88-6.91Z"/>
</svg>