<?xml version="1.0" encoding="UTF-8"?>
<svg id="Layer_1" data-name="Layer 1" xmlns="http://www.w3.org/2000/svg" viewBox="0 0 96 96">
  <defs>
    <style>
      .cls-1 {
        fill: #b1b0b1;
      }
    </style>
  </defs>
  <path class="cls-1" d="M14.14,39.9c-7.2,0-13.06-5.86-13.06-13.06s5.86-13.06,13.06-13.06,13.06,5.86,13.06,13.06-5.86,13.06-13.06,13.06ZM14.14,16.79c-5.54,0-10.06,4.51-10.06,10.06s4.51,10.06,10.06,10.06,10.06-4.51,10.06-10.06-4.51-10.06-10.06-10.06Z"/>
  <path class="cls-1" d="M81.85,39.9c-7.2,0-13.06-5.86-13.06-13.06s5.86-13.06,13.06-13.06,13.06,5.86,13.06,13.06-5.86,13.06-13.06,13.06ZM81.85,16.79c-5.54,0-10.06,4.51-10.06,10.06s4.51,10.06,10.06,10.06,10.06-4.51,10.06-10.06-4.51-10.06-10.06-10.06Z"/>
  <path class="cls-1" d="M14.14,39.9c-7.2,0-13.06-5.86-13.06-13.06s5.86-13.06,13.06-13.06,13.06,5.86,13.06,13.06-5.86,13.06-13.06,13.06ZM14.14,16.79c-5.54,0-10.06,4.51-10.06,10.06s4.51,10.06,10.06,10.06,10.06-4.51,10.06-10.06-4.51-10.06-10.06-10.06Z"/>
  <path class="cls-1" d="M14.14,39.9c-7.2,0-13.06-5.86-13.06-13.06s5.86-13.06,13.06-13.06,13.06,5.86,13.06,13.06-5.86,13.06-13.06,13.06ZM14.14,16.79c-5.54,0-10.06,4.51-10.06,10.06s4.51,10.06,10.06,10.06,10.06-4.51,10.06-10.06-4.51-10.06-10.06-10.06Z"/>
  <polygon class="cls-1" points="62.15 82.2 33.85 82.2 33.85 59.62 36.85 59.62 36.85 79.2 59.15 79.2 59.15 59.62 62.15 59.62 62.15 82.2"/>
  <path class="cls-1" d="M62.15,52.22h-3v-7.72c0-2.96-1.16-5.76-3.27-7.87-2.11-2.11-4.91-3.27-7.89-3.27-6.14,0-11.14,5-11.14,11.14v7.72h-3v-7.72c0-7.8,6.34-14.14,14.14-14.14,3.78,0,7.33,1.47,10.01,4.15,2.68,2.68,4.15,6.22,4.15,9.99v7.72Z"/>
  <path class="cls-1" d="M48,29.44c-7.2,0-13.06-5.86-13.06-13.06s5.86-13.06,13.06-13.06,13.06,5.86,13.06,13.06-5.86,13.06-13.06,13.06ZM48,6.33c-5.54,0-10.06,4.51-10.06,10.06s4.51,10.06,10.06,10.06,10.06-4.51,10.06-10.06-4.51-10.06-10.06-10.06Z"/>
  <path class="cls-1" d="M96,92.67h-28.3v-33.83l-13.5,4.51c-4.01,1.35-8.42,1.34-12.42,0l-13.49-4.51v33.83H0v-37.7C0,47.17,6.34,40.82,14.14,40.82c3.8,0,7.35,1.48,10.01,4.16.78.76,1.47,1.64,2.06,2.61l16.53,5.52c3.38,1.14,7.12,1.14,10.52,0l16.52-5.52c2.57-4.19,7.14-6.76,12.07-6.76,3.8,0,7.35,1.48,10.01,4.15,2.67,2.65,4.15,6.21,4.15,10v37.7ZM70.7,89.67h22.3v-34.7c0-2.99-1.16-5.79-3.27-7.88-2.1-2.12-4.9-3.28-7.89-3.28-4.04,0-7.77,2.2-9.75,5.74l-.28.51-17.61,5.89c-4.01,1.35-8.42,1.34-12.42,0l-17.63-5.89-.28-.52c-.5-.92-1.12-1.74-1.84-2.44-2.11-2.12-4.91-3.28-7.9-3.28-6.14,0-11.14,5-11.14,11.16v34.7h22.3v-35l17.45,5.84c3.38,1.14,7.12,1.14,10.52,0l17.45-5.84v35Z"/>
</svg>