<?xml version="1.0" encoding="UTF-8"?>
<svg id="Layer_1" data-name="Layer 1" xmlns="http://www.w3.org/2000/svg" viewBox="0 0 96 96">
  <path d="M74.29,55.75h-13.27c-.63,0-1.2.38-1.45.96s-.13,1.25.3,1.71c.85.9,1.31,2.1,1.31,3.37,0,2.73-2.22,4.95-4.95,4.95s-4.95-2.22-4.95-4.95c0-1.28.47-2.47,1.32-3.36.44-.46.56-1.13.32-1.72-.25-.58-.82-.96-1.46-.96h-11.69v-8.86c.9.34,1.87.52,2.87.52,4.48,0,8.12-3.64,8.12-8.12s-3.64-8.12-8.12-8.12c-1,0-1.97.18-2.87.51v-10.44c0-.87-.71-1.58-1.58-1.58H2.08c-.88,0-1.58.71-1.58,1.58v72.21c0,.87.71,1.58,1.58,1.58h72.21c.88,0,1.58-.71,1.58-1.58v-36.11c0-.87-.71-1.58-1.58-1.58ZM3.67,22.83h32.92v11.67c0,.63.38,1.2.96,1.45s1.25.13,1.71-.3c.9-.85,2.1-1.31,3.37-1.31,2.73,0,4.95,2.22,4.95,4.95s-2.22,4.95-4.95,4.95c-1.28,0-2.47-.47-3.36-1.32-.46-.44-1.14-.56-1.72-.31-.58.25-.96.82-.96,1.46v11.69h-8.86c.34-.9.52-1.87.52-2.87,0-4.48-3.64-8.12-8.12-8.12s-8.12,3.64-8.12,8.12c0,1,.18,1.97.51,2.87H3.67V22.83ZM3.67,58.92h11.67c.63,0,1.2-.38,1.45-.96.06-.14.1-.3.12-.45.05-.46-.1-.92-.42-1.27-.64-.67-1.06-1.52-1.23-2.43-.06-.31-.09-.62-.09-.94,0-2.73,2.22-4.95,4.95-4.95s4.95,2.22,4.95,4.95c0,1.28-.47,2.47-1.32,3.36-.44.46-.56,1.13-.32,1.72.25.58.82.96,1.46.96h11.69v8.86c-.9-.34-1.87-.52-2.87-.52-4.48,0-8.12,3.64-8.12,8.12s3.64,8.12,8.12,8.12c1,0,1.97-.18,2.87-.51v8.88H3.67v-32.95ZM72.71,91.87h-32.95v-11.69c0-.63-.38-1.2-.96-1.45-.58-.25-1.25-.13-1.71.3-.9.85-2.09,1.31-3.37,1.31-2.73,0-4.95-2.22-4.95-4.95s2.22-4.95,4.95-4.95c1.28,0,2.47.47,3.36,1.32.46.44,1.13.56,1.72.32.58-.25.96-.82.96-1.46v-11.69h8.86c-.34.9-.52,1.87-.52,2.87,0,4.48,3.64,8.12,8.12,8.12s8.12-3.64,8.12-8.12c0-1-.18-1.97-.51-2.87h8.88v32.95Z" fill="#b1b0b1"/>
  <path d="M86.58,2.16c-.22-.85-1.08-1.36-1.93-1.14l-35.01,8.88c-.41.1-.76.36-.97.72-.21.36-.28.79-.17,1.2l3.26,12.85c.16.61.66,1.07,1.28,1.17.62.1,1.25-.18,1.59-.71.66-1.04,1.71-1.79,2.94-2.1,2.64-.67,5.35.94,6.02,3.58.32,1.28.13,2.61-.55,3.75-.68,1.14-1.76,1.95-3.03,2.27-1.24.31-2.51.15-3.58-.46-.55-.31-1.24-.27-1.74.12-.5.38-.73,1.03-.58,1.65l3.26,12.87c.22.85,1.08,1.36,1.93,1.14l10.12-2.57c-.11.96-.04,1.94.2,2.91.93,3.67,4.25,6.12,7.87,6.12.66,0,1.33-.08,2-.25,4.34-1.1,6.97-5.53,5.87-9.87-.25-.97-.66-1.86-1.2-2.66l10.14-2.57c.85-.21,1.36-1.08,1.15-1.92L86.58,2.16ZM80.66,39.26c-.61.16-1.07.66-1.17,1.28s.18,1.25.71,1.59c1.04.66,1.79,1.71,2.1,2.94.67,2.65-.94,5.35-3.58,6.02-1.28.32-2.61.13-3.75-.55-1.14-.68-1.95-1.76-2.27-3.03-.31-1.24-.15-2.51.46-3.58.31-.55.27-1.24-.12-1.74-.3-.4-.77-.62-1.26-.62-.13,0-.26.02-.39.05l-11.33,2.87-2.18-8.59c.96.11,1.94.04,2.91-.21,2.1-.53,3.86-1.85,4.97-3.72,1.11-1.87,1.43-4.05.9-6.15-1.1-4.34-5.53-6.97-9.87-5.87-.97.25-1.86.65-2.66,1.2l-2.18-8.59,31.94-8.1,8.1,31.91-11.33,2.88Z" fill="#b1b0b1"/>
</svg>