<?xml version="1.0" encoding="UTF-8"?>
<svg id="Layer_1" data-name="Layer 1" xmlns="http://www.w3.org/2000/svg" viewBox="0 0 96 96">
  <path d="M78.49,48.94l1.83-5.19c.14.01.28.02.42.02,2.84,0,5.14-2.3,5.14-5.14,0-1.36-.54-2.67-1.5-3.63-2.01-2.01-5.26-2.01-7.27,0-.96.96-1.51,2.27-1.51,3.64,0,.14,0,.29.02.43l-5.19,1.83c-3.17-2.79-6.32-5.13-9.15-6.77-4.66-2.71-7.87-3.24-9.54-1.57-9.49,9.49-9.66,24.82-.53,34.53l-7.15,25.83h-2.77l-4.29-20.84s-.02-.09-.03-.14l-1.11-5.38s0-.05-.02-.07l-5.84-28.4s-.02-.09-.03-.14l-3.67-17.86c3.43-1.39,5.09-5.31,3.7-8.74s-5.31-5.09-8.74-3.7c-3.43,1.39-5.09,5.31-3.7,8.74.66,1.63,1.94,2.94,3.56,3.64l-3.65,17.92s-.02.09-.03.14l-1.79,8.77c-.02.06-.03.11-.03.17l-1.02,5.03c-.01.05-.02.1-.03.15l-2.9,14.24h0s-5.39,26.47-5.39,26.47H2.24c-.72,0-1.3.58-1.3,1.3s.58,1.3,1.3,1.3h72.43c.72,0,1.3-.58,1.3-1.3s-.58-1.3-1.3-1.3h-8.04l-5.35-19.34c8.96,3.04,18.86.74,25.56-5.94,1.67-1.67,1.15-4.88-1.57-9.54-1.65-2.82-3.98-5.97-6.77-9.14h0ZM78.95,36.83c.99-.99,2.6-.99,3.6,0,.99.99.99,2.6,0,3.59-.99.99-2.6.99-3.59,0-.27-.27-.47-.59-.6-.95h0s0,0,0,0c-.32-.92-.09-1.95.6-2.64h0ZM76.48,41.51c.37.55.84,1.01,1.38,1.38l-1.36,3.87c-.62-.66-1.26-1.32-1.91-1.97-.65-.66-1.31-1.29-1.97-1.91l3.86-1.36ZM59.98,36.35c2.36,1.38,4.97,3.27,7.63,5.52l-4.92,1.73c-.68.24-1.03.98-.79,1.66.24.68.98,1.03,1.66.79h0l6.29-2.22c.97.89,1.94,1.81,2.9,2.77.97.96,1.89,1.93,2.78,2.91l-2.22,6.29c-.24.68.12,1.42.79,1.66.68.24,1.42-.12,1.66-.79l1.73-4.92c2.25,2.66,4.15,5.27,5.52,7.63,2.53,4.33,2.28,6.08,1.98,6.39h0c-.31.31-2.06.55-6.39-1.97-3.87-2.26-8.41-5.9-12.77-10.27-2.71-2.69-5.23-5.58-7.52-8.64-.03-.05-.06-.09-.1-.13-.95-1.29-1.84-2.62-2.65-4-2.44-4.18-2.3-5.96-2.01-6.35.01-.01.02-.02.03-.03,0,0,.01-.02.02-.02.36-.3,2.12-.48,6.37,1.99h0ZM53.59,65.78c-1.91-1.91-2.15-5.29-.92-9.26,2.68,4.04,6.14,7.5,10.18,10.18-1.45.47-2.97.73-4.49.76-1.98,0-3.63-.54-4.76-1.68h0ZM59.09,60.29c-2.04-2.03-3.8-4.31-5.24-6.8.94-2.01,2.07-3.92,3.38-5.71,2.1,2.67,4.36,5.21,6.76,7.61,2.4,2.41,4.94,4.67,7.61,6.77-1.79,1.31-3.71,2.44-5.72,3.38-2.49-1.44-4.78-3.2-6.8-5.24ZM51.34,37.93c.52,1.45,1.18,2.84,1.98,4.15.66,1.13,1.43,2.3,2.29,3.51-1.19,1.58-2.26,3.25-3.21,4.99-.64-1.49-1.13-3.05-1.45-4.64-.6-3.01-.45-5.74.39-8.02h0ZM73.78,63.77c1.21.86,2.39,1.63,3.51,2.28,1.32.79,2.71,1.46,4.16,1.98-2.28.84-5.01.99-8.02.39-1.59-.32-3.15-.81-4.64-1.45,1.74-.94,3.41-2.01,5-3.2h0ZM48.03,43.69c.06.93.19,1.85.37,2.76.51,2.5,1.38,4.92,2.57,7.18-.9,2.22-1.43,4.35-1.58,6.3-2.48-5.05-2.97-10.85-1.36-16.24h0ZM19.61,40.54l1.98,1.49-2.7,2.04.72-3.53ZM32.63,63.62l-6.75-5.19,4.91-3.77,1.84,8.96ZM28.61,44.09l-2.71-2.05,1.98-1.5.73,3.55ZM29.4,47.94l.8,3.88-6.46,4.97-6.43-4.94.8-3.93,5.64-4.26,5.66,4.28ZM16.73,54.68l4.88,3.75-6.69,5.14,1.81-8.89ZM12.76,74.16l7.93,3.74-9.62,4.54,1.69-8.28ZM13.3,71.54l.83-4.08,9.61-7.39,9.69,7.44.82,4-10.51,4.95-10.45-4.92ZM34.79,74.13l1.72,8.35-9.72-4.58,8-3.77ZM19.69,13.85c0-2.27,1.83-4.12,4.11-4.12,2.27,0,4.12,1.83,4.12,4.11,0,2.27-1.83,4.12-4.11,4.12-.3,0-.6-.03-.9-.1,0,0,0,0,0,0h0c-1.88-.42-3.21-2.09-3.21-4.01ZM23.77,20.56l3.53,17.16-3.56,2.69-3.56-2.69,3.5-17.16s.06,0,.09,0ZM10.43,85.61l13.31-6.28,13.42,6.33,1.49,7.24H8.94l1.48-7.29ZM63.93,92.9h-17.16l6.59-23.81c1.49,1.26,3.12,2.33,4.87,3.2l5.7,20.61ZM59.95,70.24c-.05-.03-.11-.05-.16-.08-.11-.05-.22-.11-.33-.16.83-.06,1.65-.19,2.47-.37,1.31-.3,2.59-.71,3.83-1.22,2.26,1.19,4.67,2.05,7.18,2.57.92.18,1.86.31,2.8.37-5.22,1.56-10.83,1.17-15.78-1.11h0ZM90.87,48.75c-.51.51-1.33.51-1.84,0s-.51-1.33,0-1.84h0c4.59-4.56,4.61-11.98.05-16.57-4.56-4.59-11.98-4.61-16.57-.05-.02.01-.03.03-.05.05-.51.51-1.33.51-1.84,0-.51-.51-.51-1.33,0-1.84,5.59-5.59,14.66-5.59,20.25,0,5.59,5.59,5.59,14.66,0,20.25ZM73.87,33.59c-.51-.51-.51-1.33,0-1.84,0,0,0,0,0,0,3.8-3.8,9.96-3.8,13.76,0,3.8,3.8,3.8,9.96,0,13.76-.51.51-1.33.51-1.84,0s-.51-1.33,0-1.84h0c2.78-2.78,2.78-7.3,0-10.08-2.78-2.78-7.3-2.78-10.08,0h0c-.51.51-1.33.51-1.84,0,0,0,0,0,0,0h0ZM36.23,2.67c-.48-.53-.44-1.35.1-1.83.53-.48,1.35-.44,1.83.1,6.61,7.35,6.61,18.5,0,25.85-.48.53-1.3.58-1.83.1-.53-.48-.58-1.3-.1-1.83h0c5.72-6.36,5.72-16.01,0-22.37h0ZM9.43,26.78C2.82,19.43,2.82,8.28,9.43.93c.48-.53,1.3-.58,1.83-.1.53.48.58,1.3.1,1.83-5.72,6.36-5.72,16.01,0,22.37.48.53.44,1.36-.1,1.83-.53.48-1.36.44-1.83-.1h0ZM9.71,13.85c0-3.48,1.29-6.84,3.62-9.42.48-.53,1.3-.58,1.83-.1.53.48.58,1.3.1,1.83-3.93,4.37-3.93,10.99,0,15.36.48.53.44,1.35-.09,1.84-.53.48-1.35.44-1.84-.09-2.33-2.58-3.62-5.94-3.62-9.42ZM32.33,6.17c-.48-.53-.44-1.35.1-1.83.53-.48,1.35-.44,1.83.1,4.82,5.35,4.82,13.48,0,18.84-.48.53-1.3.58-1.84.09-.53-.48-.58-1.3-.09-1.84,3.93-4.37,3.93-10.99,0-15.36h0Z" fill="#b1b0b1"/>
</svg>