<?xml version="1.0" encoding="UTF-8"?>
<svg id="Layer_1" data-name="Layer 1" xmlns="http://www.w3.org/2000/svg" viewBox="0 0 96 96">
  <defs>
    <style>
      .cls-1 {
        fill: none;
        stroke: #b1b0b1;
        stroke-miterlimit: 10;
        stroke-width: 3px;
      }
    </style>
  </defs>
  <path class="cls-1" d="M34.74,70.9c1.3,2,8.84,3.54,18,3.58"/>
  <path class="cls-1" d="M52.74,56.1c-9.99.06-18,1.9-18,4.18s8.01,4.12,18,4.17"/>
  <path class="cls-1" d="M52.74,56.1c-9.99.06-18,1.9-18,4.18s8.01,4.12,18,4.17"/>
  <path class="cls-1" d="M52.74,84.49c-.26,0-.52,0-.78-.01h-.15c-8.84-.15-15.95-1.71-16.94-3.69-.09-.16-.13-.32-.13-.48"/>
  <path class="cls-1" d="M34.74,90.93c1.3,1.99,8.84,3.53,18,3.57"/>
  <polyline class="cls-1" points="34.74 90.93 34.74 80.77 34.74 80.3 34.74 78.32 34.74 70.9 34.74 60.28"/>
  <path class="cls-1" d="M51.03,74.49c.29,0,.57,0,.85-.01h.02c1.43-.02,2.81-.08,4.13-.16,1.87-.13,3.63-.33,5.21-.57,1.15-.18,2.2-.39,3.14-.62"/>
  <path class="cls-1" d="M51.02,56.1c9.99.06,18,1.9,18,4.18s-8.01,4.12-18,4.17"/>
  <path class="cls-1" d="M51.02,56.1c9.99.06,18,1.9,18,4.18s-8.01,4.12-18,4.17"/>
  <path class="cls-1" d="M51.03,84.49c5.03-.03,9.55-.51,12.8-1.27"/>
  <path class="cls-1" d="M69.03,90.93c-1.3,1.99-8.84,3.53-18,3.57"/>
  <polyline class="cls-1" points="69.03 66.89 69.03 65.41 69.03 60.83 69.03 60.28"/>
  <circle class="cls-1" cx="78.88" cy="78.97" r="15.53"/>
  <line class="cls-1" x1="78.88" y1="68.57" x2="78.88" y2="87.9"/>
  <path class="cls-1" d="M82.08,73.12h-5.62c-1.41,0-2.56,1.06-2.56,2.37h0c0,1.31,1.14,2.37,2.56,2.37h4.17c1.79,0,3.24.76,3.24,2.42h0c0,1.66-1.45,2.58-3.24,2.58h-5.99"/>
  <path class="cls-1" d="M34.74,73.67C16.17,72.15,1.59,56.61,1.59,37.65,1.59,17.69,17.78,1.5,37.75,1.5s36.15,16.19,36.15,36.15c0,7.77-2.44,14.96-6.62,20.85"/>
  <line class="cls-1" x1="56.79" y1="19.15" x2="40.35" y2="35.52"/>
  <line class="cls-1" x1="33.41" y1="37.14" x2="18.58" y2="30.9"/>
  <circle class="cls-1" cx="37.35" cy="38.38" r="4.13"/>
</svg>