<?xml version="1.0" encoding="UTF-8"?>
<svg id="Layer_1" data-name="Layer 1" xmlns="http://www.w3.org/2000/svg" viewBox="0 0 96 96">
  <defs>
    <style>
      .cls-1 {
        fill: #b1b0b1;
      }
    </style>
  </defs>
  <path class="cls-1" d="M57.2,44.87h-.72c-9.32,0-16.9-7.58-16.9-16.9v-9.97c0-9.32,7.58-16.9,16.9-16.9h.72c9.32,0,16.9,7.58,16.9,16.9v9.97c0,9.32-7.58,16.9-16.9,16.9ZM56.47,4.09c-7.67,0-13.9,6.24-13.9,13.9v9.97c0,7.67,6.24,13.9,13.9,13.9h.72c7.67,0,13.9-6.24,13.9-13.9v-9.97c0-7.67-6.24-13.9-13.9-13.9h-.72Z"/>
  <path class="cls-1" d="M47.88,22.42c-2.47,0-4.97-.44-7.35-1.35l1.08-2.8c7.2,2.77,15.7.44,19.77-5.42.32-.46.88-.7,1.44-.63.56.08,1.03.47,1.21,1,1.06,3.11,4.66,5.07,8.37,4.56l.41,2.97c-4.18.57-8.29-1.22-10.48-4.33-3.59,3.84-8.96,5.99-14.45,5.99Z"/>
  <rect class="cls-1" x="48.81" y="25.11" width="3" height="2.58"/>
  <rect class="cls-1" x="62.95" y="25.11" width="3" height="2.58"/>
  <path class="cls-1" d="M56.89,56.9c-2.2,0-4.27-.86-5.84-2.41-1.33-1.35-2.17-3.09-2.38-4.93-.04-.3-.05-.61-.05-.92v-6.7h3v6.7c0,.19,0,.39.03.58.13,1.18.67,2.3,1.52,3.15.99.99,2.32,1.54,3.72,1.54,2.68,0,4.92-2,5.23-4.66.04-.24.04-.42.04-.61v-6.74h3v6.74c0,.27,0,.63-.07,1.01-.47,4.11-3.99,7.26-8.2,7.26Z"/>
  <path class="cls-1" d="M94.5,85.72h-51.97v-3h50.47v-14.42c0-5.91-3.75-11.13-9.34-13.02l-18.91-4.09c-1.08,3.35-4.22,5.71-7.86,5.71-2.2,0-4.27-.86-5.84-2.41-.93-.94-1.62-2.08-2.02-3.3l-11.07,2.51-.66-2.93,12.54-2.84c.42-.09.85,0,1.2.24s.57.63.62,1.06c.13,1.17.67,2.28,1.52,3.14.99.99,2.32,1.54,3.72,1.54,2.68,0,4.92-2,5.23-4.66.05-.42.27-.8.62-1.05s.78-.34,1.19-.25l20.45,4.42c.05.01.1.03.15.04,6.86,2.27,11.47,8.65,11.47,15.89v15.92c0,.83-.67,1.5-1.5,1.5Z"/>
  <rect class="cls-1" x="79.53" y="64.74" width="3" height="19.78"/>
  <path class="cls-1" d="M24.26,94.91C10.88,94.91,0,84.02,0,70.64s10.88-24.26,24.26-24.26,24.26,10.88,24.26,24.26-10.88,24.26-24.26,24.26ZM24.26,49.38c-11.73,0-21.26,9.54-21.26,21.26s9.54,21.26,21.26,21.26,21.26-9.54,21.26-21.26-9.54-21.26-21.26-21.26Z"/>
  <path class="cls-1" d="M34.11,83.97l-10.55-12.62h-6.45v-3h7.15c.44,0,.87.2,1.15.54l11,13.16-2.3,1.92Z"/>
  <rect class="cls-1" x="22.91" y="52.42" width="3" height="3.55"/>
  <rect class="cls-1" x="22.11" y="84.53" width="3" height="3.55"/>
  <rect class="cls-1" x="38.29" y="69.14" width="3.55" height="3"/>
  <rect class="cls-1" x="6.18" y="68.35" width="3.55" height="3"/>
</svg>