<?xml version="1.0" encoding="utf-8"?>
<!-- Generator: Adobe Illustrator 27.9.6, SVG Export Plug-In . SVG Version: 9.03 Build 54986)  -->
<svg version="1.1" xmlns="http://www.w3.org/2000/svg" xmlns:xlink="http://www.w3.org/1999/xlink" x="0px" y="0px"
	 viewBox="0 0 96 96" enable-background="new 0 0 96 96" xml:space="preserve">
<g id="background">
</g>
<g id="Capa_1">
	<g>
		<path fill="#B1B0B1" d="M30.1,21.3h35.8c0.7,0,1.2-0.6,1.2-1.2c0-0.7-0.5-1.2-1.2-1.2H30.1c-0.7,0-1.2,0.6-1.2,1.2
			C28.9,20.7,29.4,21.3,30.1,21.3L30.1,21.3z"/>
		<path fill="#B1B0B1" d="M16,15.3v73.9c0,2.1,1.7,3.8,3.9,3.9h56.4c2.1,0,3.8-1.7,3.9-3.9V15.3c0-2.1-1.7-3.9-3.9-3.9H57.5
			c-0.6-5.2-5.4-9-10.6-8.4c-4.4,0.5-7.8,4-8.3,8.4H19.8C17.7,11.4,16,13.1,16,15.3L16,15.3z M77.6,89.1c0,0.8-0.6,1.4-1.4,1.4H19.8
			c-0.8,0-1.4-0.6-1.4-1.4v-62h59.2L77.6,89.1L77.6,89.1z M48,5.4c3.5,0,6.4,2.5,7,6H41.1C41.6,8,44.5,5.5,48,5.4L48,5.4z
			 M76.2,13.9c0.8,0,1.4,0.6,1.4,1.4v9.4H18.4v-9.4c0-0.8,0.6-1.4,1.4-1.4H76.2z"/>
		<path fill="#B1B0B1" d="M40.8,40.7h29.1c0.7,0,1.2-0.6,1.2-1.2c0-0.7-0.6-1.2-1.2-1.2H40.8c-0.7,0-1.2,0.5-1.2,1.2
			C39.6,40.2,40.1,40.7,40.8,40.7L40.8,40.7z"/>
		<path fill="#B1B0B1" d="M40.8,53.6h29.1c0.7,0,1.2-0.6,1.2-1.2c0-0.7-0.6-1.2-1.2-1.2H40.8c-0.7,0-1.2,0.6-1.2,1.2
			C39.6,53,40.1,53.6,40.8,53.6L40.8,53.6z"/>
		<path fill="#B1B0B1" d="M40.8,66.4h29.1c0.7,0,1.2-0.6,1.2-1.2c0-0.7-0.6-1.2-1.2-1.2H40.8c-0.7,0-1.2,0.6-1.2,1.2
			C39.6,65.8,40.1,66.4,40.8,66.4L40.8,66.4z"/>
		<path fill="#B1B0B1" d="M40.8,79.2h29.1c0.7,0,1.2-0.5,1.2-1.2c0-0.7-0.6-1.2-1.2-1.2H40.8c-0.7,0-1.2,0.5-1.2,1.2
			C39.6,78.7,40.1,79.2,40.8,79.2L40.8,79.2z"/>
		<path fill="#B1B0B1" d="M28.5,41.4c0.2,0.3,0.5,0.5,0.8,0.5h0.2c0.3,0,0.5-0.1,0.8-0.3l7.8-6.1c0.6-0.3,0.8-1.1,0.5-1.7
			c-0.3-0.6-1.1-0.8-1.7-0.4c-0.1,0.1-0.2,0.1-0.3,0.2L29.8,39l-1.2-1.7c-0.4-0.6-1.2-0.7-1.7-0.3c-0.6,0.4-0.7,1.2-0.3,1.7
			L28.5,41.4z"/>
		<path fill="#B1B0B1" d="M28.5,54.1c0.2,0.3,0.5,0.5,0.8,0.5h0.2c0.3,0,0.5-0.1,0.8-0.3l7.8-6.1c0.6-0.4,0.7-1.2,0.3-1.7
			c-0.4-0.5-1.2-0.7-1.7-0.3c0,0,0,0-0.1,0l-6.8,5.3l-1.2-1.7c-0.3-0.6-1-0.9-1.6-0.6c-0.6,0.3-0.9,1-0.6,1.7c0,0.1,0.1,0.2,0.2,0.3
			L28.5,54.1z"/>
		<path fill="#B1B0B1" d="M28.5,66.7c0.2,0.3,0.5,0.5,0.8,0.5h0.2c0.3,0,0.5-0.1,0.8-0.3l7.8-6.1c0.6-0.4,0.7-1.2,0.3-1.7
			c-0.4-0.5-1.2-0.7-1.7-0.3c0,0,0,0-0.1,0l-6.8,5.3l-1.2-1.7c-0.4-0.6-1.2-0.7-1.7-0.3c-0.6,0.4-0.7,1.2-0.3,1.7L28.5,66.7z"/>
		<path fill="#B1B0B1" d="M28.5,79.6c0.2,0.3,0.5,0.5,0.8,0.5h0.2c0.3,0,0.5-0.1,0.8-0.3l7.8-6.1c0.6-0.4,0.7-1.1,0.4-1.7
			c-0.4-0.6-1.1-0.7-1.7-0.4c-0.1,0-0.1,0.1-0.2,0.2l-6.8,5.3l-1.2-1.7c-0.4-0.6-1.2-0.7-1.7-0.3c-0.6,0.4-0.7,1.2-0.3,1.7
			L28.5,79.6z"/>
	</g>
</g>
</svg>
