<?xml version="1.0" encoding="UTF-8"?>
<svg id="Capa_1" data-name="Capa 1" xmlns="http://www.w3.org/2000/svg" viewBox="0 0 96 96">
  <defs>
    <style>
      .cls-1 {
        fill: #b1b0b1;
      }
    </style>
  </defs>
  <path class="cls-1" d="M1,71.11c.36-1.67.56-3.36,1.12-4.99,3.14-9.08,11.24-14.96,20.92-14.99,16.64-.06,33.27-.07,49.91,0,11.05.05,19.87,7.67,21.76,18.58,1.7,9.81-4.35,20.26-13.71,23.74-2.76,1.02-5.59,1.52-8.52,1.52-16.33,0-32.66.05-48.99-.02-9.49-.04-16.36-4.43-20.55-12.96-.96-1.96-1.48-4.07-1.76-6.23-.04-.33-.12-.65-.18-.98,0-1.22,0-2.45,0-3.67ZM4.15,73.76c.24,4.53,1.84,8.47,4.83,11.83.23.26.41.37.76.18.6-.33,1.2-.21,1.69.25.46.43.65.98.4,1.58-.17.42,0,.59.31.8,3.03,2.12,6.4,3.25,10.1,3.43.39.02.67.03.81-.49.18-.69.74-1.04,1.46-1.03.71.01,1.25.37,1.43,1.07.12.46.38.47.74.47,1.68,0,3.36,0,5.05,0,.37,0,.59-.04.71-.48.19-.69.73-1.05,1.44-1.05.71,0,1.25.35,1.44,1.05.12.42.35.5.73.49,1.71-.01,3.43-.01,5.14,0,.36,0,.52-.1.63-.47.2-.69.72-1.07,1.43-1.08.71,0,1.26.32,1.46,1.02.13.47.4.52.8.52,1.65-.01,3.3-.02,4.95,0,.42,0,.66-.09.79-.53.21-.7.76-1.02,1.47-1.01.68.01,1.21.36,1.38,1.01.14.54.45.53.87.53,1.59-.01,3.18-.02,4.77,0,.47,0,.78-.04.93-.6.18-.64.75-.95,1.42-.94.68,0,1.23.35,1.4.99.14.53.42.56.85.55,1.62-.01,3.24-.02,4.86,0,.44,0,.7-.06.85-.58.18-.64.73-.96,1.41-.96.64,0,1.22.29,1.37.88.18.68.56.66,1.08.63,3.53-.21,6.76-1.29,9.69-3.27.44-.3.66-.53.48-1.15-.3-1.05.79-2.11,1.8-1.72.78.3,1.09,0,1.47-.51.39-.54.81-1.07,1.21-1.61.14-.19.28-.37.22-.66-.2-.91.14-1.55,1.02-1.89.18-.07.31-.17.39-.36.95-2.18,1.53-4.45,1.59-6.91-1.03.97-1.84,1.1-2.55.45-.6-.54-.67-1.43-.17-2.07.34-.44.8-.64,1.36-.61.58.03.92.47,1.38.86-.1-2.23-.53-4.28-1.34-6.25-.21-.51-.39-.96-1-1.2-.54-.21-.85-.77-.71-1.36.13-.53-.05-.88-.35-1.25-.46-.57-.92-1.14-1.36-1.73-.25-.33-.47-.46-.9-.23-.56.29-1.14.17-1.61-.27-.43-.4-.65-.93-.44-1.49.18-.48.03-.69-.35-.95-3.02-2.09-6.37-3.19-10.03-3.38-.46-.02-.69.07-.84.57-.19.64-.75.96-1.42.96-.67,0-1.23-.33-1.41-.97-.14-.52-.41-.58-.85-.58-1.62.02-3.24.02-4.86,0-.44,0-.71.04-.85.57-.17.64-.73.98-1.4.98-.66,0-1.22-.3-1.42-.95-.15-.47-.37-.61-.84-.6-1.65.03-3.3.02-4.95,0-.42,0-.64.08-.77.54-.18.65-.72.99-1.39,1.01-.7.01-1.26-.31-1.47-1.01-.13-.44-.36-.55-.78-.54-1.65.02-3.3.02-4.95,0-.4,0-.67.05-.8.52-.19.71-.76,1.04-1.46,1.03-.7,0-1.25-.38-1.43-1.07-.12-.45-.36-.47-.72-.47-1.68,0-3.36.01-5.05,0-.38,0-.62.07-.73.49-.19.71-.74,1.05-1.44,1.06-.71,0-1.26-.36-1.45-1.05-.12-.43-.33-.5-.7-.5-1.68.01-3.36.01-5.05,0-.42,0-.64.09-.77.56-.18.64-.73.98-1.4.99-.71,0-1.28-.33-1.47-1.02-.13-.5-.4-.52-.8-.5-3.69.18-7.07,1.29-10.1,3.42-.29.21-.51.37-.32.8.25.59.06,1.15-.39,1.58-.49.47-1.08.56-1.69.27-.27-.13-.48-.21-.7.09-.57.76-1.51,1.43-1.66,2.26-.22,1.22-.95,1.93-1.54,2.88-1.24,1.98-1.59,4.36-1.66,6.78,1.26-1.12,1.79-1.12,3.04,0,.13-.86.22-1.7.4-2.53.7-3.3,2.26-6.16,4.83-8.34,2.5-2.13,5.25-3.81,8.72-3.99,2.04-.11,4.03-.04,5.99.52.42.12.73.13,1.07-.22.45-.46,1.04-.5,1.61-.23.57.27.92.74.88,1.38-.03.44.13.69.49.87,1.35.68,2.24,1.98,3.6,2.65.2.1.4.34.46.55.37,1.39,1.48,2.38,1.94,3.72.11.33.25.45.67.27,1.01-.41,1.89-.02,2.17.85.3.93-.21,1.77-1.31,1.99-.42.08-.47.22-.4.6.32,1.73.32,3.47,0,5.2-.07.37-.04.52.39.6,1.09.21,1.61,1.05,1.32,1.99-.26.84-1.18,1.29-2.08.9-.5-.22-.62-.06-.8.33-1.3,2.9-3.31,5.18-6.01,6.86-.32.2-.47.4-.45.8.03.68-.32,1.16-.94,1.44-.59.27-1.15.16-1.61-.28-.24-.24-.48-.36-.81-.24-2.47.92-5.06.51-7.6.67-.31.02-.61-.1-.83-.32-.3-.29-.68-.4-1.05-.53-5.53-2.05-8.97-5.94-10.28-11.7-.18-.78-.26-1.57-.39-2.42-1.16,1.16-1.7,1.16-3.05.04ZM35.45,73.27c.24-6.74-5.26-12.46-12.26-12.75-6.72-.28-12.51,5.24-12.8,12.21-.28,6.78,5.26,12.59,12.26,12.85,6.79.25,12.55-5.29,12.8-12.3Z"/>
  <path class="cls-1" d="M74.77,1.01c2.07.37,4.13.73,6.13,1.46,9.48,3.51,15.47,13.87,13.76,23.86-1.58,9.16-8,15.95-17.06,18.02-1.64.37-3.32.51-5.01.51-16.39,0-32.78,0-49.17,0-9.91,0-17.94-5.68-21.28-15.01-.6-1.67-.79-3.44-1.13-5.17,0-1.16,0-2.32,0-3.49.06-.32.13-.65.18-.97C2.54,11.61,7.26,5.67,15.34,2.39c1.88-.76,3.88-1.01,5.85-1.38h53.58ZM47.97,41.74c8.16,0,16.33,0,24.49,0,2.53,0,4.98-.41,7.36-1.29,8.45-3.13,13.66-12.79,11.57-21.51-2.13-8.88-9.45-14.77-18.54-14.79-16.57-.04-33.14-.02-49.72,0-3.76,0-7.22,1.02-10.41,3.03C4.36,12.45,1.58,24.02,6.75,32.44c3.78,6.15,9.36,9.23,16.55,9.28,8.22.06,16.45.01,24.67.01Z"/>
  <path class="cls-1" d="M82.41,73.01c.02.81-.66,1.53-1.47,1.58-.86.05-1.59-.64-1.61-1.51-.02-.83.63-1.53,1.45-1.58.83-.05,1.61.67,1.63,1.52Z"/>
  <path class="cls-1" d="M63.6,73.02c.01.87-.69,1.59-1.55,1.58-.81,0-1.52-.71-1.53-1.52-.02-.84.73-1.59,1.57-1.58.82.01,1.5.7,1.51,1.52Z"/>
  <path class="cls-1" d="M52.66,74.59c-.8,0-1.52-.72-1.54-1.52-.02-.83.74-1.59,1.57-1.58.84.01,1.56.77,1.52,1.62-.03.81-.75,1.5-1.56,1.49Z"/>
  <path class="cls-1" d="M44.84,73.08c-.02.85-.79,1.56-1.64,1.51-.82-.05-1.48-.76-1.46-1.58.02-.84.79-1.56,1.62-1.51.8.05,1.5.79,1.47,1.58Z"/>
  <path class="cls-1" d="M43.29,80.88c.79,0,1.52.73,1.54,1.53.02.85-.71,1.58-1.57,1.57-.87,0-1.56-.73-1.53-1.59.03-.81.75-1.51,1.55-1.5Z"/>
  <path class="cls-1" d="M71.44,74.59c-.86-.02-1.53-.75-1.49-1.62.04-.83.74-1.49,1.56-1.47.86.02,1.53.76,1.49,1.63-.04.84-.73,1.49-1.56,1.47Z"/>
  <path class="cls-1" d="M54.22,82.46c-.01.87-.73,1.55-1.61,1.51-.82-.03-1.5-.74-1.49-1.55.01-.79.74-1.52,1.53-1.54.84-.02,1.58.73,1.57,1.58Z"/>
  <path class="cls-1" d="M66.77,60.49c-.87,0-1.57-.72-1.54-1.58.02-.81.74-1.51,1.54-1.51.83,0,1.58.78,1.55,1.61-.03.82-.73,1.49-1.55,1.49Z"/>
  <path class="cls-1" d="M77.71,58.93c.01.86-.7,1.57-1.56,1.56-.82,0-1.52-.7-1.53-1.51-.02-.83.75-1.6,1.58-1.58.81.01,1.51.72,1.52,1.53Z"/>
  <path class="cls-1" d="M43.29,62.11c.81,0,1.52.7,1.54,1.51.02.83-.74,1.6-1.57,1.59-.8,0-1.51-.72-1.53-1.52-.02-.86.69-1.58,1.55-1.57Z"/>
  <path class="cls-1" d="M54.22,63.63c.01.85-.73,1.6-1.56,1.58-.79-.01-1.52-.74-1.53-1.54-.02-.8.67-1.52,1.49-1.56.87-.04,1.6.65,1.61,1.51Z"/>
  <path class="cls-1" d="M63.6,63.69c-.02.82-.71,1.51-1.53,1.52-.83,0-1.58-.76-1.55-1.59.02-.82.72-1.5,1.54-1.5.87,0,1.56.7,1.54,1.58Z"/>
  <path class="cls-1" d="M66.75,69.88c-.84-.01-1.51-.68-1.52-1.51,0-.86.71-1.57,1.57-1.56.81.01,1.51.71,1.53,1.52.01.85-.71,1.56-1.58,1.55Z"/>
  <path class="cls-1" d="M68.32,77.7c.03.8-.65,1.53-1.47,1.58-.85.05-1.61-.64-1.63-1.49-.02-.83.62-1.52,1.46-1.57.88-.04,1.61.62,1.64,1.48Z"/>
  <path class="cls-1" d="M77.71,77.78c-.02.82-.71,1.5-1.53,1.51-.84,0-1.59-.75-1.56-1.58.02-.86.76-1.53,1.63-1.49.84.04,1.48.72,1.46,1.56Z"/>
  <path class="cls-1" d="M77.71,68.39c-.02.87-.74,1.53-1.63,1.48-.83-.04-1.49-.75-1.47-1.56.03-.85.78-1.54,1.64-1.49.83.05,1.48.74,1.46,1.57Z"/>
  <path class="cls-1" d="M82.42,63.67c-.01.8-.73,1.52-1.53,1.54-.85.02-1.57-.71-1.56-1.57,0-.88.72-1.55,1.59-1.52.82.03,1.5.74,1.49,1.55Z"/>
  <path class="cls-1" d="M58.92,87.11c.02.83-.73,1.59-1.56,1.59-.81,0-1.5-.7-1.52-1.52-.01-.84.62-1.53,1.46-1.57.86-.04,1.61.65,1.63,1.5Z"/>
  <path class="cls-1" d="M66.77,85.6c.82,0,1.52.68,1.55,1.5.03.82-.73,1.6-1.56,1.6-.84,0-1.56-.76-1.54-1.61.03-.82.72-1.49,1.54-1.49Z"/>
  <path class="cls-1" d="M76.14,85.6c.86-.02,1.58.69,1.57,1.55,0,.81-.71,1.52-1.51,1.54-.82.02-1.6-.74-1.59-1.57,0-.81.71-1.51,1.52-1.52Z"/>
  <path class="cls-1" d="M40.12,87.13c0,.86-.73,1.59-1.57,1.56-.8-.02-1.51-.76-1.51-1.55,0-.81.68-1.52,1.5-1.54.87-.03,1.58.65,1.58,1.53Z"/>
  <path class="cls-1" d="M40.12,58.94c0,.88-.68,1.56-1.57,1.55-.82-.02-1.51-.71-1.51-1.53,0-.84.76-1.59,1.59-1.56.82.02,1.49.72,1.5,1.54Z"/>
  <path class="cls-1" d="M49.51,58.91c.02.88-.65,1.58-1.53,1.58-.85,0-1.5-.64-1.53-1.49-.02-.87.67-1.6,1.53-1.6.81,0,1.51.69,1.53,1.51Z"/>
  <path class="cls-1" d="M58.92,59.06c-.07.87-.82,1.5-1.7,1.41-.84-.08-1.42-.78-1.37-1.64.05-.82.78-1.49,1.59-1.44.84.04,1.54.83,1.47,1.67Z"/>
  <path class="cls-1" d="M73,63.62c.01.87-.69,1.59-1.55,1.58-.81-.01-1.5-.71-1.52-1.53-.01-.88.68-1.57,1.55-1.56.84,0,1.5.67,1.51,1.51Z"/>
  <path class="cls-1" d="M62.08,83.97c-.83,0-1.52-.66-1.55-1.49-.03-.84.7-1.6,1.54-1.61.81,0,1.51.69,1.54,1.51.02.89-.65,1.58-1.53,1.58Z"/>
  <path class="cls-1" d="M71.51,83.97c-.88.02-1.57-.66-1.57-1.54,0-.83.67-1.52,1.49-1.55.82-.02,1.52.64,1.56,1.47.04.89-.61,1.6-1.49,1.62Z"/>
  <path class="cls-1" d="M80.89,83.98c-.88.01-1.57-.67-1.56-1.56,0-.82.69-1.52,1.51-1.53.83-.02,1.59.74,1.57,1.57-.01.82-.7,1.51-1.52,1.52Z"/>
  <path class="cls-1" d="M48.02,88.69c-.82.03-1.52-.64-1.56-1.47-.04-.88.61-1.6,1.49-1.62.84-.02,1.52.61,1.56,1.45.04.87-.63,1.61-1.49,1.64Z"/>
  <path class="cls-1" d="M87.09,68.39c-.02.85-.67,1.48-1.52,1.49-.87,0-1.58-.71-1.55-1.57.03-.82.72-1.49,1.54-1.5.87,0,1.55.7,1.53,1.58Z"/>
  <path class="cls-1" d="M58.92,68.38c-.02.86-.75,1.53-1.63,1.49-.85-.04-1.47-.71-1.45-1.56.02-.87.74-1.54,1.61-1.5.82.04,1.49.75,1.47,1.57Z"/>
  <path class="cls-1" d="M49.51,77.75c0,.87-.72,1.57-1.58,1.54-.83-.03-1.48-.71-1.48-1.54,0-.88.69-1.55,1.58-1.52.84.02,1.48.68,1.48,1.53Z"/>
  <path class="cls-1" d="M57.37,79.29c-.87,0-1.55-.72-1.52-1.6.03-.85.68-1.48,1.54-1.47.87,0,1.57.73,1.54,1.58-.03.81-.75,1.49-1.56,1.49Z"/>
  <path class="cls-1" d="M87.09,77.75c0,.84-.65,1.51-1.49,1.54-.85.03-1.59-.69-1.59-1.54,0-.82.68-1.51,1.5-1.53.89-.02,1.57.65,1.57,1.53Z"/>
  <path class="cls-1" d="M49.51,68.32c.02.84-.61,1.52-1.45,1.56-.88.04-1.59-.62-1.6-1.49-.02-.88.67-1.57,1.54-1.56.84,0,1.5.66,1.51,1.5Z"/>
  <path class="cls-1" d="M88.7,22.92c.02,8.57-7.01,15.63-15.62,15.69-8.58.05-15.75-7.11-15.71-15.7.03-8.6,7.09-15.64,15.67-15.64,8.58,0,15.64,7.06,15.66,15.65ZM72.81,35.46c6.74.24,12.5-5.3,12.75-12.26.25-6.79-5.32-12.59-12.3-12.8-6.8-.21-12.55,5.35-12.75,12.35-.2,6.76,5.32,12.46,12.31,12.71Z"/>
</svg>