<?xml version="1.0" encoding="UTF-8"?>
<svg id="Layer_1" data-name="Layer 1" xmlns="http://www.w3.org/2000/svg" viewBox="0 0 96 96">
  <defs>
    <style>
      .cls-1 {
        fill: #b1b0b1;
      }
    </style>
  </defs>
  <path class="cls-1" d="M67.46,70.31H18.25c-4.4,0-8.53-1.76-11.63-4.97-3.09-3.19-4.79-7.43-4.79-11.93,0-9.32,7.37-16.91,16.42-16.91h12.76v3h-12.76c-7.4,0-13.42,6.24-13.42,13.91,0,3.72,1.4,7.21,3.95,9.84,2.53,2.62,5.9,4.06,9.48,4.06h49.21v3Z"/>
  <path class="cls-1" d="M76.15,39.51h-11.33v-3h11.33c3.56,0,6.91-1.43,9.43-4.03,2.53-2.62,3.93-6.1,3.93-9.8,0-7.63-5.99-13.84-13.36-13.84H19.45v-3h56.7c9.02,0,16.36,7.55,16.36,16.84,0,4.49-1.7,8.71-4.78,11.89-3.09,3.19-7.2,4.94-11.58,4.94Z"/>
  <path class="cls-1" d="M80.57,90.9l-1.11-1.24c-.58-.65-14.31-15.98-14.31-24.4s6.92-15.88,15.42-15.88,15.43,7.12,15.43,15.88-13.73,23.75-14.31,24.4l-1.11,1.24ZM80.57,52.38c-6.85,0-12.42,5.78-12.42,12.88,0,5.51,8.14,16.13,12.42,21.12,4.29-4.99,12.43-15.62,12.43-21.12,0-7.1-5.57-12.88-12.43-12.88Z"/>
  <path class="cls-1" d="M80.57,75.72c-5.1,0-9.26-4.26-9.26-9.51s4.15-9.51,9.26-9.51,9.26,4.26,9.26,9.51-4.15,9.51-9.26,9.51ZM80.57,59.71c-3.45,0-6.26,2.92-6.26,6.51s2.81,6.51,6.26,6.51,6.26-2.92,6.26-6.51-2.81-6.51-6.26-6.51Z"/>
  <path class="cls-1" d="M62.1,50.82h-28.35c-2.33,0-4.22-1.89-4.22-4.22v-26.26c0-2.18,1.77-3.95,3.95-3.95h28.9c2.18,0,3.95,1.77,3.95,3.95v26.26c0,2.33-1.89,4.22-4.22,4.22ZM33.47,19.39c-.52,0-.95.43-.95.95v26.26c0,.67.55,1.22,1.22,1.22h28.35c.67,0,1.22-.55,1.22-1.22v-26.26c0-.52-.43-.95-.95-.95h-28.9Z"/>
  <rect class="cls-1" x="31.02" y="34.09" width="33.8" height="3"/>
  <rect class="cls-1" x="43.39" y="40.1" width="10.26" height="3"/>
  <rect class="cls-1" x="56.34" y="40.1" width="2.88" height="3"/>
  <rect class="cls-1" x="37.84" y="40.31" width="2.64" height="3"/>
  <path class="cls-1" d="M38.07,58.61c-3.09,0-5.6-2.51-5.6-5.6v-5.18h11.21v5.18c0,3.09-2.51,5.6-5.6,5.6ZM35.46,50.82v2.18c0,1.44,1.17,2.6,2.6,2.6s2.6-1.17,2.6-2.6v-2.18h-5.21Z"/>
  <path class="cls-1" d="M57.47,58.61c-3.09,0-5.6-2.57-5.6-5.74v-3.55h3v3.55c0,1.51,1.17,2.74,2.6,2.74s2.6-1.23,2.6-2.74v-3.55h3v3.55c0,3.16-2.51,5.74-5.6,5.74Z"/>
  <rect class="cls-1" x="1.5" y="5.85" width="13.36" height="3"/>
</svg>