<?xml version="1.0" encoding="UTF-8"?>
<svg id="Layer_1" data-name="Layer 1" xmlns="http://www.w3.org/2000/svg" viewBox="0 0 96 96">
  <path d="M29.99,27.96v45.09c0,.91-.73,1.64-1.64,1.64s-1.64-.73-1.64-1.64V27.96c0-.91.73-1.64,1.64-1.64s1.64.73,1.64,1.64ZM42.98,26.32c-.9,0-1.64.73-1.64,1.64v45.09c0,.91.73,1.64,1.64,1.64s1.64-.73,1.64-1.64V27.96c0-.91-.73-1.64-1.64-1.64ZM55.98,46.83v-18.87c0-.91.73-1.64,1.64-1.64s1.64.73,1.64,1.64v18.87c0,.91-.73,1.64-1.64,1.64s-1.64-.73-1.64-1.64ZM81.55,58.87l-8.83-2.46V20.83c0-3.63-2.96-6.59-6.59-6.59h-10.76V4.12c0-2-1.63-3.62-3.62-3.62h-17.51c-2,0-3.62,1.63-3.62,3.62v10.11h-10.76c-3.63,0-6.59,2.96-6.59,6.59v59.36c0,3.57,2.85,6.47,6.4,6.57v4.89c0,2.12,1.73,3.85,3.85,3.85h5.35c2.13,0,3.85-1.73,3.85-3.85v-4.87h20.22c1.93,2.93,4.47,5.21,7.42,6.49l4.59,1.99c.18.11.37.17.57.21.1.02.2.03.31.03.3,0,.6-.08.87-.24l4.57-1.98c6.87-2.98,11.48-11.35,11.48-20.83v-11.99c0-.74-.49-1.38-1.2-1.58h0ZM33.88,4.12c0-.19.16-.35.35-.35h17.51c.19,0,.35.16.35.35v10.11h-18.2V4.12ZM29.44,91.65c0,.32-.26.58-.58.58h-5.35c-.32,0-.58-.26-.58-.58v-4.87h6.51v4.87h0ZM19.85,83.5c-1.83,0-3.32-1.49-3.32-3.32V20.83c0-1.83,1.49-3.32,3.32-3.32h46.28c1.83,0,3.32,1.49,3.32,3.32v34.67l-2.96-.83c-.11-.05-.23-.08-.35-.1-.27-.06-.54-.05-.8.02l-15.26,4.28c-.71.2-1.19.84-1.19,1.58v11.99c0,3.99.83,7.78,2.29,11.06h-31.31,0ZM79.47,72.44c0,8.2-3.82,15.36-9.51,17.82l-4.15,1.8-4.15-1.8c-5.69-2.46-9.51-9.62-9.51-17.82v-10.75l13.61-3.82,13.71,3.82v10.75h0ZM59.9,71.3c-.64-.64-1.68-.64-2.32,0s-.64,1.68,0,2.32l5.51,5.51c.32.32.74.48,1.16.48s.84-.16,1.16-.48l9.83-9.83c.64-.64.64-1.68,0-2.32s-1.68-.64-2.32,0l-8.67,8.67-4.35-4.35h0Z" fill="#b1b0b1"/>
</svg>