<?xml version="1.0" encoding="UTF-8"?>
<svg id="Capa_1" data-name="Capa 1" xmlns="http://www.w3.org/2000/svg" viewBox="0 0 96 96">
  <path d="M53.16.63c-19.48,0-35.32,15.84-35.32,35.32v1.13l-10.16,18.88c-.38.71-.06,1.61.67,1.93l9.49,4.07v19.75c0,.76.62,1.38,1.38,1.38h19.48l2.79,10.77c.19.75,1,1.2,1.74.98.7-.21,1.12-.96.94-1.67l-3.06-11.8c-.16-.61-.71-1.04-1.34-1.04h-19.16v-19.27c0-.55-.33-1.05-.84-1.27l-8.94-3.83,9.61-17.85c.11-.2.17-.43.17-.66v-1.48C20.61,18,35.21,3.4,53.16,3.4s32.55,14.6,32.55,32.55c0,10.28-4.71,19.74-12.91,25.96-.46.35-.65.94-.49,1.5l2.54,8.58c.22.73.99,1.15,1.72.93.73-.22,1.15-.99.93-1.72l-2.28-7.68c3.92-3.14,7.17-7.13,9.43-11.59,2.53-4.98,3.81-10.35,3.81-15.98C88.48,16.48,72.64.63,53.16.63Z" fill="#b1b0b1"/>
  <path d="M79.28,77.18c-.22-.73-.99-1.15-1.72-.93-.73.22-1.15.99-.93,1.72l4.72,15.93c.22.75,1.05,1.17,1.79.91.68-.24,1.06-1,.86-1.69l-4.72-15.93Z" fill="#b1b0b1"/>
  <path d="M67.83,35.95c0-8.08-6.58-14.66-14.66-14.66s-14.66,6.58-14.66,14.66c0,5.31,2.8,10.11,7.38,12.73v.65h-.09c-.76,0-1.38.62-1.38,1.38v3.04h-.09c-.76,0-1.38.62-1.38,1.38s.62,1.38,1.38,1.38h.09v1.48h-.09c-.76,0-1.38.62-1.38,1.38s.62,1.38,1.38,1.38h.19c.57,3.45,3.58,6.09,7.19,6.09h2.95c3.61,0,6.61-2.64,7.18-6.09h.19c.76,0,1.38-.62,1.38-1.38s-.62-1.38-1.38-1.38h-.09v-1.48h.09c.76,0,1.38-.62,1.38-1.38s-.62-1.38-1.38-1.38h-.09v-3.04c0-.76-.62-1.38-1.38-1.38h-.09v-.65c4.57-2.61,7.38-7.41,7.38-12.73ZM54.64,64.08h-2.95c-2.08,0-3.83-1.41-4.36-3.32h11.66c-.53,1.91-2.28,3.32-4.36,3.32ZM59.16,57.99h-11.99v-1.48h11.99v1.48ZM59.16,53.75h-11.99v-1.66h11.99v1.66ZM58.45,46.61c-.47.23-.77.71-.77,1.24v1.48h-3.14v-9.04h3.04c.76,0,1.38-.62,1.38-1.38v-4.43c0-.76-.62-1.38-1.38-1.38s-1.38.62-1.38,1.38v3.04h-6.09v-3.04c0-.76-.62-1.38-1.38-1.38s-1.38.62-1.38,1.38v4.43c0,.76.62,1.38,1.38,1.38h3.04v9.04h-3.14v-1.48c0-.52-.3-1-.77-1.24-4.08-2.03-6.61-6.11-6.61-10.66,0-6.56,5.34-11.9,11.9-11.9s11.9,5.34,11.9,11.9c0,4.55-2.53,8.63-6.61,10.66Z" fill="#b1b0b1"/>
  <path d="M54.55,18.25v-2.95c0-.76-.62-1.38-1.38-1.38s-1.38.62-1.38,1.38v2.95c0,.76.62,1.38,1.38,1.38s1.38-.62,1.38-1.38Z" fill="#b1b0b1"/>
  <path d="M44.31,22c1.05,0,1.72-1.17,1.2-2.08l-1.48-2.56c-.38-.66-1.23-.89-1.89-.51-.66.38-.89,1.23-.51,1.89.49.85.97,1.7,1.47,2.54.26.43.7.71,1.21.71Z" fill="#b1b0b1"/>
  <path d="M37.14,28.3c.71.41,1.63.1,1.96-.64.28-.64.03-1.4-.58-1.75l-2.56-1.48c-.66-.38-1.51-.16-1.89.51-.38.66-.16,1.51.51,1.89l2.56,1.48Z" fill="#b1b0b1"/>
  <path d="M31.12,35.95c0,.76.62,1.38,1.38,1.38h2.95c.76,0,1.38-.62,1.38-1.38s-.62-1.38-1.38-1.38h-2.95c-.76,0-1.38.62-1.38,1.38Z" fill="#b1b0b1"/>
  <path d="M35.27,47.66c.23,0,.47-.06.69-.19l2.56-1.48c.66-.38.89-1.23.51-1.89-.38-.66-1.23-.89-1.89-.51l-2.56,1.48c-.51.3-.79.91-.66,1.49.14.63.71,1.09,1.35,1.09Z" fill="#b1b0b1"/>
  <path d="M71.74,45.08l-2.56-1.48c-.66-.38-1.51-.16-1.89.51-.38.66-.16,1.51.51,1.89l2.56,1.48c.71.41,1.63.1,1.96-.64.28-.64.03-1.4-.58-1.75Z" fill="#b1b0b1"/>
  <path d="M69.49,35.95c0,.76.62,1.38,1.38,1.38h2.95c.76,0,1.38-.62,1.38-1.38s-.62-1.38-1.38-1.38h-2.95c-.76,0-1.38.62-1.38,1.38Z" fill="#b1b0b1"/>
  <path d="M70.36,24.43c-.62.36-1.23.71-1.85,1.07-.24.14-.47.27-.71.41-.53.32-.81.96-.64,1.56.24.86,1.25,1.28,2.03.83l2.56-1.48c.66-.38.89-1.23.51-1.89s-1.23-.89-1.89-.51Z" fill="#b1b0b1"/>
  <path d="M63.21,21.31l1.48-2.56c.38-.66.16-1.51-.51-1.89s-1.51-.16-1.89.51l-1.48,2.56c-.52.9.15,2.08,1.2,2.08.48,0,.94-.25,1.2-.69Z" fill="#b1b0b1"/>
</svg>