<?xml version="1.0" encoding="UTF-8"?>
<svg id="Layer_1" data-name="Layer 1" xmlns="http://www.w3.org/2000/svg" viewBox="0 0 96 96">
  <defs>
    <style>
      .cls-1 {
        fill: #b1b0b1;
      }
    </style>
  </defs>
  <path class="cls-1" d="M94.05,46.99c-11.38-15.09-28.16-23.74-46.05-23.74S13.33,31.9,1.95,46.99c-.45.59-.45,1.43,0,2.02,11.38,15.09,28.16,23.74,46.05,23.74s34.67-8.65,46.05-23.74c.45-.6.45-1.43,0-2.02ZM26.13,48c0,10.02,6.77,18.47,15.97,21.05-14.16-1.63-27.28-9.1-36.7-21.05,9.41-11.96,22.54-19.42,36.69-21.05-9.2,2.58-15.97,11.04-15.97,21.05ZM69.87,48c0-5.38-1.97-10.55-5.55-14.56-.61-.69-1.68-.75-2.37-.13-.69.62-.75,1.68-.13,2.37,3.03,3.39,4.7,7.77,4.7,12.32,0,10.21-8.3,18.51-18.51,18.51s-18.51-8.3-18.51-18.51,8.3-18.51,18.51-18.51c2.99,0,5.84.69,8.48,2.05.4.21.85.24,1.28.11.43-.14.78-.43.98-.83.21-.4.24-.85.11-1.28-.14-.43-.43-.77-.83-.98-1.32-.68-2.71-1.21-4.14-1.61,14.17,1.63,27.3,9.09,36.72,21.06-9.41,11.96-22.54,19.42-36.7,21.05,9.2-2.58,15.97-11.04,15.97-21.05Z"/>
  <path class="cls-1" d="M48,39.11c-4.9,0-8.89,3.99-8.89,8.89s3.99,8.89,8.89,8.89,8.89-3.99,8.89-8.89-3.99-8.89-8.89-8.89ZM48,53.53c-3.05,0-5.53-2.48-5.53-5.53s2.48-5.53,5.53-5.53,5.53,2.48,5.53,5.53-2.48,5.53-5.53,5.53Z"/>
</svg>