<?xml version="1.0" encoding="UTF-8"?>
<svg id="Capa_1" data-name="Capa 1" xmlns="http://www.w3.org/2000/svg" viewBox="0 0 96 96">
  <defs>
    <style>
      .cls-1 {
        fill: #b1b0b1;
      }
    </style>
  </defs>
  <path class="cls-1" d="M91.04,45.5v5.05c-.05.27-.13.54-.15.81-.12,1.99-.43,3.95-.86,5.89-4.19,18.99-20.56,32.95-40.01,33.74-12.21.49-23.04-3.22-31.87-11.98-1.1-1.09-2.17-2.19-3.15-3.38-7.62-9.29-10.95-19.94-9.83-31.88.86-9.13,4.41-17.2,10.49-24.08,6.67-7.55,14.98-12.23,24.9-14.04,1.63-.3,3.28-.36,4.9-.65,1.68,0,3.36,0,5.05,0,.22.05.43.12.65.14,6.73.48,13.03,2.4,18.78,5.92,11.15,6.84,18.02,16.69,20.43,29.58.3,1.61.45,3.26.67,4.88ZM58.76,67.58c-.01.07-.03.14-.04.21.23.14.47.29.7.43,3.74,2.26,7.47,4.53,11.21,6.78,1.19.71,2.29,1.53,3.16,2.61.34.42.55.38.92.04,1.77-1.61,3.42-3.32,4.84-5.24,8.67-11.74,10.74-24.58,5.8-38.29-5.57-15.45-20.45-25.86-36.87-25.98-10.66-.07-20,3.45-27.71,10.77-9.85,9.36-13.97,20.95-12.3,34.46,1.14,9.2,5.28,16.96,11.88,23.44.34.33.55.34.89.02,1.17-1.12,2.58-1.84,4.07-2.46,4.07-1.72,8.13-3.48,12.19-5.22.46-.19.81-.45,1.07-.88.31-.51.28-.7-.39-.69-2.75.03-5.5.08-8.24,0-2.88-.09-5.67-.71-8.26-2.01-1.51-.76-2.16-1.96-1.95-3.38.11-.77.53-1.41.96-2.03,1.94-2.82,3.65-5.78,5.09-8.88,2.09-4.5,3.6-9.17,3.83-14.17.1-2.03.42-4.01,1.03-5.94,1.18-3.76,3.15-6.97,6.4-9.32,2.6-1.88,5.55-2.77,8.7-2.97,5.71-.36,10.87.99,14.94,5.24,3.54,3.69,5.23,8.23,5.61,13.27.43,5.74,1.95,11.17,4.36,16.38,1.05,2.26,2.25,4.44,3.49,6.6,1.39,2.41.71,5.07-1.57,6.3-.87.47-1.79.87-2.78.88-3.3.05-6.61.04-9.91.05-.38,0-.76,0-1.14,0ZM62.91,64.48s0,.03,0,.04c1.77,0,3.53,0,5.3,0,.85,0,1.68-.09,2.47-.41,1.1-.45,1.34-1.16.77-2.2-.31-.56-.65-1.11-.97-1.67-2.78-4.92-4.98-10.08-6.27-15.6-.69-2.93-.81-5.93-1.26-8.89-.56-3.73-2.06-7.03-4.78-9.69-3.49-3.42-7.8-4.44-12.53-4.02-3.22.29-6.1,1.39-8.42,3.73-2.77,2.8-4.06,6.27-4.37,10.11-.24,2.96-.48,5.91-1.28,8.79-1.71,6.19-4.6,11.82-8.2,17.11-.63.92-.62.96.46,1.34,2.47.89,4.99,1.42,7.64,1.38,2.69-.05,5.38-.04,8.07,0,1.82.03,3.18,1.73,2.64,3.38-.61,1.84-1.6,3.4-3.56,4.21-4.32,1.78-8.59,3.67-12.89,5.51-.73.31-1.39.72-2.02,1.19-.44.33-.51.52,0,.89,9.47,7.04,20.01,9.61,31.64,7.52,5.8-1.05,11.04-3.41,15.82-6.84.5-.36.45-.56.08-.93-.61-.62-1.29-1.16-2.03-1.61-3.84-2.32-7.67-4.63-11.5-6.96-.69-.42-1.36-.89-2.01-1.38-1.16-.88-1.54-2.03-1.12-3.24.39-1.14,1.34-1.75,2.77-1.76,1.85,0,3.7,0,5.55,0Z"/>
</svg>