<?xml version="1.0" encoding="UTF-8"?>
<svg id="Capa_1" data-name="Capa 1" xmlns="http://www.w3.org/2000/svg" viewBox="0 0 96 96">
  <defs>
    <style>
      .cls-1 {
        fill: #b1b0b1;
      }
    </style>
  </defs>
  <path class="cls-1" d="M45.92,7.09h4.31c.77.24,1.58.19,2.36.28,7.03.82,13.43,3.25,19.19,7.39,3.71,2.66,6.89,5.84,9.53,9.56,3.59,5.06,5.96,10.64,6.97,16.78.24,1.44.41,2.89.61,4.33v4.95c-.05.28-.13.56-.14.85-.11,1.78-.38,3.54-.77,5.29-2.17,9.85-7.23,17.92-15.27,23.99-9.92,7.48-21.09,9.97-33.26,7.45-9.88-2.05-17.91-7.22-23.99-15.25-7.26-9.59-9.76-20.42-7.66-32.25,1.23-6.95,4.2-13.15,8.74-18.56,6.23-7.41,14.09-12.12,23.6-14.04,1.91-.39,3.85-.49,5.76-.77ZM24.91,17.65c-.25.19-.46.34-.67.51-1.88,1.49-3.62,3.14-5.17,4.98-7.01,8.31-10.07,17.91-9.03,28.72.85,8.83,4.44,16.52,10.72,22.8,9.06,9.06,20.05,12.8,32.75,11.07,9.45-1.29,17.37-5.69,23.48-12.99,8.61-10.3,11.21-22.1,7.72-35.06-2.43-9.03-7.78-16.1-15.49-21.38-.31-.21-.56-.4-1-.25-4.62,1.57-8.56,4.1-11.63,7.95-.76.95-1.15,1.79-.87,3.08.45,2.1-.94,3.56-3.1,3.53-.53,0-1.06-.12-1.59-.15-.43-.02-.52-.23-.5-.61.04-.77.04-1.54-.11-2.31-.23-1.22-.66-1.57-1.82-1.18-1.24.43-2.5.69-3.79.86-.17.02-.4-.03-.45.22-.11.58-.01,1.12.44,1.54.37.34.82.49,1.23.15.75-.64,1.25-.16,1.6.4.3.48.66.57,1.15.64,1.7.26,2.28,1.02,2.09,2.72-.05.42.06.65.46.79,1.31.44,2.09,1.36,2.53,2.66.41,1.19,1.13,1.47,2.15.77,1.61-1.11,3.21-1.05,4.9-.24,1.2.57,2.39,1.17,3.73,1.35.98.13,1.71.64,2.35,1.38,1.35,1.57,2.31,3.38,3.4,5.11.78,1.24,1.55,2.49,2.89,3.24,1.45.82,2.01,2.14,1.99,3.74-.04,3.25-1.42,6.13-2.52,9.09-.07.19-.23.37-.39.49-2.12,1.61-3.55,3.8-5.07,5.91-3.04,4.21-7.01,7.23-11.84,9.13-1.3.51-2.51.36-3.6-.52-1.28-1.04-1.61-2.71-.83-4.26,1.04-2.06,2.15-4.1,2.83-6.32.72-2.35.69-4.29-1.4-6.24-4.04-3.78-5.52-8.49-3.65-13.94.22-.63.05-1.09-.52-1.41-.81-.47-1.27-1.19-1.45-2.1-.2-.99-.36-1.99-.56-2.98-.16-.81-.6-1.36-1.43-1.65-1.34-.48-2.73-.7-4.13-.87-3.58-.43-6.43-2.1-8.63-4.92-1.83-2.34-3.26-4.92-4.51-7.6-.89-1.92-1.75-3.86-2.65-5.85ZM52.73,25.55c.17-.98.31-1.43.74-1.99,2.15-2.81,4.56-5.33,7.61-7.2,1.38-.84,2.84-1.51,4.31-2.17-.06-.11-.07-.17-.1-.19-.16-.09-.33-.18-.49-.26-4.84-2.38-9.97-3.68-15.35-3.87-7.7-.27-14.85,1.61-21.45,5.63-.63.38-.81.66-.47,1.4,1.82,3.9,3.41,7.91,5.89,11.47,1.91,2.74,4.3,4.67,7.78,4.98,1.29.12,2.57.4,3.83.74,2.23.61,3.58,1.99,3.96,4.28.09.55.21,1.1.28,1.65.09.68.28,1.22.91,1.66,1.28.91,1.7,2.4,1.27,3.9-.09.31-.18.61-.28.92-.86,2.73-.42,5.29.93,7.76.83,1.52,2.03,2.72,3.29,3.88.91.85,1.4,1.9,1.6,3.13.21,1.32.02,2.6-.3,3.87-.67,2.65-1.87,5.08-3.18,7.46-.19.34-.33.68-.02,1.03.3.33.64.28,1.02.13,4.05-1.61,7.43-4.09,10.08-7.56,1.37-1.8,2.45-3.86,4.19-5.32,1.49-1.25,2.17-2.82,2.72-4.55.02-.05.04-.1.05-.15.41-1.4.96-2.77.97-4.26,0-.59,0-1.23-.58-1.56-1.95-1.09-3.08-2.89-4.19-4.71-.87-1.43-1.66-2.91-2.78-4.18-.21-.24-.4-.5-.75-.54-1.69-.23-3.19-.98-4.71-1.68-.71-.33-1.35-.25-2.03.16-2.57,1.55-5.04.73-6.13-2.04-.24-.61-.58-1.02-1.22-1.24-.96-.33-1.55-1.04-1.9-2.01-.15-.42.21-1.08-.4-1.24-.44-.11-.94.05-1.42.1-.21.02-.43.04-.63.09-.24.06-.43.02-.54-.2-.34-.67-.92-1.03-1.58-1.35-.62-.3-1.08-.85-1.45-1.45-1.55-2.46-.35-5.14,2.49-5.58.92-.14,1.83-.27,2.72-.59,2.34-.85,3.82-.39,5.34,1.68Z"/>
</svg>