<?xml version="1.0" encoding="UTF-8"?>
<svg id="Layer_1" data-name="Layer 1" xmlns="http://www.w3.org/2000/svg" viewBox="0 0 96 96">
  <defs>
    <style>
      .cls-1 {
        fill: #b1b0b1;
      }
    </style>
  </defs>
  <path class="cls-1" d="M85.78,80.85H10.23C4.59,80.85,0,76.13,0,70.33v-1.5h40.48c.83,0,1.5.67,1.5,1.5s-.67,1.5-1.5,1.5H3.14c.67,3.43,3.59,6.01,7.09,6.01h75.54c1.92,0,3.73-.77,5.09-2.18,1.03-1.06,1.71-2.39,1.99-3.83h-37.34c-.83,0-1.5-.67-1.5-1.5s.67-1.5,1.5-1.5h40.48v1.5c0,2.8-1.06,5.43-2.98,7.42-1.92,2-4.5,3.1-7.24,3.1Z"/>
  <path class="cls-1" d="M57.02,74.05h-18.03v-3.72c0-.83.67-1.5,1.5-1.5s1.5.67,1.5,1.5v.72h12.03v-.72c0-.83.67-1.5,1.5-1.5s1.5.67,1.5,1.5v3.72Z"/>
  <path class="cls-1" d="M88.48,71.84h-32.96c-.83,0-1.5-.67-1.5-1.5s.67-1.5,1.5-1.5h29.96V20.94c0-1.54-1.19-2.79-2.65-2.79H13.18c-1.46,0-2.65,1.25-2.65,2.79v47.89h29.95c.83,0,1.5.67,1.5,1.5s-.67,1.5-1.5,1.5H7.53V20.94c0-3.19,2.54-5.79,5.65-5.79h69.64c3.12,0,5.65,2.6,5.65,5.79v50.89Z"/>
  <path class="cls-1" d="M82.39,71.84h-26.88c-.83,0-1.5-.67-1.5-1.5s.67-1.5,1.5-1.5h23.88V24.6c0-.19-.14-.35-.3-.35H16.91c-.16,0-.3.16-.3.35v44.24h23.87c.83,0,1.5.67,1.5,1.5s-.67,1.5-1.5,1.5H13.61V24.6c0-1.85,1.48-3.35,3.3-3.35h62.19c1.82,0,3.3,1.5,3.3,3.35v47.24Z"/>
  <path class="cls-1" d="M48,63.33c-9.43,0-17.1-7.89-17.1-17.6s7.67-17.6,17.1-17.6,17.1,7.9,17.1,17.6-7.67,17.6-17.1,17.6ZM48,31.13c-7.77,0-14.1,6.55-14.1,14.6s6.32,14.6,14.1,14.6,14.1-6.55,14.1-14.6-6.32-14.6-14.1-14.6Z"/>
  <rect class="cls-1" x="46.5" y="29.63" width="3" height="32.19"/>
  <path class="cls-1" d="M47.19,63.09c-9.27-5.98-12.11-18.63-6.32-28.2,1.62-2.68,3.75-4.87,6.32-6.53l1.62,2.52c-2.19,1.41-4,3.27-5.38,5.56-4.96,8.19-2.54,19.01,5.38,24.12l-1.63,2.52Z"/>
  <path class="cls-1" d="M48.95,63.09l-1.62-2.53c2.19-1.4,4-3.27,5.38-5.55,4.96-8.19,2.54-19.01-5.38-24.12l1.63-2.52c9.28,5.98,12.11,18.63,6.32,28.2-1.62,2.68-3.75,4.87-6.32,6.53Z"/>
  <rect class="cls-1" x="32.4" y="44.23" width="30.78" height="3"/>
</svg>